<svg width="93" height="33" viewBox="0 0 93 33" fill="none" xmlns="http://www.w3.org/2000/svg">
<g clip-path="url(#clip0_17139_403)">
<mask id="mask0_17139_403" style="mask-type:luminance" maskUnits="userSpaceOnUse" x="0" y="0" width="28" height="33">
<path d="M0 0H27.4599V32.7935H0V0Z" fill="white"/>
</mask>
<g mask="url(#mask0_17139_403)">
<path d="M0.00297555 10.6022C0.00297555 7.43884 0.00372304 4.27586 0.00185432 1.11251C0.00148057 0.752223 0.0470776 0.414414 0.367003 0.179381C0.841661 -0.169482 1.50581 0.0283422 1.71062 0.575398C1.7835 0.769906 1.77416 0.97031 1.77416 1.17108C1.77378 7.1489 1.77304 13.1267 1.77416 19.1049C1.77528 24.8522 6.21352 29.9805 11.9939 30.8786C16.1439 31.523 19.7465 30.3825 22.769 27.5215C23.9684 26.3869 24.8626 25.0287 25.4832 23.5061C25.5785 23.2721 25.6861 23.1697 25.9507 23.1859C26.3441 23.2095 26.7412 23.2098 27.1346 23.1864C27.4471 23.1676 27.4594 23.2641 27.3622 23.5201C25.7619 27.7241 22.84 30.6359 18.5124 32.0682C10.9945 34.5563 2.94548 30.4292 0.618161 22.9604C0.19994 21.6177 0.012693 20.2429 0.00671302 18.8452C-0.00562062 16.0974 0.00297555 13.3496 0.00297555 10.6022Z" fill="white"/>
</g>
<path d="M4.36276 10.4143C4.36276 13.2553 4.36276 16.0963 4.36276 18.9373C4.36276 24.0322 8.3764 28.2615 13.5565 28.4828C17.5564 28.6543 20.5706 26.9158 22.6008 23.5322C22.7537 23.2769 22.8972 23.1653 23.1962 23.1854C23.576 23.2118 23.9598 23.2099 24.3395 23.1863C24.6594 23.1664 24.7064 23.2478 24.5741 23.5315C23.7352 25.3325 22.5231 26.8338 20.9077 28.0199C14.1362 32.9928 4.24465 29.1424 2.78666 20.9634C2.66407 20.2771 2.60278 19.5845 2.60315 18.8857C2.60652 12.9624 2.60501 7.03947 2.60464 1.11652C2.60464 0.902121 2.58895 0.686246 2.69696 0.487684C2.88308 0.145084 3.17947 -0.0324786 3.56631 0.0150434C3.96097 0.0636705 4.25062 0.277335 4.32537 0.689193C4.35602 0.859019 4.36125 1.03511 4.36125 1.20825C4.3635 4.27693 4.36276 7.34559 4.36276 10.4143Z" fill="white"/>
<path d="M21.8372 23.1933C21.148 24.4134 20.2627 25.3757 19.1485 26.125C13.774 29.7411 6.54766 26.7921 5.33222 20.4894C5.25113 20.0687 5.20628 19.6417 5.20628 19.2114C5.2074 13.126 5.20851 7.04102 5.20368 0.955612C5.20328 0.550386 5.34792 0.246096 5.72243 0.0803223C6.06479 -0.0710851 6.38956 -0.00219651 6.66949 0.242413C6.91655 0.458288 6.94008 0.744527 6.93971 1.04992C6.93599 6.96106 6.93485 12.8718 6.93785 18.7826C6.93933 22.1618 9.07417 24.9556 12.3594 25.7407C15.1752 26.4138 17.5676 25.5941 19.5006 23.485C19.6942 23.274 19.8698 23.1775 20.1539 23.1873C20.6943 23.2071 21.2359 23.1933 21.8372 23.1933Z" fill="white"/>
<path d="M18.5535 23.2268C17.4629 24.3898 16.1107 24.99 14.5335 25.1222C10.9769 25.4204 7.7997 22.5645 7.79598 19.0497C7.79001 13.0446 7.7941 7.03954 7.79484 1.03445C7.79484 0.390514 8.13085 -0.00182021 8.6713 0.00260044C9.21023 0.00702111 9.53876 0.400828 9.53876 1.04808C9.53913 6.98612 9.53576 12.9242 9.54024 18.8626C9.5425 21.6336 11.9203 23.7802 14.6479 23.3588C15.9548 23.1564 17.2443 23.26 18.5535 23.2268Z" fill="white"/>
<path d="M10.37 7.37768C10.37 6.83724 10.3782 6.31671 10.3673 5.79691C10.3595 5.44549 10.6619 5.51806 10.8342 5.47975C13.2971 4.93121 15.7571 4.95406 18.1682 5.70999C22.7701 7.15223 25.8184 10.1863 27.4968 14.7045C26.8663 14.7045 26.2941 14.7075 25.7215 14.7027C25.5325 14.7009 25.5452 14.5189 25.4978 14.4087C24.0989 11.1437 21.7262 8.85345 18.364 7.59392C15.802 6.63463 13.1865 6.5849 10.5538 7.33015C10.503 7.34452 10.4514 7.35667 10.37 7.37768Z" fill="white"/>
<path d="M24.6448 14.7072C24.1365 14.7072 23.6327 14.6913 23.1308 14.7138C22.8747 14.7252 22.7503 14.6327 22.6318 14.418C21.5139 12.3915 19.868 10.9264 17.695 10.0695C15.3935 9.16183 13.0579 9.13972 10.7269 9.97228C10.3913 10.0924 10.346 10.0205 10.3644 9.7111C10.3879 9.31065 10.3793 8.90764 10.3662 8.50646C10.3595 8.31158 10.4253 8.23018 10.6211 8.17602C14.9024 6.99164 18.7082 7.829 22.0002 10.786C23.1379 11.8079 23.9884 13.0465 24.5959 14.4423C24.6264 14.5123 24.6957 14.5753 24.6448 14.7072Z" fill="white"/>
<path d="M10.37 12.9024C10.37 12.3675 10.3894 11.8581 10.3625 11.3512C10.3479 11.0774 10.4388 10.947 10.6955 10.8531C13.9352 9.66761 16.9348 10.0802 19.677 12.1623C20.5669 12.8383 21.2576 13.6897 21.8481 14.7068C21.1578 14.7068 20.5262 14.7039 19.8945 14.7094C19.7648 14.7105 19.7021 14.639 19.6322 14.5532C17.4282 11.8477 13.5562 11.1349 10.4821 12.8792C10.4619 12.891 10.4339 12.8899 10.37 12.9024Z" fill="white"/>
<path d="M18.6391 14.7068C17.5844 14.7068 16.5932 14.7175 15.6028 14.6995C15.3509 14.695 15.1031 14.5838 14.8493 14.5458C13.0367 14.2736 11.5813 14.8999 10.3715 16.3318C10.3715 15.5268 10.3733 14.7864 10.37 14.0463C10.3693 13.9096 10.4761 13.8735 10.561 13.8127C12.9275 12.1255 16.6669 12.5179 18.6391 14.7068Z" fill="white"/>
<path d="M92.3681 13.4356C92.0558 13.4356 91.8033 13.6849 91.8033 13.9922V15.2219H90.3939V13.9922C90.3939 13.6849 90.1412 13.4356 89.8292 13.4356C89.5174 13.4356 89.264 13.6849 89.264 13.9922V15.2219H87.7755V12.9378C87.7755 12.6306 87.5228 12.3812 87.2108 12.3812C86.8985 12.3812 86.646 12.6306 86.646 12.9378V15.2219H80.8033L79.4409 16.9216H92.3579C92.6757 16.9216 92.9328 16.6678 92.9328 16.355V13.9922C92.9328 13.6849 92.6796 13.4356 92.3681 13.4356Z" fill="white"/>
<path d="M49.3688 13.4354C49.0573 13.4354 48.8041 13.6848 48.8041 13.9921V15.2218H47.0917V13.9921C47.0917 13.6848 46.839 13.4354 46.527 13.4354C46.2147 13.4354 45.9622 13.6848 45.9622 13.9921V15.2218H45.4472V13.9921C45.4472 13.6848 45.1945 13.4354 44.8825 13.4354C44.5703 13.4354 44.3173 13.6848 44.3173 13.9921V15.2218H43.8028V13.9921C43.8028 13.6848 43.5496 13.4354 43.2376 13.4354C42.9258 13.4354 42.6728 13.6848 42.6728 13.9921V15.2218H38.3102V13.9921C38.3102 13.6848 38.057 13.4354 37.745 13.4354C37.4332 13.4354 37.1802 13.6848 37.1802 13.9921V16.3726C37.1802 16.6758 37.4295 16.9215 37.7371 16.9215H43.2973C43.5145 16.9215 43.6961 16.7808 43.7593 16.5877C43.7942 16.776 43.9537 16.9215 44.1548 16.9215H49.3591C49.6764 16.9215 49.934 16.6677 49.934 16.3549V13.9921C49.934 13.6848 49.6808 13.4354 49.3688 13.4354Z" fill="white"/>
<path d="M63.5997 12.3812C63.2877 12.3812 63.0349 12.6306 63.0349 12.9378V16.9216H64.1644V12.9378C64.1644 12.6306 63.9115 12.3812 63.5997 12.3812Z" fill="white"/>
<path d="M53.0305 14.5952H52.0635C51.9231 14.5952 51.8092 14.4829 51.8092 14.3444C51.8092 14.2062 51.9231 14.0939 52.0635 14.0939H53.0305C53.1711 14.0939 53.2851 14.2062 53.2851 14.3444C53.2851 14.4829 53.1711 14.5952 53.0305 14.5952ZM62.1126 12.3812C61.8008 12.3812 61.5479 12.6306 61.5479 12.9378V15.2219H60.0169V13.9922C60.0169 13.6849 59.7644 13.4356 59.4521 13.4356C59.1401 13.4356 58.8874 13.6849 58.8874 13.9922V15.2219H58.3485V13.9922C58.3485 13.6849 58.0955 13.4356 57.7837 13.4356C57.4717 13.4356 57.2187 13.6849 57.2187 13.9922V15.2219H56.68V13.9922C56.68 13.6849 56.4271 13.4356 56.1151 13.4356C55.8033 13.4356 55.5503 13.6849 55.5503 13.9922V15.2219H54.2948V13.9155C54.2948 13.6503 54.077 13.4356 53.808 13.4356H51.2451C50.9761 13.4356 50.758 13.6503 50.758 13.9155V14.7647C50.758 14.9931 50.9466 15.1788 51.1782 15.1788H53.2816C53.4555 15.1788 53.5964 15.3176 53.5964 15.4889V15.4978C53.5964 15.6691 53.4555 15.808 53.2816 15.808H51.3228C51.0549 15.808 50.831 15.9933 50.7734 16.2404C50.7641 16.2806 50.758 16.3219 50.758 16.365C50.758 16.6722 51.0112 16.9216 51.3228 16.9216H53.8045C53.8049 16.9216 53.8049 16.9212 53.8049 16.9212C53.8061 16.9212 53.8068 16.9216 53.808 16.9216C54.0247 16.9216 54.2062 16.7809 54.2695 16.5878C54.3044 16.7761 54.4638 16.9216 54.6652 16.9216H62.0489C62.3528 16.9216 62.6002 16.6936 62.6313 16.4018C62.6592 16.3226 62.6774 16.239 62.6774 16.1506V12.9378C62.6774 12.6306 62.4246 12.3812 62.1126 12.3812Z" fill="white"/>
<path d="M67.4934 15.0593C67.4934 15.1492 67.4197 15.2217 67.329 15.2217H66.6101C66.5194 15.2217 66.4457 15.1492 66.4457 15.0593V14.4183C66.4457 14.3284 66.5194 14.2558 66.6101 14.2558H67.329C67.4197 14.2558 67.4934 14.3284 67.4934 14.4183V15.0593ZM67.804 13.2881H66.1453C65.6796 13.2881 65.3021 13.6602 65.3021 14.1192V16.0904C65.3021 16.5494 65.6796 16.9215 66.1453 16.9215H67.804C68.2697 16.9215 68.6471 16.5494 68.6471 16.0904V14.1192C68.6471 13.6602 68.2697 13.2881 67.804 13.2881Z" fill="white"/>
<path d="M77.9538 13.6587V13.9313H77.1263C77.0145 13.9313 76.9238 13.8418 76.9238 13.7316V13.6587C76.9238 13.5485 77.0145 13.459 77.1263 13.459H77.9538V13.6587ZM76.5615 12.6386C76.0772 12.6386 75.6843 13.0258 75.6843 13.5032V13.9991C75.6843 14.4765 76.0772 14.8637 76.5615 14.8637H77.9598V15.2218H72.6948V14.0219C72.6948 13.7445 72.5023 13.4877 72.2245 13.4432C71.8706 13.3865 71.5649 13.6543 71.5649 13.9921V15.2218H70.0799V12.9676C70.0799 12.6902 69.8879 12.4331 69.6102 12.3888C69.2562 12.3321 68.9507 12.5996 68.9507 12.9377V16.9215H78.1156C78.4329 16.9215 78.6903 16.6681 78.6903 16.3549V12.6386H77.9598" fill="white"/>
<path d="M83.1929 14.7753H84.9413C85.1132 14.7753 85.2527 14.6379 85.2527 14.4684C85.2527 14.2989 85.1132 14.1615 84.9413 14.1615H84.0192V13.9195H84.9413C85.1132 13.9195 85.2527 13.7821 85.2527 13.6126C85.2527 13.4432 85.1132 13.3058 84.9413 13.3058H83.681C83.5154 13.3058 83.3829 13.434 83.3731 13.595H83.3696V14.1615H83.1929C83.0211 14.1615 82.8816 14.2989 82.8816 14.4684C82.8816 14.6379 83.0211 14.7753 83.1929 14.7753Z" fill="white"/>
<path d="M92.1805 17.1359C91.8415 17.1359 91.5667 17.4066 91.5667 17.7407C91.5667 18.0749 91.8415 18.3457 92.1805 18.3457C92.5194 18.3457 92.794 18.0749 92.794 17.7407C92.794 17.4066 92.5194 17.1359 92.1805 17.1359Z" fill="white"/>
<path d="M89.8292 13.0461C90.1682 13.0461 90.4428 12.7753 90.4428 12.4412C90.4428 12.1071 90.1682 11.8363 89.8292 11.8363C89.4902 11.8363 89.2154 12.1071 89.2154 12.4412C89.2154 12.7753 89.4902 13.0461 89.8292 13.0461Z" fill="white"/>
<path d="M75.0708 13.0461C75.4098 13.0461 75.6843 12.7753 75.6843 12.4412C75.6843 12.1071 75.4098 11.8363 75.0708 11.8363C74.7318 11.8363 74.457 12.1071 74.457 12.4412C74.457 12.7753 74.7318 13.0461 75.0708 13.0461Z" fill="white"/>
<path d="M73.7537 13.0461C74.0926 13.0461 74.3672 12.7753 74.3672 12.4412C74.3672 12.1071 74.0926 11.8363 73.7537 11.8363C73.4147 11.8363 73.1399 12.1071 73.1399 12.4412C73.1399 12.7753 73.4147 13.0461 73.7537 13.0461Z" fill="white"/>
<path d="M67.6331 13.0461C67.9721 13.0461 68.2469 12.7753 68.2469 12.4412C68.2469 12.1071 67.9721 11.8363 67.6331 11.8363C67.2941 11.8363 67.0195 12.1071 67.0195 12.4412C67.0195 12.7753 67.2941 13.0461 67.6331 13.0461Z" fill="white"/>
<path d="M66.316 13.0461C66.6547 13.0461 66.9298 12.7753 66.9298 12.4412C66.9298 12.1071 66.6547 11.8363 66.316 11.8363C65.977 11.8363 65.7019 12.1071 65.7019 12.4412C65.7019 12.7753 65.977 13.0461 66.316 13.0461Z" fill="white"/>
<path d="M48.9043 17.1359C48.5653 17.1359 48.2907 17.4066 48.2907 17.7407C48.2907 18.0749 48.5653 18.3457 48.9043 18.3457C49.2433 18.3457 49.5181 18.0749 49.5181 17.7407C49.5181 17.4066 49.2433 17.1359 48.9043 17.1359Z" fill="white"/>
<path d="M47.5869 17.1359C47.2482 17.1359 46.9731 17.4066 46.9731 17.7407C46.9731 18.0749 47.2482 18.3457 47.5869 18.3457C47.9259 18.3457 48.2009 18.0749 48.2009 17.7407C48.2009 17.4066 47.9259 17.1359 47.5869 17.1359Z" fill="white"/>
<path d="M72.1296 13.0461C72.4686 13.0461 72.7437 12.7753 72.7437 12.4412C72.7437 12.1071 72.4686 11.8363 72.1296 11.8363C71.7906 11.8363 71.5163 12.1071 71.5163 12.4412C71.5163 12.7753 71.7906 13.0461 72.1296 13.0461Z" fill="white"/>
<path d="M43.9562 21.445C43.9562 21.7412 43.7126 21.9814 43.4124 21.9814H43.0511C42.7505 21.9814 42.5073 21.7412 42.5073 21.445V18.9595H41.4276V22.0639C41.4276 22.5398 41.8188 22.9256 42.3017 22.9256H44.1617C44.6447 22.9256 45.036 22.5398 45.036 22.0639V18.9595H43.9562" fill="white"/>
<path d="M39.9147 18.9595H38.0544C37.5715 18.9595 37.1802 19.3455 37.1802 19.8215V20.4901C37.1802 20.6566 37.2302 20.811 37.3132 20.9425C37.4676 21.1875 37.7406 21.3518 38.0544 21.3518H38.2911L38.2921 21.3514H39.6508C39.6515 21.3514 39.6522 21.3518 39.6522 21.3518C39.8633 21.3525 40.0342 21.5212 40.0342 21.7294C40.0342 21.9382 39.8626 22.1077 39.6508 22.1077H38.2921C38.0877 22.1077 37.9245 21.9486 37.9131 21.7504H37.1802V22.0639C37.1802 22.5398 37.5715 22.9256 38.0544 22.9256H39.9147C40.3973 22.9256 40.7889 22.5398 40.7889 22.0639V21.3949C40.7889 21.2287 40.7387 21.0744 40.6557 20.9425C40.5013 20.6979 40.2285 20.5332 39.9147 20.5332H38.2921C38.0807 20.5332 37.9091 20.3645 37.9091 20.1556C37.9091 19.9471 38.0807 19.778 38.2921 19.778H39.6515C39.8552 19.778 40.0184 19.9364 40.03 20.135H40.7889V19.8215C40.7889 19.3455 40.3973 18.9595 39.9147 18.9595Z" fill="white"/>
<path d="M45.6786 19.3293V22.9256H48.9517V21.9655H46.653V21.4225H48.9517V20.4625H46.653V19.9199H48.9517V18.9595H45.6786" fill="white"/>
<path d="M49.5904 19.9199H51.6341L49.5904 21.9655V22.9256H52.8638V21.9655H50.9049L52.8638 19.9199V18.9595H49.5904" fill="white"/>
<path d="M65.9007 21.0666L64.5736 18.9595H63.5997V22.9256H64.5736V21.0073L65.9007 22.9256H66.8747V18.9595H65.9007" fill="white"/>
<path d="M72.4902 18.9595H71.5163V22.9256H74.8587V21.9655H72.4902" fill="white"/>
<path d="M87.8711 21.0666L86.5439 18.9595H85.57V22.9256H86.5439V21.0073L87.8711 22.9256H88.845V18.9595H87.8711" fill="white"/>
<path d="M57.9732 18.9595H56.1132C55.6303 18.9595 55.239 19.3455 55.239 19.8215V22.0639C55.239 22.5398 55.6303 22.9256 56.1132 22.9256H57.9732C58.4561 22.9256 58.8474 22.5398 58.8474 22.0639V21.6822H58.109V21.7334C58.109 21.9615 57.9213 22.1468 57.6895 22.1468H56.8116C56.58 22.1468 56.3924 21.9615 56.3924 21.7334V20.1597C56.3924 19.9316 56.58 19.7467 56.8116 19.7467H57.6895C57.9213 19.7467 58.109 19.9316 58.109 20.1597V20.132H58.8474V19.8215C58.8474 19.3455 58.4561 18.9595 57.9732 18.9595Z" fill="white"/>
<path d="M61.8531 21.2729H60.6318V20.258C60.6318 20.019 60.8283 19.8252 61.0708 19.8252H61.414C61.6565 19.8252 61.8531 20.019 61.8531 20.258V21.2729ZM61.5758 18.9595H60.8934C60.0852 18.9595 59.4303 19.6052 59.4303 20.4017V22.9256H60.6318V22.2333H61.8531V22.9256H63.0387V20.4017C63.0387 19.6052 62.3839 18.9595 61.5758 18.9595Z" fill="white"/>
<path d="M69.8142 21.2729H68.5926V20.258C68.5926 20.019 68.7895 19.8252 69.0316 19.8252H69.3752C69.6172 19.8252 69.8142 20.019 69.8142 20.258V21.2729ZM69.5366 18.9595H68.8542C68.046 18.9595 67.3913 19.6052 67.3913 20.4017V22.9256H68.5926V22.2333H69.8142V22.9256H70.9997V20.4017C70.9997 19.6052 70.3447 18.9595 69.5366 18.9595Z" fill="white"/>
<path d="M83.8648 21.2729H82.6435V20.258C82.6435 20.019 82.8402 19.8252 83.0827 19.8252H83.4261C83.6684 19.8252 83.8648 20.019 83.8648 20.258V21.2729ZM83.5877 18.9595H82.9051C82.0971 18.9595 81.442 19.6052 81.442 20.4017V22.9256H82.6435V22.2333H83.8648V22.9256H85.0504V20.4017C85.0504 19.6052 84.3956 18.9595 83.5877 18.9595Z" fill="white"/>
<path d="M79.3806 20.5568H78.2274V19.778H79.3806C79.5989 19.778 79.7761 19.9523 79.7761 20.1674C79.7761 20.3826 79.5989 20.5568 79.3806 20.5568ZM79.3806 22.2488H78.2274V21.4697H79.3806C79.5989 21.4697 79.7761 21.6443 79.7761 21.8594C79.7761 22.0746 79.5989 22.2488 79.3806 22.2488ZM80.0972 18.9595H76.6606V22.9256H80.0972C80.5438 22.9256 80.9056 22.5689 80.9056 22.1287V21.7393C80.9056 21.2991 80.5438 20.9425 80.0972 20.9425C80.5438 20.9425 80.9056 20.5859 80.9056 20.1457V19.7563C80.9056 19.3164 80.5438 18.9595 80.0972 18.9595Z" fill="white"/>
<path d="M91.7301 20.9425L92.824 19.9202C93.05 19.7088 93.0595 19.3562 92.8449 19.1333C92.6303 18.9101 92.2728 18.9009 92.0465 19.1123L90.9094 20.1752L90.7294 20.3435V18.9595H89.4688V22.9256H90.7294V21.5415L90.9094 21.7098L92.0465 22.7726C92.2728 22.9845 92.6303 22.9749 92.8449 22.752C93.0595 22.5288 93.05 22.1762 92.824 21.9648" fill="white"/>
<path d="M34.4381 16.7248V14.9072L31.7713 15.8514L29.065 14.9072L26.4066 15.816L23.7082 14.9072L21.0258 15.816L18.3513 14.9072L15.6528 15.816L12.9465 14.9072V16.7248L15.6132 17.5983L18.3232 16.6876L21.0355 17.5983L23.6922 16.7171L26.4306 17.5983L29.049 16.6854L31.7397 17.5983" fill="white"/>
<path d="M34.4381 19.3584V17.5404L31.7713 18.485L29.065 17.5404L26.4066 18.4492L23.7082 17.5404L21.0258 18.4492L18.3513 17.5404L15.6528 18.4492L12.9465 17.5404V19.3584L15.6132 20.2319L18.3232 19.3208L21.0355 20.2319L23.6922 19.3503L26.4306 20.2319L29.049 19.319L31.7397 20.2319" fill="white"/>
<path d="M34.4381 21.9916V20.174L31.7713 21.1181L29.065 20.174L26.4066 21.0828L23.7082 20.174L21.0258 21.0828L18.3513 20.174L15.6528 21.0828L12.9465 20.174V21.9916L15.6132 22.865L18.3232 21.9544L21.0355 22.865L23.6922 21.9838L26.4306 22.865L29.049 21.9521L31.7397 22.865" fill="white"/>
</g>
<defs>
<clipPath id="clip0_17139_403">
<rect width="93" height="33" fill="white"/>
</clipPath>
</defs>
</svg>
