<svg width="51" height="176" viewBox="0 0 51 176" fill="none" xmlns="http://www.w3.org/2000/svg">
<g opacity="0.1" clip-path="url(#clip0_17139_449)">
<mask id="mask0_17139_449" style="mask-type:luminance" maskUnits="userSpaceOnUse" x="-118" y="33" width="168" height="143">
<path d="M-118 176L-118 33.6389L49.9426 33.6389L49.9426 176L-118 176Z" fill="white"/>
</mask>
<g mask="url(#mask0_17139_449)">
<path d="M-63.704 175.985C-79.9041 175.985 -96.1024 175.981 -112.303 175.99C-114.148 175.992 -115.878 175.756 -117.081 174.097C-118.868 171.637 -117.855 168.193 -115.053 167.132C-114.057 166.754 -113.031 166.802 -112.003 166.802C-81.3889 166.804 -50.7752 166.808 -20.1595 166.802C9.27347 166.796 35.5365 143.787 40.1359 113.82C43.4361 92.3045 37.5951 73.6277 22.9437 57.9581C17.1331 51.7398 10.1771 47.104 2.37967 43.8869C1.18141 43.3927 0.656816 42.8346 0.740137 41.4629C0.861025 39.4234 0.862192 37.3647 0.742487 35.3252C0.646249 33.7052 1.14034 33.6414 2.45126 34.1452C23.9812 42.4417 38.8931 57.59 46.2281 80.0258C58.97 119.001 37.8345 160.73 -0.414688 172.795C-7.29111 174.964 -14.3318 175.934 -21.4896 175.965C-35.5616 176.029 -49.6337 175.985 -63.704 175.985Z" fill="white"/>
</g>
<path d="M-64.6661 153.382C-50.1167 153.382 -35.5673 153.382 -21.0179 153.382C5.07425 153.382 26.7332 132.574 27.867 105.719C28.7448 84.9821 19.8418 69.3552 2.51342 58.83C1.20602 58.0375 0.634471 57.2935 0.73775 55.7434C0.872714 53.7744 0.86333 51.7844 0.74245 49.816C0.640345 48.1575 1.05697 47.914 2.50991 48.5998C11.7333 52.9487 19.4216 59.233 25.4963 67.6075C50.9636 102.713 31.2446 153.994 -10.6417 161.553C-14.1564 162.189 -17.7032 162.506 -21.282 162.505C-51.6166 162.487 -81.9491 162.495 -112.282 162.497C-113.38 162.497 -114.485 162.578 -115.502 162.018C-117.257 161.053 -118.166 159.517 -117.923 157.511C-117.674 155.465 -116.579 153.963 -114.47 153.576C-113.601 153.417 -112.699 153.39 -111.812 153.39C-96.0967 153.378 -80.3814 153.382 -64.6661 153.382Z" fill="white"/>
<path d="M0.77766 62.7886C7.02597 66.3616 11.954 70.9517 15.7917 76.7278C34.3101 104.591 19.2081 142.055 -13.0698 148.356C-15.2242 148.776 -17.4107 149.009 -19.6143 149.009C-50.779 149.003 -81.9416 148.997 -113.106 149.022C-115.182 149.025 -116.74 148.275 -117.589 146.333C-118.364 144.558 -118.011 142.874 -116.759 141.423C-115.653 140.142 -114.187 140.02 -112.623 140.022C-82.3511 140.042 -52.0807 140.047 -21.8104 140.032C-4.50464 140.024 9.80273 128.957 13.8235 111.925C17.2704 97.3267 13.0724 84.924 2.27167 74.9026C1.19078 73.8989 0.696682 72.9882 0.747151 71.5156C0.84808 68.7138 0.777661 65.9062 0.77766 62.7886Z" fill="white"/>
<path d="M0.949064 79.8125C6.90514 85.4664 9.97883 92.4767 10.656 100.653C12.1829 119.092 -2.44255 135.564 -20.4425 135.583C-51.1959 135.614 -81.9492 135.593 -112.703 135.589C-116 135.589 -118.01 133.847 -117.987 131.045C-117.964 128.251 -115.947 126.548 -112.633 126.548C-82.2228 126.546 -51.8127 126.563 -21.401 126.54C-7.21 126.529 3.78334 114.201 1.62507 100.061C0.588774 93.2848 1.11924 86.6 0.949064 79.8125Z" fill="white"/>
</g>
<defs>
<clipPath id="clip0_17139_449">
<rect width="180" height="169" fill="white" transform="translate(-118 176) rotate(-90)"/>
</clipPath>
</defs>
</svg>
