<svg width="48" height="135" viewBox="0 0 48 135" fill="none" xmlns="http://www.w3.org/2000/svg">
<g opacity="0.1">
<mask id="mask0_17139_465" style="mask-type:luminance" maskUnits="userSpaceOnUse" x="0" y="-19" width="127" height="154">
<path d="M0 -19H126.543V134.036H0V-19Z" fill="white"/>
</mask>
<g mask="url(#mask0_17139_465)">
<path d="M0.0137056 30.4767C0.0137056 15.7146 0.0171503 0.953978 0.00853864 -13.8083C0.00681628 -15.4897 0.216941 -17.0661 1.69125 -18.1629C3.87862 -19.791 6.93921 -18.8678 7.88304 -16.3148C8.2189 -15.4071 8.17584 -14.4719 8.17584 -13.535C8.17411 14.3615 8.17067 42.2581 8.17584 70.1563C8.181 96.9769 28.6337 120.909 55.2713 125.1C74.396 128.107 90.9976 122.785 104.926 109.434C110.454 104.139 114.574 97.8004 117.434 90.695C117.873 89.6031 118.369 89.1251 119.589 89.201C121.401 89.3112 123.231 89.3122 125.044 89.2031C126.484 89.1155 126.541 89.5657 126.093 90.7603C118.719 110.379 105.253 123.968 85.3105 130.652C50.6657 142.263 13.5736 123.003 2.84866 88.1487C0.921375 81.8826 0.0584865 75.4668 0.0309289 68.9443C-0.0259081 56.1213 0.0137056 43.2982 0.0137056 30.4767Z" fill="white"/>
</g>
<path d="M20.1048 29.6002C20.1048 42.8582 20.1048 56.1162 20.1048 69.3742C20.1048 93.1505 38.6009 112.887 62.4724 113.92C80.9049 114.72 94.7954 106.607 104.151 90.817C104.856 89.6257 105.517 89.1048 106.895 89.1989C108.645 89.3219 110.414 89.3134 112.164 89.2032C113.638 89.1102 113.854 89.4898 113.245 90.8138C109.379 99.2186 103.793 106.225 96.349 111.76C65.1437 134.967 19.5605 116.998 12.8417 78.8295C12.2768 75.6267 11.9943 72.3948 11.996 69.1336C12.0116 41.4915 12.0046 13.8511 12.0029 -13.7893C12.0029 -14.7898 11.9306 -15.7972 12.4284 -16.7239C13.286 -18.3227 14.6519 -19.1513 16.4345 -18.9295C18.2533 -18.7026 19.5881 -17.7055 19.9325 -15.7835C20.0738 -14.991 20.0979 -14.1692 20.0979 -13.3612C20.1083 0.959303 20.1048 15.2797 20.1048 29.6002Z" fill="white"/>
<path d="M100.632 89.2353C97.4564 94.929 93.3763 99.4196 88.242 102.917C63.4749 119.791 30.1736 106.03 24.5725 76.6169C24.1988 74.6537 23.9921 72.6613 23.9921 70.6533C23.9972 42.2547 24.0024 13.858 23.9801 -14.5406C23.9783 -16.4317 24.6448 -17.8517 26.3706 -18.6253C27.9483 -19.3319 29.445 -19.0104 30.735 -17.8689C31.8735 -16.8614 31.9819 -15.5257 31.9802 -14.1005C31.9631 13.4848 31.9578 41.0685 31.9716 68.6521C31.9785 84.4218 41.8165 97.4593 56.9558 101.123C69.9318 104.264 80.9565 100.439 89.8644 90.5967C90.7565 89.6117 91.5661 89.1615 92.8751 89.2075C95.3655 89.2995 97.8612 89.2353 100.632 89.2353Z" fill="white"/>
<path d="M85.5 89.3914C80.4742 94.8188 74.2429 97.6197 66.9747 98.2368C50.5849 99.6281 35.9433 86.3008 35.9262 69.8985C35.8986 41.8747 35.9175 13.851 35.9209 -14.1728C35.9209 -17.1778 37.4693 -19.0087 39.9599 -18.9881C42.4435 -18.9675 43.9574 -17.1297 43.9574 -14.1092C43.9591 13.6017 43.9436 41.3126 43.9642 69.0251C43.9746 81.9565 54.932 91.9741 67.5017 90.0074C73.5246 89.0631 79.4667 89.5464 85.5 89.3914Z" fill="white"/>
<path d="M47.7879 15.4292C47.7879 12.9072 47.8258 10.478 47.7758 8.05231C47.7397 6.41232 49.133 6.75101 49.927 6.5722C61.2772 4.01238 72.6135 4.119 83.7243 7.64667C104.931 14.3771 118.979 28.5359 126.714 49.6212C123.808 49.6212 121.171 49.635 118.532 49.6126C117.661 49.6041 117.72 48.7548 117.501 48.2407C111.055 33.0039 100.121 22.3161 84.6268 16.4384C72.8202 11.9617 60.7674 11.7296 48.6353 15.2074C48.401 15.2745 48.1633 15.3312 47.7879 15.4292Z" fill="white"/>
<path d="M113.57 49.6334C111.228 49.6334 108.906 49.5595 106.593 49.6644C105.414 49.7176 104.84 49.2861 104.294 48.2838C99.1426 38.8268 91.5574 31.9898 81.5438 27.9911C70.9377 23.7552 60.1749 23.652 49.4326 27.5373C47.886 28.0976 47.6776 27.7625 47.762 26.3184C47.8705 24.4497 47.8309 22.5689 47.7706 20.6968C47.7396 19.7873 48.0427 19.4074 48.9452 19.1547C68.6745 13.6276 86.213 17.5353 101.383 31.3349C106.626 36.1037 110.546 41.8835 113.345 48.3973C113.486 48.724 113.805 49.0179 113.57 49.6334Z" fill="white"/>
<path d="M47.7879 41.2114C47.7879 38.7152 47.8774 36.3376 47.7535 33.9721C47.6863 32.6948 48.1048 32.0861 49.2881 31.6478C64.2172 26.1155 78.0407 28.0411 90.6775 37.7576C94.7784 40.9123 97.9611 44.8851 100.682 49.6318C97.5013 49.6318 94.5905 49.618 91.6798 49.6437C91.0821 49.6489 90.7929 49.3154 90.4708 48.9148C80.3142 36.2895 62.4708 32.963 48.3046 41.1031C48.2116 41.1581 48.0824 41.1529 47.7879 41.2114Z" fill="white"/>
<path d="M85.8945 49.6315C81.0341 49.6315 76.4665 49.6814 71.9023 49.5972C70.7415 49.5766 69.5996 49.0574 68.4301 48.8803C60.0768 47.6099 53.37 50.5324 47.7948 57.2147C47.7948 53.4583 47.8034 50.0029 47.788 46.5492C47.7846 45.9114 48.2771 45.7428 48.6681 45.4592C59.5739 37.5855 76.8058 39.4164 85.8945 49.6315Z" fill="white"/>
</g>
</svg>
