<svg width="150" height="54" viewBox="0 0 150 54" fill="none" xmlns="http://www.w3.org/2000/svg">
<g clip-path="url(#clip0_194_1675)">
<mask id="mask0_194_1675" style="mask-type:luminance" maskUnits="userSpaceOnUse" x="0" y="0" width="45" height="54">
<path d="M0 0H44.2901V53.6621H0V0Z" fill="white"/>
</mask>
<g mask="url(#mask0_194_1675)">
<path d="M0.00479239 17.349C0.00479239 12.1726 0.00599802 6.99686 0.00298395 1.82047C0.00238112 1.23091 0.0759248 0.678131 0.591934 0.293533C1.35751 -0.277334 2.42872 0.0463781 2.75906 0.941561C2.87661 1.25985 2.86154 1.58778 2.86154 1.91631C2.86093 11.6982 2.85973 21.4801 2.86154 31.2626C2.86335 40.6672 10.0218 49.059 19.3449 50.5286C26.0386 51.5831 31.8492 49.7168 36.7242 45.0353C38.6587 43.1786 40.101 40.956 41.1019 38.4645C41.2556 38.0816 41.4292 37.914 41.856 37.9406C42.4905 37.9793 43.131 37.9796 43.7655 37.9414C44.2695 37.9106 44.2894 38.0685 44.1326 38.4874C41.5515 45.3668 36.8387 50.1315 29.8587 52.4753C17.733 56.5466 4.75076 49.7933 0.997028 37.5716C0.322477 35.3744 0.0204657 33.1247 0.0108206 30.8376C-0.00907241 26.3412 0.00479239 21.8448 0.00479239 17.349Z" fill="black"/>
</g>
<path d="M7.03669 17.0416C7.03669 21.6905 7.03669 26.3394 7.03669 30.9883C7.03669 39.3254 13.5103 46.2461 21.8653 46.6083C28.3167 46.8888 33.1784 44.0441 36.4529 38.5072C36.6995 38.0894 36.9309 37.9068 37.4132 37.9398C38.0257 37.9829 38.6449 37.9799 39.2572 37.9413C39.7733 37.9087 39.849 38.0418 39.6356 38.5061C38.2826 41.4532 36.3275 43.9098 33.7221 45.8508C22.8003 53.9883 6.84619 47.6876 4.4946 34.3038C4.29686 33.1807 4.19801 32.0474 4.19861 30.9039C4.20405 21.2112 4.20161 11.5192 4.20101 1.82706C4.20101 1.47622 4.1757 1.12297 4.34992 0.798051C4.65011 0.237433 5.12816 -0.0531246 5.75209 0.0246387C6.38865 0.10421 6.85582 0.453843 6.97639 1.12779C7.02581 1.40569 7.03425 1.69384 7.03425 1.97716C7.03789 6.99864 7.03669 12.0201 7.03669 17.0416Z" fill="black"/>
<path d="M35.2213 37.9526C34.1097 39.9491 32.6817 41.5237 30.8847 42.7499C22.2162 48.6671 10.5607 43.8416 8.60036 33.5279C8.46956 32.8396 8.39722 32.1409 8.39722 31.4368C8.39902 21.4788 8.40082 11.5216 8.39302 1.56362C8.39238 0.90052 8.62567 0.402592 9.22972 0.131326C9.78191 -0.116432 10.3057 -0.00370526 10.7572 0.396565C11.1557 0.749815 11.1937 1.21821 11.1931 1.71794C11.1871 11.3907 11.1852 21.0629 11.1901 30.7351C11.1925 36.2647 14.6358 40.8363 19.9345 42.1211C24.4761 43.2224 28.3348 41.8811 31.4525 38.4299C31.7648 38.0846 32.0481 37.9267 32.5063 37.9428C33.3779 37.9751 34.2514 37.9526 35.2213 37.9526Z" fill="black"/>
<path d="M29.925 38.0074C28.166 39.9105 25.985 40.8927 23.4411 41.109C17.7047 41.5969 12.5802 36.9237 12.5742 31.1722C12.5645 21.3457 12.5711 11.5192 12.5723 1.6927C12.5723 0.638978 13.1143 -0.00302292 13.986 0.00421088C14.8552 0.0114447 15.3851 0.655857 15.3851 1.715C15.3857 11.4318 15.3803 21.1486 15.3875 30.866C15.3911 35.4004 19.2262 38.913 23.6256 38.2234C25.7336 37.8923 27.8133 38.0618 29.925 38.0074Z" fill="black"/>
<path d="M16.7257 12.0725C16.7257 11.1882 16.739 10.3364 16.7215 9.48582C16.7089 8.91075 17.1966 9.02952 17.4744 8.96682C21.447 8.06922 25.4147 8.1066 29.3035 9.34358C36.726 11.7036 41.6426 16.6684 44.3497 24.0619C43.3327 24.0619 42.4099 24.0668 41.4862 24.0589C41.1814 24.0559 41.202 23.7581 41.1255 23.5779C38.8691 18.2351 35.0423 14.4874 29.6194 12.4264C25.4871 10.8566 21.2686 10.7753 17.0223 11.9948C16.9404 12.0183 16.8571 12.0381 16.7257 12.0725Z" fill="black"/>
<path d="M39.7496 24.0661C38.9299 24.0661 38.1173 24.0402 37.3077 24.077C36.8948 24.0957 36.694 23.9443 36.503 23.5929C34.6999 20.2768 32.0451 17.8794 28.5404 16.4773C24.8282 14.9919 21.0612 14.9557 17.3014 16.3181C16.7601 16.5146 16.6872 16.3971 16.7167 15.8907C16.7547 15.2355 16.7408 14.576 16.7197 13.9195C16.7089 13.6006 16.815 13.4674 17.1308 13.3788C24.0361 11.4407 30.1746 12.8109 35.4842 17.6497C37.3191 19.3219 38.691 21.3486 39.6709 23.6327C39.72 23.7472 39.8318 23.8503 39.7496 24.0661Z" fill="black"/>
<path d="M16.7257 21.1131C16.7257 20.2378 16.7571 19.4041 16.7137 18.5747C16.6902 18.1268 16.8367 17.9134 17.2508 17.7597C22.476 15.8198 27.3142 16.495 31.7371 19.9021C33.1724 21.0082 34.2864 22.4013 35.2389 24.0657C34.1254 24.0657 33.1067 24.0609 32.0879 24.0699C31.8787 24.0717 31.7775 23.9548 31.6648 23.8143C28.11 19.3873 21.8648 18.2208 16.9066 21.0751C16.8741 21.0945 16.8288 21.0926 16.7257 21.1131Z" fill="black"/>
<path d="M30.0631 24.0657C28.3619 24.0657 26.7633 24.0832 25.1658 24.0536C24.7595 24.0464 24.3599 23.8643 23.9505 23.8022C21.0269 23.3568 18.6795 24.3816 16.7282 26.7247C16.7282 25.4075 16.7312 24.1959 16.7258 22.9849C16.7246 22.7612 16.897 22.7021 17.0338 22.6027C20.8509 19.8418 26.882 20.4838 30.0631 24.0657Z" fill="black"/>
<path d="M148.981 21.9853C148.477 21.9853 148.07 22.3933 148.07 22.8961V24.9083H145.797V22.8961C145.797 22.3933 145.389 21.9853 144.886 21.9853C144.383 21.9853 143.974 22.3933 143.974 22.8961V24.9083H141.573V21.1708C141.573 20.6681 141.166 20.26 140.662 20.26C140.159 20.26 139.752 20.6681 139.752 21.1708V24.9083H130.328L128.13 27.6897H148.964C149.477 27.6897 149.892 27.2743 149.892 26.7626V22.8961C149.892 22.3933 149.483 21.9853 148.981 21.9853Z" fill="black"/>
<path d="M79.6271 21.9854C79.1246 21.9854 78.7163 22.3935 78.7163 22.8962V24.9084H75.9544V22.8962C75.9544 22.3935 75.5468 21.9854 75.0435 21.9854C74.5399 21.9854 74.1326 22.3935 74.1326 22.8962V24.9084H73.302V22.8962C73.302 22.3935 72.8944 21.9854 72.3911 21.9854C71.8875 21.9854 71.4795 22.3935 71.4795 22.8962V24.9084H70.6496V22.8962C70.6496 22.3935 70.2413 21.9854 69.738 21.9854C69.2351 21.9854 68.8271 22.3935 68.8271 22.8962V24.9084H61.7906V22.8962C61.7906 22.3935 61.3822 21.9854 60.879 21.9854C60.3761 21.9854 59.9681 22.3935 59.9681 22.8962V26.7916C59.9681 27.2877 60.3701 27.6898 60.8663 27.6898H69.8344C70.1846 27.6898 70.4775 27.4595 70.5795 27.1437C70.6358 27.4517 70.893 27.6898 71.2174 27.6898H79.6114C80.1233 27.6898 80.5388 27.2745 80.5388 26.7627V22.8962C80.5388 22.3935 80.1304 21.9854 79.6271 21.9854Z" fill="black"/>
<path d="M102.58 20.26C102.077 20.26 101.669 20.6681 101.669 21.1708V27.6897H103.491V21.1708C103.491 20.6681 103.083 20.26 102.58 20.26Z" fill="black"/>
<path d="M85.533 23.8829H83.9734C83.7469 23.8829 83.5631 23.6991 83.5631 23.4724C83.5631 23.2464 83.7469 23.0625 83.9734 23.0625H85.533C85.7599 23.0625 85.9436 23.2464 85.9436 23.4724C85.9436 23.6991 85.7599 23.8829 85.533 23.8829ZM100.182 20.26C99.6788 20.26 99.2707 20.6681 99.2707 21.1708V24.9083H96.8014V22.8961C96.8014 22.3933 96.3941 21.9853 95.8905 21.9853C95.3873 21.9853 94.9796 22.3933 94.9796 22.8961V24.9083H94.1104V22.8961C94.1104 22.3933 93.7024 21.9853 93.1995 21.9853C92.6963 21.9853 92.2883 22.3933 92.2883 22.8961V24.9083H91.4194V22.8961C91.4194 22.3933 91.0114 21.9853 90.5081 21.9853C90.0053 21.9853 89.5973 22.3933 89.5973 22.8961V24.9083H87.5723V22.7707C87.5723 22.3367 87.2209 21.9853 86.787 21.9853H82.6534C82.2195 21.9853 81.8678 22.3367 81.8678 22.7707V24.1602C81.8678 24.534 82.1719 24.8378 82.5454 24.8378H85.938C86.2185 24.8378 86.4458 25.065 86.4458 25.3453V25.3598C86.4458 25.6401 86.2185 25.8674 85.938 25.8674H82.7786C82.3466 25.8674 81.9855 26.1706 81.8925 26.5751C81.8775 26.6408 81.8678 26.7083 81.8678 26.7789C81.8678 27.2816 82.2761 27.6897 82.7786 27.6897H86.7814C86.7821 27.6897 86.7821 27.6891 86.7821 27.6891C86.784 27.6891 86.7851 27.6897 86.787 27.6897C87.1365 27.6897 87.4294 27.4594 87.5314 27.1435C87.5876 27.4516 87.8449 27.6897 88.1696 27.6897H100.079C100.569 27.6897 100.968 27.3166 101.018 26.8391C101.063 26.7095 101.092 26.5727 101.092 26.428V21.1708C101.092 20.6681 100.685 20.26 100.182 20.26Z" fill="black"/>
<path d="M108.86 24.6425C108.86 24.7896 108.741 24.9083 108.595 24.9083H107.436C107.289 24.9083 107.17 24.7896 107.17 24.6425V23.5936C107.17 23.4465 107.289 23.3277 107.436 23.3277H108.595C108.741 23.3277 108.86 23.4465 108.86 23.5936V24.6425ZM109.361 21.7441H106.686C105.935 21.7441 105.326 22.353 105.326 23.1041V26.3298C105.326 27.0809 105.935 27.6897 106.686 27.6897H109.361C110.112 27.6897 110.721 27.0809 110.721 26.3298V23.1041C110.721 22.353 110.112 21.7441 109.361 21.7441Z" fill="black"/>
<path d="M125.732 22.3506V22.7967H124.397C124.217 22.7967 124.071 22.6502 124.071 22.47V22.3506C124.071 22.1704 124.217 22.0239 124.397 22.0239H125.732V22.3506ZM123.486 20.6814C122.705 20.6814 122.071 21.315 122.071 22.0962V22.9076C122.071 23.6889 122.705 24.3225 123.486 24.3225H125.742V24.9084H117.25V22.945C117.25 22.4911 116.939 22.0709 116.491 21.998C115.92 21.9052 115.427 22.3434 115.427 22.8962V24.9084H113.032V21.2198C113.032 20.7659 112.722 20.3451 112.275 20.2727C111.703 20.1799 111.211 20.6175 111.211 21.1709V27.6898H125.993C126.505 27.6898 126.92 27.2751 126.92 26.7627V20.6814H125.742" fill="black"/>
<path d="M134.182 24.1778H137.002C137.279 24.1778 137.504 23.953 137.504 23.6757C137.504 23.3984 137.279 23.1735 137.002 23.1735H135.515V22.7775H137.002C137.279 22.7775 137.504 22.5526 137.504 22.2753C137.504 21.998 137.279 21.7732 137.002 21.7732H134.969C134.702 21.7732 134.489 21.983 134.473 22.2464H134.467V23.1735H134.182C133.905 23.1735 133.68 23.3984 133.68 23.6757C133.68 23.953 133.905 24.1778 134.182 24.1778Z" fill="black"/>
<path d="M148.678 28.0405C148.131 28.0405 147.688 28.4836 147.688 29.0303C147.688 29.5771 148.131 30.0202 148.678 30.0202C149.225 30.0202 149.668 29.5771 149.668 29.0303C149.668 28.4836 149.225 28.0405 148.678 28.0405Z" fill="black"/>
<path d="M144.886 21.3481C145.433 21.3481 145.875 20.905 145.875 20.3582C145.875 19.8115 145.433 19.3684 144.886 19.3684C144.339 19.3684 143.896 19.8115 143.896 20.3582C143.896 20.905 144.339 21.3481 144.886 21.3481Z" fill="black"/>
<path d="M121.082 21.3481C121.629 21.3481 122.071 20.905 122.071 20.3582C122.071 19.8115 121.629 19.3684 121.082 19.3684C120.535 19.3684 120.092 19.8115 120.092 20.3582C120.092 20.905 120.535 21.3481 121.082 21.3481Z" fill="black"/>
<path d="M118.958 21.3481C119.504 21.3481 119.947 20.905 119.947 20.3582C119.947 19.8115 119.504 19.3684 118.958 19.3684C118.411 19.3684 117.967 19.8115 117.967 20.3582C117.967 20.905 118.411 21.3481 118.958 21.3481Z" fill="black"/>
<path d="M109.086 21.3481C109.632 21.3481 110.076 20.905 110.076 20.3582C110.076 19.8115 109.632 19.3684 109.086 19.3684C108.539 19.3684 108.096 19.8115 108.096 20.3582C108.096 20.905 108.539 21.3481 109.086 21.3481Z" fill="black"/>
<path d="M106.961 21.3481C107.508 21.3481 107.951 20.905 107.951 20.3582C107.951 19.8115 107.508 19.3684 106.961 19.3684C106.415 19.3684 105.971 19.8115 105.971 20.3582C105.971 20.905 106.415 21.3481 106.961 21.3481Z" fill="black"/>
<path d="M78.8779 28.0405C78.3311 28.0405 77.8883 28.4836 77.8883 29.0303C77.8883 29.5771 78.3311 30.0202 78.8779 30.0202C79.4246 30.0202 79.8679 29.5771 79.8679 29.0303C79.8679 28.4836 79.4246 28.0405 78.8779 28.0405Z" fill="black"/>
<path d="M76.7531 28.0405C76.2067 28.0405 75.7631 28.4836 75.7631 29.0303C75.7631 29.5771 76.2067 30.0202 76.7531 30.0202C77.2999 30.0202 77.7435 29.5771 77.7435 29.0303C77.7435 28.4836 77.2999 28.0405 76.7531 28.0405Z" fill="black"/>
<path d="M116.338 21.3481C116.885 21.3481 117.329 20.905 117.329 20.3582C117.329 19.8115 116.885 19.3684 116.338 19.3684C115.791 19.3684 115.349 19.8115 115.349 20.3582C115.349 20.905 115.791 21.3481 116.338 21.3481Z" fill="black"/>
<path d="M70.8971 35.0918C70.8971 35.5765 70.5041 35.9696 70.02 35.9696H69.4373C68.9524 35.9696 68.5601 35.5765 68.5601 35.0918V31.0247H66.8186V36.1046C66.8186 36.8834 67.4497 37.5147 68.2286 37.5147H71.2286C72.0075 37.5147 72.6386 36.8834 72.6386 36.1046V31.0247H70.8971" fill="black"/>
<path d="M64.3785 31.0247H61.3781C60.5993 31.0247 59.9681 31.6564 59.9681 32.4353V33.5294C59.9681 33.8018 60.0488 34.0544 60.1826 34.2696C60.4316 34.6705 60.8719 34.9393 61.3781 34.9393H61.7599L61.7614 34.9387H63.9529C63.954 34.9387 63.9551 34.9393 63.9551 34.9393C64.2956 34.9406 64.5713 35.2166 64.5713 35.5572C64.5713 35.899 64.2945 36.1763 63.9529 36.1763H61.7614C61.4318 36.1763 61.1685 35.9159 61.1501 35.5916H59.9681V36.1046C59.9681 36.8834 60.5993 37.5147 61.3781 37.5147H64.3785C65.157 37.5147 65.7885 36.8834 65.7885 36.1046V35.0099C65.7885 34.738 65.7075 34.4854 65.5736 34.2696C65.3246 33.8693 64.8847 33.5999 64.3785 33.5999H61.7614C61.4205 33.5999 61.1438 33.3238 61.1438 32.982C61.1438 32.6408 61.4205 32.3641 61.7614 32.3641H63.954C64.2825 32.3641 64.5458 32.6233 64.5645 32.9482H65.7885V32.4353C65.7885 31.6564 65.157 31.0247 64.3785 31.0247Z" fill="black"/>
<path d="M73.6751 31.6299V37.5147H78.9544V35.9436H75.2468V35.0551H78.9544V33.4841H75.2468V32.5962H78.9544V31.0247H73.6751" fill="black"/>
<path d="M79.9845 32.5962H83.2808L79.9845 35.9436V37.5147H85.2641V35.9436H82.1048L85.2641 32.5962V31.0247H79.9845" fill="black"/>
<path d="M106.292 34.4727L104.151 31.0247H102.58V37.5147H104.151V34.3757L106.292 37.5147H107.862V31.0247H106.292" fill="black"/>
<path d="M116.92 31.0247H115.349V37.5147H120.74V35.9436H116.92" fill="black"/>
<path d="M141.728 34.4727L139.587 31.0247H138.016V37.5147H139.587V34.3757L141.728 37.5147H143.298V31.0247H141.728" fill="black"/>
<path d="M93.5051 31.0247H90.5051C89.7263 31.0247 89.0951 31.6564 89.0951 32.4353V36.1046C89.0951 36.8834 89.7263 37.5147 90.5051 37.5147H93.5051C94.284 37.5147 94.9151 36.8834 94.9151 36.1046V35.4801H93.7241V35.5638C93.7241 35.937 93.4215 36.2402 93.0476 36.2402H91.6316C91.2581 36.2402 90.9555 35.937 90.9555 35.5638V32.9886C90.9555 32.6155 91.2581 32.3129 91.6316 32.3129H93.0476C93.4215 32.3129 93.7241 32.6155 93.7241 32.9886V32.9434H94.9151V32.4353C94.9151 31.6564 94.284 31.0247 93.5051 31.0247Z" fill="black"/>
<path d="M99.7631 34.8103H97.7933V33.1496C97.7933 32.7584 98.1101 32.4413 98.5013 32.4413H99.0547C99.4459 32.4413 99.7631 32.7584 99.7631 33.1496V34.8103ZM99.3158 31.0247H98.2151C96.9116 31.0247 95.8552 32.0814 95.8552 33.3847V37.5147H97.7933V36.3819H99.7631V37.5147H101.675V33.3847C101.675 32.0814 100.619 31.0247 99.3158 31.0247Z" fill="black"/>
<path d="M112.604 34.8103H110.633V33.1496C110.633 32.7584 110.951 32.4413 111.341 32.4413H111.896C112.286 32.4413 112.604 32.7584 112.604 33.1496V34.8103ZM112.156 31.0247H111.055C109.752 31.0247 108.696 32.0814 108.696 33.3847V37.5147H110.633V36.3819H112.604V37.5147H114.516V33.3847C114.516 32.0814 113.459 31.0247 112.156 31.0247Z" fill="black"/>
<path d="M135.266 34.8103H133.296V33.1496C133.296 32.7584 133.613 32.4413 134.004 32.4413H134.558C134.949 32.4413 135.266 32.7584 135.266 33.1496V34.8103ZM134.819 31.0247H133.718C132.415 31.0247 131.358 32.0814 131.358 33.3847V37.5147H133.296V36.3819H135.266V37.5147H137.178V33.3847C137.178 32.0814 136.122 31.0247 134.819 31.0247Z" fill="black"/>
<path d="M128.033 33.6384H126.173V32.3641H128.033C128.385 32.3641 128.671 32.6492 128.671 33.0013C128.671 33.3533 128.385 33.6384 128.033 33.6384ZM128.033 36.4072H126.173V35.1323H128.033C128.385 35.1323 128.671 35.418 128.671 35.77C128.671 36.1221 128.385 36.4072 128.033 36.4072ZM129.189 31.0247H123.646V37.5147H129.189C129.909 37.5147 130.493 36.9311 130.493 36.2107V35.5735C130.493 34.8531 129.909 34.2696 129.189 34.2696C129.909 34.2696 130.493 33.6861 130.493 32.9657V32.3285C130.493 31.6088 129.909 31.0247 129.189 31.0247Z" fill="black"/>
<path d="M147.952 34.2696L149.716 32.5968C150.081 32.2508 150.096 31.6739 149.75 31.3092C149.404 30.9439 148.827 30.9288 148.462 31.2748L146.628 33.014L146.338 33.2894V31.0247H144.305V37.5147H146.338V35.2498L146.628 35.5253L148.462 37.2644C148.827 37.6111 149.404 37.5953 149.75 37.2306C150.096 36.8653 150.081 36.2885 149.716 35.9424" fill="black"/>
<path d="M55.5454 27.3678V24.3936L51.2441 25.9386L46.8791 24.3936L42.5914 25.8807L38.2391 24.3936L33.9126 25.8807L29.5989 24.3936L25.2465 25.8807L20.8815 24.3936V27.3678L25.1826 28.7971L29.5536 27.307L33.9283 28.7971L38.2133 27.3552L42.63 28.7971L46.8533 27.3033L51.1931 28.7971" fill="#6EC1FF"/>
<path d="M55.5454 31.6773V28.7024L51.2441 30.248L46.8791 28.7024L42.5914 30.1896L38.2391 28.7024L33.9126 30.1896L29.5989 28.7024L25.2465 30.1896L20.8815 28.7024V31.6773L25.1826 33.1066L29.5536 31.6158L33.9283 33.1066L38.2133 31.664L42.63 33.1066L46.8533 31.6128L51.1931 33.1066" fill="#6EC1FF"/>
<path d="M55.5454 35.9862V33.012L51.2441 34.557L46.8791 33.012L42.5914 34.4991L38.2391 33.012L33.9126 34.4991L29.5989 33.012L25.2465 34.4991L20.8815 33.012V35.9862L25.1826 37.4155L29.5536 35.9254L33.9283 37.4155L38.2133 35.9736L42.63 37.4155L46.8533 35.9217L51.1931 37.4155" fill="#6EC1FF"/>
</g>
<defs>
<clipPath id="clip0_194_1675">
<rect width="150" height="54" fill="white"/>
</clipPath>
</defs>
</svg>
