<svg width="51" height="39" viewBox="0 0 51 39" fill="none" xmlns="http://www.w3.org/2000/svg">
<g clip-path="url(#clip0_17139_389)">
<path d="M9.11319 38.9145V36.3263C9.11319 35.3362 8.50934 34.6879 7.47272 34.6879C6.95441 34.6879 6.39081 34.8587 6.00334 35.4216C5.70141 34.9492 5.26865 34.6879 4.6195 34.6879C4.18674 34.6879 3.75398 34.8185 3.41179 35.2909V34.7733H2.50601V38.9145H3.41179V36.6278C3.41179 35.894 3.79927 35.5473 4.40312 35.5473C5.00698 35.5473 5.30891 35.9342 5.30891 36.6278V38.9145H6.21469V36.6278C6.21469 35.894 6.64745 35.5473 7.20602 35.5473C7.80987 35.5473 8.1118 35.9342 8.1118 36.6278V38.9145H9.11319ZM22.549 34.7733H21.0796V33.5219H20.1738V34.7733H19.3536V35.5925H20.1738V37.4922C20.1738 38.4421 20.5613 39 21.5979 39C21.9854 39 22.4181 38.8693 22.7201 38.6984L22.4584 37.9194C22.1967 38.0903 21.8948 38.1355 21.6784 38.1355C21.2456 38.1355 21.0746 37.8742 21.0746 37.447V35.5925H22.5439V34.7733H22.549ZM30.2381 34.6828C29.7197 34.6828 29.3725 34.9442 29.1561 35.2859V34.7683H28.2504V38.9095H29.1561V36.5775C29.1561 35.889 29.4581 35.497 30.0217 35.497C30.1928 35.497 30.4091 35.5422 30.5853 35.5824L30.8469 34.718C30.6658 34.6828 30.4091 34.6828 30.2381 34.6828ZM18.6189 35.115C18.1861 34.8135 17.5823 34.6828 16.9331 34.6828C15.8965 34.6828 15.2071 35.2005 15.2071 36.0197C15.2071 36.7082 15.7254 37.1002 16.6312 37.2259L17.0639 37.2711C17.537 37.3565 17.7986 37.4872 17.7986 37.7033C17.7986 38.0049 17.4514 38.221 16.8476 38.221C16.2437 38.221 15.7657 38.0049 15.4637 37.7888L15.031 38.4773C15.504 38.8241 16.1531 38.9949 16.8023 38.9949C18.01 38.9949 18.7044 38.4321 18.7044 37.6581C18.7044 36.9243 18.1408 36.5373 17.2803 36.4067L16.8476 36.3614C16.4601 36.3162 16.1582 36.2308 16.1582 35.9744C16.1582 35.6729 16.4601 35.502 16.9381 35.502C17.4565 35.502 17.9748 35.7181 18.2364 35.8488L18.6189 35.115ZM42.7177 34.6828C42.1994 34.6828 41.8522 34.9442 41.6358 35.2859V34.7683H40.73V38.9095H41.6358V36.5775C41.6358 35.889 41.9377 35.497 42.5013 35.497C42.6724 35.497 42.8888 35.5422 43.0649 35.5824L43.3266 34.7281C43.1505 34.6828 42.8938 34.6828 42.7177 34.6828ZM31.1438 36.8439C31.1438 38.0953 32.0094 39 33.3479 39C33.9518 39 34.3845 38.8693 34.8173 38.5275L34.3845 37.7938C34.0373 38.0551 33.6951 38.1808 33.3026 38.1808C32.5679 38.1808 32.0496 37.6631 32.0496 36.8439C32.0496 36.0649 32.5679 35.5473 33.3026 35.5071C33.6901 35.5071 34.0373 35.6377 34.3845 35.894L34.8173 35.1603C34.3845 34.8135 33.9518 34.6879 33.3479 34.6879C32.0094 34.6828 31.1438 35.5925 31.1438 36.8439ZM39.5223 36.8439V34.7733H38.6165V35.2909C38.3146 34.904 37.8818 34.6879 37.3182 34.6879C36.1508 34.6879 35.245 35.5925 35.245 36.8439C35.245 38.0953 36.1508 39 37.3182 39C37.9221 39 38.3549 38.7839 38.6165 38.3969V38.9145H39.5223V36.8439ZM36.1961 36.8439C36.1961 36.1101 36.6691 35.5071 37.4491 35.5071C38.1838 35.5071 38.7021 36.0699 38.7021 36.8439C38.7021 37.5777 38.1838 38.1808 37.4491 38.1808C36.6741 38.1355 36.1961 37.5726 36.1961 36.8439ZM25.3569 34.6828C24.1492 34.6828 23.2837 35.5473 23.2837 36.8389C23.2837 38.1355 24.1492 38.9949 25.4022 38.9949C26.006 38.9949 26.6099 38.8241 27.0879 38.4321L26.6552 37.7837C26.308 38.0451 25.8752 38.2159 25.4475 38.2159C24.8839 38.2159 24.3253 37.9546 24.1945 37.2259H27.259C27.259 37.0952 27.259 37.0098 27.259 36.8791C27.2993 35.5473 26.5193 34.6828 25.3569 34.6828ZM25.3569 35.4618C25.9205 35.4618 26.308 35.8086 26.3935 36.4519H24.2347C24.3203 35.894 24.7077 35.4618 25.3569 35.4618ZM47.8605 36.8439V33.1349H46.9548V35.2909C46.6528 34.904 46.2201 34.6879 45.6565 34.6879C44.489 34.6879 43.5832 35.5925 43.5832 36.8439C43.5832 38.0953 44.489 39 45.6565 39C46.2603 39 46.6931 38.7839 46.9548 38.3969V38.9145H47.8605V36.8439ZM44.5343 36.8439C44.5343 36.1101 45.0073 35.5071 45.7873 35.5071C46.522 35.5071 47.0403 36.0699 47.0403 36.8439C47.0403 37.5777 46.522 38.1808 45.7873 38.1808C45.0073 38.1355 44.5343 37.5726 44.5343 36.8439ZM14.2107 36.8439V34.7733H13.305V35.2909C13.003 34.904 12.5703 34.6879 12.0067 34.6879C10.8392 34.6879 9.93343 35.5925 9.93343 36.8439C9.93343 38.0953 10.8392 39 12.0067 39C12.6105 39 13.0433 38.7839 13.305 38.3969V38.9145H14.2107V36.8439ZM10.8442 36.8439C10.8442 36.1101 11.3173 35.5071 12.0972 35.5071C12.8319 35.5071 13.3502 36.0699 13.3502 36.8439C13.3502 37.5777 12.8319 38.1808 12.0972 38.1808C11.3173 38.1355 10.8442 37.5726 10.8442 36.8439Z" fill="white"/>
<path d="M31.9238 3.32202H18.3169V27.7372H31.9238V3.32202Z" fill="#FF5A00"/>
<path d="M19.2227 15.5296C19.2227 10.5692 21.5576 6.16662 25.1405 3.32204C22.5037 1.25142 19.1774 0 15.5493 0C6.9544 0 0 6.94562 0 15.5296C0 24.1137 6.9544 31.0593 15.5493 31.0593C19.1774 31.0593 22.5037 29.8079 25.1405 27.7372C21.5526 24.9329 19.2227 20.4901 19.2227 15.5296Z" fill="#EB001B"/>
<path d="M50.281 15.5296C50.281 24.1137 43.3266 31.0593 34.7317 31.0593C31.1036 31.0593 27.7773 29.8079 25.1405 27.7372C28.7687 24.8876 31.0583 20.4901 31.0583 15.5296C31.0583 10.5692 28.7234 6.16662 25.1405 3.32204C27.7723 1.25142 31.0985 0 34.7267 0C43.3266 0 50.281 6.99085 50.281 15.5296Z" fill="#F79E1B"/>
</g>
<defs>
<clipPath id="clip0_17139_389">
<rect width="50.281" height="39" fill="white"/>
</clipPath>
</defs>
</svg>
