<svg width="16" height="17" viewBox="0 0 16 17" fill="none" xmlns="http://www.w3.org/2000/svg">
<path d="M8.62028 8.75913C8.50245 8.75913 8.38462 8.71572 8.2916 8.6227C8.11175 8.44285 8.11175 8.14518 8.2916 7.96533L13.3769 2.88006C13.5567 2.70022 13.8544 2.70022 14.0342 2.88006C14.2141 3.05991 14.2141 3.35758 14.0342 3.53743L8.94896 8.6227C8.85594 8.71572 8.73811 8.75913 8.62028 8.75913Z" fill="#1F2937"/>
<path d="M14.2017 6.15447C13.9474 6.15447 13.7366 5.94362 13.7366 5.68936V3.17773H11.2249C10.9707 3.17773 10.7598 2.96688 10.7598 2.71261C10.7598 2.45835 10.9707 2.2475 11.2249 2.2475H14.2017C14.4559 2.2475 14.6668 2.45835 14.6668 2.71261V5.68936C14.6668 5.94362 14.4559 6.15447 14.2017 6.15447Z" fill="#1F2937"/>
<path d="M9.86063 15.5808H6.1397C2.77226 15.5808 1.3335 14.1421 1.3335 10.7746V7.0537C1.3335 3.68626 2.77226 2.2475 6.1397 2.2475H7.38001C7.63427 2.2475 7.84512 2.45835 7.84512 2.71261C7.84512 2.96688 7.63427 3.17773 7.38001 3.17773H6.1397C3.28078 3.17773 2.26373 4.19478 2.26373 7.0537V10.7746C2.26373 13.6335 3.28078 14.6506 6.1397 14.6506H9.86063C12.7195 14.6506 13.7366 13.6335 13.7366 10.7746V9.53432C13.7366 9.28006 13.9475 9.0692 14.2017 9.0692C14.456 9.0692 14.6668 9.28006 14.6668 9.53432V10.7746C14.6668 14.1421 13.2281 15.5808 9.86063 15.5808Z" fill="#1F2937"/>
</svg>
