<svg width="16" height="17" viewBox="0 0 16 17" fill="none" xmlns="http://www.w3.org/2000/svg">
<path d="M8.61979 8.75913C8.50196 8.75913 8.38413 8.71572 8.29111 8.6227C8.11127 8.44285 8.11127 8.14518 8.29111 7.96533L13.3764 2.88006C13.5562 2.70022 13.8539 2.70022 14.0337 2.88006C14.2136 3.05991 14.2136 3.35758 14.0337 3.53743L8.94847 8.6227C8.85545 8.71572 8.73762 8.75913 8.61979 8.75913Z" fill="#F6F7F9"/>
<path d="M14.2012 6.15447C13.9469 6.15447 13.7361 5.94362 13.7361 5.68936V3.17773H11.2245C10.9702 3.17773 10.7593 2.96688 10.7593 2.71261C10.7593 2.45835 10.9702 2.2475 11.2245 2.2475H14.2012C14.4555 2.2475 14.6663 2.45835 14.6663 2.71261V5.68936C14.6663 5.94362 14.4555 6.15447 14.2012 6.15447Z" fill="#F6F7F9"/>
<path d="M9.86014 15.5808H6.13921C2.77177 15.5808 1.33301 14.1421 1.33301 10.7746V7.0537C1.33301 3.68626 2.77177 2.2475 6.13921 2.2475H7.37952C7.63378 2.2475 7.84464 2.45835 7.84464 2.71261C7.84464 2.96688 7.63378 3.17773 7.37952 3.17773H6.13921C3.28029 3.17773 2.26324 4.19478 2.26324 7.0537V10.7746C2.26324 13.6335 3.28029 14.6506 6.13921 14.6506H9.86014C12.7191 14.6506 13.7361 13.6335 13.7361 10.7746V9.53432C13.7361 9.28006 13.947 9.0692 14.2012 9.0692C14.4555 9.0692 14.6663 9.28006 14.6663 9.53432V10.7746C14.6663 14.1421 13.2276 15.5808 9.86014 15.5808Z" fill="#F6F7F9"/>
</svg>
