<svg width="28" height="28" viewBox="0 0 28 28" fill="none" xmlns="http://www.w3.org/2000/svg">
  <g clip-path="url(#clip0_22196_119949)">
    <path d="M24.6232 9.59806L23.8976 4.09918L18.3996 3.37576L13.999 0L9.59832 3.37645L4.09959 4.10057L3.37471 9.59944L0 14.0031L3.37609 18.4019L4.10098 23.9001L9.60109 24.6249L14.0003 28L18.401 24.6235L23.9004 23.8994L24.6246 18.3999L28 14.0003L24.6232 9.59806Z" fill="white"/>
    <path d="M13.4588 3.46036L13.8604 3.98333C13.61 4.04576 13.4241 4.27048 13.4241 4.54029C13.4241 4.85796 13.6822 5.11598 13.9999 5.11598C14.3176 5.11598 14.5756 4.85796 14.5756 4.54029C14.5756 4.26979 14.3883 4.04437 14.1365 3.98264L14.5382 3.45966C14.6054 3.37158 14.7143 3.32718 14.8239 3.34106L17.0055 3.62821L13.9985 1.32129L10.9907 3.6289L13.1723 3.34175C13.2812 3.3258 13.3901 3.37088 13.4581 3.45966" fill="#EE6F64"/>
    <path d="M14.8261 24.6575C14.7171 24.6735 14.6082 24.6284 14.5416 24.5396L14.1393 24.016C14.3897 23.9535 14.5763 23.7288 14.5763 23.459C14.5763 23.1413 14.3183 22.8833 14.0006 22.8833C13.6829 22.8833 13.4248 23.1413 13.4248 23.459C13.4248 23.7288 13.6114 23.9542 13.8625 24.016L13.4616 24.5396C13.3943 24.627 13.2854 24.6721 13.1758 24.6575L10.9956 24.3711L14.0013 26.6773L17.009 24.3697L14.8267 24.6568L14.8261 24.6575Z" fill="#EE6F64"/>
    <path d="M26.6801 13.9994L24.3723 10.9927L24.6595 13.1741C24.674 13.2836 24.6296 13.3918 24.5415 13.4584L24.0178 13.86C23.9554 13.6103 23.7306 13.4244 23.4615 13.4244C23.1431 13.4244 22.8857 13.6825 22.8857 14.0001C22.8857 14.3178 23.1438 14.5758 23.4615 14.5758C23.7313 14.5758 23.9561 14.3892 24.0185 14.1389L24.5422 14.5398C24.6296 14.6063 24.6747 14.7152 24.6601 14.8248L24.3737 17.0055L26.6808 13.9994H26.6801Z" fill="#EFAB57"/>
    <path d="M4.53935 13.4245C4.26882 13.4245 4.04407 13.6111 3.98164 13.8622L3.45723 13.4606C3.36983 13.3933 3.32474 13.2851 3.33861 13.1755L3.6251 10.9941L1.31934 14.0016L3.62718 17.0084L3.34 14.827C3.32404 14.7174 3.36913 14.6085 3.45792 14.5419L3.98164 14.1396C4.04407 14.39 4.26882 14.5766 4.53866 14.5766C4.85636 14.5766 5.11441 14.3186 5.11441 14.0009C5.11441 13.6832 4.85636 13.4252 4.53866 13.4252" fill="#EFAB57"/>
    <path d="M22.964 5.03409L19.2085 4.53955L20.9531 5.8782C21.0398 5.94617 21.0863 6.05438 21.0717 6.16327L20.985 6.81803C20.7637 6.68555 20.4731 6.7126 20.283 6.90334C20.0582 7.12807 20.0582 7.49291 20.283 7.71763C20.5077 7.94236 20.8726 7.94236 21.0974 7.71763C21.2888 7.5262 21.3152 7.23489 21.182 7.01363L21.8368 6.92762C21.9457 6.91306 22.0546 6.95814 22.1212 7.04553L23.4614 8.79202L22.9654 5.03409H22.964Z" fill="#9DCAD9"/>
    <path d="M6.92786 21.8354L7.01526 21.1813C7.23654 21.3145 7.52719 21.2874 7.71795 21.0967C7.9427 20.872 7.9427 20.5071 7.71795 20.2824C7.4932 20.0577 7.12833 20.0577 6.90358 20.2824C6.71213 20.4738 6.68507 20.7651 6.81964 20.9864L6.16551 21.0717C6.05453 21.087 5.94562 21.0419 5.87972 20.9531L4.53955 19.208L5.03483 22.9659L8.79244 23.4598L7.04648 22.1204C6.95838 22.0532 6.91329 21.945 6.92786 21.8347" fill="#9DCAD9"/>
    <path d="M22.1205 20.9523C22.0532 21.0397 21.9457 21.0855 21.8361 21.0709L21.182 20.9842C21.3145 20.763 21.2874 20.4724 21.0967 20.2823C20.8719 20.0576 20.507 20.0576 20.2823 20.2823C20.0575 20.507 20.0575 20.8719 20.2823 21.0966C20.4731 21.2873 20.7637 21.3144 20.985 21.1812L21.0717 21.8346C21.087 21.9442 21.0419 22.0531 20.9538 22.1197L19.2085 23.4597L22.9668 22.9645L23.4614 19.2065L22.1212 20.9516L22.1205 20.9523Z" fill="#408E88"/>
    <path d="M7.0464 5.88036L8.79237 4.54102L5.03475 5.03555L4.53809 8.79279L5.87756 7.04769C5.94624 6.9603 6.05376 6.91452 6.16266 6.92978L6.81818 7.01648C6.68569 7.23774 6.71274 7.52766 6.9035 7.7184C7.12825 7.94313 7.49312 7.94313 7.71787 7.7184C7.94262 7.49368 7.94262 7.12884 7.71787 6.90412C7.52642 6.71268 7.23508 6.68632 7.0138 6.8195L6.92847 6.16474C6.91252 6.05515 6.95761 5.94695 7.0464 5.88036Z" fill="#408E88"/>
    <path d="M13.4588 3.44766L13.8604 3.97064C13.61 4.03306 13.4241 4.25779 13.4241 4.5276C13.4241 4.84527 13.6822 5.10329 13.9999 5.10329C14.3176 5.10329 14.5756 4.84527 14.5756 4.5276C14.5756 4.25709 14.3883 4.03167 14.1365 3.96994L14.5382 3.44697C14.6054 3.35888 14.7143 3.31449 14.8239 3.32836L17.0055 3.61551L13.9985 1.30859L10.9907 3.61621L13.1723 3.32905C13.2812 3.3131 13.3901 3.35819 13.4581 3.44697" fill="#ED6B63"/>
    <path d="M14.8261 24.6448C14.7171 24.6608 14.6082 24.6157 14.5416 24.5269L14.1393 24.0033C14.3897 23.9408 14.5763 23.7161 14.5763 23.4463C14.5763 23.1286 14.3183 22.8706 14.0006 22.8706C13.6829 22.8706 13.4248 23.1286 13.4248 23.4463C13.4248 23.7161 13.6114 23.9415 13.8625 24.0033L13.4616 24.5269C13.3943 24.6143 13.2854 24.6594 13.1758 24.6448L10.9956 24.3584L14.0013 26.6646L17.009 24.357L14.8267 24.6441L14.8261 24.6448Z" fill="#ED6B63"/>
    <path d="M26.6801 13.9872L24.3723 10.9805L24.6595 13.1618C24.674 13.2714 24.6296 13.3796 24.5415 13.4462L24.0178 13.8478C23.9554 13.5981 23.7306 13.4122 23.4615 13.4122C23.1431 13.4122 22.8857 13.6703 22.8857 13.9879C22.8857 14.3056 23.1438 14.5636 23.4615 14.5636C23.7313 14.5636 23.9561 14.377 24.0185 14.1266L24.5422 14.5275C24.6296 14.5941 24.6747 14.703 24.6601 14.8126L24.3737 16.9933L26.6808 13.9872H26.6801Z" fill="#EEA851"/>
    <path d="M4.53935 13.4113C4.26882 13.4113 4.04407 13.5979 3.98164 13.849L3.45723 13.4474C3.36983 13.3801 3.32474 13.2719 3.33861 13.1623L3.6251 10.981L1.31934 13.9884L3.62718 16.9952L3.34 14.8138C3.32404 14.7042 3.36913 14.5953 3.45792 14.5287L3.98164 14.1264C4.04407 14.3768 4.26882 14.5634 4.53866 14.5634C4.85636 14.5634 5.11441 14.3054 5.11441 13.9877C5.11441 13.67 4.85636 13.412 4.53866 13.412" fill="#EEA851"/>
    <path d="M22.964 5.02188L19.2085 4.52734L20.9531 5.86599C21.0398 5.93397 21.0863 6.04217 21.0717 6.15107L20.985 6.80583C20.7637 6.67335 20.4731 6.7004 20.283 6.89114C20.0582 7.11586 20.0582 7.4807 20.283 7.70543C20.5077 7.93015 20.8726 7.93015 21.0974 7.70543C21.2888 7.51399 21.3152 7.22268 21.182 7.00142L21.8368 6.91541C21.9457 6.90085 22.0546 6.94593 22.1212 7.03333L23.4614 8.78051L22.9654 5.02258L22.964 5.02188Z" fill="#9AC5D3"/>
    <path d="M6.92786 21.8227L7.01526 21.1686C7.23654 21.3018 7.52719 21.2747 7.71795 21.084C7.9427 20.8593 7.9427 20.4944 7.71795 20.2697C7.4932 20.045 7.12833 20.045 6.90358 20.2697C6.71213 20.4611 6.68507 20.7524 6.81964 20.9737L6.16551 21.059C6.05453 21.0736 5.94562 21.0292 5.87972 20.9404L4.53955 19.1953L5.03483 22.9532L8.79244 23.4471L7.04648 22.1077C6.95838 22.0405 6.91329 21.9323 6.92786 21.8227Z" fill="#9AC5D3"/>
    <path d="M22.1205 20.9396C22.0532 21.027 21.9457 21.0728 21.8361 21.0582L21.182 20.9715C21.3145 20.7503 21.2874 20.4597 21.0967 20.2696C20.8719 20.0449 20.507 20.0449 20.2823 20.2696C20.0575 20.4943 20.0575 20.8592 20.2823 21.0839C20.4731 21.2747 20.7637 21.3017 20.985 21.1685L21.0717 21.8219C21.087 21.9315 21.0419 22.0404 20.9538 22.107L19.2085 23.447L22.9668 22.9518L23.4614 19.1938L22.1212 20.9389L22.1205 20.9396Z" fill="#3C8B88"/>
    <path d="M7.0464 5.86766L8.79237 4.52832L5.03475 5.02286L4.53809 8.7801L5.87756 7.035C5.94624 6.9476 6.05376 6.90182 6.16266 6.91708L6.81818 7.00378C6.68569 7.22504 6.71274 7.51497 6.9035 7.70571C7.12825 7.93044 7.49312 7.93044 7.71787 7.70571C7.94262 7.48098 7.94262 7.11615 7.71787 6.89142C7.52642 6.69999 7.23508 6.67363 7.0138 6.8068L6.92847 6.15204C6.91252 6.04245 6.95761 5.93425 7.0464 5.86766Z" fill="#3C8B88"/>
    <path d="M13.0479 11.0761C13.0569 11.0983 13.0742 11.117 13.0999 11.1302C13.1256 11.1441 13.1519 11.1503 13.179 11.1503C13.1928 11.1517 13.1998 11.1468 13.1977 11.1364C13.1956 11.1108 13.1949 11.0851 13.1942 11.0608C13.1915 11.0282 13.1873 11.0102 13.1824 11.0074C13.1804 11.0067 13.1769 11.0074 13.172 11.0116C13.1672 11.0151 13.1623 11.0185 13.1568 11.0227C13.1512 11.0269 13.1443 11.0317 13.1353 11.038C13.1262 11.0442 13.1158 11.0497 13.1047 11.056C13.093 11.0615 13.0846 11.0657 13.0798 11.0685C13.0742 11.0706 13.0638 11.0733 13.0486 11.0761M13.1595 10.7446L13.1873 10.7016L13.2712 10.7536L13.24 10.8056L13.1616 10.7584L13.1353 10.8021C13.1186 10.7931 13.1041 10.7848 13.0909 10.7765C13.0784 10.7688 13.0638 10.7598 13.0479 10.7508L13.0812 10.6953L13.1595 10.7446ZM13 11.1344C13 11.1344 13.0021 11.1267 13.0049 11.1198L13.0236 11.0789C13.0284 11.0699 13.034 11.0615 13.0402 11.0532C13.0465 11.0449 13.0548 11.0366 13.0645 11.0296C13.0742 11.0227 13.0874 11.0158 13.1041 11.0088C13.1207 11.0019 13.1353 10.997 13.1478 10.9929C13.1575 10.9894 13.1706 10.9839 13.1859 10.9762L13.1838 10.9187L13.215 10.8722C13.215 10.8722 13.2199 10.8729 13.2206 10.884C13.2206 10.8951 13.2213 10.9055 13.222 10.9152C13.222 10.9235 13.2234 10.9353 13.2241 10.9499C13.2247 10.9644 13.2254 10.9776 13.2261 10.9894C13.2268 11.0012 13.2275 11.0158 13.2282 11.0331C13.231 11.099 13.2338 11.1385 13.2338 11.1524C13.2345 11.1663 13.2372 11.1871 13.2414 11.2155C13.2449 11.2329 13.2518 11.246 13.2622 11.255C13.2719 11.2641 13.2851 11.2703 13.3011 11.2717H13.3413V11.3362H13.3066C13.2733 11.3362 13.2511 11.33 13.2393 11.3182C13.2268 11.3057 13.2178 11.2863 13.2116 11.2585C13.2067 11.2301 13.2039 11.21 13.2039 11.1996C13.2039 11.1892 13.2026 11.1808 13.2012 11.1746C13.1991 11.169 13.197 11.1656 13.1935 11.1642C13.1838 11.1815 13.1748 11.194 13.1679 11.2023C13.1609 11.21 13.1533 11.2162 13.1436 11.2211C13.1068 11.2204 13.0763 11.2114 13.052 11.1933C13.0395 11.1836 13.0277 11.1739 13.0187 11.1642C13.0062 11.1524 13 11.1434 13.0007 11.1357" fill="#243533"/>
    <path d="M13.3093 11.2705L13.3086 11.335H13.5313V11.2705H13.3093Z" fill="#243533"/>
    <path d="M13.5114 11.2705L13.5107 11.335H13.7334V11.2705H13.5114Z" fill="#243533"/>
    <path d="M14.4429 11.3174C14.4387 11.3195 14.4353 11.3208 14.4325 11.3215C14.4297 11.3222 14.4228 11.3243 14.4117 11.3278C14.4006 11.3312 14.3888 11.3333 14.377 11.334C14.3659 11.3347 14.3507 11.3354 14.3326 11.3354C14.3083 11.3326 14.2917 11.3306 14.2834 11.3292C14.2743 11.3271 14.2591 11.3208 14.2355 11.3104L14.2147 11.3014C14.2022 11.3097 14.189 11.3167 14.1765 11.3215C14.1634 11.3264 14.1502 11.3299 14.1377 11.3319C14.1252 11.334 14.1148 11.3347 14.1072 11.3354C14.0989 11.3354 14.085 11.3354 14.0662 11.3354H14.0447C14.0232 11.3347 14.001 11.3319 13.9775 11.3271C13.9546 11.3215 13.9331 11.3139 13.9129 11.3028C13.9039 11.309 13.8949 11.3139 13.8873 11.3181C13.8797 11.3222 13.8713 11.3257 13.863 11.3278C13.8464 11.3326 13.8082 11.3347 13.7472 11.3347H13.7007V11.2702H13.7701C13.7839 11.2702 13.8089 11.2695 13.845 11.2674C13.881 11.2654 13.9012 11.2626 13.9046 11.2591C13.9081 11.2584 13.9102 11.2445 13.9109 11.2168C13.9109 11.1981 13.9095 11.1835 13.9081 11.1724L13.9664 11.11C13.9684 11.1169 13.9691 11.1273 13.9691 11.1412C13.9691 11.1488 13.9691 11.1571 13.9671 11.1655C13.9664 11.1738 13.9643 11.1828 13.9615 11.1946C13.9587 11.2057 13.956 11.2168 13.9525 11.2272C13.9497 11.2369 13.9462 11.2473 13.9414 11.2563C13.94 11.2591 13.9455 11.2619 13.9587 11.2647C13.9712 11.2681 13.992 11.2695 14.0219 11.2695H14.1162C14.1668 11.2688 14.2008 11.2647 14.2189 11.2584C14.2209 11.2494 14.2216 11.2376 14.2223 11.2251C14.223 11.2119 14.2223 11.196 14.2216 11.178L14.273 11.1135C14.2737 11.1204 14.275 11.1287 14.2757 11.1398C14.2757 11.1516 14.275 11.1634 14.2737 11.1752C14.2723 11.187 14.2702 11.1981 14.2674 11.2092C14.2646 11.2217 14.2598 11.2376 14.2542 11.2584C14.2522 11.2612 14.2612 11.264 14.2792 11.266C14.2979 11.2681 14.3174 11.2695 14.3389 11.2702C14.3687 11.2702 14.3874 11.2695 14.3937 11.2681C14.3999 11.2674 14.4089 11.2654 14.4186 11.2633C14.4263 11.2612 14.4297 11.2577 14.4297 11.2529C14.429 11.2404 14.4277 11.2293 14.4263 11.2196C14.4249 11.2099 14.4228 11.1995 14.42 11.1884C14.4166 11.1773 14.4131 11.1655 14.4103 11.1537L14.4679 11.0947C14.47 11.1051 14.472 11.1162 14.4741 11.1266C14.4762 11.137 14.4776 11.1488 14.4783 11.1606C14.4797 11.1731 14.4804 11.1856 14.4804 11.1981C14.4804 11.2106 14.4804 11.2237 14.4797 11.2355C14.4797 11.248 14.4776 11.2591 14.4769 11.2702H14.5137V11.3347H14.4984C14.4852 11.3347 14.4734 11.3326 14.4637 11.3285C14.4596 11.3271 14.4568 11.3257 14.454 11.3236C14.4519 11.3222 14.4485 11.3201 14.4436 11.3167" fill="#243533"/>
    <path d="M14.4851 11.2705L14.4844 11.335H14.7063V11.2705H14.4851Z" fill="#243533"/>
    <path d="M15.313 11.3342C15.2901 11.3321 15.2734 11.3301 15.2651 11.328C15.2561 11.3259 15.2429 11.321 15.2235 11.312L15.1971 11.3009C15.1846 11.3093 15.1721 11.3162 15.159 11.321C15.1451 11.3259 15.1326 11.3294 15.1201 11.3314C15.1076 11.3335 15.0972 11.3342 15.0896 11.3349C15.0813 11.3349 15.0681 11.3349 15.048 11.3349H15.0272C15.0057 11.3342 14.9828 11.3315 14.9599 11.3266C14.937 11.321 14.9155 11.3134 14.8954 11.3023C14.8864 11.3086 14.8773 11.3134 14.8697 11.3176C14.8621 11.3217 14.8537 11.3252 14.8454 11.3273C14.8288 11.3321 14.7906 11.3342 14.7296 11.3342H14.6831V11.2697H14.7518C14.7657 11.2697 14.7906 11.269 14.8267 11.2669C14.8628 11.2649 14.8829 11.2621 14.8864 11.2586C14.8898 11.2579 14.8919 11.2441 14.8926 11.2163C14.8926 11.1976 14.8912 11.1823 14.8898 11.1719L14.9481 11.1095C14.9502 11.1164 14.9509 11.1268 14.9509 11.1407C14.9509 11.1483 14.9509 11.1567 14.9488 11.165C14.9481 11.1733 14.946 11.183 14.9432 11.1941C14.9405 11.2052 14.9377 11.2163 14.9342 11.2267C14.9314 11.2364 14.928 11.2468 14.9231 11.2558C14.9217 11.2586 14.9273 11.2614 14.9405 11.2642C14.9529 11.2676 14.9765 11.269 15.0112 11.269H15.0986C15.1479 11.2683 15.1819 11.2642 15.1992 11.2579C15.2013 11.2489 15.202 11.2371 15.2027 11.2246C15.2034 11.2115 15.2027 11.1955 15.202 11.1775L15.2533 11.113C15.254 11.1199 15.2554 11.1282 15.2561 11.1393C15.2561 11.1511 15.2554 11.1629 15.254 11.1747C15.2526 11.1865 15.2505 11.1976 15.2478 11.2087C15.245 11.2212 15.2401 11.2371 15.2346 11.2579C15.2325 11.2607 15.2415 11.2628 15.2602 11.2656C15.279 11.2676 15.2984 11.269 15.3192 11.269C15.3664 11.269 15.3934 11.2663 15.4024 11.2621C15.408 11.2607 15.4115 11.2579 15.4115 11.2524C15.4108 11.2399 15.4094 11.2288 15.408 11.2191C15.4066 11.2094 15.4045 11.199 15.4017 11.1879C15.3983 11.1768 15.3948 11.165 15.3913 11.1532L15.4489 11.0942C15.451 11.1046 15.4531 11.1157 15.4545 11.1255C15.4565 11.1365 15.4579 11.1476 15.4586 11.1587C15.46 11.1761 15.4607 11.1927 15.4607 11.2087C15.4607 11.2184 15.4607 11.226 15.4607 11.2323C15.4607 11.2385 15.4593 11.2454 15.4586 11.2531C15.4579 11.26 15.4559 11.2683 15.4545 11.2767C15.4524 11.285 15.4503 11.2919 15.4468 11.2968C15.4441 11.3023 15.4399 11.3072 15.4344 11.3106C15.4288 11.3148 15.4233 11.3183 15.4184 11.3197C15.4128 11.3217 15.4052 11.3238 15.3934 11.3273C15.3823 11.3308 15.3712 11.3321 15.3608 11.3328C15.3511 11.3328 15.3345 11.3335 15.3123 11.3342" fill="#243533"/>
    <path d="M15.8315 11.2702C15.8537 11.2674 15.8655 11.2653 15.8675 11.2626C15.8696 11.2598 15.8696 11.2521 15.8669 11.2383C15.8634 11.2202 15.8592 11.2064 15.8544 11.1974C15.8495 11.1883 15.8447 11.1793 15.8384 11.1717C15.8329 11.1641 15.8252 11.1571 15.8162 11.1516C15.8107 11.1481 15.8044 11.1453 15.7968 11.1446C15.7892 11.1433 15.7808 11.1453 15.7732 11.1502C15.7656 11.155 15.7579 11.162 15.7517 11.1717C15.742 11.1883 15.7371 11.2015 15.7371 11.2112C15.7434 11.2202 15.7496 11.2286 15.7559 11.2355C15.7621 11.2424 15.7718 11.2501 15.785 11.2577C15.7982 11.2653 15.8134 11.2695 15.8308 11.2695M15.8238 10.9102L15.8107 10.9518C15.7808 10.9594 15.7566 10.9699 15.7385 10.9816C15.7205 10.9934 15.6962 11.0122 15.6664 11.0378C15.6615 11.0323 15.6608 11.0246 15.665 11.0135C15.6692 11.0025 15.6761 10.992 15.6872 10.981C15.6581 10.9685 15.6449 10.9546 15.647 10.94C15.649 10.9234 15.6546 10.9067 15.6643 10.8901C15.674 10.8727 15.683 10.8603 15.6914 10.8519C15.6997 10.8436 15.7108 10.8381 15.724 10.8346C15.7378 10.8318 15.7517 10.8318 15.7656 10.8346C15.7718 10.836 15.7788 10.8381 15.7885 10.8408L15.7725 10.8769C15.7697 10.8727 15.76 10.8707 15.7427 10.8707C15.7267 10.8721 15.7149 10.8748 15.7066 10.8797C15.699 10.8845 15.692 10.8908 15.6851 10.8984C15.6789 10.9067 15.6733 10.9164 15.6692 10.9282C15.6844 10.9407 15.7025 10.9477 15.724 10.949C15.7288 10.949 15.733 10.949 15.7358 10.947L15.8238 10.9095V10.9102ZM15.9002 11.2702H15.9369V11.3347H15.8946C15.8835 11.3985 15.8523 11.4561 15.7996 11.5088C15.7475 11.5608 15.6955 11.5885 15.6435 11.592C15.6178 11.592 15.5956 11.5879 15.5748 11.5774C15.554 11.5677 15.5353 11.5553 15.5193 11.5414C15.5034 11.5275 15.4867 11.5109 15.4701 11.4921C15.4534 11.4734 15.4416 11.4547 15.4326 11.438C15.4326 11.4283 15.4375 11.429 15.4493 11.4401C15.4618 11.4512 15.4715 11.4609 15.4798 11.4686C15.4888 11.4762 15.4999 11.4852 15.5138 11.4949C15.5283 11.5046 15.5436 11.5122 15.5596 11.5185C15.5755 11.524 15.5956 11.5275 15.6185 11.5275C15.6414 11.5275 15.6664 11.522 15.6927 11.5109C15.724 11.497 15.7482 11.4824 15.7663 11.4692C15.7843 11.4554 15.8023 11.436 15.8211 11.4124C15.8426 11.3825 15.8558 11.3569 15.8613 11.3354C15.8433 11.3382 15.8266 11.3388 15.8114 11.3375C15.7968 11.3361 15.7815 11.3319 15.7649 11.3257C15.7503 11.3194 15.7378 11.3104 15.7288 11.2993C15.7198 11.2882 15.7142 11.2743 15.7129 11.2584C15.7108 11.2313 15.7129 11.205 15.7184 11.1779C15.724 11.1516 15.7323 11.128 15.7434 11.1079C15.7628 11.076 15.7829 11.06 15.8044 11.06C15.8141 11.06 15.8238 11.0649 15.8315 11.0746C15.8558 11.1009 15.8731 11.1301 15.8842 11.162C15.8953 11.1932 15.9002 11.2293 15.8995 11.2709" fill="#243533"/>
    <path d="M15.9113 11.2705L15.9106 11.335H16.1326V11.2705H15.9113Z" fill="#243533"/>
    <path d="M16.4296 11.1301C16.4129 11.1301 16.3949 11.1419 16.3741 11.1634C16.363 11.1759 16.3547 11.1856 16.3512 11.1918C16.347 11.1981 16.3443 11.2036 16.3436 11.2078C16.3422 11.2119 16.3457 11.2175 16.3526 11.2237C16.3526 11.2237 16.3554 11.2258 16.3602 11.2293C16.3651 11.2327 16.3762 11.2383 16.3935 11.2459C16.4102 11.2528 16.4261 11.2584 16.4407 11.2626C16.456 11.266 16.4698 11.2681 16.4837 11.2681C16.4948 11.2681 16.5031 11.2681 16.5066 11.2667C16.5101 11.266 16.5128 11.2639 16.5149 11.2612C16.517 11.2584 16.5184 11.2528 16.5191 11.2438C16.5191 11.2313 16.5135 11.2133 16.5024 11.1897C16.4934 11.1745 16.4844 11.1606 16.4726 11.1481C16.4615 11.1356 16.4476 11.1294 16.4303 11.1294M16.114 11.2702H16.1272C16.2326 11.2688 16.2874 11.2632 16.2922 11.2549L16.3318 11.1668L16.347 11.1377C16.3727 11.0919 16.4005 11.069 16.4317 11.067C16.4428 11.0663 16.456 11.0711 16.4698 11.0822C16.4837 11.0933 16.4976 11.1086 16.5114 11.1287C16.5267 11.1516 16.5385 11.1759 16.5475 11.2008C16.5565 11.2258 16.56 11.2494 16.5579 11.2716C16.5558 11.3111 16.5316 11.3305 16.4858 11.3305C16.4712 11.3305 16.4532 11.3284 16.4331 11.325C16.4067 11.3208 16.3824 11.3125 16.3595 11.3014C16.3366 11.2903 16.32 11.2799 16.3089 11.2702C16.2985 11.2848 16.2881 11.2965 16.2777 11.3063C16.2673 11.316 16.2555 11.3229 16.2437 11.3278C16.2312 11.3326 16.2076 11.3347 16.1716 11.3347H16.1133V11.2702H16.114Z" fill="#243533"/>
    <path d="M21.6191 11.1782C21.6191 11.1782 20.7013 12.1278 20.6694 12.727C20.6375 13.3256 20.7013 13.637 20.8213 14.1559C20.9414 14.6747 21.1488 15.9356 21.0849 16.4385C21.0211 16.9414 20.4946 17.7952 20.4946 17.7952C20.4946 17.7952 20.7499 17.6433 21.1571 16.9011C21.5643 16.159 21.6759 15.8156 21.7162 15.1373C21.7564 14.459 21.445 13.1099 21.3971 12.623C21.3492 12.1361 21.2452 11.7532 21.6205 11.1782" fill="#243533"/>
    <path d="M20.3378 11.5373C20.4932 11.5415 20.4654 11.717 20.342 11.9924C20.2185 12.2677 20.1464 12.3357 20.1186 12.4037C20.0909 12.4716 20.0028 12.7629 20.206 12.4675C20.4099 12.172 20.7207 11.665 20.7207 11.665C20.7207 11.665 21.044 11.2058 21.0121 11.0303C20.9801 10.8548 20.9122 10.8028 20.6409 10.7668C20.3697 10.7307 20.3538 10.4234 20.5251 10.0683C20.6964 9.71318 20.6645 9.69306 20.5293 9.86854C20.3933 10.044 19.8508 10.7862 19.8585 11.142C19.8668 11.4971 20.1817 11.5332 20.3378 11.5373Z" fill="#243533"/>
    <path d="M19.1364 14.7705C19.1364 14.7705 19.3161 14.4195 19.1004 13.9083C19.1004 13.9083 19.699 14.1754 19.8467 14.5832C19.8467 14.5832 19.8148 14.6949 19.1364 14.7705ZM18.4421 14.6429C18.107 14.4875 18.1264 14.1643 18.1264 14.1643C18.6016 14.0089 18.9089 14.3078 18.9089 14.3078C18.7931 14.4514 18.4421 14.6429 18.4421 14.6429ZM19.6754 13.162C19.1323 12.8749 19.2682 12.7313 19.4361 12.3678C19.604 12.0044 19.1808 12.4317 18.929 12.8027C18.6779 13.1738 18.7258 13.4256 18.7258 13.4256C18.4941 13.3534 18.2985 13.4575 18.0113 13.8404C17.7241 14.2232 17.704 14.8183 17.704 14.8183C16.9895 14.8343 16.8182 13.7086 16.8737 12.9824C16.9292 12.2562 17.4168 11.6576 17.5722 11.4502C17.7276 11.2428 17.6277 11.2345 17.5084 11.3184C17.3884 11.4023 16.6982 12.0606 16.2952 12.8471C15.8921 13.633 16.1876 14.2676 16.3867 15.1381C16.5865 16.0079 16.5386 16.5912 16.5386 16.5912C15.9636 17.094 14.8586 17.4374 13.9166 17.3215C12.9746 17.2057 13.3859 15.677 13.5732 15.1943C13.7605 14.7115 13.6134 14.7913 13.2742 15.5577C12.935 16.3241 12.6797 17.334 13.338 17.8688C13.9963 18.4036 15.2977 18.328 16.2195 17.5816C17.1414 16.8353 17.2094 15.6222 17.2094 15.6222C17.8122 15.9933 18.3547 15.6222 18.3547 15.6222C19.2009 15.9975 19.9751 15.4627 20.3025 14.509C20.6299 13.5553 20.2186 13.4512 19.6761 13.1641" fill="#243533"/>
    <path d="M11.4914 12.593C12.38 12.1255 12.7172 12.6915 12.7172 12.6915C11.703 13.6223 10.5689 13.5404 10.5689 13.5404C10.5689 13.5404 10.7395 12.9883 11.4914 12.5923M13.938 14.311C13.938 14.311 13.8416 14.646 14.2051 14.6918C14.5686 14.7383 14.7871 14.6661 14.7871 14.6661C14.7871 14.6661 15.1055 14.1355 15.1707 13.5862C15.2359 13.0376 14.6185 12.9134 14.4125 12.9398C14.2065 12.9661 13.7015 13.1264 13.2048 13.7339C12.7081 14.3415 12.5881 14.85 12.2413 15.203C11.8945 15.556 11.497 15.6559 11.1751 15.6233C10.8526 15.59 10.3739 15.4964 10.2574 14.9283C10.2574 14.9283 11.1002 14.9602 11.6558 14.5607C12.2115 14.1612 12.6547 13.8137 12.9447 12.8288C13.2346 11.8439 12.6409 11.5463 12.2149 11.5685C11.7883 11.5907 11.1148 12.079 10.82 12.4882C10.5252 12.8975 10.2213 13.5189 10.2213 13.5189C10.2213 13.5189 9.18082 13.177 8.646 13.3109C8.11118 13.4447 7.66932 13.7707 7.33289 14.3589C6.99646 14.9471 6.805 15.375 6.75783 15.468C6.75783 15.468 5.96705 17.091 5.41627 17.5259C4.8655 17.9614 4.71151 18.0801 5.29904 17.9004C5.88658 17.7208 6.2577 17.46 6.6524 16.6818C7.04709 15.9035 7.41058 15.2772 7.89407 14.9013C8.15211 14.7008 8.59606 14.5635 9.17111 14.714C9.74617 14.8652 9.95357 14.9103 9.95357 14.9103C9.95357 14.9103 9.88351 15.9472 10.3725 16.4106C10.8616 16.8739 11.7731 16.9412 12.2961 16.1955C12.8191 15.4499 13.1944 14.6044 13.9401 14.3096" fill="#243533"/>
  </g>
  <defs>
    <clipPath id="clip0_22196_119949">
      <rect width="28" height="28" fill="white"/>
    </clipPath>
  </defs>
</svg>
