<svg width="24" height="24" viewBox="0 0 24 24" fill="currentColor" xmlns="http://www.w3.org/2000/svg">
<path fill-rule="evenodd" clip-rule="evenodd" d="M11.9983 3.53787C7.32555 3.53881 3.53787 7.32708 3.53787 12C3.53787 16.6735 7.32649 20.4621 12 20.4621C16.6729 20.4621 20.4612 16.6744 20.4621 12.0017C20.4581 11.1589 20.3258 10.3217 20.0697 9.51868C19.9407 9.11408 20.1641 8.68149 20.5687 8.55246C20.9733 8.42343 21.4059 8.64681 21.5349 9.05141C21.8386 10.0038 21.9955 10.9969 22 11.9965L22 12C22 17.5228 17.5228 22 12 22C6.47715 22 2 17.5228 2 12C2 6.47715 6.47715 2 12 2H12.0035C13.0031 2.00452 13.9962 2.16135 14.9486 2.46509C15.3532 2.59412 15.5766 3.02671 15.4475 3.4313C15.3185 3.8359 14.8859 4.05928 14.4813 3.93025C13.6783 3.67416 12.8411 3.54185 11.9983 3.53787Z" fill="currentColor"/>
<path fill-rule="evenodd" clip-rule="evenodd" d="M21.7748 3.53192C22.0751 3.83221 22.0751 4.31907 21.7748 4.61936L19.7357 6.6584C19.5915 6.80261 19.396 6.88362 19.192 6.88362C18.9881 6.88362 18.7925 6.80261 18.6483 6.6584L17.3406 5.35067C17.0403 5.05038 17.0403 4.56352 17.3406 4.26323C17.6409 3.96294 18.1277 3.96294 18.428 4.26323L19.192 5.02724L20.6873 3.53192C20.9876 3.23164 21.4745 3.23164 21.7748 3.53192Z" fill="currentColor"/>
<path fill-rule="evenodd" clip-rule="evenodd" d="M9.03268 9.95042C8.62238 9.95042 8.28977 10.283 8.28977 10.6933C8.28977 11.118 7.94551 11.4623 7.52084 11.4623C7.09617 11.4623 6.7519 11.118 6.7519 10.6933C6.7519 9.43369 7.77304 8.41255 9.03268 8.41255C10.2923 8.41255 11.3135 9.43369 11.3135 10.6933C11.3135 11.4055 11.0162 11.9401 10.6315 12.348C10.3106 12.6884 9.90045 12.9666 9.56767 13.1923C9.53292 13.2159 9.49902 13.2389 9.46614 13.2613C9.04278 13.5503 8.73129 13.7867 8.53558 14.0517H10.5445C10.9692 14.0517 11.3135 14.396 11.3135 14.8206C11.3135 15.2453 10.9692 15.5896 10.5445 15.5896H7.52084C7.09617 15.5896 6.7519 15.2453 6.7519 14.8206C6.7519 13.2589 7.8636 12.4931 8.59922 11.9911C8.62493 11.9735 8.65018 11.9563 8.67499 11.9394C9.04401 11.6879 9.3135 11.5042 9.5126 11.293C9.69493 11.0997 9.77559 10.9257 9.77559 10.6933C9.77559 10.283 9.44298 9.95042 9.03268 9.95042Z" fill="currentColor"/>
<path fill-rule="evenodd" clip-rule="evenodd" d="M14.8523 10.5808C14.4147 11.3018 13.9667 12.0566 13.5538 12.7637H14.8523V10.5808ZM16.3901 12.7637V9.70541C16.3901 8.42961 14.6988 7.89635 14.0035 9.02214C13.3559 10.0694 12.6509 11.2557 12.0426 12.3025C11.5216 13.2003 12.1804 14.3016 13.1975 14.3016H14.8523V14.8185C14.8523 15.2432 15.1965 15.5883 15.6212 15.5883C16.0459 15.5883 16.3901 15.244 16.3901 14.8193V14.3016H16.4773C16.902 14.3016 17.2462 13.9573 17.2462 13.5327C17.2462 13.108 16.902 12.7637 16.4773 12.7637H16.3901Z" fill="currentColor"/>
</svg>
