<svg width="40" height="41" viewBox="0 0 40 41" fill="none" xmlns="http://www.w3.org/2000/svg">
<path d="M0 20.3838C0 9.33809 8.95431 0.383789 20 0.383789C31.0457 0.383789 40 9.33809 40 20.3838C40 31.4295 31.0457 40.3838 20 40.3838C8.95431 40.3838 0 31.4295 0 20.3838Z" fill="#EDF7FF"/>
<path fill-rule="evenodd" clip-rule="evenodd" d="M12.1212 12.7226C11.6454 13.2472 11.3953 14.2244 11.3953 16.2812V24.4864C11.3953 26.5431 11.6454 27.5204 12.1212 28.045C12.597 28.5696 13.4834 28.8453 15.3488 28.8453H24.6512C26.5166 28.8453 27.403 28.5696 27.8788 28.045C28.3546 27.5204 28.6047 26.5431 28.6047 24.4864V16.2812C28.6047 14.2244 28.3546 13.2472 27.8788 12.7226C27.403 12.198 26.5166 11.9223 24.6512 11.9223H15.3488C13.4834 11.9223 12.597 12.198 12.1212 12.7226ZM11.1346 11.6347C12.0541 10.6209 13.4934 10.3838 15.3488 10.3838H24.6512C26.5066 10.3838 27.9459 10.6209 28.8654 11.6347C29.785 12.6486 30 14.2354 30 16.2812V24.4864C30 26.5321 29.785 28.119 28.8654 29.1328C27.9459 30.1467 26.5066 30.3838 24.6512 30.3838H15.3488C13.4934 30.3838 12.0541 30.1467 11.1346 29.1328C10.215 28.119 10 26.5321 10 24.4864V16.2812C10 14.2354 10.215 12.6486 11.1346 11.6347Z" fill="#00518D"/>
<path fill-rule="evenodd" clip-rule="evenodd" d="M13.7209 16.2812C13.7209 15.8564 14.0333 15.512 14.4186 15.512H23.7209C24.1062 15.512 24.4186 15.8564 24.4186 16.2812C24.4186 16.7061 24.1062 17.0505 23.7209 17.0505H14.4186C14.0333 17.0505 13.7209 16.7061 13.7209 16.2812Z" fill="#00518D"/>
<path fill-rule="evenodd" clip-rule="evenodd" d="M13.7209 20.3838C13.7209 19.959 14.0333 19.6146 14.4186 19.6146H21.8605C22.2458 19.6146 22.5581 19.959 22.5581 20.3838C22.5581 20.8086 22.2458 21.153 21.8605 21.153H14.4186C14.0333 21.153 13.7209 20.8086 13.7209 20.3838Z" fill="#00518D"/>
<path fill-rule="evenodd" clip-rule="evenodd" d="M13.7209 24.4864C13.7209 24.0615 14.0333 23.7171 14.4186 23.7171H18.1395C18.5248 23.7171 18.8372 24.0615 18.8372 24.4864C18.8372 24.9112 18.5248 25.2556 18.1395 25.2556H14.4186C14.0333 25.2556 13.7209 24.9112 13.7209 24.4864Z" fill="#00518D"/>
</svg>
