<svg width="24" height="24" viewBox="0 0 24 24" fill="none" xmlns="http://www.w3.org/2000/svg">
<path d="M15.0407 22.5H8.95136C7.1753 22.5 5.87849 21.7284 5.38044 20.4C4.86359 19.013 5.34285 17.294 6.58327 16.1316L10.9436 12L6.58327 7.86837C5.34285 6.70605 4.86359 4.98698 5.38044 3.6C5.87849 2.26186 7.1753 1.5 8.95136 1.5H15.0407C16.8168 1.5 18.1136 2.27163 18.6116 3.6C19.1285 4.98698 18.6492 6.70605 17.4088 7.86837L13.0485 12L17.4182 16.1316C18.6492 17.294 19.1379 19.013 18.621 20.4C18.1136 21.7284 16.8168 22.5 15.0407 22.5ZM11.996 12.9865L7.53239 17.206C6.74303 17.9581 6.39533 19.0521 6.69604 19.8628C6.97795 20.6149 7.77671 21.0349 8.95136 21.0349H15.0407C16.2154 21.0349 17.0141 20.6247 17.296 19.8628C17.5968 19.0521 17.2585 17.9581 16.4597 17.206L11.996 12.9865ZM8.95136 2.96512C7.77671 2.96512 6.97795 3.37535 6.69604 4.13721C6.39533 4.94791 6.73363 6.04186 7.53239 6.79395L11.996 11.0135L16.4597 6.79395C17.2491 6.04186 17.5968 4.94791 17.296 4.13721C17.0141 3.38512 16.2154 2.96512 15.0407 2.96512H8.95136Z" fill="currentColor"/>
</svg>
