<svg width="57" height="56" viewBox="0 0 57 56" fill="none" xmlns="http://www.w3.org/2000/svg">
<path d="M24.9239 1.3371L6.23474 12.3831H46.0794L27.3903 1.3371C27.017 1.11643 26.591 1 26.1571 1C25.7232 1 25.2972 1.11643 24.9239 1.3371Z" fill="var(--color-elevated)"/>
<path d="M25.5281 2.47954L11.3083 10.884H41.0076L26.7878 2.47954C26.5971 2.36684 26.3796 2.30737 26.158 2.30737C25.9364 2.30737 25.7188 2.36684 25.5281 2.47954Z" fill="var(--color-overlay)"/>
<path d="M5.72083 18.0577H12.6072V20.2361C12.6072 20.3384 12.5665 20.4364 12.494 20.5087C12.4216 20.5811 12.3233 20.6217 12.2208 20.6217H6.1072C6.00473 20.6217 5.90645 20.5811 5.83399 20.5087C5.76153 20.4364 5.72083 20.3384 5.72083 20.2361V18.0577Z" fill="var(--color-elevated)"/>
<path d="M4.88137 42.3739H13.4447C13.5472 42.3739 13.6455 42.4145 13.7179 42.4868C13.7904 42.5591 13.8311 42.6572 13.8311 42.7595V44.9378H4.495V42.7595C4.495 42.6572 4.5357 42.5591 4.60816 42.4868C4.68062 42.4145 4.7789 42.3739 4.88137 42.3739Z" fill="var(--color-elevated)"/>
<path d="M11.4698 20.6217H6.85804L5.72083 42.3744H12.6071L11.4698 20.6217Z" fill="var(--color-overlay)"/>
<path d="M17.05 18.0577H23.9364V20.2361C23.9364 20.3384 23.8957 20.4364 23.8232 20.5087C23.7508 20.5811 23.6525 20.6217 23.55 20.6217H17.4364C17.334 20.6217 17.2357 20.5811 17.1632 20.5087C17.0908 20.4364 17.05 20.3384 17.05 20.2361V18.0577Z" fill="var(--color-elevated)"/>
<path d="M16.2111 42.3739H24.7744C24.8769 42.3739 24.9752 42.4145 25.0476 42.4868C25.1201 42.5591 25.1608 42.6572 25.1608 42.7595V44.9378H15.8247V42.7595C15.8247 42.7088 15.8347 42.6587 15.8541 42.6119C15.8735 42.5651 15.902 42.5226 15.9379 42.4868C15.9738 42.451 16.0164 42.4226 16.0632 42.4032C16.1101 42.3839 16.1603 42.3739 16.2111 42.3739Z" fill="var(--color-elevated)"/>
<path d="M22.799 20.6217H18.1873L17.05 42.3744H23.9364L22.799 20.6217Z" fill="var(--color-overlay)"/>
<path d="M28.3787 18.0577H35.265V20.2361C35.265 20.3384 35.2243 20.4364 35.1519 20.5087C35.0794 20.5811 34.9811 20.6217 34.8787 20.6217H28.765C28.6626 20.6217 28.5643 20.5811 28.4918 20.5087C28.4194 20.4364 28.3787 20.3384 28.3787 20.2361V18.0577Z" fill="var(--color-elevated)"/>
<path d="M27.5408 42.3739H36.1041C36.2066 42.3739 36.3049 42.4145 36.3774 42.4868C36.4498 42.5591 36.4905 42.6572 36.4905 42.7595V44.9378H27.1544V42.7595C27.1544 42.6572 27.1951 42.5591 27.2676 42.4868C27.34 42.4145 27.4383 42.3739 27.5408 42.3739Z" fill="var(--color-elevated)"/>
<path d="M34.1278 20.6217H29.516L28.3787 42.3744H35.265L34.1278 20.6217Z" fill="var(--color-overlay)"/>
<path d="M39.7079 18.0577H46.5943V20.2361C46.5943 20.3384 46.5535 20.4364 46.4811 20.5087C46.4086 20.5811 46.3104 20.6217 46.2079 20.6217H40.0943C39.9918 20.6217 39.8935 20.5811 39.8211 20.5087C39.7486 20.4364 39.7079 20.3384 39.7079 20.2361V18.0577Z" fill="var(--color-elevated)"/>
<path d="M38.8699 42.3739H47.4332C47.5357 42.3739 47.634 42.4145 47.7065 42.4868C47.7789 42.5591 47.8196 42.6572 47.8196 42.7595V44.9378H38.4835V42.7595C38.4835 42.6572 38.5242 42.5591 38.5967 42.4868C38.6691 42.4145 38.7674 42.3739 38.8699 42.3739Z" fill="var(--color-elevated)"/>
<path d="M45.457 20.6217H40.8452L39.7079 42.3744H46.5942L45.457 20.6217Z" fill="var(--color-overlay)"/>
<path d="M3.44861 15.6345H48.8667V17.561C48.8667 17.6926 48.8143 17.8189 48.721 17.912C48.6277 18.0051 48.5012 18.0574 48.3693 18.0574H3.94605C3.81412 18.0574 3.68759 18.0051 3.59431 17.912C3.50102 17.8189 3.44861 17.6926 3.44861 17.561V15.6345Z" fill="var(--color-overlay)"/>
<path d="M46.2793 10.5483H6.03599C5.67074 10.5483 5.31586 10.6695 5.02722 10.8929C4.73857 11.1162 4.53254 11.429 4.44156 11.7819L3.44861 15.6344H48.8667L47.8737 11.7819C47.7828 11.429 47.5767 11.1162 47.2881 10.8929C46.9994 10.6695 46.6446 10.5483 46.2793 10.5483Z" fill="var(--color-overlay)"/>
<path d="M49.0844 15.6345H3.2313C3.07895 15.6345 2.95544 15.7578 2.95544 15.9098V16.1083C2.95544 16.2603 3.07895 16.3836 3.2313 16.3836H49.0844C49.2367 16.3836 49.3602 16.2603 49.3602 16.1083V15.9098C49.3602 15.7578 49.2367 15.6345 49.0844 15.6345Z" fill="var(--color-brand)"/>
<path d="M50.2717 44.9381H2.04443V48.6691H50.2717V44.9381Z" fill="var(--color-overlay)"/>
<path d="M50.3946 44.9381H1.91978C1.76743 44.9381 1.64392 45.0614 1.64392 45.2134V45.4119C1.64392 45.5639 1.76743 45.6872 1.91978 45.6872H50.3946C50.547 45.6872 50.6705 45.5639 50.6705 45.4119V45.2134C50.6705 45.0614 50.547 44.9381 50.3946 44.9381Z" fill="var(--color-elevated)"/>
<path d="M51.5825 48.6692H0.733398V52.4001H51.5825V48.6692Z" fill="var(--color-overlay)"/>
<path d="M51.7059 48.6692H0.609228C0.456878 48.6692 0.333374 48.7924 0.333374 48.9445V49.143C0.333374 49.295 0.456878 49.4182 0.609228 49.4182H51.7059C51.8582 49.4182 51.9818 49.295 51.9818 49.143V48.9445C51.9818 48.7924 51.8582 48.6692 51.7059 48.6692Z" fill="var(--color-elevated)"/>
<path d="M51.7059 52.4H0.609228C0.456878 52.4 0.333374 52.5233 0.333374 52.6753V52.8738C0.333374 53.0258 0.456878 53.1491 0.609228 53.1491H51.7059C51.8582 53.1491 51.9818 53.0258 51.9818 52.8738V52.6753C51.9818 52.5233 51.8582 52.4 51.7059 52.4Z" fill="var(--color-elevated)"/>
<path d="M26.1581 12.4034C28.2428 12.4034 29.9328 10.717 29.9328 8.63671C29.9328 6.55641 28.2428 4.87 26.1581 4.87C24.0733 4.87 22.3833 6.55641 22.3833 8.63671C22.3833 10.717 24.0733 12.4034 26.1581 12.4034Z" fill="var(--color-brand)"/>
<path d="M26.1581 12.4034C28.2428 12.4034 29.9328 10.717 29.9328 8.63671C29.9328 6.55641 28.2428 4.87 26.1581 4.87C24.0733 4.87 22.3833 6.55641 22.3833 8.63671C22.3833 10.717 24.0733 12.4034 26.1581 12.4034Z" fill="url(#paint0_linear_7148_17194)" fill-opacity="0.25"/>
<path d="M46.2793 10.5483H6.03599C5.67074 10.5483 5.31586 10.6695 5.02722 10.8929C4.73857 11.1162 4.53254 11.429 4.44156 11.7819L3.44861 15.6344H48.8667L47.8737 11.7819C47.7828 11.429 47.5767 11.1162 47.2881 10.8929C46.9994 10.6695 46.6446 10.5483 46.2793 10.5483Z" fill="var(--color-elevated)"/>
<path d="M47.6862 54.4155C52.007 54.4155 55.512 50.9202 55.5148 46.6086C55.5176 42.297 52.0171 38.8018 47.6963 38.8018C43.3755 38.8018 39.8705 42.297 39.8677 46.6086C39.8649 50.9202 43.3653 54.4155 47.6862 54.4155Z" fill="var(--color-brand)"/>
<path d="M47.6862 54.4155C52.007 54.4155 55.512 50.9202 55.5148 46.6086C55.5176 42.297 52.0171 38.8018 47.6963 38.8018C43.3755 38.8018 39.8705 42.297 39.8677 46.6086C39.8649 50.9202 43.3653 54.4155 47.6862 54.4155Z" fill="url(#paint1_linear_7148_17194)" fill-opacity="0.25"/>
<path d="M51.1638 47.2574H44.2288C43.8734 47.2574 43.5786 46.9633 43.5786 46.6086C43.5786 46.2539 43.8734 45.9598 44.2288 45.9598H51.1638C51.5192 45.9598 51.8139 46.2539 51.8139 46.6086C51.8139 46.9633 51.5192 47.2574 51.1638 47.2574Z" fill="url(#paint2_linear_7148_17194)"/>
<path d="M47.6963 50.7175C47.3409 50.7175 47.0461 50.4234 47.0461 50.0687V43.1485C47.0461 42.7938 47.3409 42.4997 47.6963 42.4997C48.0517 42.4997 48.3464 42.7938 48.3464 43.1485V50.0687C48.3464 50.4234 48.0517 50.7175 47.6963 50.7175Z" fill="url(#paint3_linear_7148_17194)"/>
<defs>
<linearGradient id="paint0_linear_7148_17194" x1="26.1581" y1="4.87" x2="26.1581" y2="12.4034" gradientUnits="userSpaceOnUse">
<stop offset="0.07" stop-color="#F1F9FE"/>
<stop offset="1" stop-color="white" stop-opacity="0"/>
</linearGradient>
<linearGradient id="paint1_linear_7148_17194" x1="47.6912" y1="38.8018" x2="47.6912" y2="54.4155" gradientUnits="userSpaceOnUse">
<stop offset="0.07" stop-color="#F1F9FE"/>
<stop offset="1" stop-color="white" stop-opacity="0"/>
</linearGradient>
<linearGradient id="paint2_linear_7148_17194" x1="43.5789" y1="46.6053" x2="51.8236" y2="46.6053" gradientUnits="userSpaceOnUse">
<stop stop-color="white"/>
<stop offset="0.78" stop-color="#EDF7FF"/>
</linearGradient>
<linearGradient id="paint3_linear_7148_17194" x1="43.5789" y1="46.6053" x2="51.8236" y2="46.6053" gradientUnits="userSpaceOnUse">
<stop stop-color="white"/>
<stop offset="0.78" stop-color="#EDF7FF"/>
</linearGradient>
</defs>
</svg>
