<svg width="56" height="56" viewBox="0 0 56 56" fill="none" xmlns="http://www.w3.org/2000/svg">
<path d="M28 3C41.8071 3 53 14.1929 53 28C53 41.8071 41.8071 53 28 53C14.1929 53 3 41.8071 3 28C3 14.1929 14.1929 3 28 3Z" fill="#FEF3C7"/>
<path d="M28 3C41.8071 3 53 14.1929 53 28C53 41.8071 41.8071 53 28 53C14.1929 53 3 41.8071 3 28C3 14.1929 14.1929 3 28 3Z" stroke="#FFFBEB" stroke-width="6"/>
<path d="M28.0002 31.2082C27.5219 31.2082 27.1252 30.8116 27.1252 30.3332V24.4999C27.1252 24.0216 27.5219 23.6249 28.0002 23.6249C28.4786 23.6249 28.8752 24.0216 28.8752 24.4999V30.3332C28.8752 30.8116 28.4786 31.2082 28.0002 31.2082Z" fill="#D97706"/>
<path d="M28.0002 34.9999C27.9302 34.9999 27.8486 34.9882 27.7669 34.9766C27.6969 34.9649 27.6269 34.9416 27.5569 34.9066C27.4869 34.8832 27.4169 34.8482 27.3469 34.8016C27.2886 34.7549 27.2302 34.7082 27.1719 34.6616C26.9619 34.4399 26.8336 34.1366 26.8336 33.8332C26.8336 33.5299 26.9619 33.2266 27.1719 33.0049C27.2302 32.9582 27.2886 32.9116 27.3469 32.8649C27.4169 32.8182 27.4869 32.7832 27.5569 32.7599C27.6269 32.7249 27.6969 32.7016 27.7669 32.6899C27.9186 32.6549 28.0819 32.6549 28.2219 32.6899C28.3035 32.7016 28.3736 32.7249 28.4436 32.7599C28.5136 32.7832 28.5836 32.8182 28.6536 32.8649C28.7119 32.9116 28.7702 32.9582 28.8286 33.0049C29.0386 33.2266 29.1669 33.5299 29.1669 33.8332C29.1669 34.1366 29.0386 34.4399 28.8286 34.6616C28.7702 34.7082 28.7119 34.7549 28.6536 34.8016C28.5836 34.8482 28.5136 34.8832 28.4436 34.9066C28.3736 34.9416 28.3035 34.9649 28.2219 34.9766C28.1519 34.9882 28.0702 34.9999 28.0002 34.9999Z" fill="#D97706"/>
<path d="M35.0702 39.8532H20.9302C18.6552 39.8532 16.9169 39.0249 16.0302 37.5316C15.1552 36.0382 15.2719 34.1132 16.3802 32.1182L23.4502 19.4016C24.6169 17.3016 26.2269 16.1466 28.0002 16.1466C29.7736 16.1466 31.3836 17.3016 32.5502 19.4016L39.6202 32.1299C40.7285 34.1249 40.8569 36.0382 39.9702 37.5432C39.0835 39.0249 37.3452 39.8532 35.0702 39.8532ZM28.0002 17.8966C26.9036 17.8966 25.8302 18.7366 24.9785 20.2532L17.9202 32.9816C17.1269 34.4049 16.9985 35.7116 17.5469 36.6566C18.0952 37.6016 19.3085 38.1149 20.9419 38.1149H35.0819C36.7152 38.1149 37.9169 37.6016 38.4769 36.6566C39.0369 35.7116 38.8969 34.4166 38.1035 32.9816L31.0219 20.2532C30.1702 18.7366 29.0969 17.8966 28.0002 17.8966Z" fill="#D97706"/>
</svg>
