<svg width="56" height="56" viewBox="0 0 56 56" fill="none" xmlns="http://www.w3.org/2000/svg">
<g clip-path="url(#clip0_1649_380)">
<path d="M28.0005 56.0009C43.4647 56.0009 56.0009 43.4647 56.0009 28.0005C56.0009 12.5362 43.4647 0 28.0005 0C12.5362 0 0 12.5362 0 28.0005C0 43.4647 12.5362 56.0009 28.0005 56.0009Z" fill="url(#paint0_linear_1649_380)"/>
<path d="M28.0006 51.1445C40.7827 51.1445 51.1447 40.7825 51.1447 28.0003C51.1447 15.2182 40.7827 4.8562 28.0006 4.8562C15.2184 4.8562 4.85645 15.2182 4.85645 28.0003C4.85645 40.7825 15.2184 51.1445 28.0006 51.1445Z" fill="url(#paint1_linear_1649_380)" fill-opacity="0.6"/>
<path d="M28.5 32C27.475 32 26.625 31.1631 26.625 30.1538V17.8462C26.625 16.8369 27.475 16 28.5 16C29.525 16 30.375 16.8369 30.375 17.8462V30.1538C30.375 31.1631 29.525 32 28.5 32Z" fill="white"/>
<path d="M28.5 40C28.175 40 27.85 39.9262 27.55 39.8031C27.25 39.68 26.975 39.5077 26.725 39.2862C26.5 39.04 26.325 38.7938 26.2 38.4738C26.075 38.1785 26 37.8585 26 37.5385C26 37.2185 26.075 36.8985 26.2 36.6031C26.325 36.3077 26.5 36.0369 26.725 35.7908C26.975 35.5692 27.25 35.3969 27.55 35.2739C28.15 35.0277 28.85 35.0277 29.45 35.2739C29.75 35.3969 30.025 35.5692 30.275 35.7908C30.5 36.0369 30.675 36.3077 30.8 36.6031C30.925 36.8985 31 37.2185 31 37.5385C31 37.8585 30.925 38.1785 30.8 38.4738C30.675 38.7938 30.5 39.04 30.275 39.2862C30.025 39.5077 29.75 39.68 29.45 39.8031C29.15 39.9262 28.825 40 28.5 40Z" fill="white"/>
</g>
<defs>
<linearGradient id="paint0_linear_1649_380" x1="13.7309" y1="13.7309" x2="48.7016" y2="48.7016" gradientUnits="userSpaceOnUse">
<stop stop-color="#F7F7F9"/>
<stop offset="1" stop-color="#6E727B"/>
</linearGradient>
<linearGradient id="paint1_linear_1649_380" x1="16.2055" y1="16.2053" x2="45.1105" y2="45.1103" gradientUnits="userSpaceOnUse">
<stop stop-color="#6B7280"/>
<stop offset="1" stop-color="#374151"/>
</linearGradient>
<clipPath id="clip0_1649_380">
<rect width="56" height="56" fill="white"/>
</clipPath>
</defs>
</svg>
