<svg width="25" height="24" viewBox="0 0 25 24" fill="none" xmlns="http://www.w3.org/2000/svg">
<path fill-rule="evenodd" clip-rule="evenodd" d="M19.6001 19.16C20.1901 18.26 20.4101 17.8 20.8601 16.79C17.5401 15.53 17.0101 10.8 20.2901 8.98999C19.2901 7.72999 17.8801 7 16.5501 7C15.5901 7 14.9301 7.25001 14.3401 7.48001C13.8401 7.67001 13.3901 7.84 12.8301 7.84C12.2301 7.84 11.7001 7.65001 11.1401 7.45001C10.5301 7.23001 9.89006 7 9.09006 7C7.60006 7 6.01007 7.91 5.00007 9.47C3.58007 11.67 3.83007 15.79 6.12007 19.31C6.94007 20.57 8.04007 21.98 9.47007 22C10.0701 22.01 10.4601 21.83 10.8901 21.64C11.3801 21.42 11.9101 21.18 12.8401 21.18C13.7701 21.17 14.2901 21.42 14.7801 21.64C15.2001 21.83 15.5801 22.01 16.1701 22C17.6201 21.98 18.7801 20.42 19.6001 19.16Z" fill="currentColor"/>
<path fill-rule="evenodd" clip-rule="evenodd" d="M16.3399 2C16.4999 3.1 16.0499 4.19001 15.4599 4.95001C14.8299 5.77001 13.7299 6.41 12.6699 6.37C12.4799 5.31 12.9699 4.21999 13.5699 3.48999C14.2399 2.68999 15.3699 2.07 16.3399 2Z" fill="currentColor"/>
</svg>
