<svg width="24" height="24" viewBox="0 0 24 24" fill="none" xmlns="http://www.w3.org/2000/svg">
<g opacity="0.4">
<path fill-rule="evenodd" clip-rule="evenodd" d="M21.03 14.4594C21.3232 14.752 21.3237 15.2269 21.0311 15.52L16.0211 20.54C15.7285 20.8332 15.2536 20.8337 14.9604 20.5411C14.6672 20.2485 14.6668 19.7736 14.9594 19.4804L19.9694 14.4604C20.262 14.1672 20.7369 14.1668 21.03 14.4594Z" fill="#1F2937"/>
<path fill-rule="evenodd" clip-rule="evenodd" d="M2.75 14.9902C2.75 14.576 3.08579 14.2402 3.5 14.2402H20.5C20.9142 14.2402 21.25 14.576 21.25 14.9902C21.25 15.4044 20.9142 15.7402 20.5 15.7402H3.5C3.08579 15.7402 2.75 15.4044 2.75 14.9902Z" fill="#1F2937"/>
</g>
<path fill-rule="evenodd" clip-rule="evenodd" d="M9.0398 3.45913C9.33299 3.75173 9.33346 4.22661 9.04086 4.51979L4.03086 9.53979C3.73826 9.83298 3.26338 9.83345 2.9702 9.54085C2.67701 9.24825 2.67654 8.77337 2.96914 8.48019L7.97914 3.46019C8.27174 3.167 8.74662 3.16653 9.0398 3.45913Z" fill="#1F2937"/>
<path fill-rule="evenodd" clip-rule="evenodd" d="M2.75 9.00999C2.75 8.59578 3.08579 8.25999 3.5 8.25999H20.5C20.9142 8.25999 21.25 8.59578 21.25 9.00999C21.25 9.4242 20.9142 9.75999 20.5 9.75999H3.5C3.08579 9.75999 2.75 9.4242 2.75 9.00999Z" fill="#1F2937"/>
</svg>
