<svg width="24" height="24" viewBox="0 0 24 24" fill="none" xmlns="http://www.w3.org/2000/svg">
<path fill-rule="evenodd" clip-rule="evenodd" d="M11.152 6.15202C11.3547 5.94933 11.6833 5.94933 11.886 6.15202L16.3982 10.6641C17.1337 11.3997 17.1337 12.6003 16.3982 13.3359L11.886 17.848C11.6833 18.0507 11.3547 18.0507 11.152 17.848C10.9493 17.6453 10.9493 17.3167 11.152 17.114L15.6641 12.6018C15.9943 12.2717 15.9943 11.7283 15.6641 11.3982L11.152 6.88604C10.9493 6.68335 10.9493 6.35471 11.152 6.15202Z" fill="currentColor"/>
<path fill-rule="evenodd" clip-rule="evenodd" d="M7.15202 6.15202C7.35471 5.94933 7.68335 5.94933 7.88604 6.15202L12.3982 10.6641C13.1337 11.3997 13.1337 12.6003 12.3982 13.3359L7.88604 17.848C7.68335 18.0507 7.35471 18.0507 7.15202 17.848C6.94933 17.6453 6.94933 17.3167 7.15202 17.114L11.6641 12.6018C11.9943 12.2717 11.9943 11.7283 11.6641 11.3982L7.15202 6.88604C6.94933 6.68335 6.94933 6.35471 7.15202 6.15202Z" fill="currentColor"/>
</svg>
