<svg width="24" height="24" viewBox="0 0 24 24" fill="none" xmlns="http://www.w3.org/2000/svg">
<path d="M9.51738 18C9.38587 18 9.25436 17.9516 9.15054 17.8477C8.94982 17.647 8.94982 17.3148 9.15054 17.1141L13.6633 12.6013C13.9955 12.2691 13.9955 11.7292 13.6633 11.397L9.15054 6.88421C8.94982 6.68349 8.94982 6.35126 9.15054 6.15054C9.35126 5.94982 9.68349 5.94982 9.88421 6.15054L14.397 10.6633C14.75 11.0163 14.9507 11.4939 14.9507 11.9991C14.9507 12.5044 14.7569 12.982 14.397 13.335L9.88421 17.8477C9.78039 17.9446 9.64888 18 9.51738 18Z" fill="currentColor"/>
</svg>
