<svg width="24" height="24" viewBox="0 0 24 24" fill="none" xmlns="http://www.w3.org/2000/svg">
<g id="arrow-left">
<g id="Vector">
<path fill-rule="evenodd" clip-rule="evenodd" d="M12.7978 6.15202C13.0005 6.35471 13.0005 6.68335 12.7978 6.88604L8.2857 11.3982C7.95552 11.7283 7.95552 12.2717 8.2857 12.6018L12.7978 17.114C13.0005 17.3167 13.0005 17.6453 12.7978 17.848C12.5951 18.0507 12.2665 18.0507 12.0638 17.848L7.55167 13.3359C6.81611 12.6003 6.81611 11.3997 7.55167 10.6641L12.0638 6.15202C12.2665 5.94933 12.5951 5.94933 12.7978 6.15202Z" fill="currentColor"/>
<path fill-rule="evenodd" clip-rule="evenodd" d="M16.7978 6.15202C17.0005 6.35471 17.0005 6.68335 16.7978 6.88604L12.2857 11.3982C11.9555 11.7283 11.9555 12.2717 12.2857 12.6018L16.7978 17.114C17.0005 17.3167 17.0005 17.6453 16.7978 17.848C16.5951 18.0507 16.2665 18.0507 16.0638 17.848L11.5517 13.3359C10.8161 12.6003 10.8161 11.3997 11.5517 10.6641L16.0638 6.15202C16.2665 5.94933 16.5951 5.94933 16.7978 6.15202Z" fill="currentColor"/>
</g>
</g>
</svg>
