<svg width="20" height="18" viewBox="0 0 20 18" fill="none" xmlns="http://www.w3.org/2000/svg">
<g id="bank">
<g id="Vector">
<path d="M17.5 8.79166H2.50001C1.70001 8.79166 1.04168 8.13332 1.04168 7.33332V4.56665C1.04168 3.99998 1.43332 3.42499 1.95832 3.21665L9.45832 0.216675C9.77499 0.0916748 10.225 0.0916748 10.5417 0.216675L18.0417 3.21665C18.5667 3.42499 18.9583 4.00832 18.9583 4.56665V7.33332C18.9583 8.13332 18.3 8.79166 17.5 8.79166ZM10 1.36668C9.96668 1.36668 9.93336 1.36664 9.9167 1.37497L2.42499 4.375C2.37499 4.4 2.29168 4.50832 2.29168 4.56665V7.33332C2.29168 7.44999 2.38334 7.54166 2.50001 7.54166H17.5C17.6167 7.54166 17.7083 7.44999 17.7083 7.33332V4.56665C17.7083 4.50832 17.6334 4.4 17.575 4.375L10.075 1.37497C10.0584 1.36664 10.0333 1.36668 10 1.36668Z" fill="currentColor"/>
<path d="M18.3333 17.9583H1.66668C1.32501 17.9583 1.04168 17.675 1.04168 17.3333V14.8333C1.04168 14.0333 1.70001 13.375 2.50001 13.375H17.5C18.3 13.375 18.9583 14.0333 18.9583 14.8333V17.3333C18.9583 17.675 18.675 17.9583 18.3333 17.9583ZM2.29168 16.7083H17.7083V14.8333C17.7083 14.7166 17.6167 14.625 17.5 14.625H2.50001C2.38334 14.625 2.29168 14.7166 2.29168 14.8333V16.7083Z" fill="currentColor"/>
<path d="M3.33334 14.625C2.99168 14.625 2.70834 14.3416 2.70834 14V8.16665C2.70834 7.82498 2.99168 7.54165 3.33334 7.54165C3.67501 7.54165 3.95834 7.82498 3.95834 8.16665V14C3.95834 14.3416 3.67501 14.625 3.33334 14.625Z" fill="currentColor"/>
<path d="M6.66668 14.625C6.32501 14.625 6.04168 14.3416 6.04168 14V8.16665C6.04168 7.82498 6.32501 7.54165 6.66668 7.54165C7.00834 7.54165 7.29168 7.82498 7.29168 8.16665V14C7.29168 14.3416 7.00834 14.625 6.66668 14.625Z" fill="currentColor"/>
<path d="M10 14.625C9.65834 14.625 9.37501 14.3416 9.37501 14V8.16665C9.37501 7.82498 9.65834 7.54165 10 7.54165C10.3417 7.54165 10.625 7.82498 10.625 8.16665V14C10.625 14.3416 10.3417 14.625 10 14.625Z" fill="currentColor"/>
<path d="M13.3333 14.625C12.9917 14.625 12.7083 14.3416 12.7083 14V8.16665C12.7083 7.82498 12.9917 7.54165 13.3333 7.54165C13.675 7.54165 13.9583 7.82498 13.9583 8.16665V14C13.9583 14.3416 13.675 14.625 13.3333 14.625Z" fill="currentColor"/>
<path d="M16.6667 14.625C16.325 14.625 16.0417 14.3416 16.0417 14V8.16665C16.0417 7.82498 16.325 7.54165 16.6667 7.54165C17.0083 7.54165 17.2917 7.82498 17.2917 8.16665V14C17.2917 14.3416 17.0083 14.625 16.6667 14.625Z" fill="currentColor"/>
<path d="M19.1667 17.9583H0.833343C0.491677 17.9583 0.208344 17.675 0.208344 17.3333C0.208344 16.9916 0.491677 16.7083 0.833343 16.7083H19.1667C19.5083 16.7083 19.7917 16.9916 19.7917 17.3333C19.7917 17.675 19.5083 17.9583 19.1667 17.9583Z" fill="currentColor"/>
<path d="M10 6.70831C8.96668 6.70831 8.12501 5.86665 8.12501 4.83331C8.12501 3.79998 8.96668 2.95831 10 2.95831C11.0333 2.95831 11.875 3.79998 11.875 4.83331C11.875 5.86665 11.0333 6.70831 10 6.70831ZM10 4.20831C9.65834 4.20831 9.37501 4.49165 9.37501 4.83331C9.37501 5.17498 9.65834 5.45831 10 5.45831C10.3417 5.45831 10.625 5.17498 10.625 4.83331C10.625 4.49165 10.3417 4.20831 10 4.20831Z" fill="currentColor"/>
</g>
</g>
</svg>
