<svg width="56" height="57" viewBox="0 0 56 57" fill="none" xmlns="http://www.w3.org/2000/svg">
<path d="M0 28.5449C0 13.0809 12.536 0.544922 28 0.544922C43.464 0.544922 56 13.0809 56 28.5449C56 44.0089 43.464 56.5449 28 56.5449C12.536 56.5449 0 44.0089 0 28.5449Z" fill="var(--color-icon-container-blue, #EFF6FF)"/>
<path d="M14.0024 23.5972C14.0024 20.8962 14.003 18.1955 14.0015 15.4945C14.0012 15.1869 14.0382 14.8985 14.2983 14.6978C14.6843 14.3999 15.2243 14.5688 15.3908 15.0359C15.45 15.202 15.4424 15.3731 15.4424 15.5445C15.4421 20.6486 15.4415 25.7527 15.4424 30.8571C15.4434 35.7643 19.0519 40.1431 23.7516 40.91C27.1259 41.4601 30.0549 40.4863 32.5124 38.0435C33.4875 37.0747 34.2147 35.915 34.7191 34.615C34.7966 34.4153 34.8841 34.3278 35.0993 34.3417C35.4193 34.3618 35.742 34.3621 36.062 34.342C36.316 34.3259 36.326 34.4083 36.247 34.627C34.9458 38.2165 32.5701 40.7027 29.0515 41.9256C22.9391 44.05 16.3948 40.5262 14.5025 34.1492C14.1625 33.0026 14.0103 31.8288 14.0054 30.6354C13.9954 28.2892 14.0024 25.943 14.0024 23.5972Z" fill="var(--color-icon-brand, #00518D)"/>
<path d="M17.5471 23.4367C17.5471 25.8625 17.5471 28.2883 17.5471 30.714C17.5471 35.0642 20.8105 38.6754 25.0222 38.8645C28.2743 39.0107 30.725 37.5264 32.3757 34.6373C32.5 34.4193 32.6167 34.324 32.8598 34.3413C33.1685 34.3637 33.4806 34.3621 33.7893 34.342C34.0494 34.325 34.0877 34.3945 33.9802 34.6367C33.298 36.1745 32.3125 37.4563 30.9991 38.4691C25.4935 42.7151 17.4511 39.4275 16.2657 32.444C16.166 31.858 16.1162 31.2667 16.1165 30.67C16.1192 25.6124 16.118 20.5552 16.1177 15.498C16.1177 15.3149 16.105 15.1306 16.1928 14.9611C16.3441 14.6685 16.5851 14.5169 16.8996 14.5575C17.2205 14.599 17.456 14.7815 17.5168 15.1331C17.5417 15.2781 17.5459 15.4285 17.5459 15.5763C17.5478 18.1965 17.5471 20.8166 17.5471 23.4367Z" fill="var(--color-icon-brand, #00518D)"/>
<path d="M31.7549 34.348C31.1945 35.3897 30.4746 36.2113 29.5688 36.8511C25.199 39.9387 19.3236 37.4207 18.3354 32.0392C18.2694 31.68 18.233 31.3154 18.233 30.9481C18.2339 25.7521 18.2348 20.5565 18.2308 15.3605C18.2305 15.0145 18.3481 14.7547 18.6526 14.6132C18.931 14.4839 19.195 14.5427 19.4226 14.7516C19.6235 14.9359 19.6427 15.1803 19.6423 15.4411C19.6393 20.4882 19.6384 25.5351 19.6408 30.5819C19.642 33.4672 21.3778 35.8527 24.0489 36.523C26.3383 37.0977 28.2834 36.3978 29.855 34.5971C30.0124 34.4168 30.1552 34.3344 30.3862 34.3429C30.8256 34.3596 31.2659 34.348 31.7549 34.348Z" fill="var(--color-icon-brand, #00518D)"/>
<path d="M29.0849 34.3766C28.1982 35.3696 27.0988 35.882 25.8164 35.9949C22.9247 36.2494 20.3415 33.811 20.3385 30.81C20.3336 25.6826 20.3369 20.5552 20.3375 15.4278C20.3375 14.878 20.6107 14.543 21.0501 14.5468C21.4883 14.5506 21.7554 14.8868 21.7554 15.4395C21.7557 20.5096 21.753 25.5797 21.7566 30.6502C21.7585 33.0162 23.6917 34.849 25.9094 34.4892C26.9721 34.3165 28.0204 34.4049 29.0849 34.3766Z" fill="var(--color-icon-brand, #00518D)"/>
<path d="M22.4313 20.844C22.4313 20.3826 22.438 19.9381 22.4292 19.4943C22.4228 19.1942 22.6687 19.2562 22.8088 19.2235C24.8113 18.7551 26.8114 18.7746 28.7717 19.4201C32.5133 20.6515 34.9918 23.2421 36.3565 27.0999C35.8438 27.0999 35.3786 27.1025 34.9131 27.0984C34.7593 27.0968 34.7696 26.9414 34.731 26.8474C33.5936 24.0596 31.6646 22.1041 28.931 21.0286C26.8479 20.2096 24.7214 20.1671 22.5809 20.8034C22.5395 20.8157 22.4976 20.8261 22.4313 20.844Z" fill="var(--color-icon-brand, #00518D)"/>
<path d="M34.0375 27.1022C33.6243 27.1022 33.2146 27.0886 32.8065 27.1078C32.5984 27.1176 32.4972 27.0386 32.4009 26.8552C31.492 25.1249 30.1537 23.874 28.387 23.1424C26.5157 22.3673 24.6168 22.3485 22.7215 23.0593C22.4486 23.1619 22.4118 23.1005 22.4267 22.8363C22.4459 22.4944 22.4389 22.1503 22.4283 21.8078C22.4228 21.6414 22.4763 21.5719 22.6355 21.5256C26.1164 20.5144 29.2108 21.2293 31.8873 23.7542C32.8123 24.6267 33.5039 25.6842 33.9977 26.876C34.0226 26.9358 34.0789 26.9896 34.0375 27.1022Z" fill="var(--color-icon-brand, #00518D)"/>
<path d="M22.4314 25.5612C22.4314 25.1045 22.4472 24.6694 22.4253 24.2366C22.4134 24.0029 22.4873 23.8916 22.696 23.8114C25.33 22.7992 27.7689 23.1515 29.9985 24.9293C30.722 25.5064 31.2836 26.2334 31.7637 27.1018C31.2024 27.1018 30.6889 27.0993 30.1753 27.104C30.0699 27.105 30.0188 27.0439 29.962 26.9706C28.1701 24.6606 25.0219 24.052 22.5225 25.5414C22.5061 25.5514 22.4833 25.5505 22.4314 25.5612Z" fill="var(--color-icon-brand, #00518D)"/>
<path d="M29.1547 27.1018C28.2971 27.1018 27.4912 27.111 26.686 27.0955C26.4812 27.0918 26.2797 26.9968 26.0734 26.9644C24.5996 26.7319 23.4163 27.2667 22.4326 28.4893C22.4326 27.802 22.4341 27.1698 22.4314 26.5379C22.4308 26.4212 22.5177 26.3903 22.5867 26.3384C24.5108 24.8978 27.5511 25.2328 29.1547 27.1018Z" fill="var(--color-icon-brand, #00518D)"/>
<path d="M42 28.8249V27.2729L39.8318 28.0791L37.6315 27.2729L35.47 28.0489L33.276 27.2729L31.0951 28.0489L28.9206 27.2729L26.7266 28.0489L24.5262 27.2729V28.8249L26.6944 29.5707L28.8978 28.7931L31.103 29.5707L33.263 28.8183L35.4895 29.5707L37.6184 28.7912L39.806 29.5707" fill="var(--color-icon-brand, #00518D)"/>
<path d="M42 31.0735V29.5213L39.8318 30.3278L37.6315 29.5213L35.47 30.2972L33.276 29.5213L31.0951 30.2972L28.9206 29.5213L26.7266 30.2972L24.5262 29.5213V31.0735L26.6944 31.8193L28.8978 31.0415L31.103 31.8193L33.263 31.0666L35.4895 31.8193L37.6184 31.0399L39.806 31.8193" fill="var(--color-icon-brand, #00518D)"/>
<path d="M42 33.3219V31.77L39.8318 32.5762L37.6315 31.77L35.47 32.546L33.276 31.77L31.0951 32.546L28.9206 31.77L26.7266 32.546L24.5262 31.77V33.3219L26.6944 34.0677L28.8978 33.2902L31.103 34.0677L33.263 33.3153L35.4895 34.0677L37.6184 33.2883L39.806 34.0677" fill="var(--color-icon-brand, #00518D)"/>
</svg>
