<svg width="56" height="57" viewBox="0 0 56 57" fill="none" xmlns="http://www.w3.org/2000/svg">
<path d="M0 28.5449C0 13.0809 12.536 0.544922 28 0.544922C43.464 0.544922 56 13.0809 56 28.5449C56 44.0089 43.464 56.5449 28 56.5449C12.536 56.5449 0 44.0089 0 28.5449Z" fill="var(--color-icon-container-blue, #EFF6FF)"/>
<path d="M39.9997 28.2118H15.9997C14.7197 28.2118 13.6663 27.1584 13.6663 25.8784V21.4518C13.6663 20.5451 14.293 19.6251 15.133 19.2918L27.133 14.4918C27.6396 14.2918 28.3597 14.2918 28.8664 14.4918L40.8664 19.2918C41.7064 19.6251 42.333 20.5584 42.333 21.4518V25.8784C42.333 27.1584 41.2797 28.2118 39.9997 28.2118ZM27.9997 16.3318C27.9463 16.3318 27.893 16.3317 27.8664 16.3451L15.8796 21.1451C15.7996 21.1851 15.6663 21.3584 15.6663 21.4518V25.8784C15.6663 26.0651 15.813 26.2118 15.9997 26.2118H39.9997C40.1863 26.2118 40.333 26.0651 40.333 25.8784V21.4518C40.333 21.3584 40.213 21.1851 40.1197 21.1451L28.1197 16.3451C28.093 16.3317 28.053 16.3318 27.9997 16.3318Z" fill="var(--color-icon-brand, #00518D)"/>
<path d="M41.333 42.8784H14.6663C14.1197 42.8784 13.6663 42.4251 13.6663 41.8784V37.8784C13.6663 36.5984 14.7197 35.5451 15.9997 35.5451H39.9997C41.2797 35.5451 42.333 36.5984 42.333 37.8784V41.8784C42.333 42.4251 41.8797 42.8784 41.333 42.8784ZM15.6663 40.8784H40.333V37.8784C40.333 37.6918 40.1863 37.5451 39.9997 37.5451H15.9997C15.813 37.5451 15.6663 37.6918 15.6663 37.8784V40.8784Z" fill="var(--color-icon-brand, #00518D)"/>
<path d="M17.333 37.5451C16.7863 37.5451 16.333 37.0918 16.333 36.5451V27.2118C16.333 26.6651 16.7863 26.2118 17.333 26.2118C17.8797 26.2118 18.333 26.6651 18.333 27.2118V36.5451C18.333 37.0918 17.8797 37.5451 17.333 37.5451Z" fill="var(--color-icon-brand, #00518D)"/>
<path d="M22.6663 37.5451C22.1197 37.5451 21.6663 37.0918 21.6663 36.5451V27.2118C21.6663 26.6651 22.1197 26.2118 22.6663 26.2118C23.213 26.2118 23.6663 26.6651 23.6663 27.2118V36.5451C23.6663 37.0918 23.213 37.5451 22.6663 37.5451Z" fill="var(--color-icon-brand, #00518D)"/>
<path d="M27.9997 37.5451C27.453 37.5451 26.9997 37.0918 26.9997 36.5451V27.2118C26.9997 26.6651 27.453 26.2118 27.9997 26.2118C28.5463 26.2118 28.9997 26.6651 28.9997 27.2118V36.5451C28.9997 37.0918 28.5463 37.5451 27.9997 37.5451Z" fill="var(--color-icon-brand, #00518D)"/>
<path d="M33.333 37.5451C32.7863 37.5451 32.333 37.0918 32.333 36.5451V27.2118C32.333 26.6651 32.7863 26.2118 33.333 26.2118C33.8797 26.2118 34.333 26.6651 34.333 27.2118V36.5451C34.333 37.0918 33.8797 37.5451 33.333 37.5451Z" fill="var(--color-icon-brand, #00518D)"/>
<path d="M38.6663 37.5451C38.1197 37.5451 37.6663 37.0918 37.6663 36.5451V27.2118C37.6663 26.6651 38.1197 26.2118 38.6663 26.2118C39.213 26.2118 39.6663 26.6651 39.6663 27.2118V36.5451C39.6663 37.0918 39.213 37.5451 38.6663 37.5451Z" fill="var(--color-icon-brand, #00518D)"/>
<path d="M42.6663 42.8784H13.333C12.7863 42.8784 12.333 42.4251 12.333 41.8784C12.333 41.3318 12.7863 40.8784 13.333 40.8784H42.6663C43.213 40.8784 43.6663 41.3318 43.6663 41.8784C43.6663 42.4251 43.213 42.8784 42.6663 42.8784Z" fill="var(--color-icon-brand, #00518D)"/>
<path d="M27.9997 24.8784C26.3463 24.8784 24.9997 23.5318 24.9997 21.8784C24.9997 20.2251 26.3463 18.8784 27.9997 18.8784C29.653 18.8784 30.9997 20.2251 30.9997 21.8784C30.9997 23.5318 29.653 24.8784 27.9997 24.8784ZM27.9997 20.8784C27.453 20.8784 26.9997 21.3318 26.9997 21.8784C26.9997 22.4251 27.453 22.8784 27.9997 22.8784C28.5463 22.8784 28.9997 22.4251 28.9997 21.8784C28.9997 21.3318 28.5463 20.8784 27.9997 20.8784Z" fill="var(--color-icon-brand, #00518D)"/>
</svg>
