<svg width="41" height="40" viewBox="0 0 41 40" fill="none" xmlns="http://www.w3.org/2000/svg">
<path d="M0.666687 18C0.666687 12.4087 0.666687 9.61305 1.58013 7.4078C2.79806 4.46746 5.13415 2.13137 8.07449 0.913446C10.2797 0 13.0754 0 18.6667 0H22.6667C28.258 0 31.0536 0 33.2589 0.913446C36.1992 2.13137 38.5353 4.46746 39.7532 7.4078C40.6667 9.61305 40.6667 12.4087 40.6667 18V22C40.6667 27.5913 40.6667 30.3869 39.7532 32.5922C38.5353 35.5325 36.1992 37.8686 33.2589 39.0866C31.0536 40 28.258 40 22.6667 40H18.6667C13.0754 40 10.2797 40 8.07449 39.0866C5.13415 37.8686 2.79806 35.5325 1.58013 32.5922C0.666687 30.3869 0.666687 27.5913 0.666687 22V18Z" fill="var(--color-bg-info-tint)"/>
<path opacity="0.4" fill-rule="evenodd" clip-rule="evenodd" d="M27.3178 14.108C27.497 13.9297 27.754 13.8537 28.0013 13.9057C29.0884 14.1346 30.0401 14.6476 30.7129 15.5187C31.3824 16.3857 31.7168 17.5312 31.7168 18.9196V24.0697C31.7168 25.7526 31.2322 27.0781 30.2671 27.9742C29.3121 28.861 28.0018 29.2196 26.5668 29.2196H17.7768C16.9738 29.2196 16.2098 29.1118 15.5237 28.852C14.0784 28.3166 13.0991 27.1873 12.7611 25.4858C12.7117 25.2369 12.7915 24.9799 12.9732 24.8027C13.1549 24.6255 13.4138 24.5523 13.6614 24.608C13.9966 24.6834 14.3698 24.7196 14.7768 24.7196H23.5668C24.7718 24.7196 25.6614 24.4183 26.2464 23.875C26.8214 23.3412 27.2168 22.4667 27.2168 21.0697V15.9196C27.2168 15.4926 27.1805 15.1238 27.1121 14.7904C27.0613 14.5428 27.1386 14.2862 27.3178 14.108ZM28.715 15.7434C28.7162 15.8016 28.7168 15.8603 28.7168 15.9196V21.0697C28.7168 22.7526 28.2322 24.0781 27.2671 24.9742C26.3121 25.861 25.0018 26.2196 23.5668 26.2196H14.7768C14.7142 26.2196 14.6518 26.2189 14.5894 26.2175C14.9198 26.8222 15.4163 27.2131 16.0469 27.4462L16.0528 27.4484C16.5259 27.6279 17.1009 27.7196 17.7768 27.7196H26.5668C27.7718 27.7196 28.6614 27.4183 29.2464 26.875C29.8214 26.3412 30.2168 25.4667 30.2168 24.0697V18.9196C30.2168 17.768 29.9412 16.9736 29.5257 16.4356C29.3097 16.1558 29.0399 15.9247 28.715 15.7434Z" fill="#00518D"/>
<path fill-rule="evenodd" clip-rule="evenodd" d="M19.1667 16.6104C18.1229 16.6104 17.2767 17.4565 17.2767 18.5004C17.2767 19.5442 18.1229 20.3904 19.1667 20.3904C20.2105 20.3904 21.0567 19.5442 21.0567 18.5004C21.0567 17.4565 20.2105 16.6104 19.1667 16.6104ZM15.7767 18.5004C15.7767 16.6281 17.2944 15.1104 19.1667 15.1104C21.0389 15.1104 22.5567 16.6281 22.5567 18.5004C22.5567 20.3726 21.0389 21.8904 19.1667 21.8904C17.2944 21.8904 15.7767 20.3726 15.7767 18.5004Z" fill="#00518D"/>
<path opacity="0.4" fill-rule="evenodd" clip-rule="evenodd" d="M13.4467 15.5498C13.8609 15.5498 14.1967 15.8856 14.1967 16.2998V20.6998C14.1967 21.114 13.8609 21.4498 13.4467 21.4498C13.0325 21.4498 12.6967 21.114 12.6967 20.6998V16.2998C12.6967 15.8856 13.0325 15.5498 13.4467 15.5498Z" fill="#00518D"/>
<path opacity="0.4" fill-rule="evenodd" clip-rule="evenodd" d="M24.8867 15.5498C25.3009 15.5498 25.6367 15.8856 25.6367 16.2998V20.6998C25.6367 21.114 25.3009 21.4498 24.8867 21.4498C24.4725 21.4498 24.1367 21.114 24.1367 20.6998V16.2998C24.1367 15.8856 24.4725 15.5498 24.8867 15.5498Z" fill="#00518D"/>
<path fill-rule="evenodd" clip-rule="evenodd" d="M12.097 13.1141C11.5221 13.648 11.1267 14.5224 11.1267 15.9195V21.0695C11.1267 22.0798 11.3337 22.8136 11.6574 23.3382C11.9755 23.8536 12.437 24.2178 13.046 24.4458C13.2339 24.514 13.4255 24.5686 13.6152 24.599C13.6306 24.6014 13.646 24.6044 13.6613 24.6078C13.9965 24.6832 14.3697 24.7195 14.7767 24.7195H23.5667C24.7717 24.7195 25.6613 24.4181 26.2463 23.8749C26.8213 23.341 27.2167 22.4666 27.2167 21.0695V15.9195C27.2167 15.5086 27.1736 15.1462 27.1094 14.7772C26.9267 13.8639 26.514 13.2663 25.9591 12.8828C25.3862 12.4869 24.5883 12.2695 23.5667 12.2695H14.7767C13.5716 12.2695 12.682 12.5709 12.097 13.1141ZM11.0763 12.0149C12.0313 11.1282 13.3417 10.7695 14.7767 10.7695H23.5667C24.7851 10.7695 25.9122 11.0271 26.8118 11.6488C27.7277 12.2817 28.3343 13.2416 28.5824 14.4937L28.5855 14.5102C28.6604 14.9384 28.7167 15.3935 28.7167 15.9195V21.0695C28.7167 22.7525 28.2321 24.078 27.267 24.9741C26.312 25.8609 25.0016 26.2195 23.5667 26.2195H14.7767C14.2916 26.2195 13.8126 26.1772 13.3546 26.0763C13.0542 26.0263 12.7751 25.9434 12.5304 25.8544L12.5244 25.8522L12.5244 25.8522C11.6348 25.5201 10.8923 24.9546 10.3809 24.1259C9.87465 23.3055 9.62668 22.2793 9.62668 21.0695V15.9195C9.62668 14.2365 10.1113 12.911 11.0763 12.0149Z" fill="#00518D"/>
</svg>
