<svg width="10" height="12" viewBox="0 0 10 12" fill="none" xmlns="http://www.w3.org/2000/svg">
  <mask id="path-1-inside-1_20812_2183" fill="currentColor">
    <path d="M3 2.875C2.795 2.875 2.625 2.705 2.625 2.5V1C2.625 0.795 2.795 0.625 3 0.625C3.205 0.625 3.375 0.795 3.375 1V2.5C3.375 2.705 3.205 2.875 3 2.875Z"/>
    <path d="M7 2.875C6.795 2.875 6.625 2.705 6.625 2.5V1C6.625 0.795 6.795 0.625 7 0.625C7.205 0.625 7.375 0.795 7.375 1V2.5C7.375 2.705 7.205 2.875 7 2.875Z"/>
    <path d="M9.25 4.91998H0.75C0.545 4.91998 0.375 4.74998 0.375 4.54498C0.375 4.33998 0.545 4.16998 0.75 4.16998H9.25C9.455 4.16998 9.625 4.33998 9.625 4.54498C9.625 4.74998 9.455 4.91998 9.25 4.91998Z"/>
    <path d="M7 11.375H3C1.175 11.375 0.125 10.325 0.125 8.5V4.25C0.125 2.425 1.175 1.375 3 1.375H7C8.825 1.375 9.875 2.425 9.875 4.25V8.5C9.875 10.325 8.825 11.375 7 11.375ZM3 2.125C1.57 2.125 0.875 2.82 0.875 4.25V8.5C0.875 9.93 1.57 10.625 3 10.625H7C8.43 10.625 9.125 9.93 9.125 8.5V4.25C9.125 2.82 8.43 2.125 7 2.125H3Z"/>
    <path fill-rule="evenodd" clip-rule="evenodd" d="M4.875 6.26163C3.97782 6.26163 3.26163 6.98411 3.26163 7.875C3.26163 7.94725 3.20306 8.00581 3.13081 8.00581C3.05857 8.00581 3 7.94725 3 7.875C3 6.8403 3.83264 6 4.875 6C5.49553 6 5.96021 6.25919 6.26715 6.51525C6.35286 6.58675 6.42658 6.65823 6.48837 6.72419V6.22849C6.48837 6.15624 6.54694 6.09767 6.61919 6.09767C6.69143 6.09767 6.75 6.15624 6.75 6.22849V7.10058C6.75 7.17283 6.69143 7.2314 6.61919 7.2314H5.84477C5.77252 7.2314 5.71395 7.17283 5.71395 7.10058C5.71395 7.02834 5.77252 6.96977 5.84477 6.96977H6.35743C6.29233 6.89431 6.20633 6.80521 6.09956 6.71615C5.82526 6.48732 5.41785 6.26163 4.875 6.26163ZM6.61919 7.74419C6.69143 7.74419 6.75 7.80275 6.75 7.875C6.75 8.91004 5.91004 9.75 4.875 9.75C4.34818 9.75 3.93043 9.48485 3.65078 9.2312C3.57655 9.16387 3.51121 9.09662 3.45523 9.03409V9.52151C3.45523 9.59376 3.39667 9.65233 3.32442 9.65233C3.25217 9.65233 3.1936 9.59376 3.1936 9.52151V8.64942C3.1936 8.57717 3.25217 8.51861 3.32442 8.51861H4.11279C4.18504 8.51861 4.2436 8.57717 4.2436 8.64942C4.2436 8.72167 4.18504 8.78023 4.11279 8.78023H3.58205C3.64498 8.85674 3.72705 8.94716 3.82655 9.03741C4.08148 9.26864 4.43903 9.48837 4.875 9.48837C5.76554 9.48837 6.48837 8.76554 6.48837 7.875C6.48837 7.80275 6.54694 7.74419 6.61919 7.74419Z"/>
  </mask>
  <path d="M6.26715 6.51525L5.62657 7.28314L6.26715 6.51525ZM6.48837 6.72419L5.75857 7.40784L7.48837 9.25442V6.72419H6.48837ZM6.35743 6.96977V7.96977H8.54103L7.11456 6.3165L6.35743 6.96977ZM6.09956 6.71615L6.74014 5.94826H6.74014L6.09956 6.71615ZM3.65078 9.2312L2.97895 9.9719H2.97895L3.65078 9.2312ZM3.45523 9.03409L4.20029 8.36709L2.45523 6.41784V9.03409H3.45523ZM3.58205 8.78023V7.78023H1.46467L2.80975 9.41549L3.58205 8.78023ZM3.82655 9.03741L4.49838 8.2967L4.49838 8.2967L3.82655 9.03741ZM3 2.875V1.875C3.34728 1.875 3.625 2.15272 3.625 2.5H2.625H1.625C1.625 3.25728 2.24272 3.875 3 3.875V2.875ZM2.625 2.5H3.625V1H2.625H1.625V2.5H2.625ZM2.625 1H3.625C3.625 1.34728 3.34728 1.625 3 1.625V0.625V-0.375C2.24272 -0.375 1.625 0.242715 1.625 1H2.625ZM3 0.625V1.625C2.65272 1.625 2.375 1.34728 2.375 1H3.375H4.375C4.375 0.242715 3.75728 -0.375 3 -0.375V0.625ZM3.375 1H2.375V2.5H3.375H4.375V1H3.375ZM3.375 2.5H2.375C2.375 2.15272 2.65272 1.875 3 1.875V2.875V3.875C3.75728 3.875 4.375 3.25728 4.375 2.5H3.375ZM7 2.875V1.875C7.34728 1.875 7.625 2.15272 7.625 2.5H6.625H5.625C5.625 3.25728 6.24272 3.875 7 3.875V2.875ZM6.625 2.5H7.625V1H6.625H5.625V2.5H6.625ZM6.625 1H7.625C7.625 1.34728 7.34728 1.625 7 1.625V0.625V-0.375C6.24272 -0.375 5.625 0.242715 5.625 1H6.625ZM7 0.625V1.625C6.65272 1.625 6.375 1.34728 6.375 1H7.375H8.375C8.375 0.242715 7.75728 -0.375 7 -0.375V0.625ZM7.375 1H6.375V2.5H7.375H8.375V1H7.375ZM7.375 2.5H6.375C6.375 2.15272 6.65272 1.875 7 1.875V2.875V3.875C7.75728 3.875 8.375 3.25728 8.375 2.5H7.375ZM9.25 4.91998V3.91998H0.75V4.91998V5.91998H9.25V4.91998ZM0.75 4.91998V3.91998C1.09728 3.91998 1.375 4.1977 1.375 4.54498H0.375H-0.625C-0.625 5.30227 -0.00728475 5.91998 0.75 5.91998V4.91998ZM0.375 4.54498H1.375C1.375 4.89227 1.09728 5.16998 0.75 5.16998V4.16998V3.16998C-0.00728475 3.16998 -0.625 3.7877 -0.625 4.54498H0.375ZM0.75 4.16998V5.16998H9.25V4.16998V3.16998H0.75V4.16998ZM9.25 4.16998V5.16998C8.90272 5.16998 8.625 4.89227 8.625 4.54498H9.625H10.625C10.625 3.7877 10.0073 3.16998 9.25 3.16998V4.16998ZM9.625 4.54498H8.625C8.625 4.1977 8.90272 3.91998 9.25 3.91998V4.91998V5.91998C10.0073 5.91998 10.625 5.30227 10.625 4.54498H9.625ZM7 11.375V10.375H3V11.375V12.375H7V11.375ZM3 11.375V10.375C2.27732 10.375 1.841 10.1705 1.58523 9.91477C1.32946 9.659 1.125 9.22268 1.125 8.5H0.125H-0.875C-0.875 9.60232 -0.554464 10.6035 0.171018 11.329C0.8965 12.0545 1.89768 12.375 3 12.375V11.375ZM0.125 8.5H1.125V4.25H0.125H-0.875V8.5H0.125ZM0.125 4.25H1.125C1.125 3.52732 1.32946 3.091 1.58523 2.83523C1.841 2.57946 2.27732 2.375 3 2.375V1.375V0.375C1.89768 0.375 0.8965 0.695536 0.171018 1.42102C-0.554464 2.1465 -0.875 3.14768 -0.875 4.25H0.125ZM3 1.375V2.375H7V1.375V0.375H3V1.375ZM7 1.375V2.375C7.72268 2.375 8.159 2.57946 8.41477 2.83523C8.67054 3.091 8.875 3.52732 8.875 4.25H9.875H10.875C10.875 3.14768 10.5545 2.1465 9.82898 1.42102C9.1035 0.695536 8.10232 0.375 7 0.375V1.375ZM9.875 4.25H8.875V8.5H9.875H10.875V4.25H9.875ZM9.875 8.5H8.875C8.875 9.22268 8.67054 9.659 8.41477 9.91477C8.159 10.1705 7.72268 10.375 7 10.375V11.375V12.375C8.10232 12.375 9.1035 12.0545 9.82898 11.329C10.5545 10.6035 10.875 9.60232 10.875 8.5H9.875ZM3 2.125V1.125C2.13802 1.125 1.30387 1.33442 0.694143 1.94414C0.084418 2.55387 -0.125 3.38802 -0.125 4.25H0.875H1.875C1.875 3.68198 2.01308 3.45363 2.10836 3.35836C2.20363 3.26308 2.43198 3.125 3 3.125V2.125ZM0.875 4.25H-0.125V8.5H0.875H1.875V4.25H0.875ZM0.875 8.5H-0.125C-0.125 9.36198 0.084418 10.1961 0.694143 10.8059C1.30387 11.4156 2.13802 11.625 3 11.625V10.625V9.625C2.43198 9.625 2.20363 9.48692 2.10836 9.39164C2.01308 9.29637 1.875 9.06802 1.875 8.5H0.875ZM3 10.625V11.625H7V10.625V9.625H3V10.625ZM7 10.625V11.625C7.86198 11.625 8.69613 11.4156 9.30586 10.8059C9.91558 10.1961 10.125 9.36198 10.125 8.5H9.125H8.125C8.125 9.06802 7.98692 9.29637 7.89164 9.39164C7.79637 9.48692 7.56802 9.625 7 9.625V10.625ZM9.125 8.5H10.125V4.25H9.125H8.125V8.5H9.125ZM9.125 4.25H10.125C10.125 3.38802 9.91558 2.55387 9.30586 1.94414C8.69613 1.33442 7.86198 1.125 7 1.125V2.125V3.125C7.56802 3.125 7.79637 3.26308 7.89164 3.35836C7.98692 3.45363 8.125 3.68198 8.125 4.25H9.125ZM7 2.125V1.125H3V2.125V3.125H7V2.125ZM3.26163 7.875H4.26163C4.26163 7.53385 4.53265 7.26163 4.875 7.26163V6.26163V5.26163C3.42299 5.26163 2.26163 6.43438 2.26163 7.875H3.26163ZM3.13081 8.00581V9.00581C3.75535 9.00581 4.26163 8.49953 4.26163 7.875H3.26163H2.26163C2.26163 7.39496 2.65077 7.00581 3.13081 7.00581V8.00581ZM3 7.875H2C2 8.49953 2.50628 9.00581 3.13081 9.00581V8.00581V7.00581C3.61085 7.00581 4 7.39496 4 7.875H3ZM4.875 6V5C3.2777 5 2 6.29068 2 7.875H3H4C4 7.38992 4.38759 7 4.875 7V6ZM6.26715 6.51525L6.90774 5.74736C6.47612 5.3873 5.79258 5 4.875 5V6V7C5.19848 7 5.44429 7.13107 5.62657 7.28314L6.26715 6.51525ZM6.48837 6.72419L7.21818 6.04053C7.13172 5.94824 7.0284 5.84802 6.90774 5.74736L6.26715 6.51525L5.62657 7.28314C5.67733 7.32548 5.72145 7.36822 5.75857 7.40784L6.48837 6.72419ZM6.48837 6.22849H5.48837V6.72419H6.48837H7.48837V6.22849H6.48837ZM6.61919 6.09767V5.09767C5.99466 5.09767 5.48837 5.60396 5.48837 6.22849H6.48837H7.48837C7.48837 6.70853 7.09922 7.09767 6.61919 7.09767V6.09767ZM6.75 6.22849H7.75C7.75 5.60396 7.24372 5.09767 6.61919 5.09767V6.09767V7.09767C6.13914 7.09767 5.75 6.70852 5.75 6.22849H6.75ZM6.75 7.10058H7.75V6.22849H6.75H5.75V7.10058H6.75ZM6.61919 7.2314V8.2314C7.24372 8.2314 7.75 7.72511 7.75 7.10058H6.75H5.75C5.75 6.62054 6.13915 6.2314 6.61919 6.2314V7.2314ZM5.84477 7.2314V8.2314H6.61919V7.2314V6.2314H5.84477V7.2314ZM5.71395 7.10058H4.71395C4.71395 7.72512 5.22024 8.2314 5.84477 8.2314V7.2314V6.2314C6.3248 6.2314 6.71395 6.62054 6.71395 7.10058H5.71395ZM5.84477 6.96977V5.96977C5.22024 5.96977 4.71395 6.47605 4.71395 7.10058H5.71395H6.71395C6.71395 7.58062 6.32481 7.96977 5.84477 7.96977V6.96977ZM6.35743 6.96977V5.96977H5.84477V6.96977V7.96977H6.35743V6.96977ZM6.09956 6.71615L5.45898 7.48404C5.51729 7.53268 5.56482 7.58191 5.6003 7.62303L6.35743 6.96977L7.11456 6.3165C7.01984 6.20672 6.89537 6.07775 6.74014 5.94826L6.09956 6.71615ZM4.875 6.26163V7.26163C5.12108 7.26163 5.30962 7.35945 5.45898 7.48404L6.09956 6.71615L6.74014 5.94826C6.3409 5.6152 5.71461 5.26163 4.875 5.26163V6.26163ZM6.75 7.875H7.75C7.75 7.25047 7.24372 6.74419 6.61919 6.74419V7.74419V8.74419C6.13914 8.74419 5.75 8.35503 5.75 7.875H6.75ZM4.875 9.75V10.75C6.46232 10.75 7.75 9.46232 7.75 7.875H6.75H5.75C5.75 8.35775 5.35775 8.75 4.875 8.75V9.75ZM3.65078 9.2312L2.97895 9.9719C3.35288 10.3111 4.00071 10.75 4.875 10.75V9.75V8.75C4.69564 8.75 4.50799 8.65863 4.32261 8.49049L3.65078 9.2312ZM3.45523 9.03409L2.71018 9.7011C2.78618 9.78599 2.87583 9.87837 2.97895 9.9719L3.65078 9.2312L4.32261 8.49049C4.27727 8.44937 4.23625 8.40725 4.20029 8.36709L3.45523 9.03409ZM3.45523 9.52151H4.45523V9.03409H3.45523H2.45523V9.52151H3.45523ZM3.32442 9.65233V10.6523C3.94895 10.6523 4.45523 10.146 4.45523 9.52151H3.45523H2.45523C2.45523 9.04147 2.84438 8.65233 3.32442 8.65233V9.65233ZM3.1936 9.52151H2.1936C2.1936 10.146 2.69989 10.6523 3.32442 10.6523V9.65233V8.65233C3.80445 8.65233 4.1936 9.04147 4.1936 9.52151H3.1936ZM3.1936 8.64942H2.1936V9.52151H3.1936H4.1936V8.64942H3.1936ZM3.32442 8.51861V7.51861C2.69989 7.51861 2.1936 8.02489 2.1936 8.64942H3.1936H4.1936C4.1936 9.12946 3.80445 9.51861 3.32442 9.51861V8.51861ZM4.11279 8.51861V7.51861H3.32442V8.51861V9.51861H4.11279V8.51861ZM4.2436 8.64942H5.2436C5.2436 8.02489 4.73732 7.51861 4.11279 7.51861V8.51861V9.51861C3.63275 9.51861 3.2436 9.12946 3.2436 8.64942H4.2436ZM4.11279 8.78023V9.78023C4.73733 9.78023 5.2436 9.27394 5.2436 8.64942H4.2436H3.2436C3.2436 8.16939 3.63275 7.78023 4.11279 7.78023V8.78023ZM3.58205 8.78023V9.78023H4.11279V8.78023V7.78023H3.58205V8.78023ZM3.82655 9.03741L4.49838 8.2967C4.44151 8.24512 4.39265 8.19154 4.35435 8.14498L3.58205 8.78023L2.80975 9.41549C2.89731 9.52194 3.01259 9.6492 3.15472 9.77811L3.82655 9.03741ZM4.875 9.48837V8.48837C4.7861 8.48837 4.6586 8.44203 4.49838 8.2967L3.82655 9.03741L3.15472 9.77811C3.50437 10.0953 4.09197 10.4884 4.875 10.4884V9.48837ZM6.48837 7.875H5.48837C5.48837 8.21326 5.21326 8.48837 4.875 8.48837V9.48837V10.4884C6.31783 10.4884 7.48837 9.31783 7.48837 7.875H6.48837ZM6.61919 7.74419V6.74419C5.99466 6.74419 5.48837 7.25047 5.48837 7.875H6.48837H7.48837C7.48837 8.35504 7.09922 8.74419 6.61919 8.74419V7.74419Z" fill="currentColor" mask="url(#path-1-inside-1_20812_2183)"/>
</svg>
