<svg width="20" height="20" viewBox="0 0 20 20" fill="none" xmlns="http://www.w3.org/2000/svg">
<g id="side-nav/cards">
<g id="Vector">
<path d="M18.3721 7.62162H1.62791C1.28465 7.62162 1 7.32757 1 6.97297C1 6.61838 1.28465 6.32432 1.62791 6.32432H18.3721C18.7153 6.32432 19 6.61838 19 6.97297C19 7.32757 18.7153 7.62162 18.3721 7.62162Z" fill="#9CA3AF"/>
<path d="M6.65116 14.5405H4.97674C4.63349 14.5405 4.34884 14.2465 4.34884 13.8919C4.34884 13.5373 4.63349 13.2432 4.97674 13.2432H6.65116C6.99442 13.2432 7.27907 13.5373 7.27907 13.8919C7.27907 14.2465 6.99442 14.5405 6.65116 14.5405Z" fill="#9CA3AF"/>
<path d="M12.093 14.5405H8.74419C8.40093 14.5405 8.11628 14.2465 8.11628 13.8919C8.11628 13.5373 8.40093 13.2432 8.74419 13.2432H12.093C12.4363 13.2432 12.7209 13.5373 12.7209 13.8919C12.7209 14.2465 12.4363 14.5405 12.093 14.5405Z" fill="#9CA3AF"/>
<path d="M14.6549 18H5.34512C2.01302 18 1 16.9622 1 13.5546V6.44541C1 3.03784 2.01302 2 5.34512 2H14.6465C17.9786 2 18.9916 3.03784 18.9916 6.44541V13.5459C19 16.9622 17.987 18 14.6549 18ZM5.34512 3.2973C2.71628 3.2973 2.25581 3.76432 2.25581 6.44541V13.5459C2.25581 16.227 2.71628 16.6941 5.34512 16.6941H14.6465C17.2753 16.6941 17.7358 16.227 17.7358 13.5459V6.44541C17.7358 3.76432 17.2753 3.2973 14.6465 3.2973H5.34512Z" fill="#9CA3AF"/>
</g>
</g>
</svg>
