<svg width="18" height="16" viewBox="0 0 18 16" fill="none" xmlns="http://www.w3.org/2000/svg">
<g id="card">
<g id="Vector">
<path d="M17.3332 5.70866H0.666504C0.324837 5.70866 0.0415039 5.42533 0.0415039 5.08366C0.0415039 4.74199 0.324837 4.45866 0.666504 4.45866H17.3332C17.6748 4.45866 17.9582 4.74199 17.9582 5.08366C17.9582 5.42533 17.6748 5.70866 17.3332 5.70866Z" fill="currentColor"/>
<path d="M5.6665 12.3753H3.99984C3.65817 12.3753 3.37484 12.092 3.37484 11.7503C3.37484 11.4087 3.65817 11.1253 3.99984 11.1253H5.6665C6.00817 11.1253 6.2915 11.4087 6.2915 11.7503C6.2915 12.092 6.00817 12.3753 5.6665 12.3753Z" fill="currentColor"/>
<path d="M11.0832 12.3753H7.74984C7.40817 12.3753 7.12484 12.092 7.12484 11.7503C7.12484 11.4087 7.40817 11.1253 7.74984 11.1253H11.0832C11.4248 11.1253 11.7082 11.4087 11.7082 11.7503C11.7082 12.092 11.4248 12.3753 11.0832 12.3753Z" fill="currentColor"/>
<path d="M13.6332 15.7087H4.3665C1.04984 15.7087 0.0415039 14.7087 0.0415039 11.4253V4.57533C0.0415039 1.29199 1.04984 0.291992 4.3665 0.291992H13.6248C16.9415 0.291992 17.9498 1.29199 17.9498 4.57533V11.417C17.9582 14.7087 16.9498 15.7087 13.6332 15.7087ZM4.3665 1.54199C1.74984 1.54199 1.2915 1.99199 1.2915 4.57533V11.417C1.2915 14.0003 1.74984 14.4503 4.3665 14.4503H13.6248C16.2415 14.4503 16.6998 14.0003 16.6998 11.417V4.57533C16.6998 1.99199 16.2415 1.54199 13.6248 1.54199H4.3665Z" fill="currentColor"/>
</g>
</g>
</svg>
