<svg width="24" height="24" viewBox="0 0 40 40" fill="none" xmlns="http://www.w3.org/2000/svg">
  <path d="M26 18.75C25.59 18.75 25.25 18.41 25.25 18V16C25.25 12.85 24.36 10.75 20 10.75C15.64 10.75 14.75 12.85 14.75 16V18C14.75 18.41 14.41 18.75 14 18.75C13.59 18.75 13.25 18.41 13.25 18V16C13.25 13.1 13.95 9.25 20 9.25C26.05 9.25 26.75 13.1 26.75 16V18C26.75 18.41 26.41 18.75 26 18.75Z" fill="#9CA3AF"/>
  <path d="M25 30.75H15C10.59 30.75 9.25 29.41 9.25 25V23C9.25 18.59 10.59 17.25 15 17.25H25C29.41 17.25 30.75 18.59 30.75 23V25C30.75 29.41 29.41 30.75 25 30.75ZM15 18.75C11.42 18.75 10.75 19.43 10.75 23V25C10.75 28.57 11.42 29.25 15 29.25H25C28.58 29.25 29.25 28.57 29.25 25V23C29.25 19.43 28.58 18.75 25 18.75H15Z" fill="#9CA3AF"/>
  <path d="M16 25C15.87 25 15.74 24.97 15.62 24.92C15.49 24.87 15.39 24.8 15.29 24.71C15.11 24.52 15 24.27 15 24C15 23.87 15.03 23.74 15.08 23.62C15.13 23.49 15.2 23.39 15.29 23.29C15.39 23.2 15.49 23.13 15.62 23.08C15.98 22.92 16.43 23.01 16.71 23.29C16.8 23.39 16.87 23.5 16.92 23.62C16.97 23.74 17 23.87 17 24C17 24.26 16.89 24.52 16.71 24.71C16.52 24.89 16.26 25 16 25Z" fill="#9CA3AF"/>
  <path d="M20 25C19.74 25 19.48 24.89 19.29 24.71C19.11 24.52 19 24.27 19 24C19 23.87 19.02 23.74 19.08 23.62C19.13 23.5 19.2 23.39 19.29 23.29C19.52 23.06 19.87 22.95 20.19 23.02C20.26 23.03 20.32 23.05 20.38 23.08C20.44 23.1 20.5 23.13 20.56 23.17C20.61 23.2 20.66 23.25 20.71 23.29C20.8 23.39 20.87 23.5 20.92 23.62C20.97 23.74 21 23.87 21 24C21 24.27 20.89 24.52 20.71 24.71C20.66 24.75 20.61 24.79 20.56 24.83C20.5 24.87 20.44 24.9 20.38 24.92C20.32 24.95 20.26 24.97 20.19 24.98C20.13 24.99 20.06 25 20 25Z" fill="#9CA3AF"/>
  <path d="M24 25C23.73 25 23.48 24.89 23.29 24.71C23.2 24.61 23.13 24.5 23.08 24.38C23.03 24.26 23 24.13 23 24C23 23.74 23.11 23.48 23.29 23.29C23.34 23.25 23.39 23.21 23.44 23.17C23.5 23.13 23.56 23.1 23.62 23.08C23.68 23.05 23.74 23.03 23.8 23.02C24.13 22.95 24.47 23.06 24.71 23.29C24.89 23.48 25 23.73 25 24C25 24.13 24.97 24.26 24.92 24.38C24.87 24.51 24.8 24.61 24.71 24.71C24.52 24.89 24.26 25 24 25Z" fill="#9CA3AF"/>
</svg>
