<svg width="24" height="24" viewBox="0 0 40 40" fill="none" xmlns="http://www.w3.org/2000/svg">
  <path d="M26 18.75C25.59 18.75 25.25 18.41 25.25 18V16C25.25 12.85 24.36 10.75 20 10.75C15.64 10.75 14.75 12.85 14.75 16V18C14.75 18.41 14.41 18.75 14 18.75C13.59 18.75 13.25 18.41 13.25 18V16C13.25 13.1 13.95 9.25 20 9.25C26.05 9.25 26.75 13.1 26.75 16V18C26.75 18.41 26.41 18.75 26 18.75Z" fill="#00518D"/>
  <path d="M25 30.75H15C10.59 30.75 9.25 29.41 9.25 25V23C9.25 18.59 10.59 17.25 15 17.25H25C29.41 17.25 30.75 18.59 30.75 23V25C30.75 29.41 29.41 30.75 25 30.75Z" fill="#00518D"/>
  <circle cx="16" cy="24" r="1.5" fill="white"/>
  <circle cx="20" cy="24" r="1.5" fill="white"/>
  <circle cx="24" cy="24" r="1.5" fill="white"/>
</svg>
