<svg width="56" height="56" viewBox="0 0 56 56" fill="none" xmlns="http://www.w3.org/2000/svg">
  <path d="M0 28C0 12.536 12.536 0 28 0C43.464 0 56 12.536 56 28C56 43.464 43.464 56 28 56C12.536 56 0 43.464 0 28Z" fill="var(--color-icon-container-blue, #EFF6FF)" />
  <path d="M29.3337 42.3334H18.667C15.4403 42.3334 13.667 40.5601 13.667 37.3334V26.6667C13.667 23.4401 15.4403 21.6667 18.667 21.6667H25.3337C25.8803 21.6667 26.3337 22.1201 26.3337 22.6667V37.3334C26.3337 39.4401 27.227 40.3334 29.3337 40.3334C29.8803 40.3334 30.3337 40.7867 30.3337 41.3334C30.3337 41.8801 29.8803 42.3334 29.3337 42.3334ZM18.667 23.6667C16.5603 23.6667 15.667 24.5601 15.667 26.6667V37.3334C15.667 39.4401 16.5603 40.3334 18.667 40.3334H25.067C24.587 39.5467 24.3337 38.5467 24.3337 37.3334V23.6667H18.667Z" fill="var(--color-icon-brand, #00518D)"/>
  <path d="M25.3337 23.6666H18.667C18.1203 23.6666 17.667 23.2133 17.667 22.6666V19.9999C17.667 17.9733 19.307 16.3333 21.3337 16.3333H25.4803C25.787 16.3333 26.0803 16.4799 26.267 16.7199C26.4537 16.9732 26.5203 17.2933 26.4403 17.5866C26.3603 17.8799 26.3337 18.2133 26.3337 18.6666V22.6666C26.3337 23.2133 25.8803 23.6666 25.3337 23.6666ZM19.667 21.6666H24.3337V18.6666C24.3337 18.5466 24.3337 18.4399 24.3337 18.3333H21.3337C20.4137 18.3333 19.667 19.0799 19.667 19.9999V21.6666Z" fill="var(--color-icon-brand, #00518D)"/>
  <path d="M30.667 30.3334C30.1203 30.3334 29.667 29.8801 29.667 29.3334V22.6667C29.667 22.1201 30.1203 21.6667 30.667 21.6667C31.2137 21.6667 31.667 22.1201 31.667 22.6667V29.3334C31.667 29.8801 31.2137 30.3334 30.667 30.3334Z" fill="var(--color-icon-brand, #00518D)"/>
  <path d="M36 30.3334C35.4533 30.3334 35 29.8801 35 29.3334V22.6667C35 22.1201 35.4533 21.6667 36 21.6667C36.5467 21.6667 37 22.1201 37 22.6667V29.3334C37 29.8801 36.5467 30.3334 36 30.3334Z" fill="var(--color-icon-brand, #00518D)" />
  <path d="M36.0003 42.3334H30.667C30.1203 42.3334 29.667 41.8801 29.667 41.3334V36.0001C29.667 34.7201 30.7203 33.6667 32.0003 33.6667H34.667C35.947 33.6667 37.0003 34.7201 37.0003 36.0001V41.3334C37.0003 41.8801 36.547 42.3334 36.0003 42.3334ZM31.667 40.3334H35.0003V36.0001C35.0003 35.8134 34.8537 35.6667 34.667 35.6667H32.0003C31.8137 35.6667 31.667 35.8134 31.667 36.0001V40.3334Z" fill="var(--color-icon-brand, #00518D)"/>
  <path d="M20 35.6666C19.4533 35.6666 19 35.2133 19 34.6666V29.3333C19 28.7866 19.4533 28.3333 20 28.3333C20.5467 28.3333 21 28.7866 21 29.3333V34.6666C21 35.2133 20.5467 35.6666 20 35.6666Z" fill="var(--color-icon-brand, #00518D)"/>
  <path d="M37.333 42.3334H29.333C26.1063 42.3334 24.333 40.5601 24.333 37.3334V18.6667C24.333 15.4401 26.1063 13.6667 29.333 13.6667H37.333C40.5597 13.6667 42.333 15.4401 42.333 18.6667V37.3334C42.333 40.5601 40.5597 42.3334 37.333 42.3334ZM29.333 15.6667C27.2263 15.6667 26.333 16.5601 26.333 18.6667V37.3334C26.333 39.4401 27.2263 40.3334 29.333 40.3334H37.333C39.4397 40.3334 40.333 39.4401 40.333 37.3334V18.6667C40.333 16.5601 39.4397 15.6667 37.333 15.6667H29.333Z" fill="var(--color-icon-brand, #00518D)" />
</svg>
