<svg width="24" height="24" viewBox="0 0 24 24" fill="none" xmlns="http://www.w3.org/2000/svg">
<path d="M12 22C6.48372 22 2 17.5163 2 12C2 6.48372 6.48372 2 12 2C17.5163 2 22 6.48372 22 12C22 17.5163 17.5163 22 12 22ZM12 3.39535C7.25581 3.39535 3.39535 7.25581 3.39535 12C3.39535 16.7442 7.25581 20.6047 12 20.6047C16.7442 20.6047 20.6047 16.7442 20.6047 12C20.6047 7.25581 16.7442 3.39535 12 3.39535Z" fill="currentColor"/>
<path d="M10.6791 15.3302C10.493 15.3302 10.3163 15.2558 10.186 15.1256L7.55349 12.493C7.28372 12.2233 7.28372 11.7767 7.55349 11.507C7.82326 11.2372 8.26977 11.2372 8.53954 11.507L10.6791 13.6465L15.4605 8.86512C15.7302 8.59535 16.1767 8.59535 16.4465 8.86512C16.7163 9.13488 16.7163 9.5814 16.4465 9.85116L11.1721 15.1256C11.0419 15.2558 10.8651 15.3302 10.6791 15.3302Z" fill="currentColor"/>
</svg>
