<svg width="20" height="20" viewBox="0 0 20 20" fill="none" xmlns="http://www.w3.org/2000/svg">
<path d="M10 -6.10352e-05C4.49 -6.10352e-05 0 4.48994 0 9.99994C0 15.5099 4.49 19.9999 10 19.9999C15.51 19.9999 20 15.5099 20 9.99994C20 4.48994 15.51 -6.10352e-05 10 -6.10352e-05ZM14.78 7.69994L9.11 13.3699C8.97 13.5099 8.78 13.5899 8.58 13.5899C8.38 13.5899 8.19 13.5099 8.05 13.3699L5.22 10.5399C4.93 10.2499 4.93 9.76994 5.22 9.47994C5.51 9.18994 5.99 9.18994 6.28 9.47994L8.58 11.7799L13.72 6.63994C14.01 6.34994 14.49 6.34994 14.78 6.63994C15.07 6.92994 15.07 7.39994 14.78 7.69994Z" fill="var(--color-icon-success)"/>
</svg>
