<svg width="44" height="32" viewBox="0 0 44 32" fill="none" xmlns="http://www.w3.org/2000/svg">
<path fill-rule="evenodd" clip-rule="evenodd" d="M37.6275 26.8386H2.3252C1.04308 26.8386 0 25.7955 0 24.5134V3.53487C0 2.25275 1.04308 1.20967 2.3252 1.20967L37.6275 1.20947C38.9097 1.20947 39.9527 2.25255 39.9527 3.53477V24.5133C39.9527 25.7951 38.9096 26.8386 37.6275 26.8386Z" fill="#1F2937"/>
<path fill-rule="evenodd" clip-rule="evenodd" d="M35.9441 8.96018H4.05587C3.47254 8.96018 3 8.61794 3 8.19613V4.68446C3 4.26258 3.47254 3.92041 4.05587 3.92041H35.9441C36.5275 3.92041 37 4.26258 37 4.68446V8.19621C37 8.61794 36.5274 8.96018 35.9441 8.96018Z" fill="#374151"/>
<path fill-rule="evenodd" clip-rule="evenodd" d="M22.9773 16.0159H4.02271C3.458 16.0159 3 15.5648 3 15.0079C3 14.4511 3.458 14 4.02271 14H22.9773C23.5424 14 24 14.4511 24 15.0079C24 15.5648 23.542 16.0159 22.9773 16.0159Z" fill="#1370B6"/>
<path fill-rule="evenodd" clip-rule="evenodd" d="M22.9773 16.0159H4.02271C3.458 16.0159 3 15.5648 3 15.0079C3 14.4511 3.458 14 4.02271 14H22.9773C23.5424 14 24 14.4511 24 15.0079C24 15.5648 23.542 16.0159 22.9773 16.0159Z" fill="url(#paint0_linear_10589_35718)" fill-opacity="0.25"/>
<path fill-rule="evenodd" clip-rule="evenodd" d="M18.2208 19.5437H3.77921C3.34896 19.5437 3 19.2054 3 18.7877C3 18.37 3.34896 18.0317 3.77921 18.0317H18.2208C18.6514 18.0317 19 18.37 19 18.7877C19 19.2054 18.651 19.5437 18.2208 19.5437Z" fill="#1370B6"/>
<path fill-rule="evenodd" clip-rule="evenodd" d="M18.2208 19.5437H3.77921C3.34896 19.5437 3 19.2054 3 18.7877C3 18.37 3.34896 18.0317 3.77921 18.0317H18.2208C18.6514 18.0317 19 18.37 19 18.7877C19 19.2054 18.651 19.5437 18.2208 19.5437Z" fill="url(#paint1_linear_10589_35718)" fill-opacity="0.25"/>
<path d="M28 23.3965C28 19.2543 31.3579 15.8965 35.5 15.8965C39.6421 15.8965 43 19.2543 43 23.3965C43 27.5386 39.6421 30.8965 35.5 30.8965C31.3579 30.8965 28 27.5386 28 23.3965Z" fill="#310707"/>
<path d="M28 23.3965C28 19.2543 31.3579 15.8965 35.5 15.8965C39.6421 15.8965 43 19.2543 43 23.3965C43 27.5386 39.6421 30.8965 35.5 30.8965C31.3579 30.8965 28 27.5386 28 23.3965Z" stroke="#374151"/>
<path d="M33.8323 25.2004C33.7294 25.2004 33.6265 25.1625 33.5452 25.0812C33.3882 24.9241 33.3882 24.6641 33.5452 24.5071L36.6111 21.4412C36.7682 21.2841 37.0282 21.2841 37.1852 21.4412C37.3423 21.5983 37.3423 21.8583 37.1852 22.0154L34.1194 25.0812C34.0436 25.1625 33.9352 25.2004 33.8323 25.2004Z" fill="#F87171"/>
<path fill-rule="evenodd" clip-rule="evenodd" d="M31.828 19.724C31.9866 19.5653 32.2438 19.5653 32.4025 19.724L35.3652 22.6867L38.328 19.724C38.4866 19.5653 38.7438 19.5653 38.9025 19.724C39.0611 19.8826 39.0611 20.1398 38.9025 20.2985L35.9398 23.2612L38.9025 26.224C39.0611 26.3826 39.0611 26.6398 38.9025 26.7985C38.7438 26.9571 38.4866 26.9571 38.328 26.7985L35.3652 23.8358L32.4025 26.7985C32.2438 26.9571 31.9866 26.9571 31.828 26.7985C31.6693 26.6398 31.6693 26.3826 31.828 26.224L34.7907 23.2612L31.828 20.2985C31.6693 20.1398 31.6693 19.8826 31.828 19.724Z" fill="#F87171"/>
<defs>
<linearGradient id="paint0_linear_10589_35718" x1="13.5" y1="14" x2="13.5" y2="16.0159" gradientUnits="userSpaceOnUse">
<stop offset="0.07" stop-color="#F1F9FE"/>
<stop offset="1" stop-color="white" stop-opacity="0"/>
</linearGradient>
<linearGradient id="paint1_linear_10589_35718" x1="11" y1="18.0317" x2="11" y2="19.5437" gradientUnits="userSpaceOnUse">
<stop offset="0.07" stop-color="#F1F9FE"/>
<stop offset="1" stop-color="white" stop-opacity="0"/>
</linearGradient>
</defs>
</svg>
