<svg width="41" height="40" viewBox="0 0 41 40" fill="none" xmlns="http://www.w3.org/2000/svg">
<path d="M0.333344 18C0.333344 12.4087 0.333344 9.61305 1.24679 7.4078C2.46472 4.46746 4.80081 2.13137 7.74114 0.913446C9.94639 0 12.742 0 18.3333 0H22.3333C27.9246 0 30.7203 0 32.9255 0.913446C35.8659 2.13137 38.202 4.46746 39.4199 7.4078C40.3333 9.61305 40.3333 12.4087 40.3333 18V22C40.3333 27.5913 40.3333 30.3869 39.4199 32.5922C38.202 35.5325 35.8659 37.8686 32.9255 39.0866C30.7203 40 27.9246 40 22.3333 40H18.3333C12.742 40 9.94639 40 7.74114 39.0866C4.80081 37.8686 2.46472 35.5325 1.24679 32.5922C0.333344 30.3869 0.333344 27.5913 0.333344 22V18Z" fill="var(--color-bg-info-tint)"/>
<path fill-rule="evenodd" clip-rule="evenodd" d="M24.6745 11.7847C24.6745 11.7848 24.6746 11.7846 24.6745 11.7847L16.9062 19.5585C16.8589 19.6058 16.8327 19.6692 16.8327 19.7354V21.0004H18.0977C18.1619 21.0004 18.2262 20.9747 18.2753 20.9261C18.2752 20.9262 18.2754 20.9259 18.2753 20.9261L26.0478 13.158C26.4268 12.7789 26.4268 12.1638 26.0478 11.7847C25.6693 11.4057 25.0541 11.4053 24.6745 11.7847ZM27.1087 10.7244C26.1433 9.75752 24.5783 9.75965 23.6139 10.724L15.8455 18.498C15.8454 18.4981 15.8455 18.498 15.8455 18.498C15.5169 18.8267 15.3329 19.2716 15.3329 19.7354V21.7504C15.3329 22.1646 15.6686 22.5004 16.0828 22.5004H18.0977C18.5632 22.5004 19.0066 22.3142 19.3335 21.9891L19.3347 21.9879L27.1082 14.2189C28.0729 13.2541 28.0732 11.6894 27.1087 10.7244Z" fill="#00518D"/>
<path opacity="0.4" fill-rule="evenodd" clip-rule="evenodd" d="M22.3323 21.75C22.3323 21.3358 22.6681 21 23.0823 21H25.0821C25.4963 21 25.8321 21.3358 25.8321 21.75C25.8321 22.1642 25.4963 22.5 25.0821 22.5H23.0823C22.6681 22.5 22.3323 22.1642 22.3323 21.75Z" fill="#00518D"/>
<path opacity="0.4" fill-rule="evenodd" clip-rule="evenodd" d="M14.3329 25.75C14.3329 25.3358 14.6687 25 15.0829 25H25.0822C25.4963 25 25.8321 25.3358 25.8321 25.75C25.8321 26.1642 25.4963 26.5 25.0822 26.5H15.0829C14.6687 26.5 14.3329 26.1642 14.3329 25.75Z" fill="#00518D"/>
<path fill-rule="evenodd" clip-rule="evenodd" d="M13.0831 19.5C12.3924 19.5 11.8332 20.0592 11.8332 20.75V27.75C11.8332 28.4408 12.3924 29 13.0831 29H27.0821C27.7729 29 28.3321 28.4408 28.3321 27.75V20.75C28.3321 20.0592 27.7729 19.5 27.0821 19.5C26.668 19.5 26.3322 19.1642 26.3322 18.75C26.3322 18.3358 26.668 18 27.0821 18C28.6013 18 29.832 19.2308 29.832 20.75V27.75C29.832 29.2692 28.6013 30.5 27.0821 30.5H13.0831C11.564 30.5 10.3333 29.2692 10.3333 27.75V20.75C10.3333 19.2308 11.564 18 13.0831 18V19.5Z" fill="#00518D"/>
<path fill-rule="evenodd" clip-rule="evenodd" d="M21.6221 12.7197C21.9149 12.4268 22.3898 12.4268 22.6826 12.7197L25.1125 15.1497C25.4053 15.4426 25.4053 15.9174 25.1125 16.2103C24.8196 16.5032 24.3448 16.5032 24.0519 16.2103L21.6221 13.7803C21.3292 13.4874 21.3292 13.0126 21.6221 12.7197Z" fill="#00518D"/>
<path fill-rule="evenodd" clip-rule="evenodd" d="M20.9773 12.7064C20.7948 12.5245 20.5005 12.5255 20.3198 12.7061L18.6789 14.3471C18.386 14.64 17.9112 14.64 17.6183 14.3471C17.3255 14.0542 17.3255 13.5794 17.6183 13.2865L19.2592 11.6455C20.0264 10.8783 21.2697 10.8791 22.0371 11.6449C22.8043 12.4121 22.804 13.6561 22.0382 14.4236L20.8968 15.5651C20.6039 15.858 20.1291 15.858 19.8362 15.5651C19.5433 15.2722 19.5433 14.7974 19.8362 14.5045L20.9765 13.364C20.9765 13.3641 20.9766 13.364 20.9765 13.364C21.1584 13.1816 21.1578 12.8871 20.9773 12.7064Z" fill="#00518D"/>
</svg>
