<svg width="20" height="20" viewBox="0 0 20 20" fill="none" xmlns="http://www.w3.org/2000/svg">
<path d="M14.4835 1.38098C13.3238 0.221252 12.1879 0.191362 10.9983 1.38098L10.275 2.10431C10.2152 2.16409 10.1913 2.25974 10.2152 2.34343C10.6695 3.92759 11.9369 5.19492 13.521 5.64925C13.5449 5.65522 13.5689 5.6612 13.5928 5.6612C13.6585 5.6612 13.7183 5.63729 13.7661 5.58947L14.4835 4.86613C15.0753 4.28029 15.3623 3.71238 15.3623 3.1385C15.3682 2.54668 15.0813 1.9728 14.4835 1.38098Z" fill="#00518D"/>
<path d="M12.4447 6.19328C12.2713 6.10959 12.1039 6.0259 11.9425 5.93025C11.811 5.85254 11.6855 5.76885 11.5599 5.67918C11.4583 5.61342 11.3388 5.51777 11.2252 5.42213C11.2132 5.41615 11.1714 5.38028 11.1235 5.33246C10.9263 5.16507 10.7051 4.94987 10.5078 4.71075C10.4899 4.69879 10.46 4.65695 10.4181 4.60315C10.3584 4.53141 10.2567 4.41185 10.1671 4.27436C10.0953 4.18469 10.0116 4.05317 9.93393 3.92166C9.83828 3.76025 9.75459 3.59885 9.6709 3.43146C9.66734 3.42385 9.66382 3.41624 9.66033 3.40864C9.55687 3.18355 9.26202 3.11701 9.08685 3.29218L5.7075 6.67152C5.62979 6.74924 5.55805 6.89868 5.54012 7.00031L5.21731 9.28987C5.15753 9.69637 5.27111 10.079 5.52219 10.336C5.73739 10.5452 6.03629 10.6588 6.3591 10.6588C6.43084 10.6588 6.50257 10.6528 6.57431 10.6409L8.86985 10.3181C8.97745 10.3001 9.1269 10.2284 9.19864 10.1507L12.5731 6.77622C12.7495 6.59983 12.6832 6.29645 12.4543 6.19743C12.4511 6.19605 12.4479 6.19467 12.4447 6.19328Z" fill="#00518D"/>
<path d="M16.4912 7.08203C18.0499 7.08203 19.3135 8.34559 19.3135 9.9043V15.2217C19.3135 17.5842 17.3986 19.4998 15.0361 19.5H4.96484C2.60217 19.5 0.686523 17.5844 0.686523 15.2217V8.49316C0.686523 7.71381 1.31831 7.08204 2.09766 7.08203C2.87701 7.08203 3.50879 7.71381 3.50879 8.49316V9.61426C3.50893 11.0262 4.66435 12.1649 6.07617 12.1455L8.60352 12.1113C9.27567 12.1112 9.91678 11.8283 10.3701 11.332L12.9756 8.47852C13.7776 7.60019 14.9093 7.09505 16.0986 7.08496L16.4912 7.08203ZM4.7793 15.5488C4.39374 15.5488 4.07349 15.8684 4.07324 16.2539C4.07324 16.6396 4.39358 16.96 4.7793 16.96H15.6914C16.0771 16.96 16.3975 16.6396 16.3975 16.2539C16.3972 15.8684 16.077 15.5488 15.6914 15.5488H4.7793ZM12.6816 12.1621C12.2961 12.1621 11.9758 12.4817 11.9756 12.8672C11.9756 13.2529 12.2959 13.5732 12.6816 13.5732H15.6914C16.0771 13.5732 16.3975 13.2529 16.3975 12.8672C16.3972 12.4817 16.077 12.1621 15.6914 12.1621H12.6816Z" fill="#00518D"/>
</svg>
