<svg width="44" height="32" viewBox="0 0 44 32" fill="none" xmlns="http://www.w3.org/2000/svg">
<path fill-rule="evenodd" clip-rule="evenodd" d="M37.6275 26.8386H2.3252C1.04308 26.8386 0 25.7955 0 24.5134V3.53487C0 2.25275 1.04308 1.20967 2.3252 1.20967L37.6275 1.20947C38.9097 1.20947 39.9527 2.25255 39.9527 3.53477V24.5133C39.9527 25.7951 38.9096 26.8386 37.6275 26.8386Z" fill="#F3F4F6"/>
<path fill-rule="evenodd" clip-rule="evenodd" d="M35.9441 8.96018H4.05587C3.47254 8.96018 3 8.61794 3 8.19613V4.68446C3 4.26258 3.47254 3.92041 4.05587 3.92041H35.9441C36.5275 3.92041 37 4.26258 37 4.68446V8.19621C37 8.61794 36.5274 8.96018 35.9441 8.96018Z" fill="#E5E7EB"/>
<path fill-rule="evenodd" clip-rule="evenodd" d="M22.9773 16.0159H4.02271C3.458 16.0159 3 15.5648 3 15.0079C3 14.4511 3.458 14 4.02271 14H22.9773C23.5424 14 24 14.4511 24 15.0079C24 15.5648 23.542 16.0159 22.9773 16.0159Z" fill="#00518D"/>
<path fill-rule="evenodd" clip-rule="evenodd" d="M22.9773 16.0159H4.02271C3.458 16.0159 3 15.5648 3 15.0079C3 14.4511 3.458 14 4.02271 14H22.9773C23.5424 14 24 14.4511 24 15.0079C24 15.5648 23.542 16.0159 22.9773 16.0159Z" fill="url(#paint0_linear_10480_10158)" fill-opacity="0.25"/>
<path fill-rule="evenodd" clip-rule="evenodd" d="M18.2208 19.5437H3.77921C3.34896 19.5437 3 19.2054 3 18.7877C3 18.37 3.34896 18.0317 3.77921 18.0317H18.2208C18.6514 18.0317 19 18.37 19 18.7877C19 19.2054 18.651 19.5437 18.2208 19.5437Z" fill="#00518D"/>
<path fill-rule="evenodd" clip-rule="evenodd" d="M18.2208 19.5437H3.77921C3.34896 19.5437 3 19.2054 3 18.7877C3 18.37 3.34896 18.0317 3.77921 18.0317H18.2208C18.6514 18.0317 19 18.37 19 18.7877C19 19.2054 18.651 19.5437 18.2208 19.5437Z" fill="url(#paint1_linear_10480_10158)" fill-opacity="0.25"/>
<path d="M28 23.3965C28 19.2543 31.3579 15.8965 35.5 15.8965C39.6421 15.8965 43 19.2543 43 23.3965C43 27.5386 39.6421 30.8965 35.5 30.8965C31.3579 30.8965 28 27.5386 28 23.3965Z" fill="#FFFBEB"/>
<path d="M28 23.3965C28 19.2543 31.3579 15.8965 35.5 15.8965C39.6421 15.8965 43 19.2543 43 23.3965C43 27.5386 39.6421 30.8965 35.5 30.8965C31.3579 30.8965 28 27.5386 28 23.3965Z" stroke="white"/>
<path fill-rule="evenodd" clip-rule="evenodd" d="M32.7551 18.4789C33.072 18.2618 33.4838 18.1465 33.9773 18.1465H37.0234C37.517 18.1465 37.9288 18.2618 38.2457 18.4789C38.5657 18.6981 38.7696 19.0084 38.8593 19.3554C39.0359 20.0384 38.7647 20.8109 38.2098 21.3334L36.0246 23.3965L38.2098 25.4595C38.7645 25.9821 39.0359 26.7546 38.8593 27.4375C38.7696 27.7845 38.5657 28.0948 38.2457 28.314C37.9288 28.5311 37.517 28.6465 37.0234 28.6465H33.9773C33.4838 28.6465 33.072 28.5311 32.7551 28.314C32.435 28.0948 32.2312 27.7845 32.1414 27.4375C31.9649 26.7547 32.236 25.9824 32.7907 25.4598L34.9762 23.3965L32.791 21.3335C32.2362 20.8109 31.9649 20.0383 32.1414 19.3554C32.2312 19.0084 32.435 18.6981 32.7551 18.4789ZM35.5004 22.9016L37.7359 20.791C38.1352 20.4149 38.2733 19.9125 38.1784 19.5455C38.1323 19.3675 38.0304 19.2089 37.8576 19.0905C37.6817 18.97 37.4136 18.879 37.0234 18.879H33.9773C33.5872 18.879 33.3191 18.97 33.1432 19.0905C32.9704 19.2089 32.8684 19.3675 32.8224 19.5455C32.7275 19.9125 32.8652 20.4146 33.2646 20.7907L35.5004 22.9016ZM35.5004 23.8914L33.2649 26.002C32.8656 26.378 32.7275 26.8805 32.8224 27.2475C32.8684 27.4255 32.9704 27.5841 33.1432 27.7024C33.3191 27.8229 33.5872 27.9139 33.9773 27.9139H37.0234C37.4136 27.9139 37.6817 27.8229 37.8576 27.7024C38.0304 27.5841 38.1323 27.4255 38.1784 27.2475C38.2733 26.8805 38.1356 26.3784 37.7362 26.0023L35.5004 23.8914Z" fill="#D97706"/>
<defs>
<linearGradient id="paint0_linear_10480_10158" x1="13.5" y1="14" x2="13.5" y2="16.0159" gradientUnits="userSpaceOnUse">
<stop offset="0.07" stop-color="#F1F9FE"/>
<stop offset="1" stop-color="white" stop-opacity="0"/>
</linearGradient>
<linearGradient id="paint1_linear_10480_10158" x1="11" y1="18.0317" x2="11" y2="19.5437" gradientUnits="userSpaceOnUse">
<stop offset="0.07" stop-color="#F1F9FE"/>
<stop offset="1" stop-color="white" stop-opacity="0"/>
</linearGradient>
</defs>
</svg>
