<svg width="24" height="24" viewBox="0 0 24 24" fill="none" xmlns="http://www.w3.org/2000/svg">
<path fill-rule="evenodd" clip-rule="evenodd" d="M16.3423 3.78471C16.3423 3.78476 16.3424 3.78465 16.3423 3.78471L8.5735 11.5585C8.52619 11.6058 8.5 11.6692 8.5 11.7354V13.0004H9.765C9.82925 13.0004 9.89358 12.9747 9.94265 12.9261C9.94251 12.9262 9.9428 12.9259 9.94265 12.9261L17.7157 5.15804C18.0948 4.77894 18.0948 4.16381 17.7157 3.78471C17.3372 3.40568 16.722 3.40527 16.3423 3.78471ZM18.7767 2.72444C17.8112 1.75752 16.2461 1.75965 15.2817 2.72404L7.51267 10.498C7.51261 10.4981 7.51273 10.498 7.51267 10.498C7.18408 10.8267 7 11.2716 7 11.7354V13.7504C7 14.1646 7.33579 14.5004 7.75 14.5004H9.765C10.2306 14.5004 10.674 14.3142 11.0009 13.9891L11.0022 13.9879L18.7762 6.21888C19.7409 5.25411 19.7412 3.68936 18.7767 2.72444Z" fill="#1F2937"/>
<path opacity="0.4" fill-rule="evenodd" clip-rule="evenodd" d="M14 13.7504C14 13.3362 14.3358 13.0004 14.75 13.0004H16.75C17.1642 13.0004 17.5 13.3362 17.5 13.7504C17.5 14.1646 17.1642 14.5004 16.75 14.5004H14.75C14.3358 14.5004 14 14.1646 14 13.7504Z" fill="#1F2937"/>
<path opacity="0.4" fill-rule="evenodd" clip-rule="evenodd" d="M6 17.7504C6 17.3362 6.33579 17.0004 6.75 17.0004H16.75C17.1642 17.0004 17.5 17.3362 17.5 17.7504C17.5 18.1646 17.1642 18.5004 16.75 18.5004H6.75C6.33579 18.5004 6 18.1646 6 17.7504Z" fill="#1F2937"/>
<path fill-rule="evenodd" clip-rule="evenodd" d="M4.75 11.5004C4.05921 11.5004 3.5 12.0596 3.5 12.7504V19.7504C3.5 20.4412 4.05921 21.0004 4.75 21.0004H18.75C19.4408 21.0004 20 20.4412 20 19.7504V12.7504C20 12.0596 19.4408 11.5004 18.75 11.5004C18.3358 11.5004 18 11.1646 18 10.7504C18 10.3362 18.3358 10.0004 18.75 10.0004C20.2692 10.0004 21.5 11.2312 21.5 12.7504V19.7504C21.5 21.2696 20.2692 22.5004 18.75 22.5004H4.75C3.23079 22.5004 2 21.2696 2 19.7504V12.7504C2 11.2312 3.23079 10.0004 4.75 10.0004V11.5004Z" fill="#1F2937"/>
<path fill-rule="evenodd" clip-rule="evenodd" d="M13.2896 4.72004C13.5825 4.42714 14.0574 4.42714 14.3503 4.72004L16.7803 7.15004C17.0732 7.44293 17.0732 7.9178 16.7803 8.2107C16.4874 8.50359 16.0125 8.50359 15.7196 8.2107L13.2896 5.7807C12.9967 5.4878 12.9967 5.01293 13.2896 4.72004Z" fill="#1F2937"/>
<path fill-rule="evenodd" clip-rule="evenodd" d="M12.6449 4.70595C12.4624 4.52412 12.1681 4.52502 11.9874 4.70572L10.3464 6.34672C10.0535 6.63961 9.5786 6.63961 9.28571 6.34672C8.99282 6.05382 8.99282 5.57895 9.28571 5.28606L10.9267 3.64506C11.6939 2.87785 12.9374 2.87866 13.7048 3.6445C14.472 4.4117 14.4718 5.6557 13.7059 6.42316L12.5644 7.56472C12.2715 7.85761 11.7966 7.85761 11.5037 7.56472C11.2108 7.27182 11.2108 6.79695 11.5037 6.50406L12.6442 5.36361C12.6441 5.3637 12.6442 5.36353 12.6442 5.36361C12.826 5.18113 12.8254 4.88668 12.6449 4.70595Z" fill="#1F2937"/>
</svg>
