<svg width="24" height="24" viewBox="0 0 24 24" fill="currentColor" xmlns="http://www.w3.org/2000/svg">
<path fill-rule="evenodd" clip-rule="evenodd" d="M4.12124 4.3388C3.64543 4.86341 3.39535 5.84066 3.39535 7.89744V16.1026C3.39535 18.1593 3.64543 19.1366 4.12124 19.6612C4.59705 20.1858 5.48339 20.4615 7.34884 20.4615H16.6512C18.5166 20.4615 19.403 20.1858 19.8788 19.6612C20.3546 19.1366 20.6047 18.1593 20.6047 16.1026V7.89744C20.6047 5.84066 20.3546 4.86341 19.8788 4.3388C19.403 3.81419 18.5166 3.53846 16.6512 3.53846H7.34884C5.48339 3.53846 4.59705 3.81419 4.12124 4.3388ZM3.13458 3.25094C4.05412 2.23709 5.49336 2 7.34884 2H16.6512C18.5066 2 19.9459 2.23709 20.8654 3.25094C21.785 4.2648 22 5.85165 22 7.89744V16.1026C22 18.1483 21.785 19.7352 20.8654 20.7491C19.9459 21.7629 18.5066 22 16.6512 22H7.34884C5.49336 22 4.05412 21.7629 3.13458 20.7491C2.21504 19.7352 2 18.1483 2 16.1026V7.89744C2 5.85165 2.21504 4.2648 3.13458 3.25094Z" fill="currentColor"/>
<path fill-rule="evenodd" clip-rule="evenodd" d="M5.72093 7.89744C5.72093 7.4726 6.03329 7.12821 6.4186 7.12821H15.7209C16.1062 7.12821 16.4186 7.4726 16.4186 7.89744C16.4186 8.32227 16.1062 8.66667 15.7209 8.66667H6.4186C6.03329 8.66667 5.72093 8.32227 5.72093 7.89744Z" fill="currentColor"/>
<path fill-rule="evenodd" clip-rule="evenodd" d="M5.72093 12C5.72093 11.5752 6.03329 11.2308 6.4186 11.2308H13.8605C14.2458 11.2308 14.5581 11.5752 14.5581 12C14.5581 12.4248 14.2458 12.7692 13.8605 12.7692H6.4186C6.03329 12.7692 5.72093 12.4248 5.72093 12Z" fill="currentColor"/>
<path fill-rule="evenodd" clip-rule="evenodd" d="M5.72093 16.1026C5.72093 15.6777 6.03329 15.3333 6.4186 15.3333H10.1395C10.5248 15.3333 10.8372 15.6777 10.8372 16.1026C10.8372 16.5274 10.5248 16.8718 10.1395 16.8718H6.4186C6.03329 16.8718 5.72093 16.5274 5.72093 16.1026Z" fill="currentColor"/>
</svg>
