<svg width="20" height="21" viewBox="0 0 20 21" fill="none" xmlns="http://www.w3.org/2000/svg">
<path d="M6.65341 10.6599C6.31089 10.6599 5.99083 10.542 5.76061 10.323C5.46862 10.0478 5.32824 9.63232 5.37878 9.18311L5.58654 7.36381C5.62584 7.02129 5.8336 6.56646 6.07505 6.3194L10.6851 1.43985C11.8362 0.221366 13.0378 0.187675 14.2563 1.33878C15.4748 2.48988 15.5085 3.69152 14.3574 4.91L9.74735 9.78955C9.51151 10.0422 9.07353 10.2781 8.73101 10.3342L6.92294 10.643C6.82748 10.6487 6.74325 10.6599 6.65341 10.6599ZM12.4875 1.33316C12.0552 1.33316 11.6789 1.60269 11.2971 2.00698L6.6871 6.89214C6.5748 7.01006 6.44565 7.29082 6.42319 7.45365L6.21543 9.27296C6.19297 9.45825 6.23789 9.60986 6.33896 9.70532C6.44004 9.80078 6.59165 9.83447 6.77694 9.80639L8.58501 9.49756C8.74785 9.46949 9.01738 9.32349 9.12968 9.20557L13.7397 4.32603C14.436 3.58483 14.6887 2.89978 13.6723 1.94521C13.2231 1.51285 12.8357 1.33316 12.4875 1.33316Z" fill="#9CA3AF"/>
<path d="M13.2793 5.84773C13.268 5.84773 13.2512 5.84773 13.24 5.84773C11.488 5.67366 10.0786 4.34287 9.80911 2.60218C9.77542 2.37196 9.93264 2.15859 10.1629 2.11928C10.3931 2.08559 10.6065 2.24281 10.6458 2.47303C10.8591 3.83189 11.9597 4.87631 13.3298 5.01107C13.56 5.03353 13.7285 5.24129 13.706 5.47151C13.6779 5.68489 13.4926 5.84773 13.2793 5.84773Z" fill="#9CA3AF"/>
<path d="M6.65341 10.6599C6.31089 10.6599 5.99083 10.542 5.76061 10.323C5.46862 10.0478 5.32824 9.63232 5.37878 9.18311L5.58654 7.36381C5.62584 7.02129 5.8336 6.56646 6.07505 6.3194L10.6851 1.43985C11.8362 0.221366 13.0378 0.187675 14.2563 1.33878C15.4748 2.48988 15.5085 3.69152 14.3574 4.91L9.74735 9.78955C9.51151 10.0422 9.07353 10.2781 8.73101 10.3342L6.92294 10.643C6.82748 10.6487 6.74325 10.6599 6.65341 10.6599ZM12.4875 1.33316C12.0552 1.33316 11.6789 1.60269 11.2971 2.00698L6.6871 6.89214C6.5748 7.01006 6.44565 7.29082 6.42319 7.45365L6.21543 9.27296C6.19297 9.45825 6.23789 9.60986 6.33896 9.70532C6.44004 9.80078 6.59165 9.83447 6.77694 9.80639L8.58501 9.49756C8.74785 9.46949 9.01738 9.32349 9.12968 9.20557L13.7397 4.32603C14.436 3.58483 14.6887 2.89978 13.6723 1.94521C13.2231 1.51285 12.8357 1.33316 12.4875 1.33316Z" stroke="#9CA3AF" stroke-width="0.427785"/>
<path d="M13.2793 5.84773C13.268 5.84773 13.2512 5.84773 13.24 5.84773C11.488 5.67366 10.0786 4.34287 9.80911 2.60218C9.77542 2.37196 9.93264 2.15859 10.1629 2.11928C10.3931 2.08559 10.6065 2.24281 10.6458 2.47303C10.8591 3.83189 11.9597 4.87631 13.3298 5.01107C13.56 5.03353 13.7285 5.24129 13.706 5.47151C13.6779 5.68489 13.4926 5.84773 13.2793 5.84773Z" stroke="#9CA3AF" stroke-width="0.427785"/>
<path d="M15.6917 15.8311H4.77928C4.39358 15.8311 4.07373 15.5113 4.07373 15.1256C4.07373 14.7399 4.39358 14.42 4.77928 14.42H15.6917C16.0774 14.42 16.3973 14.7399 16.3973 15.1256C16.3973 15.5113 16.0774 15.8311 15.6917 15.8311Z" fill="#9CA3AF" stroke="#9CA3AF" stroke-width="0.106946"/>
<path d="M15.692 11.3156H12.6816C12.2959 11.3156 11.9761 10.9958 11.9761 10.6101C11.9761 10.2244 12.2959 9.90454 12.6816 9.90454H15.692C16.0777 9.90454 16.3975 10.2244 16.3975 10.6101C16.3975 10.9958 16.0777 11.3156 15.692 11.3156Z" fill="#9CA3AF" stroke="#9CA3AF" stroke-width="0.106946"/>
<path d="M3.5092 7.08234V7.08234C1.95055 7.08234 0.687012 8.34587 0.687012 9.90453V15.2221C0.687012 17.5847 2.60227 19.5 4.96486 19.5H15.0356C17.3982 19.5 19.3135 17.5847 19.3135 15.2221V9.90453C19.3135 8.34588 18.0499 7.08234 16.4913 7.08234V7.08234" stroke="#9CA3AF" stroke-width="1.3903" stroke-linecap="round"/>
</svg>
