<svg width="44" height="32" viewBox="0 0 44 32" fill="none" xmlns="http://www.w3.org/2000/svg">
<path fill-rule="evenodd" clip-rule="evenodd" d="M37.6275 26.8386H2.3252C1.04308 26.8386 0 25.7955 0 24.5134V3.53487C0 2.25275 1.04308 1.20967 2.3252 1.20967L37.6275 1.20947C38.9097 1.20947 39.9527 2.25255 39.9527 3.53477V24.5133C39.9527 25.7951 38.9096 26.8386 37.6275 26.8386Z" fill="#1F2937"/>
<path fill-rule="evenodd" clip-rule="evenodd" d="M35.9441 8.96018H4.05587C3.47254 8.96018 3 8.61794 3 8.19613V4.68446C3 4.26258 3.47254 3.92041 4.05587 3.92041H35.9441C36.5275 3.92041 37 4.26258 37 4.68446V8.19621C37 8.61794 36.5274 8.96018 35.9441 8.96018Z" fill="#374151"/>
<path fill-rule="evenodd" clip-rule="evenodd" d="M22.9773 16.0159H4.02271C3.458 16.0159 3 15.5648 3 15.0079C3 14.4511 3.458 14 4.02271 14H22.9773C23.5424 14 24 14.4511 24 15.0079C24 15.5648 23.542 16.0159 22.9773 16.0159Z" fill="#1370B6"/>
<path fill-rule="evenodd" clip-rule="evenodd" d="M22.9773 16.0159H4.02271C3.458 16.0159 3 15.5648 3 15.0079C3 14.4511 3.458 14 4.02271 14H22.9773C23.5424 14 24 14.4511 24 15.0079C24 15.5648 23.542 16.0159 22.9773 16.0159Z" fill="url(#paint0_linear_10589_5214)" fill-opacity="0.25"/>
<path fill-rule="evenodd" clip-rule="evenodd" d="M18.2208 19.5437H3.77921C3.34896 19.5437 3 19.2054 3 18.7877C3 18.37 3.34896 18.0317 3.77921 18.0317H18.2208C18.6514 18.0317 19 18.37 19 18.7877C19 19.2054 18.651 19.5437 18.2208 19.5437Z" fill="#1370B6"/>
<path fill-rule="evenodd" clip-rule="evenodd" d="M18.2208 19.5437H3.77921C3.34896 19.5437 3 19.2054 3 18.7877C3 18.37 3.34896 18.0317 3.77921 18.0317H18.2208C18.6514 18.0317 19 18.37 19 18.7877C19 19.2054 18.651 19.5437 18.2208 19.5437Z" fill="url(#paint1_linear_10589_5214)" fill-opacity="0.25"/>
<path d="M28 23.3965C28 19.2543 31.3579 15.8965 35.5 15.8965C39.6421 15.8965 43 19.2543 43 23.3965C43 27.5386 39.6421 30.8965 35.5 30.8965C31.3579 30.8965 28 27.5386 28 23.3965Z" fill="#310707"/>
<path d="M28 23.3965C28 19.2543 31.3579 15.8965 35.5 15.8965C39.6421 15.8965 43 19.2543 43 23.3965C43 27.5386 39.6421 30.8965 35.5 30.8965C31.3579 30.8965 28 27.5386 28 23.3965Z" stroke="#374151"/>
<path d="M32.3376 26.8965C32.4235 26.8965 32.5093 26.8649 32.577 26.7971L38.9007 20.4746C39.0316 20.3436 39.0316 20.1268 38.9007 19.9958C38.7697 19.8649 38.5529 19.8649 38.4219 19.9958L32.0982 26.3184C31.9673 26.4494 31.9673 26.6662 32.0982 26.7971C32.166 26.8649 32.2518 26.8965 32.3376 26.8965Z" fill="#F87171"/>
<path d="M38.6612 25.212C38.8464 25.212 39 25.0584 39 24.8733V20.2352C39 20.05 38.8464 19.8965 38.6612 19.8965H34.0224C33.8372 19.8965 33.6836 20.05 33.6836 20.2352C33.6836 20.4204 33.8372 20.5739 34.0224 20.5739H38.3225V24.8733C38.3225 25.0584 38.476 25.212 38.6612 25.212Z" fill="#F87171"/>
<defs>
<linearGradient id="paint0_linear_10589_5214" x1="13.5" y1="14" x2="13.5" y2="16.0159" gradientUnits="userSpaceOnUse">
<stop offset="0.07" stop-color="#F1F9FE"/>
<stop offset="1" stop-color="white" stop-opacity="0"/>
</linearGradient>
<linearGradient id="paint1_linear_10589_5214" x1="11" y1="18.0317" x2="11" y2="19.5437" gradientUnits="userSpaceOnUse">
<stop offset="0.07" stop-color="#F1F9FE"/>
<stop offset="1" stop-color="white" stop-opacity="0"/>
</linearGradient>
</defs>
</svg>
