<svg width="56" height="56" viewBox="0 0 56 56" fill="none" xmlns="http://www.w3.org/2000/svg">
<path d="M0 28C0 12.536 12.536 0 28 0C43.464 0 56 12.536 56 28C56 43.464 43.464 56 28 56C12.536 56 0 43.464 0 28Z" fill="var(--color-icon-container-blue, #EFF6FF)"/>
<path d="M27.6667 42C19.76 42 13.3333 35.5734 13.3333 27.6667C13.3333 19.76 19.76 13.3334 27.6667 13.3334C35.5733 13.3334 42 19.76 42 27.6667C42 35.5734 35.5733 42 27.6667 42ZM27.6667 15.3334C20.8667 15.3334 15.3333 20.8667 15.3333 27.6667C15.3333 34.4667 20.8667 40 27.6667 40C34.4667 40 40 34.4667 40 27.6667C40 20.8667 34.4667 15.3334 27.6667 15.3334Z" fill="var(--color-icon-brand, #00518D)"/>
<path d="M32.6133 32.9067C32.44 32.9067 32.2667 32.8667 32.1067 32.76L27.9733 30.2934C26.9467 29.68 26.1867 28.3334 26.1867 27.1467V21.68C26.1867 21.1334 26.64 20.68 27.1867 20.68C27.7333 20.68 28.1867 21.1334 28.1867 21.68V27.1467C28.1867 27.6267 28.5867 28.3334 29 28.5734L33.1333 31.04C33.6133 31.32 33.76 31.9334 33.48 32.4134C33.28 32.7334 32.9467 32.9067 32.6133 32.9067Z" fill="var(--color-icon-brand, #00518D)"/>
</svg>
