<svg width="24" height="24" viewBox="0 0 24 24" fill="none" xmlns="http://www.w3.org/2000/svg">
<path d="M11.75 22.5C5.82 22.5 1 17.68 1 11.75C1 5.82 5.82 1 11.75 1C17.68 1 22.5 5.82 22.5 11.75C22.5 17.68 17.68 22.5 11.75 22.5ZM11.75 2.5C6.65 2.5 2.5 6.65 2.5 11.75C2.5 16.85 6.65 21 11.75 21C16.85 21 21 16.85 21 11.75C21 6.65 16.85 2.5 11.75 2.5Z" fill="currentColor"/>
<path d="M15.46 15.68C15.33 15.68 15.2 15.65 15.08 15.57L11.98 13.72C11.21 13.26 10.64 12.25 10.64 11.36V7.26C10.64 6.85 10.98 6.51 11.39 6.51C11.8 6.51 12.14 6.85 12.14 7.26V11.36C12.14 11.72 12.44 12.25 12.75 12.43L15.85 14.28C16.21 14.49 16.32 14.95 16.11 15.31C15.96 15.55 15.71 15.68 15.46 15.68Z" fill="currentColor"/>
</svg>
