<svg width="56" height="56" viewBox="0 0 56 56" fill="none" xmlns="http://www.w3.org/2000/svg">
<path d="M0 28C0 12.536 12.536 0 28 0C43.464 0 56 12.536 56 28C56 43.464 43.464 56 28 56C12.536 56 0 43.464 0 28Z" fill="#172554"/>
<path d="M27.6667 42.0002C19.76 42.0002 13.3333 35.5735 13.3333 27.6668C13.3333 19.7602 19.76 13.3335 27.6667 13.3335C35.5733 13.3335 42 19.7602 42 27.6668C42 35.5735 35.5733 42.0002 27.6667 42.0002ZM27.6667 15.3335C20.8667 15.3335 15.3333 20.8668 15.3333 27.6668C15.3333 34.4668 20.8667 40.0002 27.6667 40.0002C34.4667 40.0002 40 34.4668 40 27.6668C40 20.8668 34.4667 15.3335 27.6667 15.3335Z" fill="#1370B6"/>
<path d="M32.6133 32.9068C32.44 32.9068 32.2667 32.8668 32.1067 32.7602L27.9733 30.2935C26.9467 29.6802 26.1867 28.3335 26.1867 27.1468V21.6802C26.1867 21.1335 26.64 20.6802 27.1867 20.6802C27.7333 20.6802 28.1867 21.1335 28.1867 21.6802V27.1468C28.1867 27.6268 28.5867 28.3335 29 28.5735L33.1333 31.0402C33.6133 31.3202 33.76 31.9335 33.48 32.4135C33.28 32.7335 32.9467 32.9068 32.6133 32.9068Z" fill="#1370B6"/>
</svg>
