<svg width="20" height="20" viewBox="0 0 20 20" fill="none" xmlns="http://www.w3.org/2000/svg">
<path d="M9.79183 18.75C4.85016 18.75 0.833496 14.7334 0.833496 9.79171C0.833496 4.85004 4.85016 0.833374 9.79183 0.833374C14.7335 0.833374 18.7502 4.85004 18.7502 9.79171C18.7502 14.7334 14.7335 18.75 9.79183 18.75ZM9.79183 2.08337C5.54183 2.08337 2.0835 5.54171 2.0835 9.79171C2.0835 14.0417 5.54183 17.5 9.79183 17.5C14.0418 17.5 17.5002 14.0417 17.5002 9.79171C17.5002 5.54171 14.0418 2.08337 9.79183 2.08337Z" fill="#F6F7F9"/>
<path d="M12.8835 13.0667C12.7752 13.0667 12.6668 13.0417 12.5668 12.975L9.9835 11.4334C9.34183 11.05 8.86683 10.2084 8.86683 9.46671V6.05004C8.86683 5.70837 9.15016 5.42504 9.49183 5.42504C9.8335 5.42504 10.1168 5.70837 10.1168 6.05004V9.46671C10.1168 9.76671 10.3668 10.2084 10.6252 10.3584L13.2085 11.9C13.5085 12.075 13.6002 12.4584 13.4252 12.7584C13.3002 12.9584 13.0918 13.0667 12.8835 13.0667Z" fill="#F6F7F9"/>
</svg>
