<svg width="24" height="24" viewBox="0 0 24 24" fill="none" xmlns="http://www.w3.org/2000/svg">
<path d="M8.92 15.33C8.73 15.33 8.54 15.26 8.39 15.11C8.1 14.82 8.1 14.34 8.39 14.05L14.05 8.39C14.34 8.1 14.82 8.1 15.11 8.39C15.4 8.68 15.4 9.16 15.11 9.45L9.45 15.11C9.31 15.26 9.11 15.33 8.92 15.33Z" fill="currentColor"/>
<path fill-rule="evenodd" clip-rule="evenodd" d="M5.21967 5.21967C5.51256 4.92678 5.98744 4.92678 6.28033 5.21967L11.75 10.6893L17.2197 5.21967C17.5126 4.92678 17.9874 4.92678 18.2803 5.21967C18.5732 5.51256 18.5732 5.98744 18.2803 6.28033L12.8107 11.75L18.2803 17.2197C18.5732 17.5126 18.5732 17.9874 18.2803 18.2803C17.9874 18.5732 17.5126 18.5732 17.2197 18.2803L11.75 12.8107L6.28033 18.2803C5.98744 18.5732 5.51256 18.5732 5.21967 18.2803C4.92678 17.9874 4.92678 17.5126 5.21967 17.2197L10.6893 11.75L5.21967 6.28033C4.92678 5.98744 4.92678 5.51256 5.21967 5.21967Z" fill="currentColor"/>
</svg>
