<svg width="20" height="20" viewBox="0 0 20 20" fill="none" xmlns="http://www.w3.org/2000/svg">
<path d="M9.25008 18.9583H5.75008C2.49175 18.9583 1.04175 17.5083 1.04175 14.25V10.75C1.04175 7.49166 2.49175 6.04166 5.75008 6.04166H9.25008C12.5084 6.04166 13.9584 7.49166 13.9584 10.75V14.25C13.9584 17.5083 12.5084 18.9583 9.25008 18.9583ZM5.75008 7.29166C3.16675 7.29166 2.29175 8.16666 2.29175 10.75V14.25C2.29175 16.8333 3.16675 17.7083 5.75008 17.7083H9.25008C11.8334 17.7083 12.7084 16.8333 12.7084 14.25V10.75C12.7084 8.16666 11.8334 7.29166 9.25008 7.29166H5.75008Z" fill="currentColor"/>
<path d="M14.2501 13.9583H13.3334C12.9917 13.9583 12.7084 13.675 12.7084 13.3333V10.75C12.7084 8.16666 11.8334 7.29166 9.25008 7.29166H6.66675C6.32508 7.29166 6.04175 7.00832 6.04175 6.66666V5.74999C6.04175 2.49166 7.49175 1.04166 10.7501 1.04166H14.2501C17.5084 1.04166 18.9584 2.49166 18.9584 5.74999V9.24999C18.9584 12.5083 17.5084 13.9583 14.2501 13.9583ZM13.9584 12.7083H14.2501C16.8334 12.7083 17.7084 11.8333 17.7084 9.24999V5.74999C17.7084 3.16666 16.8334 2.29166 14.2501 2.29166H10.7501C8.16675 2.29166 7.29175 3.16666 7.29175 5.74999V6.04166H9.25008C12.5084 6.04166 13.9584 7.49166 13.9584 10.75V12.7083Z" fill="currentColor"/>
</svg>
