<svg width="56" height="56" viewBox="0 0 56 56" fill="none" xmlns="http://www.w3.org/2000/svg">
<path d="M3 28C3 14.1929 14.1929 3 28 3C41.8071 3 53 14.1929 53 28C53 41.8071 41.8071 53 28 53C14.1929 53 3 41.8071 3 28Z" fill="#FEE2E2"/>
<path d="M3 28C3 14.1929 14.1929 3 28 3C41.8071 3 53 14.1929 53 28C53 41.8071 41.8071 53 28 53C14.1929 53 3 41.8071 3 28Z" stroke="#FEF2F2" stroke-width="6"/>
<path d="M28.0002 40.5418C21.0818 40.5418 15.4585 34.9185 15.4585 28.0002C15.4585 21.0818 21.0818 15.4585 28.0002 15.4585C34.9185 15.4585 40.5418 21.0818 40.5418 28.0002C40.5418 34.9185 34.9185 40.5418 28.0002 40.5418ZM28.0002 17.2085C22.0502 17.2085 17.2085 22.0502 17.2085 28.0002C17.2085 33.9502 22.0502 38.7918 28.0002 38.7918C33.9502 38.7918 38.7918 33.9502 38.7918 28.0002C38.7918 22.0502 33.9502 17.2085 28.0002 17.2085Z" fill="#DC2626"/>
<path d="M28.0002 30.0418C27.5218 30.0418 27.1252 29.6452 27.1252 29.1668V23.3335C27.1252 22.8552 27.5218 22.4585 28.0002 22.4585C28.4785 22.4585 28.8752 22.8552 28.8752 23.3335V29.1668C28.8752 29.6452 28.4785 30.0418 28.0002 30.0418Z" fill="#DC2626"/>
<path d="M28.0002 33.8335C27.8485 33.8335 27.6968 33.7985 27.5568 33.7402C27.4168 33.6818 27.2885 33.6002 27.1718 33.4952C27.0668 33.3785 26.9852 33.2618 26.9268 33.1102C26.8685 32.9702 26.8335 32.8185 26.8335 32.6668C26.8335 32.5152 26.8685 32.3635 26.9268 32.2235C26.9852 32.0835 27.0668 31.9552 27.1718 31.8385C27.2885 31.7335 27.4168 31.6518 27.5568 31.5935C27.8368 31.4768 28.1635 31.4768 28.4435 31.5935C28.5835 31.6518 28.7118 31.7335 28.8285 31.8385C28.9335 31.9552 29.0152 32.0835 29.0735 32.2235C29.1318 32.3635 29.1668 32.5152 29.1668 32.6668C29.1668 32.8185 29.1318 32.9702 29.0735 33.1102C29.0152 33.2618 28.9335 33.3785 28.8285 33.4952C28.7118 33.6002 28.5835 33.6818 28.4435 33.7402C28.3035 33.7985 28.1518 33.8335 28.0002 33.8335Z" fill="#DC2626"/>
</svg>
