<svg width="56" height="56" viewBox="0 0 56 56" fill="none" xmlns="http://www.w3.org/2000/svg">
<path d="M28 3C41.8071 3 53 14.1929 53 28C53 41.8071 41.8071 53 28 53C14.1929 53 3 41.8071 3 28C3 14.1929 14.1929 3 28 3Z" fill="var(--color-danger-tint-2)"/>
<path d="M28 3C41.8071 3 53 14.1929 53 28C53 41.8071 41.8071 53 28 53C14.1929 53 3 41.8071 3 28C3 14.1929 14.1929 3 28 3Z" stroke="var(--color-danger-tint)" stroke-width="6"/>
<path d="M27.9999 40.5417C21.0816 40.5417 15.4583 34.9184 15.4583 28C15.4583 21.0817 21.0816 15.4584 27.9999 15.4584C34.9183 15.4584 40.5416 21.0817 40.5416 28C40.5416 34.9184 34.9183 40.5417 27.9999 40.5417ZM27.9999 17.2084C22.0499 17.2084 17.2083 22.05 17.2083 28C17.2083 33.95 22.0499 38.7917 27.9999 38.7917C33.9499 38.7917 38.7916 33.95 38.7916 28C38.7916 22.05 33.9499 17.2084 27.9999 17.2084Z" fill="var(--color-icon-danger)"/>
<path d="M24.6983 32.1767C24.4766 32.1767 24.2549 32.095 24.0799 31.92C23.7416 31.5817 23.7416 31.0217 24.0799 30.6834L30.6833 24.08C31.0216 23.7417 31.5816 23.7417 31.9199 24.08C32.2583 24.4184 32.2583 24.9784 31.9199 25.3167L25.3166 31.92C25.1533 32.095 24.9199 32.1767 24.6983 32.1767Z" fill="var(--color-icon-danger)"/>
<path d="M31.3016 32.1767C31.0799 32.1767 30.8583 32.095 30.6833 31.92L24.0799 25.3167C23.7416 24.9784 23.7416 24.4184 24.0799 24.08C24.4183 23.7417 24.9783 23.7417 25.3166 24.08L31.9199 30.6834C32.2583 31.0217 32.2583 31.5817 31.9199 31.92C31.7449 32.095 31.5233 32.1767 31.3016 32.1767Z" fill="var(--color-icon-danger)"/>
</svg>
