<svg width="89" height="92" viewBox="0 0 89 92" fill="none" xmlns="http://www.w3.org/2000/svg">
<path d="M5.86503 51.41C14.2957 36.1835 8.98681 35.6357 4.80983 30.8505C0.808264 26.2681 0.161436 19.278 1.38383 13.3205C2.60897 7.36302 7.18336 1.90132 13.1693 0.791996C22.2413 -0.889792 30.6007 7.23428 39.818 6.9056C44.5103 6.73851 48.8051 4.39387 53.2726 2.94764C63.8494 -0.478933 76.8078 1.84106 83.6242 10.6225C89.6046 18.322 89.7856 29.155 87.3901 38.6021C84.9453 48.2381 79.9077 57.4633 72.0169 63.5221C64.1289 69.5782 53.1822 72.0434 43.8881 68.499C37.2554 65.9709 30.5843 60.5338 23.9351 63.0127C21.7562 63.8262 11.8537 68.4086 7.41084 63.2345C5.49777 61.0077 4.17122 54.4695 5.86503 51.41Z" fill="url(#paint0_linear_11097_56155)" fill-opacity="0.6"/>
<g filter="url(#filter0_d_11097_56155)">
<path d="M18.2473 17.4362C22.0998 31.1536 29.2754 55.5277 31.2036 62.0659C31.4754 62.9903 32.4285 63.5353 33.3657 63.3057L66.0223 55.2622L53.4436 7.31445L18.9887 16.1526C18.4252 16.2963 18.0915 16.8772 18.2473 17.4362Z" fill="#1F2937"/>
<path d="M44.0728 45.1747C42.732 41.9705 39.5389 39.9521 36.3677 38.5267C33.1966 37.0992 29.0423 35.3923 26.3867 33.1523L27.132 34.9212C28.4089 38.894 31.0925 42.3977 34.5933 44.6716C35.9861 45.576 37.5147 46.3007 38.7076 47.4546C41.5271 50.1797 41.653 55.1987 38.9734 58.0615C40.4101 58.5467 42.0426 57.782 42.9778 56.5882C43.9129 55.3943 44.2846 53.8611 44.5244 52.3658C44.912 49.9641 45.0119 47.4207 44.0728 45.1747Z" fill="url(#paint1_linear_11097_56155)"/>
<path d="M70.2345 35.7565C68.7239 33.818 66.4899 32.0791 64.4677 30.6377C60.4114 27.7449 58.6849 25.3592 57.2962 20.6816C55.9035 15.998 53.2638 6.99023 53.2638 6.99023L20.7012 15.439C20.7012 15.439 23.5826 24.325 24.8275 29.0386C26.0723 33.7521 28.9897 38.4257 33.046 41.3185C35.0682 42.7599 37.4781 43.6563 39.4003 45.2175C43.5606 48.5974 44.5257 55.0837 41.5164 59.4479L72.5544 51.4463C75.5637 47.0801 73.6315 40.1127 70.2325 35.7565H70.2345Z" fill="#4B5563"/>
<path d="M70.2345 35.7565C68.7239 33.818 66.4899 32.0791 64.4677 30.6377C60.4114 27.7449 58.6849 25.3592 57.2962 20.6816C55.9035 15.998 53.2638 6.99023 53.2638 6.99023L20.7012 15.439C20.7012 15.439 23.5826 24.325 24.8275 29.0386C26.0723 33.7521 28.9897 38.4257 33.046 41.3185C35.0682 42.7599 37.4781 43.6563 39.4003 45.2175C43.5606 48.5974 44.5257 55.0837 41.5164 59.4479L72.5544 51.4463C75.5637 47.0801 73.6315 40.1127 70.2325 35.7565H70.2345Z" fill="url(#paint2_linear_11097_56155)" fill-opacity="0.25"/>
<path d="M44.3827 11.7235L43.4756 8.35957C43.3557 7.91836 42.9021 7.65684 42.4585 7.77462L39.2194 8.64705L39.5711 7.40129C39.633 7.18169 39.4312 6.97806 39.2114 7.03795L33.5845 8.55322C33.3667 8.61112 33.2927 8.88463 33.4506 9.04434L34.3538 9.95869L31.1586 10.8191C30.717 10.9389 30.4553 11.3921 30.5732 11.8353L31.4804 15.1993C31.6003 15.6405 32.0538 15.902 32.4974 15.7842L43.7993 12.7417C44.2409 12.6219 44.5026 12.1687 44.3847 11.7255L44.3827 11.7235Z" fill="#4B5563"/>
<path d="M44.3827 11.7235L43.4756 8.35957C43.3557 7.91836 42.9021 7.65684 42.4585 7.77462L39.2194 8.64705L39.5711 7.40129C39.633 7.18169 39.4312 6.97806 39.2114 7.03795L33.5845 8.55322C33.3667 8.61112 33.2927 8.88463 33.4506 9.04434L34.3538 9.95869L31.1586 10.8191C30.717 10.9389 30.4553 11.3921 30.5732 11.8353L31.4804 15.1993C31.6003 15.6405 32.0538 15.902 32.4974 15.7842L43.7993 12.7417C44.2409 12.6219 44.5026 12.1687 44.3847 11.7255L44.3827 11.7235Z" fill="url(#paint3_linear_11097_56155)" fill-opacity="0.25"/>
<path d="M41.9189 33.9811C41.6911 33.9811 41.4593 33.9192 41.2515 33.7934L36.2101 30.7169C35.6046 30.3476 35.4148 29.559 35.7844 28.9561C36.1541 28.3512 36.9434 28.1615 37.5468 28.5309L41.5672 30.9825L49.5101 19.7926C49.9197 19.2156 50.721 19.0779 51.2985 19.4891C51.8759 19.8984 52.0118 20.699 51.6022 21.2759L42.966 33.442C42.7162 33.7934 42.3225 33.9831 41.9189 33.9831V33.9811Z" fill="#374151"/>
</g>
<defs>
<filter id="filter0_d_11097_56155" x="3.96949" y="6.99023" width="84.3169" height="84.8462" filterUnits="userSpaceOnUse" color-interpolation-filters="sRGB">
<feFlood flood-opacity="0" result="BackgroundImageFix"/>
<feColorMatrix in="SourceAlpha" type="matrix" values="0 0 0 0 0 0 0 0 0 0 0 0 0 0 0 0 0 0 127 0" result="hardAlpha"/>
<feMorphology radius="2.8479" operator="erode" in="SourceAlpha" result="effect1_dropShadow_11097_56155"/>
<feOffset dy="14.2395"/>
<feGaussianBlur stdDeviation="8.5437"/>
<feComposite in2="hardAlpha" operator="out"/>
<feColorMatrix type="matrix" values="0 0 0 0 0.0902477 0 0 0 0 0.2203 0 0 0 0 0.480404 0 0 0 0.08 0"/>
<feBlend mode="normal" in2="BackgroundImageFix" result="effect1_dropShadow_11097_56155"/>
<feBlend mode="normal" in="SourceGraphic" in2="effect1_dropShadow_11097_56155" result="shape"/>
</filter>
<linearGradient id="paint0_linear_11097_56155" x1="52.7601" y1="83.0654" x2="40.9318" y2="-3.49117" gradientUnits="userSpaceOnUse">
<stop stop-color="#1F2937"/>
<stop offset="0.645768" stop-color="#111827"/>
</linearGradient>
<linearGradient id="paint1_linear_11097_56155" x1="39.1876" y1="33.1523" x2="32.0126" y2="58.2117" gradientUnits="userSpaceOnUse">
<stop stop-color="#111827"/>
<stop offset="0.775373" stop-color="#1F2937"/>
</linearGradient>
<linearGradient id="paint2_linear_11097_56155" x1="47.3742" y1="6.99023" x2="47.3742" y2="59.4479" gradientUnits="userSpaceOnUse">
<stop offset="0.07" stop-color="#F6F7F9"/>
<stop offset="1" stop-color="#4B5563"/>
</linearGradient>
<linearGradient id="paint3_linear_11097_56155" x1="37.479" y1="7.02734" x2="37.479" y2="15.8124" gradientUnits="userSpaceOnUse">
<stop offset="0.07" stop-color="#F6F7F9"/>
<stop offset="1" stop-color="#4B5563"/>
</linearGradient>
</defs>
</svg>
