<svg width="16" height="16" viewBox="0 0 16 16" fill="none" xmlns="http://www.w3.org/2000/svg">
<path fill-rule="evenodd" clip-rule="evenodd" d="M4.88682 6.19086C5.10989 5.94683 5.47156 5.94683 5.69464 6.19086L8.00016 8.71298L10.3057 6.19086C10.5288 5.94683 10.8904 5.94683 11.1135 6.19086C11.3366 6.43488 11.3366 6.83053 11.1135 7.07456L8.40407 10.0385C8.18099 10.2826 7.81932 10.2826 7.59625 10.0385L4.88682 7.07456C4.66375 6.83053 4.66375 6.43488 4.88682 6.19086Z" fill="currentColor"/>
<path fill-rule="evenodd" clip-rule="evenodd" d="M8.00007 1.33325C8.31554 1.33325 8.57128 1.61302 8.57128 1.95813V9.45662C8.57128 9.80173 8.31554 10.0815 8.00007 10.0815C7.6846 10.0815 7.42886 9.80173 7.42886 9.45662V1.95813C7.42886 1.61302 7.6846 1.33325 8.00007 1.33325Z" fill="currentColor"/>
<path fill-rule="evenodd" clip-rule="evenodd" d="M1.90471 10.4529C2.22018 10.4529 2.47592 10.7326 2.47592 11.0777C2.47592 12.3696 3.43323 13.4168 4.61414 13.4168H11.3862C12.5671 13.4168 13.5244 12.3696 13.5244 11.0777C13.5244 10.7326 13.7801 10.4529 14.0956 10.4529C14.4111 10.4529 14.6668 10.7326 14.6668 11.0777C14.6668 13.0598 13.198 14.6666 11.3862 14.6666H4.61414C2.80229 14.6666 1.3335 13.0598 1.3335 11.0777C1.3335 10.7326 1.58924 10.4529 1.90471 10.4529Z" fill="currentColor"/>
</svg>
