<svg width="141" height="128" viewBox="0 0 141 128" fill="none" xmlns="http://www.w3.org/2000/svg">
<path d="M125.584 96.2345C113.634 74.6019 121.159 73.8236 127.08 67.0252C132.752 60.5148 133.669 50.5838 131.937 42.1199C130.2 33.656 123.716 25.8965 115.231 24.3204C102.371 21.9311 90.5217 33.4731 77.4562 33.0062C70.8049 32.7688 64.717 29.4377 58.3843 27.383C43.3918 22.5148 25.0232 25.8109 15.361 38.2869C6.88381 49.2257 6.62735 64.6164 10.0229 78.038C13.4884 91.7282 20.6292 104.835 31.8143 113.442C42.9956 122.046 58.5125 125.549 71.6868 120.513C81.0887 116.921 90.545 109.197 99.9702 112.719C103.059 113.874 117.096 120.385 123.393 113.034C126.105 109.87 127.985 100.581 125.584 96.2345Z" fill="url(#paint0_linear_18083_26174)" fill-opacity="0.6"/>
<g filter="url(#filter0_dd_18083_26174)">
<path d="M49.7856 71.7109C49.7856 77.3817 47.5332 82.526 43.8756 86.2954C41.6506 88.5891 38.9044 90.373 35.8306 91.4581C35.7833 91.4733 35.7361 91.4901 35.6888 91.5054C33.5553 92.2425 31.2663 92.6408 28.8843 92.6408C26.3591 92.6408 23.939 92.1921 21.6987 91.3711C21.6911 91.368 21.685 91.3665 21.6789 91.3635C18.7194 90.2754 16.0753 88.5372 13.9173 86.3198C10.2461 82.5474 7.9845 77.3939 7.9845 71.7109C7.9845 60.1525 17.3417 50.7825 28.8843 50.7825C30.835 50.7825 32.7232 51.0495 34.5154 51.5501C36.4706 52.0979 38.3116 52.922 39.991 53.9796C45.8751 57.6818 49.7856 64.2393 49.7856 71.7109Z" fill="url(#paint1_linear_18083_26174)" fill-opacity="0.5"/>
<path d="M22.9562 67.4334C22.1256 61.7839 26.0743 59.7405 29.5063 59.8198C32.9382 59.8992 34.5643 62.6278 34.5643 62.6278C34.5643 62.6278 37.021 66.2781 34.0142 69.6248C31.0089 72.9714 22.9562 67.4349 22.9562 67.4349V67.4334Z" fill="#9CA3AF"/>
<path d="M39.0494 80.471C36.4693 82.9188 32.9703 84.4235 29.1359 84.4235C25.3016 84.4235 21.801 82.9188 19.2225 80.471C19.5806 79.5951 19.9967 78.7084 20.4447 77.9774C20.972 77.1244 22.0144 76.4727 23.1254 75.9783C23.1589 75.9676 23.1818 75.9554 23.2046 75.9447C25.1111 75.1252 27.2188 74.788 27.3879 74.7544H27.3986L29.1253 75.0459L30.7849 74.7651H30.8519C30.8519 74.7544 33.1166 75.0901 35.1252 75.9661H35.1358C36.2468 76.4483 37.2892 77.1122 37.8165 77.9652C38.2645 78.6947 38.6806 79.5828 39.0387 80.4588L39.0494 80.4695V80.471Z" fill="url(#paint2_linear_18083_26174)"/>
<path d="M35.506 68.5571C35.506 69.8268 34.2838 70.9378 33.3984 70.4433C32.8376 71.6779 31.9399 72.6668 30.797 73.1719V75.194C30.797 76.1371 30.035 76.9016 29.0916 76.9016C28.1483 76.9016 27.3863 76.1386 27.3863 75.194V73.3077C26.0742 72.8469 25.0653 71.8031 24.4481 70.4433C23.5505 70.9256 22.3404 69.8146 22.3404 68.5449C22.3404 67.2752 23.0475 67.0066 23.7989 67.5011C23.7882 66.8495 23.8431 66.1765 23.9787 65.4913C24.6736 62.1217 33.153 62.1217 33.8586 65.4913C34.0049 66.1658 34.0598 66.8495 34.0385 67.5011C34.8004 66.996 35.4969 67.7376 35.4969 68.5449L35.5076 68.5556L35.506 68.5571Z" fill="url(#paint3_linear_18083_26174)"/>
</g>
<g filter="url(#filter1_dd_18083_26174)">
<path d="M50.0698 85.0384H126.872C130.335 85.0384 133.143 82.2261 133.143 78.7568V65.1866C133.143 61.7173 130.335 58.905 126.872 58.905H60.0874C56.6236 58.905 53.8157 61.7173 53.8157 65.1866V78.7832C53.8157 81.3679 52.2512 83.6184 49.9796 84.5789C49.7391 84.6806 49.8082 85.0384 50.0692 85.0384H50.0698Z" fill="url(#paint4_linear_18083_26174)"/>
<path d="M64.0504 68.0862H123.148C123.825 68.0862 124.373 68.6357 124.373 69.3135C124.373 69.9913 123.825 70.5408 123.148 70.5408H64.0504C63.3736 70.5408 62.825 69.9913 62.825 69.3135C62.825 68.6357 63.3736 68.0862 64.0504 68.0862Z" fill="#6B7280"/>
<path d="M64.0955 74.6741H97.6357C98.3125 74.6741 98.8611 75.2236 98.8611 75.9014C98.8611 76.5792 98.3125 77.1287 97.6357 77.1287H64.0955C63.4187 77.1287 62.8701 76.5792 62.8701 75.9014C62.8701 75.2236 63.4187 74.6741 64.0955 74.6741Z" fill="#F3F4F6"/>
</g>
<path d="M95.7577 7.50661C94.6421 7.50981 93.5296 7.08767 92.7016 6.33933C92.3244 6.00034 91.9887 5.45027 92.2509 5.01534C92.3947 4.77549 92.692 4.66036 92.9702 4.66676C93.2483 4.67315 93.5136 4.78828 93.7597 4.9258C94.7124 5.45667 95.4572 6.35212 95.7545 7.50661H95.7577Z" fill="#9CA3AF"/>
<path d="M95.8541 7.23179C95.4097 6.20842 95.3617 5.01875 95.723 3.9634C95.886 3.48369 96.26 2.95922 96.7619 3.02957C97.04 3.06795 97.2638 3.29501 97.3661 3.55405C97.4684 3.81309 97.4684 4.10411 97.4396 4.38234C97.3278 5.46967 96.7971 6.50584 95.8541 7.23499V7.23179Z" fill="#9CA3AF"/>
<path d="M96.8072 9.37507C97.987 8.856 98.6634 7.79823 98.3179 7.01248C97.9725 6.22673 96.7361 6.01055 95.5563 6.52962C94.3765 7.04869 93.7002 8.10646 94.0456 8.89221C94.391 9.67796 95.6275 9.89415 96.8072 9.37507Z" fill="#9CA3AF"/>
<g filter="url(#filter2_dd_18083_26174)">
<path d="M76.4865 62.6003C77.762 62.6322 79.0407 62.5779 80.3034 62.4375C80.3546 62.4311 80.4025 62.4694 80.4089 62.5205C80.4153 62.5715 80.377 62.6194 80.3258 62.6258C79.0503 62.7376 77.7652 62.7631 76.4865 62.6993C76.4609 62.6993 76.4386 62.6769 76.4417 62.6482C76.4417 62.6226 76.4673 62.6035 76.4929 62.6035L76.4865 62.6003Z" fill="#9CA3AF"/>
<path d="M84.0593 61.7756C85.2932 61.4782 86.508 61.0977 87.6908 60.6467C87.7771 60.6148 87.8762 60.6563 87.9082 60.7427C87.9402 60.829 87.8986 60.9282 87.8123 60.9601H87.8091C86.6039 61.3983 85.37 61.7564 84.12 62.0347C84.0465 62.0507 83.9762 62.0059 83.9602 61.9323C83.9442 61.862 83.989 61.7916 84.0593 61.7724V61.7756Z" fill="#9CA3AF"/>
<path d="M91.1432 59.0659C92.2589 58.4679 93.333 57.8027 94.3623 57.0703C94.4678 56.9936 94.6181 57.0191 94.6948 57.1247C94.7715 57.2302 94.746 57.3805 94.6405 57.4573H94.6373C93.5791 58.1832 92.4762 58.842 91.335 59.4241C91.2359 59.4752 91.1144 59.4369 91.0633 59.3345C91.0121 59.2354 91.0505 59.1171 91.1464 59.0627H91.1496L91.1432 59.0659Z" fill="#9CA3AF"/>
<path d="M97.2969 54.6945C98.224 53.8438 99.0935 52.9324 99.8959 51.9666C99.9982 51.8451 100.18 51.8259 100.302 51.9282C100.423 52.0305 100.442 52.2128 100.34 52.3344C99.509 53.313 98.6108 54.234 97.6581 55.0879C97.5494 55.187 97.38 55.1774 97.2809 55.0687C97.1818 54.9599 97.1914 54.7936 97.3001 54.6945H97.2969Z" fill="#9CA3AF"/>
<path d="M102.032 48.9097C102.633 47.8288 103.119 46.6839 103.409 45.5038C103.454 45.3247 103.633 45.2192 103.812 45.2607C103.991 45.3055 104.097 45.4846 104.055 45.6637C103.732 46.9141 103.211 48.1006 102.572 49.2167C102.486 49.3638 102.297 49.4182 102.15 49.3318C102.003 49.2487 101.952 49.06 102.032 48.9129V48.9097Z" fill="#9CA3AF"/>
<path d="M103.566 41.9627C103.345 40.821 102.795 39.7624 101.99 38.9405C101.846 38.7934 101.849 38.5568 101.996 38.4097C102.143 38.2658 102.38 38.269 102.527 38.4161L102.533 38.4225C103.428 39.3595 104.033 40.562 104.259 41.8348C104.295 42.0267 104.167 42.2089 103.975 42.2441C103.783 42.2793 103.601 42.1514 103.566 41.9627Z" fill="#9CA3AF"/>
<path d="M99.0136 37.1408C97.882 36.7602 96.6736 36.5587 95.4492 36.482C95.2222 36.4692 95.0528 36.2741 95.0656 36.047C95.0784 35.82 95.2734 35.6505 95.5004 35.6633C96.7823 35.7464 98.061 35.9639 99.2757 36.3924C99.4835 36.466 99.589 36.693 99.5187 36.8977C99.4452 37.1024 99.2246 37.2111 99.02 37.1408H99.0136Z" fill="#9CA3AF"/>
<path d="M91.7505 36.6163C90.507 36.7538 89.2666 36.9617 88.0359 37.2175C87.8057 37.2655 87.5787 37.1184 87.5308 36.8881C87.4828 36.6579 87.6299 36.4308 87.8601 36.3829C89.1164 36.127 90.3823 35.9223 91.6546 35.7848C91.8848 35.7592 92.0894 35.9255 92.115 36.1558C92.1405 36.3861 91.9743 36.5907 91.7441 36.6163H91.7505Z" fill="#9CA3AF"/>
<path d="M84.3602 38.1231L80.7191 39.2264H80.7063C80.4729 39.2999 80.2268 39.1688 80.1564 38.9354C80.0861 38.7019 80.2172 38.4557 80.4505 38.3853L84.13 37.2852C84.3602 37.218 84.6 37.3459 84.6703 37.5762C84.7374 37.8065 84.6095 38.0463 84.3794 38.1167L84.3602 38.1231Z" fill="#9CA3AF"/>
<path d="M77.0869 40.4316L73.4394 41.6468C73.1997 41.7268 72.9407 41.5956 72.8608 41.359C72.7809 41.1191 72.912 40.8601 73.1485 40.7801L73.1581 40.7769L76.8024 39.5809C77.039 39.5041 77.2915 39.6321 77.3683 39.8655C77.445 40.1022 77.3203 40.3548 77.0837 40.4316H77.0869Z" fill="#9CA3AF"/>
<path d="M69.741 42.7792L65.9656 43.7226C65.713 43.7865 65.4573 43.633 65.3934 43.3772C65.3294 43.1246 65.4829 42.8655 65.7386 42.8048L65.7706 42.7952L69.4916 41.8805L69.5172 41.8741C69.7665 41.8134 70.0191 41.9669 70.0798 42.2163C70.1406 42.4658 69.9903 42.7184 69.741 42.7792Z" fill="#9CA3AF"/>
<path d="M62.1007 44.3617L60.141 44.512C59.8182 44.5472 59.4825 44.5472 59.1501 44.544H58.1495C57.8905 44.5472 57.6795 44.3361 57.6795 44.0771C57.6795 43.8181 57.8873 43.607 58.1495 43.607H58.1814L59.1373 43.6006C59.4569 43.6006 59.7734 43.6006 60.0899 43.5654L61.9952 43.4119H62.0271C62.2893 43.3895 62.5194 43.5846 62.5418 43.8468C62.5642 44.1091 62.366 44.3393 62.1039 44.3617H62.1007Z" fill="#9CA3AF"/>
<path d="M54.163 43.952C52.8555 43.5811 51.564 43.0054 50.4515 42.1196C50.2565 41.9629 50.2214 41.6782 50.378 41.48C50.5346 41.2817 50.8192 41.2497 51.0174 41.4064C52.0115 42.1931 53.1943 42.7176 54.4155 43.0598C54.6617 43.1301 54.8055 43.386 54.7352 43.629C54.6649 43.8753 54.4123 44.0192 54.1662 43.9488L54.163 43.952Z" fill="#9CA3AF"/>
<path d="M47.9966 38.6532C47.5395 37.2781 47.5203 35.8102 47.808 34.4446C47.8592 34.2048 48.0925 34.0544 48.3291 34.1024C48.5657 34.1504 48.7191 34.3838 48.6679 34.6205C48.4122 35.8581 48.4378 37.1661 48.8438 38.3654C48.9237 38.5989 48.7958 38.8515 48.5625 38.9314C48.3291 39.0114 48.0765 38.8835 47.9966 38.65V38.6532Z" fill="#9CA3AF"/>
<path d="M49.4867 30.6647C49.8895 30.1019 50.3626 29.5774 50.8613 29.1169C51.3632 28.65 51.9035 28.231 52.4693 27.8568C52.6643 27.7289 52.9264 27.7801 53.0575 27.9752C53.1854 28.1703 53.1342 28.4325 52.9392 28.5604C51.8843 29.2672 50.9252 30.1306 50.19 31.1636C50.0525 31.3587 49.784 31.4035 49.589 31.2659C49.394 31.1284 49.3492 30.8598 49.4867 30.6647Z" fill="#9CA3AF"/>
<path d="M56.0812 26.0977C57.3344 25.6596 58.6227 25.3462 59.911 25.1159C60.1316 25.0743 60.3457 25.2214 60.3841 25.4453C60.4256 25.666 60.2786 25.8802 60.0548 25.9186C58.7985 26.1489 57.5582 26.4559 56.3562 26.8812C56.1388 26.958 55.9022 26.8461 55.8255 26.6286C55.7488 26.4111 55.8607 26.1745 56.078 26.0977H56.0812Z" fill="#9CA3AF"/>
<path d="M63.7853 24.6489L67.6565 24.4858C67.8611 24.4762 68.0306 24.6361 68.0402 24.8375C68.0498 25.039 67.8931 25.2117 67.6917 25.2213H67.6789L63.8524 25.426H63.8236C63.6095 25.4388 63.424 25.2725 63.4144 25.0582C63.4017 24.8439 63.5679 24.6585 63.7821 24.6489H63.7853Z" fill="#9CA3AF"/>
<path d="M71.5027 24.4545L75.3228 24.4001H75.3356C75.5146 24.4001 75.6649 24.5409 75.6649 24.7199C75.6649 24.899 75.5242 25.0461 75.3484 25.0493L71.5123 25.1485C71.3205 25.1549 71.1606 25.0014 71.1574 24.8095C71.1542 24.6176 71.3045 24.4577 71.4963 24.4545H71.5027Z" fill="#9CA3AF"/>
<path d="M79.1106 24.1602C80.367 24.0322 81.6169 23.8467 82.8477 23.5845C83.0011 23.5525 83.1513 23.6485 83.1833 23.802C83.2153 23.9523 83.1194 24.1026 82.9691 24.1378C81.7192 24.416 80.4501 24.6175 79.1778 24.7646C79.0115 24.7838 78.8613 24.6654 78.8421 24.496C78.8229 24.3297 78.9444 24.1793 79.1106 24.1602C79.1106 24.1602 79.1106 24.1602 79.1138 24.1602H79.1106Z" fill="#9CA3AF"/>
<path d="M86.4664 22.5514C87.6396 22.1165 88.7841 21.592 89.855 20.946C89.9637 20.8789 90.1043 20.914 90.1683 21.0228C90.2322 21.1315 90.2002 21.269 90.0947 21.3362C89.0078 22.0174 87.8474 22.5802 86.6518 23.0407C86.5176 23.0919 86.3641 23.0247 86.313 22.8904C86.2618 22.7561 86.329 22.6026 86.4632 22.5514H86.4664Z" fill="#9CA3AF"/>
<path d="M92.8053 18.6554C93.6812 17.7632 94.4356 16.7494 95.0462 15.6525C95.0878 15.5725 95.1869 15.5437 95.2636 15.5885C95.3403 15.6301 95.3691 15.726 95.3275 15.8028C94.7233 16.9349 93.9689 17.9902 93.0866 18.9209C93.0131 19.0008 92.8884 19.004 92.8117 18.9304C92.735 18.8569 92.7318 18.7322 92.8053 18.6554Z" fill="#9CA3AF"/>
<path d="M96.3954 12.145C96.6672 10.9169 96.7567 9.64091 96.5936 8.38728C96.5873 8.33931 96.6192 8.29774 96.6672 8.29134C96.7119 8.28495 96.7535 8.31693 96.7631 8.3617C96.9581 9.63452 96.9005 10.9393 96.6448 12.1961C96.632 12.2665 96.5649 12.3113 96.4945 12.2953C96.4274 12.2825 96.3827 12.2153 96.3954 12.145Z" fill="#9CA3AF"/>
</g>
<defs>
<filter id="filter0_dd_18083_26174" x="0.864749" y="50.7825" width="56.0406" height="56.0979" filterUnits="userSpaceOnUse" color-interpolation-filters="sRGB">
<feFlood flood-opacity="0" result="BackgroundImageFix"/>
<feColorMatrix in="SourceAlpha" type="matrix" values="0 0 0 0 0 0 0 0 0 0 0 0 0 0 0 0 0 0 127 0" result="hardAlpha"/>
<feMorphology radius="1.42395" operator="erode" in="SourceAlpha" result="effect1_dropShadow_18083_26174"/>
<feOffset dy="2.8479"/>
<feGaussianBlur stdDeviation="1.42395"/>
<feComposite in2="hardAlpha" operator="out"/>
<feColorMatrix type="matrix" values="0 0 0 0 0.419608 0 0 0 0 0.447059 0 0 0 0 0.501961 0 0 0 0.03 0"/>
<feBlend mode="normal" in2="BackgroundImageFix" result="effect1_dropShadow_18083_26174"/>
<feColorMatrix in="SourceAlpha" type="matrix" values="0 0 0 0 0 0 0 0 0 0 0 0 0 0 0 0 0 0 127 0" result="hardAlpha"/>
<feMorphology radius="1.42395" operator="erode" in="SourceAlpha" result="effect2_dropShadow_18083_26174"/>
<feOffset dy="7.11975"/>
<feGaussianBlur stdDeviation="4.27185"/>
<feComposite in2="hardAlpha" operator="out"/>
<feColorMatrix type="matrix" values="0 0 0 0 0.294118 0 0 0 0 0.333333 0 0 0 0 0.388235 0 0 0 0.08 0"/>
<feBlend mode="normal" in2="effect1_dropShadow_18083_26174" result="effect2_dropShadow_18083_26174"/>
<feBlend mode="normal" in="SourceGraphic" in2="effect2_dropShadow_18083_26174" result="shape"/>
</filter>
<filter id="filter1_dd_18083_26174" x="42.7119" y="58.905" width="97.5512" height="40.3728" filterUnits="userSpaceOnUse" color-interpolation-filters="sRGB">
<feFlood flood-opacity="0" result="BackgroundImageFix"/>
<feColorMatrix in="SourceAlpha" type="matrix" values="0 0 0 0 0 0 0 0 0 0 0 0 0 0 0 0 0 0 127 0" result="hardAlpha"/>
<feMorphology radius="1.42395" operator="erode" in="SourceAlpha" result="effect1_dropShadow_18083_26174"/>
<feOffset dy="7.11975"/>
<feGaussianBlur stdDeviation="4.27185"/>
<feComposite in2="hardAlpha" operator="out"/>
<feColorMatrix type="matrix" values="0 0 0 0 0.611765 0 0 0 0 0.639216 0 0 0 0 0.686275 0 0 0 0.08 0"/>
<feBlend mode="normal" in2="BackgroundImageFix" result="effect1_dropShadow_18083_26174"/>
<feColorMatrix in="SourceAlpha" type="matrix" values="0 0 0 0 0 0 0 0 0 0 0 0 0 0 0 0 0 0 127 0" result="hardAlpha"/>
<feMorphology radius="1.42395" operator="erode" in="SourceAlpha" result="effect2_dropShadow_18083_26174"/>
<feOffset dy="2.8479"/>
<feGaussianBlur stdDeviation="1.42395"/>
<feComposite in2="hardAlpha" operator="out"/>
<feColorMatrix type="matrix" values="0 0 0 0 0.419608 0 0 0 0 0.447059 0 0 0 0 0.501961 0 0 0 0.03 0"/>
<feBlend mode="normal" in2="effect1_dropShadow_18083_26174" result="effect2_dropShadow_18083_26174"/>
<feBlend mode="normal" in="SourceGraphic" in2="effect2_dropShadow_18083_26174" result="shape"/>
</filter>
<filter id="filter2_dd_18083_26174" x="39.9337" y="8.29053" width="72.0153" height="69.8107" filterUnits="userSpaceOnUse" color-interpolation-filters="sRGB">
<feFlood flood-opacity="0" result="BackgroundImageFix"/>
<feColorMatrix in="SourceAlpha" type="matrix" values="0 0 0 0 0 0 0 0 0 0 0 0 0 0 0 0 0 0 127 0" result="hardAlpha"/>
<feMorphology radius="1.53676" operator="erode" in="SourceAlpha" result="effect1_dropShadow_18083_26174"/>
<feOffset dy="3.07351"/>
<feGaussianBlur stdDeviation="1.53676"/>
<feComposite in2="hardAlpha" operator="out"/>
<feColorMatrix type="matrix" values="0 0 0 0 0.0901961 0 0 0 0 0.219608 0 0 0 0 0.482353 0 0 0 0.03 0"/>
<feBlend mode="normal" in2="BackgroundImageFix" result="effect1_dropShadow_18083_26174"/>
<feColorMatrix in="SourceAlpha" type="matrix" values="0 0 0 0 0 0 0 0 0 0 0 0 0 0 0 0 0 0 127 0" result="hardAlpha"/>
<feMorphology radius="1.53676" operator="erode" in="SourceAlpha" result="effect2_dropShadow_18083_26174"/>
<feOffset dy="7.68378"/>
<feGaussianBlur stdDeviation="4.61027"/>
<feComposite in2="hardAlpha" operator="out"/>
<feColorMatrix type="matrix" values="0 0 0 0 0.0902477 0 0 0 0 0.2203 0 0 0 0 0.480404 0 0 0 0.08 0"/>
<feBlend mode="normal" in2="effect1_dropShadow_18083_26174" result="effect2_dropShadow_18083_26174"/>
<feBlend mode="normal" in="SourceGraphic" in2="effect2_dropShadow_18083_26174" result="shape"/>
</filter>
<linearGradient id="paint0_linear_18083_26174" x1="59.1108" y1="141.208" x2="75.9524" y2="18.2455" gradientUnits="userSpaceOnUse">
<stop stop-color="#E5E7EB"/>
<stop offset="0.645768" stop-color="#F3F4F6"/>
</linearGradient>
<linearGradient id="paint1_linear_18083_26174" x1="28.7008" y1="35.3582" x2="28.7008" y2="103.817" gradientUnits="userSpaceOnUse">
<stop stop-color="#F6F7F9"/>
<stop offset="1" stop-color="#4B5563"/>
</linearGradient>
<linearGradient id="paint2_linear_18083_26174" x1="29.1359" y1="74.7544" x2="28.6997" y2="87.8072" gradientUnits="userSpaceOnUse">
<stop stop-color="#9CA3AF"/>
<stop offset="1" stop-color="#4B5563"/>
</linearGradient>
<linearGradient id="paint3_linear_18083_26174" x1="22.3389" y1="69.9321" x2="35.5274" y2="69.9321" gradientUnits="userSpaceOnUse">
<stop stop-color="#F6F7F9"/>
<stop offset="0.8" stop-color="#E5E7EB"/>
</linearGradient>
<linearGradient id="paint4_linear_18083_26174" x1="137.969" y1="66.6589" x2="35.767" y2="71.611" gradientUnits="userSpaceOnUse">
<stop stop-color="#E5E7EB"/>
<stop offset="1" stop-color="#9CA3AF"/>
</linearGradient>
</defs>
</svg>
