<svg width="18" height="22" viewBox="0 0 18 22" fill="none" xmlns="http://www.w3.org/2000/svg">
<g id="Group 427319044">
<path id="Vector" d="M15.216 21.2944H4.94736C4.26731 21.2937 3.61535 21.0384 3.13448 20.5846C2.65361 20.1307 2.38311 19.5155 2.38232 18.8737V15.7122C2.38232 15.6056 2.42722 15.5033 2.50712 15.4279C2.58703 15.3525 2.69541 15.3101 2.80841 15.3101C2.92142 15.3101 3.02979 15.3525 3.1097 15.4279C3.18961 15.5033 3.2345 15.6056 3.2345 15.7122V18.8737C3.23506 19.3022 3.4157 19.7131 3.73681 20.0161C4.05791 20.3192 4.49325 20.4896 4.94736 20.4902H15.216C15.6702 20.4896 16.1056 20.3192 16.4267 20.0161C16.7479 19.7131 16.9286 19.3023 16.9293 18.8737V15.251C16.9293 15.1443 16.9742 15.0421 17.0541 14.9667C17.134 14.8912 17.2424 14.8489 17.3554 14.8489C17.4684 14.8489 17.5768 14.8912 17.6567 14.9667C17.7366 15.0421 17.7815 15.1443 17.7815 15.251V18.8737C17.7806 19.5155 17.51 20.1308 17.0291 20.5846C16.5481 21.0384 15.8961 21.2937 15.216 21.2944Z" fill="currentColor"/>
<path id="Vector (Stroke)" fill-rule="evenodd" clip-rule="evenodd" d="M17.3558 15.0543C17.3006 15.0543 17.2478 15.075 17.2088 15.1118C17.1698 15.1486 17.1479 15.1985 17.1479 15.2506V18.8732C17.1471 19.3564 16.9434 19.8198 16.5814 20.1613C16.2193 20.5029 15.7286 20.695 15.2167 20.6956H4.94774C4.43587 20.695 3.94488 20.5029 3.58293 20.1613C3.22098 19.8197 3.01736 19.3566 3.01672 18.8735L3.01672 15.7118C3.01672 15.6598 2.99482 15.6098 2.95582 15.573C2.91683 15.5362 2.86394 15.5156 2.80879 15.5156C2.75365 15.5156 2.70076 15.5362 2.66176 15.573C2.62277 15.6098 2.60086 15.6598 2.60086 15.7118V18.8731C2.60162 19.4604 2.84913 20.0233 3.28912 20.4386C3.72914 20.8538 4.32572 21.0874 4.948 21.0881H15.2162C15.8385 21.0874 16.4351 20.8538 16.8752 20.4386C17.3153 20.0233 17.5629 19.4603 17.5637 18.873V15.2506C17.5637 15.1985 17.5418 15.1486 17.5028 15.1118C17.4638 15.075 17.4109 15.0543 17.3558 15.0543ZM16.9002 14.8207C17.0211 14.7066 17.1849 14.6426 17.3558 14.6426C17.5267 14.6426 17.6905 14.7066 17.8113 14.8207C17.9322 14.9347 18 15.0893 18 15.2506V18.8732C17.9991 19.5696 17.7055 20.2374 17.1837 20.7298C16.6619 21.2221 15.9545 21.4991 15.2167 21.4999H4.94774C4.20993 21.4991 3.50232 21.2221 2.9806 20.7297C2.45888 20.2374 2.16541 19.5698 2.16455 18.8735L2.16455 15.7118C2.16455 15.5506 2.23243 15.3959 2.35324 15.2819C2.47406 15.1679 2.63793 15.1038 2.80879 15.1038C2.97966 15.1038 3.14352 15.1679 3.26434 15.2819C3.38516 15.3959 3.45303 15.5506 3.45303 15.7118V18.8731C3.45357 19.2471 3.61123 19.6057 3.89145 19.8701C4.1717 20.1346 4.55167 20.2834 4.94802 20.2839H15.2161C15.6125 20.2834 15.9926 20.1346 16.2729 19.8701C16.5532 19.6056 16.711 19.247 16.7116 18.8729V15.2506C16.7116 15.0893 16.7794 14.9347 16.9002 14.8207Z" fill="currentColor"/>
<g id="Vector_2">
<path d="M17.354 14.5029C17.241 14.5029 17.1326 14.4605 17.0527 14.3851C16.9728 14.3097 16.9279 14.2074 16.9279 14.1008V4.88186C16.9275 4.76786 16.9017 4.65522 16.852 4.55128C16.8024 4.44735 16.7301 4.35446 16.6399 4.27869L13.5848 1.716C13.4282 1.58383 13.2256 1.51057 13.0156 1.51011H5.37372C4.80626 1.51097 4.26233 1.72417 3.86119 2.10296C3.46006 2.48175 3.23448 2.99522 3.23392 3.53075V8.43135C3.23392 8.538 3.18902 8.64028 3.10912 8.71569C3.02921 8.7911 2.92083 8.83347 2.80783 8.83347C2.69482 8.83347 2.58645 8.7911 2.50654 8.71569C2.42663 8.64028 2.38174 8.538 2.38174 8.43135V3.53075C2.38253 2.78199 2.69797 2.06408 3.25887 1.53451C3.81976 1.00494 4.58032 0.706945 5.37372 0.705881H13.0156C13.4342 0.705804 13.8382 0.850754 14.1511 1.11323L17.2061 3.67632C17.3867 3.82772 17.5312 4.01351 17.6301 4.22145C17.729 4.42938 17.7801 4.65474 17.7801 4.88267V14.1008C17.7801 14.2074 17.7352 14.3097 17.6553 14.3851C17.5754 14.4605 17.467 14.5029 17.354 14.5029Z" fill="currentColor"/>
<path fill-rule="evenodd" clip-rule="evenodd" d="M5.37371 0.5L13.0155 0.5C13.4875 0.499924 13.9432 0.663381 14.296 0.959355L17.351 3.52242C17.5546 3.69315 17.7175 3.90265 17.8291 4.13712C17.9406 4.37157 17.9983 4.62567 17.9982 4.88267V14.1008C17.9982 14.262 17.9303 14.4167 17.8095 14.5307C17.6887 14.6447 17.5248 14.7088 17.354 14.7088C17.1831 14.7088 17.0192 14.6447 16.8984 14.5307C16.7776 14.4167 16.7097 14.262 16.7097 14.1008L16.7097 4.8825C16.7094 4.79756 16.6901 4.71333 16.6531 4.63588C16.6161 4.55837 16.5622 4.48909 16.4949 4.43258L13.4399 1.86988C13.3232 1.77141 13.1718 1.71639 13.0153 1.716H5.37389C4.86426 1.71681 4.37575 1.9083 4.01549 2.2485C3.6552 2.58872 3.45258 3.0499 3.45206 3.5309V8.43135C3.45206 8.5926 3.38418 8.74725 3.26336 8.86127C3.14254 8.9753 2.97868 9.03935 2.80782 9.03935C2.63695 9.03935 2.47309 8.9753 2.35227 8.86127C2.23145 8.74725 2.16357 8.5926 2.16357 8.43135V3.53075C2.16442 2.72747 2.50283 1.9571 3.10456 1.38897C3.7063 0.820839 4.52254 0.501142 5.37371 0.5ZM14.0061 1.2671C13.7332 1.03814 13.3808 0.911701 13.0156 0.911768H5.37386C4.63829 0.912794 3.93317 1.18909 3.41315 1.68007C2.89311 2.17106 2.60065 2.83664 2.59989 3.53085V8.43135C2.59989 8.4834 2.62179 8.53331 2.66079 8.57011C2.69978 8.60691 2.75267 8.62759 2.80782 8.62759C2.86296 8.62759 2.91585 8.60691 2.95484 8.57011C2.99384 8.53331 3.01575 8.4834 3.01575 8.43135V3.53075C3.01637 2.94071 3.26491 2.37477 3.70688 1.95742C4.14884 1.54007 4.74814 1.30517 5.37336 1.30423L13.0156 1.30423C13.279 1.3048 13.5335 1.39663 13.7299 1.56228L16.7848 4.12481C16.8979 4.21983 16.9887 4.33637 17.0509 4.4667C17.1132 4.59702 17.1456 4.73828 17.146 4.88123L17.146 14.1008C17.146 14.1528 17.1679 14.2028 17.2069 14.2396C17.2459 14.2764 17.2988 14.297 17.354 14.297C17.4091 14.297 17.462 14.2764 17.501 14.2396C17.54 14.2028 17.5619 14.1528 17.5619 14.1008V4.88267C17.5619 4.68383 17.5174 4.48718 17.431 4.30578C17.3447 4.12438 17.2187 3.9623 17.0612 3.83022L14.0061 1.2671Z" fill="currentColor"/>
</g>
<path id="Vector_3" d="M17.332 5.07132H14.7866C14.3334 5.07079 13.8989 4.90064 13.5785 4.59821C13.258 4.29577 13.0777 3.88574 13.0771 3.45803V1.20094C13.0771 1.0943 13.122 0.992017 13.2019 0.916605C13.2819 0.841194 13.3902 0.798828 13.5032 0.798828C13.6162 0.798828 13.7246 0.841194 13.8045 0.916605C13.8844 0.992017 13.9293 1.0943 13.9293 1.20094V3.45803C13.9295 3.67254 14.0199 3.8782 14.1807 4.02988C14.3414 4.18156 14.5593 4.26687 14.7866 4.26709H17.332C17.445 4.26709 17.5534 4.30945 17.6333 4.38486C17.7132 4.46027 17.7581 4.56255 17.7581 4.6692C17.7581 4.77585 17.7132 4.87813 17.6333 4.95354C17.5534 5.02895 17.445 5.07132 17.332 5.07132Z" fill="currentColor"/>
<path id="Vector (Stroke)_2" fill-rule="evenodd" clip-rule="evenodd" d="M13.5036 1.00454C13.4485 1.00454 13.3956 1.02522 13.3566 1.06202C13.3176 1.09882 13.2957 1.14873 13.2957 1.20077V3.45772C13.2962 3.83087 13.4535 4.1886 13.7331 4.45246C14.0127 4.7163 14.3917 4.86475 14.7871 4.86526H17.3324C17.3876 4.86526 17.4405 4.84459 17.4795 4.80779C17.5184 4.77099 17.5404 4.72108 17.5404 4.66903C17.5404 4.61699 17.5184 4.56707 17.4795 4.53027C17.4405 4.49347 17.3876 4.4728 17.3324 4.4728H14.787C14.5019 4.47253 14.2284 4.36554 14.0268 4.17529C13.8252 3.98505 13.7118 3.7271 13.7115 3.45806L13.7115 1.20077C13.7115 1.14873 13.6896 1.09882 13.6506 1.06202C13.6117 1.02522 13.5588 1.00454 13.5036 1.00454ZM13.0481 0.770853C13.1689 0.656831 13.3328 0.592773 13.5036 0.592773C13.6745 0.592773 13.8383 0.65683 13.9592 0.770853C14.08 0.884875 14.1479 1.03952 14.1479 1.20077L14.1479 3.45765C14.148 3.61763 14.2154 3.77101 14.3353 3.88413C14.4551 3.9972 14.6176 4.06082 14.787 4.06103M14.787 4.06103H17.3324C17.5033 4.06103 17.6672 4.12509 17.788 4.23911C17.9088 4.35313 17.9767 4.50778 17.9767 4.66903C17.9767 4.83028 17.9088 4.98493 17.788 5.09895C17.6672 5.21298 17.5033 5.27703 17.3324 5.27703H14.787C14.276 5.27643 13.7859 5.0846 13.4246 4.74362C13.0633 4.40264 12.86 3.94034 12.8594 3.45811L12.8594 1.20077C12.8594 1.03952 12.9273 0.884874 13.0481 0.770853" fill="currentColor"/>
<g id="Group 427319045">
<path id="Vector_4" d="M8.92998 13.9252C8.60264 13.9252 8.58193 13.9213 8.55186 13.9159C8.46199 13.8993 8.38077 13.8518 8.32232 13.7816C8.26387 13.7114 8.23189 13.6229 8.23193 13.5315V10.3909C8.23193 10.2873 8.27309 10.1879 8.34635 10.1147C8.4196 10.0414 8.51896 10.0002 8.62256 10.0002C8.72616 10.0002 8.82552 10.0414 8.89877 10.1147C8.97203 10.1879 9.01318 10.2873 9.01318 10.3909V13.1436C9.19717 13.1436 9.42607 13.1436 9.64209 13.1409H9.64443C9.74803 13.1406 9.84751 13.1814 9.92099 13.2545C9.99447 13.3275 10.0359 13.4267 10.0362 13.5303C10.0365 13.6339 9.99568 13.7334 9.92265 13.8069C9.84961 13.8804 9.75038 13.9218 9.64678 13.9221C9.31436 13.9245 9.08701 13.9252 8.92998 13.9252Z" fill="currentColor"/>
<path id="Vector_5" d="M12.3117 13.9247C11.7816 13.9247 11.2641 13.7028 10.9266 13.3306C10.892 13.2926 10.8652 13.2481 10.8478 13.1998C10.8304 13.1514 10.8227 13.1001 10.8252 13.0488C10.8276 12.9975 10.8402 12.9472 10.8621 12.9007C10.8841 12.8542 10.915 12.8126 10.953 12.778C10.9911 12.7435 11.0356 12.7169 11.084 12.6996C11.1324 12.6823 11.1837 12.6748 11.235 12.6774C11.2864 12.68 11.3367 12.6927 11.3831 12.7147C11.4295 12.7368 11.4711 12.7678 11.5055 12.8059C11.6973 13.0173 11.9984 13.1434 12.3117 13.1434C12.6164 13.1434 12.8316 12.961 12.8629 12.7841C12.9051 12.5497 12.5895 12.4048 12.4492 12.3544C11.9621 12.1747 11.5293 11.9821 11.5117 11.9739C11.4929 11.9656 11.4747 11.9558 11.4574 11.9446C11.2961 11.8404 11.1683 11.6918 11.0895 11.5167C11.0106 11.3416 10.984 11.1474 11.0129 10.9575C11.073 10.5388 11.3793 10.1974 11.8125 10.0669C12.6719 9.80868 13.375 10.3907 13.4059 10.4157C13.4844 10.4824 13.5335 10.5774 13.5423 10.6801C13.5511 10.7828 13.519 10.8848 13.4529 10.9639C13.3868 11.043 13.2922 11.0928 13.1896 11.1025C13.087 11.1121 12.9847 11.0808 12.9051 11.0153C12.893 11.0059 12.4816 10.6809 12.0379 10.8149C11.8348 10.8763 11.7941 11.0126 11.7863 11.0688C11.7799 11.1071 11.7838 11.1464 11.7975 11.1827C11.8112 11.219 11.8343 11.251 11.8645 11.2755C11.9746 11.3235 12.3332 11.479 12.7211 11.6216C13.5125 11.9138 13.7113 12.4849 13.6332 12.9224C13.5281 13.5028 12.9727 13.9247 12.3117 13.9247Z" fill="currentColor"/>
<path id="Vector_6" d="M7.09064 13.9247C7.028 13.9248 6.96627 13.9097 6.91066 13.8809C6.85505 13.8521 6.80719 13.8103 6.77111 13.7591L4.55978 10.6153C4.53028 10.5734 4.50935 10.526 4.49816 10.4759C4.48698 10.4258 4.48577 10.374 4.4946 10.3235C4.50343 10.2729 4.52214 10.2246 4.54964 10.1813C4.57714 10.138 4.61291 10.1005 4.6549 10.071C4.69688 10.0415 4.74427 10.0206 4.79435 10.0094C4.84443 9.99821 4.89622 9.997 4.94676 10.0058C4.99731 10.0147 5.04562 10.0334 5.08894 10.0609C5.13226 10.0884 5.16974 10.1241 5.19923 10.1661L7.41017 13.3095C7.45127 13.368 7.47554 13.4366 7.48033 13.5079C7.48511 13.5792 7.47024 13.6505 7.43733 13.714C7.40441 13.7774 7.35472 13.8306 7.29366 13.8678C7.2326 13.9049 7.16251 13.9246 7.09103 13.9247H7.09064Z" fill="currentColor"/>
<path id="Vector_7" d="M4.72014 13.9249C4.64863 13.9248 4.57852 13.905 4.51745 13.8678C4.45638 13.8306 4.4067 13.7774 4.37382 13.7139C4.34094 13.6503 4.32612 13.579 4.33098 13.5077C4.33584 13.4363 4.3602 13.3677 4.40139 13.3092L6.61584 10.1659C6.67551 10.0812 6.76639 10.0237 6.86847 10.006C6.97055 9.98829 7.07548 10.0119 7.16018 10.0716C7.24487 10.1312 7.30239 10.2221 7.32008 10.3242C7.33777 10.4263 7.31419 10.5312 7.25451 10.6159L5.04006 13.7592C5.00394 13.8105 4.95602 13.8523 4.90033 13.8811C4.84465 13.91 4.78284 13.925 4.72014 13.9249Z" fill="currentColor"/>
</g>
<g id="Vector_8">
<path d="M1.70947 18.0371C1.31395 18.0371 0.934634 17.8888 0.654961 17.6248C0.375288 17.3609 0.218169 17.0029 0.218169 16.6296C0.218169 16.2564 0.375288 15.8984 0.654961 15.6345C0.934634 15.3705 1.31395 15.2222 1.70947 15.2222H3.64475C3.75776 15.2222 3.86613 15.2646 3.94604 15.34C4.02595 15.4154 4.07084 15.5177 4.07084 15.6244C4.07084 15.731 4.02595 15.8333 3.94604 15.9087C3.86613 15.9841 3.75776 16.0265 3.64475 16.0265H1.70947C1.53996 16.0265 1.3774 16.09 1.25754 16.2031C1.13768 16.3163 1.07034 16.4697 1.07034 16.6296C1.07034 16.7896 1.13768 16.943 1.25754 17.0562C1.3774 17.1693 1.53996 17.2328 1.70947 17.2328H2.36564C2.47865 17.2328 2.58702 17.2752 2.66693 17.3506C2.74684 17.426 2.79173 17.5283 2.79173 17.6349C2.79173 17.7416 2.74684 17.8439 2.66693 17.9193C2.58702 17.9947 2.47865 18.0371 2.36564 18.0371H1.70947Z" fill="currentColor"/>
<path fill-rule="evenodd" clip-rule="evenodd" d="M1.70946 15.4281C1.3718 15.4281 1.04797 15.5547 0.809207 15.78C0.570446 16.0054 0.436312 16.311 0.436312 16.6297C0.436312 16.9483 0.570446 17.2539 0.809207 17.4793C1.04797 17.7046 1.3718 17.8312 1.70946 17.8312H2.36563C2.42078 17.8312 2.47366 17.8105 2.51266 17.7737C2.55165 17.7369 2.57356 17.687 2.57356 17.6349C2.57356 17.5829 2.55165 17.533 2.51266 17.4962C2.47366 17.4594 2.42078 17.4387 2.36563 17.4387H1.70946C1.48209 17.4387 1.26404 17.3535 1.10326 17.2017C0.942493 17.05 0.852172 16.8442 0.852172 16.6297C0.852172 16.4151 0.942493 16.2093 1.10326 16.0576C1.26404 15.9058 1.48209 15.8206 1.70946 15.8206H3.64474C3.69989 15.8206 3.75277 15.7999 3.79177 15.7631C3.83076 15.7263 3.85267 15.6764 3.85267 15.6244C3.85267 15.5723 3.83076 15.5224 3.79177 15.4856C3.75277 15.4488 3.69989 15.4281 3.64474 15.4281H1.70946ZM0.500688 15.4889C0.821274 15.1863 1.25608 15.0164 1.70946 15.0164H3.64474C3.8156 15.0164 3.97947 15.0804 4.10029 15.1944C4.22111 15.3085 4.28898 15.4631 4.28898 15.6244C4.28898 15.7856 4.22111 15.9403 4.10029 16.0543C3.97947 16.1683 3.8156 16.2324 3.64474 16.2324H1.70946C1.59781 16.2324 1.49073 16.2742 1.41178 16.3487C1.33284 16.4232 1.28848 16.5243 1.28848 16.6297C1.28848 16.735 1.33284 16.8361 1.41178 16.9106C1.49073 16.9851 1.59781 17.0269 1.70946 17.0269H2.36563C2.53649 17.0269 2.70036 17.091 2.82118 17.205C2.942 17.319 3.00987 17.4737 3.00987 17.6349C3.00987 17.7962 2.942 17.9508 2.82118 18.0649C2.70036 18.1789 2.53649 18.2429 2.36563 18.2429H1.70946C1.25608 18.2429 0.821274 18.073 0.500688 17.7704C0.180103 17.4679 0 17.0575 0 16.6297C0 16.2018 0.180103 15.7914 0.500688 15.4889Z" fill="currentColor"/>
</g>
<path id="Vector_9" d="M0.649719 16.916C0.536714 16.916 0.428337 16.8736 0.34843 16.7982C0.268524 16.7228 0.223633 16.6205 0.223633 16.5139L0.241955 9.43662C0.242632 9.06377 0.400049 8.70641 0.679649 8.44299C0.959249 8.17957 1.33818 8.03162 1.73326 8.03162L17.3548 8.02881C17.4678 8.02881 17.5762 8.07117 17.6561 8.14659C17.736 8.222 17.7809 8.32428 17.7809 8.43093V15.6244C17.7809 15.731 17.736 15.8333 17.6561 15.9087C17.5762 15.9841 17.4678 16.0265 17.3548 16.0265H2.15849C2.04548 16.0265 1.93711 15.9841 1.8572 15.9087C1.77729 15.8333 1.7324 15.731 1.7324 15.6244C1.7324 15.5177 1.77729 15.4155 1.8572 15.3401C1.93711 15.2646 2.04548 15.2223 2.15849 15.2223H16.9279V8.83063L1.73198 8.83344C1.56247 8.83344 1.3999 8.89699 1.28004 9.01011C1.16018 9.12323 1.09285 9.27665 1.09285 9.43662L1.07453 16.5139C1.07453 16.6203 1.02981 16.7224 0.950181 16.7978C0.870551 16.8732 0.762502 16.9157 0.649719 16.916Z" fill="currentColor" stroke="#1F2937" stroke-width="0.4"/>
</g>
</svg>
