<svg width="10" height="14" viewBox="0 0 10 14" fill="none" xmlns="http://www.w3.org/2000/svg">
<g id="Icon">
<path id="Vector" d="M5.81738 9.40009C5.81738 9.57381 5.87569 9.7428 5.98349 9.88153C6.09129 10.0203 6.24272 10.1212 6.41491 10.1691C6.5871 10.217 6.77069 10.2092 6.93792 10.147C7.10516 10.0847 7.24696 9.9714 7.3419 9.82409L9.55938 7.6745C9.63597 7.60017 9.69672 7.51194 9.73815 7.41484C9.77958 7.31775 9.80089 7.21369 9.80085 7.10861C9.80081 7.00353 9.77943 6.89949 9.73793 6.80243C9.69643 6.70536 9.63562 6.61717 9.55897 6.5429C9.48232 6.46862 9.39134 6.40971 9.29122 6.36953C9.19109 6.32936 9.08379 6.3087 8.97543 6.30873C8.86708 6.30877 8.75979 6.3295 8.6597 6.36975C8.5596 6.41 8.46866 6.46897 8.39207 6.5433L7.46812 7.43929V1.4001C7.46812 1.18792 7.3812 0.984441 7.2265 0.834412C7.07179 0.684383 6.86195 0.600098 6.64316 0.600098C6.42437 0.600098 6.21454 0.684383 6.05983 0.834412C5.90512 0.984441 5.81821 1.18792 5.81821 1.4001V9.36009V9.40009H5.81738Z" fill="currentColor"/>
<path id="Vector_2" d="M4.19322 4.60005C4.19322 4.42634 4.13491 4.25735 4.02711 4.11861C3.91931 3.97988 3.76788 3.87894 3.59569 3.83105C3.4235 3.78316 3.23992 3.79092 3.07268 3.85316C2.90544 3.91541 2.76364 4.02874 2.6687 4.17605L0.452044 6.32565C0.373253 6.39945 0.310406 6.48772 0.26717 6.58533C0.223935 6.68293 0.201178 6.78791 0.200226 6.89413C0.199275 7.00035 0.220147 7.1057 0.261627 7.20401C0.303106 7.30233 0.364362 7.39165 0.441819 7.46677C0.519276 7.54188 0.611384 7.60128 0.712768 7.64151C0.814152 7.68173 0.922782 7.70197 1.03232 7.70105C1.14186 7.70013 1.25011 7.67806 1.35075 7.63613C1.4514 7.5942 1.54243 7.53326 1.61853 7.45685L2.54331 6.56085V12.6C2.54331 12.8122 2.63022 13.0157 2.78493 13.1657C2.93964 13.3158 3.14947 13.4 3.36826 13.4C3.58705 13.4 3.79688 13.3158 3.95159 13.1657C4.1063 13.0157 4.19322 12.8122 4.19322 12.6V4.64005V4.60005Z" fill="currentColor"/>
</g>
</svg>
