<svg width="16" height="16" viewBox="0 0 16 16" fill="none" xmlns="http://www.w3.org/2000/svg">
<mask id="path-1-inside-1_6661_2641" fill="white">
<path d="M8.62028 7.84501C8.50245 7.84501 8.38462 7.8016 8.2916 7.70857C8.11175 7.52873 8.11175 7.23106 8.2916 7.05121L13.3769 1.96594C13.5567 1.78609 13.8544 1.78609 14.0342 1.96594C14.2141 2.14578 14.2141 2.44346 14.0342 2.6233L8.94896 7.70857C8.85594 7.8016 8.73811 7.84501 8.62028 7.84501Z"/>
<path d="M14.2017 5.24035C13.9474 5.24035 13.7366 5.0295 13.7366 4.77523V2.26361H11.2249C10.9707 2.26361 10.7598 2.05275 10.7598 1.79849C10.7598 1.54423 10.9707 1.33337 11.2249 1.33337H14.2017C14.4559 1.33337 14.6668 1.54423 14.6668 1.79849V4.77523C14.6668 5.0295 14.4559 5.24035 14.2017 5.24035Z"/>
<path d="M9.86063 14.6667H6.1397C2.77226 14.6667 1.3335 13.2279 1.3335 9.86051V6.13958C1.3335 2.77213 2.77226 1.33337 6.1397 1.33337H7.38001C7.63427 1.33337 7.84512 1.54423 7.84512 1.79849C7.84512 2.05275 7.63427 2.26361 7.38001 2.26361H6.1397C3.28078 2.26361 2.26373 3.28066 2.26373 6.13958V9.86051C2.26373 12.7194 3.28078 13.7365 6.1397 13.7365H9.86063C12.7195 13.7365 13.7366 12.7194 13.7366 9.86051V8.6202C13.7366 8.36593 13.9475 8.15508 14.2017 8.15508C14.456 8.15508 14.6668 8.36593 14.6668 8.6202V9.86051C14.6668 13.2279 13.2281 14.6667 9.86063 14.6667Z"/>
</mask>
<path d="M8.62028 7.84501C8.50245 7.84501 8.38462 7.8016 8.2916 7.70857C8.11175 7.52873 8.11175 7.23106 8.2916 7.05121L13.3769 1.96594C13.5567 1.78609 13.8544 1.78609 14.0342 1.96594C14.2141 2.14578 14.2141 2.44346 14.0342 2.6233L8.94896 7.70857C8.85594 7.8016 8.73811 7.84501 8.62028 7.84501Z" fill="#F6F7F9"/>
<path d="M14.2017 5.24035C13.9474 5.24035 13.7366 5.0295 13.7366 4.77523V2.26361H11.2249C10.9707 2.26361 10.7598 2.05275 10.7598 1.79849C10.7598 1.54423 10.9707 1.33337 11.2249 1.33337H14.2017C14.4559 1.33337 14.6668 1.54423 14.6668 1.79849V4.77523C14.6668 5.0295 14.4559 5.24035 14.2017 5.24035Z" fill="#F6F7F9"/>
<path d="M9.86063 14.6667H6.1397C2.77226 14.6667 1.3335 13.2279 1.3335 9.86051V6.13958C1.3335 2.77213 2.77226 1.33337 6.1397 1.33337H7.38001C7.63427 1.33337 7.84512 1.54423 7.84512 1.79849C7.84512 2.05275 7.63427 2.26361 7.38001 2.26361H6.1397C3.28078 2.26361 2.26373 3.28066 2.26373 6.13958V9.86051C2.26373 12.7194 3.28078 13.7365 6.1397 13.7365H9.86063C12.7195 13.7365 13.7366 12.7194 13.7366 9.86051V8.6202C13.7366 8.36593 13.9475 8.15508 14.2017 8.15508C14.456 8.15508 14.6668 8.36593 14.6668 8.6202V9.86051C14.6668 13.2279 13.2281 14.6667 9.86063 14.6667Z" fill="#F6F7F9"/>
<path d="M8.2916 7.70857L8.99871 7.00147L8.99871 7.00147L8.2916 7.70857ZM8.2916 7.05121L7.58449 6.3441L7.58449 6.3441L8.2916 7.05121ZM13.3769 1.96594L12.6698 1.25883L12.6698 1.25883L13.3769 1.96594ZM14.0342 1.96594L13.3271 2.67304L13.3271 2.67305L14.0342 1.96594ZM14.0342 2.6233L13.3271 1.9162L13.3271 1.9162L14.0342 2.6233ZM8.94896 7.70857L9.65607 8.41568H9.65607L8.94896 7.70857ZM13.7366 2.26361H14.7366V1.26361H13.7366V2.26361ZM8.62028 6.84501C8.75336 6.84501 8.89431 6.89707 8.99871 7.00147L7.58449 8.41568C7.87493 8.70612 8.25154 8.84501 8.62028 8.84501V6.84501ZM8.99871 7.00147C9.20939 7.21215 9.20938 7.54764 8.99871 7.75832L7.58449 6.3441C7.01412 6.91447 7.01412 7.84531 7.58449 8.41568L8.99871 7.00147ZM8.99871 7.75832L14.084 2.67305L12.6698 1.25883L7.58449 6.3441L8.99871 7.75832ZM14.084 2.67305C13.8733 2.88372 13.5378 2.88373 13.3271 2.67304L14.7413 1.25883C14.171 0.688461 13.2401 0.688463 12.6698 1.25883L14.084 2.67305ZM13.3271 2.67305C13.1164 2.46237 13.1164 2.12687 13.3271 1.9162L14.7413 3.33041C15.3117 2.76004 15.3117 1.8292 14.7413 1.25883L13.3271 2.67305ZM13.3271 1.9162L8.24186 7.00147L9.65607 8.41568L14.7413 3.33041L13.3271 1.9162ZM8.24186 7.00147C8.34625 6.89707 8.4872 6.84501 8.62028 6.84501V8.84501C8.98902 8.84501 9.36563 8.70612 9.65607 8.41568L8.24186 7.00147ZM14.2017 4.24035C14.4997 4.24035 14.7366 4.47721 14.7366 4.77523H12.7366C12.7366 5.58179 13.3951 6.24035 14.2017 6.24035V4.24035ZM14.7366 4.77523V2.26361H12.7366V4.77523H14.7366ZM13.7366 1.26361H11.2249V3.26361H13.7366V1.26361ZM11.2249 1.26361C11.523 1.26361 11.7598 1.50047 11.7598 1.79849H9.75982C9.75982 2.60504 10.4184 3.26361 11.2249 3.26361V1.26361ZM11.7598 1.79849C11.7598 2.09651 11.523 2.33337 11.2249 2.33337V0.333374C10.4184 0.333374 9.75982 0.991941 9.75982 1.79849H11.7598ZM11.2249 2.33337H14.2017V0.333374H11.2249V2.33337ZM14.2017 2.33337C13.9037 2.33337 13.6668 2.09651 13.6668 1.79849H15.6668C15.6668 0.991943 15.0082 0.333374 14.2017 0.333374V2.33337ZM13.6668 1.79849V4.77523H15.6668V1.79849H13.6668ZM13.6668 4.77523C13.6668 4.47721 13.9037 4.24035 14.2017 4.24035V6.24035C15.0082 6.24035 15.6668 5.58178 15.6668 4.77523H13.6668ZM9.86063 13.6667H6.1397V15.6667H9.86063V13.6667ZM6.1397 13.6667C4.57077 13.6667 3.68927 13.3277 3.18091 12.8193C2.67255 12.3109 2.3335 11.4294 2.3335 9.86051H0.333496C0.333496 11.659 0.71382 13.1806 1.7667 14.2335C2.81958 15.2864 4.34119 15.6667 6.1397 15.6667V13.6667ZM2.3335 9.86051V6.13958H0.333496V9.86051H2.3335ZM2.3335 6.13958C2.3335 4.57065 2.67255 3.68915 3.18091 3.18079C3.68927 2.67243 4.57077 2.33337 6.1397 2.33337V0.333374C4.34119 0.333374 2.81958 0.713698 1.7667 1.76658C0.71382 2.81946 0.333496 4.34106 0.333496 6.13958H2.3335ZM6.1397 2.33337H7.38001V0.333374H6.1397V2.33337ZM7.38001 2.33337C7.08199 2.33337 6.84512 2.09651 6.84512 1.79849H8.84512C8.84512 0.991943 8.18656 0.333374 7.38001 0.333374V2.33337ZM6.84512 1.79849C6.84512 1.50047 7.08199 1.26361 7.38001 1.26361V3.26361C8.18656 3.26361 8.84512 2.60504 8.84512 1.79849H6.84512ZM7.38001 1.26361H6.1397V3.26361H7.38001V1.26361ZM6.1397 1.26361C4.63969 1.26361 3.32489 1.52001 2.42251 2.42239C1.52013 3.32477 1.26373 4.63956 1.26373 6.13958H3.26373C3.26373 4.78067 3.51585 4.15748 3.83673 3.83661C4.1576 3.51573 4.78079 3.26361 6.1397 3.26361V1.26361ZM1.26373 6.13958V9.86051H3.26373V6.13958H1.26373ZM1.26373 9.86051C1.26373 11.3605 1.52013 12.6753 2.42251 13.5777C3.32489 14.4801 4.63969 14.7365 6.1397 14.7365V12.7365C4.78079 12.7365 4.1576 12.4844 3.83673 12.1635C3.51585 11.8426 3.26373 11.2194 3.26373 9.86051H1.26373ZM6.1397 14.7365H9.86063V12.7365H6.1397V14.7365ZM9.86063 14.7365C11.3606 14.7365 12.6754 14.4801 13.5778 13.5777C14.4802 12.6753 14.7366 11.3605 14.7366 9.86051H12.7366C12.7366 11.2194 12.4845 11.8426 12.1636 12.1635C11.8427 12.4844 11.2195 12.7365 9.86063 12.7365V14.7365ZM14.7366 9.86051V8.6202H12.7366V9.86051H14.7366ZM14.7366 8.6202C14.7366 8.91822 14.4997 9.15508 14.2017 9.15508V7.15508C13.3952 7.15508 12.7366 7.81365 12.7366 8.6202H14.7366ZM14.2017 9.15508C13.9037 9.15508 13.6668 8.91822 13.6668 8.6202H15.6668C15.6668 7.81365 15.0083 7.15508 14.2017 7.15508V9.15508ZM13.6668 8.6202V9.86051H15.6668V8.6202H13.6668ZM13.6668 9.86051C13.6668 11.4294 13.3278 12.3109 12.8194 12.8193C12.3111 13.3277 11.4296 13.6667 9.86063 13.6667V15.6667C11.6591 15.6667 13.1807 15.2864 14.2336 14.2335C15.2865 13.1806 15.6668 11.659 15.6668 9.86051H13.6668Z" fill="#8ECFFF" mask="url(#path-1-inside-1_6661_2641)"/>
</svg>
