<svg width="24" height="24" viewBox="0 0 24 24" fill="none" xmlns="http://www.w3.org/2000/svg">
<path d="M12.9302 11.7675C12.7534 11.7675 12.5767 11.7023 12.4372 11.5628C12.1674 11.293 12.1674 10.8465 12.4372 10.5768L20.0651 2.94885C20.3348 2.67908 20.7813 2.67908 21.0511 2.94885C21.3209 3.21861 21.3209 3.66513 21.0511 3.93489L13.4232 11.5628C13.2837 11.7023 13.1069 11.7675 12.9302 11.7675Z" fill="currentColor"/>
<path d="M21.3023 7.86047C20.9209 7.86047 20.6046 7.54419 20.6046 7.16279V3.39535H16.8372C16.4558 3.39535 16.1395 3.07907 16.1395 2.69767C16.1395 2.31628 16.4558 2 16.8372 2H21.3023C21.6837 2 22 2.31628 22 2.69767V7.16279C22 7.54419 21.6837 7.86047 21.3023 7.86047Z" fill="currentColor"/>
<path d="M14.7907 22H9.2093C4.15814 22 2 19.8419 2 14.7907V9.2093C2 4.15814 4.15814 2 9.2093 2H11.0698C11.4512 2 11.7674 2.31628 11.7674 2.69767C11.7674 3.07907 11.4512 3.39535 11.0698 3.39535H9.2093C4.92093 3.39535 3.39535 4.92093 3.39535 9.2093V14.7907C3.39535 19.0791 4.92093 20.6047 9.2093 20.6047H14.7907C19.0791 20.6047 20.6047 19.0791 20.6047 14.7907V12.9302C20.6047 12.5488 20.9209 12.2326 21.3023 12.2326C21.6837 12.2326 22 12.5488 22 12.9302V14.7907C22 19.8419 19.8419 22 14.7907 22Z" fill="currentColor"/>
</svg>
