<svg width="24" height="24" viewBox="0 0 24 24" fill="none" xmlns="http://www.w3.org/2000/svg">
<path d="M11.5448 16.35C9.15482 16.35 7.21482 14.41 7.21482 12.02C7.21482 9.63 9.15482 7.69 11.5448 7.69C13.9348 7.69 15.8748 9.63 15.8748 12.02C15.8748 14.41 13.9348 16.35 11.5448 16.35ZM11.5448 9.19C9.98482 9.19 8.71482 10.46 8.71482 12.02C8.71482 13.58 9.98482 14.85 11.5448 14.85C13.1048 14.85 14.3748 13.58 14.3748 12.02C14.3748 10.46 13.1048 9.19 11.5448 9.19Z" fill="currentColor"/>
<path d="M11.5448 21.04C7.78482 21.04 4.23482 18.84 1.79482 15.02C0.734817 13.37 0.734817 10.68 1.79482 9.02C4.24482 5.2 7.79482 3 11.5448 3C15.2948 3 18.8448 5.2 21.2848 9.02C22.3448 10.67 22.3448 13.36 21.2848 15.02C18.8448 18.84 15.2948 21.04 11.5448 21.04ZM11.5448 4.5C8.31482 4.5 5.22482 6.44 3.06482 9.83C2.31482 11 2.31482 13.04 3.06482 14.21C5.22482 17.6 8.31482 19.54 11.5448 19.54C14.7748 19.54 17.8648 17.6 20.0248 14.21C20.7748 13.04 20.7748 11 20.0248 9.83C17.8648 6.44 14.7748 4.5 11.5448 4.5Z" fill="currentColor"/>
</svg>
