<svg width="20" height="20" viewBox="0 0 20 20" fill="none" xmlns="http://www.w3.org/2000/svg">
<g id="side-nav/faqs">
<g id="Vector">
<path d="M6.65116 19C6.41674 19 6.17394 18.939 5.95626 18.8168C5.47906 18.555 5.18605 18.0315 5.18605 17.4731V16.2342C2.65767 15.9637 1 14.0266 1 11.252V6.01698C1 3.01552 2.93395 1 5.81395 1H14.186C17.066 1 19 3.01552 19 6.01698V11.252C19 14.2535 17.066 16.269 14.186 16.269H11.0298L7.46323 18.747C7.22044 18.9128 6.93581 19 6.65116 19ZM5.81395 2.30004C3.65395 2.30004 2.25581 3.75715 2.25581 6.00825V11.2434C2.25581 13.4945 3.65395 14.9516 5.81395 14.9516C6.15721 14.9516 6.44186 15.2483 6.44186 15.606V17.4645C6.44186 17.5779 6.50884 17.6302 6.5507 17.6564C6.59256 17.6826 6.67629 17.7087 6.76838 17.6477L10.494 15.065C10.5944 14.9952 10.72 14.9516 10.8456 14.9516H14.1944C16.3544 14.9516 17.7526 13.4945 17.7526 11.2434V6.00825C17.7526 3.75715 16.3544 2.30004 14.1944 2.30004H5.81395Z" fill="currentColor"/>
<path d="M9.99985 10.0917C9.65659 10.0917 9.37194 9.79502 9.37194 9.43729V9.25409C9.37194 8.24197 10.0836 7.74463 10.3515 7.55267C10.6612 7.33454 10.7617 7.18622 10.7617 6.95937C10.7617 6.52311 10.4185 6.16535 9.99985 6.16535C9.58124 6.16535 9.23801 6.52311 9.23801 6.95937C9.23801 7.3171 8.95336 7.61376 8.6101 7.61376C8.26685 7.61376 7.98219 7.3171 7.98219 6.95937C7.98219 5.79892 8.88636 4.85657 9.99985 4.85657C11.1133 4.85657 12.0175 5.79892 12.0175 6.95937C12.0175 7.95404 11.3143 8.45136 11.0547 8.63459C10.7282 8.86144 10.6278 9.00979 10.6278 9.25409V9.43729C10.6278 9.80375 10.3431 10.0917 9.99985 10.0917Z" fill="currentColor"/>
<path d="M10 12.2642C9.64837 12.2642 9.37209 11.9676 9.37209 11.6098C9.37209 11.2521 9.65674 10.9555 10 10.9555C10.3433 10.9555 10.6279 11.2521 10.6279 11.6098C10.6279 11.9676 10.3516 12.2642 10 12.2642Z" fill="currentColor"/>
</g>
</g>
</svg>
