<svg xmlns="http://www.w3.org/2000/svg" width="20" height="20" viewBox="0 0 20 20" fill="none">
  <path d="M14.8474 19H5.15256C2.8586 19 1 17.131 1 14.8345V8.62403C1 7.48418 1.70326 6.05098 2.60744 5.34696L7.12 1.82684C8.47628 0.770804 10.6447 0.720516 12.0512 1.7095L17.2251 5.33858C18.2214 6.03422 19 7.52608 19 8.74136V14.8429C19 17.131 17.1414 19 14.8474 19ZM7.89023 2.81583L3.37767 6.33595C2.78326 6.8053 2.25581 7.86971 2.25581 8.62403V14.8345C2.25581 16.4353 3.55349 17.7428 5.15256 17.7428H14.8474C16.4465 17.7428 17.7442 16.4437 17.7442 14.8429V8.74136C17.7442 7.93676 17.1665 6.82206 16.5051 6.36947L11.3312 2.74039C10.3767 2.0699 8.80279 2.10342 7.89023 2.81583Z" fill="currentColor"/>
  <path d="M10 15.6475C9.65674 15.6475 9.37209 15.3625 9.37209 15.0189V12.5045C9.37209 12.1609 9.65674 11.8759 10 11.8759C10.3433 11.8759 10.6279 12.1609 10.6279 12.5045V15.0189C10.6279 15.3625 10.3433 15.6475 10 15.6475Z" fill="currentColor"/>
</svg>