<svg width="20" height="16" viewBox="0 0 20 16" fill="none" xmlns="http://www.w3.org/2000/svg">
<g id="Group">
<g id="Group_2">
<path id="Path (Stroke)" d="M2.22506 5.7073C2.41914 5.57914 2.68245 5.60073 2.85332 5.77159L4.10332 7.02159L4.16761 7.09972C4.29577 7.2938 4.27418 7.55711 4.10332 7.72797C3.93245 7.89883 3.66914 7.92042 3.47506 7.79226L3.39693 7.72797L2.50012 6.83116L1.60332 7.72797C1.40805 7.92323 1.0922 7.92323 0.896935 7.72797C0.701673 7.53271 0.701673 7.21685 0.896935 7.02159L2.14693 5.77159L2.22506 5.7073Z" fill="currentColor"/>
<path id="Path (Stroke)_2" d="M18.3971 8.27159C18.5923 8.07633 18.9082 8.07633 19.1035 8.27159C19.2987 8.46685 19.2987 8.78271 19.1035 8.97797L17.8535 10.228C17.6582 10.4232 17.3423 10.4232 17.1471 10.228L15.8971 8.97797L15.8328 8.89985C15.7046 8.70577 15.7262 8.44245 15.8971 8.27159C16.0679 8.10073 16.3313 8.07914 16.5253 8.2073L16.6035 8.27159L17.5003 9.1684L18.3971 8.27159Z" fill="currentColor"/>
<path id="Path (Stroke)_3" d="M16.9997 7.99967C16.9997 4.13422 13.8656 0.999469 10.0002 0.999349C7.79651 0.999349 5.83722 2.0243 4.55344 3.62142L4.30523 3.94857C4.14486 4.17316 3.83255 4.22518 3.60781 4.06494C3.38318 3.90458 3.33118 3.59227 3.49143 3.36751L3.62978 3.17952C5.08843 1.25369 7.39328 0 10.0002 0C14.4179 0.00011965 17.9999 3.58194 17.9999 7.99967C17.9999 8.61033 17.9261 9.20091 17.7989 9.76644L17.7663 9.86247C17.6707 10.0743 17.4363 10.1971 17.2007 10.144C16.9316 10.0833 16.7626 9.81597 16.8231 9.54671L16.898 9.16829C16.9637 8.78668 16.9997 8.39683 16.9997 7.99967Z" fill="currentColor"/>
<path id="Path (Stroke)_4" d="M15.9426 3.18467C16.2042 3.09679 16.4877 3.23717 16.5757 3.49879C16.6637 3.76054 16.5225 4.04392 16.2608 4.13193C14.2942 4.79315 12.1931 5.16625 10.0002 5.16627C7.94417 5.16627 5.96851 4.83906 4.10908 4.25319L3.7388 4.13193L3.64684 4.09043C3.44568 3.97364 3.34766 3.72785 3.42468 3.49879C3.50171 3.27003 3.72792 3.13366 3.95853 3.16188L4.05781 3.18467L4.40938 3.29941C6.17688 3.85635 8.05143 4.16692 10.0002 4.16692C12.0787 4.1669 14.0727 3.81338 15.9426 3.18467Z" fill="currentColor"/>
<path id="Path (Stroke)_5" d="M1.99707 7.9965C1.99707 7.38584 2.07084 6.79526 2.19808 6.22973C2.25873 5.96044 2.52609 5.79163 2.79541 5.85213C3.06482 5.91274 3.23444 6.18005 3.17383 6.44946C3.06108 6.95058 2.99642 7.46718 2.99642 7.9965C2.99655 11.8619 6.1313 14.996 9.99674 14.996C12.3483 14.996 14.4206 13.8304 15.6909 12.0476C15.8511 11.8228 16.1635 11.7704 16.3883 11.9304C16.6132 12.0906 16.6657 12.403 16.5055 12.6278C15.0575 14.66 12.6885 15.9962 9.99674 15.9962C5.57901 15.9962 1.9972 12.4142 1.99707 7.9965Z" fill="currentColor"/>
<path id="Path (Stroke)_6" d="M9.99775 10.8301C12.1907 10.8301 14.2917 11.2032 16.2583 11.8644C16.5201 11.9524 16.6613 12.2358 16.5733 12.4976C16.4853 12.7592 16.2018 12.8996 15.9401 12.8117C14.0702 12.183 12.0763 11.8295 9.99775 11.8294C7.91923 11.8294 5.92525 12.183 4.05537 12.8117C3.79369 12.8997 3.51031 12.7592 3.42223 12.4976C3.33425 12.2359 3.47475 11.9525 3.73636 11.8644C5.70307 11.2032 7.80469 10.8301 9.99775 10.8301Z" fill="currentColor"/>
<path id="Oval (Stroke)" d="M12.6255 7.99967C12.6255 5.97824 12.2826 4.17171 11.7482 2.889C11.4805 2.24654 11.1746 1.75863 10.8604 1.43962C10.5479 1.1225 10.2574 0.999349 10.0002 0.999349C9.74291 0.999349 9.45243 1.1225 9.13997 1.43962C8.82571 1.75863 8.5198 2.24654 8.25212 2.889C7.7177 4.17171 7.37484 5.97824 7.37484 7.99967C7.37484 10.0211 7.7177 11.8276 8.25212 13.1104C8.5198 13.7528 8.82571 14.2407 9.13997 14.5597C9.45243 14.8769 9.74291 15 10.0002 15C10.2574 15 10.5479 14.8769 10.8604 14.5597C11.1746 14.2407 11.4805 13.7528 11.7482 13.1104C12.2826 11.8276 12.6255 10.0211 12.6255 7.99967ZM13.6248 7.99967C13.6248 10.1203 13.2676 12.0635 12.6711 13.4953C12.3732 14.21 12.0059 14.8212 11.5724 15.2612C11.1372 15.7029 10.6057 15.9993 10.0002 15.9993C9.3946 15.9993 8.86308 15.7029 8.4279 15.2612C7.99444 14.8212 7.62708 14.21 7.32926 13.4953C6.7327 12.0635 6.37549 10.1203 6.37549 7.99967C6.37549 5.87909 6.7327 3.93581 7.32926 2.50407C7.62708 1.78934 7.99444 1.17813 8.4279 0.738118C8.86308 0.296429 9.3946 0 10.0002 0C10.6057 0 11.1372 0.296429 11.5724 0.738118C12.0059 1.17813 12.3732 1.78934 12.6711 2.50407C13.2676 3.93581 13.6248 5.87909 13.6248 7.99967Z" fill="currentColor"/>
</g>
</g>
</svg>
