<svg width="41" height="40" viewBox="0 0 41 40" fill="none" xmlns="http://www.w3.org/2000/svg">
<path d="M0.5 18C0.5 12.4087 0.5 9.61305 1.41345 7.4078C2.63137 4.46746 4.96746 2.13137 7.9078 0.913446C10.1131 0 12.9087 0 18.5 0H22.5C28.0913 0 30.8869 0 33.0922 0.913446C36.0325 2.13137 38.3686 4.46746 39.5866 7.4078C40.5 9.61305 40.5 12.4087 40.5 18V22C40.5 27.5913 40.5 30.3869 39.5866 32.5922C38.3686 35.5325 36.0325 37.8686 33.0922 39.0866C30.8869 40 28.0913 40 22.5 40H18.5C12.9087 40 10.1131 40 7.9078 39.0866C4.96746 37.8686 2.63137 35.5325 1.41345 32.5922C0.5 30.3869 0.5 27.5913 0.5 22V18Z" fill="var(--color-bg-info-tint)"/>
<g opacity="0.4">
<path fill-rule="evenodd" clip-rule="evenodd" d="M29.53 22.4594C29.8232 22.752 29.8237 23.2269 29.5311 23.52L24.5211 28.54C24.2285 28.8332 23.7536 28.8337 23.4604 28.5411C23.1672 28.2485 23.1668 27.7736 23.4594 27.4804L28.4694 22.4604C28.762 22.1672 29.2369 22.1668 29.53 22.4594Z" fill="#00518D"/>
<path fill-rule="evenodd" clip-rule="evenodd" d="M11.25 22.9902C11.25 22.576 11.5858 22.2402 12 22.2402H29C29.4142 22.2402 29.75 22.576 29.75 22.9902C29.75 23.4044 29.4142 23.7402 29 23.7402H12C11.5858 23.7402 11.25 23.4044 11.25 22.9902Z" fill="#00518D"/>
</g>
<path fill-rule="evenodd" clip-rule="evenodd" d="M17.5398 11.4594C17.833 11.752 17.8335 12.2269 17.5409 12.52L12.5309 17.54C12.2383 17.8332 11.7634 17.8337 11.4702 17.5411C11.177 17.2485 11.1765 16.7736 11.4691 16.4804L16.4791 11.4604C16.7717 11.1672 17.2466 11.1668 17.5398 11.4594Z" fill="#00518D"/>
<path fill-rule="evenodd" clip-rule="evenodd" d="M11.25 17.0102C11.25 16.596 11.5858 16.2602 12 16.2602H29C29.4142 16.2602 29.75 16.596 29.75 17.0102C29.75 17.4244 29.4142 17.7602 29 17.7602H12C11.5858 17.7602 11.25 17.4244 11.25 17.0102Z" fill="#00518D"/>
</svg>
