<svg width="130" height="29" viewBox="0 0 130 29" fill="none" xmlns="http://www.w3.org/2000/svg">
<g opacity="0.2">
<line y1="-1" x2="5.43405" y2="-1" transform="matrix(0.341997 -0.939701 0.939684 0.342043 89.0718 6.70056)" stroke="#8ECFFF" stroke-width="2"/>
<line y1="-1" x2="5.434" y2="-1" transform="matrix(0.499972 -0.866041 0.866009 0.500028 100.654 6.53101)" stroke="#8ECFFF" stroke-width="2"/>
<line y1="-1" x2="5.43393" y2="-1" transform="matrix(0.642759 -0.766069 0.76602 0.642816 112.298 6.36096)" stroke="#8ECFFF" stroke-width="2"/>
<line y1="-1" x2="5.43386" y2="-1" transform="matrix(0.766021 -0.642816 0.642759 0.766068 124.021 6.02136)" stroke="#8ECFFF" stroke-width="2"/>
<line y1="-1" x2="5.43386" y2="-1" transform="matrix(-0.766021 -0.642816 0.642759 -0.766068 8.00562 6.02136)" stroke="#8ECFFF" stroke-width="2"/>
<line y1="-1" x2="5.43393" y2="-1" transform="matrix(-0.642759 -0.766068 0.766021 -0.642816 19.7297 6.36096)" stroke="#8ECFFF" stroke-width="2"/>
<line y1="-1" x2="5.434" y2="-1" transform="matrix(-0.499972 -0.866042 0.866009 -0.500028 31.3735 6.53101)" stroke="#8ECFFF" stroke-width="2"/>
<line y1="-1" x2="5.43405" y2="-1" transform="matrix(-0.341997 -0.939701 0.939684 -0.342043 42.9561 6.70056)" stroke="#8ECFFF" stroke-width="2"/>
<line y1="-1" x2="5.43409" y2="-1" transform="matrix(-0.173635 -0.98481 0.984805 -0.173661 54.4961 6.87048)" stroke="#8ECFFF" stroke-width="2"/>
<line x1="65.0139" y1="6.87048" x2="65.0139" y2="1.43638" stroke="#8ECFFF" stroke-width="2"/>
<line y1="-1" x2="5.43409" y2="-1" transform="matrix(0.173635 -0.98481 0.984805 0.173661 77.5317 6.87048)" stroke="#8ECFFF" stroke-width="2"/>
<line y1="-1" x2="5.43405" y2="-1" transform="matrix(0.341997 -0.939701 0.939684 0.342043 76.8467 16.2103)" stroke="#8ECFFF" stroke-width="2"/>
<line y1="-1" x2="5.434" y2="-1" transform="matrix(0.499972 -0.866041 0.866009 0.500028 88.4275 16.0404)" stroke="#8ECFFF" stroke-width="2"/>
<line y1="-1" x2="5.43393" y2="-1" transform="matrix(0.642759 -0.766069 0.76602 0.642816 100.072 15.8708)" stroke="#8ECFFF" stroke-width="2"/>
<line y1="-1" x2="5.43386" y2="-1" transform="matrix(0.766021 -0.642816 0.642759 0.766068 111.795 15.5312)" stroke="#8ECFFF" stroke-width="2"/>
<line y1="-1" x2="5.43379" y2="-1" transform="matrix(0.866009 -0.500029 0.499971 0.866042 123.613 15.0217)" stroke="#8ECFFF" stroke-width="2"/>
<line y1="-1" x2="5.43393" y2="-1" transform="matrix(-0.642759 -0.766068 0.766021 -0.642816 7.50464 15.8708)" stroke="#8ECFFF" stroke-width="2"/>
<line y1="-1" x2="5.434" y2="-1" transform="matrix(-0.499972 -0.866042 0.866009 -0.500028 19.1487 16.0404)" stroke="#8ECFFF" stroke-width="2"/>
<line y1="-1" x2="5.43405" y2="-1" transform="matrix(-0.341997 -0.939701 0.939684 -0.342043 30.7295 16.2103)" stroke="#8ECFFF" stroke-width="2"/>
<line y1="-1" x2="5.43409" y2="-1" transform="matrix(-0.173636 -0.98481 0.984806 -0.17366 42.2695 16.38)" stroke="#8ECFFF" stroke-width="2"/>
<line x1="52.7871" y1="16.38" x2="52.7871" y2="10.9459" stroke="#8ECFFF" stroke-width="2"/>
<line y1="-1" x2="5.43409" y2="-1" transform="matrix(0.173635 -0.98481 0.984805 0.173661 65.3066 16.38)" stroke="#8ECFFF" stroke-width="2"/>
<line y1="-1" x2="5.43405" y2="-1" transform="matrix(0.341997 -0.939701 0.939684 0.342043 64.6201 25.7202)" stroke="#8ECFFF" stroke-width="2"/>
<line y1="-1" x2="5.434" y2="-1" transform="matrix(0.499972 -0.866041 0.866009 0.500028 76.2026 25.5503)" stroke="#8ECFFF" stroke-width="2"/>
<line y1="-1" x2="5.43393" y2="-1" transform="matrix(0.642759 -0.766069 0.76602 0.642817 87.8464 25.3802)" stroke="#8ECFFF" stroke-width="2"/>
<line y1="-1" x2="5.43386" y2="-1" transform="matrix(0.766021 -0.642816 0.642759 0.766068 99.5706 25.0406)" stroke="#8ECFFF" stroke-width="2"/>
<line y1="-1" x2="5.4338" y2="-1" transform="matrix(0.866009 -0.500028 0.499972 0.866042 111.388 24.5311)" stroke="#8ECFFF" stroke-width="2"/>
<line y1="-1" x2="5.43374" y2="-1" transform="matrix(0.939684 -0.342043 0.341998 0.939701 123.313 24.1915)" stroke="#8ECFFF" stroke-width="2"/>
<line y1="-1" x2="5.434" y2="-1" transform="matrix(-0.499972 -0.866042 0.866009 -0.500028 6.92188 25.5503)" stroke="#8ECFFF" stroke-width="2"/>
<line y1="-1" x2="5.43405" y2="-1" transform="matrix(-0.341997 -0.939701 0.939684 -0.342043 18.5044 25.7202)" stroke="#8ECFFF" stroke-width="2"/>
<line y1="-1" x2="5.43409" y2="-1" transform="matrix(-0.173636 -0.98481 0.984806 -0.173661 30.0444 25.8898)" stroke="#8ECFFF" stroke-width="2"/>
<line x1="40.5623" y1="25.8898" x2="40.5623" y2="20.4557" stroke="#8ECFFF" stroke-width="2"/>
<line y1="-1" x2="5.43409" y2="-1" transform="matrix(0.173635 -0.98481 0.984805 0.173661 53.0801 25.8898)" stroke="#8ECFFF" stroke-width="2"/>
</g>
</svg>
