<svg width="17" height="19" viewBox="0 0 17 19" fill="none" xmlns="http://www.w3.org/2000/svg">
<path d="M8.31338 11.6C6.53838 11.6 5.08838 10.1584 5.08838 8.37504C5.08838 6.59171 6.53838 5.15837 8.31338 5.15837C10.0884 5.15837 11.5384 6.60004 11.5384 8.38337C11.5384 10.1667 10.0884 11.6 8.31338 11.6ZM8.31338 6.40837C7.23005 6.40837 6.33838 7.29171 6.33838 8.38337C6.33838 9.47504 7.22171 10.3584 8.31338 10.3584C9.40505 10.3584 10.2884 9.47504 10.2884 8.38337C10.2884 7.29171 9.39671 6.40837 8.31338 6.40837Z" fill="#F6F7F9"/>
<path d="M8.31338 18.7584C7.08005 18.7584 5.83838 18.2917 4.87171 17.3667C2.41338 15 -0.303287 11.225 0.721713 6.73337C1.64671 2.65837 5.20505 0.833374 8.31338 0.833374C8.31338 0.833374 8.31338 0.833374 8.32171 0.833374C11.43 0.833374 14.9884 2.65837 15.9134 6.74171C16.93 11.2334 14.2134 15 11.755 17.3667C10.7884 18.2917 9.54671 18.7584 8.31338 18.7584ZM8.31338 2.08337C5.88838 2.08337 2.77171 3.37504 1.94671 7.00837C1.04671 10.9334 3.51338 14.3167 5.74671 16.4584C7.18838 17.85 9.44671 17.85 10.8884 16.4584C13.1134 14.3167 15.58 10.9334 14.6967 7.00837C13.8634 3.37504 10.7384 2.08337 8.31338 2.08337Z" fill="#F6F7F9"/>
</svg>
