<svg width="24" height="24" viewBox="0 0 24 24" fill="none" xmlns="http://www.w3.org/2000/svg">
<path d="M12.3766 13.92C10.2466 13.92 8.50664 12.19 8.50664 10.05C8.50664 7.91 10.2466 6.19 12.3766 6.19C14.5066 6.19 16.2466 7.92 16.2466 10.06C16.2466 12.2 14.5066 13.92 12.3766 13.92ZM12.3766 7.69C11.0766 7.69 10.0066 8.75 10.0066 10.06C10.0066 11.37 11.0666 12.43 12.3766 12.43C13.6866 12.43 14.7466 11.37 14.7466 10.06C14.7466 8.75 13.6766 7.69 12.3766 7.69Z" fill="currentColor"/>
<path d="M12.3766 22.51C10.8966 22.51 9.40664 21.95 8.24664 20.84C5.29664 18 2.03664 13.47 3.26664 8.08C4.37664 3.19 8.64664 1 12.3766 1C12.3766 1 12.3766 1 12.3866 1C16.1166 1 20.3866 3.19 21.4966 8.09C22.7166 13.48 19.4566 18 16.5066 20.84C15.3466 21.95 13.8566 22.51 12.3766 22.51ZM12.3766 2.5C9.46664 2.5 5.72664 4.05 4.73664 8.41C3.65664 13.12 6.61664 17.18 9.29664 19.75C11.0266 21.42 13.7366 21.42 15.4666 19.75C18.1366 17.18 21.0966 13.12 20.0366 8.41C19.0366 4.05 15.2866 2.5 12.3766 2.5Z" fill="currentColor"/>
</svg>
