<svg width="17" height="19" viewBox="0 0 17 19" fill="none" xmlns="http://www.w3.org/2000/svg">
<path d="M8.31362 11.5999C6.53862 11.5999 5.08862 10.1583 5.08862 8.37492C5.08862 6.59159 6.53862 5.15825 8.31362 5.15825C10.0886 5.15825 11.5386 6.59992 11.5386 8.38325C11.5386 10.1666 10.0886 11.5999 8.31362 11.5999ZM8.31362 6.40825C7.23029 6.40825 6.33862 7.29159 6.33862 8.38325C6.33862 9.47492 7.22196 10.3583 8.31362 10.3583C9.40529 10.3583 10.2886 9.47492 10.2886 8.38325C10.2886 7.29159 9.39696 6.40825 8.31362 6.40825Z" fill="#1F2937"/>
<path d="M8.31362 18.7583C7.08029 18.7583 5.83862 18.2916 4.87196 17.3666C2.41362 14.9999 -0.303043 11.2249 0.721957 6.73325C1.64696 2.65825 5.20529 0.833252 8.31362 0.833252C8.31362 0.833252 8.31362 0.833252 8.32196 0.833252C11.4303 0.833252 14.9886 2.65825 15.9136 6.74159C16.9303 11.2333 14.2136 14.9999 11.7553 17.3666C10.7886 18.2916 9.54696 18.7583 8.31362 18.7583ZM8.31362 2.08325C5.88862 2.08325 2.77196 3.37492 1.94696 7.00825C1.04696 10.9333 3.51362 14.3166 5.74696 16.4583C7.18862 17.8499 9.44696 17.8499 10.8886 16.4583C13.1136 14.3166 15.5803 10.9333 14.697 7.00825C13.8636 3.37492 10.7386 2.08325 8.31362 2.08325Z" fill="#1F2937"/>
</svg>
