<svg width="28" height="29" viewBox="0 0 28 29" fill="none" xmlns="http://www.w3.org/2000/svg">
<g id="Logo ">
<g id="Vector">
<path d="M0.00236966 9.59717C0.00236966 6.89619 0.00297741 4.19552 0.00145804 1.49453C0.00115416 1.18691 0.0382271 0.898473 0.298345 0.697794C0.684268 0.399921 1.22426 0.568831 1.39078 1.03593C1.45004 1.20201 1.44244 1.37312 1.44244 1.54454C1.44213 6.64864 1.44153 11.7527 1.44244 16.8571C1.44335 21.7643 5.05188 26.1431 9.75163 26.91C13.1259 27.4601 16.0549 26.4863 18.5124 24.0435C19.4875 23.0747 20.2147 21.915 20.7191 20.615C20.7966 20.4153 20.8841 20.3278 21.0993 20.3417C21.4193 20.3618 21.742 20.3621 22.062 20.342C22.316 20.3259 22.326 20.4083 22.247 20.627C20.9458 24.2165 18.5701 26.7027 15.0515 27.9256C8.93906 30.05 2.39479 26.5262 0.50255 20.1492C0.162512 19.0026 0.0102705 17.8288 0.00540842 16.6354C-0.00461949 14.2892 0.00236966 11.943 0.00236966 9.59717Z" fill="currentColor"/>
<path d="M3.54715 9.43675C3.54715 11.8625 3.54715 14.2883 3.54715 16.714C3.54715 21.0642 6.81047 24.6754 11.0222 24.8645C14.2743 25.0107 16.725 23.5264 18.3757 20.6373C18.5 20.4193 18.6167 20.324 18.8598 20.3413C19.1685 20.3637 19.4806 20.3621 19.7893 20.342C20.0494 20.325 20.0877 20.3945 19.9802 20.6367C19.298 22.1745 18.3125 23.4563 16.9991 24.4691C11.4935 28.7151 3.45112 25.4275 2.2657 18.444C2.16603 17.858 2.1162 17.2667 2.1165 16.67C2.11923 11.6124 2.11802 6.55522 2.11771 1.49799C2.11771 1.31492 2.10495 1.1306 2.19277 0.961061C2.3441 0.668535 2.58508 0.516925 2.89959 0.557502C3.22048 0.599021 3.45599 0.781457 3.51676 1.13312C3.54168 1.27812 3.54593 1.42847 3.54593 1.57631C3.54776 4.19646 3.54715 6.8166 3.54715 9.43675Z" fill="currentColor"/>
<path d="M17.7549 20.348C17.1945 21.3897 16.4746 22.2113 15.5688 22.8511C11.199 25.9387 5.32358 23.4207 4.33538 18.0392C4.26944 17.68 4.23297 17.3154 4.23297 16.9481C4.23388 11.7521 4.23479 6.55649 4.23084 1.36055C4.23054 1.01455 4.34814 0.754736 4.65262 0.613191C4.93097 0.483914 5.19504 0.542734 5.42265 0.751591C5.62351 0.935913 5.64265 1.18031 5.64235 1.44107C5.63931 6.48823 5.6384 11.5351 5.64083 16.5819C5.64204 19.4672 7.37778 21.8527 10.0489 22.523C12.3383 23.0977 14.2834 22.3978 15.855 20.5971C16.0124 20.4168 16.1552 20.3344 16.3862 20.3429C16.8256 20.3596 17.2659 20.348 17.7549 20.348Z" fill="currentColor"/>
<path d="M15.0849 20.3766C14.1982 21.3696 13.0988 21.882 11.8164 21.9949C8.92474 22.2494 6.34149 19.811 6.33845 16.81C6.33359 11.6826 6.33693 6.55522 6.33754 1.42785C6.33754 0.878025 6.61072 0.543037 7.05013 0.546811C7.48832 0.550586 7.75543 0.886833 7.75543 1.43949C7.75573 6.50961 7.753 11.5797 7.75664 16.6502C7.75846 19.0162 9.69172 20.849 11.9094 20.4892C12.9721 20.3165 14.0204 20.4049 15.0849 20.3766Z" fill="currentColor"/>
<path d="M8.43134 6.84399C8.43134 6.38255 8.43803 5.9381 8.42922 5.49428C8.42284 5.19421 8.66867 5.25617 8.80876 5.22346C10.8113 4.75511 12.8114 4.77461 14.7717 5.42005C18.5133 6.65149 20.9918 9.24207 22.3565 13.0999C21.8438 13.0999 21.3786 13.1025 20.9131 13.0984C20.7593 13.0968 20.7696 12.9414 20.731 12.8474C19.5936 10.0596 17.6646 8.10405 14.931 7.02863C12.8479 6.20956 10.7214 6.16709 8.58085 6.80341C8.53952 6.81568 8.49759 6.82606 8.43134 6.84399Z" fill="currentColor"/>
<path d="M20.0375 13.1022C19.6243 13.1022 19.2146 13.0886 18.8065 13.1078C18.5984 13.1176 18.4972 13.0386 18.4009 12.8552C17.492 11.1249 16.1537 9.87401 14.387 9.14238C12.5157 8.36734 10.6168 8.34847 8.7215 9.05934C8.44862 9.16188 8.41185 9.10054 8.42674 8.83633C8.44588 8.49442 8.43889 8.15031 8.42826 7.80777C8.42279 7.64138 8.47627 7.57186 8.6355 7.52562C12.1164 6.51437 15.2108 7.22932 17.8873 9.75416C18.8123 10.6267 19.5039 11.6842 19.9977 12.876C20.0226 12.9358 20.0789 12.9896 20.0375 13.1022Z" fill="currentColor"/>
<path d="M8.43136 11.5612C8.43136 11.1045 8.44716 10.6694 8.42528 10.2366C8.41343 10.0029 8.48728 9.89158 8.69604 9.81138C11.33 8.79917 13.7689 9.15146 15.9985 10.9293C16.722 11.5064 17.2836 12.2334 17.7637 13.1018C17.2024 13.1018 16.6889 13.0993 16.1753 13.104C16.0699 13.105 16.0188 13.0439 15.962 12.9706C14.1701 10.6606 11.0219 10.052 8.52252 11.5414C8.50611 11.5514 8.48332 11.5505 8.43136 11.5612Z" fill="currentColor"/>
<path d="M15.1547 13.1018C14.2971 13.1018 13.4912 13.111 12.686 13.0955C12.4812 13.0918 12.2797 12.9968 12.0734 12.9644C10.5996 12.7319 9.41626 13.2667 8.43261 14.4893C8.43261 13.802 8.43413 13.1698 8.4314 12.5379C8.43079 12.4212 8.5177 12.3903 8.58668 12.3384C10.5108 10.8978 13.5511 11.2328 15.1547 13.1018Z" fill="currentColor"/>
<path d="M28 14.8249V13.2729L25.8318 14.0791L23.6315 13.2729L21.47 14.0489L19.276 13.2729L17.0951 14.0489L14.9206 13.2729L12.7266 14.0489L10.5262 13.2729V14.8249L12.6944 15.5707L14.8978 14.7931L17.103 15.5707L19.263 14.8183L21.4895 15.5707L23.6184 14.7912L25.806 15.5707" fill="currentColor"/>
<path d="M28 17.0735V15.5213L25.8318 16.3278L23.6315 15.5213L21.47 16.2972L19.276 15.5213L17.0951 16.2972L14.9206 15.5213L12.7266 16.2972L10.5262 15.5213V17.0735L12.6944 17.8193L14.8978 17.0415L17.103 17.8193L19.263 17.0666L21.4895 17.8193L23.6184 17.0399L25.806 17.8193" fill="currentColor"/>
<path d="M28 19.3219V17.77L25.8318 18.5762L23.6315 17.77L21.47 18.546L19.276 17.77L17.0951 18.546L14.9206 17.77L12.7266 18.546L10.5262 17.77V19.3219L12.6944 20.0677L14.8978 19.2902L17.103 20.0677L19.263 19.3153L21.4895 20.0677L23.6184 19.2883L25.806 20.0677" fill="currentColor"/>
</g>
</g>
</svg>
