<svg width="56" height="54" viewBox="0 0 56 54" fill="none" xmlns="http://www.w3.org/2000/svg">
<g clip-path="url(#clip0_1300_13283)">
<mask id="mask0_1300_13283" style="mask-type:luminance" maskUnits="userSpaceOnUse" x="0" y="0" width="45" height="54">
<path d="M0 0H44.2901V53.6621H0V0Z" fill="white"/>
</mask>
<g mask="url(#mask0_1300_13283)">
<path d="M0.00479239 17.349C0.00479239 12.1726 0.00599802 6.99686 0.00298395 1.82047C0.00238112 1.23091 0.0759248 0.678131 0.591934 0.293533C1.35751 -0.277334 2.42872 0.0463781 2.75906 0.941561C2.87661 1.25985 2.86154 1.58778 2.86154 1.91631C2.86093 11.6982 2.85973 21.4801 2.86154 31.2626C2.86335 40.6672 10.0218 49.059 19.3449 50.5286C26.0386 51.5831 31.8492 49.7168 36.7242 45.0353C38.6587 43.1786 40.101 40.956 41.1019 38.4645C41.2556 38.0816 41.4292 37.914 41.856 37.9406C42.4905 37.9793 43.131 37.9796 43.7655 37.9414C44.2695 37.9106 44.2894 38.0685 44.1326 38.4874C41.5515 45.3668 36.8387 50.1315 29.8587 52.4753C17.733 56.5466 4.75076 49.7933 0.997028 37.5716C0.322477 35.3744 0.0204657 33.1247 0.0108206 30.8376C-0.00907241 26.3412 0.00479239 21.8448 0.00479239 17.349Z" fill="var(--color-logo-black)"/>
</g>
<path d="M7.03669 17.0416C7.03669 21.6905 7.03669 26.3394 7.03669 30.9883C7.03669 39.3255 13.5103 46.2461 21.8653 46.6084C28.3167 46.8889 33.1784 44.0441 36.4529 38.5072C36.6995 38.0895 36.9309 37.9069 37.4132 37.9399C38.0257 37.983 38.6449 37.98 39.2572 37.9414C39.7733 37.9088 39.849 38.0419 39.6356 38.5061C38.2826 41.4533 36.3275 43.9099 33.7221 45.8509C22.8003 53.9884 6.84619 47.6876 4.4946 34.3038C4.29686 33.1808 4.19801 32.0475 4.19861 30.904C4.20405 21.2113 4.20161 11.5192 4.20101 1.82712C4.20101 1.47628 4.1757 1.12303 4.34992 0.798113C4.65011 0.237494 5.12816 -0.0530636 5.75209 0.0246998C6.38865 0.104271 6.85582 0.453904 6.97639 1.12785C7.02581 1.40575 7.03425 1.6939 7.03425 1.97722C7.03789 6.9987 7.03669 12.0201 7.03669 17.0416Z" fill="var(--color-logo-black)"/>
<path d="M35.2214 37.9526C34.1097 39.9491 32.6817 41.5238 30.8847 42.75C22.2162 48.6671 10.5608 43.8416 8.60036 33.528C8.46956 32.8396 8.39722 32.1409 8.39722 31.4368C8.39902 21.4789 8.40082 11.5216 8.39302 1.56368C8.39239 0.900581 8.62568 0.402653 9.22973 0.131387C9.78191 -0.116371 10.3058 -0.00364423 10.7573 0.396626C11.1557 0.749876 11.1937 1.21827 11.1931 1.718C11.1871 11.3908 11.1852 21.063 11.1901 30.7352C11.1925 36.2648 14.6358 40.8364 19.9345 42.1211C24.4761 43.2225 28.3348 41.8811 31.4525 38.43C31.7648 38.0846 32.0481 37.9268 32.5063 37.9429C33.3779 37.9751 34.2514 37.9526 35.2214 37.9526Z" fill="var(--color-logo-black)"/>
<path d="M29.925 38.0074C28.166 39.9105 25.985 40.8926 23.4411 41.109C17.7047 41.5969 12.5802 36.9237 12.5742 31.1722C12.5645 21.3457 12.5711 11.5192 12.5723 1.69267C12.5723 0.638948 13.1143 -0.00305344 13.986 0.00418036C14.8552 0.0114142 15.3851 0.655826 15.3851 1.71497C15.3857 11.4318 15.3802 21.1486 15.3875 30.866C15.3911 35.4003 19.2262 38.913 23.6256 38.2234C25.7336 37.8923 27.8133 38.0618 29.925 38.0074Z" fill="var(--color-logo-black)"/>
<path d="M16.7258 12.0726C16.7258 11.1882 16.739 10.3365 16.7215 9.48589C16.7089 8.91083 17.1966 9.02959 17.4744 8.96689C21.447 8.06929 25.4147 8.10668 29.3035 9.34365C36.726 11.7037 41.6426 16.6685 44.3498 24.062C43.3328 24.062 42.4099 24.0668 41.4862 24.059C41.1814 24.056 41.202 23.7582 41.1255 23.5779C38.8691 18.2352 35.0423 14.4875 29.6194 12.4265C25.4871 10.8567 21.2686 10.7753 17.0223 11.9948C16.9404 12.0183 16.8572 12.0382 16.7258 12.0726Z" fill="var(--color-logo-black)"/>
<path d="M39.7496 24.0662C38.9299 24.0662 38.1172 24.0403 37.3077 24.0771C36.8947 24.0958 36.694 23.9445 36.5029 23.593C34.6999 20.2769 32.0451 17.8795 28.5403 16.4774C24.8282 14.9921 21.0612 14.9559 17.3014 16.3182C16.7601 16.5147 16.6872 16.3972 16.7167 15.8909C16.7547 15.2356 16.7408 14.5761 16.7197 13.9196C16.7089 13.6007 16.815 13.4675 17.1308 13.3789C24.0361 11.4408 30.1746 12.8111 35.4842 17.6499C37.3191 19.3221 38.691 21.3488 39.6709 23.6328C39.72 23.7474 39.8317 23.8504 39.7496 24.0662Z" fill="var(--color-logo-black)"/>
<path d="M16.7258 21.1131C16.7258 20.2378 16.7571 19.4041 16.7137 18.5746C16.6902 18.1267 16.8367 17.9133 17.2508 17.7596C22.476 15.8197 27.3143 16.4949 31.7371 19.902C33.1724 21.0082 34.2864 22.4013 35.2389 24.0657C34.1255 24.0657 33.1067 24.0608 32.0879 24.0699C31.8788 24.0717 31.7775 23.9547 31.6648 23.8143C28.11 19.3872 21.8648 18.2208 16.9066 21.0751C16.8741 21.0944 16.8288 21.0925 16.7258 21.1131Z" fill="var(--color-logo-black)"/>
<path d="M30.0631 24.0656C28.3619 24.0656 26.7633 24.0831 25.1658 24.0536C24.7595 24.0463 24.3599 23.8643 23.9505 23.8022C21.0269 23.3567 18.6795 24.3815 16.7282 26.7246C16.7282 25.4075 16.7312 24.1958 16.7258 22.9848C16.7246 22.7611 16.897 22.702 17.0338 22.6026C20.8509 19.8417 26.882 20.4837 30.0631 24.0656Z" fill="var(--color-logo-black)"/>
<path d="M55.5454 27.3679V24.3936L51.2441 25.9386L46.8791 24.3936L42.5914 25.8807L38.2391 24.3936L33.9126 25.8807L29.5989 24.3936L25.2465 25.8807L20.8815 24.3936V27.3679L25.1826 28.7971L29.5536 27.307L33.9283 28.7971L38.2133 27.3552L42.63 28.7971L46.8533 27.3034L51.1931 28.7971" fill="#6EC1FF"/>
<path d="M55.5454 31.6774V28.7025L51.2441 30.2481L46.8791 28.7025L42.5914 30.1897L38.2391 28.7025L33.9126 30.1897L29.5989 28.7025L25.2465 30.1897L20.8815 28.7025V31.6774L25.1826 33.1067L29.5536 31.6159L33.9283 33.1067L38.2133 31.6641L42.63 33.1067L46.8533 31.6129L51.1931 33.1067" fill="#6EC1FF"/>
<path d="M55.5454 35.9863V33.012L51.2441 34.557L46.8791 33.012L42.5914 34.4991L38.2391 33.012L33.9126 34.4991L29.5989 33.012L25.2465 34.4991L20.8815 33.012V35.9863L25.1826 37.4156L29.5536 35.9254L33.9283 37.4156L38.2133 35.9736L42.63 37.4156L46.8533 35.9218L51.1931 37.4156" fill="#6EC1FF"/>
</g>
<defs>
<clipPath id="clip0_1300_13283">
<rect width="56" height="54" fill="white"/>
</clipPath>
</defs>
</svg>
