<svg width="56" height="56" viewBox="0 0 56 56" fill="none" xmlns="http://www.w3.org/2000/svg">
<path d="M36.8668 5.15657C35.9101 4.1999 34.2534 4.85324 34.2534 6.18324V14.3266C34.2534 17.7332 37.1468 20.5566 40.6701 20.5566C42.8868 20.5799 45.9668 20.5799 48.6034 20.5799C49.9334 20.5799 50.6334 19.0166 49.7001 18.0832C46.3401 14.6999 40.3201 8.6099 36.8668 5.15657Z" fill="#00518D"/>
<path d="M36.8668 5.15657C35.9101 4.1999 34.2534 4.85324 34.2534 6.18324V14.3266C34.2534 17.7332 37.1468 20.5566 40.6701 20.5566C42.8868 20.5799 45.9668 20.5799 48.6034 20.5799C49.9334 20.5799 50.6334 19.0166 49.7001 18.0832C46.3401 14.6999 40.3201 8.6099 36.8668 5.15657Z" fill="url(#paint0_linear_8247_46807)" fill-opacity="0.25"/>
<path d="M47.8335 23.7767H41.0902C35.5602 23.7767 31.0568 19.2734 31.0568 13.7434V7.00008C31.0568 5.71675 30.0068 4.66675 28.7235 4.66675H18.8302C11.6435 4.66675 5.8335 9.33342 5.8335 17.6634V38.3367C5.8335 46.6667 11.6435 51.3334 18.8302 51.3334H37.1702C44.3568 51.3334 50.1668 46.6667 50.1668 38.3367V26.1101C50.1668 24.8267 49.1168 23.7767 47.8335 23.7767ZM26.8335 41.4167H17.5002C16.5435 41.4167 15.7502 40.6234 15.7502 39.6667C15.7502 38.7101 16.5435 37.9167 17.5002 37.9167H26.8335C27.7902 37.9167 28.5835 38.7101 28.5835 39.6667C28.5835 40.6234 27.7902 41.4167 26.8335 41.4167ZM31.5002 32.0834H17.5002C16.5435 32.0834 15.7502 31.2901 15.7502 30.3334C15.7502 29.3767 16.5435 28.5834 17.5002 28.5834H31.5002C32.4568 28.5834 33.2502 29.3767 33.2502 30.3334C33.2502 31.2901 32.4568 32.0834 31.5002 32.0834Z" fill="#00518D"/>
<path d="M47.8335 23.7767H41.0902C35.5602 23.7767 31.0568 19.2734 31.0568 13.7434V7.00008C31.0568 5.71675 30.0068 4.66675 28.7235 4.66675H18.8302C11.6435 4.66675 5.8335 9.33342 5.8335 17.6634V38.3367C5.8335 46.6667 11.6435 51.3334 18.8302 51.3334H37.1702C44.3568 51.3334 50.1668 46.6667 50.1668 38.3367V26.1101C50.1668 24.8267 49.1168 23.7767 47.8335 23.7767ZM26.8335 41.4167H17.5002C16.5435 41.4167 15.7502 40.6234 15.7502 39.6667C15.7502 38.7101 16.5435 37.9167 17.5002 37.9167H26.8335C27.7902 37.9167 28.5835 38.7101 28.5835 39.6667C28.5835 40.6234 27.7902 41.4167 26.8335 41.4167ZM31.5002 32.0834H17.5002C16.5435 32.0834 15.7502 31.2901 15.7502 30.3334C15.7502 29.3767 16.5435 28.5834 17.5002 28.5834H31.5002C32.4568 28.5834 33.2502 29.3767 33.2502 30.3334C33.2502 31.2901 32.4568 32.0834 31.5002 32.0834Z" fill="url(#paint1_linear_8247_46807)" fill-opacity="0.25"/>
<defs>
<linearGradient id="paint0_linear_8247_46807" x1="42.1903" y1="4.7019" x2="42.1903" y2="20.5799" gradientUnits="userSpaceOnUse">
<stop offset="0.07" stop-color="#F1F9FE"/>
<stop offset="1" stop-color="white" stop-opacity="0"/>
</linearGradient>
<linearGradient id="paint1_linear_8247_46807" x1="28.0002" y1="4.66675" x2="28.0002" y2="51.3334" gradientUnits="userSpaceOnUse">
<stop offset="0.07" stop-color="#F1F9FE"/>
<stop offset="1" stop-color="white" stop-opacity="0"/>
</linearGradient>
</defs>
</svg>
