<svg width="18" height="22" viewBox="0 0 18 22" fill="none" xmlns="http://www.w3.org/2000/svg">
<g id="mobile">
<path id="Vector (Stroke)" d="M16.25 6C16.25 3.99464 15.9812 3.04177 15.4697 2.53027C14.9582 2.01878 14.0054 1.75 12 1.75H6C3.99464 1.75 3.04177 2.01878 2.53027 2.53027C2.01878 3.04177 1.75 3.99464 1.75 6V16C1.75 18.0054 2.01878 18.9582 2.53027 19.4697C3.04177 19.9812 3.99464 20.25 6 20.25H12C14.0054 20.25 14.9582 19.9812 15.4697 19.4697C15.9812 18.9582 16.25 18.0054 16.25 16V6ZM9.7998 16.5498C9.7997 16.1081 9.44176 15.75 9 15.75C8.55824 15.75 8.2003 16.1081 8.2002 16.5498C8.2002 16.9916 8.55817 17.3496 9 17.3496C9.44183 17.3496 9.7998 16.9916 9.7998 16.5498ZM11 3.75C11.4142 3.75 11.75 4.08579 11.75 4.5C11.75 4.91421 11.4142 5.25 11 5.25H7C6.58579 5.25 6.25 4.91421 6.25 4.5C6.25 4.08579 6.58579 3.75 7 3.75H11ZM11.2998 16.5498C11.2998 17.8201 10.2703 18.8496 9 18.8496C7.72974 18.8496 6.7002 17.8201 6.7002 16.5498C6.7003 15.2796 7.72981 14.25 9 14.25C10.2702 14.25 11.2997 15.2796 11.2998 16.5498ZM17.75 16C17.75 17.9946 17.5188 19.5418 16.5303 20.5303C15.5418 21.5188 13.9946 21.75 12 21.75H6C4.00536 21.75 2.45823 21.5188 1.46973 20.5303C0.481221 19.5418 0.25 17.9946 0.25 16V6C0.25 4.00536 0.481221 2.45823 1.46973 1.46973C2.45823 0.481221 4.00536 0.25 6 0.25H12C13.9946 0.25 15.5418 0.481221 16.5303 1.46973C17.5188 2.45823 17.75 4.00536 17.75 6V16Z" fill="currentColor"/>
</g>
</svg>
