<svg width="24" height="24" viewBox="0 0 24 24" fill="none" xmlns="http://www.w3.org/2000/svg">
<path opacity="0.4" fill-rule="evenodd" clip-rule="evenodd" d="M18.6511 6.10833C18.8303 5.93006 19.0873 5.85404 19.3346 5.90612C20.4217 6.13497 21.3735 6.64795 22.0462 7.5191C22.7157 8.38609 23.0501 9.53158 23.0501 10.92V16.07C23.0501 17.753 22.5655 19.0785 21.6004 19.9746C20.6454 20.8614 19.3351 21.22 17.9001 21.22H9.11009C8.30716 21.22 7.54316 21.1121 6.85704 20.8524C5.41167 20.3169 4.43243 19.1876 4.09446 17.4862C4.04502 17.2373 4.1248 16.9802 4.30649 16.8031C4.48819 16.6259 4.74714 16.5526 4.99473 16.6083C5.32987 16.6837 5.70316 16.72 6.11009 16.72H14.9001C16.1051 16.72 16.9947 16.4186 17.5798 15.8754C18.1547 15.3415 18.5501 14.4671 18.5501 13.07V7.92C18.5501 7.49299 18.5138 7.1242 18.4454 6.79074C18.3946 6.54313 18.4719 6.28659 18.6511 6.10833ZM20.0483 7.74374C20.0495 7.80195 20.0501 7.86069 20.0501 7.92V13.07C20.0501 14.753 19.5655 16.0785 18.6004 16.9746C17.6454 17.8614 16.3351 18.22 14.9001 18.22H6.11009C6.04753 18.22 5.98507 18.2193 5.92274 18.2178C6.25307 18.8226 6.74964 19.2134 7.3802 19.4466L7.3861 19.4488C7.85922 19.6282 8.43416 19.72 9.11009 19.72H17.9001C19.1051 19.72 19.9947 19.4186 20.5798 18.8754C21.1547 18.3415 21.5501 17.4671 21.5501 16.07V10.92C21.5501 9.76841 21.2745 8.97392 20.859 8.43592C20.643 8.15621 20.3732 7.92505 20.0483 7.74374Z" fill="currentColor"/>
<path fill-rule="evenodd" clip-rule="evenodd" d="M10.4999 8.60999C9.45606 8.60999 8.60986 9.45618 8.60986 10.5C8.60986 11.5438 9.45606 12.39 10.4999 12.39C11.5437 12.39 12.3899 11.5438 12.3899 10.5C12.3899 9.45618 11.5437 8.60999 10.4999 8.60999ZM7.10986 10.5C7.10986 8.62775 8.62763 7.10999 10.4999 7.10999C12.3721 7.10999 13.8899 8.62775 13.8899 10.5C13.8899 12.3722 12.3721 13.89 10.4999 13.89C8.62763 13.89 7.10986 12.3722 7.10986 10.5Z" fill="currentColor"/>
<path opacity="0.4" fill-rule="evenodd" clip-rule="evenodd" d="M4.78003 7.54999C5.19424 7.54999 5.53003 7.88577 5.53003 8.29999V12.7C5.53003 13.1142 5.19424 13.45 4.78003 13.45C4.36582 13.45 4.03003 13.1142 4.03003 12.7V8.29999C4.03003 7.88577 4.36582 7.54999 4.78003 7.54999Z" fill="currentColor"/>
<path opacity="0.4" fill-rule="evenodd" clip-rule="evenodd" d="M16.22 7.54999C16.6342 7.54999 16.97 7.88577 16.97 8.29999V12.7C16.97 13.1142 16.6342 13.45 16.22 13.45C15.8058 13.45 15.47 13.1142 15.47 12.7V8.29999C15.47 7.88577 15.8058 7.54999 16.22 7.54999Z" fill="currentColor"/>
<path fill-rule="evenodd" clip-rule="evenodd" d="M3.43029 5.1146C2.85534 5.64847 2.45996 6.52293 2.45996 7.91998V13.07C2.45996 14.0802 2.66699 14.8141 2.99072 15.3386C3.30881 15.8541 3.77032 16.2183 4.37926 16.4463C4.56718 16.5144 4.75881 16.5691 4.94845 16.5994C4.96392 16.6019 4.97931 16.6049 4.99459 16.6083C5.32974 16.6837 5.70302 16.72 6.10995 16.72H14.9C16.105 16.72 16.9946 16.4186 17.5796 15.8754C18.1546 15.3415 18.55 14.4671 18.55 13.07V7.91998C18.55 7.50905 18.5069 7.14665 18.4427 6.77771C18.26 5.86441 17.8473 5.26676 17.2924 4.88329C16.7194 4.48741 15.9215 4.27002 14.9 4.27002H6.10995C4.90492 4.27002 4.01531 4.57138 3.43029 5.1146ZM2.40962 4.0154C3.36461 3.12864 4.67499 2.77002 6.10995 2.77002H14.9C16.1184 2.77002 17.2455 3.02762 18.1451 3.64925C19.061 4.28215 19.6675 5.24209 19.9157 6.49423L19.9187 6.51073C19.9937 6.93889 20.05 7.39404 20.05 7.91998V13.07C20.05 14.753 19.5653 16.0785 18.6003 16.9746C17.6453 17.8613 16.3349 18.22 14.9 18.22H6.10995C5.62486 18.22 5.14592 18.1777 4.68789 18.0768C4.3875 18.0268 4.10839 17.9439 3.86366 17.8549L3.85764 17.8527L3.85765 17.8527C2.96808 17.5205 2.22559 16.9551 1.71421 16.1264C1.20793 15.306 0.959961 14.2798 0.959961 13.07V7.91998C0.959961 6.23703 1.44457 4.91151 2.40962 4.0154Z" fill="currentColor"/>
</svg>
