<svg width="24" height="24" viewBox="0 0 24 24" fill="none" xmlns="http://www.w3.org/2000/svg">
<path fill-rule="evenodd" clip-rule="evenodd" d="M10.608 1.87569C11.2046 2.44728 11.0671 3.31978 10.783 3.98455L10.7825 3.98569C10.352 4.98848 10.1152 6.08789 10.124 7.25076L10.124 7.25336C10.1416 11.569 13.6621 15.2507 17.9735 15.4304C18.61 15.4574 19.219 15.4125 19.8098 15.3047C20.1978 15.2327 20.5753 15.2206 20.9133 15.3009C21.2578 15.3828 21.6001 15.5731 21.8121 15.9267C22.0233 16.2789 22.0343 16.6744 21.9534 17.0215C21.8736 17.3634 21.6976 17.7009 21.4654 18.0215C19.4298 20.8594 16.0409 22.6564 12.2588 22.4893C6.89138 22.2487 2.39945 17.8739 2.0279 12.4643C1.68842 7.66889 4.48149 3.49245 8.54142 1.74784C9.1929 1.46666 10.0338 1.32554 10.608 1.87569ZM9.58752 2.96499C9.49161 2.96769 9.33047 2.99793 9.10128 3.09695L9.1 3.0975C5.57011 4.61434 3.16908 8.23006 3.46173 12.3596L3.46185 12.3613C3.7807 17.0092 7.66466 20.817 12.321 21.0259M9.58752 2.96499C9.58183 3.05086 9.55296 3.19392 9.46534 3.39908C8.95702 4.58316 8.67635 5.88535 8.68655 7.26073C8.70804 12.3776 12.854 16.683 17.9147 16.8939C18.6577 16.9254 19.3712 16.8728 20.0641 16.7464L20.0665 16.7459C20.2959 16.7033 20.4513 16.7052 20.5449 16.7194C20.5161 16.8132 20.4485 16.9591 20.3081 17.1527L20.3058 17.1558C18.5464 19.6096 15.6106 21.1711 12.321 21.0259M20.6325 16.7422C20.6324 16.7422 20.632 16.742 20.6312 16.7415L20.6325 16.7422Z" fill="currentColor"/>
</svg>
