<svg width="128" height="106" viewBox="0 0 128 106" fill="none" xmlns="http://www.w3.org/2000/svg">
<g id="Add Group">
<path id="Background" d="M119.662 73.35C107.618 51.5858 115.202 50.8028 121.169 43.963C126.886 37.413 127.81 27.4216 126.064 18.9062C124.313 10.3908 117.779 2.58407 109.227 0.998443C96.2672 -1.40544 84.3251 10.2068 71.1575 9.73701C64.4543 9.49818 58.3189 6.14683 51.9367 4.07965C36.8271 -0.818178 18.315 2.49793 8.5773 15.0498C0.033844 26.0553 -0.224617 41.5396 3.19746 55.0429C6.69003 68.8163 13.8866 82.0024 25.1591 90.6627C36.4277 99.319 52.0659 102.843 65.3431 97.7765C74.8185 94.1628 84.3486 86.3913 93.8475 89.9345C96.9602 91.0973 111.107 97.6473 117.454 90.2516C120.187 87.0686 122.082 77.7232 119.662 73.35Z" fill="url(#paint0_linear_15363_51573)" fill-opacity="0.6"/>
<g id="Add Group_2">
<g id="Avatar" filter="url(#filter0_dd_15363_51573)">
<path id="Vector" d="M47.9497 38.5539C50.7395 33.5157 49.6534 24.9544 43.559 22.8282C37.233 20.6198 31.7821 22.4892 31.2931 25.8788C31.2931 25.8788 27.9473 25.093 25.7288 28.6676C23.5104 32.2421 25.106 38.2509 28.4209 41.8871C31.7357 45.5232 45.6797 42.6523 47.9497 38.5539Z" fill="#9CA3AF"/>
<path id="Vector_2" d="M47.9497 38.5539C50.7395 33.5157 49.6534 24.9544 43.559 22.8282C37.233 20.6198 31.7821 22.4892 31.2931 25.8788C31.2931 25.8788 27.9473 25.093 25.7288 28.6676C23.5104 32.2421 25.106 38.2509 28.4209 41.8871C31.7357 45.5232 45.6797 42.6523 47.9497 38.5539Z" fill="url(#paint1_linear_15363_51573)"/>
<path id="Vector_3" d="M57.2709 59.9546C52.0618 64.6795 45.1336 67.5607 37.5362 67.5607C29.9388 67.5607 23.0157 64.6795 17.8066 59.9546C18.2236 59.1174 18.6868 58.3214 19.1913 57.6075C21.2605 54.7058 27.0151 53.0161 30.7109 52.2047C32.636 51.7784 34.0051 51.5884 34.0051 51.5884L37.5362 52.1328L41.0672 51.5884C41.0672 51.5884 42.3334 51.763 44.1401 52.1585C47.8307 52.9545 53.7759 54.6493 55.8914 57.6075C56.401 58.3214 56.8591 59.1174 57.276 59.9546H57.2709Z" fill="#D1D5DB"/>
<path id="Vector_4" d="M57.2709 59.9551C52.0618 64.68 45.1336 67.5612 37.5362 67.5612C29.9388 67.5612 23.0157 64.68 17.8066 59.9551C18.2236 59.1179 18.6868 58.3219 19.1913 57.608C21.2605 54.7063 27.0151 53.0166 30.7109 52.2052C32.636 51.7789 34.0051 51.5889 34.0051 51.5889L37.5362 52.1333L41.0672 51.5889C41.0672 51.5889 42.3334 51.7635 44.1401 52.1589C47.8307 52.955 53.7759 54.6498 55.8914 57.608C56.401 58.3219 56.8591 59.1179 57.276 59.9551H57.2709Z" fill="url(#paint2_linear_15363_51573)" fill-opacity="0.25"/>
<g id="Group">
<g id="Vector_5">
<path d="M49.1482 40.3313C49.1482 42.6322 46.9246 44.6505 45.3032 43.762C44.284 46.0115 42.6523 47.7885 40.5574 48.7129V51.3014C42.7707 51.6301 44.1708 52.1693 44.1708 52.1693C44.1708 52.1693 42.3641 57.4386 37.5925 57.4386C32.821 57.4386 30.6952 52.1693 30.6952 52.1693C31.946 51.7276 33.1762 51.44 34.36 51.2706V48.9595C31.9717 48.1223 30.1238 46.2221 29.0069 43.762C27.3855 44.6403 25.167 42.627 25.167 40.3262C25.167 38.8728 26.4487 37.5221 27.8281 38.4311C27.7921 37.2447 27.9002 36.0173 28.1576 34.7847C28.2759 34.2249 28.5127 33.7164 28.8473 33.2594C28.873 33.85 28.9451 34.2557 28.9451 34.2557L30.1444 34.9028L39.7287 32.2784C40.0838 31.657 40.2743 31.0664 40.336 30.5117C43.2597 31.0972 45.6789 32.5198 46.1525 34.7847C46.4098 36.0173 46.5179 37.2447 46.4819 38.4311C47.8614 37.5169 49.143 38.8676 49.143 40.3211L49.1482 40.3313Z" fill="url(#paint3_linear_15363_51573)"/>
<path d="M49.1482 40.3313C49.1482 42.6322 46.9246 44.6505 45.3032 43.762C44.284 46.0115 42.6523 47.7885 40.5574 48.7129V51.3014C42.7707 51.6301 44.1708 52.1693 44.1708 52.1693C44.1708 52.1693 42.3641 57.4386 37.5925 57.4386C32.821 57.4386 30.6952 52.1693 30.6952 52.1693C31.946 51.7276 33.1762 51.44 34.36 51.2706V48.9595C31.9717 48.1223 30.1238 46.2221 29.0069 43.762C27.3855 44.6403 25.167 42.627 25.167 40.3262C25.167 38.8728 26.4487 37.5221 27.8281 38.4311C27.7921 37.2447 27.9002 36.0173 28.1576 34.7847C28.2759 34.2249 28.5127 33.7164 28.8473 33.2594C28.873 33.85 28.9451 34.2557 28.9451 34.2557L30.1444 34.9028L39.7287 32.2784C40.0838 31.657 40.2743 31.0664 40.336 30.5117C43.2597 31.0972 45.6789 32.5198 46.1525 34.7847C46.4098 36.0173 46.5179 37.2447 46.4819 38.4311C47.8614 37.5169 49.143 38.8676 49.143 40.3211L49.1482 40.3313Z" fill="url(#paint4_linear_15363_51573)"/>
</g>
<path id="Vector_6" d="M40.3413 30.5162C40.2795 31.0709 40.0891 31.6615 39.7339 32.2829L30.1497 34.9073L28.9503 34.2602C28.9503 34.2602 28.8783 33.8545 28.8525 33.2638C29.6761 32.1288 31.1019 31.3122 32.7902 30.8089C35.0962 30.1207 37.8963 30.0232 40.3413 30.5162Z" fill="url(#paint5_linear_15363_51573)"/>
<g id="Vector_7">
<path d="M40.3407 30.5164C40.279 31.0711 40.0885 31.6617 39.7334 32.2831L30.1491 34.9075L28.9498 34.2604C28.9498 34.2604 28.8777 33.8547 28.852 33.264C28.8005 32.0777 28.9292 30.1518 30.1491 29.2684C31.9816 27.9485 32.7897 30.8091 32.7897 30.8091C32.7228 29.1708 33.1603 27.7842 35.2707 26.5413C37.0568 25.4885 40.7062 27.4041 40.3407 30.5164Z" fill="url(#paint6_linear_15363_51573)"/>
<path d="M40.3407 30.5164C40.279 31.0711 40.0885 31.6617 39.7334 32.2831L30.1491 34.9075L28.9498 34.2604C28.9498 34.2604 28.8777 33.8547 28.852 33.264C28.8005 32.0777 28.9292 30.1518 30.1491 29.2684C31.9816 27.9485 32.7897 30.8091 32.7897 30.8091C32.7228 29.1708 33.1603 27.7842 35.2707 26.5413C37.0568 25.4885 40.7062 27.4041 40.3407 30.5164Z" fill="url(#paint7_linear_15363_51573)"/>
</g>
</g>
<g id="Group 427319047">
<g id="Vector_8">
<path d="M32.7903 30.8095C33.0323 27.4456 37.7523 29.6539 40.3671 32.4632C43.4452 35.7707 45.8747 36.387 47.9542 34.9027C50.0337 33.4185 47.3108 26.706 40.8664 25.2269C34.422 23.7529 31.8999 28.4522 32.7903 30.8044V30.8095Z" fill="#9CA3AF"/>
<path d="M32.7903 30.8095C33.0323 27.4456 37.7523 29.6539 40.3671 32.4632C43.4452 35.7707 45.8747 36.387 47.9542 34.9027C50.0337 33.4185 47.3108 26.706 40.8664 25.2269C34.422 23.7529 31.8999 28.4522 32.7903 30.8044V30.8095Z" fill="url(#paint8_linear_15363_51573)" fill-opacity="0.25"/>
</g>
<g id="Vector_9">
<path d="M32.7906 30.8088C31.5552 28.3642 28.4257 32.935 27.8286 37.2183C27.4683 39.7964 27.0256 36.4171 26.3719 35.77C25.7182 35.1229 25.816 30.0539 29.4912 28.9188C33.1663 27.7838 32.7906 30.8088 32.7906 30.8088Z" fill="#9CA3AF"/>
<path d="M32.7906 30.8088C31.5552 28.3642 28.4257 32.935 27.8286 37.2183C27.4683 39.7964 27.0256 36.4171 26.3719 35.77C25.7182 35.1229 25.816 30.0539 29.4912 28.9188C33.1663 27.7838 32.7906 30.8088 32.7906 30.8088Z" fill="url(#paint9_linear_15363_51573)" fill-opacity="0.4"/>
</g>
</g>
</g>
<g id="Avatar_2" filter="url(#filter1_dd_15363_51573)">
<g id="Group_2">
<path id="Vector_10" d="M85.7877 41.2771C84.6127 33.2789 90.2253 30.3744 95.0991 30.4855C99.9773 30.5921 102.283 34.4646 102.283 34.4646C102.283 34.4646 105.772 39.6295 101.5 44.3725C97.2266 49.1155 85.7877 41.2771 85.7877 41.2771Z" fill="#9CA3AF"/>
<g id="Group_3">
<path id="Vector_11" d="M108.657 59.7384C104.985 63.2112 100.022 65.3429 94.5653 65.3429C89.1085 65.3429 84.1457 63.2157 80.4736 59.7384C80.9766 58.4949 81.5686 57.247 82.2095 56.2122C82.9617 54.9998 84.435 54.0761 86.0151 53.3877C86.0551 53.37 86.0907 53.3522 86.1308 53.3345C88.8414 52.1709 91.8369 51.6957 92.0817 51.6558C92.0906 51.6558 92.0995 51.6558 92.0995 51.6558L94.5609 52.0688L96.9199 51.6735L97.0222 51.6558C97.0222 51.6558 100.236 52.1309 103.093 53.3789C103.107 53.3833 103.111 53.3877 103.111 53.3877C104.691 54.0761 106.164 55.0043 106.917 56.2122C107.562 57.247 108.15 58.4949 108.653 59.7384H108.657Z" fill="#D1D5DB"/>
<path id="Vector_12" d="M103.623 42.8667C103.623 44.6609 101.887 46.2374 100.623 45.5446C99.8262 47.2944 98.5533 48.6889 96.9198 49.4127V52.2772C96.9198 53.6095 95.8382 54.6931 94.5029 54.6931C93.1676 54.6931 92.0816 53.6095 92.0816 52.2772V49.5993C90.2211 48.9464 88.7745 47.4676 87.9066 45.5491C86.6381 46.233 84.9111 44.6609 84.9111 42.8667C84.9111 41.7298 85.9081 40.6817 86.9853 41.3834C86.963 40.4552 87.0431 39.5004 87.2434 38.5412C88.236 33.776 100.289 33.776 101.286 38.5412C101.486 39.5004 101.571 40.4597 101.544 41.3834C102.621 40.6729 103.623 41.7254 103.623 42.8623V42.8667Z" fill="url(#paint10_linear_15363_51573)"/>
</g>
</g>
</g>
<g id="Avatar_3" filter="url(#filter2_dd_15363_51573)">
<g id="Group_4">
<path id="Vector_13" d="M72.1187 21.8521C70.8256 15.2838 78.0919 11.2959 82.4561 16.0022C86.8129 20.7012 83.5655 24.2346 79.1572 24.6671C74.7489 25.0996 73.2354 21.6835 73.2354 21.6835L72.1187 21.8521Z" fill="#9CA3AF"/>
<path id="Vector_14" d="M68.959 21.5958C70.1713 17.8645 76.6147 20.8994 78.1649 23.4065C79.7152 25.9136 78.9952 29.5497 78.9952 29.5497L68.959 21.5958Z" fill="#D1D5DB"/>
<path id="Vector_15" d="M52.2445 37.9941C50.2975 24.7109 59.6137 19.8873 67.7176 20.0632C75.8215 20.2392 79.6493 26.6755 79.6493 26.6755C79.6493 26.6755 85.4462 35.2598 78.3489 43.133C71.2515 51.0062 52.2445 37.9941 52.2445 37.9941Z" fill="#9CA3AF"/>
<g id="Group_5">
<g id="Vector_16">
<path d="M90.2358 68.6515C84.1377 74.4208 75.8942 77.9615 66.8279 77.9615C57.7615 77.9615 49.518 74.4281 43.4199 68.6515C44.2575 66.5916 45.2347 64.5097 46.3073 62.7943C47.5564 60.7857 50.003 59.2462 52.6259 58.1026C52.692 58.0733 52.7581 58.044 52.8242 58.0147C57.328 56.0867 62.302 55.295 62.7135 55.229C62.7282 55.229 62.7429 55.229 62.7429 55.229L66.8352 55.9181L70.7512 55.2583L70.9202 55.229C70.9202 55.229 76.2616 56.0207 81.0078 58.088C81.0299 58.0953 81.0372 58.1026 81.0372 58.1026C83.6675 59.2462 86.1067 60.7857 87.3558 62.7943C88.4284 64.5097 89.3983 66.5916 90.2432 68.6515H90.2358Z" fill="#9CA3AF"/>
<path d="M90.2358 68.6515C84.1377 74.4208 75.8942 77.9615 66.8279 77.9615C57.7615 77.9615 49.518 74.4281 43.4199 68.6515C44.2575 66.5916 45.2347 64.5097 46.3073 62.7943C47.5564 60.7857 50.003 59.2462 52.6259 58.1026C52.692 58.0733 52.7581 58.044 52.8242 58.0147C57.328 56.0867 62.302 55.295 62.7135 55.229C62.7282 55.229 62.7429 55.229 62.7429 55.229L66.8352 55.9181L70.7512 55.2583L70.9202 55.229C70.9202 55.229 76.2616 56.0207 81.0078 58.088C81.0299 58.0953 81.0372 58.1026 81.0372 58.1026C83.6675 59.2462 86.1067 60.7857 87.3558 62.7943C88.4284 64.5097 89.3983 66.5916 90.2432 68.6515H90.2358Z" fill="url(#paint11_linear_15363_51573)" fill-opacity="0.25"/>
</g>
<path id="Vector_17" d="M52.6182 58.1031C57.6069 68.3515 72.742 69.3118 81.0222 58.1031C81.0222 58.1031 68.9508 50.4059 52.6182 58.1031Z" fill="#D1D5DB"/>
<path id="Vector_18" d="M81.8752 40.6337C81.8752 43.6173 78.9952 46.227 76.8939 45.0834C75.5714 47.9937 73.4554 50.3029 70.7443 51.5052V56.2628C70.7443 58.4767 68.9443 60.2727 66.7255 60.2727C64.5066 60.2727 62.7066 58.4767 62.7066 56.2628V51.8204C59.6134 50.7354 57.2183 48.2796 55.7782 45.0908C53.6769 46.227 50.7969 43.6173 50.7969 40.6337C50.7969 38.7497 52.4573 37.005 54.2427 38.1706C54.2059 36.6311 54.3382 35.0477 54.6762 33.4496C56.3293 25.5324 76.3428 25.5324 78.0033 33.4496C78.3339 35.0404 78.4735 36.6311 78.4294 38.1706C80.2148 36.9903 81.8826 38.7424 81.8826 40.6264L81.8752 40.6337Z" fill="url(#paint12_linear_15363_51573)"/>
</g>
<path id="Vector_19" d="M68.099 25.2021C53.8382 29.8864 56.1085 43.287 58.7314 51.2408C58.7314 51.2408 49.5769 38.1115 53.6766 29.8938C57.7763 21.676 68.099 25.2094 68.099 25.2094V25.2021Z" fill="#9CA3AF"/>
</g>
</g>
</g>
</g>
<defs>
<filter id="filter0_dd_15363_51573" x="4.27211" y="21.8726" width="66.5388" height="72.7575" filterUnits="userSpaceOnUse" color-interpolation-filters="sRGB">
<feFlood flood-opacity="0" result="BackgroundImageFix"/>
<feColorMatrix in="SourceAlpha" type="matrix" values="0 0 0 0 0 0 0 0 0 0 0 0 0 0 0 0 0 0 127 0" result="hardAlpha"/>
<feMorphology radius="2.70691" operator="erode" in="SourceAlpha" result="effect1_dropShadow_15363_51573"/>
<feOffset dy="5.41381"/>
<feGaussianBlur stdDeviation="2.70691"/>
<feComposite in2="hardAlpha" operator="out"/>
<feColorMatrix type="matrix" values="0 0 0 0 0.0901961 0 0 0 0 0.219608 0 0 0 0 0.482353 0 0 0 0.03 0"/>
<feBlend mode="normal" in2="BackgroundImageFix" result="effect1_dropShadow_15363_51573"/>
<feColorMatrix in="SourceAlpha" type="matrix" values="0 0 0 0 0 0 0 0 0 0 0 0 0 0 0 0 0 0 127 0" result="hardAlpha"/>
<feMorphology radius="2.70691" operator="erode" in="SourceAlpha" result="effect2_dropShadow_15363_51573"/>
<feOffset dy="13.5345"/>
<feGaussianBlur stdDeviation="8.12072"/>
<feComposite in2="hardAlpha" operator="out"/>
<feColorMatrix type="matrix" values="0 0 0 0 0.0902477 0 0 0 0 0.2203 0 0 0 0 0.480404 0 0 0 0.08 0"/>
<feBlend mode="normal" in2="effect1_dropShadow_15363_51573" result="effect2_dropShadow_15363_51573"/>
<feBlend mode="normal" in="SourceGraphic" in2="effect2_dropShadow_15363_51573" result="shape"/>
</filter>
<filter id="filter1_dd_15363_51573" x="66.9391" y="30.4824" width="55.2527" height="61.9294" filterUnits="userSpaceOnUse" color-interpolation-filters="sRGB">
<feFlood flood-opacity="0" result="BackgroundImageFix"/>
<feColorMatrix in="SourceAlpha" type="matrix" values="0 0 0 0 0 0 0 0 0 0 0 0 0 0 0 0 0 0 127 0" result="hardAlpha"/>
<feMorphology radius="2.70691" operator="erode" in="SourceAlpha" result="effect1_dropShadow_15363_51573"/>
<feOffset dy="5.41381"/>
<feGaussianBlur stdDeviation="2.70691"/>
<feComposite in2="hardAlpha" operator="out"/>
<feColorMatrix type="matrix" values="0 0 0 0 0.0901961 0 0 0 0 0.219608 0 0 0 0 0.482353 0 0 0 0.03 0"/>
<feBlend mode="normal" in2="BackgroundImageFix" result="effect1_dropShadow_15363_51573"/>
<feColorMatrix in="SourceAlpha" type="matrix" values="0 0 0 0 0 0 0 0 0 0 0 0 0 0 0 0 0 0 127 0" result="hardAlpha"/>
<feMorphology radius="2.70691" operator="erode" in="SourceAlpha" result="effect2_dropShadow_15363_51573"/>
<feOffset dy="13.5345"/>
<feGaussianBlur stdDeviation="8.12072"/>
<feComposite in2="hardAlpha" operator="out"/>
<feColorMatrix type="matrix" values="0 0 0 0 0.0902477 0 0 0 0 0.2203 0 0 0 0 0.480404 0 0 0 0.08 0"/>
<feBlend mode="normal" in2="effect1_dropShadow_15363_51573" result="effect2_dropShadow_15363_51573"/>
<feBlend mode="normal" in="SourceGraphic" in2="effect2_dropShadow_15363_51573" result="shape"/>
</filter>
<filter id="filter2_dd_15363_51573" x="29.8854" y="13.9487" width="73.8923" height="91.0818" filterUnits="userSpaceOnUse" color-interpolation-filters="sRGB">
<feFlood flood-opacity="0" result="BackgroundImageFix"/>
<feColorMatrix in="SourceAlpha" type="matrix" values="0 0 0 0 0 0 0 0 0 0 0 0 0 0 0 0 0 0 127 0" result="hardAlpha"/>
<feMorphology radius="2.70691" operator="erode" in="SourceAlpha" result="effect1_dropShadow_15363_51573"/>
<feOffset dy="5.41381"/>
<feGaussianBlur stdDeviation="2.70691"/>
<feComposite in2="hardAlpha" operator="out"/>
<feColorMatrix type="matrix" values="0 0 0 0 0.0901961 0 0 0 0 0.219608 0 0 0 0 0.482353 0 0 0 0.03 0"/>
<feBlend mode="normal" in2="BackgroundImageFix" result="effect1_dropShadow_15363_51573"/>
<feColorMatrix in="SourceAlpha" type="matrix" values="0 0 0 0 0 0 0 0 0 0 0 0 0 0 0 0 0 0 127 0" result="hardAlpha"/>
<feMorphology radius="2.70691" operator="erode" in="SourceAlpha" result="effect2_dropShadow_15363_51573"/>
<feOffset dy="13.5345"/>
<feGaussianBlur stdDeviation="8.12072"/>
<feComposite in2="hardAlpha" operator="out"/>
<feColorMatrix type="matrix" values="0 0 0 0 0.0902477 0 0 0 0 0.2203 0 0 0 0 0.480404 0 0 0 0.08 0"/>
<feBlend mode="normal" in2="effect1_dropShadow_15363_51573" result="effect2_dropShadow_15363_51573"/>
<feBlend mode="normal" in="SourceGraphic" in2="effect2_dropShadow_15363_51573" result="shape"/>
</filter>
<linearGradient id="paint0_linear_15363_51573" x1="52.6689" y1="118.597" x2="69.5849" y2="-5.12124" gradientUnits="userSpaceOnUse">
<stop stop-color="#E5E7EB"/>
<stop offset="0.645768" stop-color="#F3F4F6"/>
</linearGradient>
<linearGradient id="paint1_linear_15363_51573" x1="37.001" y1="8" x2="37.0544" y2="43.5518" gradientUnits="userSpaceOnUse">
<stop stop-color="#F6F7F9"/>
<stop offset="1" stop-color="#4B5563"/>
</linearGradient>
<linearGradient id="paint2_linear_15363_51573" x1="38.0005" y1="42.0002" x2="37.5413" y2="67.5612" gradientUnits="userSpaceOnUse">
<stop stop-color="#F6F7F9"/>
<stop offset="1" stop-color="#4B5563"/>
</linearGradient>
<linearGradient id="paint3_linear_15363_51573" x1="25.1685" y1="43.9642" x2="49.1771" y2="43.9642" gradientUnits="userSpaceOnUse">
<stop stop-color="white"/>
<stop offset="0.78" stop-color="#ECEEFF"/>
</linearGradient>
<linearGradient id="paint4_linear_15363_51573" x1="25.1685" y1="43.9642" x2="49.1771" y2="43.9642" gradientUnits="userSpaceOnUse">
<stop stop-color="#F6F7F9"/>
<stop offset="0.78" stop-color="#F3F4F6"/>
</linearGradient>
<linearGradient id="paint5_linear_15363_51573" x1="28.8533" y1="32.5555" x2="40.3551" y2="32.5555" gradientUnits="userSpaceOnUse">
<stop stop-color="white"/>
<stop offset="0.78" stop-color="#ECEEFF"/>
</linearGradient>
<linearGradient id="paint6_linear_15363_51573" x1="28.8435" y1="30.5755" x2="40.3802" y2="30.5755" gradientUnits="userSpaceOnUse">
<stop stop-color="white"/>
<stop offset="0.78" stop-color="#ECEEFF"/>
</linearGradient>
<linearGradient id="paint7_linear_15363_51573" x1="28.8435" y1="30.5755" x2="40.3802" y2="30.5755" gradientUnits="userSpaceOnUse">
<stop stop-color="#F6F7F9"/>
<stop offset="0.78" stop-color="#F3F4F6"/>
</linearGradient>
<linearGradient id="paint8_linear_15363_51573" x1="40.5944" y1="18.0874" x2="40.6146" y2="35.665" gradientUnits="userSpaceOnUse">
<stop stop-color="#F6F7F9"/>
<stop offset="1" stop-color="#4B5563"/>
</linearGradient>
<linearGradient id="paint9_linear_15363_51573" x1="29.4169" y1="22.5782" x2="29.4546" y2="38.1747" gradientUnits="userSpaceOnUse">
<stop stop-color="#F6F7F9"/>
<stop offset="1" stop-color="#4B5563"/>
</linearGradient>
<linearGradient id="paint10_linear_15363_51573" x1="84.9123" y1="44.8222" x2="103.645" y2="44.8222" gradientUnits="userSpaceOnUse">
<stop stop-color="#F6F7F9"/>
<stop offset="0.78" stop-color="#F3F4F6"/>
</linearGradient>
<linearGradient id="paint11_linear_15363_51573" x1="67.3763" y1="41.582" x2="66.5924" y2="77.9564" gradientUnits="userSpaceOnUse">
<stop stop-color="#F6F7F9"/>
<stop offset="1" stop-color="#4B5563"/>
</linearGradient>
<linearGradient id="paint12_linear_15363_51573" x1="50.7988" y1="43.8789" x2="81.92" y2="43.8789" gradientUnits="userSpaceOnUse">
<stop stop-color="#F6F7F9"/>
<stop offset="0.78" stop-color="#F3F4F6"/>
</linearGradient>
</defs>
</svg>
