<svg width="129" height="106" viewBox="0 0 129 106" fill="none" xmlns="http://www.w3.org/2000/svg">
<path d="M8.07641 73.96C20.3392 51.8124 12.6172 51.0155 6.54157 44.0553C0.721111 37.3899 -0.21973 27.2225 1.5583 18.5571C3.34032 9.89166 9.99398 1.94737 18.7007 0.333812C31.8964 -2.11242 44.0556 9.70441 57.4626 9.22632C64.2877 8.98329 70.5347 5.5729 77.0329 3.4693C92.4172 -1.51481 111.266 1.85972 121.181 14.6327C129.879 25.832 130.143 41.5892 126.658 55.3303C123.102 69.3464 115.775 82.7648 104.297 91.5776C92.8239 100.386 76.9013 103.972 63.3827 98.8168C53.7351 95.1394 44.0317 87.231 34.3601 90.8366C31.1908 92.0199 16.7872 98.6853 10.3249 91.1593C7.54221 87.9202 5.61268 78.4102 8.07641 73.96Z" fill="url(#paint0_linear_15648_57667)" fill-opacity="0.6"/>
<g filter="url(#filter0_dd_15648_57667)">
<path d="M48.9497 38.5539C51.7395 33.5157 50.6534 24.9544 44.559 22.8282C38.233 20.6198 32.7821 22.4892 32.2931 25.8788C32.2931 25.8788 28.9473 25.093 26.7288 28.6676C24.5104 32.2421 26.106 38.2509 29.4209 41.8871C32.7357 45.5232 46.6797 42.6523 48.9497 38.5539Z" fill="#9CA3AF"/>
<path d="M48.9497 38.5539C51.7395 33.5157 50.6534 24.9544 44.559 22.8282C38.233 20.6198 32.7821 22.4892 32.2931 25.8788C32.2931 25.8788 28.9473 25.093 26.7288 28.6676C24.5104 32.2421 26.106 38.2509 29.4209 41.8871C32.7357 45.5232 46.6797 42.6523 48.9497 38.5539Z" fill="url(#paint1_linear_15648_57667)"/>
<path d="M58.2709 59.9546C53.0618 64.6795 46.1336 67.5607 38.5362 67.5607C30.9388 67.5607 24.0157 64.6795 18.8066 59.9546C19.2236 59.1174 19.6868 58.3214 20.1913 57.6075C22.2605 54.7058 28.0151 53.0161 31.7109 52.2047C33.636 51.7784 35.0051 51.5884 35.0051 51.5884L38.5362 52.1328L42.0672 51.5884C42.0672 51.5884 43.3334 51.763 45.1401 52.1585C48.8307 52.9545 54.7759 54.6493 56.8914 57.6075C57.401 58.3214 57.8591 59.1174 58.276 59.9546H58.2709Z" fill="#374151"/>
<path d="M58.2709 59.9551C53.0618 64.68 46.1336 67.5612 38.5362 67.5612C30.9388 67.5612 24.0157 64.68 18.8066 59.9551C19.2236 59.1179 19.6868 58.3219 20.1913 57.608C22.2605 54.7063 28.0151 53.0166 31.7109 52.2052C33.636 51.7789 35.0051 51.5889 35.0051 51.5889L38.5362 52.1333L42.0672 51.5889C42.0672 51.5889 43.3334 51.7635 45.1401 52.1589C48.8307 52.955 54.7759 54.6498 56.8914 57.608C57.401 58.3219 57.8591 59.1179 58.276 59.9551H58.2709Z" fill="url(#paint2_linear_15648_57667)" fill-opacity="0.25"/>
<path d="M50.1482 40.3313C50.1482 42.6322 47.9246 44.6505 46.3032 43.762C45.284 46.0115 43.6523 47.7885 41.5574 48.7129V51.3014C43.7707 51.6301 45.1708 52.1693 45.1708 52.1693C45.1708 52.1693 43.3641 57.4386 38.5925 57.4386C33.821 57.4386 31.6952 52.1693 31.6952 52.1693C32.946 51.7276 34.1762 51.44 35.36 51.2706V48.9595C32.9717 48.1223 31.1238 46.2221 30.0069 43.762C28.3855 44.6403 26.167 42.627 26.167 40.3262C26.167 38.8728 27.4487 37.5221 28.8281 38.4311C28.7921 37.2447 28.9002 36.0173 29.1576 34.7847C29.2759 34.2249 29.5127 33.7164 29.8473 33.2594C29.873 33.85 29.9451 34.2557 29.9451 34.2557L31.1444 34.9028L40.7287 32.2784C41.0838 31.657 41.2743 31.0664 41.336 30.5117C44.2597 31.0972 46.6789 32.5198 47.1525 34.7847C47.4098 36.0173 47.5179 37.2447 47.4819 38.4311C48.8614 37.5169 50.143 38.8676 50.143 40.3211L50.1482 40.3313Z" fill="url(#paint3_linear_15648_57667)"/>
<path d="M50.1482 40.3313C50.1482 42.6322 47.9246 44.6505 46.3032 43.762C45.284 46.0115 43.6523 47.7885 41.5574 48.7129V51.3014C43.7707 51.6301 45.1708 52.1693 45.1708 52.1693C45.1708 52.1693 43.3641 57.4386 38.5925 57.4386C33.821 57.4386 31.6952 52.1693 31.6952 52.1693C32.946 51.7276 34.1762 51.44 35.36 51.2706V48.9595C32.9717 48.1223 31.1238 46.2221 30.0069 43.762C28.3855 44.6403 26.167 42.627 26.167 40.3262C26.167 38.8728 27.4487 37.5221 28.8281 38.4311C28.7921 37.2447 28.9002 36.0173 29.1576 34.7847C29.2759 34.2249 29.5127 33.7164 29.8473 33.2594C29.873 33.85 29.9451 34.2557 29.9451 34.2557L31.1444 34.9028L40.7287 32.2784C41.0838 31.657 41.2743 31.0664 41.336 30.5117C44.2597 31.0972 46.6789 32.5198 47.1525 34.7847C47.4098 36.0173 47.5179 37.2447 47.4819 38.4311C48.8614 37.5169 50.143 38.8676 50.143 40.3211L50.1482 40.3313Z" fill="url(#paint4_linear_15648_57667)"/>
<path d="M50.1482 40.3313C50.1482 42.6322 47.9246 44.6505 46.3032 43.762C45.284 46.0115 43.6523 47.7885 41.5574 48.7129V51.3014C43.7707 51.6301 45.1708 52.1693 45.1708 52.1693C45.1708 52.1693 43.3641 57.4386 38.5925 57.4386C33.821 57.4386 31.6952 52.1693 31.6952 52.1693C32.946 51.7276 34.1762 51.44 35.36 51.2706V48.9595C32.9717 48.1223 31.1238 46.2221 30.0069 43.762C28.3855 44.6403 26.167 42.627 26.167 40.3262C26.167 38.8728 27.4487 37.5221 28.8281 38.4311C28.7921 37.2447 28.9002 36.0173 29.1576 34.7847C29.2759 34.2249 29.5127 33.7164 29.8473 33.2594C29.873 33.85 29.9451 34.2557 29.9451 34.2557L31.1444 34.9028L40.7287 32.2784C41.0838 31.657 41.2743 31.0664 41.336 30.5117C44.2597 31.0972 46.6789 32.5198 47.1525 34.7847C47.4098 36.0173 47.5179 37.2447 47.4819 38.4311C48.8614 37.5169 50.143 38.8676 50.143 40.3211L50.1482 40.3313Z" fill="url(#paint5_linear_15648_57667)"/>
<path d="M41.3413 30.5162C41.2795 31.0709 41.0891 31.6615 40.7339 32.2829L31.1497 34.9073L29.9503 34.2602C29.9503 34.2602 29.8783 33.8545 29.8525 33.2638C30.6761 32.1288 32.1019 31.3122 33.7902 30.8089C36.0962 30.1207 38.8963 30.0232 41.3413 30.5162Z" fill="url(#paint6_linear_15648_57667)"/>
<path d="M41.3407 30.5164C41.279 31.0711 41.0885 31.6617 40.7334 32.2831L31.1491 34.9075L29.9498 34.2604C29.9498 34.2604 29.8777 33.8547 29.852 33.264C29.8005 32.0777 29.9292 30.1518 31.1491 29.2684C32.9816 27.9485 33.7897 30.8091 33.7897 30.8091C33.7228 29.1708 34.1603 27.7842 36.2707 26.5413C38.0568 25.4885 41.7062 27.4041 41.3407 30.5164Z" fill="url(#paint7_linear_15648_57667)"/>
<path d="M41.3407 30.5164C41.279 31.0711 41.0885 31.6617 40.7334 32.2831L31.1491 34.9075L29.9498 34.2604C29.9498 34.2604 29.8777 33.8547 29.852 33.264C29.8005 32.0777 29.9292 30.1518 31.1491 29.2684C32.9816 27.9485 33.7897 30.8091 33.7897 30.8091C33.7228 29.1708 34.1603 27.7842 36.2707 26.5413C38.0568 25.4885 41.7062 27.4041 41.3407 30.5164Z" fill="url(#paint8_linear_15648_57667)"/>
<path d="M41.3407 30.5164C41.279 31.0711 41.0885 31.6617 40.7334 32.2831L31.1491 34.9075L29.9498 34.2604C29.9498 34.2604 29.8777 33.8547 29.852 33.264C29.8005 32.0777 29.9292 30.1518 31.1491 29.2684C32.9816 27.9485 33.7897 30.8091 33.7897 30.8091C33.7228 29.1708 34.1603 27.7842 36.2707 26.5413C38.0568 25.4885 41.7062 27.4041 41.3407 30.5164Z" fill="url(#paint9_linear_15648_57667)"/>
<path d="M33.7903 30.8095C34.0323 27.4456 38.7523 29.6539 41.3671 32.4632C44.4452 35.7707 46.8747 36.387 48.9542 34.9027C51.0337 33.4185 48.3108 26.706 41.8664 25.2269C35.422 23.7529 32.8999 28.4522 33.7903 30.8044V30.8095Z" fill="#4B5563"/>
<path d="M33.7903 30.8095C34.0323 27.4456 38.7523 29.6539 41.3671 32.4632C44.4452 35.7707 46.8747 36.387 48.9542 34.9027C51.0337 33.4185 48.3108 26.706 41.8664 25.2269C35.422 23.7529 32.8999 28.4522 33.7903 30.8044V30.8095Z" fill="url(#paint10_linear_15648_57667)"/>
<path d="M33.7906 30.8088C32.5552 28.3642 29.4257 32.935 28.8286 37.2183C28.4683 39.7964 28.0256 36.4171 27.3719 35.77C26.7182 35.1229 26.816 30.0539 30.4912 28.9188C34.1663 27.7838 33.7906 30.8088 33.7906 30.8088Z" fill="#4B5563"/>
<path d="M33.7906 30.8088C32.5552 28.3642 29.4257 32.935 28.8286 37.2183C28.4683 39.7964 28.0256 36.4171 27.3719 35.77C26.7182 35.1229 26.816 30.0539 30.4912 28.9188C34.1663 27.7838 33.7906 30.8088 33.7906 30.8088Z" fill="url(#paint11_linear_15648_57667)" fill-opacity="0.4"/>
</g>
<g filter="url(#filter1_dd_15648_57667)">
<path d="M86.7877 41.2771C85.6127 33.2789 91.2253 30.3744 96.0991 30.4855C100.977 30.5921 103.283 34.4646 103.283 34.4646C103.283 34.4646 106.772 39.6295 102.5 44.3725C98.2266 49.1155 86.7877 41.2771 86.7877 41.2771Z" fill="#4B5563"/>
<path d="M109.657 59.7384C105.985 63.2112 101.022 65.3429 95.5653 65.3429C90.1085 65.3429 85.1457 63.2157 81.4736 59.7384C81.9766 58.4949 82.5686 57.247 83.2095 56.2122C83.9617 54.9998 85.435 54.0761 87.0151 53.3877C87.0551 53.37 87.0907 53.3522 87.1308 53.3345C89.8414 52.1709 92.8369 51.6957 93.0817 51.6558C93.0906 51.6558 93.0995 51.6558 93.0995 51.6558L95.5609 52.0688L97.9199 51.6735L98.0222 51.6558C98.0222 51.6558 101.236 52.1309 104.093 53.3789C104.107 53.3833 104.111 53.3877 104.111 53.3877C105.691 54.0761 107.164 55.0043 107.917 56.2122C108.562 57.247 109.15 58.4949 109.653 59.7384H109.657Z" fill="#374151"/>
<path d="M109.657 59.7384C105.985 63.2112 101.022 65.3429 95.5653 65.3429C90.1085 65.3429 85.1457 63.2157 81.4736 59.7384C81.9766 58.4949 82.5686 57.247 83.2095 56.2122C83.9617 54.9998 85.435 54.0761 87.0151 53.3877C87.0551 53.37 87.0907 53.3522 87.1308 53.3345C89.8414 52.1709 92.8369 51.6957 93.0817 51.6558C93.0906 51.6558 93.0995 51.6558 93.0995 51.6558L95.5609 52.0688L97.9199 51.6735L98.0222 51.6558C98.0222 51.6558 101.236 52.1309 104.093 53.3789C104.107 53.3833 104.111 53.3877 104.111 53.3877C105.691 54.0761 107.164 55.0043 107.917 56.2122C108.562 57.247 109.15 58.4949 109.653 59.7384H109.657Z" fill="url(#paint12_linear_15648_57667)" fill-opacity="0.2"/>
<path d="M104.623 42.8667C104.623 44.6609 102.887 46.2374 101.623 45.5446C100.826 47.2944 99.5533 48.6889 97.9198 49.4127V52.2772C97.9198 53.6095 96.8382 54.6931 95.5029 54.6931C94.1676 54.6931 93.0816 53.6095 93.0816 52.2772V49.5993C91.2211 48.9464 89.7745 47.4676 88.9066 45.5491C87.6381 46.233 85.9111 44.6609 85.9111 42.8667C85.9111 41.7298 86.9081 40.6817 87.9853 41.3834C87.963 40.4552 88.0431 39.5004 88.2434 38.5412C89.236 33.776 101.289 33.776 102.286 38.5412C102.486 39.5004 102.571 40.4597 102.544 41.3834C103.621 40.6729 104.623 41.7254 104.623 42.8623V42.8667Z" fill="url(#paint13_linear_15648_57667)"/>
<path d="M104.623 42.8667C104.623 44.6609 102.887 46.2374 101.623 45.5446C100.826 47.2944 99.5533 48.6889 97.9198 49.4127V52.2772C97.9198 53.6095 96.8382 54.6931 95.5029 54.6931C94.1676 54.6931 93.0816 53.6095 93.0816 52.2772V49.5993C91.2211 48.9464 89.7745 47.4676 88.9066 45.5491C87.6381 46.233 85.9111 44.6609 85.9111 42.8667C85.9111 41.7298 86.9081 40.6817 87.9853 41.3834C87.963 40.4552 88.0431 39.5004 88.2434 38.5412C89.236 33.776 101.289 33.776 102.286 38.5412C102.486 39.5004 102.571 40.4597 102.544 41.3834C103.621 40.6729 104.623 41.7254 104.623 42.8623V42.8667Z" fill="url(#paint14_linear_15648_57667)"/>
</g>
<g filter="url(#filter2_dd_15648_57667)">
<path d="M73.1187 21.8521C71.8256 15.2838 79.0919 11.2959 83.4561 16.0022C87.8129 20.7012 84.5655 24.2346 80.1572 24.6671C75.7489 25.0996 74.2354 21.6835 74.2354 21.6835L73.1187 21.8521Z" fill="#4B5563"/>
<path d="M69.959 21.5958C71.1713 17.8645 77.6147 20.8994 79.1649 23.4065C80.7152 25.9136 79.9952 29.5497 79.9952 29.5497L69.959 21.5958Z" fill="#6B7280"/>
<path d="M53.2445 37.9941C51.2975 24.7109 60.6137 19.8873 68.7176 20.0632C76.8215 20.2392 80.6493 26.6755 80.6493 26.6755C80.6493 26.6755 86.4462 35.2598 79.3489 43.133C72.2515 51.0062 53.2445 37.9941 53.2445 37.9941Z" fill="#4B5563"/>
<path d="M91.2358 68.6515C85.1377 74.4208 76.8942 77.9615 67.8279 77.9615C58.7615 77.9615 50.518 74.4281 44.4199 68.6515C45.2575 66.5916 46.2347 64.5097 47.3073 62.7943C48.5564 60.7857 51.003 59.2462 53.6259 58.1026C53.692 58.0733 53.7581 58.044 53.8242 58.0147C58.328 56.0867 63.302 55.295 63.7135 55.229C63.7282 55.229 63.7429 55.229 63.7429 55.229L67.8352 55.9181L71.7512 55.2583L71.9202 55.229C71.9202 55.229 77.2616 56.0207 82.0078 58.088C82.0299 58.0953 82.0372 58.1026 82.0372 58.1026C84.6675 59.2462 87.1067 60.7857 88.3558 62.7943C89.4284 64.5097 90.3983 66.5916 91.2432 68.6515H91.2358Z" fill="#1F2937"/>
<path d="M91.2358 68.6515C85.1377 74.4208 76.8942 77.9615 67.8279 77.9615C58.7615 77.9615 50.518 74.4281 44.4199 68.6515C45.2575 66.5916 46.2347 64.5097 47.3073 62.7943C48.5564 60.7857 51.003 59.2462 53.6259 58.1026C53.692 58.0733 53.7581 58.044 53.8242 58.0147C58.328 56.0867 63.302 55.295 63.7135 55.229C63.7282 55.229 63.7429 55.229 63.7429 55.229L67.8352 55.9181L71.7512 55.2583L71.9202 55.229C71.9202 55.229 77.2616 56.0207 82.0078 58.088C82.0299 58.0953 82.0372 58.1026 82.0372 58.1026C84.6675 59.2462 87.1067 60.7857 88.3558 62.7943C89.4284 64.5097 90.3983 66.5916 91.2432 68.6515H91.2358Z" fill="url(#paint15_linear_15648_57667)" fill-opacity="0.25"/>
<path d="M53.6182 58.1031C58.6069 68.3515 73.742 69.3118 82.0222 58.1031C82.0222 58.1031 69.9508 50.4059 53.6182 58.1031Z" fill="#1F2937"/>
<path d="M82.8752 40.6337C82.8752 43.6173 79.9952 46.227 77.8939 45.0834C76.5714 47.9937 74.4554 50.3029 71.7443 51.5052V56.2628C71.7443 58.4767 69.9443 60.2727 67.7255 60.2727C65.5066 60.2727 63.7066 58.4767 63.7066 56.2628V51.8204C60.6134 50.7354 58.2183 48.2796 56.7782 45.0908C54.6769 46.227 51.7969 43.6173 51.7969 40.6337C51.7969 38.7497 53.4573 37.005 55.2427 38.1706C55.2059 36.6311 55.3382 35.0477 55.6762 33.4496C57.3293 25.5324 77.3428 25.5324 79.0033 33.4496C79.3339 35.0404 79.4735 36.6311 79.4294 38.1706C81.2148 36.9903 82.8826 38.7424 82.8826 40.6264L82.8752 40.6337Z" fill="url(#paint16_linear_15648_57667)"/>
<path d="M69.099 25.2021C54.8382 29.8864 57.1085 43.287 59.7314 51.2408C59.7314 51.2408 50.5769 38.1115 54.6766 29.8938C58.7763 21.676 69.099 25.2094 69.099 25.2094V25.2021Z" fill="#4B5563"/>
</g>
<defs>
<filter id="filter0_dd_15648_57667" x="5.27211" y="21.8726" width="66.5388" height="72.7575" filterUnits="userSpaceOnUse" color-interpolation-filters="sRGB">
<feFlood flood-opacity="0" result="BackgroundImageFix"/>
<feColorMatrix in="SourceAlpha" type="matrix" values="0 0 0 0 0 0 0 0 0 0 0 0 0 0 0 0 0 0 127 0" result="hardAlpha"/>
<feMorphology radius="2.70691" operator="erode" in="SourceAlpha" result="effect1_dropShadow_15648_57667"/>
<feOffset dy="5.41381"/>
<feGaussianBlur stdDeviation="2.70691"/>
<feComposite in2="hardAlpha" operator="out"/>
<feColorMatrix type="matrix" values="0 0 0 0 0.0901961 0 0 0 0 0.219608 0 0 0 0 0.482353 0 0 0 0.03 0"/>
<feBlend mode="normal" in2="BackgroundImageFix" result="effect1_dropShadow_15648_57667"/>
<feColorMatrix in="SourceAlpha" type="matrix" values="0 0 0 0 0 0 0 0 0 0 0 0 0 0 0 0 0 0 127 0" result="hardAlpha"/>
<feMorphology radius="2.70691" operator="erode" in="SourceAlpha" result="effect2_dropShadow_15648_57667"/>
<feOffset dy="13.5345"/>
<feGaussianBlur stdDeviation="8.12072"/>
<feComposite in2="hardAlpha" operator="out"/>
<feColorMatrix type="matrix" values="0 0 0 0 0.0902477 0 0 0 0 0.2203 0 0 0 0 0.480404 0 0 0 0.08 0"/>
<feBlend mode="normal" in2="effect1_dropShadow_15648_57667" result="effect2_dropShadow_15648_57667"/>
<feBlend mode="normal" in="SourceGraphic" in2="effect2_dropShadow_15648_57667" result="shape"/>
</filter>
<filter id="filter1_dd_15648_57667" x="67.9391" y="30.4824" width="55.2527" height="61.9294" filterUnits="userSpaceOnUse" color-interpolation-filters="sRGB">
<feFlood flood-opacity="0" result="BackgroundImageFix"/>
<feColorMatrix in="SourceAlpha" type="matrix" values="0 0 0 0 0 0 0 0 0 0 0 0 0 0 0 0 0 0 127 0" result="hardAlpha"/>
<feMorphology radius="2.70691" operator="erode" in="SourceAlpha" result="effect1_dropShadow_15648_57667"/>
<feOffset dy="5.41381"/>
<feGaussianBlur stdDeviation="2.70691"/>
<feComposite in2="hardAlpha" operator="out"/>
<feColorMatrix type="matrix" values="0 0 0 0 0.0901961 0 0 0 0 0.219608 0 0 0 0 0.482353 0 0 0 0.03 0"/>
<feBlend mode="normal" in2="BackgroundImageFix" result="effect1_dropShadow_15648_57667"/>
<feColorMatrix in="SourceAlpha" type="matrix" values="0 0 0 0 0 0 0 0 0 0 0 0 0 0 0 0 0 0 127 0" result="hardAlpha"/>
<feMorphology radius="2.70691" operator="erode" in="SourceAlpha" result="effect2_dropShadow_15648_57667"/>
<feOffset dy="13.5345"/>
<feGaussianBlur stdDeviation="8.12072"/>
<feComposite in2="hardAlpha" operator="out"/>
<feColorMatrix type="matrix" values="0 0 0 0 0.0902477 0 0 0 0 0.2203 0 0 0 0 0.480404 0 0 0 0.08 0"/>
<feBlend mode="normal" in2="effect1_dropShadow_15648_57667" result="effect2_dropShadow_15648_57667"/>
<feBlend mode="normal" in="SourceGraphic" in2="effect2_dropShadow_15648_57667" result="shape"/>
</filter>
<filter id="filter2_dd_15648_57667" x="30.8854" y="13.9487" width="73.8923" height="91.0818" filterUnits="userSpaceOnUse" color-interpolation-filters="sRGB">
<feFlood flood-opacity="0" result="BackgroundImageFix"/>
<feColorMatrix in="SourceAlpha" type="matrix" values="0 0 0 0 0 0 0 0 0 0 0 0 0 0 0 0 0 0 127 0" result="hardAlpha"/>
<feMorphology radius="2.70691" operator="erode" in="SourceAlpha" result="effect1_dropShadow_15648_57667"/>
<feOffset dy="5.41381"/>
<feGaussianBlur stdDeviation="2.70691"/>
<feComposite in2="hardAlpha" operator="out"/>
<feColorMatrix type="matrix" values="0 0 0 0 0.0901961 0 0 0 0 0.219608 0 0 0 0 0.482353 0 0 0 0.03 0"/>
<feBlend mode="normal" in2="BackgroundImageFix" result="effect1_dropShadow_15648_57667"/>
<feColorMatrix in="SourceAlpha" type="matrix" values="0 0 0 0 0 0 0 0 0 0 0 0 0 0 0 0 0 0 127 0" result="hardAlpha"/>
<feMorphology radius="2.70691" operator="erode" in="SourceAlpha" result="effect2_dropShadow_15648_57667"/>
<feOffset dy="13.5345"/>
<feGaussianBlur stdDeviation="8.12072"/>
<feComposite in2="hardAlpha" operator="out"/>
<feColorMatrix type="matrix" values="0 0 0 0 0.0902477 0 0 0 0 0.2203 0 0 0 0 0.480404 0 0 0 0.08 0"/>
<feBlend mode="normal" in2="effect1_dropShadow_15648_57667" result="effect2_dropShadow_15648_57667"/>
<feBlend mode="normal" in="SourceGraphic" in2="effect2_dropShadow_15648_57667" result="shape"/>
</filter>
<linearGradient id="paint0_linear_15648_57667" x1="76.2874" y1="120.004" x2="59.0826" y2="-5.89625" gradientUnits="userSpaceOnUse">
<stop stop-color="#1F2937"/>
<stop offset="0.645768" stop-color="#111827"/>
</linearGradient>
<linearGradient id="paint1_linear_15648_57667" x1="25.7037" y1="32.7034" x2="50.4365" y2="32.7034" gradientUnits="userSpaceOnUse">
<stop stop-color="#374151"/>
<stop offset="0.78" stop-color="#1F2937"/>
</linearGradient>
<linearGradient id="paint2_linear_15648_57667" x1="38.5413" y1="51.5889" x2="38.5413" y2="67.5612" gradientUnits="userSpaceOnUse">
<stop offset="0.07" stop-color="#F6F7F9"/>
<stop offset="1" stop-color="#4B5563"/>
</linearGradient>
<linearGradient id="paint3_linear_15648_57667" x1="26.1685" y1="43.9642" x2="50.1771" y2="43.9642" gradientUnits="userSpaceOnUse">
<stop stop-color="white"/>
<stop offset="0.78" stop-color="#ECEEFF"/>
</linearGradient>
<linearGradient id="paint4_linear_15648_57667" x1="26.1685" y1="43.9642" x2="50.1771" y2="43.9642" gradientUnits="userSpaceOnUse">
<stop stop-color="#F6F7F9"/>
<stop offset="0.78" stop-color="#F3F4F6"/>
</linearGradient>
<linearGradient id="paint5_linear_15648_57667" x1="26.1685" y1="43.9642" x2="50.1771" y2="43.9642" gradientUnits="userSpaceOnUse">
<stop stop-color="#374151"/>
<stop offset="0.78" stop-color="#1F2937"/>
</linearGradient>
<linearGradient id="paint6_linear_15648_57667" x1="29.8533" y1="32.5555" x2="41.3551" y2="32.5555" gradientUnits="userSpaceOnUse">
<stop stop-color="white"/>
<stop offset="0.78" stop-color="#ECEEFF"/>
</linearGradient>
<linearGradient id="paint7_linear_15648_57667" x1="29.8435" y1="30.5755" x2="41.3802" y2="30.5755" gradientUnits="userSpaceOnUse">
<stop stop-color="white"/>
<stop offset="0.78" stop-color="#ECEEFF"/>
</linearGradient>
<linearGradient id="paint8_linear_15648_57667" x1="29.8435" y1="30.5755" x2="41.3802" y2="30.5755" gradientUnits="userSpaceOnUse">
<stop stop-color="#F6F7F9"/>
<stop offset="0.78" stop-color="#F3F4F6"/>
</linearGradient>
<linearGradient id="paint9_linear_15648_57667" x1="29.8435" y1="30.5755" x2="41.3802" y2="30.5755" gradientUnits="userSpaceOnUse">
<stop stop-color="#374151"/>
<stop offset="0.78" stop-color="#1F2937"/>
</linearGradient>
<linearGradient id="paint10_linear_15648_57667" x1="33.6182" y1="30.3013" x2="49.6603" y2="30.3013" gradientUnits="userSpaceOnUse">
<stop stop-color="#374151"/>
<stop offset="0.78" stop-color="#1F2937"/>
</linearGradient>
<linearGradient id="paint11_linear_15648_57667" x1="27.062" y1="33.4155" x2="33.8095" y2="33.4155" gradientUnits="userSpaceOnUse">
<stop stop-color="#374151"/>
<stop offset="0.78" stop-color="#1F2937"/>
</linearGradient>
<linearGradient id="paint12_linear_15648_57667" x1="95.5653" y1="51.6558" x2="95.5653" y2="65.3429" gradientUnits="userSpaceOnUse">
<stop offset="0.07" stop-color="#F6F7F9"/>
<stop offset="1" stop-color="#4B5563"/>
</linearGradient>
<linearGradient id="paint13_linear_15648_57667" x1="85.9123" y1="44.8222" x2="104.645" y2="44.8222" gradientUnits="userSpaceOnUse">
<stop stop-color="#F6F7F9"/>
<stop offset="0.78" stop-color="#F3F4F6"/>
</linearGradient>
<linearGradient id="paint14_linear_15648_57667" x1="85.9123" y1="44.8222" x2="104.645" y2="44.8222" gradientUnits="userSpaceOnUse">
<stop stop-color="#374151"/>
<stop offset="0.78" stop-color="#1F2937"/>
</linearGradient>
<linearGradient id="paint15_linear_15648_57667" x1="68.3763" y1="41.582" x2="67.5924" y2="77.9564" gradientUnits="userSpaceOnUse">
<stop stop-color="#F6F7F9"/>
<stop offset="1" stop-color="#4B5563"/>
</linearGradient>
<linearGradient id="paint16_linear_15648_57667" x1="51.7988" y1="43.8789" x2="82.92" y2="43.8789" gradientUnits="userSpaceOnUse">
<stop stop-color="#374151"/>
<stop offset="0.78" stop-color="#1F2937"/>
</linearGradient>
</defs>
</svg>
