<svg width="128" height="144" viewBox="0 0 128 144" fill="none" xmlns="http://www.w3.org/2000/svg">
  <path
    d="M119.661 98.3495C107.618 76.5853 115.202 75.8023 121.169 68.9626C126.885 62.4125 127.809 52.4211 126.063 43.9057C124.313 35.3903 117.778 27.5836 109.227 25.998C96.2668 23.5941 84.3248 35.2063 71.1572 34.7365C64.454 34.4977 58.3185 31.1463 51.9364 29.0792C36.8267 24.1813 18.3146 27.4974 8.57693 40.0493C0.0334778 51.0548 -0.224983 66.5391 3.1971 80.0424C6.68966 93.8158 13.8862 107.002 25.1588 115.662C36.4274 124.319 52.0656 127.842 65.3428 122.776C74.8181 119.162 84.3483 111.391 93.8471 114.934C96.9599 116.097 111.106 122.647 117.453 115.251C120.186 112.068 122.081 102.723 119.661 98.3495Z"
    fill="url(#paint0_linear_8163_4594)" fill-opacity="0.6" />
  <g filter="url(#filter0_dd_8163_4594)">
    <path
      d="M65.4781 97.0374L48.0669 106.556C45.7492 104.795 44.4021 102.701 44.4021 100.453C44.4021 97.6357 46.5121 95.0594 50.0079 93.0814C52.9629 91.4074 56.9029 90.1627 61.3885 89.5645L65.4781 97.0326V97.0374Z"
      fill="url(#paint1_linear_8163_4594)" />
    <path
      d="M73.3291 111.375C71.4653 111.612 69.505 111.742 67.4867 111.742C60.7559 111.742 54.6962 110.333 50.4762 108.09L66.6755 99.2324L73.3243 111.38L73.3291 111.375Z"
      fill="url(#paint2_linear_8163_4594)" />
    <path
      d="M88.215 95.4793L72.2523 104.207L64.0874 89.2944C65.1979 89.2124 66.3326 89.1738 67.4866 89.1738C75.0334 89.1738 81.7304 90.9444 85.9456 93.6798C86.8148 94.2443 87.5728 94.8473 88.215 95.4841V95.4793Z"
      fill="url(#paint3_linear_8163_4594)" />
    <path
      d="M90.5714 100.454C90.5714 102.432 89.5333 104.29 87.7033 105.906C85.1201 108.193 80.9628 109.992 75.9461 110.957L73.4498 106.398L89.7602 97.4824C90.2865 98.428 90.5714 99.4267 90.5714 100.454Z"
      fill="url(#paint4_linear_8163_4594)" />
    <g filter="url(#filter1_dd_8163_4594)">
      <path
        d="M69.5357 33.8164C56.9173 33.8164 46.6868 44.0522 46.6868 56.6823C46.6868 73.7351 61.3115 88.6392 67.1635 93.9087C67.3934 94.1231 67.6129 94.3165 67.8167 94.4942C68.799 95.362 70.2776 95.362 71.2599 94.4942C72.075 93.778 73.1305 92.8109 74.3427 91.619C81.0464 85.0478 92.3898 71.7015 92.3898 56.6823C92.3898 44.0522 82.1593 33.8164 69.5357 33.8164ZM69.5357 73.5678C60.2143 73.5678 52.6589 66.0085 52.6589 56.6823C52.6589 47.3561 60.2143 39.7917 69.5357 39.7917C78.8571 39.7917 86.4177 47.3561 86.4177 56.6823C86.4177 66.0085 78.8623 73.5678 69.5357 73.5678Z"
        fill="#9CA3AF" />
      <path
        d="M69.5357 33.8164C56.9173 33.8164 46.6868 44.0522 46.6868 56.6823C46.6868 73.7351 61.3115 88.6392 67.1635 93.9087C67.3934 94.1231 67.6129 94.3165 67.8167 94.4942C68.799 95.362 70.2776 95.362 71.2599 94.4942C72.075 93.778 73.1305 92.8109 74.3427 91.619C81.0464 85.0478 92.3898 71.7015 92.3898 56.6823C92.3898 44.0522 82.1593 33.8164 69.5357 33.8164ZM69.5357 73.5678C60.2143 73.5678 52.6589 66.0085 52.6589 56.6823C52.6589 47.3561 60.2143 39.7917 69.5357 39.7917C78.8571 39.7917 86.4177 47.3561 86.4177 56.6823C86.4177 66.0085 78.8623 73.5678 69.5357 73.5678Z"
        fill="url(#paint5_linear_8163_4594)" fill-opacity="0.25" />
    </g>
  </g>
  <path
    d="M75.2947 7.30115C74.1962 7.3043 73.1008 6.88853 72.2856 6.15148C71.9142 5.81761 71.5837 5.27585 71.8418 4.84748C71.9834 4.61125 72.2761 4.49786 72.55 4.50415C72.8238 4.51045 73.0851 4.62385 73.3274 4.75929C74.2654 5.28215 74.9988 6.16408 75.2915 7.30115H75.2947Z"
    fill="#9CA3AF" />
  <path
    d="M75.3891 7.02985C74.9516 6.02192 74.9043 4.85021 75.26 3.81078C75.4206 3.33832 75.7888 2.82175 76.283 2.89105C76.5568 2.92885 76.7772 3.15248 76.8779 3.40761C76.9786 3.66274 76.9786 3.94937 76.9503 4.2234C76.8401 5.29432 76.3176 6.31485 75.3891 7.03299V7.02985Z"
    fill="#9CA3AF" />
  <path
    d="M76.3278 9.1405C77.4894 8.62926 78.1554 7.58746 77.8153 6.81357C77.4751 6.03968 76.2577 5.82675 75.0961 6.33799C73.9345 6.84923 73.2685 7.89103 73.6086 8.66493C73.9488 9.43882 75.1662 9.65174 76.3278 9.1405Z"
    fill="#9CA3AF" />
  <g filter="url(#filter2_dd_8163_4594)">
    <path
      d="M64.6937 39.4698L61.1086 40.5564H61.096C60.8662 40.6289 60.6238 40.4997 60.5546 40.2698C60.4853 40.0399 60.6144 39.7973 60.8442 39.728L64.467 38.6445C64.6937 38.5784 64.9297 38.7044 64.999 38.9312C65.0651 39.1579 64.9392 39.3942 64.7125 39.4635L64.6937 39.4698Z"
      fill="#9CA3AF" />
    <path
      d="M57.533 41.7446L53.9416 42.9415C53.7055 43.0202 53.4506 42.8911 53.3719 42.658C53.2932 42.4218 53.4222 42.1666 53.6552 42.0879L53.6646 42.0847L57.2529 40.9067C57.4858 40.8311 57.7344 40.9571 57.81 41.187C57.8855 41.4201 57.7628 41.669 57.5298 41.7446H57.533Z"
      fill="#9CA3AF" />
    <path
      d="M50.2999 44.0568L46.5826 44.986C46.3339 45.049 46.0821 44.8978 46.0192 44.6458C45.9562 44.397 46.1073 44.1419 46.3591 44.082L46.3906 44.0726L50.0544 43.1717L50.0795 43.1654C50.3251 43.1056 50.5737 43.2568 50.6335 43.5025C50.6933 43.7481 50.5454 43.997 50.2999 44.0568Z"
      fill="#9CA3AF" />
    <path
      d="M42.7771 45.6149L40.8476 45.763C40.5297 45.7976 40.1992 45.7976 39.8718 45.7945H38.8866C38.6317 45.7976 38.424 45.5897 38.424 45.3346C38.424 45.0795 38.6285 44.8716 38.8866 44.8716H38.9181L39.8593 44.8653C40.174 44.8653 40.4856 44.8653 40.7972 44.8306L42.6732 44.6795H42.7047C42.9628 44.6574 43.1894 44.8495 43.2114 45.1078C43.2335 45.3661 43.0383 45.5929 42.7802 45.6149H42.7771Z"
      fill="#9CA3AF" />
    <path
      d="M34.9615 45.2124C33.6742 44.847 32.4025 44.2801 31.3072 43.4076C31.1152 43.2533 31.0806 42.9729 31.2348 42.7776C31.389 42.5824 31.6692 42.5509 31.8643 42.7052C32.8432 43.48 34.0078 43.9966 35.2102 44.3336C35.4526 44.4029 35.5942 44.6549 35.525 44.8943C35.4557 45.1368 35.207 45.2786 34.9647 45.2093L34.9615 45.2124Z"
      fill="#9CA3AF" />
    <path
      d="M28.8897 39.9928C28.4396 38.6384 28.4208 37.1927 28.704 35.8478C28.7544 35.6115 28.9842 35.4635 29.2171 35.5107C29.45 35.558 29.6011 35.7879 29.5507 36.021C29.2989 37.2399 29.3241 38.5282 29.7239 39.7094C29.8026 39.9393 29.6767 40.1881 29.4469 40.2669C29.2171 40.3456 28.9684 40.2196 28.8897 39.9897V39.9928Z"
      fill="#9CA3AF" />
    <path
      d="M30.3566 32.1257C30.7532 31.5713 31.219 31.0548 31.71 30.6012C32.2042 30.1413 32.7361 29.7287 33.2933 29.3602C33.4853 29.2342 33.7434 29.2846 33.8724 29.4767C33.9983 29.6689 33.948 29.9271 33.756 30.0531C32.7173 30.7492 31.773 31.5997 31.049 32.617C30.9137 32.8092 30.6493 32.8533 30.4573 32.7178C30.2653 32.5824 30.2212 32.3178 30.3566 32.1257Z"
      fill="#9CA3AF" />
    <path
      d="M36.8499 27.6262C38.0838 27.1947 39.3523 26.886 40.6207 26.6593C40.8379 26.6183 41.0488 26.7632 41.0866 26.9837C41.1275 27.201 40.9827 27.4121 40.7624 27.4499C39.5254 27.6766 38.3041 27.979 37.1206 28.3979C36.9066 28.4735 36.6737 28.3633 36.5981 28.1491C36.5226 27.9349 36.6327 27.7018 36.8468 27.6262H36.8499Z"
      fill="#9CA3AF" />
    <path
      d="M44.4361 26.2001L48.2478 26.0395C48.4493 26.03 48.6161 26.1875 48.6256 26.3859C48.635 26.5844 48.4808 26.7545 48.2825 26.7639H48.2699L44.5022 26.9655H44.4739C44.263 26.9781 44.0804 26.8143 44.071 26.6033C44.0584 26.3922 44.2221 26.2096 44.433 26.2001H44.4361Z"
      fill="#9CA3AF" />
    <path
      d="M52.0342 26.0086L55.7956 25.9551H55.8082C55.9844 25.9551 56.1324 26.0937 56.1324 26.2701C56.1324 26.4464 55.9939 26.5913 55.8207 26.5945L52.0436 26.6921C51.8548 26.6984 51.6974 26.5472 51.6943 26.3582C51.6911 26.1693 51.8391 26.0118 52.0279 26.0086H52.0342Z"
      fill="#9CA3AF" />
    <path
      d="M59.5254 25.7175C60.7624 25.5915 61.9931 25.4089 63.2049 25.1506C63.356 25.1191 63.5039 25.2136 63.5354 25.3648C63.5669 25.5128 63.4725 25.6608 63.3245 25.6955C62.0938 25.9695 60.8442 26.168 59.5915 26.3128C59.4278 26.3317 59.2799 26.2152 59.261 26.0483C59.2421 25.8845 59.3617 25.7364 59.5254 25.7175C59.5254 25.7175 59.5254 25.7175 59.5285 25.7175H59.5254Z"
      fill="#9CA3AF" />
    <path
      d="M66.7682 24.1343C67.9234 23.706 69.0502 23.1894 70.1046 22.5532C70.2117 22.487 70.3501 22.5217 70.4131 22.6288C70.476 22.7359 70.4446 22.8713 70.3407 22.9374C69.2705 23.6083 68.1279 24.1627 66.9507 24.6163C66.8185 24.6667 66.6675 24.6005 66.6171 24.4682C66.5667 24.3359 66.6328 24.1847 66.765 24.1343H66.7682Z"
      fill="#9CA3AF" />
    <path
      d="M73.0097 20.2973C73.8721 19.4185 74.6149 18.42 75.2161 17.3397C75.257 17.2609 75.3546 17.2326 75.4302 17.2767C75.5057 17.3176 75.534 17.4121 75.4931 17.4877C74.8982 18.6027 74.1554 19.6421 73.2866 20.5587C73.2143 20.6375 73.0915 20.6406 73.016 20.5682C72.9404 20.4957 72.9373 20.3729 73.0097 20.2973Z"
      fill="#9CA3AF" />
    <path
      d="M76.5448 13.8842C76.8127 12.6747 76.9009 11.4179 76.7402 10.1832C76.7339 10.1359 76.7654 10.095 76.8127 10.0887C76.8568 10.0824 76.8977 10.1139 76.9072 10.158C77.0995 11.4116 77.0427 12.6967 76.7906 13.9346C76.778 14.0039 76.7118 14.048 76.6425 14.0322C76.5763 14.0196 76.5321 13.9535 76.5448 13.8842Z"
      fill="#9CA3AF" />
  </g>
  <defs>
    <filter id="filter0_dd_8163_4594" x="28.5156" y="33.8164" width="79.7608" height="109.699"
      filterUnits="userSpaceOnUse" color-interpolation-filters="sRGB">
      <feFlood flood-opacity="0" result="BackgroundImageFix" />
      <feColorMatrix in="SourceAlpha" type="matrix" values="0 0 0 0 0 0 0 0 0 0 0 0 0 0 0 0 0 0 127 0"
        result="hardAlpha" />
      <feMorphology radius="3.1773" operator="erode" in="SourceAlpha" result="effect1_dropShadow_8163_4594" />
      <feOffset dy="6.35459" />
      <feGaussianBlur stdDeviation="3.1773" />
      <feComposite in2="hardAlpha" operator="out" />
      <feColorMatrix type="matrix" values="0 0 0 0 0.215686 0 0 0 0 0.254902 0 0 0 0 0.317647 0 0 0 0.03 0" />
      <feBlend mode="normal" in2="BackgroundImageFix" result="effect1_dropShadow_8163_4594" />
      <feColorMatrix in="SourceAlpha" type="matrix" values="0 0 0 0 0 0 0 0 0 0 0 0 0 0 0 0 0 0 127 0"
        result="hardAlpha" />
      <feMorphology radius="3.1773" operator="erode" in="SourceAlpha" result="effect2_dropShadow_8163_4594" />
      <feOffset dy="15.8865" />
      <feGaussianBlur stdDeviation="9.53189" />
      <feComposite in2="hardAlpha" operator="out" />
      <feColorMatrix type="matrix" values="0 0 0 0 0.215686 0 0 0 0 0.254902 0 0 0 0 0.317647 0 0 0 0.03 0" />
      <feBlend mode="normal" in2="effect1_dropShadow_8163_4594" result="effect2_dropShadow_8163_4594" />
      <feBlend mode="normal" in="SourceGraphic" in2="effect2_dropShadow_8163_4594" result="shape" />
    </filter>
    <filter id="filter1_dd_8163_4594" x="30.8003" y="33.8164" width="77.4761" height="93.1011"
      filterUnits="userSpaceOnUse" color-interpolation-filters="sRGB">
      <feFlood flood-opacity="0" result="BackgroundImageFix" />
      <feColorMatrix in="SourceAlpha" type="matrix" values="0 0 0 0 0 0 0 0 0 0 0 0 0 0 0 0 0 0 127 0"
        result="hardAlpha" />
      <feMorphology radius="3.1773" operator="erode" in="SourceAlpha" result="effect1_dropShadow_8163_4594" />
      <feOffset dy="6.35459" />
      <feGaussianBlur stdDeviation="3.1773" />
      <feComposite in2="hardAlpha" operator="out" />
      <feColorMatrix type="matrix" values="0 0 0 0 0.0901961 0 0 0 0 0.219608 0 0 0 0 0.482353 0 0 0 0.03 0" />
      <feBlend mode="normal" in2="BackgroundImageFix" result="effect1_dropShadow_8163_4594" />
      <feColorMatrix in="SourceAlpha" type="matrix" values="0 0 0 0 0 0 0 0 0 0 0 0 0 0 0 0 0 0 127 0"
        result="hardAlpha" />
      <feMorphology radius="3.1773" operator="erode" in="SourceAlpha" result="effect2_dropShadow_8163_4594" />
      <feOffset dy="15.8865" />
      <feGaussianBlur stdDeviation="9.53189" />
      <feComposite in2="hardAlpha" operator="out" />
      <feColorMatrix type="matrix" values="0 0 0 0 0.0902477 0 0 0 0 0.2203 0 0 0 0 0.480404 0 0 0 0.08 0" />
      <feBlend mode="normal" in2="effect1_dropShadow_8163_4594" result="effect2_dropShadow_8163_4594" />
      <feBlend mode="normal" in="SourceGraphic" in2="effect2_dropShadow_8163_4594" result="shape" />
    </filter>
    <filter id="filter2_dd_8163_4594" x="12.63" y="10.0879" width="80.2783" height="67.48" filterUnits="userSpaceOnUse"
      color-interpolation-filters="sRGB">
      <feFlood flood-opacity="0" result="BackgroundImageFix" />
      <feColorMatrix in="SourceAlpha" type="matrix" values="0 0 0 0 0 0 0 0 0 0 0 0 0 0 0 0 0 0 127 0"
        result="hardAlpha" />
      <feMorphology radius="3.1773" operator="erode" in="SourceAlpha" result="effect1_dropShadow_8163_4594" />
      <feOffset dy="6.35459" />
      <feGaussianBlur stdDeviation="3.1773" />
      <feComposite in2="hardAlpha" operator="out" />
      <feColorMatrix type="matrix" values="0 0 0 0 0.0901961 0 0 0 0 0.219608 0 0 0 0 0.482353 0 0 0 0.03 0" />
      <feBlend mode="normal" in2="BackgroundImageFix" result="effect1_dropShadow_8163_4594" />
      <feColorMatrix in="SourceAlpha" type="matrix" values="0 0 0 0 0 0 0 0 0 0 0 0 0 0 0 0 0 0 127 0"
        result="hardAlpha" />
      <feMorphology radius="3.1773" operator="erode" in="SourceAlpha" result="effect2_dropShadow_8163_4594" />
      <feOffset dy="15.8865" />
      <feGaussianBlur stdDeviation="9.53189" />
      <feComposite in2="hardAlpha" operator="out" />
      <feColorMatrix type="matrix" values="0 0 0 0 0.0902477 0 0 0 0 0.2203 0 0 0 0 0.480404 0 0 0 0.08 0" />
      <feBlend mode="normal" in2="effect1_dropShadow_8163_4594" result="effect2_dropShadow_8163_4594" />
      <feBlend mode="normal" in="SourceGraphic" in2="effect2_dropShadow_8163_4594" result="shape" />
    </filter>
    <linearGradient id="paint0_linear_8163_4594" x1="52.6685" y1="143.597" x2="69.5845" y2="19.8783"
      gradientUnits="userSpaceOnUse">
      <stop stop-color="#E5E7EB" />
      <stop offset="0.645768" stop-color="#F3F4F6" />
    </linearGradient>
    <linearGradient id="paint1_linear_8163_4594" x1="44.4034" y1="98.0533" x2="65.5035" y2="98.0533"
      gradientUnits="userSpaceOnUse">
      <stop stop-color="#F6F7F9" />
      <stop offset="0.78" stop-color="#F3F4F6" />
    </linearGradient>
    <linearGradient id="paint2_linear_8163_4594" x1="50.4776" y1="105.482" x2="73.3566" y2="105.482"
      gradientUnits="userSpaceOnUse">
      <stop stop-color="#F6F7F9" />
      <stop offset="0.78" stop-color="#F3F4F6" />
    </linearGradient>
    <linearGradient id="paint3_linear_8163_4594" x1="64.0889" y1="96.6841" x2="88.2441" y2="96.6841"
      gradientUnits="userSpaceOnUse">
      <stop stop-color="#F6F7F9" />
      <stop offset="0.78" stop-color="#F3F4F6" />
    </linearGradient>
    <linearGradient id="paint4_linear_8163_4594" x1="73.4509" y1="104.214" x2="90.592" y2="104.214"
      gradientUnits="userSpaceOnUse">
      <stop stop-color="#F6F7F9" />
      <stop offset="0.78" stop-color="#F3F4F6" />
    </linearGradient>
    <linearGradient id="paint5_linear_8163_4594" x1="69.5383" y1="33.8164" x2="69.5383" y2="95.1451"
      gradientUnits="userSpaceOnUse">
      <stop offset="0.07" stop-color="#F6F7F9" />
      <stop offset="1" stop-color="#4B5563" />
    </linearGradient>
  </defs>
</svg>