<svg width="128" height="144" viewBox="0 0 128 144" fill="none" xmlns="http://www.w3.org/2000/svg">
  <path
    d="M119.662 98.3495C107.618 76.5853 115.202 75.8023 121.169 68.9626C126.886 62.4125 127.81 52.4211 126.064 43.9057C124.313 35.3903 117.779 27.5836 109.227 25.998C96.2672 23.5941 84.3251 35.2063 71.1575 34.7365C64.4543 34.4977 58.3189 31.1463 51.9367 29.0792C36.8271 24.1813 18.315 27.4974 8.57732 40.0493C0.0338593 51.0548 -0.224602 66.5391 3.19748 80.0424C6.69004 93.8158 13.8866 107.002 25.1591 115.662C36.4277 124.319 52.0659 127.842 65.3431 122.776C74.8185 119.162 84.3486 111.391 93.8475 114.934C96.9602 116.097 111.107 122.647 117.454 115.251C120.187 112.068 122.082 102.723 119.662 98.3495Z"
    fill="url(#paint0_linear_8163_26491)" fill-opacity="0.6" />
  <g filter="url(#filter0_dd_8163_26491)">
    <path
      d="M65.4784 97.0374L48.0671 106.556C45.7495 104.795 44.4023 102.701 44.4023 100.453C44.4023 97.6357 46.5124 95.0594 50.0081 93.0814C52.9631 91.4074 56.9031 90.1627 61.3887 89.5645L65.4784 97.0326V97.0374Z"
      fill="url(#paint1_linear_8163_26491)" />
    <path
      d="M73.3295 111.375C71.4657 111.612 69.5053 111.742 67.4871 111.742C60.7563 111.742 54.6966 110.333 50.4766 108.09L66.6759 99.2324L73.3246 111.38L73.3295 111.375Z"
      fill="url(#paint2_linear_8163_26491)" />
    <path
      d="M88.2155 95.4793L72.2527 104.207L64.0879 89.2944C65.1984 89.2124 66.3331 89.1738 67.4871 89.1738C75.0339 89.1738 81.7309 90.9444 85.9461 93.6798C86.8152 94.2443 87.5733 94.8473 88.2155 95.4841V95.4793Z"
      fill="url(#paint3_linear_8163_26491)" />
    <path
      d="M90.5718 100.454C90.5718 102.432 89.5336 104.29 87.7037 105.906C85.1205 108.193 80.9632 109.992 75.9465 110.957L73.4502 106.398L89.7606 97.4824C90.2869 98.428 90.5718 99.4267 90.5718 100.454Z"
      fill="url(#paint4_linear_8163_26491)" />
    <g filter="url(#filter1_dd_8163_26491)">
      <path
        d="M69.5359 33.8164C56.9176 33.8164 46.687 44.0522 46.687 56.6823C46.687 73.7351 61.3118 88.6392 67.1638 93.9087C67.3937 94.1231 67.6131 94.3165 67.8169 94.4942C68.7992 95.362 70.2779 95.362 71.2602 94.4942C72.0753 93.778 73.1307 92.8109 74.3429 91.619C81.0466 85.0478 92.3901 71.7015 92.3901 56.6823C92.3901 44.0522 82.1595 33.8164 69.5359 33.8164ZM69.5359 73.5678C60.2145 73.5678 52.6592 66.0085 52.6592 56.6823C52.6592 47.3561 60.2145 39.7917 69.5359 39.7917C78.8573 39.7917 86.4179 47.3561 86.4179 56.6823C86.4179 66.0085 78.8626 73.5678 69.5359 73.5678Z"
        fill="#4B5563" />
      <path
        d="M69.5359 33.8164C56.9176 33.8164 46.687 44.0522 46.687 56.6823C46.687 73.7351 61.3118 88.6392 67.1638 93.9087C67.3937 94.1231 67.6131 94.3165 67.8169 94.4942C68.7992 95.362 70.2779 95.362 71.2602 94.4942C72.0753 93.778 73.1307 92.8109 74.3429 91.619C81.0466 85.0478 92.3901 71.7015 92.3901 56.6823C92.3901 44.0522 82.1595 33.8164 69.5359 33.8164ZM69.5359 73.5678C60.2145 73.5678 52.6592 66.0085 52.6592 56.6823C52.6592 47.3561 60.2145 39.7917 69.5359 39.7917C78.8573 39.7917 86.4179 47.3561 86.4179 56.6823C86.4179 66.0085 78.8626 73.5678 69.5359 73.5678Z"
        fill="url(#paint5_linear_8163_26491)" fill-opacity="0.25" />
    </g>
  </g>
  <path
    d="M75.2947 7.30115C74.1962 7.3043 73.1008 6.88853 72.2856 6.15148C71.9142 5.81761 71.5837 5.27585 71.8418 4.84748C71.9834 4.61125 72.2761 4.49786 72.55 4.50415C72.8238 4.51045 73.0851 4.62385 73.3274 4.75929C74.2654 5.28215 74.9988 6.16408 75.2915 7.30115H75.2947Z"
    fill="#4B5563" />
  <path
    d="M75.3891 7.02985C74.9516 6.02192 74.9043 4.85021 75.26 3.81078C75.4206 3.33832 75.7888 2.82175 76.283 2.89105C76.5568 2.92885 76.7772 3.15248 76.8779 3.40761C76.9786 3.66274 76.9786 3.94937 76.9503 4.2234C76.8401 5.29432 76.3176 6.31485 75.3891 7.03299V7.02985Z"
    fill="#4B5563" />
  <path
    d="M76.3277 9.1405C77.4893 8.62926 78.1553 7.58746 77.8151 6.81357C77.475 6.03968 76.2576 5.82675 75.096 6.33799C73.9344 6.84923 73.2684 7.89103 73.6085 8.66493C73.9486 9.43882 75.1661 9.65174 76.3277 9.1405Z"
    fill="#4B5563" />
  <g filter="url(#filter2_dd_8163_26491)">
    <path
      d="M64.6939 39.4698L61.1088 40.5564H61.0962C60.8664 40.6289 60.6241 40.4997 60.5548 40.2698C60.4856 40.0399 60.6146 39.7973 60.8444 39.728L64.4673 38.6445C64.6939 38.5784 64.93 38.7044 64.9992 38.9312C65.0653 39.1579 64.9394 39.3942 64.7128 39.4635L64.6939 39.4698Z"
      fill="#4B5563" />
    <path
      d="M57.5334 41.7446L53.942 42.9415C53.7059 43.0202 53.4509 42.8911 53.3722 42.658C53.2935 42.4218 53.4226 42.1666 53.6555 42.0879L53.665 42.0847L57.2532 40.9067C57.4861 40.8311 57.7348 40.9571 57.8103 41.187C57.8859 41.4201 57.7631 41.669 57.5302 41.7446H57.5334Z"
      fill="#4B5563" />
    <path
      d="M50.2999 44.0568L46.5826 44.986C46.3339 45.049 46.0821 44.8978 46.0192 44.6458C45.9562 44.397 46.1073 44.1419 46.3591 44.082L46.3906 44.0726L50.0544 43.1717L50.0795 43.1654C50.3251 43.1056 50.5737 43.2568 50.6335 43.5025C50.6933 43.7481 50.5454 43.997 50.2999 44.0568Z"
      fill="#4B5563" />
    <path
      d="M42.777 45.6149L40.8475 45.763C40.5296 45.7976 40.1991 45.7976 39.8717 45.7945H38.8865C38.6316 45.7976 38.4238 45.5897 38.4238 45.3346C38.4238 45.0795 38.6284 44.8716 38.8865 44.8716H38.918L39.8591 44.8653C40.1739 44.8653 40.4855 44.8653 40.7971 44.8306L42.6731 44.6795H42.7046C42.9627 44.6574 43.1893 44.8495 43.2113 45.1078C43.2333 45.3661 43.0382 45.5929 42.7801 45.6149H42.777Z"
      fill="#4B5563" />
    <path
      d="M34.9617 45.2124C33.6743 44.847 32.4027 44.2801 31.3073 43.4076C31.1153 43.2533 31.0807 42.9729 31.2349 42.7776C31.3891 42.5824 31.6693 42.5509 31.8644 42.7052C32.8433 43.48 34.0079 43.9966 35.2103 44.3336C35.4527 44.4029 35.5943 44.6549 35.5251 44.8943C35.4558 45.1368 35.2072 45.2786 34.9648 45.2093L34.9617 45.2124Z"
      fill="#4B5563" />
    <path
      d="M28.8899 39.9928C28.4398 38.6384 28.4209 37.1927 28.7042 35.8478C28.7545 35.6115 28.9843 35.4635 29.2172 35.5107C29.4501 35.558 29.6012 35.7879 29.5509 36.021C29.2991 37.2399 29.3242 38.5282 29.724 39.7094C29.8027 39.9393 29.6768 40.1881 29.447 40.2669C29.2172 40.3456 28.9686 40.2196 28.8899 39.9897V39.9928Z"
      fill="#4B5563" />
    <path
      d="M30.3567 32.1257C30.7533 31.5713 31.2191 31.0548 31.7101 30.6012C32.2043 30.1413 32.7363 29.7287 33.2934 29.3602C33.4854 29.2342 33.7435 29.2846 33.8725 29.4767C33.9984 29.6689 33.9481 29.9271 33.7561 30.0531C32.7174 30.7492 31.7731 31.5997 31.0491 32.617C30.9138 32.8092 30.6494 32.8533 30.4574 32.7178C30.2654 32.5824 30.2213 32.3178 30.3567 32.1257Z"
      fill="#4B5563" />
    <path
      d="M36.8503 27.6262C38.0842 27.1947 39.3526 26.886 40.6211 26.6593C40.8383 26.6183 41.0492 26.7632 41.087 26.9837C41.1279 27.201 40.9831 27.4121 40.7627 27.4499C39.5257 27.6766 38.3045 27.979 37.121 28.3979C36.907 28.4735 36.674 28.3633 36.5985 28.1491C36.523 27.9349 36.6331 27.7018 36.8471 27.6262H36.8503Z"
      fill="#4B5563" />
    <path
      d="M44.4361 26.2001L48.2478 26.0395C48.4493 26.03 48.6161 26.1875 48.6256 26.3859C48.635 26.5844 48.4808 26.7545 48.2825 26.7639H48.2699L44.5022 26.9655H44.4739C44.263 26.9781 44.0804 26.8143 44.071 26.6033C44.0584 26.3922 44.2221 26.2096 44.433 26.2001H44.4361Z"
      fill="#4B5563" />
    <path
      d="M52.0343 26.0086L55.7957 25.9551H55.8083C55.9846 25.9551 56.1325 26.0937 56.1325 26.2701C56.1325 26.4464 55.994 26.5913 55.8209 26.5945L52.0438 26.6921C51.8549 26.6984 51.6975 26.5472 51.6944 26.3582C51.6912 26.1693 51.8392 26.0118 52.028 26.0086H52.0343Z"
      fill="#4B5563" />
    <path
      d="M59.5256 25.7175C60.7626 25.5915 61.9933 25.4089 63.2052 25.1506C63.3563 25.1191 63.5042 25.2136 63.5357 25.3648C63.5671 25.5128 63.4727 25.6608 63.3248 25.6955C62.0941 25.9695 60.8445 26.168 59.5917 26.3128C59.4281 26.3317 59.2801 26.2152 59.2612 26.0483C59.2424 25.8845 59.362 25.7364 59.5256 25.7175C59.5256 25.7175 59.5256 25.7175 59.5288 25.7175H59.5256Z"
      fill="#4B5563" />
    <path
      d="M66.7686 24.1343C67.9237 23.706 69.0506 23.1894 70.105 22.5532C70.212 22.487 70.3505 22.5217 70.4135 22.6288C70.4764 22.7359 70.4449 22.8713 70.3411 22.9374C69.2709 23.6083 68.1283 24.1627 66.9511 24.6163C66.8189 24.6667 66.6678 24.6005 66.6175 24.4682C66.5671 24.3359 66.6332 24.1847 66.7654 24.1343H66.7686Z"
      fill="#4B5563" />
    <path
      d="M73.0099 20.2973C73.8723 19.4185 74.6152 18.42 75.2164 17.3397C75.2573 17.2609 75.3549 17.2326 75.4304 17.2767C75.5059 17.3176 75.5343 17.4121 75.4934 17.4877C74.8985 18.6027 74.1556 19.6421 73.2869 20.5587C73.2145 20.6375 73.0917 20.6406 73.0162 20.5682C72.9407 20.4957 72.9375 20.3729 73.0099 20.2973Z"
      fill="#4B5563" />
    <path
      d="M76.5446 13.8842C76.8125 12.6747 76.9008 11.4179 76.74 10.1832C76.7337 10.1359 76.7653 10.095 76.8125 10.0887C76.8567 10.0824 76.8976 10.1139 76.9071 10.158C77.0993 11.4116 77.0426 12.6967 76.7905 13.9346C76.7779 14.0039 76.7117 14.048 76.6423 14.0322C76.5761 14.0196 76.532 13.9535 76.5446 13.8842Z"
      fill="#4B5563" />
  </g>
  <defs>
    <filter id="filter0_dd_8163_26491" x="28.5159" y="33.8164" width="79.7608" height="109.699"
      filterUnits="userSpaceOnUse" color-interpolation-filters="sRGB">
      <feFlood flood-opacity="0" result="BackgroundImageFix" />
      <feColorMatrix in="SourceAlpha" type="matrix" values="0 0 0 0 0 0 0 0 0 0 0 0 0 0 0 0 0 0 127 0"
        result="hardAlpha" />
      <feMorphology radius="3.1773" operator="erode" in="SourceAlpha" result="effect1_dropShadow_8163_26491" />
      <feOffset dy="6.35459" />
      <feGaussianBlur stdDeviation="3.1773" />
      <feComposite in2="hardAlpha" operator="out" />
      <feColorMatrix type="matrix" values="0 0 0 0 0.215686 0 0 0 0 0.254902 0 0 0 0 0.317647 0 0 0 0.03 0" />
      <feBlend mode="normal" in2="BackgroundImageFix" result="effect1_dropShadow_8163_26491" />
      <feColorMatrix in="SourceAlpha" type="matrix" values="0 0 0 0 0 0 0 0 0 0 0 0 0 0 0 0 0 0 127 0"
        result="hardAlpha" />
      <feMorphology radius="3.1773" operator="erode" in="SourceAlpha" result="effect2_dropShadow_8163_26491" />
      <feOffset dy="15.8865" />
      <feGaussianBlur stdDeviation="9.53189" />
      <feComposite in2="hardAlpha" operator="out" />
      <feColorMatrix type="matrix" values="0 0 0 0 0.215686 0 0 0 0 0.254902 0 0 0 0 0.317647 0 0 0 0.03 0" />
      <feBlend mode="normal" in2="effect1_dropShadow_8163_26491" result="effect2_dropShadow_8163_26491" />
      <feBlend mode="normal" in="SourceGraphic" in2="effect2_dropShadow_8163_26491" result="shape" />
    </filter>
    <filter id="filter1_dd_8163_26491" x="30.8005" y="33.8164" width="77.4761" height="93.1011"
      filterUnits="userSpaceOnUse" color-interpolation-filters="sRGB">
      <feFlood flood-opacity="0" result="BackgroundImageFix" />
      <feColorMatrix in="SourceAlpha" type="matrix" values="0 0 0 0 0 0 0 0 0 0 0 0 0 0 0 0 0 0 127 0"
        result="hardAlpha" />
      <feMorphology radius="3.1773" operator="erode" in="SourceAlpha" result="effect1_dropShadow_8163_26491" />
      <feOffset dy="6.35459" />
      <feGaussianBlur stdDeviation="3.1773" />
      <feComposite in2="hardAlpha" operator="out" />
      <feColorMatrix type="matrix" values="0 0 0 0 0.0901961 0 0 0 0 0.219608 0 0 0 0 0.482353 0 0 0 0.03 0" />
      <feBlend mode="normal" in2="BackgroundImageFix" result="effect1_dropShadow_8163_26491" />
      <feColorMatrix in="SourceAlpha" type="matrix" values="0 0 0 0 0 0 0 0 0 0 0 0 0 0 0 0 0 0 127 0"
        result="hardAlpha" />
      <feMorphology radius="3.1773" operator="erode" in="SourceAlpha" result="effect2_dropShadow_8163_26491" />
      <feOffset dy="15.8865" />
      <feGaussianBlur stdDeviation="9.53189" />
      <feComposite in2="hardAlpha" operator="out" />
      <feColorMatrix type="matrix" values="0 0 0 0 0.0902477 0 0 0 0 0.2203 0 0 0 0 0.480404 0 0 0 0.08 0" />
      <feBlend mode="normal" in2="effect1_dropShadow_8163_26491" result="effect2_dropShadow_8163_26491" />
      <feBlend mode="normal" in="SourceGraphic" in2="effect2_dropShadow_8163_26491" result="shape" />
    </filter>
    <filter id="filter2_dd_8163_26491" x="12.6301" y="10.0879" width="80.2779" height="67.48"
      filterUnits="userSpaceOnUse" color-interpolation-filters="sRGB">
      <feFlood flood-opacity="0" result="BackgroundImageFix" />
      <feColorMatrix in="SourceAlpha" type="matrix" values="0 0 0 0 0 0 0 0 0 0 0 0 0 0 0 0 0 0 127 0"
        result="hardAlpha" />
      <feMorphology radius="3.1773" operator="erode" in="SourceAlpha" result="effect1_dropShadow_8163_26491" />
      <feOffset dy="6.35459" />
      <feGaussianBlur stdDeviation="3.1773" />
      <feComposite in2="hardAlpha" operator="out" />
      <feColorMatrix type="matrix" values="0 0 0 0 0.0901961 0 0 0 0 0.219608 0 0 0 0 0.482353 0 0 0 0.03 0" />
      <feBlend mode="normal" in2="BackgroundImageFix" result="effect1_dropShadow_8163_26491" />
      <feColorMatrix in="SourceAlpha" type="matrix" values="0 0 0 0 0 0 0 0 0 0 0 0 0 0 0 0 0 0 127 0"
        result="hardAlpha" />
      <feMorphology radius="3.1773" operator="erode" in="SourceAlpha" result="effect2_dropShadow_8163_26491" />
      <feOffset dy="15.8865" />
      <feGaussianBlur stdDeviation="9.53189" />
      <feComposite in2="hardAlpha" operator="out" />
      <feColorMatrix type="matrix" values="0 0 0 0 0.0902477 0 0 0 0 0.2203 0 0 0 0 0.480404 0 0 0 0.08 0" />
      <feBlend mode="normal" in2="effect1_dropShadow_8163_26491" result="effect2_dropShadow_8163_26491" />
      <feBlend mode="normal" in="SourceGraphic" in2="effect2_dropShadow_8163_26491" result="shape" />
    </filter>
    <linearGradient id="paint0_linear_8163_26491" x1="52.6689" y1="143.597" x2="69.5849" y2="19.8783"
      gradientUnits="userSpaceOnUse">
      <stop stop-color="#1F2937" />
      <stop offset="0.645768" stop-color="#111827" />
    </linearGradient>
    <linearGradient id="paint1_linear_8163_26491" x1="44.4037" y1="98.0533" x2="65.5038" y2="98.0533"
      gradientUnits="userSpaceOnUse">
      <stop stop-color="#374151" />
      <stop offset="0.78" stop-color="#1F2937" />
    </linearGradient>
    <linearGradient id="paint2_linear_8163_26491" x1="50.478" y1="105.482" x2="73.357" y2="105.482"
      gradientUnits="userSpaceOnUse">
      <stop stop-color="#374151" />
      <stop offset="0.78" stop-color="#1F2937" />
    </linearGradient>
    <linearGradient id="paint3_linear_8163_26491" x1="64.0894" y1="96.6841" x2="88.2445" y2="96.6841"
      gradientUnits="userSpaceOnUse">
      <stop stop-color="#374151" />
      <stop offset="0.78" stop-color="#1F2937" />
    </linearGradient>
    <linearGradient id="paint4_linear_8163_26491" x1="73.4513" y1="104.214" x2="90.5924" y2="104.214"
      gradientUnits="userSpaceOnUse">
      <stop stop-color="#374151" />
      <stop offset="0.78" stop-color="#1F2937" />
    </linearGradient>
    <linearGradient id="paint5_linear_8163_26491" x1="69.5386" y1="33.8164" x2="69.5386" y2="95.1451"
      gradientUnits="userSpaceOnUse">
      <stop offset="0.07" stop-color="#F6F7F9" />
      <stop offset="1" stop-color="#4B5563" />
    </linearGradient>
  </defs>
</svg>