<svg width="247" height="247" viewBox="0 0 247 247" fill="none" xmlns="http://www.w3.org/2000/svg">
<path d="M14.1955 157.752C37.8503 115.029 22.9546 113.492 11.2348 100.066C0.00726258 87.2086 -1.80761 67.5958 1.62219 50.8803C5.05967 34.1649 17.8945 18.8404 34.6897 15.7279C60.144 11.0091 83.5989 33.8037 109.461 32.8814C122.626 32.4126 134.677 25.834 147.212 21.7762C176.888 12.1619 213.247 18.6714 232.372 43.3103C249.152 64.9136 249.659 95.3089 242.938 121.815C236.079 148.852 221.944 174.736 199.804 191.736C177.672 208.728 146.958 215.645 120.881 205.7C102.271 198.607 83.5527 183.351 64.8965 190.306C58.7828 192.589 30.9985 205.446 18.5328 190.929C13.1651 184.681 9.44303 166.336 14.1955 157.752Z" fill="url(#paint0_linear_14322_44980)" fill-opacity="0.6"/>
<g filter="url(#filter0_d_14322_44980)">
<path d="M48.9386 62.4309C59.748 100.919 79.8811 169.308 85.2914 187.653C86.0539 190.246 88.7282 191.776 91.3577 191.131L182.985 168.563L147.692 34.0312L51.0186 58.8292C49.4376 59.2325 48.5013 60.8625 48.9386 62.4309Z" fill="#F6F7F9"/>
<path d="M121.398 140.262C117.636 131.271 108.677 125.608 99.7791 121.609C90.8815 117.603 79.2255 112.814 71.7744 106.529L73.8657 111.492C77.4482 122.639 84.9778 132.47 94.8005 138.85C98.7082 141.388 102.997 143.421 106.344 146.659C114.255 154.305 114.608 168.387 107.09 176.419C111.121 177.781 115.702 175.635 118.326 172.285C120.949 168.936 121.992 164.634 122.665 160.438C123.753 153.7 124.033 146.563 121.398 140.262Z" fill="url(#paint1_linear_14322_44980)"/>
<path d="M194.804 113.835C190.566 108.396 184.298 103.517 178.624 99.473C167.243 91.3564 162.398 84.6626 158.502 71.5382C154.594 58.3971 147.188 33.123 147.188 33.123L55.8237 56.8287C55.8237 56.8287 63.9084 81.761 67.4012 94.9862C70.8941 108.211 79.0797 121.325 90.4609 129.441C96.1348 133.485 102.896 136.001 108.29 140.381C119.963 149.864 122.671 168.064 114.227 180.309L201.313 157.858C209.757 145.607 204.335 126.058 194.799 113.835H194.804Z" fill="#9CA3AF"/>
<path d="M194.804 113.835C190.566 108.396 184.298 103.517 178.624 99.473C167.243 91.3564 162.398 84.6626 158.502 71.5382C154.594 58.3971 147.188 33.123 147.188 33.123L55.8237 56.8287C55.8237 56.8287 63.9084 81.761 67.4012 94.9862C70.8941 108.211 79.0797 121.325 90.4609 129.441C96.1348 133.485 102.896 136.001 108.29 140.381C119.963 149.864 122.671 168.064 114.227 180.309L201.313 157.858C209.757 145.607 204.335 126.058 194.799 113.835H194.804Z" fill="url(#paint2_linear_14322_44980)" fill-opacity="0.25"/>
<g filter="url(#filter1_d_14322_44980)">
<path d="M122.267 46.405L119.722 36.9665C119.385 35.7285 118.113 34.9947 116.868 35.3252L107.78 37.7731L108.766 34.2777C108.94 33.6616 108.374 33.0902 107.757 33.2583L91.9693 37.5098C91.3581 37.6723 91.1507 38.4397 91.5936 38.8878L94.1278 41.4533L85.1629 43.8675C83.9239 44.2036 83.1894 45.4752 83.5202 46.7187L86.0656 56.1573C86.402 57.3952 87.6746 58.129 88.9193 57.7985L120.63 49.2618C121.869 48.9257 122.603 47.6542 122.273 46.4106L122.267 46.405Z" fill="url(#paint3_linear_14322_44980)"/>
</g>
<path d="M115.354 108.854C114.715 108.854 114.064 108.681 113.481 108.328L99.336 99.6957C97.6373 98.6595 97.1046 96.4469 98.1418 94.7552C99.1791 93.0579 101.394 92.5258 103.087 93.5621L114.367 100.441L136.653 69.0442C137.803 67.4254 140.051 67.0389 141.671 68.1928C143.291 69.3411 143.673 71.5873 142.523 73.2062L118.292 107.342C117.591 108.328 116.486 108.86 115.354 108.86V108.854Z" fill="#F6F7F9"/>
</g>
<defs>
<filter id="filter0_d_14322_44980" x="21.3633" y="33.123" width="211.606" height="213.092" filterUnits="userSpaceOnUse" color-interpolation-filters="sRGB">
<feFlood flood-opacity="0" result="BackgroundImageFix"/>
<feColorMatrix in="SourceAlpha" type="matrix" values="0 0 0 0 0 0 0 0 0 0 0 0 0 0 0 0 0 0 127 0" result="hardAlpha"/>
<feMorphology radius="5.49356" operator="erode" in="SourceAlpha" result="effect1_dropShadow_14322_44980"/>
<feOffset dy="27.4678"/>
<feGaussianBlur stdDeviation="16.4807"/>
<feComposite in2="hardAlpha" operator="out"/>
<feColorMatrix type="matrix" values="0 0 0 0 0.0902477 0 0 0 0 0.2203 0 0 0 0 0.480404 0 0 0 0.08 0"/>
<feBlend mode="normal" in2="BackgroundImageFix" result="effect1_dropShadow_14322_44980"/>
<feBlend mode="normal" in="SourceGraphic" in2="effect1_dropShadow_14322_44980" result="shape"/>
</filter>
<filter id="filter1_d_14322_44980" x="58.8616" y="0.933248" width="88.0698" height="73.8071" filterUnits="userSpaceOnUse" color-interpolation-filters="sRGB">
<feFlood flood-opacity="0" result="BackgroundImageFix"/>
<feColorMatrix in="SourceAlpha" type="matrix" values="0 0 0 0 0 0 0 0 0 0 0 0 0 0 0 0 0 0 127 0" result="hardAlpha"/>
<feMorphology radius="5.49356" operator="erode" in="SourceAlpha" result="effect1_dropShadow_14322_44980"/>
<feOffset dy="-7.71594"/>
<feGaussianBlur stdDeviation="15.0364"/>
<feComposite in2="hardAlpha" operator="out"/>
<feColorMatrix type="matrix" values="0 0 0 0 0.126875 0 0 0 0 0.203403 0 0 0 0 0.356458 0 0 0 0.05 0"/>
<feBlend mode="normal" in2="BackgroundImageFix" result="effect1_dropShadow_14322_44980"/>
<feBlend mode="normal" in="SourceGraphic" in2="effect1_dropShadow_14322_44980" result="shape"/>
</filter>
<linearGradient id="paint0_linear_14322_44980" x1="145.774" y1="246.57" x2="112.586" y2="3.71021" gradientUnits="userSpaceOnUse">
<stop stop-color="#E5E7EB"/>
<stop offset="0.645768" stop-color="#F3F4F6"/>
</linearGradient>
<linearGradient id="paint1_linear_14322_44980" x1="107.691" y1="106.529" x2="87.5596" y2="176.841" gradientUnits="userSpaceOnUse">
<stop stop-color="white"/>
<stop offset="0.775373" stop-color="#ECEEFF"/>
</linearGradient>
<linearGradient id="paint2_linear_14322_44980" x1="130.663" y1="33.123" x2="130.663" y2="180.309" gradientUnits="userSpaceOnUse">
<stop offset="0.07" stop-color="#F6F7F9"/>
<stop offset="1" stop-color="#4B5563"/>
</linearGradient>
<linearGradient id="paint3_linear_14322_44980" x1="99.8886" y1="32.6375" x2="102.896" y2="57.8777" gradientUnits="userSpaceOnUse">
<stop stop-color="#D1D5DB"/>
<stop offset="1" stop-color="#F6F7F9"/>
</linearGradient>
</defs>
</svg>
