<svg width="24" height="24" viewBox="0 0 24 24" fill="none" xmlns="http://www.w3.org/2000/svg">
<path d="M12.0265 20.2864C9.6347 20.2864 7.24291 19.9272 4.97431 19.2087C4.11203 18.9272 3.45506 18.3544 3.16764 17.6068C2.86995 16.8592 2.9726 16.034 3.4448 15.2961L4.62529 13.4417C4.87166 13.0534 5.09749 12.2767 5.09749 11.8204V9.01456C5.09749 5.40291 8.20784 2.46117 12.0265 2.46117C15.8451 2.46117 18.9555 5.40291 18.9555 9.01456V11.8204C18.9555 12.267 19.1813 13.0534 19.4277 13.4515L20.5979 15.2961C21.0393 15.9951 21.1214 16.8398 20.8237 17.6068C20.5261 18.3738 19.8794 18.9563 19.0684 19.2087C16.8101 19.9272 14.4183 20.2864 12.0265 20.2864ZM12.0265 3.91748C9.05985 3.91748 6.63727 6.19903 6.63727 9.01456V11.8204C6.63727 12.5291 6.32931 13.5777 5.9495 14.1893L4.76901 16.0437C4.54317 16.4029 4.48158 16.7816 4.61503 17.1019C4.73821 17.432 5.04617 17.6845 5.46704 17.8204C9.75788 19.1796 14.3054 19.1796 18.5962 17.8204C18.9658 17.7039 19.2532 17.4417 19.3866 17.0922C19.5201 16.7427 19.4893 16.3641 19.284 16.0437L18.1035 14.1893C17.7134 13.5583 17.4157 12.5194 17.4157 11.8107V9.01456C17.4157 6.19903 15.0034 3.91748 12.0265 3.91748Z" fill="currentColor"/>
<path d="M13.9358 4.17961C13.864 4.17961 13.7921 4.1699 13.7202 4.15049C13.4226 4.07282 13.1351 4.01456 12.858 3.97573C11.9854 3.86893 11.1437 3.92718 10.3533 4.15049C10.0658 4.23786 9.75788 4.15049 9.56285 3.9466C9.36781 3.74272 9.30622 3.45146 9.41913 3.18932C9.84 2.1699 10.8665 1.5 12.0368 1.5C13.207 1.5 14.2335 2.16019 14.6544 3.18932C14.757 3.45146 14.7057 3.74272 14.5107 3.9466C14.3567 4.10194 14.1411 4.17961 13.9358 4.17961Z" fill="currentColor"/>
<path d="M12.0265 22.5C11.0102 22.5 10.0248 22.1117 9.30622 21.432C8.58765 20.7524 8.17705 19.8204 8.17705 18.8592H9.71682C9.71682 19.432 9.96319 19.9951 10.3943 20.4029C10.8255 20.8107 11.4208 21.0437 12.0265 21.0437C13.2994 21.0437 14.3362 20.0631 14.3362 18.8592H15.8759C15.8759 20.8689 14.1514 22.5 12.0265 22.5Z" fill="currentColor"/>
</svg>
