<svg width="56" height="56" viewBox="0 0 56 56" fill="none" xmlns="http://www.w3.org/2000/svg">
<path d="M18.5207 22.38V15.3381C18.5207 9.95128 23.2307 5.56881 29.02 5.56881C34.8093 5.56881 39.5192 9.95128 39.5192 15.3381V22.38H42.28V15.3381C42.28 8.53409 36.331 3 29.02 3C21.7089 3 15.76 8.53409 15.76 15.3381V22.38H18.5207Z" fill="currentColor"/>
<path d="M18.5207 22.38V15.3381C18.5207 9.95128 23.2307 5.56881 29.02 5.56881C34.8093 5.56881 39.5192 9.95128 39.5192 15.3381V22.38H42.28V15.3381C42.28 8.53409 36.331 3 29.02 3C21.7089 3 15.76 8.53409 15.76 15.3381V22.38H18.5207Z" fill="url(#paint0_linear_4321_4159)" fill-opacity="0.2"/>
<path d="M45.7447 22.38H11.2553C9.18174 22.38 7.49999 24.3761 7.49999 26.8373V35.64H24.3734V35.2285C24.3734 32.79 26.0388 30.8149 28.0918 30.8149H28.9081C30.9626 30.8149 32.6266 32.7916 32.6266 35.2285V35.64H49.5V26.8373C49.5 24.3761 47.8182 22.38 45.7447 22.38Z" fill="currentColor"/>
<path d="M45.7447 22.38H11.2553C9.18174 22.38 7.49999 24.3761 7.49999 26.8373V35.64H24.3734V35.2285C24.3734 32.79 26.0388 30.8149 28.0918 30.8149H28.9081C30.9626 30.8149 32.6266 32.7916 32.6266 35.2285V35.64H49.5V26.8373C49.5 24.3761 47.8182 22.38 45.7447 22.38Z" fill="url(#paint1_linear_4321_4159)" fill-opacity="0.2"/>
<path d="M50.9462 54H6.05377C4.09387 54 2.5 52.4131 2.5 50.4618V40.1982C2.5 38.2469 4.09387 36.66 6.05377 36.66H50.9462C52.9061 36.66 54.5 38.2469 54.5 40.1982V50.4618C54.5 52.4131 52.9061 54 50.9462 54ZM6.05377 38.3012C5.00413 38.3012 4.14962 39.152 4.14962 40.197V50.4606C4.14962 51.5056 5.00413 52.3564 6.05377 52.3564H50.9462C51.9959 52.3564 52.8504 51.5056 52.8504 50.4606V40.197C52.8504 39.152 51.9959 38.3012 50.9462 38.3012H6.05377Z" fill="currentColor"/>
<path d="M50.9462 54H6.05377C4.09387 54 2.5 52.4131 2.5 50.4618V40.1982C2.5 38.2469 4.09387 36.66 6.05377 36.66H50.9462C52.9061 36.66 54.5 38.2469 54.5 40.1982V50.4618C54.5 52.4131 52.9061 54 50.9462 54ZM6.05377 38.3012C5.00413 38.3012 4.14962 39.152 4.14962 40.197V50.4606C4.14962 51.5056 5.00413 52.3564 6.05377 52.3564H50.9462C51.9959 52.3564 52.8504 51.5056 52.8504 50.4606V40.197C52.8504 39.152 51.9959 38.3012 50.9462 38.3012H6.05377Z" fill="url(#paint2_linear_4321_4159)" fill-opacity="0.2"/>
<path d="M16.5 43.1872L15.7297 42.0925L13.6535 43.6663V41H12.3465V43.6663L10.2714 42.0925L9.5 43.1872L11.8933 45L9.5 46.8128L10.2714 47.9075L12.3465 46.3337V49H13.6535V46.3337L15.7297 47.9075L16.5 46.8128L14.1078 45L16.5 43.1872Z" fill="currentColor"/>
<path d="M16.5 43.1872L15.7297 42.0925L13.6535 43.6663V41H12.3465V43.6663L10.2714 42.0925L9.5 43.1872L11.8933 45L9.5 46.8128L10.2714 47.9075L12.3465 46.3337V49H13.6535V46.3337L15.7297 47.9075L16.5 46.8128L14.1078 45L16.5 43.1872Z" fill="url(#paint3_linear_4321_4159)" fill-opacity="0.2"/>
<path d="M26.5001 43.1872L25.7297 42.0925L23.6535 43.6663V41H22.3466V43.6663L20.2704 42.0925L19.5001 43.1872L21.8923 45L19.5001 46.8128L20.2704 47.9075L22.3466 46.3337V49H23.6535V46.3337L25.7297 47.9075L26.5001 46.8128L24.1079 45L26.5001 43.1872Z" fill="currentColor"/>
<path d="M26.5001 43.1872L25.7297 42.0925L23.6535 43.6663V41H22.3466V43.6663L20.2704 42.0925L19.5001 43.1872L21.8923 45L19.5001 46.8128L20.2704 47.9075L22.3466 46.3337V49H23.6535V46.3337L25.7297 47.9075L26.5001 46.8128L24.1079 45L26.5001 43.1872Z" fill="url(#paint4_linear_4321_4159)" fill-opacity="0.2"/>
<path d="M37.5 43.1872L36.7297 42.0925L34.6535 43.6663V41H33.3466V43.6663L31.2704 42.0925L30.5 43.1872L32.8923 45L30.5 46.8128L31.2704 47.9075L33.3466 46.3337V49H34.6535V46.3337L36.7297 47.9075L37.5 46.8128L35.1078 45L37.5 43.1872Z" fill="currentColor"/>
<path d="M37.5 43.1872L36.7297 42.0925L34.6535 43.6663V41H33.3466V43.6663L31.2704 42.0925L30.5 43.1872L32.8923 45L30.5 46.8128L31.2704 47.9075L33.3466 46.3337V49H34.6535V46.3337L36.7297 47.9075L37.5 46.8128L35.1078 45L37.5 43.1872Z" fill="url(#paint5_linear_4321_4159)" fill-opacity="0.2"/>
<path d="M47.5 43.1872L46.7286 42.0925L44.6535 43.6663V41H43.3465V43.6663L41.2703 42.0925L40.5 43.1872L42.8922 45L40.5 46.8128L41.2703 47.9075L43.3465 46.3337V49H44.6535V46.3337L46.7286 47.9075L47.5 46.8128L45.1067 45L47.5 43.1872Z" fill="currentColor"/>
<path d="M47.5 43.1872L46.7286 42.0925L44.6535 43.6663V41H43.3465V43.6663L41.2703 42.0925L40.5 43.1872L42.8922 45L40.5 46.8128L41.2703 47.9075L43.3465 46.3337V49H44.6535V46.3337L46.7286 47.9075L47.5 46.8128L45.1067 45L47.5 43.1872Z" fill="url(#paint6_linear_4321_4159)" fill-opacity="0.2"/>
<defs>
<linearGradient id="paint0_linear_4321_4159" x1="28.5" y1="3" x2="28.5" y2="54" gradientUnits="userSpaceOnUse">
<stop stop-color="#F1F9FE"/>
<stop offset="1" stop-color="white" stop-opacity="0"/>
</linearGradient>
<linearGradient id="paint1_linear_4321_4159" x1="28.5" y1="3" x2="28.5" y2="54" gradientUnits="userSpaceOnUse">
<stop stop-color="#F1F9FE"/>
<stop offset="1" stop-color="white" stop-opacity="0"/>
</linearGradient>
<linearGradient id="paint2_linear_4321_4159" x1="28.5" y1="3" x2="28.5" y2="54" gradientUnits="userSpaceOnUse">
<stop stop-color="#F1F9FE"/>
<stop offset="1" stop-color="white" stop-opacity="0"/>
</linearGradient>
<linearGradient id="paint3_linear_4321_4159" x1="28.5" y1="3" x2="28.5" y2="54" gradientUnits="userSpaceOnUse">
<stop stop-color="#F1F9FE"/>
<stop offset="1" stop-color="white" stop-opacity="0"/>
</linearGradient>
<linearGradient id="paint4_linear_4321_4159" x1="28.5" y1="3" x2="28.5" y2="54" gradientUnits="userSpaceOnUse">
<stop stop-color="#F1F9FE"/>
<stop offset="1" stop-color="white" stop-opacity="0"/>
</linearGradient>
<linearGradient id="paint5_linear_4321_4159" x1="28.5" y1="3" x2="28.5" y2="54" gradientUnits="userSpaceOnUse">
<stop stop-color="#F1F9FE"/>
<stop offset="1" stop-color="white" stop-opacity="0"/>
</linearGradient>
<linearGradient id="paint6_linear_4321_4159" x1="28.5" y1="3" x2="28.5" y2="54" gradientUnits="userSpaceOnUse">
<stop stop-color="#F1F9FE"/>
<stop offset="1" stop-color="white" stop-opacity="0"/>
</linearGradient>
</defs>
</svg>
