<svg width="56" height="56" viewBox="0 0 56 56" fill="none" xmlns="http://www.w3.org/2000/svg">
<path d="M0 28C0 12.536 12.536 0 28 0C43.464 0 56 12.536 56 28C56 43.464 43.464 56 28 56C12.536 56 0 43.464 0 28Z" fill="var(--color-icon-container-blue, #EFF6FF)"/>
<path d="M31.8536 36.2933H20.1336C19.4403 36.2933 18.7869 36.2267 18.2002 36.0933C17.8936 36.0533 17.5203 35.9466 17.1336 35.8C15.3603 35.1333 13.2669 33.4933 13.2669 29.4133V22.5466C13.2669 18.1866 15.7736 15.68 20.1336 15.68H31.8536C35.5336 15.68 37.9069 17.44 38.5469 20.64C38.6669 21.2266 38.7203 21.8533 38.7203 22.5466V29.4133C38.7203 33.8 36.2269 36.2933 31.8536 36.2933ZM20.1469 17.7067C16.8669 17.7067 15.2802 19.2933 15.2802 22.5733V29.44C15.2802 31.8267 16.1203 33.2934 17.8403 33.9467C18.1069 34.04 18.3603 34.1066 18.6003 34.1466C19.1069 34.2533 19.6002 34.3066 20.1469 34.3066H31.8669C35.1469 34.3066 36.7336 32.72 36.7336 29.44V22.5733C36.7336 22.0133 36.6936 21.52 36.6003 21.0667C36.1469 18.8 34.6002 17.7067 31.8669 17.7067H20.1469Z" fill="var(--color-icon-brand, #00518D)"/>
<path d="M35.8535 40.2933H24.1334C23.0001 40.2933 21.9868 40.1333 21.1201 39.7999C19.1601 39.0666 17.8801 37.52 17.4401 35.3066C17.3734 34.9733 17.4801 34.6266 17.7201 34.4C17.9601 34.16 18.3068 34.0666 18.6401 34.1466C19.0801 34.24 19.5734 34.2933 20.1334 34.2933H31.8535C35.1335 34.2933 36.7201 32.7067 36.7201 29.4267V22.56C36.7201 22 36.6801 21.5066 36.5868 21.0533C36.5201 20.7199 36.6268 20.3866 36.8535 20.1466C37.0935 19.9066 37.4268 19.7999 37.7601 19.8799C40.9601 20.5333 42.7201 22.9066 42.7201 26.56V33.4267C42.7201 37.8 40.2268 40.2933 35.8535 40.2933ZM19.8935 36.2933C20.3201 37.0666 20.9601 37.6133 21.8401 37.9333C22.4801 38.1733 23.2534 38.2933 24.1468 38.2933H35.8668C39.1468 38.2933 40.7334 36.7067 40.7334 33.4267V26.56C40.7334 24.4533 40.0801 23.0533 38.7334 22.32C38.7334 22.4 38.7334 22.48 38.7334 22.56V29.4267C38.7334 33.7867 36.2268 36.2933 31.8668 36.2933H20.1468C20.0534 36.2933 19.9735 36.2933 19.8935 36.2933Z" fill="var(--color-icon-brand, #00518D)"/>
<path d="M25.9998 30.52C23.5065 30.52 21.4798 28.4933 21.4798 26C21.4798 23.5067 23.5065 21.48 25.9998 21.48C28.4932 21.48 30.5199 23.5067 30.5199 26C30.5199 28.4933 28.4932 30.52 25.9998 30.52ZM25.9998 23.48C24.6132 23.48 23.4798 24.6133 23.4798 26C23.4798 27.3867 24.6132 28.52 25.9998 28.52C27.3865 28.52 28.5199 27.3867 28.5199 26C28.5199 24.6133 27.3865 23.48 25.9998 23.48Z" fill="var(--color-icon-brand, #00518D)"/>
<path d="M18.3737 29.9334C17.827 29.9334 17.3737 29.4801 17.3737 28.9334V23.0667C17.3737 22.5201 17.827 22.0667 18.3737 22.0667C18.9204 22.0667 19.3737 22.5201 19.3737 23.0667V28.9334C19.3737 29.4801 18.9337 29.9334 18.3737 29.9334Z" fill="var(--color-icon-brand, #00518D)"/>
<path d="M33.6133 29.9334C33.0666 29.9334 32.6133 29.4801 32.6133 28.9334V23.0667C32.6133 22.5201 33.0666 22.0667 33.6133 22.0667C34.1599 22.0667 34.6133 22.5201 34.6133 23.0667V28.9334C34.6133 29.4801 34.1733 29.9334 33.6133 29.9334Z" fill="var(--color-icon-brand, #00518D)"/>
</svg>
