<svg width="32" height="32" viewBox="0 0 32 32" fill="none" xmlns="http://www.w3.org/2000/svg">
<path fill-rule="evenodd" clip-rule="evenodd" d="M16.7978 10.152C17.0005 10.3547 17.0005 10.6833 16.7978 10.886L12.2857 15.3982C11.9555 15.7283 11.9555 16.2717 12.2857 16.6018L16.7978 21.114C17.0005 21.3167 17.0005 21.6453 16.7978 21.848C16.5951 22.0507 16.2665 22.0507 16.0638 21.848L11.5517 17.3359C10.8161 16.6003 10.8161 15.3997 11.5517 14.6641L16.0638 10.152C16.2665 9.94933 16.5951 9.94933 16.7978 10.152Z" fill="#1F2937"/>
<path fill-rule="evenodd" clip-rule="evenodd" d="M20.7978 10.152C21.0005 10.3547 21.0005 10.6833 20.7978 10.886L16.2857 15.3982C15.9555 15.7283 15.9555 16.2717 16.2857 16.6018L20.7978 21.114C21.0005 21.3167 21.0005 21.6453 20.7978 21.848C20.5951 22.0507 20.2665 22.0507 20.0638 21.848L15.5517 17.3359C14.8161 16.6003 14.8161 15.3997 15.5517 14.6641L20.0638 10.152C20.2665 9.94933 20.5951 9.94933 20.7978 10.152Z" fill="#1F2937"/>
</svg>
