<svg width="32" height="32" viewBox="0 0 32 32" fill="none" xmlns="http://www.w3.org/2000/svg">
<path fill-rule="evenodd" clip-rule="evenodd" d="M15.152 10.152C15.3547 9.94933 15.6833 9.94933 15.886 10.152L20.3982 14.6641C21.1337 15.3997 21.1337 16.6003 20.3982 17.3359L15.886 21.848C15.6833 22.0507 15.3547 22.0507 15.152 21.848C14.9493 21.6453 14.9493 21.3167 15.152 21.114L19.6641 16.6018C19.9943 16.2717 19.9943 15.7283 19.6641 15.3982L15.152 10.886C14.9493 10.6833 14.9493 10.3547 15.152 10.152Z" fill="#1F2937"/>
<path fill-rule="evenodd" clip-rule="evenodd" d="M11.152 10.152C11.3547 9.94933 11.6833 9.94933 11.886 10.152L16.3982 14.6641C17.1337 15.3997 17.1337 16.6003 16.3982 17.3359L11.886 21.848C11.6833 22.0507 11.3547 22.0507 11.152 21.848C10.9493 21.6453 10.9493 21.3167 11.152 21.114L15.6641 16.6018C15.9943 16.2717 15.9943 15.7283 15.6641 15.3982L11.152 10.886C10.9493 10.6833 10.9493 10.3547 11.152 10.152Z" fill="#1F2937"/>
</svg>
