<svg width="32" height="32" viewBox="0 0 32 32" fill="none" xmlns="http://www.w3.org/2000/svg">
<path d="M13.5174 22C13.3859 22 13.2544 21.9516 13.1505 21.8477C12.9498 21.647 12.9498 21.3148 13.1505 21.1141L17.6633 16.6013C17.9955 16.2691 17.9955 15.7292 17.6633 15.397L13.1505 10.8842C12.9498 10.6835 12.9498 10.3513 13.1505 10.1505C13.3513 9.94982 13.6835 9.94982 13.8842 10.1505L18.397 14.6633C18.75 15.0163 18.9507 15.4939 18.9507 15.9991C18.9507 16.5044 18.7569 16.982 18.397 17.335L13.8842 21.8477C13.7804 21.9446 13.6489 22 13.5174 22Z" fill="#1F2937"/>
</svg>
