<svg width="24" height="24" viewBox="0 0 24 24" fill="none" xmlns="http://www.w3.org/2000/svg">
<path fill-rule="evenodd" clip-rule="evenodd" d="M5.39694 5.36109C4.9062 5.76369 4.5 6.5095 4.5 8L4.5 17.75C4.5 19.0965 4.89588 19.8621 5.41144 20.3074C5.94756 20.7703 6.74287 21 7.75 21H15.75C16.7571 21 17.5524 20.7703 18.0886 20.3074C18.6041 19.8621 19 19.0965 19 17.75L19 8C19 6.5095 18.5938 5.76369 18.1031 5.36109C17.6953 5.02655 17.1267 4.84163 16.398 4.77683C16.0549 6.0557 14.8857 7 13.5 7H10C9.17284 7 8.42436 6.66504 7.87964 6.12033C7.51186 5.75254 7.23972 5.29189 7.10173 4.77685C6.37315 4.84167 5.80468 5.02659 5.39694 5.36109ZM4.44556 4.20141C5.37138 3.44188 6.5866 3.25 7.75 3.25C8.16421 3.25 8.5 3.58579 8.5 4C8.5 4.41286 8.66503 4.78439 8.9403 5.05967C9.21559 5.33495 9.58716 5.5 10 5.5H13.5C14.3258 5.5 15 4.82579 15 4C15 3.58579 15.3358 3.25 15.75 3.25C16.9134 3.25 18.1286 3.44188 19.0544 4.20141C20.0112 4.98631 20.5 6.2405 20.5 8L20.5 17.75C20.5 19.4035 20.0009 20.6379 19.0689 21.4426C18.1576 22.2297 16.9529 22.5 15.75 22.5H7.75C6.54713 22.5 5.34244 22.2297 4.43106 21.4426C3.49912 20.6379 3 19.4035 3 17.75L3 8C3 6.2405 3.4888 4.98631 4.44556 4.20141Z" fill="#9CA3AF"/>
<path fill-rule="evenodd" clip-rule="evenodd" d="M10 2.5C9.17421 2.5 8.5 3.17421 8.5 4C8.5 4.41286 8.66503 4.78439 8.9403 5.05967C9.21559 5.33495 9.58716 5.5 10 5.5H13.5C14.3258 5.5 15 4.82579 15 4C15 3.58714 14.835 3.21561 14.5597 2.94033C14.2844 2.66505 13.9128 2.5 13.5 2.5L10 2.5ZM7 4C7 2.34579 8.34579 1 10 1L13.5 1C14.3272 1 15.0756 1.33496 15.6204 1.87967C16.1651 2.4244 16.5 3.17286 16.5 4C16.5 5.65421 15.1542 7 13.5 7H10C9.17284 7 8.42436 6.66504 7.87964 6.12033C7.33492 5.5756 7 4.82714 7 4Z" fill="#9CA3AF"/>
<path fill-rule="evenodd" clip-rule="evenodd" d="M7 12.75C7 12.3358 7.33579 12 7.75 12L15.75 12C16.1642 12 16.5 12.3358 16.5 12.75C16.5 13.1642 16.1642 13.5 15.75 13.5L7.75 13.5C7.33579 13.5 7 13.1642 7 12.75Z" fill="#9CA3AF"/>
<path fill-rule="evenodd" clip-rule="evenodd" d="M7 16.75C7 16.3358 7.33579 16 7.75 16L15.75 16C16.1642 16 16.5 16.3358 16.5 16.75C16.5 17.1642 16.1642 17.5 15.75 17.5H7.75C7.33579 17.5 7 17.1642 7 16.75Z" fill="#9CA3AF"/>
</svg>
