<svg width="24" height="24" viewBox="0 0 24 24" fill="none" xmlns="http://www.w3.org/2000/svg">
<g id="Property 1=Outline">
<path id="@" d="M21.2509 10.8917C21.2509 11.6555 21.1596 12.4027 20.9769 13.1333C20.8109 13.8638 20.5452 14.528 20.1799 15.1258C19.8146 15.7069 19.3663 16.1802 18.835 16.5455C18.3036 16.8941 17.6726 17.0685 16.942 17.0685C16.1782 17.0685 15.5722 16.8526 15.1239 16.4209C14.6922 15.9726 14.4265 15.4662 14.3269 14.9016H14.2023C13.9034 15.516 13.4634 16.0307 12.8823 16.4458C12.3011 16.8609 11.5705 17.0685 10.6905 17.0685C9.42856 17.0685 8.4489 16.6451 7.75151 15.7983C7.07073 14.9514 6.73034 13.8306 6.73034 12.4359C6.73034 11.34 6.9462 10.3769 7.37791 9.5467C7.80963 8.69988 8.41569 8.0357 9.1961 7.55417C9.99311 7.07264 10.9313 6.83188 12.0105 6.83188C12.7411 6.83188 13.4551 6.8983 14.1525 7.03113C14.8665 7.14736 15.4227 7.2802 15.8213 7.42964L15.5722 12.4857C15.5556 12.7846 15.5473 13.0004 15.5473 13.1333C15.5473 13.2495 15.5473 13.3325 15.5473 13.3823C15.5473 14.2457 15.6967 14.8186 15.9956 15.1009C16.3111 15.3831 16.6764 15.5243 17.0915 15.5243C17.6062 15.5243 18.0379 15.3167 18.3866 14.9016C18.7519 14.4699 19.0259 13.9054 19.2085 13.208C19.4078 12.494 19.5074 11.7136 19.5074 10.8667C19.5074 9.32254 19.1919 8.01909 18.561 6.95641C17.9466 5.87713 17.0915 5.05521 15.9956 4.49066C14.9163 3.92611 13.6876 3.64384 12.3094 3.64384C10.4165 3.64384 8.8142 4.03404 7.50245 4.81445C6.2073 5.59485 5.21934 6.67414 4.53856 8.0523C3.87439 9.41386 3.5423 10.9747 3.5423 12.7347C3.5423 14.362 3.83288 15.7484 4.41403 16.8941C4.99518 18.0232 5.84201 18.8867 6.9545 19.4844C8.0836 20.0656 9.46177 20.3562 11.089 20.3562C12.1019 20.3562 13.0649 20.2399 13.9782 20.0075C14.908 19.7916 15.7299 19.5508 16.4439 19.2852V20.9788C15.7299 21.2777 14.9246 21.5185 14.028 21.7011C13.1479 21.9004 12.1683 22 11.089 22C9.12968 22 7.45263 21.6347 6.05786 20.9041C4.6631 20.1735 3.59211 19.1274 2.84491 17.7659C2.11432 16.3877 1.74902 14.7356 1.74902 12.8095C1.74902 11.2653 1.98979 9.83728 2.47131 8.52553C2.95284 7.19718 3.65023 6.05147 4.56347 5.08842C5.47671 4.10876 6.5809 3.35326 7.87605 2.82192C9.18779 2.27397 10.6656 2 12.3094 2C14.0363 2 15.5722 2.35699 16.9171 3.07098C18.2621 3.78497 19.3165 4.80614 20.0803 6.1345C20.8607 7.46285 21.2509 9.04857 21.2509 10.8917ZM8.67306 12.4857C8.67306 13.5484 8.88061 14.3205 9.29572 14.802C9.72744 15.2835 10.3003 15.5243 11.0143 15.5243C11.9441 15.5243 12.6083 15.1756 13.0068 14.4782C13.4219 13.7808 13.6627 12.8759 13.7291 11.7634L13.8785 8.65006C13.6627 8.58364 13.3887 8.52553 13.0566 8.47572C12.7245 8.4259 12.3841 8.401 12.0354 8.401C11.2218 8.401 10.566 8.60025 10.0678 8.99875C9.5697 9.39726 9.2127 9.912 8.99684 10.543C8.78099 11.1573 8.67306 11.8049 8.67306 12.4857Z" fill="currentColor"/>
</g>
</svg>
