<svg width="16" height="18" viewBox="0 0 16 18" fill="none" xmlns="http://www.w3.org/2000/svg">
<g id="Group 427319044">
<path id="Vector" d="M13.1801 17.5788H4.62288C4.05618 17.5782 3.51287 17.3654 3.11215 16.9873C2.71142 16.6091 2.48601 16.0963 2.48535 15.5615V12.927C2.48535 12.8381 2.52276 12.7529 2.58935 12.69C2.65594 12.6272 2.74625 12.5919 2.84042 12.5919C2.93459 12.5919 3.02491 12.6272 3.0915 12.69C3.15809 12.7529 3.19549 12.8381 3.19549 12.927V15.5615C3.19596 15.9186 3.3465 16.261 3.61409 16.5136C3.88167 16.7661 4.24446 16.9082 4.62288 16.9086H13.1801C13.5586 16.9082 13.9214 16.7661 14.189 16.5136C14.4567 16.2611 14.6073 15.9187 14.6079 15.5615V12.5426C14.6079 12.4537 14.6453 12.3685 14.7119 12.3057C14.7784 12.2428 14.8688 12.2075 14.9629 12.2075C15.0571 12.2075 15.1474 12.2428 15.214 12.3057C15.2806 12.3685 15.318 12.4537 15.318 12.5426V15.5615C15.3172 16.0964 15.0918 16.6091 14.691 16.9873C14.2902 17.3655 13.7468 17.5782 13.1801 17.5788Z" fill="currentColor"/>
<path id="Vector (Stroke)" fill-rule="evenodd" clip-rule="evenodd" d="M14.9631 12.3785C14.9171 12.3785 14.8731 12.3958 14.8406 12.4264C14.8081 12.4571 14.7898 12.4987 14.7898 12.5421V15.561C14.7892 15.9635 14.6194 16.3497 14.3177 16.6344C14.016 16.919 13.6071 17.0791 13.1805 17.0796H4.62304C4.19648 17.0791 3.78732 16.919 3.48569 16.6343C3.18407 16.3497 3.01438 15.9637 3.01385 15.5612L3.01385 12.9264C3.01385 12.8831 2.9956 12.8415 2.9631 12.8108C2.93061 12.7801 2.88654 12.7629 2.84058 12.7629C2.79462 12.7629 2.75055 12.7801 2.71806 12.8108C2.68556 12.8415 2.6673 12.8831 2.6673 12.9264V15.5609C2.66793 16.0502 2.8742 16.5194 3.24085 16.8654C3.60753 17.2114 4.10469 17.4061 4.62325 17.4067H13.1801C13.6987 17.4061 14.1959 17.2115 14.5626 16.8654C14.9293 16.5194 15.1357 16.0502 15.1364 15.5607V12.5421C15.1364 12.4987 15.1181 12.4571 15.0856 12.4264C15.0531 12.3958 15.009 12.3785 14.9631 12.3785ZM14.5835 12.1838C14.6841 12.0888 14.8207 12.0354 14.9631 12.0354C15.1055 12.0354 15.242 12.0888 15.3427 12.1838C15.4434 12.2788 15.4999 12.4077 15.4999 12.5421V15.561C15.4991 16.1412 15.2545 16.6978 14.8197 17.1081C14.3848 17.5184 13.7954 17.7491 13.1805 17.7498H4.62304C4.00819 17.7491 3.41852 17.5183 2.98375 17.108C2.54899 16.6977 2.30442 16.1414 2.30371 15.5612L2.30371 12.9264C2.30371 12.792 2.36027 12.6632 2.46096 12.5682C2.56164 12.4731 2.69819 12.4198 2.84058 12.4198C2.98297 12.4198 3.11952 12.4731 3.2202 12.5682C3.32089 12.6632 3.37745 12.792 3.37745 12.9264V15.5609C3.37789 15.8725 3.50927 16.1713 3.74279 16.3917C3.97634 16.6121 4.29298 16.7361 4.62326 16.7365H13.18C13.5104 16.7361 13.827 16.6121 14.0607 16.3917C14.2943 16.1713 14.4257 15.8724 14.4262 15.5607V12.5421C14.4262 12.4077 14.4828 12.2788 14.5835 12.1838Z" fill="currentColor"/>
<g id="Vector_2">
<path d="M14.9614 11.9191C14.8672 11.9191 14.7769 11.8838 14.7103 11.8209C14.6437 11.7581 14.6063 11.6729 14.6063 11.584V3.90155C14.606 3.80655 14.5845 3.71268 14.5431 3.62607C14.5018 3.53946 14.4415 3.46205 14.3663 3.39891L11.8204 1.26333C11.6899 1.1532 11.5211 1.09214 11.3461 1.09176H4.97785C4.50498 1.09247 4.05169 1.27014 3.71742 1.5858C3.38314 1.90146 3.19515 2.32935 3.19469 2.77563V6.85946C3.19469 6.94833 3.15728 7.03356 3.09069 7.09641C3.0241 7.15925 2.93378 7.19456 2.83961 7.19456C2.74544 7.19456 2.65513 7.15925 2.58854 7.09641C2.52195 7.03356 2.48454 6.94833 2.48454 6.85946V2.77563C2.4852 2.15166 2.74806 1.5534 3.21548 1.1121C3.68289 0.670787 4.31669 0.422454 4.97785 0.421567H11.3461C11.6949 0.421504 12.0316 0.542295 12.2923 0.761021L14.8382 2.89693C14.9886 3.0231 15.109 3.17793 15.1915 3.35121C15.2739 3.52448 15.3165 3.71228 15.3165 3.90222V11.584C15.3165 11.6729 15.2791 11.7581 15.2125 11.8209C15.1459 11.8838 15.0556 11.9191 14.9614 11.9191Z" fill="currentColor"/>
<path fill-rule="evenodd" clip-rule="evenodd" d="M4.97784 0.25L11.346 0.25C11.7394 0.249937 12.1191 0.38615 12.4131 0.632796L14.9589 2.76869C15.1286 2.91096 15.2644 3.08554 15.3573 3.28093C15.4503 3.47631 15.4983 3.68806 15.4983 3.90223V11.584C15.4983 11.7184 15.4417 11.8472 15.341 11.9423C15.2403 12.0373 15.1038 12.0907 14.9614 12.0907C14.819 12.0907 14.6825 12.0373 14.5818 11.9423C14.4811 11.8472 14.4245 11.7184 14.4245 11.584L14.4245 3.90209C14.4243 3.8313 14.4082 3.76111 14.3774 3.69657C14.3465 3.63197 14.3016 3.57424 14.2455 3.52715L11.6997 1.39157C11.6024 1.30951 11.4762 1.26366 11.3458 1.26333H4.978C4.5533 1.26401 4.14621 1.42358 3.84599 1.70708C3.54576 1.9906 3.37691 2.37491 3.37647 2.77575V6.85946C3.37647 6.99384 3.31991 7.12271 3.21923 7.21773C3.11854 7.31275 2.98199 7.36613 2.8396 7.36613C2.69722 7.36613 2.56066 7.31275 2.45998 7.21773C2.3593 7.12271 2.30273 6.99384 2.30273 6.85946V2.77563C2.30344 2.10623 2.58544 1.46425 3.08689 0.990806C3.58834 0.517366 4.26854 0.250952 4.97784 0.25ZM12.1715 0.889252C11.9441 0.698453 11.6504 0.593084 11.3461 0.59314H4.97797C4.36499 0.593995 3.7774 0.824243 3.34404 1.23339C2.91068 1.64255 2.66696 2.1972 2.66633 2.77571V6.85946C2.66633 6.90283 2.68458 6.94443 2.71708 6.97509C2.74957 7.00576 2.79365 7.02299 2.8396 7.02299C2.88556 7.02299 2.92963 7.00576 2.96213 6.97509C2.99462 6.94443 3.01288 6.90283 3.01288 6.85946V2.77563C3.01339 2.28392 3.22052 1.81231 3.58882 1.46452C3.95712 1.11673 4.45654 0.920977 4.97755 0.920195L11.3461 0.920195C11.5656 0.920666 11.7777 0.997189 11.9414 1.13523L14.4871 3.27067C14.5814 3.34986 14.657 3.44697 14.7089 3.55558C14.7607 3.66419 14.7877 3.7819 14.7881 3.90103L14.7881 11.584C14.7881 11.6274 14.8064 11.669 14.8389 11.6996C14.8714 11.7303 14.9154 11.7475 14.9614 11.7475C15.0073 11.7475 15.0514 11.7303 15.0839 11.6996C15.1164 11.669 15.1347 11.6274 15.1347 11.584V3.90223C15.1347 3.73652 15.0975 3.57265 15.0256 3.42148C14.9537 3.27032 14.8487 3.13525 14.7174 3.02518L12.1715 0.889252Z" fill="currentColor"/>
</g>
<path id="Vector_3" d="M14.9432 4.05943H12.822C12.4443 4.05899 12.0823 3.9172 11.8152 3.66517C11.5482 3.41314 11.3979 3.07145 11.3975 2.71502V0.834121C11.3975 0.745247 11.4349 0.660014 11.5015 0.597171C11.568 0.534328 11.6584 0.499023 11.7525 0.499023C11.8467 0.499023 11.937 0.534328 12.0036 0.597171C12.0702 0.660014 12.1076 0.745247 12.1076 0.834121V2.71502C12.1078 2.89378 12.1831 3.06517 12.3171 3.19157C12.451 3.31797 12.6326 3.38906 12.822 3.38924H14.9432C15.0374 3.38924 15.1277 3.42454 15.1943 3.48739C15.2609 3.55023 15.2983 3.63546 15.2983 3.72434C15.2983 3.81321 15.2609 3.89844 15.1943 3.96129C15.1277 4.02413 15.0374 4.05943 14.9432 4.05943Z" fill="currentColor"/>
<path id="Vector (Stroke)_2" fill-rule="evenodd" clip-rule="evenodd" d="M11.7527 0.670532C11.7067 0.670532 11.6627 0.687761 11.6302 0.718428C11.5977 0.749096 11.5794 0.790691 11.5794 0.83406V2.71485C11.5799 3.02581 11.7109 3.32391 11.9439 3.5438C12.1769 3.76366 12.4928 3.88737 12.8222 3.8878H14.9434C14.9893 3.8878 15.0334 3.87057 15.0659 3.83991C15.0984 3.80924 15.1166 3.76764 15.1166 3.72427C15.1166 3.6809 15.0984 3.63931 15.0659 3.60864C15.0334 3.57798 14.9893 3.56075 14.9434 3.56075H12.8222C12.5846 3.56052 12.3566 3.47136 12.1887 3.31283C12.0207 3.15429 11.9262 2.93933 11.926 2.71513L11.926 0.83406C11.926 0.790689 11.9077 0.749095 11.8752 0.718428C11.8427 0.687761 11.7986 0.670532 11.7527 0.670532ZM11.3731 0.475792C11.4737 0.380774 11.6103 0.327393 11.7527 0.327393C11.8951 0.327393 12.0316 0.380773 12.1323 0.475792C12.233 0.570811 12.2896 0.699684 12.2896 0.83406L12.2896 2.71479C12.2897 2.84811 12.3459 2.97592 12.4458 3.07019C12.5456 3.16442 12.681 3.21743 12.8222 3.21761M12.8222 3.21761H14.9434C15.0857 3.21761 15.2223 3.27099 15.323 3.36601C15.4237 3.46103 15.4802 3.5899 15.4802 3.72427C15.4802 3.85865 15.4237 3.98752 15.323 4.08254C15.2223 4.17756 15.0857 4.23094 14.9434 4.23094H12.8222C12.3964 4.23044 11.9879 4.07058 11.6868 3.78643C11.3857 3.50228 11.2164 3.11703 11.2158 2.71517L11.2158 0.83406C11.2158 0.699682 11.2724 0.57081 11.3731 0.475792" fill="currentColor"/>
<path id="Vector_4" d="M10.7037 11.5762C10.6095 11.5762 10.5192 11.5409 10.4526 11.478C10.386 11.4152 10.3486 11.33 10.3486 11.2411V8.54457C10.3486 8.4557 10.386 8.37046 10.4526 8.30762C10.5192 8.24478 10.6095 8.20947 10.7037 8.20947H11.8619C11.9561 8.20947 12.0464 8.24478 12.113 8.30762C12.1796 8.37046 12.217 8.4557 12.217 8.54457C12.217 8.63344 12.1796 8.71868 12.113 8.78152C12.0464 8.84436 11.9561 8.87967 11.8619 8.87967H11.0588V11.2411C11.0588 11.33 11.0214 11.4152 10.9548 11.478C10.8882 11.5409 10.7979 11.5762 10.7037 11.5762Z" fill="currentColor"/>
<path id="Vector_5" d="M11.7699 10.2024H10.7047C10.6105 10.2024 10.5202 10.1671 10.4536 10.1043C10.387 10.0414 10.3496 9.9562 10.3496 9.86732C10.3496 9.77845 10.387 9.69322 10.4536 9.63037C10.5202 9.56753 10.6105 9.53223 10.7047 9.53223H11.7699C11.8641 9.53223 11.9544 9.56753 12.021 9.63037C12.0876 9.69322 12.125 9.77845 12.125 9.86732C12.125 9.9562 12.0876 10.0414 12.021 10.1043C11.9544 10.1671 11.8641 10.2024 11.7699 10.2024Z" fill="currentColor"/>
<path id="Vector_6" d="M7.16855 11.5325C7.07438 11.5325 6.98406 11.4972 6.91747 11.4344C6.85089 11.3716 6.81348 11.2863 6.81348 11.1974V8.5475C6.81348 8.45863 6.85089 8.37339 6.91747 8.31055C6.98406 8.24771 7.07438 8.2124 7.16855 8.2124C7.26272 8.2124 7.35303 8.24771 7.41962 8.31055C7.48621 8.37339 7.52362 8.45863 7.52362 8.5475V11.1974C7.52362 11.2863 7.48621 11.3716 7.41962 11.4344C7.35303 11.4972 7.26272 11.5325 7.16855 11.5325Z" fill="currentColor"/>
<path id="Vector_7" d="M7.17458 11.5761C7.08041 11.5761 6.9901 11.5408 6.92351 11.478C6.85692 11.4151 6.81951 11.3299 6.81951 11.241C6.81951 11.2313 6.81561 10.2592 6.81561 9.88858C6.81561 9.58096 6.81348 8.54384 6.81348 8.54384C6.81348 8.45496 6.85089 8.36973 6.91747 8.30689C6.98406 8.24405 7.07438 8.20874 7.16855 8.20874H7.97776C8.88035 8.20874 9.48681 8.8853 9.48681 9.89227C9.48681 10.85 8.86473 11.5554 8.00794 11.5694C7.77714 11.5735 7.20015 11.5755 7.17565 11.5755L7.17458 11.5761ZM7.52433 8.87961V9.88992C7.52433 10.1205 7.52433 10.5853 7.52682 10.9043C7.69725 10.9043 7.88686 10.9019 7.99409 10.9002C8.5338 10.8912 8.77525 10.3879 8.77525 9.89294C8.77525 9.40303 8.5654 8.87961 7.97634 8.87961H7.52433Z" fill="currentColor"/>
<path id="Vector_8" d="M4.13242 11.5762C4.03824 11.5762 3.94793 11.5409 3.88134 11.478C3.81475 11.4152 3.77734 11.33 3.77734 11.2411V8.54457C3.77734 8.4557 3.81475 8.37046 3.88134 8.30762C3.94793 8.24478 4.03824 8.20947 4.13242 8.20947C4.22659 8.20947 4.3169 8.24478 4.38349 8.30762C4.45008 8.37046 4.48749 8.4557 4.48749 8.54457V11.2411C4.48749 11.33 4.45008 11.4152 4.38349 11.478C4.3169 11.5409 4.22659 11.5762 4.13242 11.5762Z" fill="currentColor"/>
<path id="Vector_9" d="M4.13694 10.405C4.04314 10.405 3.95315 10.37 3.88662 10.3076C3.82009 10.2452 3.78243 10.1604 3.78187 10.0719C3.78187 10.0666 3.77832 9.51599 3.77832 9.30555C3.77832 9.13197 3.77832 8.54555 3.77832 8.54555C3.77832 8.45667 3.81573 8.37144 3.88232 8.3086C3.94891 8.24575 4.03922 8.21045 4.13339 8.21045H4.92875C5.57782 8.21045 6.10617 8.70204 6.10617 9.30655C6.10617 9.91107 5.57782 10.4027 4.92875 10.4027C4.7118 10.4027 4.14759 10.406 4.1412 10.406L4.13694 10.405ZM4.48775 8.87964V9.30555V9.7328H4.92449C5.17766 9.7328 5.39177 9.53777 5.39177 9.30689C5.39177 9.07601 5.17872 8.88098 4.92449 8.88098L4.48775 8.87964Z" fill="currentColor"/>
<g id="Vector_10">
<path d="M1.92456 14.8642C1.59496 14.8642 1.27886 14.7406 1.0458 14.5207C0.81274 14.3007 0.681808 14.0024 0.681808 13.6913C0.681808 13.3803 0.81274 13.082 1.0458 12.862C1.27886 12.6421 1.59496 12.5185 1.92456 12.5185H3.53729C3.63146 12.5185 3.72178 12.5538 3.78837 12.6166C3.85496 12.6795 3.89236 12.7647 3.89236 12.8536C3.89236 12.9425 3.85496 13.0277 3.78837 13.0905C3.72178 13.1534 3.63146 13.1887 3.53729 13.1887H1.92456C1.7833 13.1887 1.64783 13.2416 1.54795 13.3359C1.44806 13.4302 1.39195 13.558 1.39195 13.6913C1.39195 13.8246 1.44806 13.9525 1.54795 14.0468C1.64783 14.141 1.7833 14.194 1.92456 14.194H2.47137C2.56554 14.194 2.65585 14.2293 2.72244 14.2921C2.78903 14.355 2.82644 14.4402 2.82644 14.5291C2.82644 14.6179 2.78903 14.7032 2.72244 14.766C2.65585 14.8289 2.56554 14.8642 2.47137 14.8642H1.92456Z" fill="currentColor"/>
<path fill-rule="evenodd" clip-rule="evenodd" d="M1.92455 12.6901C1.64316 12.6901 1.37331 12.7956 1.17434 12.9833C0.975372 13.1711 0.863593 13.4258 0.863593 13.6913C0.863593 13.9569 0.975372 14.2116 1.17434 14.3993C1.37331 14.5871 1.64316 14.6926 1.92455 14.6926H2.47136C2.51731 14.6926 2.56139 14.6754 2.59388 14.6447C2.62638 14.614 2.64463 14.5724 2.64463 14.5291C2.64463 14.4857 2.62638 14.4441 2.59388 14.4134C2.56139 14.3828 2.51731 14.3656 2.47136 14.3656H1.92455C1.73508 14.3656 1.55336 14.2945 1.41939 14.1681C1.28541 14.0416 1.21014 13.8701 1.21014 13.6913C1.21014 13.5125 1.28541 13.341 1.41939 13.2146C1.55336 13.0882 1.73508 13.0171 1.92455 13.0171H3.53728C3.58324 13.0171 3.62731 12.9999 3.65981 12.9692C3.6923 12.9386 3.71056 12.897 3.71056 12.8536C3.71056 12.8102 3.6923 12.7686 3.65981 12.738C3.62731 12.7073 3.58324 12.6901 3.53728 12.6901H1.92455ZM0.91724 12.7407C1.18439 12.4886 1.54673 12.3469 1.92455 12.3469H3.53728C3.67967 12.3469 3.81622 12.4003 3.91691 12.4953C4.01759 12.5903 4.07415 12.7192 4.07415 12.8536C4.07415 12.988 4.01759 13.1168 3.91691 13.2119C3.81622 13.3069 3.67967 13.3603 3.53728 13.3603H1.92455C1.83151 13.3603 1.74228 13.3951 1.67649 13.4572C1.6107 13.5193 1.57374 13.6035 1.57374 13.6913C1.57374 13.7791 1.6107 13.8634 1.67649 13.9254C1.74228 13.9875 1.83151 14.0224 1.92455 14.0224H2.47136C2.61374 14.0224 2.7503 14.0758 2.85098 14.1708C2.95166 14.2658 3.00823 14.3947 3.00823 14.5291C3.00823 14.6635 2.95166 14.7923 2.85098 14.8873C2.7503 14.9824 2.61374 15.0357 2.47136 15.0357H1.92455C1.54673 15.0357 1.18439 14.8941 0.91724 14.642C0.650086 14.3899 0.5 14.0479 0.5 13.6913C0.5 13.3348 0.650086 12.9928 0.91724 12.7407Z" fill="currentColor"/>
</g>
<path id="Vector_11" d="M1.0416 13.9299C0.947424 13.9299 0.85711 13.8946 0.790522 13.8318C0.723933 13.7689 0.686523 13.6837 0.686523 13.5948L0.701792 7.6971C0.702356 7.38639 0.833537 7.08859 1.06654 6.86908C1.29954 6.64956 1.61531 6.52627 1.94454 6.52627L14.9625 6.52393C15.0567 6.52393 15.147 6.55923 15.2136 6.62207C15.2802 6.68492 15.3176 6.77015 15.3176 6.85902V12.8536C15.3176 12.9425 15.2802 13.0277 15.2136 13.0905C15.147 13.1534 15.0567 13.1887 14.9625 13.1887H2.2989C2.20473 13.1887 2.11442 13.1534 2.04783 13.0905C1.98124 13.0277 1.94383 12.9425 1.94383 12.8536C1.94383 12.7647 1.98124 12.6795 2.04783 12.6166C2.11442 12.5538 2.20473 12.5185 2.2989 12.5185H14.6068V7.19211L1.94348 7.19446C1.80222 7.19446 1.66675 7.24741 1.56687 7.34168C1.46698 7.43594 1.41087 7.56379 1.41087 7.6971L1.3956 13.5948C1.3956 13.6835 1.35834 13.7686 1.29198 13.8314C1.22562 13.8942 1.13558 13.9296 1.0416 13.9299Z" fill="currentColor" stroke="#1F2937" stroke-width="0.4"/>
</g>
</svg>
