<svg width="20" height="20" viewBox="0 0 20 20" fill="none" xmlns="http://www.w3.org/2000/svg">
<path d="M17.5 9.69163V7.08329C17.5 4.58329 16.25 2.91663 13.3333 2.91663H6.66667C3.75 2.91663 2.5 4.58329 2.5 7.08329V14.1666C2.5 16.6666 3.75 18.3333 6.66667 18.3333H9.73333" stroke="#9CA3AF" stroke-width="1.25" stroke-miterlimit="10" stroke-linecap="round" stroke-linejoin="round"/>
<path d="M5.8335 9.16663H10.8335" stroke="#9CA3AF" stroke-width="1.25" stroke-miterlimit="10" stroke-linecap="round" stroke-linejoin="round"/>
<path d="M5.8335 13.3334H8.01683" stroke="#9CA3AF" stroke-width="1.25" stroke-miterlimit="10" stroke-linecap="round" stroke-linejoin="round"/>
<path d="M15.3125 19.0625C13.2439 19.0625 11.5625 17.3811 11.5625 15.3125C11.5625 13.2439 13.2439 11.5625 15.3125 11.5625C17.3811 11.5625 19.0625 13.2439 19.0625 15.3125C19.0625 17.3811 17.3811 19.0625 15.3125 19.0625ZM15.3125 12.0858C13.5334 12.0858 12.0858 13.5334 12.0858 15.3125C12.0858 17.0916 13.5334 18.5392 15.3125 18.5392C17.0916 18.5392 18.5392 17.0916 18.5392 15.3125C18.5392 13.5334 17.0916 12.0858 15.3125 12.0858Z" fill="#9CA3AF"/>
<path d="M16.6067 16.6834C16.5613 16.6834 16.516 16.673 16.4741 16.6451L15.3927 15.9997C15.1241 15.8392 14.9253 15.4869 14.9253 15.1765V13.7462C14.9253 13.6032 15.0439 13.4846 15.1869 13.4846C15.3299 13.4846 15.4485 13.6032 15.4485 13.7462V15.1765C15.4485 15.302 15.5532 15.4869 15.6613 15.5497L16.7427 16.1951C16.8683 16.2683 16.9067 16.4288 16.8334 16.5544C16.7811 16.6381 16.6939 16.6834 16.6067 16.6834Z" fill="#9CA3AF"/>
<path d="M15.3125 19.0625C13.2439 19.0625 11.5625 17.3811 11.5625 15.3125C11.5625 13.2439 13.2439 11.5625 15.3125 11.5625C17.3811 11.5625 19.0625 13.2439 19.0625 15.3125C19.0625 17.3811 17.3811 19.0625 15.3125 19.0625ZM15.3125 12.0858C13.5334 12.0858 12.0858 13.5334 12.0858 15.3125C12.0858 17.0916 13.5334 18.5392 15.3125 18.5392C17.0916 18.5392 18.5392 17.0916 18.5392 15.3125C18.5392 13.5334 17.0916 12.0858 15.3125 12.0858Z" stroke="#9CA3AF" stroke-width="0.55814"/>
<path d="M16.6067 16.6834C16.5613 16.6834 16.516 16.673 16.4741 16.6451L15.3927 15.9997C15.1241 15.8392 14.9253 15.4869 14.9253 15.1765V13.7462C14.9253 13.6032 15.0439 13.4846 15.1869 13.4846C15.3299 13.4846 15.4485 13.6032 15.4485 13.7462V15.1765C15.4485 15.302 15.5532 15.4869 15.6613 15.5497L16.7427 16.1951C16.8683 16.2683 16.9067 16.4288 16.8334 16.5544C16.7811 16.6381 16.6939 16.6834 16.6067 16.6834Z" stroke="#9CA3AF" stroke-width="0.55814"/>
</svg>
