<svg width="20" height="20" viewBox="0 0 20 20" fill="none" xmlns="http://www.w3.org/2000/svg">
<path d="M15.4185 11.6659C17.4894 11.6661 19.1685 13.3449 19.1685 15.4159C19.1683 17.4867 17.4893 19.1657 15.4185 19.1659C13.3475 19.1659 11.6686 17.4868 11.6685 15.4159C11.6685 13.3448 13.3474 11.6659 15.4185 11.6659ZM15.5415 13.3319C15.2448 13.3323 15.0017 13.5762 15.0015 13.8729V15.3036C15.0016 15.7119 15.2521 16.1551 15.605 16.3661L16.686 17.0116V17.0106C16.7784 17.0688 16.8751 17.0896 16.9614 17.0897C17.1452 17.0897 17.3222 16.9939 17.4253 16.829L17.4302 16.8221C17.5774 16.5698 17.5038 16.2345 17.2388 16.08L16.1597 15.4364L16.1567 15.4354L16.146 15.4237C16.1354 15.4118 16.123 15.3954 16.1118 15.3759C16.1006 15.3561 16.0924 15.336 16.0874 15.3202C16.0822 15.3036 16.0825 15.2985 16.0825 15.3036V13.8729C16.0823 13.6131 15.8964 13.3943 15.6509 13.3436L15.5415 13.3319Z" fill="#00518D"/>
<path d="M13.245 2.96623L13.1903 2.96635C12.7631 2.95832 13.0414 2.96623 12.6997 2.96623C12.5011 2.91589 12.6672 2.96589 12.2033 2.91589L11.995 2.91623H6.57829H6.25114C5.83447 2.91589 5.66995 2.96623 5.32829 2.96623C4.98662 2.96623 5.32829 4.5079 5.32829 4.16623V2.96623C2.86995 3.19123 1.78662 4.77457 1.78662 7.0829V14.1662C1.78662 16.6662 3.03662 18.3329 5.95329 18.3329H9.39495C10.0283 18.3329 10.4533 17.6246 10.295 17.0079C10.1783 16.5579 10.12 16.0912 10.12 15.6246C10.12 13.8912 10.895 12.2912 12.2366 11.2329C13.2116 10.4412 14.4616 9.99957 15.745 9.99957H15.7783C16.3033 9.99957 16.7866 9.61624 16.7866 9.09124V7.0829C16.7866 4.77457 15.7033 3.19123 13.245 2.96623ZM7.61995 13.9579H5.95329C5.61162 13.9579 5.32829 13.6746 5.32829 13.3329C5.32829 12.9912 5.61162 12.7079 5.95329 12.7079H7.61995C7.96162 12.7079 8.24495 12.9912 8.24495 13.3329C8.24495 13.6746 7.96162 13.9579 7.61995 13.9579ZM10.12 9.79124H5.95329C5.61162 9.79124 5.32829 9.50791 5.32829 9.16624C5.32829 8.82457 5.61162 8.54123 5.95329 8.54123H10.12C10.4616 8.54123 10.745 8.82457 10.745 9.16624C10.745 9.50791 10.4616 9.79124 10.12 9.79124Z" fill="#00518D"/>
</svg>
