<svg width="24" height="25" viewBox="0 0 24 25" fill="currentColor" xmlns="http://www.w3.org/2000/svg">
<path d="M9.15961 12.0038C9.12961 12.0038 9.10961 12.0038 9.07961 12.0038C9.02961 11.9938 8.95961 11.9938 8.89961 12.0038C5.99961 11.9138 3.80961 9.63379 3.80961 6.82379C3.80961 3.96379 6.13961 1.63379 8.99961 1.63379C11.8596 1.63379 14.1896 3.96379 14.1896 6.82379C14.1796 9.63379 11.9796 11.9138 9.18961 12.0038C9.17961 12.0038 9.16961 12.0038 9.15961 12.0038ZM8.99961 3.13379C6.96961 3.13379 5.30961 4.79379 5.30961 6.82379C5.30961 8.82379 6.86961 10.4338 8.85961 10.5038C8.91961 10.4938 9.04961 10.4938 9.17961 10.5038C11.1396 10.4138 12.6796 8.80379 12.6896 6.82379C12.6896 4.79379 11.0296 3.13379 8.99961 3.13379Z" fill="currentColor"/>
<path d="M16.5396 12.1338C16.5096 12.1338 16.4796 12.1338 16.4496 12.1238C16.0396 12.1638 15.6196 11.8738 15.5796 11.4638C15.5396 11.0538 15.7896 10.6838 16.1996 10.6338C16.3196 10.6238 16.4496 10.6238 16.5596 10.6238C18.0196 10.5438 19.1596 9.34379 19.1596 7.87379C19.1596 6.35379 17.9296 5.12379 16.4096 5.12379C15.9996 5.13379 15.6596 4.79379 15.6596 4.38379C15.6596 3.97379 15.9996 3.63379 16.4096 3.63379C18.7496 3.63379 20.6596 5.54379 20.6596 7.88379C20.6596 10.1838 18.8596 12.0438 16.5696 12.1338C16.5596 12.1338 16.5496 12.1338 16.5396 12.1338Z" fill="currentColor"/>
<path d="M9.16961 22.9338C7.20961 22.9338 5.23961 22.4338 3.74961 21.4338C2.35961 20.5138 1.59961 19.2538 1.59961 17.8838C1.59961 16.5138 2.35961 15.2438 3.74961 14.3138C6.74961 12.3238 11.6096 12.3238 14.5896 14.3138C15.9696 15.2338 16.7396 16.4938 16.7396 17.8638C16.7396 19.2338 15.9796 20.5038 14.5896 21.4338C13.0896 22.4338 11.1296 22.9338 9.16961 22.9338ZM4.57961 15.5738C3.61961 16.2138 3.09961 17.0338 3.09961 17.8938C3.09961 18.7438 3.62961 19.5638 4.57961 20.1938C7.06961 21.8638 11.2696 21.8638 13.7596 20.1938C14.7196 19.5538 15.2396 18.7338 15.2396 17.8738C15.2396 17.0238 14.7096 16.2038 13.7596 15.5738C11.2696 13.9138 7.06961 13.9138 4.57961 15.5738Z" fill="currentColor"/>
<path d="M18.3396 21.1338C17.9896 21.1338 17.6796 20.8938 17.6096 20.5338C17.5296 20.1238 17.7896 19.7338 18.1896 19.6438C18.8196 19.5138 19.3996 19.2638 19.8496 18.9138C20.4196 18.4838 20.7296 17.9438 20.7296 17.3738C20.7296 16.8038 20.4196 16.2638 19.8596 15.8438C19.4196 15.5038 18.8696 15.2638 18.2196 15.1138C17.8196 15.0238 17.5596 14.6238 17.6496 14.2138C17.7396 13.8138 18.1396 13.5538 18.5496 13.6438C19.4096 13.8338 20.1596 14.1738 20.7696 14.6438C21.6996 15.3438 22.2296 16.3338 22.2296 17.3738C22.2296 18.4138 21.6896 19.4038 20.7596 20.1138C20.1396 20.5938 19.3596 20.9438 18.4996 21.1138C18.4396 21.1338 18.3896 21.1338 18.3396 21.1338Z" fill="currentColor"/>
</svg>
