<svg width="17" height="25" viewBox="0 0 17 25" fill="none" xmlns="http://www.w3.org/2000/svg">
<path d="M8.50008 24.5834C8.21814 24.5834 7.97647 24.5029 7.77508 24.3417C7.57369 24.1806 7.42265 23.9692 7.32196 23.7074C6.93932 22.5796 6.45598 21.5223 5.87196 20.5355C5.30807 19.5487 4.51258 18.3907 3.4855 17.0615C2.45842 15.7324 1.62265 14.4636 0.978206 13.2553C0.353901 12.047 0.041748 10.5869 0.041748 8.87508C0.041748 6.51883 0.857373 4.52508 2.48862 2.89383C4.14001 1.24244 6.14383 0.416748 8.50008 0.416748C10.8563 0.416748 12.8501 1.24244 14.4813 2.89383C16.1327 4.52508 16.9584 6.51883 16.9584 8.87508C16.9584 10.7077 16.606 12.2383 15.9011 13.4667C15.2164 14.6751 14.4209 15.8733 13.5147 17.0615C12.4272 18.5115 11.6015 19.7199 11.0376 20.6865C10.4938 21.6331 10.0407 22.64 9.67821 23.7074C9.57751 23.9893 9.4164 24.2108 9.19487 24.372C8.99349 24.5129 8.76189 24.5834 8.50008 24.5834ZM8.50008 11.8959C9.34592 11.8959 10.0608 11.6039 10.6449 11.0199C11.2289 10.4358 11.5209 9.72091 11.5209 8.87508C11.5209 8.02925 11.2289 7.31432 10.6449 6.73029C10.0608 6.14626 9.34592 5.85425 8.50008 5.85425C7.65425 5.85425 6.93932 6.14626 6.35529 6.73029C5.77126 7.31432 5.47925 8.02925 5.47925 8.87508C5.47925 9.72091 5.77126 10.4358 6.35529 11.0199C6.93932 11.6039 7.65425 11.8959 8.50008 11.8959Z" fill="#DC2626"/>
</svg>
