<svg width="24" height="24" viewBox="0 0 24 24" fill="none" xmlns="http://www.w3.org/2000/svg">
<path d="M20.2109 7.81994L12.5109 12.2799C12.2009 12.4599 11.8109 12.4599 11.4909 12.2799L3.79095 7.81994C3.24095 7.49994 3.10095 6.74994 3.52095 6.27994C3.81095 5.94994 4.14095 5.67994 4.49095 5.48994L9.91095 2.48994C11.0709 1.83994 12.9509 1.83994 14.1109 2.48994L19.5309 5.48994C19.8809 5.67994 20.2109 5.95994 20.5009 6.27994C20.9009 6.74994 20.7609 7.49994 20.2109 7.81994Z" fill="currentColor"/>
<path d="M11.431 14.14V20.96C11.431 21.72 10.661 22.22 9.98096 21.89C7.92096 20.88 4.45096 18.99 4.45096 18.99C3.23096 18.3 2.23096 16.56 2.23096 15.13V9.97C2.23096 9.18 3.06096 8.68 3.74096 9.07L10.931 13.24C11.231 13.43 11.431 13.77 11.431 14.14Z" fill="currentColor"/>
<path d="M12.5709 14.14V20.96C12.5709 21.72 13.3409 22.22 14.0209 21.89C16.0809 20.88 19.5509 18.99 19.5509 18.99C20.7709 18.3 21.7709 16.56 21.7709 15.13V9.97C21.7709 9.18 20.9409 8.68 20.2609 9.07L13.0709 13.24C12.7709 13.43 12.5709 13.77 12.5709 14.14Z" fill="currentColor"/>
</svg>
