<svg width="24" height="24" viewBox="0 0 24 24" fill="none" xmlns="http://www.w3.org/2000/svg">
<path d="M12.0002 16.5266C11.6289 16.5266 11.2577 16.4985 10.905 16.4328C8.93745 16.1423 7.14622 14.9989 6.01394 13.3026C5.22505 12.103 4.80741 10.7066 4.80741 9.26329C4.80741 5.26145 8.03719 2 12.0002 2C15.9632 2 19.1929 5.26145 19.1929 9.26329C19.1929 10.7066 18.7753 12.103 17.9864 13.3026C16.8448 15.0083 15.0536 16.1423 13.0675 16.4422C12.7426 16.4985 12.3714 16.5266 12.0002 16.5266ZM12.0002 3.4058C8.79823 3.4058 6.19955 6.02995 6.19955 9.26329C6.19955 10.4348 6.53367 11.5594 7.16478 12.5154C8.08359 13.8837 9.52215 14.8021 11.1185 15.0364C11.7125 15.1395 12.2972 15.1395 12.8447 15.0364C14.4689 14.8021 15.9075 13.8743 16.8263 12.506C17.4574 11.55 17.7915 10.4254 17.7915 9.25391C17.8008 6.02994 15.2021 3.4058 12.0002 3.4058Z" fill="currentColor"/>
<path d="M6.86762 21.9998C6.73768 21.9998 6.61703 21.981 6.4871 21.9529C5.88383 21.8124 5.41978 21.3437 5.28057 20.7346L4.95573 19.3569C4.93717 19.2725 4.8722 19.2069 4.77939 19.1788L3.24803 18.8133C2.67261 18.6727 2.21784 18.2416 2.06007 17.6699C1.90229 17.0982 2.06007 16.4797 2.47771 16.0579L6.09729 12.4029C6.24579 12.2529 6.44997 12.1779 6.65415 12.1967C6.85834 12.2154 7.04396 12.3279 7.16461 12.506C8.08343 13.8743 9.52198 14.8021 11.1276 15.0364C11.7216 15.1395 12.3063 15.1395 12.8539 15.0364C14.478 14.8021 15.9166 13.8743 16.8354 12.506C16.9468 12.3279 17.1417 12.2154 17.3458 12.1967C17.55 12.1779 17.7542 12.2529 17.9027 12.4029L21.5223 16.0579C21.9399 16.4797 22.0977 17.0982 21.9399 17.6699C21.7822 18.2416 21.3181 18.6821 20.752 18.8133L19.2206 19.1788C19.1371 19.1975 19.0721 19.2632 19.0443 19.3569L18.7194 20.7346C18.5802 21.3437 18.1162 21.8124 17.5129 21.9529C16.9096 22.1029 16.2878 21.8873 15.898 21.4093L12 16.8827L8.10199 21.4187C7.78643 21.7936 7.34095 21.9998 6.86762 21.9998ZM6.51494 13.9774L3.4615 17.0608C3.37797 17.1451 3.38725 17.2388 3.40581 17.2951C3.41509 17.3419 3.4615 17.4356 3.57287 17.4544L5.10423 17.8199C5.70749 17.9605 6.17154 18.4291 6.31076 19.0382L6.63559 20.4159C6.66343 20.5378 6.75624 20.5752 6.81193 20.594C6.86762 20.6034 6.96043 20.6127 7.04396 20.519L10.5986 16.386C9.0208 16.0767 7.57297 15.2238 6.51494 13.9774ZM13.4014 16.3766L16.956 20.5003C17.0396 20.6033 17.1417 20.6033 17.1974 20.5846C17.253 20.5752 17.3366 20.5284 17.3737 20.4066L17.6985 19.0289C17.8377 18.4197 18.3018 17.9511 18.9051 17.8105L20.4364 17.445C20.5478 17.4169 20.5942 17.3325 20.6035 17.2857C20.622 17.2388 20.6313 17.1357 20.5478 17.0514L17.4943 13.968C16.427 15.2145 14.9885 16.0673 13.4014 16.3766Z" fill="currentColor"/>
<path d="M13.7544 12.909C13.5131 12.909 13.2254 12.8434 12.882 12.6372L12.0003 12.103L11.1186 12.6278C10.3112 13.1152 9.78215 12.834 9.58724 12.6934C9.39234 12.5529 8.9747 12.1311 9.18816 11.2033L9.41091 10.238L8.66843 9.54444C8.26006 9.13207 8.11157 8.63537 8.25078 8.18551C8.39 7.73566 8.79836 7.417 9.37378 7.32328L10.3668 7.15459L10.8402 6.10493C11.1093 5.57073 11.527 5.27081 12.0003 5.27081C12.4736 5.27081 12.9006 5.58011 13.1604 6.11431L13.708 7.2202L14.6268 7.33266C15.193 7.42638 15.6013 7.74501 15.7498 8.19487C15.889 8.64472 15.7405 9.14145 15.3322 9.55382L14.5619 10.3317L14.8032 11.2033C15.0166 12.1311 14.599 12.5529 14.4041 12.6934C14.302 12.7778 14.0792 12.909 13.7544 12.909ZM9.78215 8.69161L10.4225 9.33825C10.7195 9.63815 10.868 10.1443 10.7752 10.5566L10.5989 11.3064L11.3414 10.8659C11.7404 10.6316 12.2787 10.6316 12.6685 10.8659L13.411 11.3064L13.244 10.5566C13.1511 10.1349 13.2904 9.63815 13.5873 9.33825L14.2277 8.69161L13.4203 8.55101C13.0305 8.4854 12.6407 8.19489 12.4644 7.83876L12.0003 6.92029L11.5363 7.85749C11.3692 8.20425 10.9794 8.50417 10.5896 8.56977L9.78215 8.69161Z" fill="currentColor"/>
</svg>
