<svg width="24" height="24" viewBox="0 0 24 24" fill="none" xmlns="http://www.w3.org/2000/svg">
<path fill-rule="evenodd" clip-rule="evenodd" d="M12 4.25581C7.69354 4.25581 4.25581 7.72375 4.25581 12C4.25581 12.3468 3.97469 12.6279 3.62791 12.6279C3.28112 12.6279 3 12.3468 3 12C3 7.03346 6.9967 3 12 3C14.9785 3 17.209 4.2441 18.6823 5.47318C19.0937 5.81638 19.4476 6.1595 19.7442 6.4761V4.09674C19.7442 3.74996 20.0253 3.46884 20.3721 3.46884C20.7189 3.46884 21 3.74996 21 4.09674V8.28279C21 8.62957 20.7189 8.9107 20.3721 8.9107H16.6549C16.3081 8.9107 16.027 8.62957 16.027 8.28279C16.027 7.93601 16.3081 7.65488 16.6549 7.65488H19.1157C18.8032 7.2927 18.3904 6.86503 17.8779 6.43751C16.5612 5.33916 14.6057 4.25581 12 4.25581ZM20.3721 11.3721C20.7189 11.3721 21 11.6532 21 12C21 16.9682 16.9682 21 12 21C9.47124 21 7.46608 19.7273 6.12373 18.5097C5.76743 18.1866 5.45382 17.8638 5.18512 17.5636V19.9033C5.18512 20.25 4.90399 20.5312 4.55721 20.5312C4.21043 20.5312 3.9293 20.25 3.9293 19.9033V15.7172C3.9293 15.3704 4.21043 15.0893 4.55721 15.0893H8.3414C8.68818 15.0893 8.9693 15.3704 8.9693 15.7172C8.9693 16.064 8.68818 16.3451 8.3414 16.3451H5.79385C6.09591 16.7123 6.48984 17.1464 6.96743 17.5796C8.19113 18.6895 9.90736 19.7442 12 19.7442C16.2746 19.7442 19.7442 16.2746 19.7442 12C19.7442 11.6532 20.0253 11.3721 20.3721 11.3721Z" fill="currentColor"/>
</svg>
