<svg width="24" height="24" viewBox="0 0 24 24" fill="none" xmlns="http://www.w3.org/2000/svg">
<path d="M12.0013 3.66699C7.40964 3.66699 3.66797 7.40866 3.66797 12.0003C3.66797 16.592 7.40964 20.3337 12.0013 20.3337C16.593 20.3337 20.3346 16.592 20.3346 12.0003C20.3346 7.40866 16.593 3.66699 12.0013 3.66699ZM14.8013 13.917C15.043 14.1587 15.043 14.5587 14.8013 14.8003C14.6763 14.9253 14.518 14.9837 14.3596 14.9837C14.2013 14.9837 14.043 14.9253 13.918 14.8003L12.0013 12.8837L10.0846 14.8003C9.95964 14.9253 9.8013 14.9837 9.64297 14.9837C9.48464 14.9837 9.3263 14.9253 9.2013 14.8003C8.95964 14.5587 8.95964 14.1587 9.2013 13.917L11.118 12.0003L9.2013 10.0837C8.95964 9.84199 8.95964 9.44199 9.2013 9.20033C9.44297 8.95866 9.84297 8.95866 10.0846 9.20033L12.0013 11.117L13.918 9.20033C14.1596 8.95866 14.5596 8.95866 14.8013 9.20033C15.043 9.44199 15.043 9.84199 14.8013 10.0837L12.8846 12.0003L14.8013 13.917Z" fill="#DC2626"/>
</svg>
