<svg width="40" height="40" viewBox="0 0 40 40" fill="none" xmlns="http://www.w3.org/2000/svg">
<path d="M0 20C0 8.95431 8.95431 0 20 0C31.0457 0 40 8.95431 40 20C40 31.0457 31.0457 40 20 40C8.95431 40 0 31.0457 0 20Z" fill="var(--color-icon-container-blue, #EFF6FF)"/>
<path d="M16 13.75C15.59 13.75 15.25 13.41 15.25 13V10C15.25 9.59 15.59 9.25 16 9.25C16.41 9.25 16.75 9.59 16.75 10V13C16.75 13.41 16.41 13.75 16 13.75Z" fill="var(--color-icon-brand, #00518D)"/>
<path d="M24 13.75C23.59 13.75 23.25 13.41 23.25 13V10C23.25 9.59 23.59 9.25 24 9.25C24.41 9.25 24.75 9.59 24.75 10V13C24.75 13.41 24.41 13.75 24 13.75Z" fill="var(--color-icon-brand, #00518D)"/>
<path d="M16.5 22.5001C16.37 22.5001 16.24 22.4801 16.12 22.4201C16 22.3701 15.89 22.3001 15.79 22.2101C15.61 22.0201 15.5 21.7601 15.5 21.5001C15.5 21.3701 15.53 21.2401 15.58 21.1201C15.63 21.0001 15.7 20.8901 15.79 20.7901C15.89 20.7001 16 20.6301 16.12 20.5801C16.48 20.4301 16.93 20.5101 17.21 20.7901C17.3 20.8901 17.37 21.0001 17.42 21.1201C17.47 21.2401 17.5 21.3701 17.5 21.5001C17.5 21.7601 17.39 22.0201 17.21 22.2101C17.02 22.3901 16.76 22.5001 16.5 22.5001Z" fill="var(--color-icon-brand, #00518D)"/>
<path d="M20 22.5C19.74 22.5 19.48 22.39 19.29 22.21C19.2 22.11 19.13 22 19.08 21.88C19.03 21.76 19 21.63 19 21.5C19 21.24 19.11 20.98 19.29 20.79C19.57 20.51 20.01 20.42 20.38 20.58C20.5 20.63 20.61 20.7 20.71 20.79C20.89 20.98 21 21.24 21 21.5C21 21.63 20.98 21.76 20.92 21.88C20.87 22 20.8 22.11 20.71 22.21C20.61 22.3 20.5 22.37 20.38 22.42C20.26 22.48 20.13 22.5 20 22.5Z" fill="var(--color-icon-brand, #00518D)"/>
<path d="M16.5 26C16.37 26 16.24 25.97 16.12 25.92C16 25.87 15.89 25.8 15.79 25.71C15.61 25.52 15.5 25.27 15.5 25C15.5 24.87 15.53 24.74 15.58 24.62C15.63 24.49 15.7 24.39 15.79 24.29C15.89 24.2 16 24.13 16.12 24.08C16.48 23.92 16.93 24.01 17.21 24.29C17.3 24.39 17.37 24.49 17.42 24.62C17.47 24.74 17.5 24.87 17.5 25C17.5 25.27 17.39 25.52 17.21 25.71C17.02 25.89 16.76 26 16.5 26Z" fill="var(--color-icon-brand, #00518D)"/>
<path d="M28.5 17.84H11.5C11.09 17.84 10.75 17.5 10.75 17.09C10.75 16.68 11.09 16.34 11.5 16.34H28.5C28.91 16.34 29.25 16.68 29.25 17.09C29.25 17.5 28.91 17.84 28.5 17.84Z" fill="var(--color-icon-brand, #00518D)"/>
<path d="M26 31.75C23.38 31.75 21.25 29.62 21.25 27C21.25 24.38 23.38 22.25 26 22.25C28.62 22.25 30.75 24.38 30.75 27C30.75 29.62 28.62 31.75 26 31.75ZM26 23.75C24.21 23.75 22.75 25.21 22.75 27C22.75 28.79 24.21 30.25 26 30.25C27.79 30.25 29.25 28.79 29.25 27C29.25 25.21 27.79 23.75 26 23.75Z" fill="var(--color-icon-brand, #00518D)"/>
<path d="M27.49 27.7999H24.5C24.09 27.7999 23.75 27.4599 23.75 27.0499C23.75 26.6399 24.09 26.2999 24.5 26.2999H27.49C27.9 26.2999 28.24 26.6399 28.24 27.0499C28.24 27.4599 27.91 27.7999 27.49 27.7999Z" fill="var(--color-icon-brand, #00518D)"/>
<path d="M26 29.33C25.59 29.33 25.25 28.99 25.25 28.58V25.59C25.25 25.18 25.59 24.84 26 24.84C26.41 24.84 26.75 25.18 26.75 25.59V28.58C26.75 28.99 26.41 29.33 26 29.33Z" fill="var(--color-icon-brand, #00518D)"/>
<path d="M23.37 30.75H16C12.35 30.75 10.25 28.65 10.25 25V16.5C10.25 12.85 12.35 10.75 16 10.75H24C27.65 10.75 29.75 12.85 29.75 16.5V24.36C29.75 24.67 29.56 24.95 29.26 25.06C28.97 25.17 28.64 25.09 28.43 24.85C27.81 24.15 26.92 23.75 25.99 23.75C24.2 23.75 22.74 25.21 22.74 27C22.74 27.59 22.9 28.17 23.21 28.67C23.38 28.97 23.6 29.22 23.84 29.43C24.08 29.63 24.17 29.96 24.06 30.26C23.97 30.55 23.69 30.75 23.37 30.75ZM16 12.25C13.14 12.25 11.75 13.64 11.75 16.5V25C11.75 27.86 13.14 29.25 16 29.25H21.82C21.45 28.57 21.25 27.8 21.25 27C21.25 24.38 23.38 22.25 26 22.25C26.79 22.25 27.57 22.45 28.25 22.82V16.5C28.25 13.64 26.86 12.25 24 12.25H16Z" fill="var(--color-icon-brand, #00518D)"/>
</svg>
