<svg width="24" height="24" viewBox="0 0 24 24" fill="none" xmlns="http://www.w3.org/2000/svg">
<path fill-rule="evenodd" clip-rule="evenodd" d="M9.75 2.5C5.19365 2.5 1.5 6.19365 1.5 10.75C1.5 15.3063 5.19365 19 9.75 19C14.3063 19 18 15.3063 18 10.75C18 6.19365 14.3063 2.5 9.75 2.5ZM0 10.75C0 5.36522 4.36522 1 9.75 1C15.1348 1 19.5 5.36522 19.5 10.75C19.5 16.1348 15.1348 20.5 9.75 20.5C4.36522 20.5 0 16.1348 0 10.75Z" fill="currentColor"/>
<path fill-rule="evenodd" clip-rule="evenodd" d="M16.2197 17.2197C16.5126 16.9268 16.9874 16.9268 17.2803 17.2197L22.2803 22.2197C22.5732 22.5126 22.5732 22.9874 22.2803 23.2803C21.9874 23.5732 21.5126 23.5732 21.2197 23.2803L16.2197 18.2803C15.9268 17.9874 15.9268 17.5126 16.2197 17.2197Z" fill="currentColor"/>
</svg>
