<svg width="7" height="8" viewBox="0 0 7 8" fill="none" xmlns="http://www.w3.org/2000/svg">
<g id="send">
<g id="Vector">
<path d="M0.337636 7.89649C0.423456 7.89649 0.509277 7.86487 0.57703 7.79713L6.90065 1.47455C7.03164 1.34358 7.03164 1.12681 6.90065 0.99584C6.76967 0.864873 6.55286 0.864873 6.42187 0.99584L0.098242 7.31842C-0.0327473 7.44939 -0.0327473 7.66616 0.098242 7.79713C0.165995 7.86487 0.251815 7.89649 0.337636 7.89649Z" fill="#DC2626"/>
<path d="M6.66123 6.21197C6.84643 6.21197 7 6.05842 7 5.87326V1.23519C7 1.05003 6.84643 0.896484 6.66123 0.896484H2.0224C1.83721 0.896484 1.68364 1.05003 1.68364 1.23519C1.68364 1.42036 1.83721 1.5739 2.0224 1.5739H6.32247V5.87326C6.32247 6.05842 6.47604 6.21197 6.66123 6.21197Z" fill="#DC2626"/>
</g>
</g>
</svg>
