<svg width="20" height="20" viewBox="0 0 20 20" fill="none" xmlns="http://www.w3.org/2000/svg">
<g id="side-nav/settings">
<g id="Vector">
<path d="M9.99164 13.309C8.26022 13.309 6.85502 11.8253 6.85502 9.99722C6.85502 8.16913 8.26022 6.68545 9.99164 6.68545C11.723 6.68545 13.1283 8.16913 13.1283 9.99722C13.1283 11.8253 11.723 13.309 9.99164 13.309ZM9.99164 8.01016C8.95446 8.01016 8.10967 8.90213 8.10967 9.99722C8.10967 11.0923 8.95446 11.9843 9.99164 11.9843C11.0288 11.9843 11.8736 11.0923 11.8736 9.99722C11.8736 8.90213 11.0288 8.01016 9.99164 8.01016Z" fill="currentColor"/>
<path d="M12.6766 18.9964C12.5009 18.9964 12.3253 18.9699 12.1496 18.9257C11.631 18.7756 11.1961 18.4312 10.9201 17.9455L10.8197 17.7688C10.3262 16.868 9.6487 16.868 9.1552 17.7688L9.0632 17.9366C8.78717 18.4312 8.35223 18.7844 7.83364 18.9257C7.30669 19.0759 6.76301 18.9964 6.30297 18.705L4.86431 17.8307C4.35409 17.5216 3.98606 17.0182 3.82714 16.4088C3.67658 15.7994 3.75186 15.1724 4.04461 14.6337C4.28717 14.1833 4.35409 13.7771 4.2119 13.5209C4.0697 13.2648 3.71004 13.1147 3.21654 13.1147C1.99535 13.1147 1 12.0638 1 10.7744V9.22006C1 7.93068 1.99535 6.87975 3.21654 6.87975C3.71004 6.87975 4.0697 6.72961 4.2119 6.4735C4.35409 6.21739 4.29554 5.81115 4.04461 5.36075C3.75186 4.82203 3.67658 4.18617 3.82714 3.58564C3.9777 2.97627 4.34572 2.47289 4.86431 2.16379L6.31134 1.28948C7.25651 0.697778 8.50279 1.0422 9.07156 2.05781L9.17193 2.23444C9.66543 3.13524 10.3429 3.13524 10.8364 2.23444L10.9284 2.06664C11.4972 1.0422 12.7435 0.697778 13.697 1.29831L15.1357 2.17262C15.6459 2.48172 16.0139 2.98511 16.1729 3.59447C16.3234 4.20384 16.2481 4.83086 15.9554 5.36958C15.7128 5.81998 15.6459 6.22622 15.7881 6.48233C15.9303 6.73844 16.29 6.88858 16.7835 6.88858C18.0046 6.88858 19 7.93951 19 9.22889V10.7832C19 12.0726 18.0046 13.1235 16.7835 13.1235C16.29 13.1235 15.9303 13.2737 15.7881 13.5298C15.6459 13.7859 15.7045 14.1921 15.9554 14.6425C16.2481 15.1812 16.3318 15.8171 16.1729 16.4176C16.0223 17.027 15.6543 17.5304 15.1357 17.8395L13.6887 18.7138C13.3708 18.8993 13.0279 18.9964 12.6766 18.9964ZM9.99164 15.7288C10.7361 15.7288 11.4303 16.2233 11.9071 17.0977L11.9991 17.2654C12.0994 17.4509 12.2667 17.5834 12.4675 17.6364C12.6682 17.6894 12.869 17.6629 13.0362 17.5569L14.4833 16.6737C14.7007 16.5413 14.868 16.3205 14.9349 16.0555C15.0019 15.7906 14.9684 15.5168 14.8429 15.2872C14.3662 14.4217 14.3076 13.5298 14.6757 12.8498C15.0437 12.1697 15.8048 11.7812 16.7584 11.7812C17.2937 11.7812 17.7203 11.3308 17.7203 10.7656V9.21123C17.7203 8.65485 17.2937 8.19562 16.7584 8.19562C15.8048 8.19562 15.0437 7.80704 14.6757 7.12702C14.3076 6.44701 14.3662 5.55504 14.8429 4.68956C14.9684 4.45995 15.0019 4.18617 14.9349 3.92123C14.868 3.65629 14.7091 3.44434 14.4916 3.30304L13.0446 2.42873C12.6849 2.19911 12.2082 2.33158 11.9907 2.72016L11.8987 2.88796C11.4219 3.76227 10.7277 4.25682 9.98327 4.25682C9.23885 4.25682 8.54461 3.76227 8.06784 2.88796L7.97584 2.71133C7.76673 2.34041 7.29833 2.20794 6.93866 2.42873L5.49164 3.31187C5.27416 3.44434 5.10688 3.66512 5.03996 3.93006C4.97305 4.195 5.00651 4.46878 5.13197 4.69839C5.60874 5.56387 5.66729 6.45584 5.29926 7.13586C4.93123 7.81587 4.17007 8.20445 3.21654 8.20445C2.68123 8.20445 2.25465 8.65485 2.25465 9.22006V10.7744C2.25465 11.3308 2.68123 11.79 3.21654 11.79C4.17007 11.79 4.93123 12.1786 5.29926 12.8586C5.66729 13.5386 5.60874 14.4306 5.13197 15.2961C5.00651 15.5257 4.97305 15.7994 5.03996 16.0644C5.10688 16.3293 5.2658 16.5413 5.48327 16.6826L6.9303 17.5569C7.10595 17.6717 7.31506 17.6982 7.50743 17.6452C7.70818 17.5922 7.87546 17.4509 7.9842 17.2654L8.07621 17.0977C8.55297 16.2322 9.24721 15.7288 9.99164 15.7288Z" fill="currentColor"/>
</g>
</g>
</svg>
