<svg width="20" height="20" viewBox="0 0 20 20" fill="none" xmlns="http://www.w3.org/2000/svg">
<path d="M10.9302 9.76745C10.7534 9.76745 10.5767 9.70233 10.4372 9.5628C10.1674 9.29303 10.1674 8.84652 10.4372 8.57675L18.0651 0.948847C18.3348 0.679079 18.7813 0.679079 19.0511 0.948847C19.3209 1.21861 19.3209 1.66513 19.0511 1.93489L11.4232 9.5628C11.2837 9.70233 11.1069 9.76745 10.9302 9.76745Z" fill="#00518D"/>
<path d="M19.3023 5.86047C18.9209 5.86047 18.6046 5.54419 18.6046 5.16279V1.39535H14.8372C14.4558 1.39535 14.1395 1.07907 14.1395 0.697674C14.1395 0.316279 14.4558 0 14.8372 0H19.3023C19.6837 0 20 0.316279 20 0.697674V5.16279C20 5.54419 19.6837 5.86047 19.3023 5.86047Z" fill="#00518D"/>
<path d="M12.7907 20H7.2093C2.15814 20 0 17.8419 0 12.7907V7.2093C0 2.15814 2.15814 0 7.2093 0H9.06977C9.45116 0 9.76744 0.316279 9.76744 0.697674C9.76744 1.07907 9.45116 1.39535 9.06977 1.39535H7.2093C2.92093 1.39535 1.39535 2.92093 1.39535 7.2093V12.7907C1.39535 17.0791 2.92093 18.6047 7.2093 18.6047H12.7907C17.0791 18.6047 18.6047 17.0791 18.6047 12.7907V10.9302C18.6047 10.5488 18.9209 10.2326 19.3023 10.2326C19.6837 10.2326 20 10.5488 20 10.9302V12.7907C20 17.8419 17.8419 20 12.7907 20Z" fill="#00518D"/>
</svg>
