<svg width="18" height="18" viewBox="0 0 18 18" fill="none" xmlns="http://www.w3.org/2000/svg">
<path fill-rule="evenodd" clip-rule="evenodd" d="M5.10816 6.73802C5.387 6.43298 5.83909 6.43298 6.11793 6.73802L8.99983 9.89067L11.8817 6.73802C12.1606 6.43298 12.6127 6.43298 12.8915 6.73802C13.1703 7.04306 13.1703 7.53762 12.8915 7.84265L9.50472 11.5476C9.22588 11.8527 8.77379 11.8527 8.49495 11.5476L5.10816 7.84265C4.82932 7.53762 4.82932 7.04306 5.10816 6.73802Z" fill="white"/>
<path fill-rule="evenodd" clip-rule="evenodd" d="M8.99972 0.666016C9.39406 0.666016 9.71374 1.01572 9.71374 1.44711V10.8202C9.71374 11.2516 9.39406 11.6013 8.99972 11.6013C8.60538 11.6013 8.28571 11.2516 8.28571 10.8202V1.44711C8.28571 1.01572 8.60538 0.666016 8.99972 0.666016Z" fill="white"/>
<path fill-rule="evenodd" clip-rule="evenodd" d="M1.38052 12.0655C1.77486 12.0655 2.09453 12.4152 2.09453 12.8466C2.09453 14.4614 3.29117 15.7705 4.76731 15.7705H13.2324C14.7085 15.7705 15.9051 14.4614 15.9051 12.8466C15.9051 12.4152 16.2248 12.0655 16.6192 12.0655C17.0135 12.0655 17.3332 12.4152 17.3332 12.8466C17.3332 15.3242 15.4972 17.3327 13.2324 17.3327H4.76731C2.5025 17.3327 0.666504 15.3242 0.666504 12.8466C0.666504 12.4152 0.986179 12.0655 1.38052 12.0655Z" fill="white"/>
<path fill-rule="evenodd" clip-rule="evenodd" d="M5.10816 6.73802C5.387 6.43298 5.83909 6.43298 6.11793 6.73802L8.99983 9.89067L11.8817 6.73802C12.1606 6.43298 12.6127 6.43298 12.8915 6.73802C13.1703 7.04306 13.1703 7.53762 12.8915 7.84265L9.50472 11.5476C9.22588 11.8527 8.77379 11.8527 8.49495 11.5476L5.10816 7.84265C4.82932 7.53762 4.82932 7.04306 5.10816 6.73802Z" stroke="white" stroke-width="0.05" stroke-linecap="round" stroke-linejoin="round"/>
<path fill-rule="evenodd" clip-rule="evenodd" d="M8.99972 0.666016C9.39406 0.666016 9.71374 1.01572 9.71374 1.44711V10.8202C9.71374 11.2516 9.39406 11.6013 8.99972 11.6013C8.60538 11.6013 8.28571 11.2516 8.28571 10.8202V1.44711C8.28571 1.01572 8.60538 0.666016 8.99972 0.666016Z" stroke="white" stroke-width="0.05" stroke-linecap="round" stroke-linejoin="round"/>
<path fill-rule="evenodd" clip-rule="evenodd" d="M1.38052 12.0655C1.77486 12.0655 2.09453 12.4152 2.09453 12.8466C2.09453 14.4614 3.29117 15.7705 4.76731 15.7705H13.2324C14.7085 15.7705 15.9051 14.4614 15.9051 12.8466C15.9051 12.4152 16.2248 12.0655 16.6192 12.0655C17.0135 12.0655 17.3332 12.4152 17.3332 12.8466C17.3332 15.3242 15.4972 17.3327 13.2324 17.3327H4.76731C2.5025 17.3327 0.666504 15.3242 0.666504 12.8466C0.666504 12.4152 0.986179 12.0655 1.38052 12.0655Z" stroke="white" stroke-width="0.05" stroke-linecap="round" stroke-linejoin="round"/>
</svg>
