<svg width="24" height="24" viewBox="0 0 24 24" fill="currentColor" xmlns="http://www.w3.org/2000/svg">
<path fill-rule="evenodd" clip-rule="evenodd" d="M3.26829 3.14603C4.29091 2.2132 5.88205 2 7.91669 2H16.094C18.1283 2 19.7201 2.21307 20.7416 3.1465C21.7744 4.09026 22.0053 5.56522 21.9999 7.42295V17.8237C22.0064 20.1283 20.038 22 17.6073 22H6.21848C3.88868 22 2 20.2091 2 18C2 17.9688 2.00196 17.938 2.00578 17.9077C2.00196 17.8774 2 17.8466 2 17.8154V7.42154C2 5.56336 2.2345 4.08904 3.26829 3.14603ZM3.61671 17.9077C3.62053 17.938 3.62249 17.9688 3.62249 18C3.62249 19.3595 4.78475 20.4615 6.21848 20.4615H17.6073C19.1404 20.4615 20.382 19.2807 20.3774 17.8269L21.1887 17.8246H20.3774L20.3774 7.41942C20.3828 5.55748 20.1107 4.70654 19.6157 4.25427C19.1094 3.79155 18.1485 3.53846 16.094 3.53846H7.91669C5.86264 3.53846 4.90106 3.79142 4.39314 4.25474C3.89638 4.70788 3.62249 5.55971 3.62249 7.42154V17.8154C3.62249 17.8466 3.62053 17.8774 3.61671 17.9077Z" fill="currentColor"/>
<path fill-rule="evenodd" clip-rule="evenodd" d="M6.70097 12C6.70097 11.4336 7.18525 10.9744 7.78264 10.9744H7.79235C8.38974 10.9744 8.87401 11.4336 8.87401 12C8.87401 12.5664 8.38974 13.0256 7.79235 13.0256H7.78264C7.18525 13.0256 6.70097 12.5664 6.70097 12Z" fill="currentColor"/>
<path fill-rule="evenodd" clip-rule="evenodd" d="M6.70097 16.1026C6.70097 15.5361 7.18525 15.0769 7.78264 15.0769H7.79235C8.38974 15.0769 8.87401 15.5361 8.87401 16.1026C8.87401 16.669 8.38974 17.1282 7.79235 17.1282H7.78264C7.18525 17.1282 6.70097 16.669 6.70097 16.1026Z" fill="currentColor"/>
<path fill-rule="evenodd" clip-rule="evenodd" d="M10.0026 12C10.0026 11.5752 10.3658 11.2308 10.8138 11.2308H16.763C17.211 11.2308 17.5742 11.5752 17.5742 12C17.5742 12.4248 17.211 12.7692 16.763 12.7692H10.8138C10.3658 12.7692 10.0026 12.4248 10.0026 12Z" fill="currentColor"/>
<path fill-rule="evenodd" clip-rule="evenodd" d="M10.0026 16.1026C10.0026 15.6777 10.3658 15.3333 10.8138 15.3333H16.763C17.211 15.3333 17.5742 15.6777 17.5742 16.1026C17.5742 16.5274 17.211 16.8718 16.763 16.8718H10.8138C10.3658 16.8718 10.0026 16.5274 10.0026 16.1026Z" fill="currentColor"/>
<path fill-rule="evenodd" clip-rule="evenodd" d="M6.70097 7.89744C6.70097 7.33099 7.18525 6.8718 7.78264 6.8718H7.79235C8.38974 6.8718 8.87401 7.33099 8.87401 7.89744C8.87401 8.46388 8.38974 8.92308 7.79235 8.92308H7.78264C7.18525 8.92308 6.70097 8.46388 6.70097 7.89744Z" fill="currentColor"/>
<path fill-rule="evenodd" clip-rule="evenodd" d="M10.0026 7.89744C10.0026 7.4726 10.3658 7.12821 10.8138 7.12821H16.763C17.211 7.12821 17.5742 7.4726 17.5742 7.89744C17.5742 8.32227 17.211 8.66667 16.763 8.66667H10.8138C10.3658 8.66667 10.0026 8.32227 10.0026 7.89744Z" fill="currentColor"/>
</svg>
