<svg width="22" height="22" viewBox="0 0 22 22" fill="none" xmlns="http://www.w3.org/2000/svg">
<g id="sun">
<g id="Vector">
<path d="M11.0191 17.9522C7.19399 17.9522 4.08607 14.8443 4.08607 11.0191C4.08607 7.19399 7.19399 4.08607 11.0191 4.08607C14.8443 4.08607 17.9522 7.19399 17.9522 11.0191C17.9522 14.8443 14.8443 17.9522 11.0191 17.9522ZM11.0191 5.52049C7.9877 5.52049 5.52049 7.9877 5.52049 11.0191C5.52049 14.0505 7.9877 16.5178 11.0191 16.5178C14.0505 16.5178 16.5178 14.0505 16.5178 11.0191C16.5178 7.9877 14.0505 5.52049 11.0191 5.52049Z" fill="currentColor"/>
<path d="M11.0191 21.5C10.4932 21.5 10.0628 21.1079 10.0628 20.582V20.5055C10.0628 19.9795 10.4932 19.5492 11.0191 19.5492C11.5451 19.5492 11.9754 19.9795 11.9754 20.5055C11.9754 21.0314 11.5451 21.5 11.0191 21.5ZM17.847 18.8033C17.5984 18.8033 17.3593 18.7077 17.168 18.526L17.0437 18.4016C16.6708 18.0287 16.6708 17.4262 17.0437 17.0533C17.4167 16.6803 18.0191 16.6803 18.3921 17.0533L18.5164 17.1776C18.8893 17.5505 18.8893 18.153 18.5164 18.526C18.3347 18.7077 18.0956 18.8033 17.847 18.8033ZM4.19126 18.8033C3.94262 18.8033 3.70355 18.7077 3.5123 18.526C3.13934 18.153 3.13934 17.5505 3.5123 17.1776L3.63661 17.0533C4.00956 16.6803 4.61202 16.6803 4.98497 17.0533C5.35792 17.4262 5.35792 18.0287 4.98497 18.4016L4.86066 18.526C4.67896 18.7077 4.43033 18.8033 4.19126 18.8033ZM20.582 11.9754H20.5055C19.9795 11.9754 19.5492 11.5451 19.5492 11.0191C19.5492 10.4932 19.9795 10.0628 20.5055 10.0628C21.0314 10.0628 21.5 10.4932 21.5 11.0191C21.5 11.5451 21.1079 11.9754 20.582 11.9754ZM1.53279 11.9754H1.45628C0.930328 11.9754 0.5 11.5451 0.5 11.0191C0.5 10.4932 0.930328 10.0628 1.45628 10.0628C1.98224 10.0628 2.45082 10.4932 2.45082 11.0191C2.45082 11.5451 2.05874 11.9754 1.53279 11.9754ZM17.7227 5.27186C17.474 5.27186 17.235 5.17623 17.0437 4.99454C16.6708 4.62158 16.6708 4.01913 17.0437 3.64617L17.168 3.52186C17.541 3.14891 18.1434 3.14891 18.5164 3.52186C18.8893 3.89481 18.8893 4.49727 18.5164 4.87022L18.3921 4.99454C18.2104 5.17623 17.9713 5.27186 17.7227 5.27186ZM4.31557 5.27186C4.06694 5.27186 3.82787 5.17623 3.63661 4.99454L3.5123 4.86066C3.13934 4.4877 3.13934 3.88525 3.5123 3.5123C3.88525 3.13934 4.4877 3.13934 4.86066 3.5123L4.98497 3.63661C5.35792 4.00956 5.35792 4.61202 4.98497 4.98497C4.80328 5.17623 4.55464 5.27186 4.31557 5.27186ZM11.0191 2.45082C10.4932 2.45082 10.0628 2.05874 10.0628 1.53279V1.45628C10.0628 0.930328 10.4932 0.5 11.0191 0.5C11.5451 0.5 11.9754 0.930328 11.9754 1.45628C11.9754 1.98224 11.5451 2.45082 11.0191 2.45082Z" fill="currentColor"/>
</g>
</g>
</svg>
