<svg width="86" height="86" viewBox="0 0 86 86" fill="none" xmlns="http://www.w3.org/2000/svg">
<g clip-path="url(#clip0_21351_4384)">
<path d="M27.6746 33.6014V22.7871C27.6746 14.5145 34.9077 7.78425 43.7984 7.78425C52.6892 7.78425 59.9223 14.5145 59.9223 22.7871V33.6014H64.162V22.7871C64.162 12.3381 55.0261 3.83929 43.7984 3.83929C32.5707 3.83929 23.4348 12.3381 23.4348 22.7871V33.6014H27.6746Z" fill="#00518D"/>
<path d="M27.6746 33.6014V22.7871C27.6746 14.5145 34.9077 7.78425 43.7984 7.78425C52.6892 7.78425 59.9223 14.5145 59.9223 22.7871V33.6014H64.162V22.7871C64.162 12.3381 55.0261 3.83929 43.7984 3.83929C32.5707 3.83929 23.4348 12.3381 23.4348 22.7871V33.6014H27.6746Z" fill="url(#paint0_linear_21351_4384)" fill-opacity="0.25"/>
<path d="M69.4828 33.6014H16.5169C13.3325 33.6014 10.7498 36.6669 10.7498 40.4465V53.965H36.6626V53.333C36.6626 49.5882 39.2202 46.5551 42.373 46.5551H43.6267C46.7816 46.5551 49.3371 49.5907 49.3371 53.333V53.965H75.2498V40.4465C75.2498 36.6669 72.6672 33.6014 69.4828 33.6014Z" fill="#00518D"/>
<path d="M69.4828 33.6014H16.5169C13.3325 33.6014 10.7498 36.6669 10.7498 40.4465V53.965H36.6626V53.333C36.6626 49.5882 39.2202 46.5551 42.373 46.5551H43.6267C46.7816 46.5551 49.3371 49.5907 49.3371 53.333V53.965H75.2498V40.4465C75.2498 36.6669 72.6672 33.6014 69.4828 33.6014Z" fill="url(#paint1_linear_21351_4384)" fill-opacity="0.25"/>
<path d="M77.4709 82.1607H8.52887C5.51901 82.1607 3.07129 79.7237 3.07129 76.727V60.9651C3.07129 57.9684 5.51901 55.5314 8.52887 55.5314H77.4709C80.4807 55.5314 82.9284 57.9684 82.9284 60.9651V76.727C82.9284 79.7237 80.4807 82.1607 77.4709 82.1607ZM8.52887 58.0518C6.91691 58.0518 5.60463 59.3584 5.60463 60.9633V76.7251C5.60463 78.33 6.91691 79.6366 8.52887 79.6366H77.4709C79.0828 79.6366 80.3951 78.33 80.3951 76.7251V60.9633C80.3951 59.3584 79.0828 58.0518 77.4709 58.0518H8.52887Z" fill="#00518D"/>
<path d="M77.4709 82.1607H8.52887C5.51901 82.1607 3.07129 79.7237 3.07129 76.727V60.9651C3.07129 57.9684 5.51901 55.5314 8.52887 55.5314H77.4709C80.4807 55.5314 82.9284 57.9684 82.9284 60.9651V76.727C82.9284 79.7237 80.4807 82.1607 77.4709 82.1607ZM8.52887 58.0518C6.91691 58.0518 5.60463 59.3584 5.60463 60.9633V76.7251C5.60463 78.33 6.91691 79.6366 8.52887 79.6366H77.4709C79.0828 79.6366 80.3951 78.33 80.3951 76.7251V60.9633C80.3951 59.3584 79.0828 58.0518 77.4709 58.0518H8.52887Z" fill="url(#paint2_linear_21351_4384)" fill-opacity="0.25"/>
<path d="M24.5713 65.5553L23.3883 63.8741L20.1998 66.2911V62.1964H18.1927V66.2911L15.006 63.8741L13.8213 65.5553L17.4967 68.3393L13.8213 71.1232L15.006 72.8044L18.1927 70.3875V74.4821H20.1998V70.3875L23.3883 72.8044L24.5713 71.1232L20.8975 68.3393L24.5713 65.5553Z" fill="#00518D"/>
<path d="M24.5713 65.5553L23.3883 63.8741L20.1998 66.2911V62.1964H18.1927V66.2911L15.006 63.8741L13.8213 65.5553L17.4967 68.3393L13.8213 71.1232L15.006 72.8044L18.1927 70.3875V74.4821H20.1998V70.3875L23.3883 72.8044L24.5713 71.1232L20.8975 68.3393L24.5713 65.5553Z" fill="url(#paint3_linear_21351_4384)" fill-opacity="0.25"/>
<path d="M39.9285 65.5553L38.7455 63.8741L35.5571 66.2911V62.1964H33.55V66.2911L30.3616 63.8741L29.1785 65.5553L32.8523 68.3393L29.1785 71.1232L30.3616 72.8044L33.55 70.3875V74.4821H35.5571V70.3875L38.7455 72.8044L39.9285 71.1232L36.2548 68.3393L39.9285 65.5553Z" fill="#00518D"/>
<path d="M39.9285 65.5553L38.7455 63.8741L35.5571 66.2911V62.1964H33.55V66.2911L30.3616 63.8741L29.1785 65.5553L32.8523 68.3393L29.1785 71.1232L30.3616 72.8044L33.55 70.3875V74.4821H35.5571V70.3875L38.7455 72.8044L39.9285 71.1232L36.2548 68.3393L39.9285 65.5553Z" fill="url(#paint4_linear_21351_4384)" fill-opacity="0.25"/>
<path d="M56.8214 65.5553L55.6383 63.8741L52.4499 66.2911V62.1964H50.4428V66.2911L47.2544 63.8741L46.0714 65.5553L49.7451 68.3393L46.0714 71.1232L47.2544 72.8044L50.4428 70.3875V74.4821H52.4499V70.3875L55.6383 72.8044L56.8214 71.1232L53.1476 68.3393L56.8214 65.5553Z" fill="#00518D"/>
<path d="M56.8214 65.5553L55.6383 63.8741L52.4499 66.2911V62.1964H50.4428V66.2911L47.2544 63.8741L46.0714 65.5553L49.7451 68.3393L46.0714 71.1232L47.2544 72.8044L50.4428 70.3875V74.4821H52.4499V70.3875L55.6383 72.8044L56.8214 71.1232L53.1476 68.3393L56.8214 65.5553Z" fill="url(#paint5_linear_21351_4384)" fill-opacity="0.25"/>
<path d="M72.1784 65.5553L70.9937 63.8741L67.807 66.2911V62.1964H65.7999V66.2911L62.6115 63.8741L61.4284 65.5553L65.1022 68.3393L61.4284 71.1232L62.6115 72.8044L65.7999 70.3875V74.4821H67.807V70.3875L70.9937 72.8044L72.1784 71.1232L68.503 68.3393L72.1784 65.5553Z" fill="#00518D"/>
<path d="M72.1784 65.5553L70.9937 63.8741L67.807 66.2911V62.1964H65.7999V66.2911L62.6115 63.8741L61.4284 65.5553L65.1022 68.3393L61.4284 71.1232L62.6115 72.8044L65.7999 70.3875V74.4821H67.807V70.3875L70.9937 72.8044L72.1784 71.1232L68.503 68.3393L72.1784 65.5553Z" fill="url(#paint6_linear_21351_4384)" fill-opacity="0.25"/>
</g>
<defs>
<linearGradient id="paint0_linear_21351_4384" x1="42.9999" y1="3.83929" x2="42.9999" y2="82.1607" gradientUnits="userSpaceOnUse">
<stop offset="0.07" stop-color="#F1F9FE"/>
<stop offset="1" stop-color="white" stop-opacity="0"/>
</linearGradient>
<linearGradient id="paint1_linear_21351_4384" x1="42.9999" y1="3.83929" x2="42.9999" y2="82.1607" gradientUnits="userSpaceOnUse">
<stop offset="0.07" stop-color="#F1F9FE"/>
<stop offset="1" stop-color="white" stop-opacity="0"/>
</linearGradient>
<linearGradient id="paint2_linear_21351_4384" x1="42.9999" y1="3.83929" x2="42.9999" y2="82.1607" gradientUnits="userSpaceOnUse">
<stop offset="0.07" stop-color="#F1F9FE"/>
<stop offset="1" stop-color="white" stop-opacity="0"/>
</linearGradient>
<linearGradient id="paint3_linear_21351_4384" x1="42.9999" y1="3.83929" x2="42.9999" y2="82.1607" gradientUnits="userSpaceOnUse">
<stop offset="0.07" stop-color="#F1F9FE"/>
<stop offset="1" stop-color="white" stop-opacity="0"/>
</linearGradient>
<linearGradient id="paint4_linear_21351_4384" x1="42.9999" y1="3.83929" x2="42.9999" y2="82.1607" gradientUnits="userSpaceOnUse">
<stop offset="0.07" stop-color="#F1F9FE"/>
<stop offset="1" stop-color="white" stop-opacity="0"/>
</linearGradient>
<linearGradient id="paint5_linear_21351_4384" x1="42.9999" y1="3.83929" x2="42.9999" y2="82.1607" gradientUnits="userSpaceOnUse">
<stop offset="0.07" stop-color="#F1F9FE"/>
<stop offset="1" stop-color="white" stop-opacity="0"/>
</linearGradient>
<linearGradient id="paint6_linear_21351_4384" x1="42.9999" y1="3.83929" x2="42.9999" y2="82.1607" gradientUnits="userSpaceOnUse">
<stop offset="0.07" stop-color="#F1F9FE"/>
<stop offset="1" stop-color="white" stop-opacity="0"/>
</linearGradient>
<clipPath id="clip0_21351_4384">
<rect width="82.9286" height="78.4052" fill="white" transform="translate(1.53564 3.83929)"/>
</clipPath>
</defs>
</svg>
