<svg width="20" height="20" viewBox="0 0 20 20" fill="none" xmlns="http://www.w3.org/2000/svg">
<path d="M5.9902 5.01527L13.6357 2.46394C17.0685 1.31966 18.9333 3.19289 17.7975 6.62573L15.2462 14.2712C13.534 19.4162 10.7199 19.4162 9.00771 14.2712L8.25333 11.9996L5.98172 11.2452C0.845175 9.54153 0.845175 6.73592 5.9902 5.01527Z" fill="#00518D"/>
<path d="M10.2368 9.82124L13.4662 6.58335L10.2368 9.82124Z" fill="#1F2937"/>
<path d="M10.2368 10.457C10.0757 10.457 9.91466 10.3976 9.78752 10.2705C9.54171 10.0247 9.54171 9.61782 9.78752 9.37201L13.0085 6.13412C13.2543 5.88831 13.6611 5.88831 13.9069 6.13412C14.1527 6.37993 14.1527 6.78678 13.9069 7.03259L10.686 10.2705C10.5588 10.3891 10.3978 10.457 10.2368 10.457Z" fill="#F6F7F9"/>
</svg>
