<svg width="56" height="56" viewBox="0 0 56 56" fill="none" xmlns="http://www.w3.org/2000/svg">
<g clip-path="url(#clip0_14_876)">
<path d="M28.0005 56.0009C43.4647 56.0009 56.0009 43.4647 56.0009 28.0005C56.0009 12.5362 43.4647 0 28.0005 0C12.5362 0 0 12.5362 0 28.0005C0 43.4647 12.5362 56.0009 28.0005 56.0009Z" fill="url(#paint0_linear_14_876)"/>
<path d="M28.0005 51.1446C40.7826 51.1446 51.1446 40.7826 51.1446 28.0005C51.1446 15.2183 40.7826 4.85632 28.0005 4.85632C15.2183 4.85632 4.85632 15.2183 4.85632 28.0005C4.85632 40.7826 15.2183 51.1446 28.0005 51.1446Z" fill="url(#paint1_linear_14_876)" fill-opacity="0.6"/>
<path fill-rule="evenodd" clip-rule="evenodd" d="M27.5558 21.112C28.3843 21.112 29.0558 21.7836 29.0558 22.612V27.532C29.0558 27.5871 29.0851 27.7522 29.2039 27.9604C29.3227 28.1687 29.4498 28.2779 29.4966 28.3056L29.5005 28.3079L29.5005 28.3079L33.2205 30.5279C33.9319 30.9525 34.1644 31.8733 33.7399 32.5847C33.3154 33.2961 32.3945 33.5286 31.6832 33.1041L27.9671 30.8864C27.9663 30.8859 27.9655 30.8855 27.9647 30.885C27.3646 30.5286 26.9046 29.9845 26.5978 29.4466C26.2906 28.9078 26.0558 28.2329 26.0558 27.532V22.612C26.0558 21.7836 26.7274 21.112 27.5558 21.112Z" fill="currentColor"/>
<path fill-rule="evenodd" clip-rule="evenodd" d="M28 17.5C22.2044 17.5 17.5 22.2044 17.5 28C17.5 33.7956 22.2044 38.5 28 38.5C33.7956 38.5 38.5 33.7956 38.5 28C38.5 22.2044 33.7956 17.5 28 17.5ZM14.5 28C14.5 20.5476 20.5476 14.5 28 14.5C35.4524 14.5 41.5 20.5476 41.5 28C41.5 35.4524 35.4524 41.5 28 41.5C20.5476 41.5 14.5 35.4524 14.5 28Z" fill="currentColor"/>
</g>
<defs>
<linearGradient id="paint0_linear_14_876" x1="13.7309" y1="13.7309" x2="48.7016" y2="48.7016" gradientUnits="userSpaceOnUse">
<stop stop-color="#FFFBEB"/>
<stop offset="1" stop-color="#FBBF24"/>
</linearGradient>
<linearGradient id="paint1_linear_14_876" x1="16.2054" y1="16.2054" x2="45.1104" y2="45.1104" gradientUnits="userSpaceOnUse">
<stop stop-color="#B45309"/>
<stop offset="1" stop-color="#78350F"/>
</linearGradient>
<clipPath id="clip0_14_876">
<rect width="56" height="56" fill="white"/>
</clipPath>
</defs>
</svg>
