<svg width="20" height="20" viewBox="0 0 20 20" fill="none" xmlns="http://www.w3.org/2000/svg">
<path d="M11.8501 18.0244C10.8667 18.0244 9.47507 17.3328 8.37506 14.0244L7.77506 12.2245L5.97506 11.6244C2.67507 10.5244 1.9834 9.13278 1.9834 8.14945C1.9834 7.17445 2.67507 5.77445 5.97506 4.66612L13.0501 2.30778C14.8167 1.71612 16.2917 1.89112 17.2001 2.79112C18.1084 3.69112 18.2834 5.17445 17.6917 6.94112L15.3334 14.0161C14.2251 17.3328 12.8334 18.0244 11.8501 18.0244ZM6.36673 5.85778C4.05006 6.63278 3.22506 7.54945 3.22506 8.14945C3.22506 8.74945 4.05006 9.66612 6.36673 10.4328L8.46673 11.1328C8.65006 11.1911 8.80007 11.3411 8.8584 11.5244L9.5584 13.6244C10.3251 15.9411 11.2501 16.7661 11.8501 16.7661C12.4501 16.7661 13.3667 15.9411 14.1417 13.6244L16.5001 6.54945C16.9251 5.26612 16.8501 4.21612 16.3084 3.67445C15.7667 3.13278 14.7167 3.06612 13.4417 3.49112L6.36673 5.85778Z" fill="currentColor"/>
<path d="M8.42467 11.9993C8.26634 11.9993 8.10801 11.941 7.98301 11.816C7.74134 11.5743 7.74134 11.1743 7.98301 10.9327L10.9663 7.94102C11.208 7.69935 11.608 7.69935 11.8497 7.94102C12.0913 8.18268 12.0913 8.58268 11.8497 8.82435L8.86634 11.816C8.74967 11.941 8.58301 11.9993 8.42467 11.9993Z" fill="currentColor"/>
<path d="M11.8343 18.0049C10.8542 18.0049 9.46706 17.3155 8.37067 14.018L7.77264 12.2239L5.97855 11.6259C2.68939 10.5295 2 9.14243 2 8.16233C2 7.19053 2.68939 5.79513 5.97855 4.69044L13.0303 2.33985C14.7912 1.75013 16.2613 1.92455 17.1667 2.8216C18.072 3.71864 18.2465 5.1971 17.6567 6.95797L15.3061 14.0097C14.2015 17.3155 12.8144 18.0049 11.8343 18.0049ZM6.36893 5.87819C4.05988 6.65065 3.23759 7.5643 3.23759 8.16233C3.23759 8.76036 4.05988 9.67402 6.36893 10.4382L8.46204 11.1359C8.64477 11.194 8.79428 11.3435 8.85242 11.5262L9.55012 13.6193C10.3143 15.9284 11.2362 16.7507 11.8343 16.7507C12.4323 16.7507 13.3459 15.9284 14.1184 13.6193L16.469 6.56759C16.8926 5.28847 16.8178 4.24192 16.2779 3.70203C15.7381 3.16214 14.6915 3.09569 13.4207 3.5193L6.36893 5.87819Z" fill="currentColor"/>
<path d="M8.42051 11.9997C8.26269 11.9997 8.10488 11.9415 7.98029 11.817C7.73942 11.5761 7.73942 11.1774 7.98029 10.9365L10.9538 7.95468C11.1947 7.71381 11.5934 7.71381 11.8343 7.95468C12.0751 8.19555 12.0751 8.59424 11.8343 8.83511L8.86072 11.817C8.74444 11.9415 8.57832 11.9997 8.42051 11.9997Z" fill="currentColor"/>
</svg>
