<svg width="56" height="56" viewBox="0 0 56 56" fill="none" xmlns="http://www.w3.org/2000/svg">
<g clip-path="url(#clip0_14_1396)">
<path d="M28.0005 56.0009C43.4647 56.0009 56.0009 43.4647 56.0009 28.0005C56.0009 12.5362 43.4647 0 28.0005 0C12.5362 0 0 12.5362 0 28.0005C0 43.4647 12.5362 56.0009 28.0005 56.0009Z" fill="url(#paint0_linear_14_1396)"/>
<path d="M28.0005 51.1446C40.7826 51.1446 51.1446 40.7826 51.1446 28.0005C51.1446 15.2183 40.7826 4.85632 28.0005 4.85632C15.2183 4.85632 4.85632 15.2183 4.85632 28.0005C4.85632 40.7826 15.2183 51.1446 28.0005 51.1446Z" fill="url(#paint1_linear_14_1396)" fill-opacity="0.6"/>
<path fill-rule="evenodd" clip-rule="evenodd" d="M37.495 18.505C38.1683 19.1783 38.1683 20.27 37.495 20.9433L20.9433 37.495C20.27 38.1683 19.1783 38.1683 18.505 37.495C17.8317 36.8217 17.8317 35.73 18.505 35.0567L35.0567 18.505C35.73 17.8317 36.8217 17.8317 37.495 18.505Z" fill="currentColor"/>
<path fill-rule="evenodd" clip-rule="evenodd" d="M18.505 18.505C19.1783 17.8317 20.27 17.8317 20.9433 18.505L37.495 35.0567C38.1683 35.73 38.1683 36.8217 37.495 37.495C36.8217 38.1683 35.73 38.1683 35.0567 37.495L18.505 20.9433C17.8317 20.27 17.8317 19.1783 18.505 18.505Z" fill="currentColor"/>
</g>
<defs>
<linearGradient id="paint0_linear_14_1396" x1="13.7309" y1="13.7309" x2="48.7016" y2="48.7016" gradientUnits="userSpaceOnUse">
<stop stop-color="#FEF2F2"/>
<stop offset="1" stop-color="#F87171"/>
</linearGradient>
<linearGradient id="paint1_linear_14_1396" x1="16.2054" y1="16.2054" x2="45.1104" y2="45.1104" gradientUnits="userSpaceOnUse">
<stop stop-color="#B91C1C"/>
<stop offset="1" stop-color="#7F1D1D"/>
</linearGradient>
<clipPath id="clip0_14_1396">
<rect width="56" height="56" fill="white"/>
</clipPath>
</defs>
</svg>
