<svg width="32" height="32" viewBox="0 0 32 32" fill="none" xmlns="http://www.w3.org/2000/svg">
<path d="M20.0001 30.3334H12.0001C4.76008 30.3334 1.66675 27.24 1.66675 20V12C1.66675 4.76002 4.76008 1.66669 12.0001 1.66669H20.0001C27.2401 1.66669 30.3334 4.76002 30.3334 12V20C30.3334 27.24 27.2401 30.3334 20.0001 30.3334ZM12.0001 3.66669C5.85341 3.66669 3.66675 5.85335 3.66675 12V20C3.66675 26.1467 5.85341 28.3334 12.0001 28.3334H20.0001C26.1467 28.3334 28.3334 26.1467 28.3334 20V12C28.3334 5.85335 26.1467 3.66669 20.0001 3.66669H12.0001Z" fill="#00518D"/>
<path d="M28.6401 10.48H3.36011C2.81344 10.48 2.36011 10.0266 2.36011 9.47998C2.36011 8.93331 2.80011 8.47998 3.36011 8.47998H28.6401C29.1868 8.47998 29.6401 8.93331 29.6401 9.47998C29.6401 10.0266 29.2001 10.48 28.6401 10.48Z" fill="#00518D"/>
<path d="M11.3601 10.2934C10.8134 10.2934 10.3601 9.84002 10.3601 9.29335V2.81335C10.3601 2.26669 10.8134 1.81335 11.3601 1.81335C11.9068 1.81335 12.3601 2.26669 12.3601 2.81335V9.29335C12.3601 9.84002 11.9068 10.2934 11.3601 10.2934Z" fill="#00518D"/>
<path d="M20.6399 9.69335C20.0932 9.69335 19.6399 9.24002 19.6399 8.69335V2.81335C19.6399 2.26669 20.0932 1.81335 20.6399 1.81335C21.1866 1.81335 21.6399 2.26669 21.6399 2.81335V8.69335C21.6399 9.25335 21.1999 9.69335 20.6399 9.69335Z" fill="#00518D"/>
<path d="M14.7867 24.16C14.3067 24.16 13.8533 24.04 13.44 23.8133C12.5333 23.28 12 22.2133 12 20.8667V17.6667C12 16.32 12.5333 15.24 13.4533 14.7067C14.3733 14.1733 15.5733 14.2533 16.7333 14.9333L19.5067 16.5333C20.6667 17.2 21.3467 18.2 21.3467 19.2667C21.3467 20.3333 20.6667 21.3333 19.4933 22L16.72 23.6C16.08 23.9733 15.4133 24.16 14.7867 24.16ZM14.8 16.36C14.6667 16.36 14.5467 16.3867 14.4533 16.44C14.1733 16.6 14 17.0533 14 17.6667V20.8667C14 21.4667 14.1733 21.92 14.4533 22.0933C14.7333 22.2533 15.2133 22.1733 15.7333 21.8667L18.5067 20.2667C19.0267 19.96 19.3467 19.5867 19.3467 19.2667C19.3467 18.9467 19.04 18.5733 18.5067 18.2667L15.7333 16.6667C15.3867 16.4667 15.0533 16.36 14.8 16.36Z" fill="#00518D"/>
</svg>
