<svg width="20" height="20" viewBox="0 0 20 20" fill="none" xmlns="http://www.w3.org/2000/svg">
<g id="vuesax/outline/wallet-3">
<g id="wallet-3">
<path id="Vector" d="M10.8335 9.9165H5.8335C5.49183 9.9165 5.2085 9.63317 5.2085 9.2915C5.2085 8.94984 5.49183 8.6665 5.8335 8.6665H10.8335C11.1752 8.6665 11.4585 8.94984 11.4585 9.2915C11.4585 9.63317 11.1752 9.9165 10.8335 9.9165Z" fill="currentColor"/>
<path id="Vector_2" d="M1.6665 9.9167C1.32484 9.9167 1.0415 9.63336 1.0415 9.2917V5.4417C1.0415 3.40003 2.69984 1.7417 4.74151 1.7417H9.42484C11.5665 1.7417 13.1248 3.1667 13.1248 5.12503C13.1248 5.4667 12.8415 5.75003 12.4998 5.75003C12.1582 5.75003 11.8748 5.4667 11.8748 5.12503C11.8748 3.65836 10.5998 2.9917 9.42484 2.9917H4.74151C3.39151 2.9917 2.2915 4.0917 2.2915 5.4417V9.2917C2.2915 9.6417 2.00817 9.9167 1.6665 9.9167Z" fill="currentColor"/>
<path id="Vector_3" d="M13.3332 18.25H4.99984C2.8165 18.25 1.0415 16.475 1.0415 14.2917V8.45833C1.0415 6.275 2.8165 4.5 4.99984 4.5H13.3332C15.5165 4.5 17.2915 6.275 17.2915 8.45833V9.66663C17.2915 10.0083 17.0082 10.2916 16.6665 10.2916H15.7665C15.4748 10.2916 15.2082 10.4 15.0165 10.6L15.0082 10.6083C14.7332 10.8833 14.6248 11.2666 14.7248 11.6416C14.8498 12.1083 15.3415 12.45 15.8915 12.45H16.6665C17.0082 12.45 17.2915 12.7333 17.2915 13.075V14.2833C17.2915 16.475 15.5165 18.25 13.3332 18.25ZM4.99984 5.75C3.50817 5.75 2.2915 6.96667 2.2915 8.45833V14.2917C2.2915 15.7833 3.50817 17 4.99984 17H13.3332C14.8248 17 16.0415 15.7833 16.0415 14.2917V13.7083H15.8915C14.7665 13.7083 13.7915 13 13.5165 11.975C13.2998 11.1666 13.5332 10.3083 14.1248 9.72497C14.5582 9.2833 15.1415 9.04163 15.7665 9.04163H16.0415V8.45833C16.0415 6.96667 14.8248 5.75 13.3332 5.75H4.99984Z" fill="currentColor"/>
<path id="Vector_4" d="M17.4751 13.7082H15.8667C14.6084 13.7082 13.5418 12.7749 13.4418 11.5749C13.3751 10.8832 13.6251 10.2082 14.1251 9.7165C14.5418 9.28317 15.1334 9.0415 15.7584 9.0415H17.4668C18.2834 9.0415 18.9501 9.69985 18.9501 10.5165V12.2332C18.9584 13.0499 18.2917 13.7082 17.4751 13.7082ZM15.7667 10.2915C15.4751 10.2915 15.2084 10.3998 15.0168 10.5998C14.7751 10.8332 14.6584 11.1499 14.6918 11.4665C14.7334 12.0165 15.2667 12.4582 15.8667 12.4582H17.4751C17.6001 12.4582 17.7084 12.3582 17.7084 12.2332V10.5165C17.7084 10.3915 17.6001 10.2915 17.4751 10.2915H15.7667Z" fill="currentColor"/>
</g>
</g>
</svg>
