<svg width="56" height="56" viewBox="0 0 56 56" fill="none" xmlns="http://www.w3.org/2000/svg">
<path d="M28 3C41.8071 3 53 14.1929 53 28C53 41.8071 41.8071 53 28 53C14.1929 53 3 41.8071 3 28C3 14.1929 14.1929 3 28 3Z" fill="#FEF3C7"/>
<path d="M28 3C41.8071 3 53 14.1929 53 28C53 41.8071 41.8071 53 28 53C14.1929 53 3 41.8071 3 28C3 14.1929 14.1929 3 28 3Z" stroke="#FFFBEB" stroke-width="6"/>
<path d="M28 31.2082C27.5217 31.2082 27.125 30.8116 27.125 30.3332V24.4999C27.125 24.0216 27.5217 23.6249 28 23.6249C28.4784 23.6249 28.875 24.0216 28.875 24.4999V30.3332C28.875 30.8116 28.4784 31.2082 28 31.2082Z" fill="#D97706"/>
<path d="M28 34.9999C27.93 34.9999 27.8484 34.9882 27.7667 34.9766C27.6967 34.9649 27.6267 34.9416 27.5567 34.9066C27.4867 34.8832 27.4167 34.8482 27.3467 34.8016C27.2884 34.7549 27.23 34.7082 27.1717 34.6616C26.9617 34.4399 26.8334 34.1366 26.8334 33.8332C26.8334 33.5299 26.9617 33.2266 27.1717 33.0049C27.23 32.9582 27.2884 32.9116 27.3467 32.8649C27.4167 32.8182 27.4867 32.7832 27.5567 32.7599C27.6267 32.7249 27.6967 32.7016 27.7667 32.6899C27.9184 32.6549 28.0817 32.6549 28.2217 32.6899C28.3034 32.7016 28.3734 32.7249 28.4434 32.7599C28.5134 32.7832 28.5834 32.8182 28.6534 32.8649C28.7117 32.9116 28.77 32.9582 28.8284 33.0049C29.0384 33.2266 29.1667 33.5299 29.1667 33.8332C29.1667 34.1366 29.0384 34.4399 28.8284 34.6616C28.77 34.7082 28.7117 34.7549 28.6534 34.8016C28.5834 34.8482 28.5134 34.8832 28.4434 34.9066C28.3734 34.9416 28.3034 34.9649 28.2217 34.9766C28.1517 34.9882 28.07 34.9999 28 34.9999Z" fill="#D97706"/>
<path d="M35.07 39.8532H20.93C18.655 39.8532 16.9167 39.0249 16.03 37.5316C15.155 36.0382 15.2717 34.1132 16.38 32.1182L23.45 19.4016C24.6167 17.3016 26.2267 16.1466 28 16.1466C29.7734 16.1466 31.3834 17.3016 32.55 19.4016L39.62 32.1299C40.7284 34.1249 40.8567 36.0382 39.97 37.5432C39.0834 39.0249 37.345 39.8532 35.07 39.8532ZM28 17.8966C26.9034 17.8966 25.83 18.7366 24.9784 20.2532L17.92 32.9816C17.1267 34.4049 16.9984 35.7116 17.5467 36.6566C18.095 37.6016 19.3084 38.1149 20.9417 38.1149H35.0817C36.715 38.1149 37.9167 37.6016 38.4767 36.6566C39.0367 35.7116 38.8967 34.4166 38.1034 32.9816L31.0217 20.2532C30.17 18.7366 29.0967 17.8966 28 17.8966Z" fill="#D97706"/>
</svg>
