<svg xmlns="http://www.w3.org/2000/svg" width="56" height="56" viewBox="0 0 56 56" fill="none">
  <g clip-path="url(#clip0_1306_4245)">
    <path d="M28.0005 56.0009C43.4647 56.0009 56.0009 43.4647 56.0009 28.0005C56.0009 12.5362 43.4647 0 28.0005 0C12.5362 0 0 12.5362 0 28.0005C0 43.4647 12.5362 56.0009 28.0005 56.0009Z" fill="url(#paint0_linear_1306_4245)"/>
    <path d="M28.0006 51.1445C40.7827 51.1445 51.1447 40.7825 51.1447 28.0003C51.1447 15.2182 40.7827 4.8562 28.0006 4.8562C15.2184 4.8562 4.85645 15.2182 4.85645 28.0003C4.85645 40.7825 15.2184 51.1445 28.0006 51.1445Z" fill="url(#paint1_linear_1306_4245)" fill-opacity="0.6"/>
    <path d="M25.5475 38.1417C25.1737 38.601 24.4847 38.6366 24.0655 38.2182L17.7093 31.875C17.3178 31.4843 17.3178 30.85 17.7093 30.4594L19.663 28.5096C20.0534 28.1201 20.6854 28.1201 21.0758 28.5096L23.6981 31.1266C24.1173 31.5449 24.8062 31.5093 25.1801 31.05L35.1709 18.7741C35.519 18.3463 36.1478 18.2812 36.5762 18.6285L38.7217 20.3677C39.1513 20.716 39.2166 21.3468 38.8675 21.7758L25.5475 38.1417Z" fill="white"/>
  </g>
  <defs>
    <linearGradient id="paint0_linear_1306_4245" x1="13.7309" y1="13.7309" x2="48.7016" y2="48.7016" gradientUnits="userSpaceOnUse">
      <stop stop-color="#ECFDF5" stop-opacity="0.5"/>
      <stop offset="1" stop-color="#059669" stop-opacity="0.5"/>
    </linearGradient>
    <linearGradient id="paint1_linear_1306_4245" x1="16.2055" y1="16.2053" x2="45.1105" y2="45.1103" gradientUnits="userSpaceOnUse">
      <stop stop-color="#10B981"/>
      <stop offset="1" stop-color="#047857"/>
    </linearGradient>
    <clipPath id="clip0_1306_4245">
      <rect width="56" height="56" fill="white"/>
    </clipPath>
  </defs>
</svg>