<svg width="16" height="18" viewBox="0 0 16 18" fill="none" xmlns="http://www.w3.org/2000/svg">
<g id="Group 427319044">
<path id="Vector" d="M13.1801 17.5788H4.62288C4.05618 17.5782 3.51287 17.3654 3.11215 16.9873C2.71142 16.6091 2.48601 16.0963 2.48535 15.5615V12.927C2.48535 12.8381 2.52276 12.7529 2.58935 12.69C2.65594 12.6272 2.74625 12.5919 2.84042 12.5919C2.93459 12.5919 3.02491 12.6272 3.0915 12.69C3.15809 12.7529 3.19549 12.8381 3.19549 12.927V15.5615C3.19596 15.9186 3.3465 16.261 3.61409 16.5136C3.88167 16.7661 4.24446 16.9082 4.62288 16.9086H13.1801C13.5586 16.9082 13.9214 16.7661 14.189 16.5136C14.4567 16.2611 14.6073 15.9187 14.6079 15.5615V12.5426C14.6079 12.4537 14.6453 12.3685 14.7119 12.3057C14.7784 12.2428 14.8688 12.2075 14.9629 12.2075C15.0571 12.2075 15.1474 12.2428 15.214 12.3057C15.2806 12.3685 15.318 12.4537 15.318 12.5426V15.5615C15.3172 16.0964 15.0918 16.6091 14.691 16.9873C14.2902 17.3655 13.7468 17.5782 13.1801 17.5788Z" fill="#4B5563"/>
<path id="Vector (Stroke)" fill-rule="evenodd" clip-rule="evenodd" d="M14.9631 12.3785C14.9171 12.3785 14.8731 12.3958 14.8406 12.4264C14.8081 12.4571 14.7898 12.4987 14.7898 12.5421V15.561C14.7892 15.9635 14.6194 16.3497 14.3177 16.6344C14.016 16.919 13.6071 17.0791 13.1805 17.0796H4.62304C4.19648 17.0791 3.78732 16.919 3.48569 16.6343C3.18407 16.3497 3.01438 15.9637 3.01385 15.5612L3.01385 12.9264C3.01385 12.8831 2.9956 12.8415 2.9631 12.8108C2.93061 12.7801 2.88654 12.7629 2.84058 12.7629C2.79462 12.7629 2.75055 12.7801 2.71806 12.8108C2.68556 12.8415 2.6673 12.8831 2.6673 12.9264V15.5609C2.66793 16.0502 2.8742 16.5194 3.24085 16.8654C3.60753 17.2114 4.10469 17.4061 4.62325 17.4067H13.1801C13.6987 17.4061 14.1959 17.2115 14.5626 16.8654C14.9293 16.5194 15.1357 16.0502 15.1364 15.5607V12.5421C15.1364 12.4987 15.1181 12.4571 15.0856 12.4264C15.0531 12.3958 15.009 12.3785 14.9631 12.3785ZM14.5835 12.1838C14.6841 12.0888 14.8207 12.0354 14.9631 12.0354C15.1055 12.0354 15.242 12.0888 15.3427 12.1838C15.4434 12.2788 15.4999 12.4077 15.4999 12.5421V15.561C15.4991 16.1412 15.2545 16.6978 14.8197 17.1081C14.3848 17.5184 13.7954 17.7491 13.1805 17.7498H4.62304C4.00819 17.7491 3.41852 17.5183 2.98375 17.108C2.54899 16.6977 2.30442 16.1414 2.30371 15.5612L2.30371 12.9264C2.30371 12.792 2.36027 12.6632 2.46096 12.5682C2.56164 12.4731 2.69819 12.4198 2.84058 12.4198C2.98297 12.4198 3.11952 12.4731 3.2202 12.5682C3.32089 12.6632 3.37745 12.792 3.37745 12.9264V15.5609C3.37789 15.8725 3.50927 16.1713 3.74279 16.3917C3.97634 16.6121 4.29298 16.7361 4.62326 16.7365H13.18C13.5104 16.7361 13.827 16.6121 14.0607 16.3917C14.2943 16.1713 14.4257 15.8724 14.4262 15.5607V12.5421C14.4262 12.4077 14.4828 12.2788 14.5835 12.1838Z" fill="#1F2937"/>
<g id="Vector_2">
<path d="M14.9614 11.9191C14.8672 11.9191 14.7769 11.8838 14.7103 11.8209C14.6437 11.7581 14.6063 11.6729 14.6063 11.584V3.90155C14.606 3.80655 14.5845 3.71268 14.5431 3.62607C14.5018 3.53946 14.4415 3.46205 14.3663 3.39891L11.8204 1.26333C11.6899 1.1532 11.5211 1.09214 11.3461 1.09176H4.97785C4.50498 1.09247 4.05169 1.27014 3.71742 1.5858C3.38314 1.90146 3.19515 2.32935 3.19469 2.77563V6.85946C3.19469 6.94833 3.15728 7.03356 3.09069 7.09641C3.0241 7.15925 2.93378 7.19456 2.83961 7.19456C2.74544 7.19456 2.65513 7.15925 2.58854 7.09641C2.52195 7.03356 2.48454 6.94833 2.48454 6.85946V2.77563C2.4852 2.15166 2.74806 1.5534 3.21548 1.1121C3.68289 0.670787 4.31669 0.422454 4.97785 0.421567H11.3461C11.6949 0.421504 12.0316 0.542295 12.2923 0.761021L14.8382 2.89693C14.9886 3.0231 15.109 3.17793 15.1915 3.35121C15.2739 3.52448 15.3165 3.71228 15.3165 3.90222V11.584C15.3165 11.6729 15.2791 11.7581 15.2125 11.8209C15.1459 11.8838 15.0556 11.9191 14.9614 11.9191Z" fill="#1F2937"/>
<path fill-rule="evenodd" clip-rule="evenodd" d="M4.97784 0.25L11.346 0.25C11.7394 0.249937 12.1191 0.38615 12.4131 0.632796L14.9589 2.76869C15.1286 2.91096 15.2644 3.08554 15.3573 3.28093C15.4503 3.47631 15.4983 3.68806 15.4983 3.90223V11.584C15.4983 11.7184 15.4417 11.8472 15.341 11.9423C15.2403 12.0373 15.1038 12.0907 14.9614 12.0907C14.819 12.0907 14.6825 12.0373 14.5818 11.9423C14.4811 11.8472 14.4245 11.7184 14.4245 11.584L14.4245 3.90209C14.4243 3.8313 14.4082 3.76111 14.3774 3.69657C14.3465 3.63197 14.3016 3.57424 14.2455 3.52715L11.6997 1.39157C11.6024 1.30951 11.4762 1.26366 11.3458 1.26333H4.978C4.5533 1.26401 4.14621 1.42358 3.84599 1.70708C3.54576 1.9906 3.37691 2.37491 3.37647 2.77575V6.85946C3.37647 6.99384 3.31991 7.12271 3.21923 7.21773C3.11854 7.31275 2.98199 7.36613 2.8396 7.36613C2.69722 7.36613 2.56066 7.31275 2.45998 7.21773C2.3593 7.12271 2.30273 6.99384 2.30273 6.85946V2.77563C2.30344 2.10623 2.58544 1.46425 3.08689 0.990806C3.58834 0.517366 4.26854 0.250952 4.97784 0.25ZM12.1715 0.889252C11.9441 0.698453 11.6504 0.593084 11.3461 0.59314H4.97797C4.36499 0.593995 3.7774 0.824243 3.34404 1.23339C2.91068 1.64255 2.66696 2.1972 2.66633 2.77571V6.85946C2.66633 6.90283 2.68458 6.94443 2.71708 6.97509C2.74957 7.00576 2.79365 7.02299 2.8396 7.02299C2.88556 7.02299 2.92963 7.00576 2.96213 6.97509C2.99462 6.94443 3.01288 6.90283 3.01288 6.85946V2.77563C3.01339 2.28392 3.22052 1.81231 3.58882 1.46452C3.95712 1.11673 4.45654 0.920977 4.97755 0.920195L11.3461 0.920195C11.5656 0.920666 11.7777 0.997189 11.9414 1.13523L14.4871 3.27067C14.5814 3.34986 14.657 3.44697 14.7089 3.55558C14.7607 3.66419 14.7877 3.7819 14.7881 3.90103L14.7881 11.584C14.7881 11.6274 14.8064 11.669 14.8389 11.6996C14.8714 11.7303 14.9154 11.7475 14.9614 11.7475C15.0073 11.7475 15.0514 11.7303 15.0839 11.6996C15.1164 11.669 15.1347 11.6274 15.1347 11.584V3.90223C15.1347 3.73652 15.0975 3.57265 15.0256 3.42148C14.9537 3.27032 14.8487 3.13525 14.7174 3.02518L12.1715 0.889252Z" fill="#1F2937"/>
</g>
<path id="Vector_3" d="M14.9432 4.05943H12.822C12.4443 4.05899 12.0823 3.9172 11.8152 3.66517C11.5482 3.41314 11.3979 3.07145 11.3975 2.71502V0.834121C11.3975 0.745247 11.4349 0.660014 11.5015 0.597171C11.568 0.534328 11.6584 0.499023 11.7525 0.499023C11.8467 0.499023 11.937 0.534328 12.0036 0.597171C12.0702 0.660014 12.1076 0.745247 12.1076 0.834121V2.71502C12.1078 2.89378 12.1831 3.06517 12.3171 3.19157C12.451 3.31797 12.6326 3.38906 12.822 3.38924H14.9432C15.0374 3.38924 15.1277 3.42454 15.1943 3.48739C15.2609 3.55023 15.2983 3.63546 15.2983 3.72434C15.2983 3.81321 15.2609 3.89844 15.1943 3.96129C15.1277 4.02413 15.0374 4.05943 14.9432 4.05943Z" fill="#1F2937"/>
<path id="Vector (Stroke)_2" fill-rule="evenodd" clip-rule="evenodd" d="M11.7527 0.670532C11.7067 0.670532 11.6627 0.687761 11.6302 0.718428C11.5977 0.749096 11.5794 0.790691 11.5794 0.83406V2.71485C11.5799 3.02581 11.7109 3.32391 11.9439 3.5438C12.1769 3.76366 12.4928 3.88737 12.8222 3.8878H14.9434C14.9893 3.8878 15.0334 3.87057 15.0659 3.83991C15.0984 3.80924 15.1166 3.76764 15.1166 3.72427C15.1166 3.6809 15.0984 3.63931 15.0659 3.60864C15.0334 3.57798 14.9893 3.56075 14.9434 3.56075H12.8222C12.5846 3.56052 12.3566 3.47136 12.1887 3.31283C12.0207 3.15429 11.9262 2.93933 11.926 2.71513L11.926 0.83406C11.926 0.790689 11.9077 0.749095 11.8752 0.718428C11.8427 0.687761 11.7986 0.670532 11.7527 0.670532ZM11.3731 0.475792C11.4737 0.380774 11.6103 0.327393 11.7527 0.327393C11.8951 0.327393 12.0316 0.380773 12.1323 0.475792C12.233 0.570811 12.2896 0.699684 12.2896 0.83406L12.2896 2.71479C12.2897 2.84811 12.3459 2.97592 12.4458 3.07019C12.5456 3.16442 12.681 3.21743 12.8222 3.21761M12.8222 3.21761H14.9434C15.0857 3.21761 15.2223 3.27099 15.323 3.36601C15.4237 3.46103 15.4802 3.5899 15.4802 3.72427C15.4802 3.85865 15.4237 3.98752 15.323 4.08254C15.2223 4.17756 15.0857 4.23094 14.9434 4.23094H12.8222C12.3964 4.23044 11.9879 4.07058 11.6868 3.78643C11.3857 3.50228 11.2164 3.11703 11.2158 2.71517L11.2158 0.83406C11.2158 0.699682 11.2724 0.57081 11.3731 0.475792" fill="#1F2937"/>
<g id="Group 427319045">
<path id="Vector_4" d="M7.94206 11.4378C7.66927 11.4378 7.65202 11.4346 7.62695 11.43C7.55207 11.4162 7.48439 11.3766 7.43568 11.3181C7.38697 11.2596 7.36031 11.1858 7.36035 11.1097V8.49251C7.36035 8.40618 7.39465 8.32338 7.45569 8.26233C7.51674 8.20129 7.59954 8.16699 7.68587 8.16699C7.77221 8.16699 7.855 8.20129 7.91605 8.26233C7.9771 8.32338 8.01139 8.40618 8.01139 8.49251V10.7865C8.16471 10.7865 8.35547 10.7865 8.53548 10.7842H8.53743C8.62377 10.7839 8.70667 10.818 8.7679 10.8788C8.82913 10.9397 8.86367 11.0224 8.86393 11.1087C8.86419 11.1951 8.83014 11.278 8.76928 11.3392C8.70842 11.4004 8.62572 11.435 8.53939 11.4352C8.26237 11.4372 8.07292 11.4378 7.94206 11.4378Z" fill="#1F2937"/>
<path id="Vector_5" d="M10.7597 11.4372C10.318 11.4372 9.88664 11.2524 9.60539 10.9421C9.57655 10.9105 9.55424 10.8734 9.53974 10.8332C9.52524 10.7929 9.51883 10.7501 9.52088 10.7073C9.52293 10.6646 9.5334 10.6226 9.55168 10.5839C9.56997 10.5452 9.59571 10.5105 9.62744 10.4817C9.65917 10.453 9.69626 10.4307 9.73659 10.4163C9.77691 10.4019 9.81968 10.3957 9.86245 10.3978C9.90521 10.4 9.94713 10.4105 9.9858 10.4289C10.0245 10.4473 10.0591 10.4732 10.0878 10.505C10.2476 10.6811 10.4986 10.7862 10.7597 10.7862C11.0136 10.7862 11.193 10.6342 11.219 10.4867C11.2541 10.2914 10.9911 10.1706 10.8743 10.1287C10.4683 9.97891 10.1077 9.81843 10.093 9.8116C10.0773 9.80463 10.0622 9.79646 10.0478 9.78718C9.91334 9.70032 9.80687 9.57648 9.74116 9.43055C9.67544 9.28463 9.65327 9.12282 9.67733 8.96459C9.72746 8.61563 9.98266 8.33113 10.3437 8.2224C11.0598 8.00724 11.6458 8.49226 11.6715 8.51309C11.7369 8.56867 11.7778 8.64787 11.7852 8.73344C11.7925 8.81902 11.7657 8.90402 11.7107 8.96994C11.6556 9.03586 11.5767 9.07736 11.4912 9.08538C11.4057 9.0934 11.3205 9.0673 11.2541 9.01277C11.2441 9.00496 10.9013 8.73412 10.5315 8.84578C10.3622 8.89688 10.3284 9.01049 10.3219 9.05737C10.3165 9.08926 10.3197 9.122 10.3312 9.15225C10.3426 9.1825 10.3619 9.20918 10.387 9.22957C10.4788 9.26961 10.7776 9.39916 11.1008 9.51798C11.7603 9.76147 11.926 10.2374 11.8609 10.602C11.7734 11.0857 11.3105 11.4372 10.7597 11.4372Z" fill="#1F2937"/>
<path id="Vector_6" d="M6.40846 11.4373C6.35626 11.4374 6.30482 11.4249 6.25848 11.4008C6.21213 11.3768 6.17225 11.342 6.14218 11.2993L4.29941 8.67954C4.27483 8.64455 4.25738 8.60506 4.24806 8.56333C4.23874 8.52159 4.23773 8.47843 4.24509 8.43631C4.25245 8.39419 4.26804 8.35393 4.29096 8.31783C4.31388 8.28173 4.34368 8.2505 4.37867 8.22592C4.41366 8.20134 4.45315 8.18389 4.49488 8.17458C4.53661 8.16526 4.57977 8.16425 4.6219 8.17161C4.66402 8.17897 4.70428 8.19455 4.74038 8.21747C4.77648 8.24039 4.80771 8.2702 4.83229 8.30519L6.67473 10.9247C6.70899 10.9734 6.72921 11.0306 6.7332 11.09C6.73719 11.1495 6.72479 11.2088 6.69737 11.2617C6.66994 11.3146 6.62853 11.3589 6.57764 11.3899C6.52676 11.4209 6.46835 11.4373 6.40878 11.4373H6.40846Z" fill="#1F2937"/>
<path id="Vector_7" d="M4.43345 11.4375C4.37386 11.4374 4.31543 11.421 4.26454 11.39C4.21365 11.359 4.17225 11.3146 4.14485 11.2617C4.11745 11.2087 4.1051 11.1493 4.10915 11.0899C4.1132 11.0304 4.1335 10.9732 4.16782 10.9245L6.0132 8.30503C6.06293 8.23445 6.13866 8.18652 6.22373 8.17177C6.30879 8.15703 6.39624 8.17669 6.46681 8.22641C6.53739 8.27614 6.58532 8.35187 6.60007 8.43694C6.61481 8.52201 6.59516 8.60945 6.54543 8.68003L4.70005 11.2995C4.66995 11.3422 4.63001 11.377 4.58361 11.4011C4.53721 11.4251 4.4857 11.4376 4.43345 11.4375Z" fill="#1F2937"/>
</g>
<g id="Vector_8">
<path d="M1.92456 14.8642C1.59496 14.8642 1.27886 14.7406 1.0458 14.5207C0.81274 14.3007 0.681808 14.0024 0.681808 13.6913C0.681808 13.3803 0.81274 13.082 1.0458 12.862C1.27886 12.6421 1.59496 12.5185 1.92456 12.5185H3.53729C3.63146 12.5185 3.72178 12.5538 3.78837 12.6166C3.85496 12.6795 3.89236 12.7647 3.89236 12.8536C3.89236 12.9425 3.85496 13.0277 3.78837 13.0905C3.72178 13.1534 3.63146 13.1887 3.53729 13.1887H1.92456C1.7833 13.1887 1.64783 13.2416 1.54795 13.3359C1.44806 13.4302 1.39195 13.558 1.39195 13.6913C1.39195 13.8246 1.44806 13.9525 1.54795 14.0468C1.64783 14.141 1.7833 14.194 1.92456 14.194H2.47137C2.56554 14.194 2.65585 14.2293 2.72244 14.2921C2.78903 14.355 2.82644 14.4402 2.82644 14.5291C2.82644 14.6179 2.78903 14.7032 2.72244 14.766C2.65585 14.8289 2.56554 14.8642 2.47137 14.8642H1.92456Z" fill="#1F2937"/>
<path fill-rule="evenodd" clip-rule="evenodd" d="M1.92455 12.6901C1.64316 12.6901 1.37331 12.7956 1.17434 12.9833C0.975372 13.1711 0.863593 13.4258 0.863593 13.6913C0.863593 13.9569 0.975372 14.2116 1.17434 14.3993C1.37331 14.5871 1.64316 14.6926 1.92455 14.6926H2.47136C2.51731 14.6926 2.56139 14.6754 2.59388 14.6447C2.62638 14.614 2.64463 14.5724 2.64463 14.5291C2.64463 14.4857 2.62638 14.4441 2.59388 14.4134C2.56139 14.3828 2.51731 14.3656 2.47136 14.3656H1.92455C1.73508 14.3656 1.55336 14.2945 1.41939 14.1681C1.28541 14.0416 1.21014 13.8701 1.21014 13.6913C1.21014 13.5125 1.28541 13.341 1.41939 13.2146C1.55336 13.0882 1.73508 13.0171 1.92455 13.0171H3.53728C3.58324 13.0171 3.62731 12.9999 3.65981 12.9692C3.6923 12.9386 3.71056 12.897 3.71056 12.8536C3.71056 12.8102 3.6923 12.7686 3.65981 12.738C3.62731 12.7073 3.58324 12.6901 3.53728 12.6901H1.92455ZM0.91724 12.7407C1.18439 12.4886 1.54673 12.3469 1.92455 12.3469H3.53728C3.67967 12.3469 3.81622 12.4003 3.91691 12.4953C4.01759 12.5903 4.07415 12.7192 4.07415 12.8536C4.07415 12.988 4.01759 13.1168 3.91691 13.2119C3.81622 13.3069 3.67967 13.3603 3.53728 13.3603H1.92455C1.83151 13.3603 1.74228 13.3951 1.67649 13.4572C1.6107 13.5193 1.57374 13.6035 1.57374 13.6913C1.57374 13.7791 1.6107 13.8634 1.67649 13.9254C1.74228 13.9875 1.83151 14.0224 1.92455 14.0224H2.47136C2.61374 14.0224 2.7503 14.0758 2.85098 14.1708C2.95166 14.2658 3.00823 14.3947 3.00823 14.5291C3.00823 14.6635 2.95166 14.7923 2.85098 14.8873C2.7503 14.9824 2.61374 15.0357 2.47136 15.0357H1.92455C1.54673 15.0357 1.18439 14.8941 0.91724 14.642C0.650086 14.3899 0.5 14.0479 0.5 13.6913C0.5 13.3348 0.650086 12.9928 0.91724 12.7407Z" fill="#1F2937"/>
</g>
<path id="Vector_9" d="M1.0416 13.9299C0.947424 13.9299 0.85711 13.8946 0.790521 13.8318C0.723933 13.7689 0.686523 13.6837 0.686523 13.5948L0.701792 7.6971C0.702356 7.38639 0.833537 7.08859 1.06654 6.86908C1.29954 6.64956 1.61531 6.52627 1.94454 6.52627L14.9625 6.52393C15.0567 6.52393 15.147 6.55923 15.2136 6.62207C15.2802 6.68492 15.3176 6.77015 15.3176 6.85902V12.8536C15.3176 12.9425 15.2802 13.0277 15.2136 13.0905C15.147 13.1534 15.0567 13.1887 14.9625 13.1887H2.2989C2.20473 13.1887 2.11442 13.1534 2.04783 13.0905C1.98124 13.0277 1.94383 12.9425 1.94383 12.8536C1.94383 12.7647 1.98124 12.6795 2.04783 12.6166C2.11442 12.5538 2.20473 12.5185 2.2989 12.5185H14.6067V7.19211L1.94348 7.19446C1.80222 7.19446 1.66675 7.24741 1.56687 7.34168C1.46698 7.43594 1.41087 7.56379 1.41087 7.6971L1.3956 13.5948C1.3956 13.6835 1.35834 13.7686 1.29198 13.8314C1.22562 13.8942 1.13558 13.9296 1.0416 13.9299Z" fill="#1F2937" stroke="#1F2937" stroke-width="0.4"/>
</g>
</svg>
