<svg width="24" height="24" viewBox="0 0 24 24" fill="none" xmlns="http://www.w3.org/2000/svg">
<g clip-path="url(#clip0_1682_1777)">
<path d="M12 24C18.6274 24 24 18.6274 24 12C24 5.37258 18.6274 0 12 0C5.37258 0 0 5.37258 0 12C0 18.6274 5.37258 24 12 24Z" fill="#F0F0F0"/>
<path d="M20.3972 3.42862C18.2329 1.308 15.2695 0 12.0001 0C10.9566 0 7.90352 1.308 5.73926 3.42862H20.3972Z" fill="#6DA544"/>
<path d="M12.0002 10.2855H23.8778C23.7046 9.07497 23.3511 7.92278 22.8448 6.85693H11.4785L12.0002 10.2855Z" fill="#6DA544"/>
<path d="M1.15564 17.143H22.8446C23.3509 16.0772 23.7045 14.9249 23.8777 13.7144H0.122559C0.295762 14.9249 0.649246 16.0772 1.15564 17.143Z" fill="#6DA544"/>
<path d="M3.60303 20.5713C5.76739 22.6919 8.73073 23.9999 12.0001 23.9999C15.2695 23.9999 18.2329 22.6919 20.3972 20.5713H3.60303Z" fill="#6DA544"/>
<path d="M12.0001 0C5.95484 0 0.954496 4.47052 0.122559 10.2857H12.0001V0Z" fill="#D80027"/>
<path d="M6.00023 9.19977L5.47852 8.15633V6.06936L6.78286 5.02588L8.0872 6.06936V7.63457L8.60892 7.11285V8.15633L7.56544 9.19977H6.00023Z" fill="#F0F0F0"/>
<path d="M3.19403 6L3.33217 6.42516H3.77917L3.41753 6.68798L3.55571 7.11309L3.19403 6.85031L2.83234 7.11309L2.97053 6.68798L2.60889 6.42516H3.05589L3.19403 6Z" fill="#F0F0F0"/>
<path d="M4.23748 4.95654L4.37563 5.3817H4.82267L4.46098 5.64453L4.59912 6.06964L4.23748 5.8069L3.87584 6.06964L4.01403 5.64453L3.65234 5.3817H4.0993L4.23748 4.95654Z" fill="#F0F0F0"/>
<path d="M5.28094 3.9126L5.41908 4.33775H5.86603L5.50444 4.60058L5.64254 5.02569L5.28094 4.76296L4.91925 5.02569L5.05739 4.60058L4.6958 4.33775H5.14275L5.28094 3.9126Z" fill="#F0F0F0"/>
<path d="M10.3717 6L10.2336 6.42516H9.78662L10.1482 6.68798L10.0101 7.11309L10.3717 6.85031L10.7334 7.11309L10.5953 6.68798L10.9569 6.42516H10.5099L10.3717 6Z" fill="#F0F0F0"/>
<path d="M9.32826 4.95654L9.19012 5.3817H8.74316L9.10476 5.64453L8.96662 6.06964L9.32826 5.8069L9.68995 6.06964L9.55176 5.64453L9.9134 5.3817H9.46644L9.32826 4.95654Z" fill="#F0F0F0"/>
<path d="M8.28485 3.9126L8.14666 4.33775H7.69971L8.0613 4.60058L7.92316 5.02569L8.28485 4.76296L8.64649 5.02569L8.50835 4.60058L8.86994 4.33775H8.42299L8.28485 3.9126Z" fill="#F0F0F0"/>
<path d="M6.78289 3.39111L6.64471 3.81627H6.19775L6.55935 4.07905L6.42121 4.50416L6.78289 4.24143L7.14454 4.50416L7.00639 4.07905L7.36799 3.81627H6.92104L6.78289 3.39111Z" fill="#F0F0F0"/>
</g>
<defs>
<clipPath id="clip0_1682_1777">
<rect width="24" height="24" fill="white"/>
</clipPath>
</defs>
</svg>
