<svg width="24" height="24" viewBox="0 0 24 24" fill="none" xmlns="http://www.w3.org/2000/svg">
<g clip-path="url(#clip0_1682_1625)">
<path d="M12 24C18.6274 24 24 18.6274 24 12C24 5.37258 18.6274 0 12 0C5.37258 0 0 5.37258 0 12C0 18.6274 5.37258 24 12 24Z" fill="#D80027"/>
<path d="M18.7825 8.90651H14.436C14.7043 8.62554 14.8694 8.24515 14.8694 7.82595C14.8694 6.96152 14.1686 6.26074 13.3042 6.26074C12.7596 6.26074 12.2802 6.53899 11.9999 6.96091C11.7195 6.53899 11.2401 6.26074 10.6955 6.26074C9.8311 6.26074 9.13032 6.96152 9.13032 7.82595C9.13032 8.24515 9.29546 8.62559 9.56377 8.90651H5.21729C5.21729 10.0591 6.22121 10.9934 7.37372 10.9934H7.30416C7.30416 12.1461 8.23852 13.0804 9.39118 13.0804C9.39118 13.4538 9.48957 13.8037 9.66132 14.1067L7.93022 15.8379L9.25838 17.1659L11.1424 15.282C11.2162 15.309 11.2925 15.3307 11.3714 15.3455L10.2329 17.9159L11.9999 19.8259L13.7668 17.9158L12.6284 15.3454C12.7073 15.3306 12.7836 15.309 12.8573 15.2819L14.7413 17.1658L16.0695 15.8377L14.3384 14.1066C14.5102 13.8036 14.6086 13.4536 14.6086 13.0803C15.7612 13.0803 16.6955 12.146 16.6955 10.9933H16.626C17.7785 10.9934 18.7825 10.0591 18.7825 8.90651Z" fill="black"/>
</g>
<defs>
<clipPath id="clip0_1682_1625">
<rect width="24" height="24" fill="white"/>
</clipPath>
</defs>
</svg>
