<svg width="24" height="24" viewBox="0 0 24 24" fill="none" xmlns="http://www.w3.org/2000/svg">
<g clip-path="url(#clip0_1682_2106)">
<path d="M12 24C18.6274 24 24 18.6274 24 12C24 5.37258 18.6274 0 12 0C5.37258 0 0 5.37258 0 12C0 18.6274 5.37258 24 12 24Z" fill="#F0F0F0"/>
<path d="M12.0002 0C7.24267 0 3.13192 2.76867 1.19092 6.78263H22.8094C20.8685 2.76867 16.7577 0 12.0002 0Z" fill="#338AF3"/>
<path d="M12.0002 23.9999C16.7577 23.9999 20.8685 21.2312 22.8095 17.2173H1.19092C3.13192 21.2312 7.24267 23.9999 12.0002 23.9999Z" fill="#338AF3"/>
<path d="M15.5869 11.9998L14.1213 12.6892L14.9017 14.1085L13.3103 13.804L13.1087 15.4117L12.0002 14.2293L10.8917 15.4117L10.6901 13.804L9.0987 14.1085L9.87907 12.6891L8.41357 11.9998L9.87912 11.3104L9.0987 9.89111L10.6901 10.1955L10.8918 8.58789L12.0002 9.77027L13.1087 8.58789L13.3103 10.1955L14.9018 9.89111L14.1214 11.3104L15.5869 11.9998Z" fill="#FFDA44"/>
</g>
<defs>
<clipPath id="clip0_1682_2106">
<rect width="24" height="24" fill="white"/>
</clipPath>
</defs>
</svg>
