<svg width="24" height="24" viewBox="0 0 24 24" fill="none" xmlns="http://www.w3.org/2000/svg">
<g clip-path="url(#clip0_1682_1794)">
<path d="M12 24C18.6274 24 24 18.6274 24 12C24 5.37258 18.6274 0 12 0C5.37258 0 0 5.37258 0 12C0 18.6274 5.37258 24 12 24Z" fill="#FFDA44"/>
<path d="M11.9999 24.0001C15.637 24.0001 18.8959 22.3818 21.0965 19.8262H2.90332C5.10396 22.3818 8.36285 24.0001 11.9999 24.0001Z" fill="#338AF3"/>
<path d="M24 12C24 5.37262 18.6274 0 12 0C5.37262 0 0 5.37262 0 12C0 13.0831 0.144375 14.1323 0.413391 15.1305H23.5867C23.8556 14.1323 24 13.0831 24 12Z" fill="#338AF3"/>
<path d="M0.953857 16.6958C1.18519 17.2394 1.45561 17.7621 1.76128 18.261H22.2387C22.5444 17.7621 22.8148 17.2393 23.0462 16.6958H0.953857Z" fill="#338AF3"/>
<path d="M5.49929 7.56868L3.15479 6.53396L5.49929 5.49924L6.53396 3.15479L7.56863 5.49924L9.91308 6.53396L7.56863 7.56868L6.53396 9.91313L5.49929 7.56868Z" fill="#F0F0F0"/>
<path d="M6.53399 4.44678L7.17294 5.8947L8.62091 6.53375L7.17294 7.17275L6.53399 8.62067L5.89494 7.17275L4.44702 6.53375L5.89494 5.8947L6.53399 4.44678Z" fill="#D80027"/>
</g>
<defs>
<clipPath id="clip0_1682_1794">
<rect width="24" height="24" fill="white"/>
</clipPath>
</defs>
</svg>
