<svg width="24" height="24" viewBox="0 0 24 24" fill="none" xmlns="http://www.w3.org/2000/svg">
<g clip-path="url(#clip0_1682_875)">
<path d="M12 24C18.6274 24 24 18.6274 24 12C24 5.37258 18.6274 0 12 0C5.37258 0 0 5.37258 0 12C0 18.6274 5.37258 24 12 24Z" fill="#F0F0F0"/>
<path d="M0 11.9999C0 16.5484 2.53078 20.5056 6.26086 22.5408V1.45898C2.53078 3.4942 0 7.45139 0 11.9999Z" fill="#D80027"/>
<path d="M0 12.0002C0 17.5445 3.76036 22.2098 8.86955 23.5868V0.413574C3.76036 1.79057 0 6.45585 0 12.0002Z" fill="#0052B4"/>
<path d="M4.3042 4.17383V6.13034C4.3042 7.10286 5.09254 7.8912 6.06506 7.8912C7.03757 7.8912 7.82592 7.10286 7.82592 6.13034V4.17383H4.3042Z" fill="#D80027"/>
<path d="M6.06503 6.84769C5.66945 6.84769 5.34766 6.52589 5.34766 6.13032V5.21729H6.78245V6.13032C6.78245 6.52589 6.46061 6.84769 6.06503 6.84769Z" fill="#F0F0F0"/>
<path d="M13.0432 12.5215H9.91273C9.91273 11.9452 9.44553 11.478 8.86925 11.478C8.29297 11.478 7.82577 11.9452 7.82577 12.5215H4.69531C4.69531 13.0978 5.1973 13.565 5.77353 13.565H5.7388C5.7388 14.1413 6.20591 14.6085 6.78228 14.6085C6.78228 15.1848 7.24939 15.652 7.82577 15.652H9.91273C10.489 15.652 10.9562 15.1848 10.9562 14.6085C11.5325 14.6085 11.9997 14.1413 11.9997 13.565H11.965C12.5412 13.565 13.0432 13.0978 13.0432 12.5215Z" fill="#FFDA44"/>
<path d="M13.4721 10.8518L13.1981 11.2904L13.5304 11.6864L13.0287 11.5615L12.7547 11.9999L12.7185 11.4841L12.2168 11.359L12.6964 11.1653L12.6603 10.6494L12.9927 11.0456L13.4721 10.8518Z" fill="#FFDA44"/>
<path d="M11.8737 9.51074L11.7663 10.0166L12.2141 10.2751L11.6998 10.3294L11.5923 10.8351L11.3819 10.3626L10.8677 10.4166L11.252 10.0706L11.0417 9.5983L11.4895 9.85682L11.8737 9.51074Z" fill="#FFDA44"/>
<path d="M9.91266 8.79688L9.98461 9.30898L10.4938 9.39875L10.0291 9.62544L10.1011 10.1375L9.74189 9.76555L9.27708 9.99223L9.51985 9.53562L9.16064 9.16372L9.66994 9.25344L9.91266 8.79688Z" fill="#FFDA44"/>
<path d="M7.82627 8.79688L8.06909 9.25344L8.57829 9.16367L8.21909 9.53572L8.46185 9.99228L7.99713 9.76555L7.63788 10.1375L7.70988 9.62544L7.24512 9.3988L7.75432 9.30898L7.82627 8.79688Z" fill="#FFDA44"/>
<path d="M5.86517 9.51074L6.24945 9.85682L6.6972 9.5983L6.48701 10.0708L6.87115 10.4167L6.35698 10.3626L6.14656 10.8351L6.03921 10.3293L5.5249 10.2753L5.97265 10.0166L5.86517 9.51074Z" fill="#FFDA44"/>
<path d="M4.26676 10.8518L4.74634 11.0456L5.07854 10.6494L5.04264 11.1654L5.52203 11.3591L5.02023 11.4841L4.98404 11.9999L4.71025 11.5615L4.2085 11.6865L4.54089 11.2904L4.26676 10.8518Z" fill="#FFDA44"/>
</g>
<defs>
<clipPath id="clip0_1682_875">
<rect width="24" height="24" fill="white"/>
</clipPath>
</defs>
</svg>
