<svg width="24" height="24" viewBox="0 0 24 24" fill="none" xmlns="http://www.w3.org/2000/svg">
<g clip-path="url(#clip0_1682_1685)">
<path d="M17.2175 1.19072C15.6399 0.427875 13.87 0 12.0001 0C10.1303 0 8.36037 0.427875 6.78274 1.19072L5.73926 12L6.78274 22.8093C8.36037 23.5721 10.1303 24 12.0001 24C13.87 24 15.6399 23.5721 17.2175 22.8093L18.261 12L17.2175 1.19072Z" fill="#FFDA44"/>
<path d="M6.78263 1.19092C2.76872 3.13182 0 7.24225 0 11.9998C0 16.7573 2.76872 20.8677 6.78263 22.8086V1.19092Z" fill="#0052B4"/>
<path d="M17.2173 1.19092V22.8086C21.2312 20.8677 23.9999 16.7573 23.9999 11.9998C23.9999 7.24229 21.2312 3.13182 17.2173 1.19092Z" fill="#0052B4"/>
<path d="M15.6523 7.30423L16.3523 7.6542L15.6523 7.30423L14.9522 6.95426C14.9101 7.03868 13.996 8.89835 13.8467 11.739H12.7827V7.30423L12.0001 6.26074L11.2175 7.30423V11.739H10.1535C10.0041 8.89835 9.09015 7.03868 9.04792 6.95426L7.64795 7.65424C7.65761 7.67346 8.60884 9.60963 8.60884 12.5216V13.3043H11.2175V17.7391H12.7827V13.3043H15.3914V12.5216C15.3914 11.0161 15.6519 9.77463 15.8705 8.99829C16.1087 8.15173 16.3508 7.65734 16.3532 7.65241L15.6523 7.30423Z" fill="black"/>
</g>
<defs>
<clipPath id="clip0_1682_1685">
<rect width="24" height="24" fill="white"/>
</clipPath>
</defs>
</svg>
