<svg width="24" height="24" viewBox="0 0 24 24" fill="none" xmlns="http://www.w3.org/2000/svg">
<g clip-path="url(#clip0_1682_1592)">
<path d="M12 24C18.6274 24 24 18.6274 24 12C24 5.37258 18.6274 0 12 0C5.37258 0 0 5.37258 0 12C0 18.6274 5.37258 24 12 24Z" fill="#F0F0F0"/>
<path d="M0.101562 13.5654C0.38075 15.7082 1.22553 17.673 2.4807 19.3059L8.86948 13.5654H0.101562Z" fill="#D80027"/>
<path d="M10.4348 23.8983V15.1304L4.69434 21.5192C6.32732 22.7744 8.29204 23.6192 10.4348 23.8983Z" fill="#D80027"/>
<path d="M10.4348 0.101562C8.29204 0.38075 6.32732 1.22553 4.69434 2.4807L10.4348 8.86958V0.101562Z" fill="#D80027"/>
<path d="M0.101562 10.4348H8.86948L2.48066 4.69434C1.22548 6.32727 0.380703 8.29204 0.101562 10.4348Z" fill="#D80027"/>
<path d="M13.5652 0.101562V8.86953L19.3058 2.4807C17.6728 1.22563 15.708 0.380703 13.5652 0.101562Z" fill="#D80027"/>
<path d="M23.8983 10.4349C23.6192 8.29209 22.7744 6.32732 21.5192 4.69434L15.1304 10.4349H23.8983Z" fill="#D80027"/>
<path d="M15.1304 13.5654L21.5192 19.306C22.7744 17.673 23.6192 15.7082 23.8984 13.5654H15.1304Z" fill="#D80027"/>
<path d="M13.5652 23.8983C15.708 23.6192 17.6728 22.7744 19.3057 21.5192L13.5652 15.1304V23.8983Z" fill="#D80027"/>
<path d="M21.5202 19.3069L14.2136 12.0002L14.2135 12.0002L21.5202 4.69351C21.2051 4.28401 20.8604 3.89007 20.4853 3.51489C20.1102 3.13979 19.7162 2.79503 19.3066 2.47998L12 9.78662H12L4.69331 2.47998C4.28381 2.79507 3.88983 3.13975 3.51464 3.51489C3.13955 3.89007 2.79478 4.28401 2.47974 4.69356L9.78638 12.0002L9.78642 12.0002L2.47978 19.3069C2.79488 19.7163 3.1396 20.1103 3.51469 20.4855C3.88983 20.8606 4.28381 21.2054 4.69336 21.5204L12 14.2138L19.3066 21.5204C19.7161 21.2053 20.1101 20.8606 20.4853 20.4855C20.8604 20.1103 21.2051 19.7163 21.5202 19.3069Z" fill="#496E2D"/>
<path d="M13.5652 23.8984V13.5653V13.5653H23.8984C23.9652 13.0529 24 12.5305 24 12C24 11.4696 23.9652 10.9472 23.8984 10.4348H13.5653L13.5653 10.4348V0.101625C13.0529 0.0349219 12.5306 0 12 0C11.4695 4.6875e-05 10.9471 0.0349219 10.4348 0.101625L10.4348 10.4347V10.4348H0.101625C0.034875 10.9471 0 11.4695 0 12C4.6875e-05 12.5306 0.034875 13.0529 0.101625 13.5652H10.4347L10.4348 23.8984C10.9472 23.9651 11.4694 24 12 24C12.5306 24 13.0529 23.9651 13.5652 23.8984Z" fill="#F0F0F0"/>
</g>
<defs>
<clipPath id="clip0_1682_1592">
<rect width="24" height="24" fill="white"/>
</clipPath>
</defs>
</svg>
