<svg width="24" height="24" viewBox="0 0 24 24" fill="none" xmlns="http://www.w3.org/2000/svg">
<g clip-path="url(#clip0_1682_1830)">
<path d="M3.51471 20.4853C-1.17157 15.799 -1.17157 8.20106 3.51471 3.51473C8.20099 -1.1716 15.799 -1.17155 20.4853 3.51473C20.4853 3.51637 23.6713 14.2987 18.985 18.985C14.2988 23.6714 3.51799 20.4886 3.51471 20.4853Z" fill="#FFDA44"/>
<path d="M3.51465 20.4852C8.20093 25.1715 15.7989 25.1715 20.4853 20.4852C25.1716 15.7989 25.1716 8.20098 20.4853 3.51465L3.51465 20.4852Z" fill="#FF9811"/>
<path d="M18.7882 6.78277V4.6958H14.788L14.4824 5.00138C13.3954 6.08836 13.5783 7.35643 13.7118 8.2823C13.8356 9.14119 13.8504 9.47021 13.531 9.78966C13.2116 10.109 12.8825 10.0942 12.0237 9.97032C11.0978 9.83686 9.82983 9.654 8.74285 10.7409C7.65591 11.8279 7.83886 13.0958 7.97246 14.0217C8.09635 14.8805 8.11125 15.2095 7.79194 15.5288C7.47258 15.848 7.14347 15.8332 6.28486 15.7093C5.95008 15.6609 5.60391 15.6111 5.23435 15.6069L5.21143 17.6938C5.44271 17.6964 5.70704 17.7345 5.98688 17.7749C6.31819 17.8227 6.69319 17.8768 7.08816 17.8768C7.49747 17.8768 7.92807 17.8185 8.35332 17.6348V19.3046H11.4838V17.7394H9.91857V16.6959H10.9621V15.1307H10.1281C10.1676 14.6243 10.0981 14.1395 10.0381 13.7238C9.91416 12.865 9.89925 12.536 10.2186 12.2168C10.538 11.8973 10.8669 11.9122 11.7259 12.036C12.4006 12.1333 13.2569 12.2562 14.0925 11.8954V13.5654H17.223V12.0002H15.6578V10.9568H16.7012V9.39155H15.8673C15.9069 8.88516 15.8374 8.40033 15.7774 7.9845C15.6909 7.38446 15.6575 7.04302 15.7543 6.78282H18.7882V6.78277Z" fill="#F0F0F0"/>
</g>
<defs>
<clipPath id="clip0_1682_1830">
<rect width="24" height="24" fill="white"/>
</clipPath>
</defs>
</svg>
