<svg width="24" height="24" viewBox="0 0 24 24" fill="none" xmlns="http://www.w3.org/2000/svg">
<g clip-path="url(#clip0_1682_1488)">
<path d="M24 11.9999C24 10.532 23.736 9.1259 23.2536 7.82596L12 7.3042L0.746391 7.82592C0.264 9.1259 0 10.532 0 11.9999C0 13.4677 0.264 14.8738 0.746391 16.1737L12 16.6955L23.2536 16.1738C23.736 14.8738 24 13.4677 24 11.9999Z" fill="#FFDA44"/>
<path d="M12.0002 23.9999C17.1598 23.9999 21.5583 20.7434 23.2538 16.1738H0.746582C2.4421 20.7434 6.84061 23.9999 12.0002 23.9999Z" fill="#6DA544"/>
<path d="M0.746582 7.82611H23.2538C21.5583 3.2565 17.1598 0 12.0002 0C6.84061 0 2.4421 3.2565 0.746582 7.82611Z" fill="#D80027"/>
</g>
<defs>
<clipPath id="clip0_1682_1488">
<rect width="24" height="24" fill="white"/>
</clipPath>
</defs>
</svg>
