<svg width="24" height="24" viewBox="0 0 24 24" fill="none" xmlns="http://www.w3.org/2000/svg">
<g clip-path="url(#clip0_1682_1552)">
<path d="M0 12C0 5.37262 5.37262 0 12 0C18.6274 0 24 5.37262 24 12H0Z" fill="#F0F0F0"/>
<path d="M8.86964 11.3438L8.21362 11.9998H8.86964V11.3438Z" fill="#0052B4"/>
<path d="M15.1304 11.3438V11.9997H15.7863L15.1304 11.3438Z" fill="#0052B4"/>
<path d="M0.346219 9.13037C0.120516 10.0499 0 11.0108 0 11.9999H3.78642L6.65592 9.13037H0.346219Z" fill="#0052B4"/>
<path d="M17.344 9.13037L20.2135 11.9999H24C24 11.0108 23.8794 10.0499 23.6538 9.13037H17.344Z" fill="#0052B4"/>
<path d="M16.6063 9.13037H15.1306L18.0001 11.9999H19.4758L16.6063 9.13037Z" fill="#D80027"/>
<path d="M8.86959 10.6059V9.13037H8.8695L6 11.9999H7.47572L8.86959 10.6059Z" fill="#D80027"/>
<path d="M5.62134 1.83496C5.12671 2.14602 4.65641 2.49205 4.21387 2.86973H6.65605L5.62134 1.83496Z" fill="#0052B4"/>
<path d="M19.7861 2.86973C19.3435 2.49201 18.8733 2.14598 18.3787 1.83496L17.344 2.86973H19.7861Z" fill="#0052B4"/>
<path d="M13.5651 7.5652H23.1534C22.6997 6.42525 22.0762 5.37159 21.3144 4.43475H13.5652H13.5651V0.101578C13.0528 0.034875 12.5304 0 11.9999 0C11.4693 0 10.9471 0.034875 10.4347 0.101578V4.4347V4.43475H2.68548C1.92362 5.37159 1.30009 6.42525 0.846436 7.5652H10.4346H10.4347V12H13.5651V7.56525V7.5652Z" fill="#D80027"/>
<path d="M8.86944 2.86964V2.86959L7.06039 1.06055C6.72593 1.21181 6.39997 1.37845 6.08276 1.55859L7.39381 2.86964H8.86944Z" fill="#D80027"/>
<path d="M15.1304 2.86945L16.9395 1.0604C16.5954 0.904824 16.2425 0.765324 15.8821 0.64209L15.1304 1.39382V2.86945Z" fill="#D80027"/>
<path d="M24 12C24 18.6274 18.6274 24 12 24C5.37262 24 0 18.6274 0 12H24Z" fill="#F0F0F0"/>
<path d="M21.9999 13.5306C20.9999 13.5306 20.9999 12.6162 19.9998 12.6162C18.9999 12.6162 18.9999 13.5306 17.9999 13.5306C17 13.5306 16.9999 12.6162 16 12.6162C15 12.6162 15 13.5306 14 13.5306C13 13.5306 12.9999 12.6162 11.9998 12.6162C10.9998 12.6162 10.9998 13.5306 9.99991 13.5306C9.00006 13.5306 9.00006 12.6162 8.00008 12.6162C7 12.6162 7 13.5306 5.99992 13.5306C4.99984 13.5306 4.99984 12.6162 3.99977 12.6162C2.99992 12.6162 2.99992 13.5306 1.99994 13.5306C1.00534 13.5306 0.999578 12.6263 0.015625 12.6166C0.0433281 13.1655 0.108859 13.7044 0.207953 14.2314C1.00502 14.3485 1.07481 15.1305 1.99998 15.1305C2.99997 15.1305 2.99997 14.2163 3.99981 14.2163C4.99989 14.2163 4.99989 15.1305 5.99997 15.1305C7.00005 15.1305 7.00005 14.2163 8.00013 14.2163C9.00011 14.2163 9.00011 15.1305 9.99995 15.1305C10.9999 15.1305 10.9999 14.2163 11.9999 14.2163C13 14.2163 13 15.1305 14 15.1305C15.0001 15.1305 15.0001 14.2163 16 14.2163C17 14.2163 17 15.1305 18 15.1305C18.9999 15.1305 19 14.2163 19.9999 14.2163C21 14.2163 21 15.1305 21.9999 15.1305C22.9252 15.1305 22.995 14.3486 23.7921 14.2314C23.8912 13.7044 23.9567 13.1656 23.9845 12.6167C23.0004 12.6264 22.9945 13.5306 21.9999 13.5306Z" fill="#0052B4"/>
<path d="M19.9998 15.7466C18.9998 15.7466 18.9998 16.6609 17.9998 16.6609C16.9999 16.6609 16.9999 15.7466 15.9999 15.7466C14.9999 15.7466 14.9999 16.6609 13.9999 16.6609C12.9998 16.6609 12.9998 15.7466 11.9998 15.7466C10.9998 15.7466 10.9998 16.6609 9.99983 16.6609C8.99998 16.6609 8.99998 15.7466 8 15.7466C6.99992 15.7466 6.99992 16.6609 5.99984 16.6609C4.99977 16.6609 4.99977 15.7466 3.99969 15.7466C2.99984 15.7466 2.99984 16.6609 1.99986 16.6609C1.28534 16.6609 1.08125 16.1942 0.658203 15.9276C0.939828 16.7413 1.3062 17.5154 1.74744 18.2389C1.82417 18.2531 1.9077 18.2609 1.99986 18.2609C2.99984 18.2609 2.99984 17.3467 3.99969 17.3467C4.99977 17.3467 4.99977 18.2609 5.99984 18.2609C6.99992 18.2609 6.99992 17.3467 8 17.3467C8.99998 17.3467 8.99998 18.2609 9.99983 18.2609C10.9998 18.2609 10.9998 17.3467 11.9998 17.3467C12.9998 17.3467 12.9998 18.2609 13.9999 18.2609C15 18.2609 15 17.3467 15.9999 17.3467C16.9999 17.3467 16.9999 18.2609 17.9998 18.2609C18.9998 18.2609 18.9998 17.3467 19.9998 17.3467C20.9998 17.3467 20.9998 18.2609 21.9998 18.2609C22.092 18.2609 22.1756 18.2531 22.2523 18.2389C22.6935 17.5154 23.0599 16.7413 23.3416 15.9277C22.9185 16.1941 22.7144 16.6609 21.9998 16.6609C20.9998 16.6609 20.9998 15.7466 19.9998 15.7466Z" fill="#0052B4"/>
<path d="M23.9937 11.623C23.9947 11.6564 23.9959 11.6897 23.9966 11.7232C23.9959 11.6898 23.9946 11.6564 23.9937 11.623Z" fill="#F0F0F0"/>
<path d="M0.00341797 11.7232C0.00421484 11.6898 0.00533984 11.6564 0.00637109 11.623C0.00538672 11.6564 0.00416797 11.6898 0.00341797 11.7232Z" fill="#F0F0F0"/>
<path d="M0 12.0001C0 11.9075 0.00140625 11.8153 0.00351563 11.7231C0.00135938 11.8153 0 11.9075 0 12.0001Z" fill="#F0F0F0"/>
<path d="M0 12C0 12.2186 0.0061875 12.4358 0.0178594 12.6514C0.999563 12.6624 1.00608 13.5652 1.99997 13.5652C2.99995 13.5652 2.99995 12.651 3.9998 12.651C4.99988 12.651 4.99988 13.5652 5.99995 13.5652C7.00003 13.5652 7.00003 12.651 8.00011 12.651C9.00009 12.651 9.00009 13.5652 9.99994 13.5652C10.9999 13.5652 10.9999 12.651 11.9999 12.651C12.9999 12.651 12.9999 13.5652 14 13.5652C15.0001 13.5652 15.0001 12.651 16 12.651C17 12.651 17 13.5652 18 13.5652C18.9999 13.5652 18.9999 12.651 19.9999 12.651C21 12.651 21 13.5652 21.9999 13.5652C22.9939 13.5652 23.0004 12.6624 23.9823 12.6514C23.9938 12.4357 24 12.2186 24 12H0Z" fill="#F0F0F0"/>
<path d="M23.9966 11.7231C23.9987 11.8152 24.0001 11.9075 24.0001 12.0001C24.0001 11.9075 23.9987 11.8153 23.9966 11.7231Z" fill="#F0F0F0"/>
<path d="M19.9998 18.877C18.9998 18.877 18.9998 19.7913 17.9998 19.7913C16.9999 19.7913 16.9999 18.877 15.9999 18.877C14.9999 18.877 14.9999 19.7913 13.9999 19.7913C12.9998 19.7913 12.9998 18.877 11.9998 18.877C10.9998 18.877 10.9998 19.7913 9.99983 19.7913C8.99999 19.7913 8.99999 18.877 8 18.877C6.99993 18.877 6.99993 19.7913 5.99985 19.7913C4.99977 19.7913 4.99977 18.877 3.99969 18.877C3.30904 18.877 3.09533 19.3131 2.69971 19.5829C3.74919 20.8685 5.06029 21.9318 6.55114 22.6932L11.9999 22.4187L17.4487 22.6931C18.9395 21.9317 20.2506 20.8686 21.3001 19.583C20.9043 19.3132 20.6906 18.877 19.9998 18.877Z" fill="#0052B4"/>
<path d="M18.6555 19.1631L15.0051 19.8613L14.5427 16.1739L12.0001 18.8858L9.45759 16.1738L8.99493 19.8613L5.34473 19.163L7.13484 22.4186L6.55021 22.6936C8.18559 23.5288 10.0378 23.9999 12.0001 23.9999C13.9624 23.9999 15.8146 23.5288 17.45 22.6937L16.8656 22.4188L18.6555 19.1631Z" fill="#FFDA44"/>
</g>
<defs>
<clipPath id="clip0_1682_1552">
<rect width="24" height="24" fill="white"/>
</clipPath>
</defs>
</svg>
