<svg width="24" height="24" viewBox="0 0 24 24" fill="none" xmlns="http://www.w3.org/2000/svg">
<g clip-path="url(#clip0_1682_1834)">
<path d="M12 24C18.6274 24 24 18.6274 24 12C24 5.37258 18.6274 0 12 0C5.37258 0 0 5.37258 0 12C0 18.6274 5.37258 24 12 24Z" fill="#F0F0F0"/>
<path d="M21.9999 13.4363C20.9999 13.4363 20.9999 12.522 19.9998 12.522C18.9999 12.522 18.9999 13.4363 17.9999 13.4363C17 13.4363 16.9999 12.522 16 12.522C15 12.522 15 13.4363 14 13.4363C13 13.4363 12.9999 12.522 11.9998 12.522C10.9998 12.522 10.9998 13.4363 9.99991 13.4363C9.00006 13.4363 9.00006 12.522 8.00008 12.522C7 12.522 7 13.4363 5.99992 13.4363C4.99984 13.4363 4.99984 12.522 3.99977 12.522C2.99992 12.522 2.99992 13.4363 1.99994 13.4363C1.00534 13.4363 0.999578 12.5321 0.015625 12.5224C0.0433281 13.0713 0.108859 13.6102 0.207953 14.1372C1.00502 14.2542 1.07481 15.0363 2.00003 15.0363C3.00002 15.0363 3.00002 14.122 3.99986 14.122C4.99994 14.122 4.99994 15.0363 6.00002 15.0363C7.00009 15.0363 7.00009 14.122 8.00017 14.122C9.00016 14.122 9.00016 15.0363 10 15.0363C11 15.0363 11 14.122 11.9999 14.122C13 14.122 13 15.0363 14.0001 15.0363C15.0002 15.0363 15.0002 14.122 16.0001 14.122C17.0001 14.122 17.0001 15.0363 18 15.0363C19 15.0363 19 14.122 19.9999 14.122C21 14.122 21 15.0363 22 15.0363C22.9252 15.0363 22.995 14.2543 23.7921 14.1372C23.8913 13.6101 23.9567 13.0713 23.9845 12.5224C23.0004 12.5321 22.9945 13.4363 21.9999 13.4363Z" fill="#0052B4"/>
<path d="M19.9998 15.6523C18.9998 15.6523 18.9998 16.5667 17.9999 16.5667C16.9999 16.5667 16.9999 15.6523 15.9999 15.6523C15 15.6523 15 16.5667 13.9999 16.5667C12.9998 16.5667 12.9998 15.6523 11.9998 15.6523C10.9998 15.6523 10.9998 16.5667 9.99985 16.5667C9 16.5667 9 15.6523 8.00002 15.6523C6.99994 15.6523 6.99994 16.5667 5.99986 16.5667C4.99979 16.5667 4.99979 15.6523 3.99971 15.6523C2.99986 15.6523 2.99986 16.5667 1.99988 16.5667C1.26324 16.5667 1.06875 16.0708 0.617676 15.8097C0.890863 16.6262 1.24969 17.4033 1.68305 18.131C1.77689 18.1536 1.88124 18.1667 1.99983 18.1667C2.99982 18.1667 2.99982 17.2524 3.99966 17.2524C4.99974 17.2524 4.99974 18.1667 5.99982 18.1667C6.99989 18.1667 6.9999 17.2524 7.99997 17.2524C8.99996 17.2524 8.99996 18.1667 9.9998 18.1667C10.9998 18.1667 10.9998 17.2524 11.9997 17.2524C12.9998 17.2524 12.9998 18.1667 13.9999 18.1667C15 18.1667 15 17.2524 15.9999 17.2524C16.9999 17.2524 16.9999 18.1667 17.9998 18.1667C18.9998 18.1667 18.9998 17.2524 19.9997 17.2524C20.9998 17.2524 20.9998 18.1667 21.9998 18.1667C22.1184 18.1667 22.2229 18.1536 22.3168 18.131C22.7502 17.4033 23.109 16.6262 23.3821 15.8097C22.931 16.0709 22.7365 16.5667 21.9998 16.5667C20.9999 16.5667 20.9999 15.6523 19.9998 15.6523Z" fill="#0052B4"/>
<path d="M23.7207 9.41891C22.9897 9.57064 22.8965 10.3055 21.9997 10.3055C20.9997 10.3055 20.9997 9.39111 19.9997 9.39111C18.9997 9.39111 18.9997 10.3055 17.9997 10.3055C16.9998 10.3055 16.9998 9.39111 15.9998 9.39111C14.9998 9.39111 14.9998 10.3055 13.9998 10.3055C12.9998 10.3055 12.9997 9.39111 11.9997 9.39111C11.4593 9.39111 11.2109 9.65802 10.939 9.90346V11.5034C11.2109 11.2581 11.4593 10.9912 11.9997 10.9912C12.9997 10.9912 12.9997 11.9054 13.9998 11.9054C14.9999 11.9054 14.9999 10.9912 15.9998 10.9912C16.9998 10.9912 16.9998 11.9054 17.9997 11.9054C18.9997 11.9054 18.9997 10.9912 19.9997 10.9912C20.9997 10.9912 20.9997 11.9054 21.9997 11.9054C22.9249 11.9054 22.9947 11.1235 23.7919 11.0064C23.8429 11.0064 23.9 11.0059 23.9585 11.0052C23.9142 10.4655 23.834 9.93599 23.7207 9.41891Z" fill="#0052B4"/>
<path d="M22.844 6.85648C22.6368 7.03052 22.3973 7.17509 21.9997 7.17509C20.9997 7.17509 20.9997 6.26074 19.9997 6.26074C18.9997 6.26074 18.9997 7.17509 17.9997 7.17509C16.9998 7.17509 16.9998 6.26074 15.9998 6.26074C14.9998 6.26074 14.9998 7.17509 13.9998 7.17509C12.9998 7.17509 12.9997 6.26074 11.9997 6.26074C11.4593 6.26074 11.2109 6.52765 10.939 6.77309V8.37307C11.2109 8.12768 11.4593 7.86082 11.9997 7.86082C12.9997 7.86082 12.9997 8.77507 13.9998 8.77507C14.9998 8.77507 14.9998 7.86082 15.9998 7.86082C16.9998 7.86082 16.9998 8.77507 17.9997 8.77507C18.9996 8.77507 18.9996 7.86082 19.9996 7.86082C20.9997 7.86082 20.9997 8.77507 21.9996 8.77507C22.7092 8.77507 22.9159 8.31546 23.333 8.04818C23.1909 7.64051 23.0276 7.24277 22.844 6.85648Z" fill="#0052B4"/>
<path d="M20.0851 3.13281C20.0574 3.13131 20.0291 3.13037 19.9997 3.13037C18.9997 3.13037 18.9997 4.04471 17.9998 4.04471C16.9998 4.04471 16.9998 3.13037 15.9999 3.13037C14.9999 3.13037 14.9999 4.04471 13.9998 4.04471C12.9997 4.04471 12.9997 3.13037 11.9997 3.13037C11.4593 3.13037 11.2109 3.39728 10.939 3.64271V5.2427C11.2109 4.99731 11.4593 4.73045 11.9997 4.73045C12.9997 4.73045 12.9997 5.6447 13.9998 5.6447C14.9999 5.6447 14.9999 4.73045 15.9998 4.73045C16.9998 4.73045 16.9998 5.6447 17.9997 5.6447C18.9997 5.6447 18.9997 4.73045 19.9997 4.73045C20.9997 4.73045 20.9997 5.6447 21.9997 5.6447C22.0613 5.6447 22.1188 5.64104 22.1733 5.63453C21.5924 4.70809 20.8891 3.86636 20.0851 3.13281Z" fill="#0052B4"/>
<path d="M15.0673 0.396188C14.7928 0.643125 14.5448 0.914344 14.0001 0.914344C13.0001 0.914344 13.0001 9.375e-05 12 0H11.9998C11.4827 4.6875e-05 11.2331 0.244594 10.9741 0.480797V2.08083C11.233 1.84463 11.4828 1.60003 12 1.60003C13.0001 1.60003 13.0001 2.51428 14.0002 2.51428C15.0002 2.51428 15.0002 1.60003 16.0002 1.60003C17.0002 1.60003 17.0002 2.51428 18.0001 2.51428C18.4197 2.51428 18.6631 2.35322 18.8783 2.16637C17.7376 1.36692 16.4514 0.761016 15.0673 0.396188Z" fill="#0052B4"/>
<path d="M13.9998 22.8275C12.9997 22.8275 12.9997 21.9131 11.9996 21.9131C10.9997 21.9131 10.9997 22.8275 9.99972 22.8275C8.99988 22.8275 8.99988 21.9131 7.99989 21.9131C7.23391 21.9131 7.05424 22.4491 6.56299 22.7003C7.91768 23.39 9.42082 23.8296 11.0118 23.9593C11.2578 23.7345 11.5077 23.5132 11.9996 23.5132C12.4917 23.5132 12.7416 23.7345 12.9877 23.9594C14.5787 23.8297 16.0819 23.39 17.4367 22.7003C16.9453 22.4492 16.7657 21.9131 15.9998 21.9131C14.9999 21.9131 14.9999 22.8275 13.9998 22.8275Z" fill="#0052B4"/>
<path d="M17.9998 19.6971C16.9998 19.6971 16.9998 18.7827 15.9999 18.7827C14.9999 18.7827 14.9999 19.6971 13.9998 19.6971C12.9998 19.6971 12.9998 18.7827 11.9997 18.7827C10.9997 18.7827 10.9997 19.6971 9.99976 19.6971C8.99992 19.6971 8.99992 18.7827 7.99993 18.7827C6.99986 18.7827 6.99986 19.6971 5.99978 19.6971C4.9997 19.6971 4.9997 18.7827 3.99962 18.7827C3.28051 18.7827 3.07857 19.2557 2.6499 19.5212C2.91859 19.8549 3.20425 20.1743 3.50654 20.4771C3.64196 20.4193 3.80087 20.3827 3.99957 20.3827C4.99965 20.3827 4.99965 21.297 5.99973 21.297C6.99981 21.297 6.99981 20.3827 7.99989 20.3827C8.99987 20.3827 8.99987 21.297 9.99972 21.297C10.9997 21.297 10.9997 20.3827 11.9996 20.3827C12.9997 20.3827 12.9997 21.297 13.9998 21.297C14.9999 21.297 14.9999 20.3827 15.9998 20.3827C16.9997 20.3827 16.9998 21.297 17.9997 21.297C18.9997 21.297 18.9997 20.3827 19.9997 20.3827C20.1986 20.3827 20.3575 20.4193 20.493 20.4772C20.7954 20.1743 21.081 19.8549 21.3497 19.5213C20.921 19.2558 20.719 18.7828 19.9997 18.7828C18.9997 18.7827 18.9997 19.6971 17.9998 19.6971Z" fill="#0052B4"/>
<path d="M11.9678 11.9999H11.9999C11.9999 11.9891 11.9999 11.9786 11.9999 11.9678C11.9892 11.9785 11.9785 11.9892 11.9678 11.9999Z" fill="#F0F0F0"/>
<path d="M12.0001 6.26098V9.78659L7.82617 5.73926L12.0001 6.26098Z" fill="#0052B4"/>
<path d="M6.26102 12.0003H9.78649L6.26098 7.30469L5.73926 10.9569L6.26102 12.0003Z" fill="#0052B4"/>
<path d="M12 6.26086C12 4.14937 12 2.76586 12 0H11.998C5.3715 0.001125 0 5.37323 0 12H6.26091V8.47448L9.78638 12H11.9679C11.9786 11.9893 11.9893 11.9786 12 11.9679C12 11.1594 12 10.4381 12 9.78647L8.47444 6.26086H12Z" fill="#F0F0F0"/>
<path d="M6.07124 1.56543C4.19441 2.63413 2.63413 4.19441 1.56543 6.07124V12.0002H4.69588V4.69598V4.69588H12.0002C12.0002 3.70855 12.0002 2.76796 12.0002 1.56543H6.07124Z" fill="#D80027"/>
<path d="M12.0004 10.5247L7.73686 6.26123H6.26123V6.26132L12.0003 12.0003H12.0004C12.0004 12.0003 12.0004 10.9828 12.0004 10.5247Z" fill="#D80027"/>
<path d="M15.6523 6.26074H20.348L18.0002 8.60857L15.6523 6.26074Z" fill="#6DA544"/>
<path d="M17.4785 8.08691H18.522V10.9565H17.4785V8.08691Z" fill="#A2001D"/>
<path d="M17.4785 15.6523H18.522V18.5219H17.4785V15.6523Z" fill="#A2001D"/>
<path d="M21.1305 14.0867C21.1305 13.2223 20.4297 12.5215 19.5653 12.5215C19.1643 12.5215 18.7988 12.6725 18.5218 12.9204V11.9998H19.0435V10.9563H18.5218V10.4346H17.4783V10.9563H16.9566V11.9998H17.4783V12.9204C17.2013 12.6725 16.8358 12.5215 16.4348 12.5215C15.5704 12.5215 14.8696 13.2223 14.8696 14.0867C14.8696 14.5502 15.0712 14.9664 15.3913 15.2531V16.1737H20.6087V15.2531C20.9289 14.9664 21.1305 14.5502 21.1305 14.0867Z" fill="#FFDA44"/>
<path d="M19.5652 13.5654C19.4006 13.5654 19.2854 13.6377 19.2177 13.6983L18.5217 14.3213H17.4783L16.7823 13.6983C16.7146 13.6377 16.5994 13.5654 16.4348 13.5654C16.1471 13.5654 15.9131 13.7995 15.9131 14.0871C15.9131 14.2898 16.0224 14.4178 16.0875 14.4762L16.4349 14.7872V15.1306H19.5653V14.7872L19.9127 14.4762C19.9778 14.4179 20.0871 14.2898 20.0871 14.0871C20.087 13.7995 19.8529 13.5654 19.5652 13.5654Z" fill="#D80027"/>
</g>
<defs>
<clipPath id="clip0_1682_1834">
<rect width="24" height="24" fill="white"/>
</clipPath>
</defs>
</svg>
