<svg width="24" height="24" viewBox="0 0 24 24" fill="none" xmlns="http://www.w3.org/2000/svg">
<g clip-path="url(#clip0_1682_1747)">
<path d="M12 24C18.6274 24 24 18.6274 24 12C24 5.37258 18.6274 0 12 0C5.37258 0 0 5.37258 0 12C0 18.6274 5.37258 24 12 24Z" fill="#F0F0F0"/>
<path d="M19.3067 2.47992C15.0105 -0.825982 8.98955 -0.825982 4.69336 2.47988L12 9.78656L19.3067 2.47992Z" fill="#D80027"/>
<path d="M12 14.214L4.69336 21.5206C8.98955 24.8265 15.0105 24.8265 19.3067 21.5206L12 14.2139L12 14.214Z" fill="#D80027"/>
<path d="M9.78656 12L2.47992 4.69336C-0.825988 8.98955 -0.825988 15.0105 2.47992 19.3067L9.78656 12Z" fill="#6DA544"/>
<path d="M14.2139 12L21.5205 19.3067C24.8264 15.0105 24.8264 8.98955 21.5205 4.69336L14.2139 12Z" fill="#6DA544"/>
<path d="M12.0001 17.2175C14.8816 17.2175 17.2175 14.8816 17.2175 12.0001C17.2175 9.11861 14.8816 6.78271 12.0001 6.78271C9.11861 6.78271 6.78271 9.11861 6.78271 12.0001C6.78271 14.8816 9.11861 17.2175 12.0001 17.2175Z" fill="#F0F0F0"/>
<path d="M12 8.34766L12.4518 9.13028H13.3555L12.9037 9.91286L13.3555 10.6955H12.4518L12 11.4781L11.5482 10.6955H10.6445L11.0964 9.91286L10.6445 9.13028H11.5482L12 8.34766Z" fill="#D80027"/>
<path d="M9.70319 12L10.155 12.7826H11.0587L10.6068 13.5652L11.0587 14.3478H10.155L9.70319 15.1305L9.25131 14.3478H8.34766L8.79948 13.5652L8.34766 12.7826H9.25131L9.70319 12Z" fill="#D80027"/>
<path d="M14.2964 12L14.7483 12.7826H15.6519L15.2001 13.5652L15.6519 14.3478H14.7483L14.2964 15.1305L13.8446 14.3478H12.9409L13.3927 13.5652L12.9409 12.7826H13.8446L14.2964 12Z" fill="#D80027"/>
</g>
<defs>
<clipPath id="clip0_1682_1747">
<rect width="24" height="24" fill="white"/>
</clipPath>
</defs>
</svg>
