<svg width="24" height="24" viewBox="0 0 24 24" fill="none" xmlns="http://www.w3.org/2000/svg">
<g clip-path="url(#clip0_1682_1809)">
<path d="M12 24C18.6274 24 24 18.6274 24 12C24 5.37258 18.6274 0 12 0C5.37258 0 0 5.37258 0 12C0 18.6274 5.37258 24 12 24Z" fill="#F0F0F0"/>
<path d="M11.9999 24.0001C15.637 24.0001 18.8959 22.3818 21.0965 19.8262H2.90332C5.10396 22.3818 8.36285 24.0001 11.9999 24.0001Z" fill="#0052B4"/>
<path d="M24 12C24 5.37262 18.6274 0 12 0C5.37262 0 0 5.37262 0 12C0 13.0831 0.144375 14.1323 0.413391 15.1305H23.5867C23.8556 14.1323 24 13.0831 24 12Z" fill="#0052B4"/>
<path d="M0.953857 16.6958C1.18519 17.2394 1.45561 17.7621 1.76137 18.261H22.2388C22.5445 17.7621 22.8149 17.2393 23.0463 16.6958H0.953857Z" fill="#D80027"/>
<path d="M8.57748 12.7827L8.77173 13.3806H9.40037L8.89183 13.7501L9.08608 14.3479L8.57748 13.9784L8.06889 14.3479L8.26319 13.7501L7.75464 13.3806H8.38328L8.57748 12.7827Z" fill="#FFDA44"/>
<path d="M8.57748 20.6089L8.77173 21.2068H9.40037L8.89183 21.5762L9.08608 22.1741L8.57748 21.8046L8.06889 22.1741L8.26319 21.5762L7.75464 21.2068H8.38328L8.57748 20.6089Z" fill="#FFDA44"/>
<path d="M4.93466 17.9619L5.12891 18.5597H5.75755L5.249 18.9292L5.44325 19.5271L4.93466 19.1576L4.42607 19.5271L4.62041 18.9292L4.11182 18.5597H4.74041L4.93466 17.9619Z" fill="#FFDA44"/>
<path d="M6.32606 13.5654L6.52031 14.1633H7.14891L6.64041 14.5328L6.83466 15.1307L6.32606 14.7612L5.81747 15.1307L6.01181 14.5328L5.50317 14.1633H6.13181L6.32606 13.5654Z" fill="#FFDA44"/>
<path d="M4.11182 16.0271L4.74032 16.0272L4.93461 15.4292L5.12891 16.0271L5.75755 16.0271L5.24896 16.3966L5.44325 16.9945L4.93461 16.625L4.42607 16.9944L4.62032 16.3966L4.11182 16.0271Z" fill="#FFDA44"/>
<path d="M5.81756 21.277L6.01181 20.6793L5.50317 20.3098H6.13181L6.32611 19.7119L6.52041 20.3098H7.149L6.64041 20.6792L6.83466 21.2772L6.32606 20.9076L5.81756 21.277Z" fill="#FFDA44"/>
<path d="M12.2191 17.9619L12.0249 18.5597H11.3962L11.9047 18.9292L11.7105 19.5271L12.2191 19.1576L12.7277 19.5271L12.5334 18.9292L13.042 18.5597H12.4133L12.2191 17.9619Z" fill="#FFDA44"/>
<path d="M10.8277 13.5654L10.6335 14.1633H10.0049L10.5134 14.5328L10.3191 15.1307L10.8277 14.7612L11.3363 15.1307L11.142 14.5328L11.6506 14.1633H11.022L10.8277 13.5654Z" fill="#FFDA44"/>
<path d="M13.042 16.0271L12.4134 16.0272L12.2191 15.4292L12.0249 16.0271L11.3962 16.0271L11.9048 16.3966L11.7105 16.9945L12.2191 16.625L12.7277 16.9944L12.5334 16.3966L13.042 16.0271Z" fill="#FFDA44"/>
<path d="M11.3363 21.277L11.1421 20.6793L11.6507 20.3098H11.0221L10.8278 19.7119L10.6335 20.3098H10.0049L10.5135 20.6792L10.3192 21.2772L10.8278 20.9076L11.3363 21.277Z" fill="#FFDA44"/>
</g>
<defs>
<clipPath id="clip0_1682_1809">
<rect width="24" height="24" fill="white"/>
</clipPath>
</defs>
</svg>
