<svg width="24" height="24" viewBox="0 0 24 24" fill="none" xmlns="http://www.w3.org/2000/svg">
<g clip-path="url(#clip0_1682_446)">
<path d="M12 24C18.6274 24 24 18.6274 24 12C24 5.37258 18.6274 0 12 0C5.37258 0 0 5.37258 0 12C0 18.6274 5.37258 24 12 24Z" fill="#D80027"/>
<path d="M6.56719 7.30273L7.60312 10.4902H10.9547L8.24531 12.4637L9.28125 15.6512L6.56719 13.6824L3.85313 15.6512L4.89375 12.4637L2.17969 10.4902H5.53125L6.56719 7.30273Z" fill="#FFDA44"/>
<path d="M14.2265 18.5857L13.4343 17.6107L12.2624 18.0654L12.9421 17.0107L12.1499 16.0311L13.364 16.3545L14.0483 15.2998L14.114 16.5561L15.3327 16.8795L14.1562 17.3295L14.2265 18.5857Z" fill="#FFDA44"/>
<path d="M15.8015 15.7264L16.1765 14.5264L15.1499 13.7998L16.4062 13.7811L16.7765 12.5811L17.1843 13.7717L18.4405 13.7576L17.4327 14.5076L17.8358 15.6982L16.8093 14.9717L15.8015 15.7264Z" fill="#FFDA44"/>
<path d="M17.9251 8.80771L17.372 9.9374L18.272 10.814L17.0298 10.6358L16.4767 11.7608L16.261 10.5233L15.0142 10.3452L16.1298 9.75928L15.9142 8.51709L16.8142 9.39365L17.9251 8.80771Z" fill="#FFDA44"/>
<path d="M14.2592 5.38574L14.1654 6.63731L15.3326 7.11074L14.1092 7.41074L14.0201 8.66699L13.3592 7.59824L12.1357 7.89824L12.9467 6.9373L12.2811 5.87324L13.4482 6.34668L14.2592 5.38574Z" fill="#FFDA44"/>
</g>
<defs>
<clipPath id="clip0_1682_446">
<rect width="24" height="24" fill="white"/>
</clipPath>
</defs>
</svg>
