<svg width="24" height="24" viewBox="0 0 24 24" fill="none" xmlns="http://www.w3.org/2000/svg">
<g clip-path="url(#clip0_1682_1966)">
<path d="M20.4853 20.4852C15.799 25.1715 8.20104 25.1715 3.51472 20.4852C-1.1716 15.799 -1.17155 8.20097 3.51472 3.51465C3.88363 3.88351 13.1068 10.8931 13.1068 10.8931L20.4853 20.4852Z" fill="#0052B4"/>
<path d="M3.51465 3.5147C8.20092 -1.17157 15.7989 -1.17157 20.4852 3.5147C25.1716 8.20098 25.1715 15.799 20.4852 20.4853" fill="#6DA544"/>
<path d="M12.0001 15.1305C13.729 15.1305 15.1305 13.729 15.1305 12.0001C15.1305 10.2712 13.729 8.86963 12.0001 8.86963C10.2712 8.86963 8.86963 10.2712 8.86963 12.0001C8.86963 13.729 10.2712 15.1305 12.0001 15.1305Z" fill="#FFDA44"/>
<path d="M4.46827 17.2173L4.79757 17.9058L5.54115 17.7339L5.20815 18.4207L5.80618 18.8949L5.06162 19.0627L5.06368 19.826L4.46827 19.3485L3.87287 19.826L3.87493 19.0627L3.13037 18.8949L3.7284 18.4207L3.39535 17.7339L4.13898 17.9058L4.46827 17.2173Z" fill="#F0F0F0"/>
<path d="M2.31442 11.4785L2.64372 12.1671L3.38729 11.9951L3.05434 12.6819L3.65228 13.1562L2.90776 13.3239L2.90982 14.0872L2.31442 13.6097L1.71906 14.0872L1.72108 13.3239L0.976562 13.1562L1.57455 12.6819L1.24155 11.9951L1.98512 12.1671L2.31442 11.4785Z" fill="#F0F0F0"/>
<path d="M4.46823 6.78271L4.79752 7.47126L5.5411 7.29932L5.20815 7.98613L5.80613 8.46037L5.06157 8.62813L5.06363 9.3914L4.46823 8.91393L3.87282 9.3914L3.87489 8.62813L3.13037 8.46037L3.72831 7.98613L3.39531 7.29932L4.13893 7.47126L4.46823 6.78271Z" fill="#F0F0F0"/>
<path d="M7.14401 10.4351L7.47331 11.1236L8.21693 10.9517L7.88388 11.6385L8.48187 12.1127L7.73735 12.2805L7.73937 13.0437L7.14401 12.5663L6.5486 13.0437L6.55067 12.2805L5.80615 12.1127L6.40409 11.6385L6.07114 10.9517L6.81471 11.1236L7.14401 10.4351Z" fill="#F0F0F0"/>
<path d="M5.23094 13.5654L5.48997 14.3626H6.3281L5.65 14.8552L5.90904 15.6523L5.23094 15.1597L4.55285 15.6523L4.81188 14.8552L4.13379 14.3626H4.97191L5.23094 13.5654Z" fill="#F0F0F0"/>
<path d="M12 14.0867H13.0434C13.0434 14.0867 13.4956 13.2868 13.0434 12.5215L14.0869 11.4781L13.5652 10.4346H13.0435C13.0435 10.4346 12.7826 11.2172 11.7391 11.2172C10.6957 11.2172 10.4348 10.4346 10.4348 10.4346H9.91309L10.4348 11.4781L9.91309 12.5215L10.4348 13.0433C10.4348 13.0433 10.9565 11.9998 12 12.5215C12 12.5215 12.4434 13.1737 12 14.0867Z" fill="#6DA544"/>
<path d="M19.7883 6.5727C19.8129 6.4445 19.826 6.31226 19.826 6.17689C19.826 5.24876 19.22 4.46262 18.3823 4.19141C18.6383 4.71172 18.7825 5.2969 18.7825 5.91603C18.7825 6.12481 18.7658 6.32965 18.7342 6.52957C18.6081 6.32646 18.4462 6.14089 18.2483 5.98343C17.5029 5.39037 16.4844 5.37467 15.7314 5.87412C16.3127 6.00106 16.8749 6.25911 17.3721 6.65468C17.7613 6.96443 18.0759 7.3834 18.3167 7.78784L15.1304 8.78557C18.2608 9.30729 20.8695 7.22037 20.8695 7.22037C20.5804 6.64231 20.1316 6.54481 19.7883 6.5727Z" fill="#FFDA44"/>
</g>
<defs>
<clipPath id="clip0_1682_1966">
<rect width="24" height="24" fill="white"/>
</clipPath>
</defs>
</svg>
