<svg width="24" height="24" viewBox="0 0 24 24" fill="none" xmlns="http://www.w3.org/2000/svg">
<g clip-path="url(#clip0_1682_1978)">
<path d="M12 24C18.6274 24 24 18.6274 24 12C24 5.37258 18.6274 0 12 0C5.37258 0 0 5.37258 0 12C0 18.6274 5.37258 24 12 24Z" fill="#6DA544"/>
<path d="M18.4214 17.2178L18.7507 17.9063L19.4943 17.7345L19.1613 18.4212L19.7593 18.8954L19.0147 19.0632L19.0168 19.8265L18.4214 19.349L17.826 19.8265L17.828 19.0632L17.0835 18.8954L17.6815 18.4212L17.3485 17.7345L18.0921 17.9063L18.4214 17.2178Z" fill="#FFDA44"/>
<path d="M15.3579 9.91309L15.6872 10.6016L16.4308 10.4297L16.0978 11.1166L16.6958 11.5907L15.9513 11.7586L15.9533 12.5218L15.3579 12.0443L14.7625 12.5218L14.7645 11.7586L14.02 11.5907L14.618 11.1166L14.285 10.4297L15.0286 10.6016L15.3579 9.91309Z" fill="#FFDA44"/>
<path d="M18.4213 5.73926L18.7506 6.4278L19.4942 6.25587L19.1613 6.94268L19.7592 7.41691L19.0147 7.58468L19.0167 8.34795L18.4213 7.87043L17.8259 8.34795L17.828 7.58468L17.0835 7.41691L17.6814 6.94268L17.3484 6.25587L18.092 6.4278L18.4213 5.73926Z" fill="#FFDA44"/>
<path d="M21.0971 8.86963L21.4264 9.55818L22.1701 9.38629L21.8371 10.0731L22.435 10.5473L21.6905 10.7151L21.6926 11.4784L21.0971 11.0008L20.5017 11.4784L20.5037 10.7151L19.7593 10.5473L20.3573 10.0731L20.0242 9.38629L20.7678 9.55818L21.0971 8.86963Z" fill="#FFDA44"/>
<path d="M19.1836 12.522L19.4427 13.3192H20.2808L19.6027 13.8118L19.8618 14.6089L19.1836 14.1163L18.5055 14.6089L18.7645 13.8118L18.0864 13.3192H18.9246L19.1836 12.522Z" fill="#FFDA44"/>
<path d="M13.3045 15.3914C11.4315 15.3914 9.91309 13.873 9.91309 12.0001C9.91309 10.1272 11.4314 8.6088 13.3045 8.6088C13.8884 8.6088 14.4379 8.7565 14.9177 9.01642C14.1651 8.28039 13.1359 7.82617 12 7.82617C9.69489 7.82617 7.82617 9.69489 7.82617 12.0001C7.82617 14.3052 9.69489 16.174 12 16.174C13.1359 16.174 14.1651 15.7197 14.9176 14.9837C14.4379 15.2437 13.8884 15.3914 13.3045 15.3914Z" fill="#FFDA44"/>
<path d="M7.54628 4.69583C7.18535 4.0722 6.51152 3.65234 5.73921 3.65234C4.96689 3.65234 4.29307 4.0722 3.93213 4.69583H7.54628Z" fill="#FFDA44"/>
<path d="M7.55328 4.70801L5.73927 6.52202L3.92525 4.70801C3.75186 5.01227 3.65234 5.36416 3.65234 5.73945C3.65234 6.89205 4.5867 7.82641 5.73931 7.82641C6.89192 7.82641 7.82628 6.8921 7.82628 5.73945C7.82623 5.36416 7.72667 5.01227 7.55328 4.70801Z" fill="#FFDA44"/>
<path d="M5.21729 6V7.76034C5.38402 7.80323 5.55886 7.82606 5.739 7.82606C5.91914 7.82606 6.09399 7.80319 6.26072 7.76034V6H5.21729Z" fill="#A2001D"/>
</g>
<defs>
<clipPath id="clip0_1682_1978">
<rect width="24" height="24" fill="white"/>
</clipPath>
</defs>
</svg>
