<svg width="24" height="24" viewBox="0 0 24 24" fill="none" xmlns="http://www.w3.org/2000/svg">
<g clip-path="url(#clip0_1682_1897)">
<path d="M12 24C18.6274 24 24 18.6274 24 12C24 5.37258 18.6274 0 12 0C5.37258 0 0 5.37258 0 12C0 18.6274 5.37258 24 12 24Z" fill="#F0F0F0"/>
<path d="M23.9994 11.9653H10.9911C8.40842 14.5481 6.84664 16.542 5.25195 18.1367L12.0346 18.7479L22.5596 17.7044C23.4781 16.0078 23.9998 14.0649 23.9998 12.0001C23.9998 11.9884 23.9994 11.977 23.9994 11.9653Z" fill="#D80027"/>
<path d="M5.25223 6.22613H22.5215C20.4807 2.51513 16.5343 0 12 0C8.69511 0 5.70279 1.33645 3.53271 3.498L5.25223 6.22613Z" fill="#FFDA44"/>
<path d="M5.77376 17.7046C4.69498 18.7834 4.27807 19.6872 3.49756 20.4677C5.67045 22.6496 8.67725 24.0002 11.9998 24.0002C16.5625 24.0002 20.5302 21.4537 22.5597 17.7046H5.77376Z" fill="#0052B4"/>
<path d="M3.51471 3.47998C-1.17157 8.16626 -1.17157 15.7643 3.51471 20.4506C5.45126 18.5141 7.31374 16.6516 12 11.9653L3.51471 3.47998Z" fill="#6DA544"/>
<path d="M3.16535 11.9652C3.16535 10.2168 4.39408 8.75624 6.03489 8.39793C5.78271 8.34285 5.52105 8.31299 5.25227 8.31299C3.23519 8.31299 1.6001 9.94808 1.6001 11.9652C1.6001 13.9822 3.23519 15.6173 5.25227 15.6173C5.521 15.6173 5.78266 15.5875 6.03489 15.5324C4.39408 15.174 3.16535 13.7135 3.16535 11.9652Z" fill="#F0F0F0"/>
<path d="M5.99477 8.83447L6.18906 9.43232H6.81766L6.30906 9.80183L6.50336 10.3997L5.99477 10.0302L5.48617 10.3997L5.68047 9.80183L5.17188 9.43232H5.80047L5.99477 8.83447Z" fill="#F0F0F0"/>
<path d="M5.99477 10.3999L6.18906 10.9978H6.81766L6.30906 11.3673L6.50336 11.9652L5.99477 11.5956L5.48617 11.9652L5.68047 11.3673L5.17188 10.9978H5.80047L5.99477 10.3999Z" fill="#F0F0F0"/>
<path d="M5.99477 11.9653L6.18906 12.5632H6.81766L6.30906 12.9327L6.50336 13.5305L5.99477 13.161L5.48617 13.5305L5.68047 12.9327L5.17188 12.5632H5.80047L5.99477 11.9653Z" fill="#F0F0F0"/>
<path d="M5.99477 13.5303L6.18906 14.1281H6.81766L6.30906 14.4976L6.50336 15.0955L5.99477 14.726L5.48617 15.0955L5.68047 14.4976L5.17188 14.1281H5.80047L5.99477 13.5303Z" fill="#F0F0F0"/>
</g>
<defs>
<clipPath id="clip0_1682_1897">
<rect width="24" height="24" fill="white"/>
</clipPath>
</defs>
</svg>
