<svg width="24" height="24" viewBox="0 0 24 24" fill="none" xmlns="http://www.w3.org/2000/svg">
<g clip-path="url(#clip0_1682_1913)">
<path d="M12 24C18.6274 24 24 18.6274 24 12C24 5.37258 18.6274 0 12 0C5.37258 0 0 5.37258 0 12C0 18.6274 5.37258 24 12 24Z" fill="#FCFCFC"/>
<path d="M16.1781 10.1642C16.1781 7.62624 14.1206 5.56885 11.5827 5.56885C9.70983 5.56885 8.09982 6.68963 7.38394 8.29669L6.81718 10.3515L7.33889 10.8732L6.29541 12.9601L7.33889 13.4819L6.81718 14.0036V14.5253L7.33889 15.047V16.0905L7.86061 16.6122L9.42582 16.0905C9.42582 16.0905 9.42582 16.6122 9.94754 17.134C10.4693 17.6557 10.9911 18.6992 10.9911 18.6992C10.9911 18.6992 12.5563 19.221 13.5998 17.6558C14.6432 16.0906 15.6867 15.5688 15.6867 15.5688L14.681 13.5572C15.6008 12.7171 16.1781 11.5083 16.1781 10.1642Z" fill="black"/>
<path d="M16.553 11.9213C18.6731 11.5636 19.0263 7.41211 19.0263 7.41211H16.1045C17.6176 11.0643 16.0339 11.31 16.0339 11.31C15.8194 11.1503 8.14132 7.51303 7.89795 7.42055C7.8393 7.49902 7.62345 7.70512 7.36104 8.34684C7.09859 8.98856 7.03418 9.56588 7.03418 9.56588C7.15709 9.64598 15.3111 12.4932 15.5267 12.5169C15.9544 12.7966 16.4807 13.6329 16.1866 16.1125L18.9988 15.3199C18.9989 15.3199 18.0445 12.781 16.553 11.9213Z" fill="#ACABB1"/>
</g>
<defs>
<clipPath id="clip0_1682_1913">
<rect width="24" height="24" fill="white"/>
</clipPath>
</defs>
</svg>
