<svg width="24" height="24" viewBox="0 0 24 24" fill="none" xmlns="http://www.w3.org/2000/svg">
<g clip-path="url(#clip0_1682_1463)">
<path d="M24 11.9999C24 10.532 23.736 9.1259 23.2536 7.82596L12 7.3042L0.746391 7.82592C0.264047 9.1259 0 10.532 0 11.9999C0 13.4677 0.264047 14.8738 0.746391 16.1737L12 16.6955L23.2536 16.1738C23.736 14.8738 24 13.4677 24 11.9999Z" fill="#F0F0F0"/>
<path d="M12.0002 23.9999C17.1598 23.9999 21.5583 20.7434 23.2538 16.1738H0.746582C2.4421 20.7434 6.84061 23.9999 12.0002 23.9999Z" fill="#0052B4"/>
<path d="M0.746582 7.82611H23.2538C21.5583 3.2565 17.1598 0 12.0002 0C6.84061 0 2.4421 3.2565 0.746582 7.82611Z" fill="#D80027"/>
<path d="M15.1304 8.34802H13.0435L13.3913 5.73928L14.7826 4.6958L16.1739 5.73928V7.82625L15.1304 8.34802Z" fill="#338AF3"/>
<path d="M8.86961 8.34802H10.9566L10.6087 5.73928L9.21742 4.6958L7.82617 5.73928V7.82625L8.86961 8.34802Z" fill="#338AF3"/>
<path d="M13.3916 8.34802H10.6089V5.73928L12.0002 4.6958L13.3916 5.73928V8.34802Z" fill="#0052B4"/>
<path d="M7.82617 7.82617V13.5653C7.82617 14.9318 8.48627 16.1471 9.50439 16.909L10.2348 16.7262L11.1566 17.6535C11.4292 17.7096 11.7112 17.7392 12.0001 17.7392C12.2875 17.7392 12.5681 17.71 12.8392 17.6544L13.8914 16.7783L14.4957 16.9073C15.5134 16.1455 16.174 14.9314 16.174 13.5653V7.82617H7.82617Z" fill="#F0F0F0"/>
<path d="M7.82617 7.82617H9.49572V9.49572H7.82617V7.82617Z" fill="#D80027"/>
<path d="M11.165 7.82617H12.8346V9.49572H11.165V7.82617Z" fill="#D80027"/>
<path d="M14.5044 7.82617H16.1739V9.49572H14.5044V7.82617Z" fill="#D80027"/>
<path d="M9.49561 9.49561H11.1652V11.1652H9.49561V9.49561Z" fill="#D80027"/>
<path d="M12.835 9.49561H14.5045V11.1652H12.835V9.49561Z" fill="#D80027"/>
<path d="M7.82617 11.1646H9.49572V12.8341H7.82617V11.1646Z" fill="#D80027"/>
<path d="M9.49561 12.8345H11.1652V14.504H9.49561V12.8345Z" fill="#D80027"/>
<path d="M11.165 11.1646H12.8346V12.8341H11.165V11.1646Z" fill="#D80027"/>
<path d="M14.5044 11.1646H16.1739V12.8341H14.5044V11.1646Z" fill="#D80027"/>
<path d="M12.835 12.8345H14.5045V14.504H12.835V12.8345Z" fill="#D80027"/>
<path d="M11.165 14.5039H12.8346V16.1735H11.165V14.5039Z" fill="#D80027"/>
<path d="M9.49591 14.5039H7.93408C8.07733 15.1245 8.35896 15.6924 8.74511 16.1735H9.49591V14.5039Z" fill="#D80027"/>
<path d="M14.5044 16.1735H15.2551C15.6414 15.6924 15.9229 15.1245 16.0662 14.5039H14.5044V16.1735Z" fill="#D80027"/>
<path d="M9.49561 16.1738V16.9023C9.98118 17.2677 10.5487 17.5297 11.1652 17.6554V16.1738H9.49561Z" fill="#D80027"/>
<path d="M12.835 16.1738V17.6554C13.4515 17.5298 14.0189 17.2677 14.5045 16.9023V16.1738H12.835Z" fill="#D80027"/>
</g>
<defs>
<clipPath id="clip0_1682_1463">
<rect width="24" height="24" fill="white"/>
</clipPath>
</defs>
</svg>
