<svg width="24" height="24" viewBox="0 0 24 24" fill="none" xmlns="http://www.w3.org/2000/svg">
<g clip-path="url(#clip0_1682_768)">
<path d="M12 24C18.6274 24 24 18.6274 24 12C24 5.37258 18.6274 0 12 0C5.37258 0 0 5.37258 0 12C0 18.6274 5.37258 24 12 24Z" fill="#FFDA44"/>
<path d="M12 24.0001C15.9375 24.0001 19.432 22.1036 21.6201 19.1743H2.37988C4.56801 22.1036 8.06249 24.0001 12 24.0001Z" fill="#0052B4"/>
<path d="M24 12C24 5.37262 18.6274 0 12 0C5.37262 0 0 5.37262 0 12C0 13.419 0.246984 14.7803 0.699188 16.0439H23.3008C23.753 14.7803 24 13.419 24 12Z" fill="#0052B4"/>
<path d="M8.21359 7.6958L8.86108 9.68855H10.9566L9.26134 10.9203L9.90883 12.9132L8.21359 11.6815L6.51836 12.9132L7.16594 10.9203L5.4707 9.68855H7.56611L8.21359 7.6958Z" fill="#F0F0F0"/>
<path d="M4.61493 5.60889L5.00343 6.80457H6.26075L5.24361 7.54361L5.63211 8.73934L4.61493 8.00031L3.59778 8.73934L3.98633 7.54361L2.96924 6.80457H4.22652L4.61493 5.60889Z" fill="#F0F0F0"/>
</g>
<defs>
<clipPath id="clip0_1682_768">
<rect width="24" height="24" fill="white"/>
</clipPath>
</defs>
</svg>
