<svg width="24" height="24" viewBox="0 0 24 24" fill="none" xmlns="http://www.w3.org/2000/svg">
<g clip-path="url(#clip0_1682_1347)">
<path d="M12 24C18.6274 24 24 18.6274 24 12C24 5.37258 18.6274 0 12 0C5.37258 0 0 5.37258 0 12C0 18.6274 5.37258 24 12 24Z" fill="#F0F0F0"/>
<path d="M14.3477 23.77C19.0915 22.829 22.8285 19.092 23.7695 14.3481H14.3477V23.77Z" fill="#496E2D"/>
<path d="M0.230225 14.3481C1.17124 19.092 4.90821 22.829 9.6521 23.77V14.3481H0.230225Z" fill="#496E2D"/>
<path d="M23.7695 9.65234C22.8285 4.9085 19.0915 1.17153 14.3477 0.230469V9.65234H23.7695Z" fill="#496E2D"/>
<path d="M9.6521 0.230469C4.90821 1.17153 1.17124 4.9085 0.230225 9.65234H9.6521V0.230469Z" fill="#496E2D"/>
<path d="M11.2173 14.3477H9.6521V23.7695C10.1629 23.8708 10.6854 23.9395 11.2173 23.9737V14.3477Z" fill="#FFDA44"/>
<path d="M11.2173 9.65194V0.0258789C10.6854 0.0600977 10.1628 0.12877 9.6521 0.230066V9.65194H11.2173Z" fill="#FFDA44"/>
<path d="M12.7825 0.0261094C12.5237 0.009375 12.2629 0 11.9999 0C11.7369 0 11.4761 0.009375 11.2173 0.0261094V9.65222H12.7825V0.0261094H12.7825Z" fill="black"/>
<path d="M11.2173 23.9737C11.4761 23.9905 11.7369 23.9998 11.9999 23.9998C12.2629 23.9998 12.5237 23.9905 12.7825 23.9737V14.3477H11.2173V23.9737H11.2173Z" fill="black"/>
<path d="M9.65219 11.2175V9.65234H0.230311C0.128967 10.1632 0.0603418 10.6857 0.026123 11.2175H9.65219Z" fill="#FFDA44"/>
<path d="M14.3479 11.2175H23.974C23.9398 10.6857 23.8711 10.1632 23.7698 9.65234H14.3479V11.2175H14.3479Z" fill="#FFDA44"/>
<path d="M14.3479 12.7825H23.974C23.9907 12.5237 24.0001 12.2629 24.0001 11.9999C24.0001 11.7369 23.9907 11.4761 23.974 11.2173H14.3479V12.7825Z" fill="black"/>
<path d="M0.0261094 11.2173C0.00942187 11.4761 0 11.7369 0 11.9999C0 12.2629 0.00942187 12.5237 0.0261094 12.7825H9.65222V11.2173H0.0261094V11.2173Z" fill="black"/>
<path d="M11.9999 17.739C15.1695 17.739 17.739 15.1695 17.739 11.9999C17.739 8.83024 15.1695 6.26074 11.9999 6.26074C8.83024 6.26074 6.26074 8.83024 6.26074 11.9999C6.26074 15.1695 8.83024 17.739 11.9999 17.739Z" fill="#D80027"/>
<path d="M13.3075 12.6399C12.8806 11.7862 12.3258 10.9209 12.3258 10.9209C12.3258 10.9209 12.3395 10.5269 12.3395 10.2922C12.3395 9.93854 12.0529 9.65186 11.6992 9.65186C11.3642 9.65186 11.0897 9.90925 11.0617 10.2369C10.7983 10.2542 10.5898 10.4727 10.5898 10.7404C10.5898 10.9351 10.7001 11.1038 10.8616 11.1881C10.9418 11.0004 11.099 10.8539 11.2933 10.7871C11.325 10.813 11.359 10.8362 11.3953 10.8558L11.4774 10.8951C11.4774 10.8951 11.1732 11.7525 11.1732 12.2131C11.1732 13.508 12.027 13.9073 12.027 13.9073V13.9207L11.6001 14.3475H12.4538V13.4937L12.8807 13.9206C12.8845 13.9126 13.6893 13.4036 13.3075 12.6399Z" fill="#496E2D"/>
<path d="M12.0001 7.3042L12.1943 7.90204H12.8229L12.3144 8.27156L12.5087 8.8694L12.0001 8.49993L11.4915 8.8694L11.6858 8.27156L11.1772 7.90204H11.8058L12.0001 7.3042Z" fill="#496E2D"/>
<path d="M9.24012 8.20122L9.74863 8.57073L10.2572 8.20117L10.063 8.79911L10.5716 9.16853L9.94292 9.16858L9.74867 9.76642L9.55438 9.16858L8.92578 9.16853L9.43433 8.79902L9.24012 8.20122Z" fill="#496E2D"/>
<path d="M7.53418 10.549H8.16273L8.35702 9.95117L8.55127 10.549L9.17991 10.549L8.67137 10.9185L8.86566 11.5164L8.35702 11.1469L7.84848 11.5163L8.04268 10.9185L7.53418 10.549Z" fill="#496E2D"/>
<path d="M7.53418 13.4507L8.04268 13.0813L7.84843 12.4834L8.35702 12.8529L8.86562 12.4834L8.67137 13.0812L9.17996 13.4508L8.55127 13.4508L8.35702 14.0486L8.16273 13.4507H7.53418Z" fill="#496E2D"/>
<path d="M9.23993 15.7986L9.43413 15.2008L8.92554 14.8313H9.55418L9.74847 14.2334L9.94273 14.8312H10.5714L10.0628 15.2008L10.257 15.7986L9.74843 15.4291L9.23993 15.7986Z" fill="#496E2D"/>
<path d="M12.0001 16.6956L11.8058 16.0978H11.1772L11.6858 15.7283L11.4915 15.1304L12.0001 15.4998L12.5086 15.1304L12.3144 15.7283L12.8229 16.0978L12.1943 16.0978L12.0001 16.6956Z" fill="#496E2D"/>
<path d="M14.7599 15.7986L14.2514 15.4291L13.7429 15.7986L13.9371 15.2008L13.4285 14.8313L14.0571 14.8312L14.2513 14.2334L14.4457 14.8313H15.0742L14.5657 15.2008L14.7599 15.7986Z" fill="#496E2D"/>
<path d="M16.4658 13.4507H15.8373L15.643 14.0486L15.4488 13.4508H14.8201L15.3287 13.0812L15.1344 12.4834L15.643 12.8529L16.1515 12.4834L15.9573 13.0812L16.4658 13.4507Z" fill="#496E2D"/>
<path d="M16.4658 10.549L15.9573 10.9184L16.1516 11.5163L15.643 11.1468L15.1344 11.5164L15.3287 10.9185L14.8201 10.549L15.4488 10.5489L15.643 9.95117L15.8373 10.549H16.4658Z" fill="#496E2D"/>
<path d="M14.7599 8.20117L14.5657 8.79897L15.0742 9.16848H14.4457L14.2514 9.76638L14.0571 9.16853L13.4285 9.16858L13.9371 8.79897L13.7428 8.20122L14.2514 8.57064L14.7599 8.20117Z" fill="#496E2D"/>
</g>
<defs>
<clipPath id="clip0_1682_1347">
<rect width="24" height="24" fill="white"/>
</clipPath>
</defs>
</svg>
