<svg width="24" height="24" viewBox="0 0 24 24" fill="none" xmlns="http://www.w3.org/2000/svg">
<g clip-path="url(#clip0_1682_2417)">
<path d="M12 24C18.6274 24 24 18.6274 24 12C24 5.37258 18.6274 0 12 0C5.37258 0 0 5.37258 0 12C0 18.6274 5.37258 24 12 24Z" fill="#F0F0F0"/>
<path d="M0.413574 15.1304C1.52161 19.2414 4.75865 22.4785 8.86978 23.5866V15.1304H0.413574Z" fill="#D80027"/>
<path d="M8.86973 0.413574C4.75865 1.52156 1.52156 4.75865 0.413574 8.86973H8.86978V0.413574H8.86973Z" fill="#0052B4"/>
<path d="M23.5865 8.86973C22.4785 4.75865 19.2414 1.52156 15.1304 0.413574V8.86978H23.5865V8.86973Z" fill="#D80027"/>
<path d="M15.1304 23.5866C19.2414 22.4785 22.4785 19.2415 23.5866 15.1304H15.1304V23.5866Z" fill="#0052B4"/>
<path d="M15.1305 12.0001C15.1305 13.729 13.729 15.1305 12.0001 15.1305C10.2712 15.1305 8.86963 13.729 8.86963 12.0001C8.86963 10.2711 12.0001 8.86963 12.0001 8.86963C12.0001 8.86963 15.1305 10.2711 15.1305 12.0001Z" fill="#496E2D"/>
<path d="M8.86963 12.0001C8.86963 10.2711 10.2712 8.86963 12.0001 8.86963C13.729 8.86963 15.1305 10.2711 15.1305 12.0001" fill="#0052B4"/>
<path d="M10.2393 10.4346V12.3911C10.2393 13.3636 11.0276 14.1519 12.0001 14.1519C12.9726 14.1519 13.761 13.3636 13.761 12.3911V10.4346H10.2393Z" fill="#D80027"/>
</g>
<defs>
<clipPath id="clip0_1682_2417">
<rect width="24" height="24" fill="white"/>
</clipPath>
</defs>
</svg>
