<svg width="24" height="24" viewBox="0 0 24 24" fill="none" xmlns="http://www.w3.org/2000/svg">
<g clip-path="url(#clip0_1682_2196)">
<path d="M0 12C0 5.37262 5.37262 0 12 0C18.6274 0 24 5.37262 24 12L12 13.0435L0 12Z" fill="#FFDA44"/>
<path d="M1.60571 17.9999C3.68063 21.5866 7.55832 23.9999 12 23.9999C16.4416 23.9999 20.3193 21.5866 22.3942 17.9999L12 17.2173L1.60571 17.9999Z" fill="#D80027"/>
<path d="M22.3942 18C23.4153 16.235 24 14.1858 24 12H0C0 14.1858 0.584719 16.235 1.60575 18H22.3942Z" fill="#0052B4"/>
<path d="M12.0001 16.174C14.3052 16.174 16.174 14.3052 16.174 12.0001C16.174 9.69489 14.3052 7.82617 12.0001 7.82617C9.69489 7.82617 7.82617 9.69489 7.82617 12.0001C7.82617 14.3052 9.69489 16.174 12.0001 16.174Z" fill="#FFDA44"/>
<path d="M12 14.6088C10.5616 14.6088 9.39136 13.4385 9.39136 12.0001V10.4349C9.39136 8.99641 10.5616 7.82617 12 7.82617C13.4385 7.82617 14.6087 8.99645 14.6087 10.4349V12.0001C14.6087 13.4385 13.4385 14.6088 12 14.6088Z" fill="#338AF3"/>
<path d="M16.1738 5.73928H13.0434C13.0434 5.163 12.5761 4.6958 11.9999 4.6958C11.4236 4.6958 10.9564 5.163 10.9564 5.73928H7.82593C7.82593 6.31561 8.32791 6.78277 8.90415 6.78277H8.86941C8.86941 7.3591 9.33657 7.82625 9.9129 7.82625C9.9129 8.40258 10.3801 8.86974 10.9564 8.86974H13.0434C13.6197 8.86974 14.0868 8.40258 14.0868 7.82625C14.6632 7.82625 15.1303 7.3591 15.1303 6.78277H15.0956C15.6719 6.78277 16.1738 6.31557 16.1738 5.73928Z" fill="black"/>
</g>
<defs>
<clipPath id="clip0_1682_2196">
<rect width="24" height="24" fill="white"/>
</clipPath>
</defs>
</svg>
