<svg width="24" height="24" viewBox="0 0 24 24" fill="none" xmlns="http://www.w3.org/2000/svg">
<g clip-path="url(#clip0_1682_1237)">
<path d="M12 24C18.6274 24 24 18.6274 24 12C24 5.37258 18.6274 0 12 0C5.37258 0 0 5.37258 0 12C0 18.6274 5.37258 24 12 24Z" fill="#F0F0F0"/>
<path d="M11.9998 0C7.03879 0 2.78122 3.01059 0.953613 7.30434H23.046C21.2184 3.01059 16.9608 0 11.9998 0Z" fill="#A2001D"/>
<path d="M11.9998 24.0001C16.9608 24.0001 21.2184 20.9896 23.046 16.6958H0.953613C2.78122 20.9896 7.03879 24.0001 11.9998 24.0001Z" fill="#496E2D"/>
<path d="M23.5866 8.86963H0.413391C0.144375 9.86774 0 10.9169 0 12.0001C0 13.0832 0.144375 14.1324 0.413391 15.1305H23.5867C23.8556 14.1324 24 13.0832 24 12.0001C24 10.9169 23.8556 9.86774 23.5866 8.86963Z" fill="#0052B4"/>
</g>
<defs>
<clipPath id="clip0_1682_1237">
<rect width="24" height="24" fill="white"/>
</clipPath>
</defs>
</svg>
