<svg width="24" height="24" viewBox="0 0 24 24" fill="none" xmlns="http://www.w3.org/2000/svg">
<g clip-path="url(#clip0_1682_414)">
<path d="M0 11.9999C0 13.4677 0.264047 14.8738 0.746391 16.1737L12 16.6955L23.2536 16.1738C23.736 14.8738 24 13.4677 24 11.9999C24 10.532 23.736 9.12595 23.2536 7.82596L12 7.3042L0.746391 7.82592C0.264047 9.12595 0 10.532 0 11.9999H0Z" fill="#FFDA44"/>
<path d="M12.0002 0C6.84061 0 2.4421 3.2565 0.746582 7.82611H23.2538C21.5583 3.2565 17.1598 0 12.0002 0Z" fill="#D80027"/>
<path d="M23.2538 16.1738H0.746582C2.4421 20.7434 6.84061 23.9999 12.0002 23.9999C17.1598 23.9999 21.5583 20.7434 23.2538 16.1738Z" fill="#496E2D"/>
<path d="M12 7.82617L13.0359 11.0146H16.3888L13.6764 12.9854L14.7124 16.174L12 14.2033L9.28753 16.174L10.3237 12.9854L7.61133 11.0146H10.964L12 7.82617Z" fill="black"/>
</g>
<defs>
<clipPath id="clip0_1682_414">
<rect width="24" height="24" fill="white"/>
</clipPath>
</defs>
</svg>
