<svg width="24" height="24" viewBox="0 0 24 24" fill="none" xmlns="http://www.w3.org/2000/svg">
<g clip-path="url(#clip0_1682_1015)">
<path d="M12 24C18.6274 24 24 18.6274 24 12C24 5.37258 18.6274 0 12 0C5.37258 0 0 5.37258 0 12C0 18.6274 5.37258 24 12 24Z" fill="#FFDA44"/>
<path d="M5.23633 2.08697C7.16219 0.770437 9.49084 0 11.9998 0C14.5087 0 16.8374 0.770437 18.7632 2.08697L11.9998 2.60869L5.23633 2.08697Z" fill="#A2001D"/>
<path d="M11.9999 12.0002L11.2341 11.2344L11.0308 11.5986L11.9999 12.0002Z" fill="#0052B4"/>
<path d="M3.51471 3.51465C-1.17157 8.20093 -1.17157 15.7989 3.51471 20.4853C5.45126 18.5487 7.31374 16.6862 12 12L3.51471 3.51465Z" fill="#496E2D"/>
<path d="M20.4853 3.51465C25.1716 8.20093 25.1716 15.7989 20.4853 20.4853C18.5488 18.5487 16.6863 16.6862 12 12L20.4853 3.51465Z" fill="#496E2D"/>
<path d="M12.0001 16.174C14.3052 16.174 16.174 14.3052 16.174 12.0001C16.174 9.69489 14.3052 7.82617 12.0001 7.82617C9.69489 7.82617 7.82617 9.69489 7.82617 12.0001C7.82617 14.3052 9.69489 16.174 12.0001 16.174Z" fill="#A2001D"/>
<path d="M12.0001 7.82617L12.9357 10.7057H15.9637L13.5142 12.4856L14.4497 15.3653L12.0001 13.5856L9.55045 15.3653L10.4862 12.4856L8.03662 10.7057H11.0645L12.0001 7.82617Z" fill="#FFDA44"/>
<path d="M12.0038 0H11.9958C8.68395 0.00107812 5.68578 1.34372 3.51514 3.51413H20.4845C18.3138 1.34372 15.3156 0.00107812 12.0038 0Z" fill="#A2001D"/>
<path d="M3.51514 20.4858C5.68667 22.657 8.68639 23.9999 11.9997 23.9999C15.3131 23.9999 18.3128 22.657 20.4844 20.4858H3.51514Z" fill="#A2001D"/>
<path d="M11.9996 1.3042L12.1939 1.90204H12.8225L12.314 2.27156L12.5083 2.8694L11.9996 2.49993L11.4911 2.8694L11.6854 2.27156L11.1768 1.90204H11.8054L11.9996 1.3042Z" fill="#FFDA44"/>
<path d="M9.08998 1.3042L9.28428 1.90204H9.91287L9.40432 2.27156L9.59862 2.8694L9.08998 2.49993L8.58148 2.8694L8.77573 2.27156L8.26709 1.90204H8.89568L9.08998 1.3042Z" fill="#FFDA44"/>
<path d="M14.9098 1.3042L15.1041 1.90204H15.7327L15.2241 2.27156L15.4184 2.8694L14.9098 2.49993L14.4013 2.8694L14.5956 2.27156L14.0869 1.90204H14.7155L14.9098 1.3042Z" fill="#FFDA44"/>
<path d="M11.9996 21.1304L12.1939 21.7282H12.8225L12.314 22.0977L12.5083 22.6956L11.9996 22.3261L11.4911 22.6956L11.6854 22.0977L11.1768 21.7282H11.8054L11.9996 21.1304Z" fill="#FFDA44"/>
<path d="M9.08998 21.1304L9.28428 21.7282H9.91287L9.40432 22.0977L9.59862 22.6956L9.08998 22.3261L8.58148 22.6956L8.77573 22.0977L8.26709 21.7282H8.89568L9.08998 21.1304Z" fill="#FFDA44"/>
<path d="M14.9098 21.1304L15.1041 21.7282H15.7327L15.2241 22.0977L15.4184 22.6956L14.9098 22.3261L14.4013 22.6956L14.5956 22.0977L14.0869 21.7282H14.7155L14.9098 21.1304Z" fill="#FFDA44"/>
<path d="M3.65615 11.8014C3.96435 12.2884 3.81951 12.933 3.33252 13.2413C2.84558 13.5495 2.20096 13.4047 1.89271 12.9177C1.33466 12.0361 1.65824 10.5962 1.65824 10.5962C1.65824 10.5962 3.09805 10.9198 3.65615 11.8014Z" fill="#FFDA44"/>
<path d="M3.05395 13.3227C3.34208 13.3227 3.57566 13.0892 3.57566 12.801C3.57566 12.5129 3.34208 12.2793 3.05395 12.2793C2.76581 12.2793 2.53223 12.5129 2.53223 12.801C2.53223 13.0892 2.76581 13.3227 3.05395 13.3227Z" fill="#A2001D"/>
</g>
<defs>
<clipPath id="clip0_1682_1015">
<rect width="24" height="24" fill="white"/>
</clipPath>
</defs>
</svg>
