<svg width="24" height="24" viewBox="0 0 24 24" fill="none" xmlns="http://www.w3.org/2000/svg">
<g clip-path="url(#clip0_1682_1038)">
<path d="M5.23633 21.9131C7.16214 23.2296 9.49089 24.0001 11.9998 24.0001C14.5087 24.0001 16.8374 23.2296 18.7632 21.9131L11.9998 20.8696L5.23633 21.9131Z" fill="#D80027"/>
<path d="M18.7632 2.08697C16.8374 0.770484 14.5087 0 11.9998 0C9.49089 0 7.16214 0.770484 5.23633 2.08697L11.9998 3.13045L18.7632 2.08697Z" fill="#D80027"/>
<path d="M24 11.9999C24 8.02916 21.6227 4.04151 18.7635 2.08691H5.23655C2.07516 4.24804 0 7.88151 0 11.9999C0 16.1185 2.07516 19.7519 5.23655 21.913H18.7635C21.9249 19.7519 24 16.1185 24 11.9999Z" fill="#0052B4"/>
<path d="M11.3208 19.5751C11.1568 19.4344 7.3042 16.0853 7.3042 12.0002C7.3042 7.91511 11.1568 4.56593 11.3208 4.42536L11.9999 3.84326L12.6789 4.42531C12.8429 4.56593 16.6955 7.91506 16.6955 12.0002C16.6955 16.0854 12.8429 19.4345 12.6789 19.5751L11.9999 20.1572L11.3208 19.5751Z" fill="#D80027"/>
<path d="M15.652 11.9999C15.652 8.34774 11.9998 5.21729 11.9998 5.21729C11.9998 5.21729 8.34766 8.34783 8.34766 11.9999C8.34766 13.1172 8.6897 14.1854 9.16417 15.1304H14.8355C15.31 14.1854 15.652 13.1172 15.652 11.9999Z" fill="#338AF3"/>
<path d="M15.652 12C15.652 13.1173 15.31 14.1855 14.8355 15.1305L11.9998 15.6522L9.16417 15.1305C8.6897 14.1855 8.34766 13.1173 8.34766 12H15.652Z" fill="#0052B4"/>
<path d="M12.0002 18.7825C12.0002 18.7825 13.7593 17.2742 14.8359 15.1304H9.16455C10.2411 17.2742 12.0002 18.7825 12.0002 18.7825Z" fill="#FFDA44"/>
<path d="M9.65234 9.91309H14.348L12.0002 12.2609L9.65234 9.91309Z" fill="#6DA544"/>
<path d="M11.2173 11.4785H12.7825V16.1742H11.2173V11.4785Z" fill="#A2001D"/>
</g>
<defs>
<clipPath id="clip0_1682_1038">
<rect width="24" height="24" fill="white"/>
</clipPath>
</defs>
</svg>
