<svg width="24" height="24" viewBox="0 0 24 24" fill="none" xmlns="http://www.w3.org/2000/svg">
<g clip-path="url(#clip0_1682_2368)">
<path d="M12 24C18.6274 24 24 18.6274 24 12C24 5.37258 18.6274 0 12 0C5.37258 0 0 5.37258 0 12C0 18.6274 5.37258 24 12 24Z" fill="#F0F0F0"/>
<path d="M12 23.9999C16.7574 23.9999 20.8682 21.2312 22.8092 17.2173H1.19067C3.13167 21.2312 7.24242 23.9999 12 23.9999Z" fill="#338AF3"/>
<path d="M12 0C7.24242 0 3.13167 2.76867 1.19067 6.78263H22.8092C20.8682 2.76867 16.7574 0 12 0Z" fill="#338AF3"/>
<path d="M7.38479 7.82617L7.77329 9.02191H9.03053L8.01344 9.76084L8.40198 10.9566L7.38479 10.2176L6.36761 10.9566L6.75615 9.76084L5.73901 9.02191H6.99625L7.38479 7.82617Z" fill="#338AF3"/>
<path d="M7.38479 13.0435L7.77329 14.2392H9.03053L8.01344 14.9782L8.40198 16.1739L7.38479 15.4349L6.36761 16.1739L6.75615 14.9782L5.73901 14.2392H6.99625L7.38479 13.0435Z" fill="#338AF3"/>
<path d="M16.615 7.82617L17.0036 9.02191H18.2608L17.2437 9.76084L17.6322 10.9566L16.615 10.2176L15.5978 10.9566L15.9864 9.76084L14.9692 9.02191H16.2265L16.615 7.82617Z" fill="#338AF3"/>
<path d="M16.615 13.0435L17.0036 14.2392H18.2608L17.2437 14.9782L17.6322 16.1739L16.615 15.4349L15.5978 16.1739L15.9864 14.9782L14.9692 14.2392H16.2265L16.615 13.0435Z" fill="#338AF3"/>
<path d="M12 10.4346L12.3886 11.6304H13.6458L12.6287 12.3693L13.0172 13.565L12 12.826L10.9828 13.565L11.3714 12.3693L10.3542 11.6304H11.6115L12 10.4346Z" fill="#338AF3"/>
</g>
<defs>
<clipPath id="clip0_1682_2368">
<rect width="24" height="24" fill="white"/>
</clipPath>
</defs>
</svg>
