<svg width="24" height="24" viewBox="0 0 24 24" fill="none" xmlns="http://www.w3.org/2000/svg">
<g clip-path="url(#clip0_1682_806)">
<path d="M12 24C18.6274 24 24 18.6274 24 12C24 5.37258 18.6274 0 12 0C5.37258 0 0 5.37258 0 12C0 18.6274 5.37258 24 12 24Z" fill="#F0F0F0"/>
<path d="M12.0002 0C7.24267 0 3.13192 2.76867 1.19092 6.78263H22.8094C20.8685 2.76867 16.7577 0 12.0002 0Z" fill="#FF9811"/>
<path d="M12.0002 23.9999C16.7577 23.9999 20.8685 21.2312 22.8095 17.2173H1.19092C3.13192 21.2312 7.24267 23.9999 12.0002 23.9999Z" fill="#6DA544"/>
<path d="M12.0001 16.174C14.3052 16.174 16.174 14.3052 16.174 12.0001C16.174 9.69489 14.3052 7.82617 12.0001 7.82617C9.69489 7.82617 7.82617 9.69489 7.82617 12.0001C7.82617 14.3052 9.69489 16.174 12.0001 16.174Z" fill="#0052B4"/>
<path d="M11.9998 14.6085C13.4405 14.6085 14.6085 13.4405 14.6085 11.9998C14.6085 10.5591 13.4405 9.39111 11.9998 9.39111C10.5591 9.39111 9.39111 10.5591 9.39111 11.9998C9.39111 13.4405 10.5591 14.6085 11.9998 14.6085Z" fill="#F0F0F0"/>
<path d="M12.0002 8.78076L12.805 10.606L14.788 10.3903L13.6097 11.9999L14.788 13.6094L12.805 13.3937L12.0002 15.2189L11.1954 13.3937L9.2124 13.6094L10.3907 11.9999L9.2124 10.3903L11.1954 10.606L12.0002 8.78076Z" fill="#0052B4"/>
</g>
<defs>
<clipPath id="clip0_1682_806">
<rect width="24" height="24" fill="white"/>
</clipPath>
</defs>
</svg>
