<svg width="24" height="24" viewBox="0 0 24 24" fill="none" xmlns="http://www.w3.org/2000/svg">
<g clip-path="url(#clip0_1682_2378)">
<path d="M12 24C18.6274 24 24 18.6274 24 12C24 5.37258 18.6274 0 12 0C5.37258 0 0 5.37258 0 12C0 18.6274 5.37258 24 12 24Z" fill="#FFDA44"/>
<path d="M19.3056 2.48062C17.2822 0.925266 14.7493 0 11.9999 0C9.25048 0 6.71755 0.925312 4.69409 2.48062L11.9999 9.78638L19.3056 2.48062Z" fill="#6DA544"/>
<path d="M2.48058 4.69434C0.925312 6.71779 0 9.25068 0 12.0001C0 14.7495 0.925312 17.2824 2.48062 19.3059L9.78642 12.0001L2.48058 4.69434Z" fill="black"/>
<path d="M4.69409 21.5196C6.71759 23.075 9.25048 24.0002 11.9999 24.0002C14.7493 24.0002 17.2822 23.0749 19.3057 21.5196L11.9999 14.2139L4.69409 21.5196Z" fill="#6DA544"/>
<path d="M21.5194 19.3058C23.0747 17.2824 24 14.7495 24 12.0001C24 9.25068 23.0747 6.71779 21.5194 4.69434L14.2136 12.0001L21.5194 19.3058Z" fill="black"/>
</g>
<defs>
<clipPath id="clip0_1682_2378">
<rect width="24" height="24" fill="white"/>
</clipPath>
</defs>
</svg>
