<svg width="24" height="24" viewBox="0 0 24 24" fill="none" xmlns="http://www.w3.org/2000/svg">
<g clip-path="url(#clip0_1682_2350)">
<path d="M12 24C18.6274 24 24 18.6274 24 12C24 5.37258 18.6274 0 12 0C5.37258 0 0 5.37258 0 12C0 18.6274 5.37258 24 12 24Z" fill="#F0F0F0"/>
<path d="M12.0002 0C7.24267 0 3.13192 2.76867 1.19092 6.78263H22.8094C20.8685 2.76867 16.7577 0 12.0002 0Z" fill="black"/>
<path d="M12.0002 23.9999C7.24267 23.9999 3.13192 21.2312 1.19092 17.2173H22.8094C20.8685 21.2312 16.7577 23.9999 12.0002 23.9999Z" fill="#496E2D"/>
<path d="M23.4333 8.34766H0.566672C0.199078 9.49933 0 10.7263 0 11.9998C0 13.2734 0.199078 14.5003 0.566672 15.652H23.4333C23.8009 14.5003 24 13.2734 24 11.9998C24 10.7263 23.8009 9.49933 23.4333 8.34766Z" fill="#A2001D"/>
<path d="M15.7365 5.54557L14.3154 4.88965L11.9998 10.1327L9.68429 4.88965L8.26318 5.54557L11.1379 12.0002L8.26318 18.4549L9.68429 19.1108L11.9998 13.8678L14.3154 19.1108L15.7365 18.4549L12.8617 12.0002L15.7365 5.54557Z" fill="#F0F0F0"/>
<path d="M12.9651 6.16395C12.4149 5.56315 11.9999 5.21777 11.9999 5.21777C11.9999 5.21777 11.5848 5.5631 11.0347 6.16395V17.8368C11.5848 18.4376 11.9999 18.783 11.9999 18.783C11.9999 18.783 12.4149 18.4377 12.9651 17.8368V6.16395Z" fill="#F0F0F0"/>
<path d="M9.39111 8.4019V15.5978C9.97246 16.6279 10.684 17.4722 11.2172 18.0319V5.96777C10.684 6.52751 9.97241 7.37187 9.39111 8.4019Z" fill="#A2001D"/>
<path d="M14.6083 8.4019C14.0269 7.37182 13.3155 6.52751 12.7822 5.96777V18.0319C13.3154 17.4722 14.0269 16.6279 14.6083 15.5978V8.4019Z" fill="#A2001D"/>
<path d="M14.6089 8.40186V15.5977C15.1974 14.5548 15.6524 13.3216 15.6524 11.9998C15.6524 10.6781 15.1974 9.44482 14.6089 8.40186Z" fill="black"/>
<path d="M9.39114 8.40186V15.5977C8.80263 14.5548 8.34766 13.3216 8.34766 11.9998C8.34766 10.6781 8.80263 9.44482 9.39114 8.40186Z" fill="black"/>
</g>
<defs>
<clipPath id="clip0_1682_2350">
<rect width="24" height="24" fill="white"/>
</clipPath>
</defs>
</svg>
