<svg width="24" height="24" viewBox="0 0 24 24" fill="none" xmlns="http://www.w3.org/2000/svg">
<g clip-path="url(#clip0_1682_1301)">
<path d="M12 24C18.6274 24 24 18.6274 24 12C24 5.37258 18.6274 0 12 0C5.37258 0 0 5.37258 0 12C0 18.6274 5.37258 24 12 24Z" fill="#0052B4"/>
<path d="M5.27098 7.30469L5.53002 8.10194H6.36814L5.69009 8.59455L5.94908 9.39166L5.27098 8.89905L4.59284 9.39166L4.85192 8.59455L4.17383 8.10194H5.01191L5.27098 7.30469Z" fill="#F0F0F0"/>
<path d="M7.87982 6.52197L8.13886 7.31918H8.97698L8.29893 7.81178L8.55792 8.60889L7.87982 8.11628L7.20173 8.60889L7.46076 7.81178L6.78271 7.31918H7.62084L7.87982 6.52197Z" fill="#F0F0F0"/>
<path d="M10.4882 5.73926L10.7473 6.53646H11.5854L10.9073 7.02912L11.1663 7.82623L10.4882 7.33357L9.81013 7.82623L10.0692 7.02912L9.39111 6.53646H10.2292L10.4882 5.73926Z" fill="#F0F0F0"/>
<path d="M18.729 7.30469L18.47 8.10194H17.6318L18.3099 8.59455L18.0509 9.39166L18.729 8.89905L19.4071 9.39166L19.1481 8.59455L19.8261 8.10194H18.988L18.729 7.30469Z" fill="#F0F0F0"/>
<path d="M16.1201 6.52197L15.8611 7.31918H15.0229L15.701 7.81178L15.442 8.60889L16.1201 8.11628L16.7982 8.60889L16.5392 7.81178L17.2172 7.31918H16.3791L16.1201 6.52197Z" fill="#F0F0F0"/>
<path d="M13.5117 5.73926L13.2527 6.53646H12.4146L13.0926 7.02912L12.8336 7.82623L13.5117 7.33357L14.1898 7.82623L13.9308 7.02912L14.6088 6.53646H13.7707L13.5117 5.73926Z" fill="#F0F0F0"/>
<path d="M14.0868 12.5218L11.9998 9.91309L10.9563 10.4348V11.4783L9.39114 12.5218H8.34766V13.8699C9.87709 14.4892 10.9563 15.9877 10.9563 17.7392H11.9998V16.6957L13.0433 15.6522L14.0868 16.6957L15.1303 15.6522V14.6087L16.1738 13.0435L14.0868 12.5218Z" fill="#FFDA44"/>
</g>
<defs>
<clipPath id="clip0_1682_1301">
<rect width="24" height="24" fill="white"/>
</clipPath>
</defs>
</svg>
