<svg width="24" height="24" viewBox="0 0 24 24" fill="none" xmlns="http://www.w3.org/2000/svg">
<g clip-path="url(#clip0_1682_719)">
<path d="M12 24C18.6274 24 24 18.6274 24 12C24 5.37258 18.6274 0 12 0C5.37258 0 0 5.37258 0 12C0 18.6274 5.37258 24 12 24Z" fill="#F0F0F0"/>
<path d="M2.74292 4.36393H21.257C20.5732 3.53588 19.7801 2.80158 18.9003 2.18213H5.09965C4.21986 2.80149 3.42678 3.53583 2.74292 4.36393Z" fill="#F0F0F0"/>
<path d="M0 12.0001C0 12.3679 0.0174844 12.7315 0.049875 13.091H23.9501C23.9825 12.7315 24 12.3679 24 12.0001C24 11.6322 23.9825 11.2686 23.9501 10.9092H0.049875C0.0174844 11.2686 0 11.6322 0 12.0001H0Z" fill="#F0F0F0"/>
<path d="M1.30859 17.4547H22.6915C23.0448 16.7635 23.333 16.0336 23.5482 15.2729H0.451904C0.667014 16.0336 0.955295 16.7635 1.30859 17.4547Z" fill="#F0F0F0"/>
<path d="M5.09965 21.818H18.9003C19.7801 21.1986 20.5732 20.4643 21.257 19.6362H2.74292C3.42678 20.4642 4.21986 21.1986 5.09965 21.818Z" fill="#F0F0F0"/>
<path d="M0.451904 8.72721H23.5482C23.3331 7.96652 23.0449 7.23658 22.6915 6.54541H1.30864C0.955342 7.23658 0.667061 7.96652 0.451904 8.72721Z" fill="#F0F0F0"/>
<path d="M5.73901 2.1818H18.9002C16.9483 0.807516 14.5685 0 11.9999 0C10.4347 0 7.69089 0.807516 5.73901 2.1818Z" fill="#D80027"/>
<path d="M11.4783 6.54557H22.6914C22.2924 5.76496 21.8104 5.03375 21.2571 4.36377H11.4783V6.54557Z" fill="#D80027"/>
<path d="M11.4783 10.9093H23.9501C23.8826 10.1602 23.747 9.43062 23.5482 8.72754H11.4783V10.9093Z" fill="#D80027"/>
<path d="M0.451805 15.2726H23.5481C23.7469 14.5696 23.8826 13.84 23.9501 13.0908H0.0498047C0.117305 13.84 0.252961 14.5695 0.451805 15.2726Z" fill="#D80027"/>
<path d="M2.74297 19.6364H21.2571C21.8105 18.9663 22.2924 18.2352 22.6915 17.4546H1.30859C1.70764 18.2352 2.18961 18.9664 2.74297 19.6364Z" fill="#D80027"/>
<path d="M11.9999 24.0002C14.5685 24.0002 16.9484 23.1926 18.9003 21.8184H5.09961C7.05148 23.1926 9.43133 24.0002 11.9999 24.0002Z" fill="#D80027"/>
<path d="M0.451758 8.72728C0.252914 9.43041 0.117305 10.1599 0.0498047 10.9091H11.9999V0C6.50712 0 1.87638 3.69056 0.451758 8.72728Z" fill="#0052B4"/>
<path d="M7.14308 3.13037L7.92003 5.5217H10.4347L8.40041 6.99976L9.17731 9.39123L7.14308 7.91326L5.10875 9.39123L5.88584 6.99976L3.85156 5.5217H6.36608L7.14308 3.13037Z" fill="#F0F0F0"/>
</g>
<defs>
<clipPath id="clip0_1682_719">
<rect width="24" height="24" fill="white"/>
</clipPath>
</defs>
</svg>
