<svg width="24" height="24" viewBox="0 0 24 24" fill="none" xmlns="http://www.w3.org/2000/svg">
<g clip-path="url(#clip0_1682_740)">
<path d="M24 11.9998C24 18.6271 18.6274 23.9998 12 23.9998C5.37262 23.9998 0 18.6271 0 11.9998C0.521719 11.9998 12 10.4346 12 10.4346L24 11.9998Z" fill="#D80027"/>
<path d="M0 12C0 5.37262 5.37262 0 12 0C18.6274 0 24 5.37262 24 12" fill="#0052B4"/>
<path d="M8.8695 8.34797C8.8695 7.48355 8.16872 6.78277 7.3043 6.78277C6.90328 6.78277 6.5378 6.93371 6.26081 7.18163V6.261H6.78253V5.21752H6.26081V4.6958H5.21733V5.21752H4.69561V6.261H5.21733V7.18163C4.94035 6.93371 4.57486 6.78277 4.17385 6.78277C3.30942 6.78277 2.60864 7.48355 2.60864 8.34797C2.60864 8.81143 2.81025 9.22768 3.13036 9.51432V10.4349H8.34774V9.51432C8.66794 9.22768 8.8695 8.81143 8.8695 8.34797Z" fill="#FFDA44"/>
</g>
<defs>
<clipPath id="clip0_1682_740">
<rect width="24" height="24" fill="white"/>
</clipPath>
</defs>
</svg>
