<svg width="24" height="24" viewBox="0 0 24 24" fill="none" xmlns="http://www.w3.org/2000/svg">
<g clip-path="url(#clip0_1682_428)">
<path d="M0 11.9999C0 13.4677 0.264047 14.8738 0.746391 16.1737L12 16.6955L23.2536 16.1738C23.736 14.8738 24 13.4677 24 11.9999C24 10.532 23.736 9.12595 23.2536 7.82596L12 7.3042L0.746391 7.82592C0.264047 9.12595 0 10.532 0 11.9999H0Z" fill="#D80027"/>
<path d="M12.0002 0C6.84061 0 2.4421 3.2565 0.746582 7.82611H23.2538C21.5583 3.2565 17.1598 0 12.0002 0Z" fill="black"/>
<path d="M23.2538 16.1738H0.746582C2.4421 20.7434 6.84061 23.9999 12.0002 23.9999C17.1598 23.9999 21.5583 20.7434 23.2538 16.1738Z" fill="#496E2D"/>
<path d="M15.5869 5.73909L14.1214 5.04974L14.9018 3.63041L13.3104 3.93487L13.1087 2.32715L12.0002 3.50957L10.8918 2.32715L10.6901 3.93487L9.0987 3.63041L9.87912 5.04974L8.41357 5.73909H15.5869Z" fill="#D80027"/>
</g>
<defs>
<clipPath id="clip0_1682_428">
<rect width="24" height="24" fill="white"/>
</clipPath>
</defs>
</svg>
