<svg width="24" height="24" viewBox="0 0 24 24" fill="none" xmlns="http://www.w3.org/2000/svg">
<g clip-path="url(#clip0_1682_2161)">
<path d="M12 24C18.6274 24 24 18.6274 24 12C24 5.37258 18.6274 0 12 0C5.37258 0 0 5.37258 0 12C0 18.6274 5.37258 24 12 24Z" fill="#F0F0F0"/>
<path d="M11.4785 12.0001H24.0002C24.0002 10.9169 23.8559 9.86779 23.5868 8.86963H11.4785V12.0001Z" fill="#D80027"/>
<path d="M11.4785 5.73934H22.239C21.5044 4.54065 20.5652 3.48114 19.4701 2.60889H11.4785V5.73934Z" fill="#D80027"/>
<path d="M12.0001 24.0003C14.8243 24.0003 17.4201 23.0242 19.47 21.3916H4.53027C6.58016 23.0242 9.17596 24.0003 12.0001 24.0003Z" fill="#D80027"/>
<path d="M1.76146 18.2608H22.2389C22.8286 17.2986 23.2859 16.2467 23.5868 15.1304H0.413574C0.714371 16.2467 1.17173 17.2986 1.76146 18.2608Z" fill="#D80027"/>
<path d="M12 12C12 5.37262 12 4.59131 12 0C5.37262 0 0 5.37262 0 12H12Z" fill="#0052B4"/>
<path d="M7.97952 10.2718C6.34068 10.2718 5.01214 8.94327 5.01214 7.30447C5.01214 5.66567 6.34072 4.33709 7.97952 4.33709C8.4905 4.33709 8.9713 4.46633 9.39107 4.69377C8.73257 4.04984 7.832 3.65234 6.83821 3.65234C4.82122 3.65234 3.18604 5.28748 3.18604 7.30452C3.18604 9.32155 4.82122 10.9567 6.83821 10.9567C7.832 10.9567 8.73257 10.5592 9.39107 9.91527C8.9713 10.1426 8.49055 10.2718 7.97952 10.2718Z" fill="#FFDA44"/>
<path d="M8.81549 5.21729L9.34232 6.31894L10.5321 6.04407L9.99927 7.14277L10.9561 7.90153L9.7648 8.17008L9.76813 9.39122L8.81549 8.62725L7.8628 9.39122L7.86609 8.17008L6.6748 7.90153L7.63162 7.14277L7.09879 6.04407L8.28862 6.31894L8.81549 5.21729Z" fill="#FFDA44"/>
</g>
<defs>
<clipPath id="clip0_1682_2161">
<rect width="24" height="24" fill="white"/>
</clipPath>
</defs>
</svg>
