<svg width="24" height="24" viewBox="0 0 24 24" fill="none" xmlns="http://www.w3.org/2000/svg">
<g clip-path="url(#clip0_1682_813)">
<path d="M12 24C18.6274 24 24 18.6274 24 12C24 9.98611 23.5031 8.08847 22.6265 6.42188L11.9859 12.0141L17.5781 1.37353C15.9115 0.496875 14.0139 0 12 0C5.37262 0 0 5.37262 0 12C0 15.3137 1.34316 18.3137 3.51469 20.4853C5.68627 22.6569 8.68627 24 12 24Z" fill="#0052B4"/>
<path d="M22.6136 6.4349C22.0643 5.3894 21.3502 4.40779 20.4711 3.5287C19.592 2.64961 18.6105 1.93546 17.5649 1.38623L3.50049 20.4993L22.6136 6.4349Z" fill="#F0F0F0"/>
<path d="M3.50049 20.4994L22.6136 6.43501C22.0643 5.38951 21.3502 4.4079 20.4711 3.52881L3.50049 20.4994Z" fill="#FF9811"/>
<path d="M10.4208 7.03694L8.95534 7.72628L9.73576 9.14566L8.14436 8.8412L7.9427 10.4488L6.8342 9.26641L5.7257 10.4488L5.52414 8.8412L3.93273 9.14556L4.71306 7.72623L3.24756 7.03694L4.71311 6.34755L3.93273 4.92827L5.52404 5.23262L5.72575 3.625L6.8342 4.80742L7.9427 3.625L8.14436 5.23262L9.73581 4.92827L8.95539 6.34759L10.4208 7.03694Z" fill="#F0F0F0"/>
</g>
<defs>
<clipPath id="clip0_1682_813">
<rect width="24" height="24" fill="white"/>
</clipPath>
</defs>
</svg>
