<svg width="24" height="24" viewBox="0 0 24 24" fill="none" xmlns="http://www.w3.org/2000/svg">
<g clip-path="url(#clip0_1682_1443)">
<path d="M12 24C18.6274 24 24 18.6274 24 12C24 5.37258 18.6274 0 12 0C5.37258 0 0 5.37258 0 12C0 18.6274 5.37258 24 12 24Z" fill="#F0F0F0"/>
<path d="M23.8974 10.435C23.5664 7.90439 22.4296 5.45911 20.4855 3.51496C18.5414 1.57082 16.096 0.434059 13.5654 0.103027L13.5655 10.435H23.8974Z" fill="#0052B4"/>
<path d="M10.435 0.103027C7.90439 0.434059 5.45906 1.57078 3.51492 3.51492C1.57082 5.45911 0.434059 7.90443 0.103027 10.4351L10.435 10.435L10.435 0.103027Z" fill="#0052B4"/>
<path d="M0.103027 13.5654C0.434059 16.096 1.57082 18.5414 3.51492 20.4855C5.45906 22.4296 7.90434 23.5663 10.435 23.8975L10.435 13.5655L0.103027 13.5654Z" fill="#0052B4"/>
<path d="M13.5654 23.8973C16.096 23.5663 18.5413 22.4296 20.4854 20.4854C22.4296 18.5413 23.5663 16.096 23.8973 13.5654H13.5654V23.8973Z" fill="#0052B4"/>
<path d="M16.0961 7.61422C16.0961 7.45466 16.2258 7.32496 16.3854 7.32496H17.0053C17.9851 7.32496 18.7823 6.5278 18.7823 5.54797C18.7823 4.56814 17.9852 3.77094 17.0053 3.77094H16.4166C16.2245 3.62661 15.9667 3.5376 15.6824 3.5376C15.0892 3.5376 14.6084 3.92221 14.6084 4.39668C14.6084 4.86655 15.0801 5.24774 15.6652 5.25514L15.665 5.25857H17.0053C17.1649 5.25857 17.2946 5.38832 17.2946 5.54788C17.2946 5.70744 17.1649 5.83714 17.0053 5.83714H16.3854C15.4055 5.83714 14.6084 6.6343 14.6084 7.61413C14.6084 8.59396 15.4055 9.39116 16.3854 9.39116H18.7823V7.90344H16.3854C16.2258 7.90349 16.0961 7.77379 16.0961 7.61422Z" fill="#F0F0F0"/>
<path d="M6.70491 7.61422C6.70491 7.45466 6.83461 7.32496 6.99422 7.32496H7.6141C8.59397 7.32496 9.39118 6.5278 9.39118 5.54797C9.39118 4.56814 8.59402 3.77094 7.6141 3.77094H7.02544C6.8333 3.62661 6.57554 3.5376 6.29119 3.5376C5.69808 3.5376 5.21729 3.92221 5.21729 4.39668C5.21729 4.86655 5.68889 5.24774 6.27408 5.25514L6.2738 5.25857H7.61414C7.77375 5.25857 7.90346 5.38832 7.90346 5.54788C7.90346 5.70744 7.77375 5.83714 7.61414 5.83714H6.99427C6.01439 5.83714 5.21729 6.6343 5.21729 7.61413C5.21729 8.59396 6.01435 9.39116 6.99427 9.39116H9.39113V7.90344H6.99422C6.83461 7.90349 6.70491 7.77379 6.70491 7.61422Z" fill="#F0F0F0"/>
<path d="M16.0961 18.685C16.0961 18.5255 16.2258 18.3958 16.3854 18.3958H17.0053C17.9852 18.3958 18.7824 17.5986 18.7824 16.6188C18.7824 15.6389 17.9852 14.8417 17.0053 14.8417H16.4166C16.2245 14.6974 15.9667 14.6084 15.6824 14.6084C15.0892 14.6084 14.6084 14.9931 14.6084 15.4675C14.6084 15.9374 15.0801 16.3185 15.6652 16.3259L15.665 16.3294H17.0053C17.1649 16.3294 17.2946 16.4591 17.2946 16.6187C17.2946 16.7782 17.1649 16.9079 17.0053 16.9079H16.3854C15.4055 16.9079 14.6084 17.7051 14.6084 18.6849C14.6084 19.6648 15.4055 20.462 16.3854 20.462H18.7823V18.9743H16.3854C16.2258 18.9743 16.0961 18.8445 16.0961 18.685Z" fill="#F0F0F0"/>
<path d="M6.70496 18.685C6.70496 18.5255 6.83466 18.3958 6.99427 18.3958H7.61414C8.59402 18.3958 9.39122 17.5986 9.39122 16.6188C9.39122 15.6389 8.59407 14.8417 7.61414 14.8417H7.02549C6.83335 14.6974 6.57558 14.6084 6.29124 14.6084C5.69808 14.6084 5.21729 14.9931 5.21729 15.4675C5.21729 15.9374 5.68889 16.3185 6.27408 16.3259L6.2738 16.3294H7.61414C7.77375 16.3294 7.90346 16.4591 7.90346 16.6187C7.90346 16.7782 7.77375 16.9079 7.61414 16.9079H6.99427C6.01439 16.9079 5.21729 17.7051 5.21729 18.6849C5.21729 19.6648 6.01435 20.462 6.99427 20.462H9.39118V18.9743H6.99427C6.83466 18.9743 6.70496 18.8445 6.70496 18.685Z" fill="#F0F0F0"/>
</g>
<defs>
<clipPath id="clip0_1682_1443">
<rect width="24" height="24" fill="white"/>
</clipPath>
</defs>
</svg>
