<svg width="24" height="24" viewBox="0 0 24 24" fill="none" xmlns="http://www.w3.org/2000/svg">
<g clip-path="url(#clip0_1682_1081)">
<path d="M12 24C18.6274 24 24 18.6274 24 12C24 5.37258 18.6274 0 12 0C5.37258 0 0 5.37258 0 12C0 18.6274 5.37258 24 12 24Z" fill="#338AF3"/>
<path d="M5.73926 13.0435H18.261V14.6087H5.73926V13.0435Z" fill="#818085"/>
<path d="M7.82617 8.34777L12.0001 8.86958L16.174 8.34777V5.84342L14.5044 6.67822L12.0001 4.17383L9.49572 6.67822L7.82617 5.84342V8.34777Z" fill="#FFDA44"/>
<path d="M6.78254 16.174H5.21729V13.3044L5.73905 12.5217L5.21729 11.7391V9.91309H6.78254V16.174Z" fill="#F0F0F0"/>
<path d="M18.7825 16.174H17.2173V9.91309H18.7825V11.7391L18.2608 12.5349L18.7825 13.3045V16.174Z" fill="#F0F0F0"/>
<path d="M5.21729 11.7393H18.7825V13.3045H5.21729V11.7393Z" fill="#ACABB1"/>
<path d="M12.0001 18.2606C9.69855 18.2606 7.82617 16.3882 7.82617 14.0868V8.34766H16.174V14.0868C16.174 16.3882 14.3016 18.2606 12.0001 18.2606Z" fill="#F0F0F0"/>
<path d="M11.9998 16.6956C10.5613 16.6956 9.39111 15.5253 9.39111 14.0869V9.91309H14.6085V14.0869C14.6085 15.5253 13.4383 16.6956 11.9998 16.6956Z" fill="#0052B4"/>
<path d="M7.82617 8.34766H9.39138V9.91286H7.82617V8.34766Z" fill="#D80027"/>
<path d="M14.6089 8.34766H16.1741V9.91286H14.6089V8.34766Z" fill="#D80027"/>
<path d="M14.6089 11.7388H16.1741V13.304H14.6089V11.7388Z" fill="#D80027"/>
<path d="M7.82617 11.7388H9.39138V13.304H7.82617V11.7388Z" fill="#D80027"/>
<path d="M11.2173 8.34766H12.7825V9.91286H11.2173V8.34766Z" fill="#D80027"/>
<path d="M11.9999 16.6953C11.7273 16.6953 11.4645 16.6531 11.2173 16.5752V18.1859C11.471 18.2342 11.7323 18.2605 11.9999 18.2605C12.2675 18.2605 12.5288 18.2342 12.7825 18.1859V16.5752C12.5354 16.6531 12.2725 16.6953 11.9999 16.6953Z" fill="#D80027"/>
<path d="M9.42637 14.5103L8.17725 15.7594C8.39381 16.2525 8.70281 16.6958 9.08259 17.0676L10.1888 15.9613C9.79406 15.5799 9.51904 15.0755 9.42637 14.5103Z" fill="#D80027"/>
<path d="M15.8231 15.7594L14.5739 14.5103C14.4812 15.0755 14.2063 15.5798 13.8115 15.9614L14.9178 17.0676C15.2975 16.6958 15.6065 16.2525 15.8231 15.7594Z" fill="#D80027"/>
</g>
<defs>
<clipPath id="clip0_1682_1081">
<rect width="24" height="24" fill="white"/>
</clipPath>
</defs>
</svg>
