<svg width="24" height="24" viewBox="0 0 24 24" fill="none" xmlns="http://www.w3.org/2000/svg">
<g clip-path="url(#clip0_1682_2408)">
<path d="M12 24C18.6274 24 24 18.6274 24 12C24 5.37258 18.6274 0 12 0C5.37258 0 0 5.37258 0 12C0 18.6274 5.37258 24 12 24Z" fill="#F0F0F0"/>
<path d="M3.51451 20.4855C4.0179 20.9889 4.55499 21.4378 5.11838 21.8331L21.8326 5.11887C21.4374 4.55548 20.9884 4.01839 20.485 3.515C19.9816 3.01161 19.4445 2.56273 18.8811 2.16748L2.16699 18.8817C2.5622 19.445 3.01112 19.9821 3.51451 20.4855Z" fill="#A2001D"/>
<path d="M3.51477 3.51465C-0.271044 7.30047 -0.997794 12.986 1.33297 17.5021L17.5021 1.33295C12.9861 -0.997814 7.30049 -0.27097 3.51477 3.51465Z" fill="#0052B4"/>
<path d="M20.4854 20.4855C24.2711 16.6997 24.9979 11.0141 22.6672 6.49805L6.49805 22.6672C11.014 24.998 16.6996 24.2712 20.4854 20.4855Z" fill="#496E2D"/>
<path d="M9.91307 6.7828L8.56842 7.41528L9.28448 8.71756L7.82437 8.43828L7.63931 9.9132L6.62231 8.82838L5.60526 9.9132L5.42029 8.43828L3.96014 8.71752L4.67615 7.41523L3.33154 6.7828L4.6762 6.15027L3.96014 4.84808L5.42025 5.12736L5.60531 3.65234L6.62231 4.73722L7.63936 3.65234L7.82437 5.12736L9.28448 4.84808L8.56851 6.15031L9.91307 6.7828Z" fill="#FFDA44"/>
</g>
<defs>
<clipPath id="clip0_1682_2408">
<rect width="24" height="24" fill="white"/>
</clipPath>
</defs>
</svg>
