<svg width="24" height="24" viewBox="0 0 24 24" fill="none" xmlns="http://www.w3.org/2000/svg">
<g clip-path="url(#clip0_1682_2203)">
<path d="M24 12C24 18.6274 18.6274 24 12 24C5.37262 24 0 18.6274 0 12C0 12.0029 12 0.0013125 12 0C18.6274 0 24 5.37262 24 12Z" fill="#0052B4"/>
<path d="M11.9678 11.9999H11.9999C11.9999 11.9891 11.9999 11.9786 11.9999 11.9678C11.9892 11.9785 11.9785 11.9892 11.9678 11.9999Z" fill="#F0F0F0"/>
<path d="M12 6.26086C12 4.14937 12 2.76586 12 0H11.998C5.3715 0.001125 0 5.37323 0 12H6.26086V8.47448L9.78642 12H11.9679C11.9786 11.9893 11.9894 11.9786 12 11.9679C12 11.1594 12 10.4381 12 9.78647L8.47444 6.26086H12Z" fill="#F0F0F0"/>
<path d="M6.071 1.56543C4.19417 2.63413 2.63389 4.19441 1.56519 6.07124V12.0002H4.69564V4.69598V4.69588H12C12 3.70855 12 2.76796 12 1.56543H6.071Z" fill="#D80027"/>
<path d="M12.0001 10.5247L7.73666 6.26123C7.73666 6.26123 6.26099 6.26132 6.26099 6.26123V6.26132L12 12.0003H12.0001C12.0001 12.0003 12.0001 10.9828 12.0001 10.5247Z" fill="#D80027"/>
<path d="M20.7811 8.90479L21.0401 9.70194H21.8782L21.2002 10.1946L21.4592 10.9917L20.7811 10.4991L20.1029 10.9917L20.362 10.1946L19.6838 9.70194H20.522L20.7811 8.90479Z" fill="#D80027"/>
<path d="M17.7849 14.6436L18.1735 15.8393H19.4307L18.4135 16.5783L18.8021 17.774L17.7849 17.035L16.7678 17.774L17.1563 16.5783L16.1392 15.8393H17.3964L17.7849 14.6436Z" fill="#D80027"/>
<path d="M17.898 5.25244L18.2218 6.24896H19.2695L18.4219 6.86466L18.7457 7.86113L17.898 7.24524L17.0504 7.86113L17.3742 6.86466L16.5266 6.24896H17.5743L17.898 5.25244Z" fill="#D80027"/>
<path d="M15.0152 8.86963L15.4037 10.0654H16.6609L15.6438 10.8043L16.0324 12.0001L15.0152 11.2611L13.998 12.0001L14.3866 10.8043L13.3694 10.0654H14.6266L15.0152 8.86963Z" fill="#D80027"/>
</g>
<defs>
<clipPath id="clip0_1682_2203">
<rect width="24" height="24" fill="white"/>
</clipPath>
</defs>
</svg>
