<svg width="24" height="24" viewBox="0 0 24 24" fill="none" xmlns="http://www.w3.org/2000/svg">
<g clip-path="url(#clip0_1682_1407)">
<path d="M24 12C24 18.6274 18.6274 24 12 24C5.37262 24 0 18.6274 0 12C0 12.0029 12 0.0013125 12 0C18.6274 0 24 5.37262 24 12Z" fill="#FFDA44"/>
<path d="M12.0001 5.73926V9.78659L7.82617 5.73926H12.0001Z" fill="#0052B4"/>
<path d="M6.26098 12.0003H9.78649L6.26098 7.30469L5.73926 10.9569L6.26098 12.0003Z" fill="#0052B4"/>
<path d="M11.9678 11.9999H11.9999C11.9999 11.9891 11.9999 11.9786 11.9999 11.9678C11.9892 11.9785 11.9785 11.9892 11.9678 11.9999Z" fill="#F0F0F0"/>
<path d="M12 6.26086C12 4.14937 12 2.76586 12 0H11.998C5.37145 0.001125 0 5.37323 0 12H6.26086V8.47448L9.78638 12H11.9679C11.9786 11.9893 11.9893 11.9786 12 11.9679C12 11.1594 12 10.4381 12 9.78647L8.47444 6.26086H12Z" fill="#F0F0F0"/>
<path d="M11.9999 10.5247L7.73637 6.26123H6.26074V6.26132L11.9998 12.0003H11.9999C11.9999 12.0003 11.9999 10.9828 11.9999 10.5247Z" fill="#D80027"/>
<path d="M6.071 1.56543C5.60839 1.82887 5.16519 2.12245 4.74369 2.44293H5.23606L3.93472 3.38859L4.43169 4.91845L3.13034 3.97298L2.99187 4.07362C2.45154 4.68721 1.97248 5.35602 1.56519 6.07124V12.0002H4.69564V4.69598V4.69588H12C12 3.70855 12 2.76796 12 1.56543H6.071Z" fill="#D80027"/>
<path d="M5.12625 2.16357C4.99683 2.25418 4.86924 2.34732 4.74356 2.4429L3.93474 3.38856L3.13036 3.9729L2.99072 4.07434C2.69606 4.40903 2.41974 4.76021 2.16333 5.12645C2.4556 5.26829 2.78367 5.34803 3.13036 5.34803C4.35502 5.34803 5.34774 4.35531 5.34774 3.13065C5.34783 2.78387 5.26814 2.45589 5.12625 2.16357Z" fill="#0052B4"/>
<path d="M2.99072 4.07431L3.13036 3.97287L4.43171 4.91839L3.93469 3.38853L5.23594 2.44287H4.74347C4.10625 2.92751 3.51905 3.47426 2.99072 4.07431Z" fill="#FFDA44"/>
<path d="M8.29403 2.08691L8.55306 2.88402H9.39118L8.71314 3.37673L8.97203 4.17384L8.29403 3.68118L7.61598 4.17384L7.87482 3.37673L7.19678 2.88402H8.03495L8.29403 2.08691Z" fill="#FFDA44"/>
<path d="M3.13041 7.3042L3.38944 8.10131H4.22756L3.54956 8.59406L3.80845 9.39117L3.13041 8.89846L2.45231 9.39117L2.7112 8.59406L2.0332 8.10131H2.87133L3.13041 7.3042Z" fill="#FFDA44"/>
</g>
<defs>
<clipPath id="clip0_1682_1407">
<rect width="24" height="24" fill="white"/>
</clipPath>
</defs>
</svg>
