<svg width="24" height="24" viewBox="0 0 24 24" fill="none" xmlns="http://www.w3.org/2000/svg">
<g clip-path="url(#clip0_1682_831)">
<path d="M17.2175 1.19072C15.6399 0.427875 13.87 0 12.0001 0C10.1302 0 8.36037 0.427875 6.78274 1.19072L5.73926 12L6.78274 22.8093C8.36037 23.5721 10.1302 24 12.0001 24C13.87 24 15.6399 23.5721 17.2175 22.8093L18.261 12L17.2175 1.19072Z" fill="#F0F0F0"/>
<path d="M6.78263 1.19092C2.76867 3.13182 0 7.24225 0 11.9998C0 16.7573 2.76867 20.8677 6.78263 22.8086V1.19092Z" fill="#6DA544"/>
<path d="M17.2173 1.19092V22.8086C21.2312 20.8677 23.9999 16.7573 23.9999 11.9998C23.9999 7.24229 21.2312 3.13182 17.2173 1.19092Z" fill="#6DA544"/>
<path d="M15.1305 15.6518L12.0001 5.73877L8.86963 15.6518H11.2175V18.2605H12.7827V15.6518H15.1305Z" fill="#6DA544"/>
</g>
<defs>
<clipPath id="clip0_1682_831">
<rect width="24" height="24" fill="white"/>
</clipPath>
</defs>
</svg>
