<svg width="24" height="24" viewBox="0 0 24 24" fill="none" xmlns="http://www.w3.org/2000/svg">
<g clip-path="url(#clip0_1682_744)">
<path d="M12 24C18.6274 24 24 18.6274 24 12C24 5.37258 18.6274 0 12 0C5.37258 0 0 5.37258 0 12C0 18.6274 5.37258 24 12 24Z" fill="#F0F0F0"/>
<path d="M2.90339 4.17383C2.48231 4.66287 2.10004 5.18614 1.76123 5.73903H22.2387C21.8999 5.18614 21.5176 4.66283 21.0965 4.17383H2.90339Z" fill="#D80027"/>
<path d="M2.90334 19.8259H21.0965C21.5176 19.3369 21.8999 18.8136 22.2387 18.2607H1.76123C2.1 18.8136 2.48226 19.3369 2.90334 19.8259Z" fill="#D80027"/>
<path d="M10.4643 9.80566L11.4488 11.1625L13.0434 10.6454L12.0573 12.0011L13.0417 13.3578L11.4478 12.8388L10.4617 14.1944L10.4626 12.5181L8.86865 11.9991L10.4632 11.4821L10.4643 9.80566Z" fill="#D80027"/>
<path d="M7.77731 15.3914C5.90437 15.3914 4.38599 13.873 4.38599 12.0001C4.38599 10.1272 5.90437 8.6088 7.77731 8.6088C8.36127 8.6088 8.91079 8.75645 9.39051 9.01642C8.63793 8.28044 7.6087 7.82617 6.47296 7.82617C4.16774 7.82617 2.29907 9.69489 2.29907 12.0001C2.29907 14.3052 4.16779 16.174 6.47296 16.174C7.6087 16.174 8.63793 15.7197 9.39051 14.9837C8.91079 15.2438 8.36132 15.3914 7.77731 15.3914Z" fill="#D80027"/>
</g>
<defs>
<clipPath id="clip0_1682_744">
<rect width="24" height="24" fill="white"/>
</clipPath>
</defs>
</svg>
