<svg width="24" height="24" viewBox="0 0 24 24" fill="none" xmlns="http://www.w3.org/2000/svg">
<g clip-path="url(#clip0_1682_1430)">
<path d="M12 24C18.6274 24 24 18.6274 24 12C24 5.37258 18.6274 0 12 0C5.37258 0 0 5.37258 0 12C0 18.6274 5.37258 24 12 24Z" fill="#FCFCFC"/>
<path d="M15.6523 9.91309V10.9566H17.0844C16.4868 11.7872 15.6907 12.4653 14.7658 12.9219C14.5285 12.6754 14.1953 12.5218 13.8262 12.5218C13.2039 12.5218 12.6838 12.9577 12.5536 13.5407C12.3712 13.5568 12.1867 13.5653 12.0001 13.5653C11.8136 13.5653 11.6291 13.5567 11.4467 13.5407C11.3165 12.9577 10.7963 12.5218 10.1741 12.5218C9.80494 12.5218 9.47189 12.6754 9.23452 12.9219C8.30958 12.4653 7.51355 11.7871 6.91589 10.9566H8.34797V9.91309H4.6958C4.6958 13.9471 7.96613 17.2174 12.0001 17.2174C16.0343 17.2174 19.3045 13.9471 19.3045 9.91309H15.6523Z" fill="#D80027"/>
</g>
<defs>
<clipPath id="clip0_1682_1430">
<rect width="24" height="24" fill="white"/>
</clipPath>
</defs>
</svg>
