<svg width="24" height="24" viewBox="0 0 24 24" fill="none" xmlns="http://www.w3.org/2000/svg">
<g clip-path="url(#clip0_1682_668)">
<path d="M12 24C18.6274 24 24 18.6274 24 12C24 5.37258 18.6274 0 12 0C5.37258 0 0 5.37258 0 12C0 18.6274 5.37258 24 12 24Z" fill="#FFDA44"/>
<path d="M13.8249 23.862C15.7766 23.5643 17.5732 22.7957 19.0963 21.6768L12 12L13.8249 23.862Z" fill="#D80027"/>
<path d="M10.1752 0.138184C8.22359 0.435934 6.42706 1.2045 4.90381 2.32336L12.0002 12.0002L10.1752 0.138184Z" fill="#D80027"/>
<path d="M4.90381 21.6768C6.42696 22.7957 8.2235 23.5643 10.1751 23.8621L12.0002 12L4.90381 21.6768Z" fill="#D80027"/>
<path d="M2.32336 4.90381C1.20445 6.42706 0.43598 8.22354 0.138184 10.1752L12.0002 12.0002L2.32336 4.90381Z" fill="#D80027"/>
<path d="M0.138184 13.8249C0.435934 15.7766 1.2045 17.5732 2.3234 19.0963L12.0002 12L0.138184 13.8249Z" fill="#D80027"/>
<path d="M23.862 10.1752C23.5642 8.22354 22.7957 6.42701 21.6768 4.90381L12 12.0002L23.862 10.1752Z" fill="#D80027"/>
<path d="M19.0963 2.32331C17.5731 1.20445 15.7766 0.435934 13.8249 0.138184L12 12.0002L19.0963 2.32331Z" fill="#D80027"/>
<path d="M21.6769 19.0964C22.7958 17.5732 23.5643 15.7766 23.8621 13.825L12 12L21.6769 19.0964Z" fill="#D80027"/>
<path d="M12.0001 16.174C14.3052 16.174 16.174 14.3052 16.174 12.0001C16.174 9.69489 14.3052 7.82617 12.0001 7.82617C9.69489 7.82617 7.82617 9.69489 7.82617 12.0001C7.82617 14.3052 9.69489 16.174 12.0001 16.174Z" fill="#D80027"/>
<path d="M12.0001 15.1305C13.729 15.1305 15.1305 13.729 15.1305 12.0001C15.1305 10.2712 13.729 8.86963 12.0001 8.86963C10.2712 8.86963 8.86963 10.2712 8.86963 12.0001C8.86963 13.729 10.2712 15.1305 12.0001 15.1305Z" fill="#FFDA44"/>
</g>
<defs>
<clipPath id="clip0_1682_668">
<rect width="24" height="24" fill="white"/>
</clipPath>
</defs>
</svg>
