<svg width="24" height="24" viewBox="0 0 24 24" fill="none" xmlns="http://www.w3.org/2000/svg">
<g clip-path="url(#clip0_1682_1162)">
<path d="M12 24C18.6274 24 24 18.6274 24 12C24 5.37257 18.6274 0 12 0C5.37257 0 0 5.37257 0 12C0 18.6274 5.37257 24 12 24Z" fill="#FFDA44"/>
<path d="M3.51466 20.4855C4.01805 20.9889 4.55519 21.4379 5.11859 21.8331L21.8327 5.11892C21.4375 4.55548 20.9886 4.01839 20.4852 3.515C19.9818 3.01161 19.4447 2.56278 18.8813 2.16748L2.16724 18.8817C2.56239 19.4451 3.01127 19.9821 3.51466 20.4855Z" fill="black"/>
<path d="M3.51475 3.51463C-0.271021 7.3004 -0.997819 12.986 1.333 17.502L17.5021 1.33297C12.9861 -0.997801 7.30038 -0.271002 3.51475 3.51463Z" fill="#6DA544"/>
<path d="M20.4852 20.4854C24.271 16.6998 24.9977 11.0141 22.667 6.49805L6.4978 22.6672C11.0138 24.998 16.6995 24.2712 20.4852 20.4854Z" fill="#D80027"/>
<path d="M7.62996 14.1566L8.75018 14.7274L9.63921 13.8384L9.44252 15.0801L10.5627 15.6509L9.32093 15.8475L9.12424 17.0893L8.55349 15.9691L7.31177 16.1658L8.20075 15.2768L7.62996 14.1566Z" fill="#F0F0F0"/>
<path d="M14.1568 7.62971L15.277 8.20051L16.166 7.31152L15.9694 8.5532L17.0896 9.12404L15.8478 9.32073L15.6511 10.5625L15.0803 9.44228L13.8386 9.63892L14.7276 8.74993L14.1568 7.62971Z" fill="#F0F0F0"/>
</g>
<defs>
<clipPath id="clip0_1682_1162">
<rect width="24" height="24" fill="white"/>
</clipPath>
</defs>
</svg>
