<svg width="24" height="24" viewBox="0 0 24 24" fill="none" xmlns="http://www.w3.org/2000/svg">
<g clip-path="url(#clip0_1682_845)">
<path d="M12 24C18.6274 24 24 18.6274 24 12C24 5.37258 18.6274 0 12 0C5.37258 0 0 5.37258 0 12C0 18.6274 5.37258 24 12 24Z" fill="#F0F0F0"/>
<path d="M23.8984 10.4348H13.5653H13.5653V0.101578C13.0529 0.034875 12.5305 0 12 0C11.4695 0 10.9471 0.034875 10.4348 0.101578V10.4347V10.4347H0.101578C0.034875 10.9471 0 11.4695 0 12C0 12.5305 0.034875 13.0529 0.101578 13.5652H10.4347H10.4347V23.8984C10.9471 23.9651 11.4695 24 12 24C12.5305 24 13.0529 23.9652 13.5652 23.8984V13.5653V13.5653H23.8984C23.9651 13.0529 24 12.5305 24 12C24 11.4695 23.9651 10.9471 23.8984 10.4348Z" fill="#D80027"/>
<path d="M17.739 4.17383C16.7665 4.17383 15.9494 4.83894 15.7178 5.73903L17.739 6.26075L19.7602 5.73903C19.5285 4.83898 18.7114 4.17383 17.739 4.17383Z" fill="black"/>
<path d="M15.6521 8.86943L18.2608 9.39115V8.28195C18.9941 8.09313 19.5714 7.51577 19.7601 6.78246L17.7391 6.26074H15.1304L15.6521 7.82594V8.86943Z" fill="black"/>
<path d="M19.7603 5.73926H15.1304V6.78274V7.82623H15.6521V6.78274H19.7601C19.8031 6.61601 19.826 6.44116 19.826 6.26102C19.826 6.08084 19.8032 5.90599 19.7603 5.73926Z" fill="#ACABB1"/>
<path d="M6.78243 4.17383C5.80996 4.17383 4.99289 4.83894 4.76123 5.73903L6.78243 6.26075L8.80364 5.73903C8.57198 4.83898 7.7549 4.17383 6.78243 4.17383Z" fill="black"/>
<path d="M4.69559 8.86943L7.30428 9.39115V8.28195C8.03764 8.09313 8.61486 7.51577 8.80363 6.78246L6.78256 6.26074H4.17383L4.69555 7.82594V8.86943H4.69559Z" fill="black"/>
<path d="M8.80377 5.73926H4.17383V6.78274V7.82623H4.69555V6.78274H8.80358C8.84652 6.61601 8.86948 6.44116 8.86948 6.26102C8.86948 6.08084 8.8467 5.90599 8.80377 5.73926Z" fill="#ACABB1"/>
<path d="M17.739 14.6089C16.7665 14.6089 15.9494 15.274 15.7178 16.1741L17.739 16.6958L19.7602 16.1741C19.5285 15.274 18.7114 14.6089 17.739 14.6089Z" fill="black"/>
<path d="M15.6521 19.3045L18.2608 19.8262V18.717C18.9941 18.5282 19.5714 17.9508 19.7601 17.2175L17.7391 16.6958H15.1304L15.6521 18.261V19.3045Z" fill="black"/>
<path d="M19.7603 16.1738H15.1304V17.2173V18.2608H15.6521V17.2173H19.7601C19.8031 17.0506 19.826 16.8757 19.826 16.6956C19.826 16.5155 19.8032 16.3406 19.7603 16.1738Z" fill="#ACABB1"/>
<path d="M6.78243 14.6089C5.80996 14.6089 4.99289 15.274 4.76123 16.1741L6.78243 16.6958L8.80364 16.1741C8.57198 15.274 7.7549 14.6089 6.78243 14.6089Z" fill="black"/>
<path d="M4.69559 19.3045L7.30428 19.8262V18.717C8.03764 18.5282 8.61486 17.9508 8.80363 17.2175L6.78256 16.6958H4.17383L4.69555 18.261V19.3045H4.69559Z" fill="black"/>
<path d="M8.80377 16.1738H4.17383V17.2173V18.2608H4.69555V17.2173H8.80358C8.84652 17.0506 8.86948 16.8757 8.86948 16.6956C8.86948 16.5155 8.8467 16.3406 8.80377 16.1738Z" fill="#ACABB1"/>
</g>
<defs>
<clipPath id="clip0_1682_845">
<rect width="24" height="24" fill="white"/>
</clipPath>
</defs>
</svg>
