<svg width="24" height="24" viewBox="0 0 24 24" fill="none" xmlns="http://www.w3.org/2000/svg">
<g clip-path="url(#clip0_1682_2131)">
<path d="M12 24C18.6274 24 24 18.6274 24 12C24 5.37258 18.6274 0 12 0C5.37258 0 0 5.37258 0 12C0 18.6274 5.37258 24 12 24Z" fill="#6DA544"/>
<path d="M6.78271 14.3481C6.78271 15.2126 7.4835 15.9133 8.34792 15.9133H13.0436C13.0436 16.6337 13.6275 17.2177 14.3479 17.2177H15.9131C16.6335 17.2177 17.2175 16.6337 17.2175 15.9133V14.3481H6.78271Z" fill="#F0F0F0"/>
<path d="M17.3477 6.78271V10.4349C17.3477 11.0103 16.8796 11.4784 16.3042 11.4784V13.0436C17.7427 13.0436 18.9129 11.8733 18.9129 10.4349V6.78271H17.3477Z" fill="#F0F0F0"/>
<path d="M6.1304 10.4349C6.1304 11.0103 5.6623 11.4784 5.08691 11.4784V13.0436C6.52537 13.0436 7.6956 11.8733 7.6956 10.4349V6.78271H6.1304V10.4349Z" fill="#F0F0F0"/>
<path d="M15 6.78271H16.5652V10.4349H15V6.78271Z" fill="#F0F0F0"/>
<path d="M12.6519 8.86968C12.6519 9.01354 12.5349 9.13054 12.3911 9.13054C12.2472 9.13054 12.1302 9.0135 12.1302 8.86968V6.78271H10.565V8.86968C10.565 9.01354 10.4479 9.13054 10.3041 9.13054C10.1603 9.13054 10.0433 9.0135 10.0433 8.86968V6.78271H8.47803V8.86968C8.47803 9.87661 9.29721 10.6958 10.3041 10.6958C10.6919 10.6958 11.0516 10.5739 11.3476 10.3669C11.6436 10.5739 12.0033 10.6958 12.3911 10.6958C12.4692 10.6958 12.546 10.6903 12.6215 10.6807C12.5106 11.1377 12.099 11.4784 11.6085 11.4784V13.0436C13.0469 13.0436 14.2172 11.8733 14.2172 10.4349V8.86968V6.78271H12.652V8.86968H12.6519Z" fill="#F0F0F0"/>
<path d="M8.47803 11.4785H10.8259V13.0437H8.47803V11.4785Z" fill="#F0F0F0"/>
</g>
<defs>
<clipPath id="clip0_1682_2131">
<rect width="24" height="24" fill="white"/>
</clipPath>
</defs>
</svg>
