<svg width="24" height="24" viewBox="0 0 24 24" fill="none" xmlns="http://www.w3.org/2000/svg">
<g clip-path="url(#clip0_1682_1504)">
<path d="M12 24C18.6274 24 24 18.6274 24 12C24 5.37258 18.6274 0 12 0C5.37258 0 0 5.37258 0 12C0 18.6274 5.37258 24 12 24Z" fill="#F0F0F0"/>
<path d="M0 12C0 5.37263 5.37262 0 12 0C18.6274 0 24 5.37263 24 12" fill="#D80027"/>
<path d="M7.30451 6.26101C7.30451 4.51267 8.53324 3.05214 10.1741 2.69378C9.92187 2.63875 9.66026 2.60889 9.39143 2.60889C7.37435 2.60889 5.73926 4.24398 5.73926 6.26106C5.73926 8.27814 7.37435 9.91323 9.39143 9.91323C9.66016 9.91323 9.92182 9.88337 10.1741 9.82829C8.53324 9.46993 7.30451 8.0094 7.30451 6.26101Z" fill="#F0F0F0"/>
<path d="M12 2.86963L12.259 3.66674H13.0972L12.4191 4.15944L12.6781 4.95655L12 4.46394L11.3219 4.95655L11.5809 4.15944L10.9028 3.66674H11.741L12 2.86963Z" fill="#F0F0F0"/>
<path d="M9.96688 4.43506L10.2259 5.23221H11.064L10.3859 5.72487L10.645 6.52198L9.96688 6.02937L9.28869 6.52198L9.54777 5.72487L8.86963 5.23221H9.7078L9.96688 4.43506Z" fill="#F0F0F0"/>
<path d="M14.0332 4.43506L14.2923 5.23221H15.1304L14.4523 5.72487L14.7113 6.52198L14.0332 6.02937L13.3551 6.52198L13.6141 5.72487L12.936 5.23221H13.7742L14.0332 4.43506Z" fill="#F0F0F0"/>
<path d="M13.251 6.78271L13.51 7.57987H14.3481L13.67 8.07253L13.9291 8.86964L13.251 8.37703L12.5729 8.86964L12.8319 8.07253L12.1538 7.57987H12.9919L13.251 6.78271Z" fill="#F0F0F0"/>
<path d="M10.7495 6.78271L11.0085 7.57987H11.8468L11.1686 8.07253L11.4277 8.86964L10.7495 8.37703L10.0714 8.86964L10.3304 8.07253L9.65234 7.57987H10.4905L10.7495 6.78271Z" fill="#F0F0F0"/>
</g>
<defs>
<clipPath id="clip0_1682_1504">
<rect width="24" height="24" fill="white"/>
</clipPath>
</defs>
</svg>
