<svg width="24" height="24" viewBox="0 0 24 24" fill="none" xmlns="http://www.w3.org/2000/svg">
<g clip-path="url(#clip0_1682_1170)">
<path d="M5.23657 21.9131C7.16248 23.2296 9.49109 24.0001 12 24.0001C14.509 24.0001 16.8376 23.2296 18.7635 21.9131L12 20.8696L5.23657 21.9131Z" fill="#D80027"/>
<path d="M18.7635 2.08697C16.8376 0.770484 14.509 0 12 0C9.49109 0 7.16238 0.770484 5.23657 2.08697L12 3.13045L18.7635 2.08697Z" fill="#D80027"/>
<path d="M5.23657 21.9131C7.16248 23.2296 9.49109 24.0001 12 24.0001C14.509 24.0001 16.8376 23.2296 18.7635 21.9131L12 20.8696L5.23657 21.9131Z" fill="#D80027"/>
<path d="M18.7635 2.08697C16.8376 0.770484 14.509 0 12 0C9.49109 0 7.16238 0.770484 5.23657 2.08697L12 3.13045L18.7635 2.08697Z" fill="#D80027"/>
<path d="M23.9694 11.2174C23.6851 7.51377 21.4347 3.91302 18.7634 2.08691H5.23647C2.27697 4.11009 0.269459 7.42359 0.0251465 11.2174L11.9999 12L23.9694 11.2174Z" fill="#0052B4"/>
<path d="M0.0251465 12.7826C0.269459 16.5765 2.27693 19.8899 5.23643 21.9131H18.7633C21.723 19.89 23.7304 16.5765 23.9747 12.7826L11.9999 12L0.0251465 12.7826Z" fill="#0052B4"/>
<path d="M23.9694 11.2176H12.7826V1.56543H11.2174V11.2176H0.0252656C0.008625 11.4763 0 11.7373 0 12.0002C0 12.2631 0.00857813 12.5241 0.0252187 12.7828H11.2174V22.435H12.7826V12.7828H23.9748C23.9914 12.5241 24 12.2631 24 12.0002C24 11.7392 23.9895 11.4781 23.9694 11.2176Z" fill="#D80027"/>
<path d="M4.69556 12.0002L11.9999 7.40918L19.3042 12.0002L11.9999 16.5913L4.69556 12.0002Z" fill="#F0F0F0"/>
<path d="M7.82617 14.087H17.2174L15.1305 10.9565L14.087 12L13.0435 11.4783L12.0001 13.0435H9.91309L8.86961 12L7.82617 14.087Z" fill="#6DA544"/>
<path d="M11.9999 8.86963L12.259 9.66674H13.0971L12.419 10.1594L12.678 10.9566L11.9999 10.4639L11.3218 10.9566L11.5809 10.1594L10.9028 9.66674H11.7409L11.9999 8.86963Z" fill="#FFDA44"/>
<path d="M11.9999 6.09717L2.60864 11.9999L11.9999 17.9027L21.3913 11.9999L11.9999 6.09717ZM5.54995 11.9999L11.9999 7.94587L18.45 11.9999L11.9999 16.054L5.54995 11.9999Z" fill="#D80027"/>
</g>
<defs>
<clipPath id="clip0_1682_1170">
<rect width="24" height="24" fill="white"/>
</clipPath>
</defs>
</svg>
