<svg width="24" height="24" viewBox="0 0 24 24" fill="none" xmlns="http://www.w3.org/2000/svg">
<g clip-path="url(#clip0_1682_1185)">
<path d="M10.9565 13.0435C10.9565 13.0435 3.52168 3.51305 3.51465 3.51473C5.68618 1.34316 8.68623 0 12 0C18.6273 0 24 5.37262 24 12L10.9565 13.0435Z" fill="#D80027"/>
<path d="M10.9565 12C10.9565 12 3.52168 20.487 3.51465 20.4853C5.68618 22.6568 8.68623 24 12 24C18.6273 24 24 18.6274 24 12H10.9565Z" fill="#0052B4"/>
<path d="M3.51471 3.51465C-1.17157 8.20093 -1.17157 15.7989 3.51471 20.4853C5.45126 18.5487 7.31374 16.6862 12 12L3.51471 3.51465Z" fill="#F0F0F0"/>
<path d="M1.31521 12C1.30865 12.0862 1.3042 12.173 1.3042 12.2608C1.3042 14.1337 2.82257 15.6521 4.69551 15.6521C6.56845 15.6521 8.08682 14.1337 8.08682 12.2608C8.08682 12.173 8.08237 12.0861 8.07581 12H1.31521Z" fill="#FFDA44"/>
<path d="M4.69534 10.4346C5.27164 10.4346 5.73882 9.96744 5.73882 9.39114C5.73882 8.81484 5.27164 8.34766 4.69534 8.34766C4.11904 8.34766 3.65186 8.81484 3.65186 9.39114C3.65186 9.96744 4.11904 10.4346 4.69534 10.4346Z" fill="#FFDA44"/>
<path d="M2.34766 9.13037V12.5217C2.34766 14.3189 4.69548 14.8695 4.69548 14.8695C4.69548 14.8695 7.04331 14.3189 7.04331 12.5217V9.13037H2.34766Z" fill="#D80027"/>
<path d="M4.69663 13.7774C4.26107 13.6207 3.39111 13.2201 3.39111 12.5217V10.1738H5.99985V12.5217C5.99985 13.2224 5.12999 13.622 4.69663 13.7774Z" fill="#338AF3"/>
<path d="M5.21743 11.4784V10.9567L4.69571 10.6958L4.17395 10.9567V11.4784L3.91309 11.7393V12.7828H5.47834V11.7393L5.21743 11.4784Z" fill="#F3F3F3"/>
</g>
<defs>
<clipPath id="clip0_1682_1185">
<rect width="24" height="24" fill="white"/>
</clipPath>
</defs>
</svg>
