<svg width="24" height="24" viewBox="0 0 24 24" fill="none" xmlns="http://www.w3.org/2000/svg">
<g clip-path="url(#clip0_1682_1211)">
<path d="M23.2536 16.174C23.736 14.874 24 13.4679 24 12.0001C24 10.5322 23.736 9.12618 23.2536 7.8262L12 6.78271L0.746391 7.8262C0.264047 9.12618 0 10.5322 0 12.0001C0 13.4679 0.264047 14.874 0.746391 16.174L12 17.2175L23.2536 16.174Z" fill="#F0F0F0"/>
<path d="M12.0002 23.9999C17.1598 23.9999 21.5583 20.7434 23.2538 16.1738H0.746582C2.44214 20.7434 6.84061 23.9999 12.0002 23.9999Z" fill="#D80027"/>
<path d="M12.0002 0C6.84061 0 2.44214 3.2565 0.746582 7.82611H23.2538C21.5583 3.2565 17.1598 0 12.0002 0Z" fill="#496E2D"/>
<path d="M11.9998 9.39111L12.6473 11.3839H14.7427L13.0475 12.6156L13.6951 14.6085L11.9998 13.3769L10.3045 14.6085L10.9521 12.6156L9.25684 11.3839H11.3523L11.9998 9.39111Z" fill="black"/>
<path d="M15.5653 2.34766V4.78239C15.5653 5.16606 15.2532 5.47806 14.8696 5.47806V6.52155C15.8286 6.52155 16.6087 5.74141 16.6087 4.78239V2.34766H15.5653Z" fill="#F0F0F0"/>
<path d="M8.08679 4.78239C8.08679 5.16606 7.77474 5.47806 7.39111 5.47806V6.52155C8.35013 6.52155 9.13027 5.74141 9.13027 4.78239V2.34766H8.08679V4.78239Z" fill="#F0F0F0"/>
<path d="M13.9995 2.34766H15.043V4.78239H13.9995V2.34766Z" fill="#F0F0F0"/>
<path d="M12.4345 3.73891C12.4345 3.83481 12.3564 3.91286 12.2606 3.91286C12.1647 3.91286 12.0866 3.83481 12.0866 3.73891V2.34766H11.0432V3.73891C11.0432 3.83481 10.9652 3.91286 10.8692 3.91286C10.7733 3.91286 10.6953 3.83481 10.6953 3.73891V2.34766H9.65186V3.73891C9.65186 4.41025 10.1979 4.95634 10.8692 4.95634C11.1278 4.95634 11.3676 4.87511 11.5649 4.73716C11.7623 4.87511 12.002 4.95634 12.2605 4.95634C12.3126 4.95634 12.3638 4.95269 12.4142 4.94627C12.3402 5.25091 12.0658 5.47806 11.7388 5.47806V6.52155C12.6978 6.52155 13.4779 5.74141 13.4779 4.78239V3.73891V2.34766H12.4344L12.4345 3.73891Z" fill="#F0F0F0"/>
<path d="M9.65186 5.47803H11.2171V6.52151H9.65186V5.47803Z" fill="#F0F0F0"/>
</g>
<defs>
<clipPath id="clip0_1682_1211">
<rect width="24" height="24" fill="white"/>
</clipPath>
</defs>
</svg>
