<svg width="24" height="24" viewBox="0 0 24 24" fill="none" xmlns="http://www.w3.org/2000/svg">
<g clip-path="url(#clip0_1682_1222)">
<path d="M12 24C18.6274 24 24 18.6274 24 12C24 5.37258 18.6274 0 12 0C5.37258 0 0 5.37258 0 12C0 18.6274 5.37258 24 12 24Z" fill="#F0F0F0"/>
<path d="M23.0639 7.3478C21.2466 3.03103 16.9776 0 12 0C8.68625 0 5.68657 1.34339 3.51514 3.51511L6.52029 7.3478H23.0639Z" fill="black"/>
<path d="M6.55437 16.6089L3.51514 20.485C5.68657 22.6567 8.68625 24.0001 12 24.0001C16.9944 24.0001 21.2756 20.9489 23.0824 16.6089H6.55437Z" fill="#496E2D"/>
<path d="M2.60889 8.82617V15.1305H23.5869C23.856 14.1325 24.0002 13.0832 24.0002 12.0001C24.0002 10.9012 23.8522 9.83717 23.5755 8.82617H2.60889Z" fill="#A2001D"/>
<path d="M3.51471 3.51465C-1.17157 8.20093 -1.17157 15.7989 3.51471 20.4853C5.45126 18.5487 7.31374 16.6862 12 12L3.51471 3.51465Z" fill="#0052B4"/>
<path d="M3.90889 9.0166L5.3735 11.0604L7.77013 10.2989L6.27898 12.3236L7.74359 14.3675L5.35728 13.575L3.86609 15.5996L3.8825 13.0851L1.49609 12.2925L3.89253 11.531L3.90889 9.0166Z" fill="#FFDA44"/>
</g>
<defs>
<clipPath id="clip0_1682_1222">
<rect width="24" height="24" fill="white"/>
</clipPath>
</defs>
</svg>
