<svg width="24" height="24" viewBox="0 0 24 24" fill="none" xmlns="http://www.w3.org/2000/svg">
<g clip-path="url(#clip0_1682_759)">
<path d="M12 24C18.6274 24 24 18.6274 24 12C24 5.37258 18.6274 0 12 0C5.37258 0 0 5.37258 0 12C0 18.6274 5.37258 24 12 24Z" fill="#F0F0F0"/>
<path d="M21.426 9.65199H17.4782C17.4782 8.93164 16.8942 8.34766 16.1739 8.34766L15.1304 10.4346C15.1304 10.4346 16.2434 13.565 16.2086 13.565H17.513C18.2334 13.565 18.8173 12.9811 18.8173 12.2607C19.5377 12.2607 20.1216 11.6768 20.1216 10.9564H20.0782C20.7986 10.9563 21.426 10.3724 21.426 9.65199Z" fill="#ACABB1"/>
<path d="M2.57397 9.65199H6.52179C6.52179 8.93164 7.10577 8.34766 7.82613 8.34766L8.86962 10.4346C8.86962 10.4346 7.75655 13.565 7.79136 13.565H6.48703C5.76662 13.565 5.18269 12.9811 5.18269 12.2607C4.46229 12.2607 3.87836 11.6768 3.87836 10.9564H3.9218C3.2014 10.9563 2.57397 10.3724 2.57397 9.65199Z" fill="#ACABB1"/>
<path d="M16.1738 16.6958V17.2175H7.82596V16.6958H5.73901V18.7827H7.82596V19.3045H16.1738V18.7827H18.2607V16.6958H16.1738Z" fill="#FFDA44"/>
<path d="M7.82617 8.3479V13.5652C7.82617 16.7602 12.0001 17.7392 12.0001 17.7392C12.0001 17.7392 16.174 16.7602 16.174 13.5652V8.3479L12.0001 7.82617L7.82617 8.3479Z" fill="#0052B4"/>
<path d="M7.82617 10.4351H16.174V13.5655H7.82617V10.4351Z" fill="#D80027"/>
<path d="M14.087 5.7393V6.52191L13.5653 6.78279L13.0436 6.26102V4.6958H10.9566V6.26102L10.4349 6.78279L9.91312 6.52191V5.7393H7.82617V8.34797H16.174V5.7393H14.087Z" fill="#FFDA44"/>
</g>
<defs>
<clipPath id="clip0_1682_759">
<rect width="24" height="24" fill="white"/>
</clipPath>
</defs>
</svg>
