<svg width="24" height="24" viewBox="0 0 24 24" fill="none" xmlns="http://www.w3.org/2000/svg">
<g clip-path="url(#clip0_1682_689)">
<path d="M1.19072 6.78274C0.427875 8.36037 0 10.1302 0 12.0001C0 13.87 0.427875 15.6399 1.19072 17.2175L12 18.261L22.8093 17.2175C23.5721 15.6399 24 13.87 24 12.0001C24 10.1302 23.5721 8.36037 22.8093 6.78274L12 5.73926L1.19072 6.78274Z" fill="#F0F0F0"/>
<path d="M1.19092 17.2173C3.13182 21.2312 7.24225 23.9999 11.9998 23.9999C16.7573 23.9999 20.8677 21.2312 22.8086 17.2173H1.19092Z" fill="black"/>
<path d="M1.19092 6.78263H22.8086C20.8677 2.76867 16.7573 0 11.9998 0C7.24225 0 3.13182 2.76867 1.19092 6.78263Z" fill="#D80027"/>
<path d="M3.51471 3.51465C-1.17157 8.20093 -1.17157 15.7989 3.51471 20.4853C5.45126 18.5487 7.31374 16.6862 12 12L3.51471 3.51465Z" fill="#496E2D"/>
</g>
<defs>
<clipPath id="clip0_1682_689">
<rect width="24" height="24" fill="white"/>
</clipPath>
</defs>
</svg>
