<svg width="24" height="24" viewBox="0 0 24 24" fill="none" xmlns="http://www.w3.org/2000/svg">
<g clip-path="url(#clip0_1682_539)">
<path d="M22.8093 17.2173C23.5721 15.6397 24 13.8697 24 11.9999C24 10.13 23.5721 8.36009 22.8093 6.78251L12 6.26074L1.19072 6.78246C0.427875 8.36009 0 10.13 0 11.9999C0 13.8697 0.427875 15.6397 1.19072 17.2173L12 17.739L22.8093 17.2173Z" fill="#FFDA44"/>
<path d="M12 0C7.24242 0 3.13167 2.76867 1.19067 6.78263H22.8092C20.8682 2.76867 16.7574 0 12 0Z" fill="black"/>
<path d="M12 23.9999C7.24242 23.9999 3.13167 21.2312 1.19067 17.2173H22.8092C20.8682 21.2312 16.7574 23.9999 12 23.9999Z" fill="#0052B4"/>
<path d="M23.4333 8.34766H0.566672C0.199078 9.49933 0 10.7263 0 11.9998C0 13.2734 0.199078 14.5003 0.566672 15.652H23.4333C23.8009 14.5003 24 13.2734 24 11.9998C24 10.7263 23.8009 9.49933 23.4333 8.34766Z" fill="#A2001D"/>
<path d="M4.17383 11.478H19.826V12.5215H4.17383V11.478Z" fill="#FFDA44"/>
<path d="M6.26074 9.39111H17.739V10.4346H6.26074V9.39111Z" fill="#FFDA44"/>
<path d="M17.8138 12.0001C17.8138 12.0001 15.1305 15.1305 12.0001 15.1305C8.86968 15.1305 8.86963 12.0001 8.86963 12.0001C8.86963 12.0001 8.86963 8.86963 12.0001 8.86963C15.1305 8.86963 17.8138 12.0001 17.8138 12.0001Z" fill="#F0F0F0"/>
<path d="M12 15.1305C8.8695 15.1305 6.18628 12.0001 6.18628 12.0001C6.18628 12.0001 8.8695 8.86963 12 8.86963" fill="black"/>
<path d="M9.91309 10.9565H10.9566V13.0435H9.91309V10.9565Z" fill="#F0F0F0"/>
<path d="M13.0435 10.9565H14.0869V13.0435H13.0435V10.9565Z" fill="black"/>
<path d="M4.17386 13.0435C4.75016 13.0435 5.21734 12.5763 5.21734 12C5.21734 11.4237 4.75016 10.9565 4.17386 10.9565C3.59756 10.9565 3.13037 11.4237 3.13037 12C3.13037 12.5763 3.59756 13.0435 4.17386 13.0435Z" fill="#0052B4"/>
<path d="M19.826 13.0435C20.4023 13.0435 20.8694 12.5763 20.8694 12C20.8694 11.4237 20.4023 10.9565 19.826 10.9565C19.2497 10.9565 18.7825 11.4237 18.7825 12C18.7825 12.5763 19.2497 13.0435 19.826 13.0435Z" fill="#0052B4"/>
</g>
<defs>
<clipPath id="clip0_1682_539">
<rect width="24" height="24" fill="white"/>
</clipPath>
</defs>
</svg>
