<svg width="24" height="24" viewBox="0 0 24 24" fill="none" xmlns="http://www.w3.org/2000/svg">
<g clip-path="url(#clip0_1682_2011)">
<path d="M24 12C24 18.6274 18.6274 24 12 24C5.37262 24 0 18.6274 0 12C4.12172 7.87828 7.61737 4.38263 12 0C18.6274 0 24 5.37262 24 12Z" fill="#D80027"/>
<path d="M12 12C12 5.37262 12 4.59131 12 0C5.37262 0 0 5.37262 0 12H12Z" fill="#0052B4"/>
<path d="M10.435 7.02268L8.96945 7.71212L9.74983 9.13145L8.15847 8.82695L7.95677 10.4346L6.84836 9.25225L5.73986 10.4346L5.53825 8.82695L3.94684 9.13136L4.72722 7.71203L3.26172 7.02268L4.72727 6.33339L3.94684 4.91401L5.5382 5.21846L5.73991 3.61084L6.84836 4.79321L7.95681 3.61084L8.15847 5.21846L9.74988 4.91401L8.96945 6.33343L10.435 7.02268Z" fill="#F0F0F0"/>
<path d="M6.84848 9.25653C8.08214 9.25653 9.08222 8.25645 9.08222 7.0228C9.08222 5.78914 8.08214 4.78906 6.84848 4.78906C5.61482 4.78906 4.61475 5.78914 4.61475 7.0228C4.61475 8.25645 5.61482 9.25653 6.84848 9.25653Z" fill="#0052B4"/>
<path d="M6.84792 8.21302C6.19162 8.21302 5.65771 7.67907 5.65771 7.02277C5.65771 6.36647 6.19167 5.83252 6.84792 5.83252C7.50421 5.83252 8.03817 6.36647 8.03817 7.02277C8.03812 7.67907 7.50412 8.21302 6.84792 8.21302Z" fill="#F0F0F0"/>
</g>
<defs>
<clipPath id="clip0_1682_2011">
<rect width="24" height="24" fill="white"/>
</clipPath>
</defs>
</svg>
