<svg width="24" height="24" viewBox="0 0 24 24" fill="none" xmlns="http://www.w3.org/2000/svg">
<g clip-path="url(#clip0_1682_2523)">
<path d="M12 24C18.6274 24 24 18.6274 24 12C24 5.37258 18.6274 0 12 0C5.37258 0 0 5.37258 0 12C0 18.6274 5.37258 24 12 24Z" fill="#FFDA44"/>
<path d="M3.51471 20.4851C4.0181 20.9885 4.55519 21.4374 5.11858 21.8326L21.8328 5.11838C21.4376 4.55499 20.9887 4.0179 20.4853 3.51451C19.9818 3.01112 19.4448 2.56224 18.8814 2.16699L2.16724 18.8813C2.56239 19.4445 3.01136 19.9816 3.51471 20.4851Z" fill="black"/>
<path d="M3.51471 3.51465C-0.271007 7.30047 -0.997804 12.986 1.33296 17.5021L17.5021 1.33295C12.986 -0.997814 7.30048 -0.27097 3.51471 3.51465Z" fill="#6DA544"/>
<path d="M20.4852 20.4855C24.2709 16.6997 24.9976 11.0141 22.667 6.49805L6.4978 22.6672C11.0138 24.998 16.6994 24.2712 20.4852 20.4855Z" fill="#338AF3"/>
</g>
<defs>
<clipPath id="clip0_1682_2523">
<rect width="24" height="24" fill="white"/>
</clipPath>
</defs>
</svg>
