<svg width="24" height="24" viewBox="0 0 24 24" fill="none" xmlns="http://www.w3.org/2000/svg">
<g clip-path="url(#clip0_1682_901)">
<path d="M12 24C18.6274 24 24 18.6274 24 12C24 5.37258 18.6274 0 12 0C5.37258 0 0 5.37258 0 12C0 18.6274 5.37258 24 12 24Z" fill="#FFDA44"/>
<path d="M12 0C11.9913 9.375e-05 11.4783 4.8 11.4783 4.8H21.6006C19.4113 1.88545 15.9259 0 12 0Z" fill="#496E2D"/>
<path d="M11.9999 24.0002C15.9258 24.0002 19.4112 22.1147 21.6004 19.2002H2.39941C4.58866 22.1147 8.07405 24.0002 11.9999 24.0002Z" fill="#496E2D"/>
<path d="M23.7597 9.6001H11.4783L12 14.4001H23.7597C23.9172 13.6246 24 12.8221 24 12.0001C24 11.1781 23.9171 10.3756 23.7597 9.6001Z" fill="#496E2D"/>
<path d="M12 14.4C12 11.8957 12 2.81737 12 0C5.37262 0 0 5.37262 0 12C0 12.822 0.082875 13.6245 0.240281 14.4H12Z" fill="#D80027"/>
<path d="M6.6213 5.73926L7.3983 8.13059H9.91291L7.87868 9.6087L8.65558 12.0001L6.6213 10.5221L4.58702 12.0001L5.36407 9.6087L3.32983 8.13059H5.84435L6.6213 5.73926Z" fill="#F0F0F0"/>
</g>
<defs>
<clipPath id="clip0_1682_901">
<rect width="24" height="24" fill="white"/>
</clipPath>
</defs>
</svg>
