<svg width="24" height="24" viewBox="0 0 24 24" fill="none" xmlns="http://www.w3.org/2000/svg">
<g clip-path="url(#clip0_1682_1250)">
<path d="M23.5868 8.86955C22.2098 3.76036 17.5445 0 12.0002 0C6.45585 0 1.79057 3.76036 0.413574 8.86955L12.0002 9.39131L23.5868 8.86955Z" fill="#A2001D"/>
<path d="M0.413574 15.1307C1.79057 20.2398 6.45585 24.0002 12.0002 24.0002C17.5445 24.0002 22.2098 20.2398 23.5868 15.1307L12.0002 14.6089L0.413574 15.1307Z" fill="#A2001D"/>
<path d="M23.5866 8.86963H0.413391C0.144375 9.86774 0 10.9169 0 12.0001C0 13.0832 0.144375 14.1324 0.413391 15.1305H23.5867C23.8556 14.1324 24 13.0832 24 12.0001C24 10.9169 23.8556 9.86774 23.5866 8.86963Z" fill="#6DA544"/>
</g>
<defs>
<clipPath id="clip0_1682_1250">
<rect width="24" height="24" fill="white"/>
</clipPath>
</defs>
</svg>
