<svg width="24" height="24" viewBox="0 0 24 24" fill="none" xmlns="http://www.w3.org/2000/svg">
<g clip-path="url(#clip0_1682_567)">
<path d="M6.49763 1.33252C5.42335 1.887 4.41493 2.6138 3.51436 3.51436C2.61375 4.41497 1.88696 5.42339 1.33252 6.49768L9.04847 14.9515L17.5023 22.6675C18.5767 22.113 19.5851 21.3862 20.4856 20.4857C21.3863 19.5851 22.113 18.5767 22.6675 17.5024L14.9515 9.04847L6.49763 1.33252Z" fill="#F0F0F0"/>
<path d="M20.4858 20.4859C20.9892 19.9825 21.4382 19.4454 21.8334 18.882L5.11852 2.16699C4.55513 2.5622 4.01799 3.01116 3.5146 3.51455C3.01121 4.01795 2.56224 4.55509 2.16699 5.11852L18.8819 21.8334C19.4453 21.4382 19.9824 20.9893 20.4858 20.4859Z" fill="black"/>
<path d="M3.51431 20.4856C7.30026 24.2715 12.9861 24.9983 17.5023 22.6674L1.33251 6.49756C-0.998347 11.0138 -0.271457 16.6996 3.51431 20.4856Z" fill="#D80027"/>
<path d="M20.4855 3.51437C16.6996 -0.271537 11.0138 -0.998287 6.49756 1.33248L22.6673 17.5024C24.9982 12.9862 24.2715 7.30027 20.4855 3.51437Z" fill="#D80027"/>
</g>
<defs>
<clipPath id="clip0_1682_567">
<rect width="24" height="24" fill="white"/>
</clipPath>
</defs>
</svg>
