<svg width="24" height="24" viewBox="0 0 24 24" fill="none" xmlns="http://www.w3.org/2000/svg">
<g clip-path="url(#clip0_1682_909)">
<path d="M12 0C11.104 0 10.2313 0.0990469 9.39135 0.285234L8.86963 12L9.39135 23.7147C10.2313 23.9009 11.1041 24 12 24C18.6274 24 24 18.6274 24 12C23.9999 5.37258 18.6274 0 12 0V0Z" fill="#496E2D"/>
<path d="M3.13041 3.91748C1.18584 6.05011 0 8.88651 0 12C0 15.1136 1.18589 17.95 3.13045 20.0827L3.65217 12L3.13041 3.91748Z" fill="#496E2D"/>
<path d="M17.5509 9.0518C18.1413 7.40621 17.478 5.61647 16.0546 4.7251C16.3106 4.75843 16.5669 4.81871 16.8199 4.90941C18.7185 5.5906 19.7054 7.68179 19.0242 9.58032C18.343 11.479 16.2518 12.4658 14.3532 11.7846C14.1002 11.6939 13.864 11.5774 13.6453 11.4404C15.3107 11.6573 16.9605 10.6974 17.5509 9.0518Z" fill="#F0F0F0"/>
<path d="M14.2766 4.27393L13.7636 4.93683L12.9747 4.65375L13.4465 5.34647L12.9336 6.00929L13.7382 5.77463L14.2101 6.46725L14.2355 5.6295L15.0401 5.3948L14.2513 5.11182L14.2766 4.27393Z" fill="#F0F0F0"/>
<path d="M15.6617 6.43408L15.1486 7.09694L14.3597 6.81386L14.8316 7.50658L14.3186 8.16939L15.1232 7.93464L15.5952 8.62741L15.6206 7.78961L16.4252 7.55486L15.6363 7.27183L15.6617 6.43408Z" fill="#F0F0F0"/>
<path d="M11.8342 5.06055L11.3212 5.72336L10.5323 5.44037L11.0042 6.13305L10.4912 6.79591L11.2958 6.5612L11.7677 7.25388L11.7931 6.41612L12.5977 6.18142L11.8089 5.89834L11.8342 5.06055Z" fill="#F0F0F0"/>
<path d="M11.7779 7.53467L11.2649 8.19753L10.476 7.9145L10.9479 8.60721L10.4348 9.27003L11.2395 9.03537L11.7114 9.728L11.7368 8.89025L12.5414 8.65554L11.7525 8.37246L11.7779 7.53467Z" fill="#F0F0F0"/>
<path d="M14.1321 8.37939L13.6191 9.04221L12.8302 8.75918L13.3022 9.45189L12.7891 10.1147L13.5938 9.88L14.0657 10.5727L14.091 9.73488L14.8957 9.50022L14.1067 9.21719L14.1321 8.37939Z" fill="#F0F0F0"/>
<path d="M3.13037 3.91731V20.0825C4.76537 21.8756 6.93709 23.1706 9.39123 23.7146V0.285156C6.93704 0.829188 4.76542 2.12411 3.13037 3.91731Z" fill="#D80027"/>
<path d="M5.51961 6.31822L4.47144 5.53737V4.43314L5.51961 3.65234H7.00203L8.0502 4.43314V5.53737L7.00203 6.31822H5.51961Z" fill="#F0F0F0"/>
<path d="M6.26084 3.65234H5.51961L4.47144 4.43314V4.973H6.26084V3.65234Z" fill="#FF9811"/>
<path d="M6.26074 6.31826H7.00193L8.0501 5.53742V4.97412H6.26074V6.31826Z" fill="#FF9811"/>
<path d="M5.51961 20.3475L4.47144 19.5667V18.4625L5.51961 17.6816H7.00203L8.0502 18.4625V19.5667L7.00203 20.3475H5.51961Z" fill="#F0F0F0"/>
<path d="M6.26084 17.6816H5.51961L4.47144 18.4625V19.0023H6.26084V17.6816Z" fill="#FF9811"/>
<path d="M6.26074 20.3475H7.00193L8.0501 19.5667V19.0034H6.26074V20.3475Z" fill="#FF9811"/>
<path d="M5.51961 13.3329L4.47144 12.552V11.4478L5.51961 10.667H7.00203L8.0502 11.4478V12.552L7.00203 13.3329H5.51961Z" fill="#496E2D"/>
<path d="M8.08694 15.0511H7.63038V14.5946H6.82811L6.26083 14.0273L5.6936 14.5946H4.89133V15.0511H4.43481V15.9642H4.89133V16.4207H5.69355L6.26088 16.988L6.82811 16.4207H7.63038V15.9642H8.08694V15.0511Z" fill="#496E2D"/>
<path d="M8.08694 8.03605H7.63038V7.57949H6.82811L6.26083 7.01221L5.6936 7.57949H4.89133V8.03605H4.43481V8.94908H4.89133V9.4056H5.69355L6.26088 9.97297L6.82811 9.4056H7.63038V8.94908H8.08694V8.03605Z" fill="#496E2D"/>
<path d="M5.73901 11.4785H6.7825V12.522H5.73901V11.4785Z" fill="#D80027"/>
<path d="M6.26073 9.01414C6.54887 9.01414 6.78245 8.78056 6.78245 8.49242C6.78245 8.20428 6.54887 7.9707 6.26073 7.9707C5.97259 7.9707 5.73901 8.20428 5.73901 8.49242C5.73901 8.78056 5.97259 9.01414 6.26073 9.01414Z" fill="#D80027"/>
<path d="M6.26073 16.0293C6.54887 16.0293 6.78245 15.7957 6.78245 15.5076C6.78245 15.2194 6.54887 14.9858 6.26073 14.9858C5.97259 14.9858 5.73901 15.2194 5.73901 15.5076C5.73901 15.7957 5.97259 16.0293 6.26073 16.0293Z" fill="#D80027"/>
</g>
<defs>
<clipPath id="clip0_1682_909">
<rect width="24" height="24" fill="white"/>
</clipPath>
</defs>
</svg>
