<svg width="24" height="24" viewBox="0 0 24 24" fill="none" xmlns="http://www.w3.org/2000/svg">
<g clip-path="url(#clip0_1682_1708)">
<path d="M12 24C18.6274 24 24 18.6274 24 12C24 5.37258 18.6274 0 12 0C5.37258 0 0 5.37258 0 12C0 18.6274 5.37258 24 12 24Z" fill="#D80027"/>
<path d="M14.5087 9.80566L15.4933 11.1625L17.0879 10.6454L16.1017 12.0011L17.0862 13.3578L15.4922 12.8388L14.5061 14.1944L14.5071 12.5181L12.9131 11.9991L14.5077 11.4821L14.5087 9.80566Z" fill="#F0F0F0"/>
<path d="M11.8215 15.3914C9.94856 15.3914 8.43018 13.873 8.43018 12.0001C8.43018 10.1272 9.94856 8.6088 11.8215 8.6088C12.4055 8.6088 12.9549 8.7565 13.4347 9.01642C12.6821 8.28039 11.6528 7.82617 10.5172 7.82617C8.21193 7.82617 6.34326 9.69489 6.34326 12.0001C6.34326 14.3052 8.21198 16.174 10.5172 16.174C11.6529 16.174 12.6821 15.7197 13.4347 14.9837C12.9549 15.2437 12.4055 15.3914 11.8215 15.3914Z" fill="#F0F0F0"/>
</g>
<defs>
<clipPath id="clip0_1682_1708">
<rect width="24" height="24" fill="white"/>
</clipPath>
</defs>
</svg>
