<svg width="24" height="24" viewBox="0 0 24 24" fill="none" xmlns="http://www.w3.org/2000/svg">
<g clip-path="url(#clip0_1682_937)">
<path d="M24 12C24 18.6274 18.6274 24 12 24C5.37263 24 0 18.6274 0 12C0 12.0029 12 0.0013125 12 0C18.6274 0 24 5.37262 24 12Z" fill="#338AF3"/>
<path d="M5.73926 12.0001H9.78654L6.26098 7.82617L5.73926 9.39138V12.0001Z" fill="#0052B4"/>
<path d="M12.0001 9.78659L7.82617 5.73926H12.0001L12.0001 9.78659Z" fill="#0052B4"/>
<path d="M11.9678 11.9999H11.9999C11.9999 11.9891 11.9999 11.9786 11.9999 11.9678C11.9892 11.9785 11.9785 11.9892 11.9678 11.9999Z" fill="#F0F0F0"/>
<path d="M12 6.26086C12 4.14937 12 2.76581 12 0H11.998C5.3715 0.001125 0 5.37323 0 12H6.26091V8.47448L9.78642 12H11.968C11.9787 11.9893 11.9894 11.9786 12.0001 11.9679C12.0001 11.1594 12.0001 10.4381 12.0001 9.78647L8.47444 6.26086H12Z" fill="#F0F0F0"/>
<path d="M6.071 1.56543C4.19417 2.63413 2.63389 4.19441 1.56519 6.07124V12.0002H4.69564V4.69598V4.69588H12C12 3.70855 12 2.76796 12 1.56543H6.071Z" fill="#D80027"/>
<path d="M12.0001 10.5247L7.73661 6.26123H6.26099V6.26132L12 12.0003H12.0001C12.0001 12.0003 12.0001 10.9828 12.0001 10.5247Z" fill="#D80027"/>
<path d="M13.0972 19.8262L13.3562 20.6233H14.1944L13.5163 21.116L13.7753 21.9131L13.0972 21.4205L12.4191 21.9131L12.6781 21.116L12 20.6233H12.8381L13.0972 19.8262Z" fill="#FFDA44"/>
<path d="M19.7725 14.6089L20.0315 15.406H20.8697L20.1916 15.8987L20.4507 16.6959L19.7725 16.2032L19.0944 16.6959L19.3535 15.8987L18.6753 15.406H19.5135L19.7725 14.6089Z" fill="#FFDA44"/>
<path d="M21.4451 6.78271L21.7041 7.57987H22.5423L21.8642 8.07253L22.1232 8.86964L21.4451 8.37703L20.767 8.86964L21.026 8.07253L20.3479 7.57987H21.1861L21.4451 6.78271Z" fill="#FFDA44"/>
<path d="M21.8594 12.522L22.1184 13.3192H22.9566L22.2785 13.8118L22.5376 14.6089L21.8594 14.1163L21.1814 14.6089L21.4404 13.8118L20.7622 13.3192H21.6004L21.8594 12.522Z" fill="#FFDA44"/>
<path d="M14.299 17.9513L15.0459 18.3319L15.6386 17.7393L15.5075 18.567L16.2543 18.9476L15.4264 19.0787L15.2953 19.9066L14.9148 19.1597L14.0869 19.2909L14.6796 18.6983L14.299 17.9513Z" fill="#FFDA44"/>
<path d="M14.299 14.821L15.0459 15.2015L15.6386 14.6089L15.5075 15.4367L16.2543 15.8172L15.4264 15.9483L15.2953 16.7762L14.9148 16.0294L14.0869 16.1605L14.6796 15.5679L14.299 14.821Z" fill="#FFDA44"/>
<path d="M16.9076 16.8273L17.6546 17.2079L18.2472 16.6152L18.1162 17.443L18.8629 17.8235L18.035 17.9547L17.9039 18.7825L17.5235 18.0356L16.6956 18.1669L17.2882 17.5743L16.9076 16.8273Z" fill="#FFDA44"/>
<path d="M16.9076 10.1252L17.6546 10.5057L18.2472 9.91309L18.1162 10.7409L18.8629 11.1214L18.035 11.2525L17.9039 12.0804L17.5235 11.3336L16.6956 11.4647L17.2882 10.8721L16.9076 10.1252Z" fill="#FFDA44"/>
<path d="M19.4359 10.0451L20.1829 10.4256L20.7755 9.83301L20.6444 10.6608L21.3912 11.0413L20.5633 11.1725L20.4322 12.0003L20.0518 11.2535L19.2239 11.3847L19.8165 10.792L19.4359 10.0451Z" fill="#FFDA44"/>
</g>
<defs>
<clipPath id="clip0_1682_937">
<rect width="24" height="24" fill="white"/>
</clipPath>
</defs>
</svg>
