<svg width="24" height="24" viewBox="0 0 24 24" fill="none" xmlns="http://www.w3.org/2000/svg">
<g clip-path="url(#clip0_1682_2222)">
<path d="M12 24C18.6274 24 24 18.6274 24 12C24 5.37258 18.6274 0 12 0C5.37258 0 0 5.37258 0 12C0 18.6274 5.37258 24 12 24Z" fill="#338AF3"/>
<path d="M11.9654 7.82617C9.66013 7.82617 7.7915 9.69489 7.7915 12.0001C7.7915 14.3052 9.66018 16.174 11.9654 16.174C14.2705 16.174 16.1393 14.3052 16.1393 12.0001C16.1393 9.69489 14.2705 7.82617 11.9654 7.82617ZM10.9219 12.0001C10.9219 11.4238 11.3891 10.9566 11.9654 10.9566C12.5417 10.9566 13.0089 11.4238 13.0089 12.0001C13.0089 12.5764 12.5417 13.0435 11.9654 13.0435C11.3891 13.0435 10.9219 12.5764 10.9219 12.0001ZM13.0473 10.2151C12.8853 10.1167 12.7088 10.0403 12.5218 9.9887V8.91995C12.9925 9.00442 13.4265 9.19375 13.799 9.46347L13.0473 10.2151ZM11.4784 9.97084C11.2826 10.0177 11.0976 10.0921 10.9277 10.1897L10.1725 9.43455C10.5543 9.16727 10.9981 8.98262 11.4784 8.90748V9.97084ZM10.9276 13.8104C11.0976 13.908 11.2826 13.9825 11.4784 14.0292V15.0925C10.998 15.0175 10.5543 14.8328 10.1725 14.5655L10.9276 13.8104ZM12.5219 14.0114C12.7088 13.9598 12.8854 13.8835 13.0473 13.7851L13.7989 14.5367C13.4264 14.8064 12.9925 14.9957 12.5218 15.0802V14.0115H12.5219V14.0114ZM13.7757 13.0379C13.8676 12.8779 13.9395 12.7048 13.9866 12.5218H15.0517C14.9733 12.9888 14.7917 13.4205 14.5309 13.7929L13.7757 13.0379ZM13.9866 11.4783C13.9395 11.2953 13.8676 11.1224 13.7757 10.9623L14.5309 10.2072C14.7917 10.5797 14.9733 11.0113 15.0516 11.4783H13.9866V11.4783H13.9866ZM9.42875 10.1665L10.1804 10.9182C10.0759 11.0902 9.99561 11.2785 9.94414 11.4783H8.87905C8.96029 10.9943 9.15243 10.5482 9.42875 10.1665ZM8.87905 12.5218H9.94414C9.99557 12.7217 10.0759 12.9099 10.1804 13.0819L9.42875 13.8336C9.15243 13.452 8.96029 13.0059 8.87905 12.5218Z" fill="#F0F0F0"/>
<path d="M18.7478 12.0001C18.7478 10.1448 18.0026 8.46382 16.7955 7.23926L15.6888 8.34602C16.6126 9.28727 17.1826 10.5771 17.1826 12.0001C17.1826 14.8816 14.8466 17.2175 11.9652 17.2175C9.08365 17.2175 6.74782 14.8816 6.74782 12.0001C6.74782 10.5593 7.33174 9.25498 8.27595 8.31087L7.16918 7.2041C5.94176 8.43152 5.18262 10.1272 5.18262 12.0001C5.18262 15.1039 7.26748 17.7208 10.1132 18.5268C9.80121 19.1194 9.84874 19.8656 10.2944 20.4218C10.8798 19.9527 11.4859 19.467 12 19.055C12.5141 19.467 13.1202 19.9527 13.7055 20.4218C14.1556 19.8601 14.1999 19.1044 13.8776 18.5089C16.6922 17.6832 18.7478 15.0819 18.7478 12.0001Z" fill="#F0F0F0"/>
</g>
<defs>
<clipPath id="clip0_1682_2222">
<rect width="24" height="24" fill="white"/>
</clipPath>
</defs>
</svg>
