<svg width="24" height="24" viewBox="0 0 24 24" fill="none" xmlns="http://www.w3.org/2000/svg">
<g clip-path="url(#clip0_1682_1321)">
<path d="M24 11.9999C24 11.4695 23.9651 10.9471 23.8984 10.4347H10.4347C7.98306 7.98328 3.51452 3.51502 3.5147 3.51465C-1.17157 8.20092 -1.17157 15.7989 3.5147 20.4852L10.4348 13.5652H23.8984C23.9651 13.0528 24 12.5304 24 11.9999Z" fill="black"/>
<path d="M23.9966 12.2725C23.996 12.2956 23.9955 12.3189 23.9949 12.342C23.9954 12.3188 23.996 12.2956 23.9966 12.2725Z" fill="#F0F0F0"/>
<path d="M23.9848 12.6006C23.9838 12.6235 23.9822 12.6463 23.981 12.6692C23.9822 12.6464 23.9837 12.6235 23.9848 12.6006Z" fill="#F0F0F0"/>
<path d="M23.9689 12.8623C23.9665 12.896 23.9641 12.9297 23.9614 12.9633C23.9641 12.9297 23.9664 12.896 23.9689 12.8623Z" fill="#F0F0F0"/>
<path d="M23.9287 10.6919C23.9331 10.732 23.9375 10.7721 23.9415 10.8123C23.9375 10.7721 23.9331 10.732 23.9287 10.6919Z" fill="#F0F0F0"/>
<path d="M23.981 11.3301C23.9822 11.353 23.9838 11.3758 23.9848 11.3987C23.9837 11.3758 23.9822 11.3529 23.981 11.3301Z" fill="#F0F0F0"/>
<path d="M23.9949 11.6572C23.9955 11.6804 23.996 11.7036 23.9966 11.7268C23.996 11.7035 23.9955 11.6804 23.9949 11.6572Z" fill="#F0F0F0"/>
<path d="M23.9614 11.0361C23.9641 11.0697 23.9665 11.1034 23.9689 11.1371C23.9664 11.1034 23.9641 11.0697 23.9614 11.0361Z" fill="#F0F0F0"/>
<path d="M23.8984 10.4347C23.9038 10.4758 23.9086 10.5172 23.9135 10.5584C23.2013 4.6108 18.1395 0 12 0C8.68626 0 5.68622 1.3432 3.51465 3.51487L10.4345 10.4348H23.8984V10.4347Z" fill="#D80027"/>
<path d="M23.8984 13.5651H10.4345L3.51465 20.485C5.68622 22.6566 8.68626 23.9998 12 23.9998C18.1395 23.9998 23.2014 19.389 23.9135 13.4414C23.9086 13.4826 23.9037 13.524 23.8984 13.5651Z" fill="#6DA544"/>
<path d="M23.9415 13.1875C23.9375 13.2277 23.9331 13.2678 23.9287 13.3079C23.9331 13.2678 23.9376 13.2278 23.9415 13.1875Z" fill="#F0F0F0"/>
<path d="M23.9688 11.1377C23.9733 11.2019 23.9774 11.2662 23.9809 11.3306C23.9774 11.2662 23.9733 11.2019 23.9688 11.1377Z" fill="black"/>
<path d="M23.9136 10.5586C23.919 10.6031 23.9241 10.6477 23.9289 10.6923C23.924 10.6477 23.9189 10.6031 23.9136 10.5586Z" fill="black"/>
<path d="M23.9414 10.8125C23.9487 10.887 23.9553 10.9617 23.9613 11.0366C23.9554 10.9617 23.9488 10.8869 23.9414 10.8125Z" fill="black"/>
<path d="M24 12C24 12.0913 23.9986 12.1822 23.9966 12.2729C23.9986 12.1821 24 12.0912 24 12Z" fill="black"/>
<path d="M23.9812 12.6694C23.9776 12.7339 23.9735 12.7982 23.969 12.8624C23.9735 12.7982 23.9776 12.7339 23.9812 12.6694Z" fill="black"/>
<path d="M23.9613 12.9634C23.9553 13.0382 23.9487 13.113 23.9414 13.1874C23.9488 13.113 23.9554 13.0382 23.9613 12.9634Z" fill="black"/>
<path d="M23.9289 13.3081C23.9241 13.3527 23.919 13.3973 23.9136 13.4418C23.9189 13.3973 23.924 13.3527 23.9289 13.3081Z" fill="black"/>
<path d="M23.9966 11.7271C23.9986 11.8178 24 11.9087 24 11.9999C24 11.9087 23.9986 11.8178 23.9966 11.7271Z" fill="black"/>
<path d="M23.9851 11.3989C23.9893 11.4848 23.9925 11.571 23.995 11.6573C23.9925 11.571 23.9894 11.4848 23.9851 11.3989Z" fill="black"/>
<path d="M23.9947 12.3423C23.9923 12.4286 23.9891 12.5148 23.9849 12.6007C23.9892 12.5148 23.9923 12.4286 23.9947 12.3423Z" fill="black"/>
<path d="M23.9888 11.4741H9.99401L2.80542 4.28662C2.57306 4.53168 2.3212 4.87387 2.16543 5.11757L9.04006 11.9958L2.15967 18.8763C2.29589 19.1187 2.59265 19.4774 2.80101 19.7108L9.99415 12.5176H23.9904C23.9979 12.3446 24.0002 12.1707 24.0002 11.9959C24.0002 11.7616 23.9937 11.5889 23.9888 11.4741Z" fill="#FFDA44"/>
<path d="M2.91515 14.5584V13.5533C3.91818 13.5533 4.73413 12.7372 4.73413 11.7343C4.73413 11.0246 4.15677 10.4473 3.44718 10.4473C2.96376 10.4473 2.57043 10.8406 2.57043 11.3241C2.57043 11.6333 2.82191 11.8848 3.1311 11.8848C3.30585 11.8848 3.44802 11.7425 3.44802 11.5678H4.45311C4.45311 12.2968 3.86005 12.8899 3.13115 12.8899C2.26776 12.8899 1.56543 12.1875 1.56543 11.3242C1.56543 10.2866 2.40965 9.44238 3.44722 9.44238C4.71106 9.44238 5.73931 10.4706 5.73931 11.7344C5.73927 13.2915 4.47238 14.5584 2.91515 14.5584Z" fill="#FFDA44"/>
</g>
<defs>
<clipPath id="clip0_1682_1321">
<rect width="24" height="24" fill="white"/>
</clipPath>
</defs>
</svg>
