<svg width="24" height="24" viewBox="0 0 24 24" fill="none" xmlns="http://www.w3.org/2000/svg">
<g clip-path="url(#clip0_1682_2148)">
<path d="M22.8093 17.2175C23.5722 15.6399 24 13.87 24 12.0001C24 10.1302 23.5722 8.36037 22.8093 6.78274L12 5.73926L1.19072 6.78274C0.427828 8.36037 0 10.1302 0 12.0001C0 13.87 0.427828 15.6399 1.19072 17.2175L12 18.261L22.8093 17.2175Z" fill="#0052B4"/>
<path d="M12.0002 23.9999C16.7577 23.9999 20.8685 21.2312 22.8095 17.2173H1.19092C3.13192 21.2312 7.24267 23.9999 12.0002 23.9999Z" fill="#D80027"/>
<path d="M20.7829 14.3552L20.1491 14.8505L20.4241 15.6062L19.7572 15.1565L19.1234 15.6517L19.345 14.8785L18.6782 14.4287L19.4821 14.4006L19.7039 13.6274L19.9791 14.3833L20.7829 14.3552Z" fill="#F0F0F0"/>
<path d="M19.16 11.5444L18.7339 12.2266L19.2509 12.8426L18.4704 12.6483L18.0441 13.3303L17.9879 12.5279L17.2075 12.3333L17.9534 12.0319L17.8973 11.2295L18.4143 11.8458L19.16 11.5444Z" fill="#F0F0F0"/>
<path d="M16.6734 9.45752L16.5062 10.2443L17.2028 10.6465L16.4029 10.7308L16.2356 11.5174L15.9084 10.7827L15.1084 10.8666L15.7062 10.3284L15.3791 9.59369L16.0757 9.99579L16.6734 9.45752Z" fill="#F0F0F0"/>
<path d="M13.6228 8.34766L13.7349 9.1442L14.527 9.2838L13.8041 9.63658L13.916 10.4331L13.3573 9.85445L12.6342 10.207L13.0119 9.49675L12.4531 8.91822L13.2453 9.05786L13.6228 8.34766Z" fill="#F0F0F0"/>
<path d="M10.3772 8.34766L10.7549 9.05786L11.5469 8.91812L10.9883 9.49689L11.3658 10.2071L10.6429 9.85445L10.084 10.4329L10.1961 9.63658L9.47314 9.28398L10.2653 9.1442L10.3772 8.34766Z" fill="#F0F0F0"/>
<path d="M7.32663 9.45752L7.92447 9.99579L8.62089 9.59369L8.29385 10.3287L8.89155 10.8668L8.09163 10.7827L7.76435 11.5174L7.59733 10.7307L6.79736 10.6467L7.49393 10.2444L7.32663 9.45752Z" fill="#F0F0F0"/>
<path d="M4.84022 11.5443L5.58614 11.8456L6.10298 11.2295L6.04706 12.032L6.79275 12.3334L6.01232 12.5279L5.95612 13.3301L5.53003 12.6482L4.74951 12.8426L5.26654 12.2265L4.84022 11.5443Z" fill="#F0F0F0"/>
<path d="M3.21729 14.3556L4.02129 14.3836L4.29625 13.6279L4.51821 14.4012L5.32197 14.4293L4.65513 14.8791L4.87675 15.6522L4.243 15.157L3.57611 15.6067L3.85122 14.8509L3.21729 14.3556Z" fill="#F0F0F0"/>
<path d="M22.8095 6.78263C20.8685 2.76867 16.7577 0 12.0002 0C7.24267 0 3.13192 2.76867 1.19092 6.78263H22.8095Z" fill="#FFDA44"/>
</g>
<defs>
<clipPath id="clip0_1682_2148">
<rect width="24" height="24" fill="white"/>
</clipPath>
</defs>
</svg>
