<svg width="24" height="24" viewBox="0 0 24 24" fill="none" xmlns="http://www.w3.org/2000/svg">
<g clip-path="url(#clip0_1682_499)">
<path d="M12 24C18.6274 24 24 18.6274 24 12C24 5.37258 18.6274 0 12 0C5.37258 0 0 5.37258 0 12C0 18.6274 5.37258 24 12 24Z" fill="#F0F0F0"/>
<path d="M22.8515 6.87221C22.2418 5.58437 21.4097 4.42267 20.4047 3.43618L12.0001 2.60889L3.59537 3.43623C3.56856 3.46253 3.5424 3.48943 3.51587 3.51601L6.87212 6.87226L12.0001 7.02887L22.8515 6.87221Z" fill="#FFDA44"/>
<path d="M3.51562 20.4845C3.55978 20.5286 3.60384 20.5728 3.64866 20.6163L12 21.3915L20.3512 20.6163C21.3665 19.632 22.2088 18.4702 22.827 17.1803L7.30425 16.6958C5.96864 18.0315 4.42814 19.5719 3.51562 20.4845Z" fill="#FFDA44"/>
<path d="M23.8807 10.3081L9.91309 9.91309L12.0001 12.0001C11.3819 12.6182 10.4591 13.541 9.91309 14.087L23.8734 13.7442C23.9564 13.1747 24.0001 12.5925 24.0001 12.0001C24.0001 11.4256 23.9588 10.861 23.8807 10.3081Z" fill="black"/>
<path d="M11.9999 0C8.72672 0 5.76018 1.31109 3.59521 3.43603H20.4046C18.2396 1.31109 15.2731 0 11.9999 0Z" fill="#6DA544"/>
<path d="M10.3081 10.3081H23.8807C23.7095 9.09502 23.3572 7.9403 22.8515 6.87207H6.87207L10.3081 10.3081Z" fill="#D80027"/>
<path d="M6.81982 17.1802H22.8271C23.3387 16.1127 23.6966 14.9579 23.8734 13.7441H10.2559C8.92521 15.0748 7.7975 16.2025 6.81982 17.1802Z" fill="#D80027"/>
<path d="M11.9999 24.0001C15.2462 24.0001 18.1909 22.7104 20.3511 20.6162H3.64868C5.80887 22.7104 8.75356 24.0001 11.9999 24.0001Z" fill="#6DA544"/>
<path d="M4.28504 2.80957C4.01827 3.03373 3.76088 3.26871 3.51465 3.51485L12 12.0002L3.51465 20.4855C3.76084 20.7317 4.01827 20.9666 4.28504 21.1908L13.4756 12.0002L4.28504 2.80957Z" fill="black"/>
<path d="M4.82467 8.86963L5.60162 11.261H8.11623L6.08195 12.7391L6.85895 15.1305L4.82467 13.6525L2.79034 15.1305L3.56744 12.7391L1.5332 11.261H4.04767L4.82467 8.86963Z" fill="#D80027"/>
<path d="M6.96184 12.1955L4.93694 11.4781C4.93694 11.4781 4.78731 10.0745 4.77827 10.0269C4.70955 9.66491 4.39141 9.39111 4.00937 9.39111C3.57719 9.39111 3.22675 9.7415 3.22675 10.1737C3.22675 10.2454 3.2372 10.3145 3.25525 10.3805L2.6875 10.952H3.697C3.697 11.9998 2.91512 11.9998 2.91512 13.0433L3.34886 14.0868H5.95755L6.39236 13.0433H6.39217C6.43572 12.9432 6.46216 12.8399 6.47308 12.7367C6.84789 12.5851 6.96184 12.1955 6.96184 12.1955Z" fill="#FFDA44"/>
</g>
<defs>
<clipPath id="clip0_1682_499">
<rect width="24" height="24" fill="white"/>
</clipPath>
</defs>
</svg>
